M48
INCH,TZ
T10C0.016
T11C0.039
T12C0.126
%
T10
X035967Y-21567
X037098Y-12157
X037925Y-12787
X037925Y-39283
X037954Y-78292
X037973Y-78937
X038183Y-12021
X038201Y-21567
X038240Y-30386
X038240Y-48142
X038240Y-57000
X038319Y-65898
X038358Y-74717
X038489Y-78157
X041429Y-84333
X041469Y-79393
X041626Y-86134
X043762Y-79953
X044264Y-81764
X053752Y-88703
X055320Y-84552
X055642Y-83329
X059618Y-82630
X059776Y-83860
X060011Y-78084
X060012Y-74717
X060051Y-48142
X060051Y-65898
X060091Y-57000
X060096Y-84998
X060169Y-39283
X060209Y-30425
X060307Y-12748
X060562Y-78104
X060681Y-21094
X060750Y-11488
X061112Y-78144
X061193Y-12551
X061661Y-78191
X062038Y-87097
X062217Y-12512
X062547Y-81921
T11
X045232Y-06451
X046232Y-06451
X047232Y-06451
X048232Y-06451
X049232Y-06451
X050232Y-06451
X051232Y-06451
X052232Y-06451
X053232Y-06451
X054232Y-06451
X042689Y-85690
X043234Y-86808
X043780Y-85690
X044325Y-86808
X044870Y-85690
X045415Y-86808
X045961Y-85690
X046506Y-86808
X047051Y-85690
X047596Y-86808
X048142Y-85690
X048687Y-86808
X049232Y-85690
X049778Y-86808
X050323Y-85690
X050868Y-86808
X051413Y-85690
X051959Y-86808
X052504Y-85690
X053049Y-86808
X053594Y-85690
X054140Y-86808
X054685Y-85690
X055230Y-86808
X055776Y-85690
X045232Y-84154
X046232Y-84154
X047232Y-84154
X048232Y-84154
X049232Y-84154
X050232Y-84154
X051232Y-84154
X052232Y-84154
X053232Y-84154
X054232Y-84154
T12
X039961Y-86249
X058504Y-86249
M30

