G04 This is an RS-274x file exported by *
G04 gerbv version 2.6.0 *
G04 More information is available about gerbv at *
G04 http://gerbv.gpleda.org/ *
G04 --End of header info--*
%MOIN*%
%FSLAX34Y34*%
%IPPOS*%
G04 --Define apertures--*
%ADD10C,0.0000*%
%ADD11C,0.1732*%
%ADD12C,0.0787*%
%ADD13R,0.0787X0.0787*%
%ADD14C,0.0748*%
G04 --Start main section--*
G54D10*
G01X0055951Y-027656D02*
G75*
G02X0055948Y-026396I-000001J0000630D01*
G01X0059885Y-026388D02*
G75*
G02X0059888Y-027648I0000001J-000630D01*
G01X0055928Y-009935D02*
G01X0059865Y-009927D01*
G01X0055926Y-008675D02*
G01X0059863Y-008667D01*
G01X0049907Y-010147D02*
G75*
G03X0049907Y-010147I-000729J0000000D01*
G01X0054522Y-010140D02*
G75*
G03X0054522Y-010140I-001654J0000000D01*
G01X0055928Y-009935D02*
G75*
G02X0055926Y-008675I-000001J0000630D01*
G01X0034449Y-089963D02*
G01X0034449Y-002562D01*
G01X0063976Y-089963D02*
G01X0034449Y-089963D01*
G01X0063976Y-002562D02*
G01X0063976Y-089963D01*
G01X0034449Y-002562D02*
G01X0063976Y-002562D01*
G01X0042477Y-071965D02*
G01X0038540Y-071966D01*
G01X0042476Y-070705D02*
G01X0038539Y-070707D01*
G01X0049957Y-072160D02*
G75*
G03X0049957Y-072160I-000729J0000000D01*
G01X0047191Y-072161D02*
G75*
G03X0047191Y-072161I-001654J0000000D01*
G01X0042476Y-070705D02*
G75*
G02X0042477Y-071965I0000000J-000630D01*
G01X0054567Y-045581D02*
G75*
G03X0054567Y-045581I-001654J0000000D01*
G01X0055973Y-045376D02*
G75*
G02X0055971Y-044116I-000001J0000630D01*
G01X0059908Y-044108D02*
G75*
G02X0059910Y-045368I0000001J-000630D01*
G01X0055951Y-027656D02*
G01X0059888Y-027648D01*
G01X0055948Y-026396D02*
G01X0059885Y-026388D01*
G01X0049929Y-027868D02*
G75*
G03X0049929Y-027868I-000729J0000000D01*
G01X0054545Y-027860D02*
G75*
G03X0054545Y-027860I-001654J0000000D01*
G01X0042460Y-017548D02*
G01X0038523Y-017550D01*
G01X0049941Y-019003D02*
G75*
G03X0049941Y-019003I-000729J0000000D01*
G01X0047174Y-019005D02*
G75*
G03X0047174Y-019005I-001654J0000000D01*
G01X0042460Y-017548D02*
G75*
G02X0042461Y-018808I0000000J-000630D01*
G01X0038524Y-018810D02*
G75*
G02X0038523Y-017550I0000000J0000630D01*
G01X0055996Y-063097D02*
G01X0059933Y-063089D01*
G01X0055993Y-061837D02*
G01X0059930Y-061829D01*
G01X0059863Y-008667D02*
G75*
G02X0059865Y-009927I0000001J-000630D01*
G01X0057874Y-005908D02*
G75*
G03X0057874Y-005908I-000787J0000000D01*
G01X0042126Y-005908D02*
G75*
G03X0042126Y-005908I-000787J0000000D01*
G01X0057874Y-082103D02*
G75*
G03X0057874Y-082103I-000787J0000000D01*
G01X0042126Y-082103D02*
G75*
G03X0042126Y-082103I-000787J0000000D01*
G01X0037840Y-027576D02*
G75*
G03X0037840Y-027576I-000675J0000000D01*
G01X0037840Y-010154D02*
G75*
G03X0037840Y-010154I-000675J0000000D01*
G01X0049974Y-063309D02*
G75*
G03X0049974Y-063309I-000729J0000000D01*
G01X0054590Y-063301D02*
G75*
G03X0054590Y-063301I-001654J0000000D01*
G01X0055996Y-063097D02*
G75*
G02X0055993Y-061837I-000001J0000630D01*
G01X0059930Y-061829D02*
G75*
G02X0059933Y-063089I0000001J-000630D01*
G01X0055973Y-045376D02*
G01X0059910Y-045368D01*
G01X0055971Y-044116D02*
G01X0059908Y-044108D01*
G01X0049952Y-045588D02*
G75*
G03X0049952Y-045588I-000729J0000000D01*
G01X0061935Y-080529D02*
G75*
G03X0061935Y-080529I-000675J0000000D01*
G01X0061935Y-071769D02*
G75*
G03X0061935Y-071769I-000675J0000000D01*
G01X0061935Y-054249D02*
G75*
G03X0061935Y-054249I-000675J0000000D01*
G01X0061935Y-036336D02*
G75*
G03X0061935Y-036336I-000675J0000000D01*
G01X0061935Y-018816D02*
G75*
G03X0061935Y-018816I-000675J0000000D01*
G01X0037840Y-080529D02*
G75*
G03X0037840Y-080529I-000675J0000000D01*
G01X0037840Y-063009D02*
G75*
G03X0037840Y-063009I-000675J0000000D01*
G01X0042466Y-036527D02*
G01X0038529Y-036529D01*
G01X0042465Y-035267D02*
G01X0038528Y-035269D01*
G01X0049946Y-036722D02*
G75*
G03X0049946Y-036722I-000729J0000000D01*
G01X0047180Y-036724D02*
G75*
G03X0047180Y-036724I-001654J0000000D01*
G01X0042465Y-035267D02*
G75*
G02X0042466Y-036527I0000000J-000630D01*
G01X0038529Y-036529D02*
G75*
G02X0038528Y-035269I0000000J0000630D01*
G01X0042461Y-018808D02*
G01X0038524Y-018810D01*
G01X0038540Y-071966D02*
G75*
G02X0038539Y-070707I0000000J0000630D01*
G01X0042472Y-054246D02*
G01X0038535Y-054248D01*
G01X0042471Y-052986D02*
G01X0038534Y-052988D01*
G01X0049952Y-054441D02*
G75*
G03X0049952Y-054441I-000729J0000000D01*
G01X0047185Y-054443D02*
G75*
G03X0047185Y-054443I-001654J0000000D01*
G01X0042471Y-052986D02*
G75*
G02X0042472Y-054246I0000000J-000630D01*
G01X0038535Y-054248D02*
G75*
G02X0038534Y-052988I0000000J0000630D01*
G01X0037840Y-045096D02*
G75*
G03X0037840Y-045096I-000675J0000000D01*
G54D11*
G01X0039961Y-086249D03*
G01X0058504Y-086249D03*
G54D12*
G01X0043234Y-086808D03*
G01X0044325Y-086808D03*
G01X0045415Y-086808D03*
G01X0046506Y-086808D03*
G01X0047596Y-086808D03*
G01X0048687Y-086808D03*
G01X0049778Y-086808D03*
G01X0050868Y-086808D03*
G01X0051959Y-086808D03*
G01X0053049Y-086808D03*
G01X0054140Y-086808D03*
G01X0055230Y-086808D03*
G01X0042689Y-085690D03*
G01X0043780Y-085690D03*
G01X0044870Y-085690D03*
G01X0045961Y-085690D03*
G01X0047051Y-085690D03*
G01X0048142Y-085690D03*
G01X0049232Y-085690D03*
G01X0050323Y-085690D03*
G01X0051413Y-085690D03*
G01X0052504Y-085690D03*
G01X0053594Y-085690D03*
G01X0054685Y-085690D03*
G54D13*
G01X0055776Y-085690D03*
G54D14*
G01X0045232Y-006451D03*
G01X0046232Y-006451D03*
G01X0047232Y-006451D03*
G01X0048232Y-006451D03*
G01X0049232Y-006451D03*
G01X0050232Y-006451D03*
G01X0051232Y-006451D03*
G01X0052232Y-006451D03*
G01X0053232Y-006451D03*
G01X0054232Y-006451D03*
G01X0054232Y-084154D03*
G01X0053232Y-084154D03*
G01X0052232Y-084154D03*
G01X0051232Y-084154D03*
G01X0050232Y-084154D03*
G01X0049232Y-084154D03*
G01X0048232Y-084154D03*
G01X0047232Y-084154D03*
G01X0046232Y-084154D03*
G01X0045232Y-084154D03*
M02*
