G04 This is an RS-274x file exported by *
G04 gerbv version 2.6.0 *
G04 More information is available about gerbv at *
G04 http://gerbv.gpleda.org/ *
G04 --End of header info--*
%MOIN*%
%FSLAX34Y34*%
%IPPOS*%
G04 --Define apertures--*
%ADD10C,0.0000*%
%ADD11C,0.1732*%
%ADD12C,0.0787*%
%ADD13R,0.0787X0.0787*%
%ADD14C,0.0748*%
%ADD15C,0.0394*%
%ADD16C,0.0039*%
G04 --Start main section--*
G54D10*
G01X0055951Y-027656D02*
G75*
G02X0055948Y-026396I-000001J0000630D01*
G01X0059885Y-026388D02*
G75*
G02X0059888Y-027648I0000001J-000630D01*
G01X0055928Y-009935D02*
G01X0059865Y-009927D01*
G01X0055926Y-008675D02*
G01X0059863Y-008667D01*
G01X0049907Y-010147D02*
G75*
G03X0049907Y-010147I-000729J0000000D01*
G01X0054522Y-010140D02*
G75*
G03X0054522Y-010140I-001654J0000000D01*
G01X0055928Y-009935D02*
G75*
G02X0055926Y-008675I-000001J0000630D01*
G01X0034449Y-089963D02*
G01X0034449Y-002562D01*
G01X0063976Y-089963D02*
G01X0034449Y-089963D01*
G01X0063976Y-002562D02*
G01X0063976Y-089963D01*
G01X0034449Y-002562D02*
G01X0063976Y-002562D01*
G01X0042477Y-071965D02*
G01X0038540Y-071966D01*
G01X0042476Y-070705D02*
G01X0038539Y-070707D01*
G01X0049957Y-072160D02*
G75*
G03X0049957Y-072160I-000729J0000000D01*
G01X0047191Y-072161D02*
G75*
G03X0047191Y-072161I-001654J0000000D01*
G01X0042476Y-070705D02*
G75*
G02X0042477Y-071965I0000000J-000630D01*
G01X0054567Y-045581D02*
G75*
G03X0054567Y-045581I-001654J0000000D01*
G01X0055973Y-045376D02*
G75*
G02X0055971Y-044116I-000001J0000630D01*
G01X0059908Y-044108D02*
G75*
G02X0059910Y-045368I0000001J-000630D01*
G01X0055951Y-027656D02*
G01X0059888Y-027648D01*
G01X0055948Y-026396D02*
G01X0059885Y-026388D01*
G01X0049929Y-027868D02*
G75*
G03X0049929Y-027868I-000729J0000000D01*
G01X0054545Y-027860D02*
G75*
G03X0054545Y-027860I-001654J0000000D01*
G01X0042460Y-017548D02*
G01X0038523Y-017550D01*
G01X0049941Y-019003D02*
G75*
G03X0049941Y-019003I-000729J0000000D01*
G01X0047174Y-019005D02*
G75*
G03X0047174Y-019005I-001654J0000000D01*
G01X0042460Y-017548D02*
G75*
G02X0042461Y-018808I0000000J-000630D01*
G01X0038524Y-018810D02*
G75*
G02X0038523Y-017550I0000000J0000630D01*
G01X0055996Y-063097D02*
G01X0059933Y-063089D01*
G01X0055993Y-061837D02*
G01X0059930Y-061829D01*
G01X0059863Y-008667D02*
G75*
G02X0059865Y-009927I0000001J-000630D01*
G01X0057874Y-005908D02*
G75*
G03X0057874Y-005908I-000787J0000000D01*
G01X0042126Y-005908D02*
G75*
G03X0042126Y-005908I-000787J0000000D01*
G01X0057874Y-082103D02*
G75*
G03X0057874Y-082103I-000787J0000000D01*
G01X0042126Y-082103D02*
G75*
G03X0042126Y-082103I-000787J0000000D01*
G01X0037840Y-027576D02*
G75*
G03X0037840Y-027576I-000675J0000000D01*
G01X0037840Y-010154D02*
G75*
G03X0037840Y-010154I-000675J0000000D01*
G01X0049974Y-063309D02*
G75*
G03X0049974Y-063309I-000729J0000000D01*
G01X0054590Y-063301D02*
G75*
G03X0054590Y-063301I-001654J0000000D01*
G01X0055996Y-063097D02*
G75*
G02X0055993Y-061837I-000001J0000630D01*
G01X0059930Y-061829D02*
G75*
G02X0059933Y-063089I0000001J-000630D01*
G01X0055973Y-045376D02*
G01X0059910Y-045368D01*
G01X0055971Y-044116D02*
G01X0059908Y-044108D01*
G01X0049952Y-045588D02*
G75*
G03X0049952Y-045588I-000729J0000000D01*
G01X0061935Y-080529D02*
G75*
G03X0061935Y-080529I-000675J0000000D01*
G01X0061935Y-071769D02*
G75*
G03X0061935Y-071769I-000675J0000000D01*
G01X0061935Y-054249D02*
G75*
G03X0061935Y-054249I-000675J0000000D01*
G01X0061935Y-036336D02*
G75*
G03X0061935Y-036336I-000675J0000000D01*
G01X0061935Y-018816D02*
G75*
G03X0061935Y-018816I-000675J0000000D01*
G01X0037840Y-080529D02*
G75*
G03X0037840Y-080529I-000675J0000000D01*
G01X0037840Y-063009D02*
G75*
G03X0037840Y-063009I-000675J0000000D01*
G01X0042466Y-036527D02*
G01X0038529Y-036529D01*
G01X0042465Y-035267D02*
G01X0038528Y-035269D01*
G01X0049946Y-036722D02*
G75*
G03X0049946Y-036722I-000729J0000000D01*
G01X0047180Y-036724D02*
G75*
G03X0047180Y-036724I-001654J0000000D01*
G01X0042465Y-035267D02*
G75*
G02X0042466Y-036527I0000000J-000630D01*
G01X0038529Y-036529D02*
G75*
G02X0038528Y-035269I0000000J0000630D01*
G01X0042461Y-018808D02*
G01X0038524Y-018810D01*
G01X0038540Y-071966D02*
G75*
G02X0038539Y-070707I0000000J0000630D01*
G01X0042472Y-054246D02*
G01X0038535Y-054248D01*
G01X0042471Y-052986D02*
G01X0038534Y-052988D01*
G01X0049952Y-054441D02*
G75*
G03X0049952Y-054441I-000729J0000000D01*
G01X0047185Y-054443D02*
G75*
G03X0047185Y-054443I-001654J0000000D01*
G01X0042471Y-052986D02*
G75*
G02X0042472Y-054246I0000000J-000630D01*
G01X0038535Y-054248D02*
G75*
G02X0038534Y-052988I0000000J0000630D01*
G01X0037840Y-045096D02*
G75*
G03X0037840Y-045096I-000675J0000000D01*
G54D11*
G01X0039961Y-086249D03*
G01X0058504Y-086249D03*
G54D12*
G01X0043234Y-086808D03*
G01X0044325Y-086808D03*
G01X0045415Y-086808D03*
G01X0046506Y-086808D03*
G01X0047596Y-086808D03*
G01X0048687Y-086808D03*
G01X0049778Y-086808D03*
G01X0050868Y-086808D03*
G01X0051959Y-086808D03*
G01X0053049Y-086808D03*
G01X0054140Y-086808D03*
G01X0055230Y-086808D03*
G01X0042689Y-085690D03*
G01X0043780Y-085690D03*
G01X0044870Y-085690D03*
G01X0045961Y-085690D03*
G01X0047051Y-085690D03*
G01X0048142Y-085690D03*
G01X0049232Y-085690D03*
G01X0050323Y-085690D03*
G01X0051413Y-085690D03*
G01X0052504Y-085690D03*
G01X0053594Y-085690D03*
G01X0054685Y-085690D03*
G54D13*
G01X0055776Y-085690D03*
G54D14*
G01X0045232Y-006451D03*
G01X0046232Y-006451D03*
G01X0047232Y-006451D03*
G01X0048232Y-006451D03*
G01X0049232Y-006451D03*
G01X0050232Y-006451D03*
G01X0051232Y-006451D03*
G01X0052232Y-006451D03*
G01X0053232Y-006451D03*
G01X0054232Y-006451D03*
G01X0054232Y-084154D03*
G01X0053232Y-084154D03*
G01X0052232Y-084154D03*
G01X0051232Y-084154D03*
G01X0050232Y-084154D03*
G01X0049232Y-084154D03*
G01X0048232Y-084154D03*
G01X0047232Y-084154D03*
G01X0046232Y-084154D03*
G01X0045232Y-084154D03*
G54D15*
G01X0038858Y-074685D03*
G54D16*
G36*
G01X0038869Y-074488D02*
G01X0038888Y-074491D01*
G01X0038907Y-074494D01*
G01X0038926Y-074500D01*
G01X0038943Y-074508D01*
G01X0038960Y-074517D01*
G01X0038976Y-074527D01*
G01X0038991Y-074540D01*
G01X0039005Y-074553D01*
G01X0039017Y-074568D01*
G01X0039027Y-074584D01*
G01X0039036Y-074601D01*
G01X0039038Y-074606D01*
G01X0048898Y-074606D01*
G01X0048898Y-077559D01*
G01X0048740Y-077559D01*
G01X0048740Y-074764D01*
G01X0048110Y-074764D01*
G01X0048110Y-077559D01*
G01X0047953Y-077559D01*
G01X0047953Y-074764D01*
G01X0047323Y-074764D01*
G01X0047323Y-077559D01*
G01X0047165Y-077559D01*
G01X0047165Y-074764D01*
G01X0046535Y-074764D01*
G01X0046535Y-077559D01*
G01X0046378Y-077559D01*
G01X0046378Y-074764D01*
G01X0045748Y-074764D01*
G01X0045748Y-077559D01*
G01X0045591Y-077559D01*
G01X0045591Y-074764D01*
G01X0044961Y-074764D01*
G01X0044961Y-077559D01*
G01X0044803Y-077559D01*
G01X0044803Y-074764D01*
G01X0044173Y-074764D01*
G01X0044173Y-077559D01*
G01X0044016Y-077559D01*
G01X0044016Y-074764D01*
G01X0043386Y-074764D01*
G01X0043386Y-077559D01*
G01X0043228Y-077559D01*
G01X0043228Y-074764D01*
G01X0042598Y-074764D01*
G01X0042598Y-077559D01*
G01X0042441Y-077559D01*
G01X0042441Y-074764D01*
G01X0041811Y-074764D01*
G01X0041811Y-077559D01*
G01X0041654Y-077559D01*
G01X0041654Y-074764D01*
G01X0041024Y-074764D01*
G01X0041024Y-077559D01*
G01X0040866Y-077559D01*
G01X0040866Y-074764D01*
G01X0040236Y-074764D01*
G01X0040236Y-077559D01*
G01X0040079Y-077559D01*
G01X0040079Y-074764D01*
G01X0039449Y-074764D01*
G01X0039449Y-077559D01*
G01X0039291Y-077559D01*
G01X0039291Y-074764D01*
G01X0039038Y-074764D01*
G01X0039034Y-074774D01*
G01X0039024Y-074791D01*
G01X0039013Y-074806D01*
G01X0039001Y-074821D01*
G01X0038987Y-074834D01*
G01X0038972Y-074846D01*
G01X0038956Y-074856D01*
G01X0038938Y-074865D01*
G01X0038920Y-074872D01*
G01X0038902Y-074877D01*
G01X0038883Y-074880D01*
G01X0038864Y-074882D01*
G01X0038845Y-074881D01*
G01X0038825Y-074879D01*
G01X0038807Y-074875D01*
G01X0038788Y-074869D01*
G01X0038771Y-074861D01*
G01X0038754Y-074852D01*
G01X0038738Y-074841D01*
G01X0038724Y-074829D01*
G01X0038710Y-074815D01*
G01X0038698Y-074800D01*
G01X0038688Y-074783D01*
G01X0038679Y-074766D01*
G01X0038678Y-074764D01*
G01X0038661Y-074764D01*
G01X0038661Y-074606D01*
G01X0038678Y-074606D01*
G01X0038681Y-074599D01*
G01X0038691Y-074582D01*
G01X0038701Y-074566D01*
G01X0038714Y-074551D01*
G01X0038728Y-074538D01*
G01X0038743Y-074526D01*
G01X0038759Y-074515D01*
G01X0038776Y-074506D01*
G01X0038794Y-074499D01*
G01X0038812Y-074494D01*
G01X0038831Y-074490D01*
G01X0038850Y-074488D01*
G01X0038869Y-074488D01*
G01X0038869Y-074488D01*
G37*
G54D15*
G01X0059567Y-074685D03*
G54D16*
G36*
G01X0059578Y-074488D02*
G01X0059597Y-074491D01*
G01X0059616Y-074494D01*
G01X0059634Y-074500D01*
G01X0059652Y-074508D01*
G01X0059669Y-074517D01*
G01X0059685Y-074527D01*
G01X0059700Y-074540D01*
G01X0059713Y-074553D01*
G01X0059725Y-074568D01*
G01X0059736Y-074584D01*
G01X0059745Y-074601D01*
G01X0059747Y-074606D01*
G01X0059764Y-074606D01*
G01X0059764Y-074764D01*
G01X0059747Y-074764D01*
G01X0059743Y-074774D01*
G01X0059733Y-074791D01*
G01X0059722Y-074806D01*
G01X0059709Y-074821D01*
G01X0059696Y-074834D01*
G01X0059680Y-074846D01*
G01X0059664Y-074856D01*
G01X0059647Y-074865D01*
G01X0059629Y-074872D01*
G01X0059611Y-074877D01*
G01X0059592Y-074880D01*
G01X0059572Y-074882D01*
G01X0059553Y-074881D01*
G01X0059534Y-074879D01*
G01X0059515Y-074875D01*
G01X0059497Y-074869D01*
G01X0059479Y-074861D01*
G01X0059463Y-074852D01*
G01X0059447Y-074841D01*
G01X0059432Y-074829D01*
G01X0059419Y-074815D01*
G01X0059407Y-074800D01*
G01X0059396Y-074783D01*
G01X0059388Y-074766D01*
G01X0059387Y-074764D01*
G01X0059134Y-074764D01*
G01X0059134Y-077559D01*
G01X0058976Y-077559D01*
G01X0058976Y-074764D01*
G01X0058346Y-074764D01*
G01X0058346Y-077559D01*
G01X0058189Y-077559D01*
G01X0058189Y-074764D01*
G01X0057559Y-074764D01*
G01X0057559Y-077559D01*
G01X0057402Y-077559D01*
G01X0057402Y-074764D01*
G01X0056772Y-074764D01*
G01X0056772Y-077559D01*
G01X0056614Y-077559D01*
G01X0056614Y-074764D01*
G01X0055984Y-074764D01*
G01X0055984Y-077559D01*
G01X0055827Y-077559D01*
G01X0055827Y-074764D01*
G01X0055197Y-074764D01*
G01X0055197Y-077559D01*
G01X0055039Y-077559D01*
G01X0055039Y-074764D01*
G01X0054409Y-074764D01*
G01X0054409Y-077559D01*
G01X0054252Y-077559D01*
G01X0054252Y-074764D01*
G01X0053622Y-074764D01*
G01X0053622Y-077559D01*
G01X0053465Y-077559D01*
G01X0053465Y-074764D01*
G01X0052835Y-074764D01*
G01X0052835Y-077559D01*
G01X0052677Y-077559D01*
G01X0052677Y-074764D01*
G01X0052047Y-074764D01*
G01X0052047Y-077559D01*
G01X0051890Y-077559D01*
G01X0051890Y-074764D01*
G01X0051260Y-074764D01*
G01X0051260Y-077559D01*
G01X0051102Y-077559D01*
G01X0051102Y-074764D01*
G01X0050472Y-074764D01*
G01X0050472Y-077559D01*
G01X0050315Y-077559D01*
G01X0050315Y-074764D01*
G01X0049685Y-074764D01*
G01X0049685Y-077559D01*
G01X0049528Y-077559D01*
G01X0049528Y-074606D01*
G01X0059387Y-074606D01*
G01X0059390Y-074599D01*
G01X0059399Y-074582D01*
G01X0059410Y-074566D01*
G01X0059422Y-074551D01*
G01X0059436Y-074538D01*
G01X0059451Y-074526D01*
G01X0059467Y-074515D01*
G01X0059484Y-074506D01*
G01X0059502Y-074499D01*
G01X0059521Y-074494D01*
G01X0059540Y-074490D01*
G01X0059559Y-074488D01*
G01X0059578Y-074488D01*
G01X0059578Y-074488D01*
G37*
G54D15*
G01X0049213Y-077756D03*
G54D16*
G36*
G01X0049291Y-077576D02*
G01X0049298Y-077578D01*
G01X0049315Y-077588D01*
G01X0049331Y-077598D01*
G01X0049345Y-077611D01*
G01X0049359Y-077624D01*
G01X0049371Y-077639D01*
G01X0049382Y-077655D01*
G01X0049391Y-077672D01*
G01X0049398Y-077690D01*
G01X0049404Y-077708D01*
G01X0049407Y-077727D01*
G01X0049409Y-077746D01*
G01X0049409Y-077771D01*
G01X0049406Y-077790D01*
G01X0049405Y-077795D01*
G01X0049921Y-077795D01*
G01X0049921Y-075000D01*
G01X0050079Y-075000D01*
G01X0050079Y-077795D01*
G01X0050709Y-077795D01*
G01X0050709Y-075000D01*
G01X0050866Y-075000D01*
G01X0050866Y-077795D01*
G01X0051496Y-077795D01*
G01X0051496Y-075000D01*
G01X0051654Y-075000D01*
G01X0051654Y-077795D01*
G01X0052283Y-077795D01*
G01X0052283Y-075000D01*
G01X0052441Y-075000D01*
G01X0052441Y-077795D01*
G01X0053071Y-077795D01*
G01X0053071Y-075000D01*
G01X0053228Y-075000D01*
G01X0053228Y-077795D01*
G01X0053858Y-077795D01*
G01X0053858Y-075000D01*
G01X0054016Y-075000D01*
G01X0054016Y-077795D01*
G01X0054646Y-077795D01*
G01X0054646Y-075000D01*
G01X0054803Y-075000D01*
G01X0054803Y-077795D01*
G01X0055433Y-077795D01*
G01X0055433Y-075000D01*
G01X0055591Y-075000D01*
G01X0055591Y-077795D01*
G01X0056220Y-077795D01*
G01X0056220Y-075000D01*
G01X0056378Y-075000D01*
G01X0056378Y-077795D01*
G01X0057008Y-077795D01*
G01X0057008Y-075000D01*
G01X0057165Y-075000D01*
G01X0057165Y-077795D01*
G01X0057795Y-077795D01*
G01X0057795Y-075000D01*
G01X0057953Y-075000D01*
G01X0057953Y-077795D01*
G01X0058583Y-077795D01*
G01X0058583Y-075000D01*
G01X0058740Y-075000D01*
G01X0058740Y-077795D01*
G01X0059370Y-077795D01*
G01X0059370Y-075000D01*
G01X0059528Y-075000D01*
G01X0059528Y-077953D01*
G01X0038898Y-077953D01*
G01X0038898Y-075000D01*
G01X0039055Y-075000D01*
G01X0039055Y-077795D01*
G01X0039685Y-077795D01*
G01X0039685Y-075000D01*
G01X0039843Y-075000D01*
G01X0039843Y-077795D01*
G01X0040472Y-077795D01*
G01X0040472Y-075000D01*
G01X0040630Y-075000D01*
G01X0040630Y-077795D01*
G01X0041260Y-077795D01*
G01X0041260Y-075000D01*
G01X0041417Y-075000D01*
G01X0041417Y-077795D01*
G01X0042047Y-077795D01*
G01X0042047Y-075000D01*
G01X0042205Y-075000D01*
G01X0042205Y-077795D01*
G01X0042835Y-077795D01*
G01X0042835Y-075000D01*
G01X0042992Y-075000D01*
G01X0042992Y-077795D01*
G01X0043622Y-077795D01*
G01X0043622Y-075000D01*
G01X0043780Y-075000D01*
G01X0043780Y-077795D01*
G01X0044409Y-077795D01*
G01X0044409Y-075000D01*
G01X0044567Y-075000D01*
G01X0044567Y-077795D01*
G01X0045197Y-077795D01*
G01X0045197Y-075000D01*
G01X0045354Y-075000D01*
G01X0045354Y-077795D01*
G01X0045984Y-077795D01*
G01X0045984Y-075000D01*
G01X0046142Y-075000D01*
G01X0046142Y-077795D01*
G01X0046772Y-077795D01*
G01X0046772Y-075000D01*
G01X0046929Y-075000D01*
G01X0046929Y-077795D01*
G01X0047559Y-077795D01*
G01X0047559Y-075000D01*
G01X0047717Y-075000D01*
G01X0047717Y-077795D01*
G01X0048346Y-077795D01*
G01X0048346Y-075000D01*
G01X0048504Y-075000D01*
G01X0048504Y-077795D01*
G01X0049020Y-077795D01*
G01X0049017Y-077782D01*
G01X0049016Y-077763D01*
G01X0049016Y-077744D01*
G01X0049018Y-077724D01*
G01X0049022Y-077706D01*
G01X0049028Y-077687D01*
G01X0049036Y-077670D01*
G01X0049045Y-077653D01*
G01X0049056Y-077637D01*
G01X0049068Y-077622D01*
G01X0049082Y-077609D01*
G01X0049097Y-077597D01*
G01X0049113Y-077586D01*
G01X0049130Y-077577D01*
G01X0049134Y-077576D01*
G01X0049134Y-074606D01*
G01X0049291Y-074606D01*
G01X0049291Y-077576D01*
G01X0049291Y-077576D01*
G37*
G54D15*
G01X0049213Y-068905D03*
G54D16*
G36*
G01X0049291Y-068725D02*
G01X0049298Y-068728D01*
G01X0049315Y-068737D01*
G01X0049331Y-068748D01*
G01X0049345Y-068760D01*
G01X0049359Y-068774D01*
G01X0049371Y-068788D01*
G01X0049382Y-068804D01*
G01X0049391Y-068821D01*
G01X0049398Y-068839D01*
G01X0049404Y-068858D01*
G01X0049407Y-068877D01*
G01X0049409Y-068896D01*
G01X0049409Y-068920D01*
G01X0049406Y-068939D01*
G01X0049405Y-068945D01*
G01X0049921Y-068945D01*
G01X0049921Y-066149D01*
G01X0050079Y-066149D01*
G01X0050079Y-068945D01*
G01X0050709Y-068945D01*
G01X0050709Y-066149D01*
G01X0050866Y-066149D01*
G01X0050866Y-068945D01*
G01X0051496Y-068945D01*
G01X0051496Y-066149D01*
G01X0051654Y-066149D01*
G01X0051654Y-068945D01*
G01X0052283Y-068945D01*
G01X0052283Y-066149D01*
G01X0052441Y-066149D01*
G01X0052441Y-068945D01*
G01X0053071Y-068945D01*
G01X0053071Y-066149D01*
G01X0053228Y-066149D01*
G01X0053228Y-068945D01*
G01X0053858Y-068945D01*
G01X0053858Y-066149D01*
G01X0054016Y-066149D01*
G01X0054016Y-068945D01*
G01X0054646Y-068945D01*
G01X0054646Y-066149D01*
G01X0054803Y-066149D01*
G01X0054803Y-068945D01*
G01X0055433Y-068945D01*
G01X0055433Y-066149D01*
G01X0055591Y-066149D01*
G01X0055591Y-068945D01*
G01X0056220Y-068945D01*
G01X0056220Y-066149D01*
G01X0056378Y-066149D01*
G01X0056378Y-068945D01*
G01X0057008Y-068945D01*
G01X0057008Y-066149D01*
G01X0057165Y-066149D01*
G01X0057165Y-068945D01*
G01X0057795Y-068945D01*
G01X0057795Y-066149D01*
G01X0057953Y-066149D01*
G01X0057953Y-068945D01*
G01X0058583Y-068945D01*
G01X0058583Y-066149D01*
G01X0058740Y-066149D01*
G01X0058740Y-068945D01*
G01X0059370Y-068945D01*
G01X0059370Y-066149D01*
G01X0059528Y-066149D01*
G01X0059528Y-069102D01*
G01X0038898Y-069102D01*
G01X0038898Y-066149D01*
G01X0039055Y-066149D01*
G01X0039055Y-068945D01*
G01X0039685Y-068945D01*
G01X0039685Y-066149D01*
G01X0039843Y-066149D01*
G01X0039843Y-068945D01*
G01X0040472Y-068945D01*
G01X0040472Y-066149D01*
G01X0040630Y-066149D01*
G01X0040630Y-068945D01*
G01X0041260Y-068945D01*
G01X0041260Y-066149D01*
G01X0041417Y-066149D01*
G01X0041417Y-068945D01*
G01X0042047Y-068945D01*
G01X0042047Y-066149D01*
G01X0042205Y-066149D01*
G01X0042205Y-068945D01*
G01X0042835Y-068945D01*
G01X0042835Y-066149D01*
G01X0042992Y-066149D01*
G01X0042992Y-068945D01*
G01X0043622Y-068945D01*
G01X0043622Y-066149D01*
G01X0043780Y-066149D01*
G01X0043780Y-068945D01*
G01X0044409Y-068945D01*
G01X0044409Y-066149D01*
G01X0044567Y-066149D01*
G01X0044567Y-068945D01*
G01X0045197Y-068945D01*
G01X0045197Y-066149D01*
G01X0045354Y-066149D01*
G01X0045354Y-068945D01*
G01X0045984Y-068945D01*
G01X0045984Y-066149D01*
G01X0046142Y-066149D01*
G01X0046142Y-068945D01*
G01X0046772Y-068945D01*
G01X0046772Y-066149D01*
G01X0046929Y-066149D01*
G01X0046929Y-068945D01*
G01X0047559Y-068945D01*
G01X0047559Y-066149D01*
G01X0047717Y-066149D01*
G01X0047717Y-068945D01*
G01X0048346Y-068945D01*
G01X0048346Y-066149D01*
G01X0048504Y-066149D01*
G01X0048504Y-068945D01*
G01X0049020Y-068945D01*
G01X0049017Y-068931D01*
G01X0049016Y-068912D01*
G01X0049016Y-068893D01*
G01X0049018Y-068874D01*
G01X0049022Y-068855D01*
G01X0049028Y-068837D01*
G01X0049036Y-068819D01*
G01X0049045Y-068802D01*
G01X0049056Y-068786D01*
G01X0049068Y-068772D01*
G01X0049082Y-068758D01*
G01X0049097Y-068746D01*
G01X0049113Y-068735D01*
G01X0049130Y-068727D01*
G01X0049134Y-068725D01*
G01X0049134Y-065756D01*
G01X0049291Y-065756D01*
G01X0049291Y-068725D01*
G01X0049291Y-068725D01*
G37*
G54D15*
G01X0059567Y-065834D03*
G54D16*
G36*
G01X0059578Y-065638D02*
G01X0059597Y-065640D01*
G01X0059616Y-065644D01*
G01X0059634Y-065649D01*
G01X0059652Y-065657D01*
G01X0059669Y-065666D01*
G01X0059685Y-065677D01*
G01X0059700Y-065689D01*
G01X0059713Y-065703D01*
G01X0059725Y-065718D01*
G01X0059736Y-065734D01*
G01X0059745Y-065751D01*
G01X0059747Y-065756D01*
G01X0059764Y-065756D01*
G01X0059764Y-065913D01*
G01X0059747Y-065913D01*
G01X0059743Y-065923D01*
G01X0059733Y-065940D01*
G01X0059722Y-065956D01*
G01X0059709Y-065970D01*
G01X0059696Y-065983D01*
G01X0059680Y-065995D01*
G01X0059664Y-066006D01*
G01X0059647Y-066014D01*
G01X0059629Y-066021D01*
G01X0059611Y-066026D01*
G01X0059592Y-066030D01*
G01X0059572Y-066031D01*
G01X0059553Y-066031D01*
G01X0059534Y-066029D01*
G01X0059515Y-066024D01*
G01X0059497Y-066018D01*
G01X0059479Y-066011D01*
G01X0059463Y-066001D01*
G01X0059447Y-065990D01*
G01X0059432Y-065978D01*
G01X0059419Y-065964D01*
G01X0059407Y-065949D01*
G01X0059396Y-065933D01*
G01X0059388Y-065916D01*
G01X0059387Y-065913D01*
G01X0059134Y-065913D01*
G01X0059134Y-068708D01*
G01X0058976Y-068708D01*
G01X0058976Y-065913D01*
G01X0058346Y-065913D01*
G01X0058346Y-068708D01*
G01X0058189Y-068708D01*
G01X0058189Y-065913D01*
G01X0057559Y-065913D01*
G01X0057559Y-068708D01*
G01X0057402Y-068708D01*
G01X0057402Y-065913D01*
G01X0056772Y-065913D01*
G01X0056772Y-068708D01*
G01X0056614Y-068708D01*
G01X0056614Y-065913D01*
G01X0055984Y-065913D01*
G01X0055984Y-068708D01*
G01X0055827Y-068708D01*
G01X0055827Y-065913D01*
G01X0055197Y-065913D01*
G01X0055197Y-068708D01*
G01X0055039Y-068708D01*
G01X0055039Y-065913D01*
G01X0054409Y-065913D01*
G01X0054409Y-068708D01*
G01X0054252Y-068708D01*
G01X0054252Y-065913D01*
G01X0053622Y-065913D01*
G01X0053622Y-068708D01*
G01X0053465Y-068708D01*
G01X0053465Y-065913D01*
G01X0052835Y-065913D01*
G01X0052835Y-068708D01*
G01X0052677Y-068708D01*
G01X0052677Y-065913D01*
G01X0052047Y-065913D01*
G01X0052047Y-068708D01*
G01X0051890Y-068708D01*
G01X0051890Y-065913D01*
G01X0051260Y-065913D01*
G01X0051260Y-068708D01*
G01X0051102Y-068708D01*
G01X0051102Y-065913D01*
G01X0050472Y-065913D01*
G01X0050472Y-068708D01*
G01X0050315Y-068708D01*
G01X0050315Y-065913D01*
G01X0049685Y-065913D01*
G01X0049685Y-068708D01*
G01X0049528Y-068708D01*
G01X0049528Y-065756D01*
G01X0059387Y-065756D01*
G01X0059390Y-065748D01*
G01X0059399Y-065731D01*
G01X0059410Y-065715D01*
G01X0059422Y-065701D01*
G01X0059436Y-065687D01*
G01X0059451Y-065675D01*
G01X0059467Y-065665D01*
G01X0059484Y-065656D01*
G01X0059502Y-065649D01*
G01X0059521Y-065643D01*
G01X0059540Y-065639D01*
G01X0059559Y-065638D01*
G01X0059578Y-065638D01*
G01X0059578Y-065638D01*
G37*
G54D15*
G01X0038858Y-065834D03*
G54D16*
G36*
G01X0038869Y-065638D02*
G01X0038888Y-065640D01*
G01X0038907Y-065644D01*
G01X0038926Y-065649D01*
G01X0038943Y-065657D01*
G01X0038960Y-065666D01*
G01X0038976Y-065677D01*
G01X0038991Y-065689D01*
G01X0039005Y-065703D01*
G01X0039017Y-065718D01*
G01X0039027Y-065734D01*
G01X0039036Y-065751D01*
G01X0039038Y-065756D01*
G01X0048898Y-065756D01*
G01X0048898Y-068708D01*
G01X0048740Y-068708D01*
G01X0048740Y-065913D01*
G01X0048110Y-065913D01*
G01X0048110Y-068708D01*
G01X0047953Y-068708D01*
G01X0047953Y-065913D01*
G01X0047323Y-065913D01*
G01X0047323Y-068708D01*
G01X0047165Y-068708D01*
G01X0047165Y-065913D01*
G01X0046535Y-065913D01*
G01X0046535Y-068708D01*
G01X0046378Y-068708D01*
G01X0046378Y-065913D01*
G01X0045748Y-065913D01*
G01X0045748Y-068708D01*
G01X0045591Y-068708D01*
G01X0045591Y-065913D01*
G01X0044961Y-065913D01*
G01X0044961Y-068708D01*
G01X0044803Y-068708D01*
G01X0044803Y-065913D01*
G01X0044173Y-065913D01*
G01X0044173Y-068708D01*
G01X0044016Y-068708D01*
G01X0044016Y-065913D01*
G01X0043386Y-065913D01*
G01X0043386Y-068708D01*
G01X0043228Y-068708D01*
G01X0043228Y-065913D01*
G01X0042598Y-065913D01*
G01X0042598Y-068708D01*
G01X0042441Y-068708D01*
G01X0042441Y-065913D01*
G01X0041811Y-065913D01*
G01X0041811Y-068708D01*
G01X0041654Y-068708D01*
G01X0041654Y-065913D01*
G01X0041024Y-065913D01*
G01X0041024Y-068708D01*
G01X0040866Y-068708D01*
G01X0040866Y-065913D01*
G01X0040236Y-065913D01*
G01X0040236Y-068708D01*
G01X0040079Y-068708D01*
G01X0040079Y-065913D01*
G01X0039449Y-065913D01*
G01X0039449Y-068708D01*
G01X0039291Y-068708D01*
G01X0039291Y-065913D01*
G01X0039038Y-065913D01*
G01X0039034Y-065923D01*
G01X0039024Y-065940D01*
G01X0039013Y-065956D01*
G01X0039001Y-065970D01*
G01X0038987Y-065983D01*
G01X0038972Y-065995D01*
G01X0038956Y-066006D01*
G01X0038938Y-066014D01*
G01X0038920Y-066021D01*
G01X0038902Y-066026D01*
G01X0038883Y-066030D01*
G01X0038864Y-066031D01*
G01X0038845Y-066031D01*
G01X0038825Y-066029D01*
G01X0038807Y-066024D01*
G01X0038788Y-066018D01*
G01X0038771Y-066011D01*
G01X0038754Y-066001D01*
G01X0038738Y-065990D01*
G01X0038724Y-065978D01*
G01X0038710Y-065964D01*
G01X0038698Y-065949D01*
G01X0038688Y-065933D01*
G01X0038679Y-065916D01*
G01X0038678Y-065913D01*
G01X0038661Y-065913D01*
G01X0038661Y-065756D01*
G01X0038678Y-065756D01*
G01X0038681Y-065748D01*
G01X0038691Y-065731D01*
G01X0038701Y-065715D01*
G01X0038714Y-065701D01*
G01X0038728Y-065687D01*
G01X0038743Y-065675D01*
G01X0038759Y-065665D01*
G01X0038776Y-065656D01*
G01X0038794Y-065649D01*
G01X0038812Y-065643D01*
G01X0038831Y-065639D01*
G01X0038850Y-065638D01*
G01X0038869Y-065638D01*
G01X0038869Y-065638D01*
G37*
G54D15*
G01X0038858Y-056984D03*
G54D16*
G36*
G01X0038869Y-056787D02*
G01X0038888Y-056789D01*
G01X0038907Y-056793D01*
G01X0038926Y-056799D01*
G01X0038943Y-056806D01*
G01X0038960Y-056815D01*
G01X0038976Y-056826D01*
G01X0038991Y-056838D01*
G01X0039005Y-056852D01*
G01X0039017Y-056867D01*
G01X0039027Y-056883D01*
G01X0039036Y-056900D01*
G01X0039038Y-056905D01*
G01X0048898Y-056905D01*
G01X0048898Y-059858D01*
G01X0048740Y-059858D01*
G01X0048740Y-057063D01*
G01X0048110Y-057063D01*
G01X0048110Y-059858D01*
G01X0047953Y-059858D01*
G01X0047953Y-057063D01*
G01X0047323Y-057063D01*
G01X0047323Y-059858D01*
G01X0047165Y-059858D01*
G01X0047165Y-057063D01*
G01X0046535Y-057063D01*
G01X0046535Y-059858D01*
G01X0046378Y-059858D01*
G01X0046378Y-057063D01*
G01X0045748Y-057063D01*
G01X0045748Y-059858D01*
G01X0045591Y-059858D01*
G01X0045591Y-057063D01*
G01X0044961Y-057063D01*
G01X0044961Y-059858D01*
G01X0044803Y-059858D01*
G01X0044803Y-057063D01*
G01X0044173Y-057063D01*
G01X0044173Y-059858D01*
G01X0044016Y-059858D01*
G01X0044016Y-057063D01*
G01X0043386Y-057063D01*
G01X0043386Y-059858D01*
G01X0043228Y-059858D01*
G01X0043228Y-057063D01*
G01X0042598Y-057063D01*
G01X0042598Y-059858D01*
G01X0042441Y-059858D01*
G01X0042441Y-057063D01*
G01X0041811Y-057063D01*
G01X0041811Y-059858D01*
G01X0041654Y-059858D01*
G01X0041654Y-057063D01*
G01X0041024Y-057063D01*
G01X0041024Y-059858D01*
G01X0040866Y-059858D01*
G01X0040866Y-057063D01*
G01X0040236Y-057063D01*
G01X0040236Y-059858D01*
G01X0040079Y-059858D01*
G01X0040079Y-057063D01*
G01X0039449Y-057063D01*
G01X0039449Y-059858D01*
G01X0039291Y-059858D01*
G01X0039291Y-057063D01*
G01X0039038Y-057063D01*
G01X0039034Y-057073D01*
G01X0039024Y-057089D01*
G01X0039013Y-057105D01*
G01X0039001Y-057120D01*
G01X0038987Y-057133D01*
G01X0038972Y-057145D01*
G01X0038956Y-057155D01*
G01X0038938Y-057164D01*
G01X0038920Y-057171D01*
G01X0038902Y-057176D01*
G01X0038883Y-057179D01*
G01X0038864Y-057181D01*
G01X0038845Y-057180D01*
G01X0038825Y-057178D01*
G01X0038807Y-057174D01*
G01X0038788Y-057168D01*
G01X0038771Y-057160D01*
G01X0038754Y-057151D01*
G01X0038738Y-057140D01*
G01X0038724Y-057127D01*
G01X0038710Y-057113D01*
G01X0038698Y-057098D01*
G01X0038688Y-057082D01*
G01X0038679Y-057065D01*
G01X0038678Y-057063D01*
G01X0038661Y-057063D01*
G01X0038661Y-056905D01*
G01X0038678Y-056905D01*
G01X0038681Y-056897D01*
G01X0038691Y-056881D01*
G01X0038701Y-056865D01*
G01X0038714Y-056850D01*
G01X0038728Y-056837D01*
G01X0038743Y-056825D01*
G01X0038759Y-056814D01*
G01X0038776Y-056805D01*
G01X0038794Y-056798D01*
G01X0038812Y-056792D01*
G01X0038831Y-056789D01*
G01X0038850Y-056787D01*
G01X0038869Y-056787D01*
G01X0038869Y-056787D01*
G37*
G54D15*
G01X0059567Y-056984D03*
G54D16*
G36*
G01X0059578Y-056787D02*
G01X0059597Y-056789D01*
G01X0059616Y-056793D01*
G01X0059634Y-056799D01*
G01X0059652Y-056806D01*
G01X0059669Y-056815D01*
G01X0059685Y-056826D01*
G01X0059700Y-056838D01*
G01X0059713Y-056852D01*
G01X0059725Y-056867D01*
G01X0059736Y-056883D01*
G01X0059745Y-056900D01*
G01X0059747Y-056905D01*
G01X0059764Y-056905D01*
G01X0059764Y-057063D01*
G01X0059747Y-057063D01*
G01X0059743Y-057073D01*
G01X0059733Y-057089D01*
G01X0059722Y-057105D01*
G01X0059709Y-057120D01*
G01X0059696Y-057133D01*
G01X0059680Y-057145D01*
G01X0059664Y-057155D01*
G01X0059647Y-057164D01*
G01X0059629Y-057171D01*
G01X0059611Y-057176D01*
G01X0059592Y-057179D01*
G01X0059572Y-057181D01*
G01X0059553Y-057180D01*
G01X0059534Y-057178D01*
G01X0059515Y-057174D01*
G01X0059497Y-057168D01*
G01X0059479Y-057160D01*
G01X0059463Y-057151D01*
G01X0059447Y-057140D01*
G01X0059432Y-057127D01*
G01X0059419Y-057113D01*
G01X0059407Y-057098D01*
G01X0059396Y-057082D01*
G01X0059388Y-057065D01*
G01X0059387Y-057063D01*
G01X0059134Y-057063D01*
G01X0059134Y-059858D01*
G01X0058976Y-059858D01*
G01X0058976Y-057063D01*
G01X0058346Y-057063D01*
G01X0058346Y-059858D01*
G01X0058189Y-059858D01*
G01X0058189Y-057063D01*
G01X0057559Y-057063D01*
G01X0057559Y-059858D01*
G01X0057402Y-059858D01*
G01X0057402Y-057063D01*
G01X0056772Y-057063D01*
G01X0056772Y-059858D01*
G01X0056614Y-059858D01*
G01X0056614Y-057063D01*
G01X0055984Y-057063D01*
G01X0055984Y-059858D01*
G01X0055827Y-059858D01*
G01X0055827Y-057063D01*
G01X0055197Y-057063D01*
G01X0055197Y-059858D01*
G01X0055039Y-059858D01*
G01X0055039Y-057063D01*
G01X0054409Y-057063D01*
G01X0054409Y-059858D01*
G01X0054252Y-059858D01*
G01X0054252Y-057063D01*
G01X0053622Y-057063D01*
G01X0053622Y-059858D01*
G01X0053465Y-059858D01*
G01X0053465Y-057063D01*
G01X0052835Y-057063D01*
G01X0052835Y-059858D01*
G01X0052677Y-059858D01*
G01X0052677Y-057063D01*
G01X0052047Y-057063D01*
G01X0052047Y-059858D01*
G01X0051890Y-059858D01*
G01X0051890Y-057063D01*
G01X0051260Y-057063D01*
G01X0051260Y-059858D01*
G01X0051102Y-059858D01*
G01X0051102Y-057063D01*
G01X0050472Y-057063D01*
G01X0050472Y-059858D01*
G01X0050315Y-059858D01*
G01X0050315Y-057063D01*
G01X0049685Y-057063D01*
G01X0049685Y-059858D01*
G01X0049528Y-059858D01*
G01X0049528Y-056905D01*
G01X0059387Y-056905D01*
G01X0059390Y-056897D01*
G01X0059399Y-056881D01*
G01X0059410Y-056865D01*
G01X0059422Y-056850D01*
G01X0059436Y-056837D01*
G01X0059451Y-056825D01*
G01X0059467Y-056814D01*
G01X0059484Y-056805D01*
G01X0059502Y-056798D01*
G01X0059521Y-056792D01*
G01X0059540Y-056789D01*
G01X0059559Y-056787D01*
G01X0059578Y-056787D01*
G01X0059578Y-056787D01*
G37*
G54D15*
G01X0049213Y-060055D03*
G54D16*
G36*
G01X0049291Y-059874D02*
G01X0049298Y-059877D01*
G01X0049315Y-059886D01*
G01X0049331Y-059897D01*
G01X0049345Y-059909D01*
G01X0049359Y-059923D01*
G01X0049371Y-059938D01*
G01X0049382Y-059954D01*
G01X0049391Y-059971D01*
G01X0049398Y-059989D01*
G01X0049404Y-060007D01*
G01X0049407Y-060026D01*
G01X0049409Y-060045D01*
G01X0049409Y-060070D01*
G01X0049406Y-060089D01*
G01X0049405Y-060094D01*
G01X0049921Y-060094D01*
G01X0049921Y-057299D01*
G01X0050079Y-057299D01*
G01X0050079Y-060094D01*
G01X0050709Y-060094D01*
G01X0050709Y-057299D01*
G01X0050866Y-057299D01*
G01X0050866Y-060094D01*
G01X0051496Y-060094D01*
G01X0051496Y-057299D01*
G01X0051654Y-057299D01*
G01X0051654Y-060094D01*
G01X0052283Y-060094D01*
G01X0052283Y-057299D01*
G01X0052441Y-057299D01*
G01X0052441Y-060094D01*
G01X0053071Y-060094D01*
G01X0053071Y-057299D01*
G01X0053228Y-057299D01*
G01X0053228Y-060094D01*
G01X0053858Y-060094D01*
G01X0053858Y-057299D01*
G01X0054016Y-057299D01*
G01X0054016Y-060094D01*
G01X0054646Y-060094D01*
G01X0054646Y-057299D01*
G01X0054803Y-057299D01*
G01X0054803Y-060094D01*
G01X0055433Y-060094D01*
G01X0055433Y-057299D01*
G01X0055591Y-057299D01*
G01X0055591Y-060094D01*
G01X0056220Y-060094D01*
G01X0056220Y-057299D01*
G01X0056378Y-057299D01*
G01X0056378Y-060094D01*
G01X0057008Y-060094D01*
G01X0057008Y-057299D01*
G01X0057165Y-057299D01*
G01X0057165Y-060094D01*
G01X0057795Y-060094D01*
G01X0057795Y-057299D01*
G01X0057953Y-057299D01*
G01X0057953Y-060094D01*
G01X0058583Y-060094D01*
G01X0058583Y-057299D01*
G01X0058740Y-057299D01*
G01X0058740Y-060094D01*
G01X0059370Y-060094D01*
G01X0059370Y-057299D01*
G01X0059528Y-057299D01*
G01X0059528Y-060251D01*
G01X0038898Y-060251D01*
G01X0038898Y-057299D01*
G01X0039055Y-057299D01*
G01X0039055Y-060094D01*
G01X0039685Y-060094D01*
G01X0039685Y-057299D01*
G01X0039843Y-057299D01*
G01X0039843Y-060094D01*
G01X0040472Y-060094D01*
G01X0040472Y-057299D01*
G01X0040630Y-057299D01*
G01X0040630Y-060094D01*
G01X0041260Y-060094D01*
G01X0041260Y-057299D01*
G01X0041417Y-057299D01*
G01X0041417Y-060094D01*
G01X0042047Y-060094D01*
G01X0042047Y-057299D01*
G01X0042205Y-057299D01*
G01X0042205Y-060094D01*
G01X0042835Y-060094D01*
G01X0042835Y-057299D01*
G01X0042992Y-057299D01*
G01X0042992Y-060094D01*
G01X0043622Y-060094D01*
G01X0043622Y-057299D01*
G01X0043780Y-057299D01*
G01X0043780Y-060094D01*
G01X0044409Y-060094D01*
G01X0044409Y-057299D01*
G01X0044567Y-057299D01*
G01X0044567Y-060094D01*
G01X0045197Y-060094D01*
G01X0045197Y-057299D01*
G01X0045354Y-057299D01*
G01X0045354Y-060094D01*
G01X0045984Y-060094D01*
G01X0045984Y-057299D01*
G01X0046142Y-057299D01*
G01X0046142Y-060094D01*
G01X0046772Y-060094D01*
G01X0046772Y-057299D01*
G01X0046929Y-057299D01*
G01X0046929Y-060094D01*
G01X0047559Y-060094D01*
G01X0047559Y-057299D01*
G01X0047717Y-057299D01*
G01X0047717Y-060094D01*
G01X0048346Y-060094D01*
G01X0048346Y-057299D01*
G01X0048504Y-057299D01*
G01X0048504Y-060094D01*
G01X0049020Y-060094D01*
G01X0049017Y-060081D01*
G01X0049016Y-060062D01*
G01X0049016Y-060042D01*
G01X0049018Y-060023D01*
G01X0049022Y-060004D01*
G01X0049028Y-059986D01*
G01X0049036Y-059968D01*
G01X0049045Y-059951D01*
G01X0049056Y-059936D01*
G01X0049068Y-059921D01*
G01X0049082Y-059907D01*
G01X0049097Y-059895D01*
G01X0049113Y-059885D01*
G01X0049130Y-059876D01*
G01X0049134Y-059874D01*
G01X0049134Y-056905D01*
G01X0049291Y-056905D01*
G01X0049291Y-059874D01*
G01X0049291Y-059874D01*
G37*
G54D15*
G01X0049213Y-051204D03*
G54D16*
G36*
G01X0049291Y-051024D02*
G01X0049298Y-051026D01*
G01X0049315Y-051036D01*
G01X0049331Y-051046D01*
G01X0049345Y-051059D01*
G01X0049359Y-051072D01*
G01X0049371Y-051087D01*
G01X0049382Y-051103D01*
G01X0049391Y-051120D01*
G01X0049398Y-051138D01*
G01X0049404Y-051156D01*
G01X0049407Y-051175D01*
G01X0049409Y-051194D01*
G01X0049409Y-051219D01*
G01X0049406Y-051238D01*
G01X0049405Y-051243D01*
G01X0049921Y-051243D01*
G01X0049921Y-048448D01*
G01X0050079Y-048448D01*
G01X0050079Y-051243D01*
G01X0050709Y-051243D01*
G01X0050709Y-048448D01*
G01X0050866Y-048448D01*
G01X0050866Y-051243D01*
G01X0051496Y-051243D01*
G01X0051496Y-048448D01*
G01X0051654Y-048448D01*
G01X0051654Y-051243D01*
G01X0052283Y-051243D01*
G01X0052283Y-048448D01*
G01X0052441Y-048448D01*
G01X0052441Y-051243D01*
G01X0053071Y-051243D01*
G01X0053071Y-048448D01*
G01X0053228Y-048448D01*
G01X0053228Y-051243D01*
G01X0053858Y-051243D01*
G01X0053858Y-048448D01*
G01X0054016Y-048448D01*
G01X0054016Y-051243D01*
G01X0054646Y-051243D01*
G01X0054646Y-048448D01*
G01X0054803Y-048448D01*
G01X0054803Y-051243D01*
G01X0055433Y-051243D01*
G01X0055433Y-048448D01*
G01X0055591Y-048448D01*
G01X0055591Y-051243D01*
G01X0056220Y-051243D01*
G01X0056220Y-048448D01*
G01X0056378Y-048448D01*
G01X0056378Y-051243D01*
G01X0057008Y-051243D01*
G01X0057008Y-048448D01*
G01X0057165Y-048448D01*
G01X0057165Y-051243D01*
G01X0057795Y-051243D01*
G01X0057795Y-048448D01*
G01X0057953Y-048448D01*
G01X0057953Y-051243D01*
G01X0058583Y-051243D01*
G01X0058583Y-048448D01*
G01X0058740Y-048448D01*
G01X0058740Y-051243D01*
G01X0059370Y-051243D01*
G01X0059370Y-048448D01*
G01X0059528Y-048448D01*
G01X0059528Y-051401D01*
G01X0038898Y-051401D01*
G01X0038898Y-048448D01*
G01X0039055Y-048448D01*
G01X0039055Y-051243D01*
G01X0039685Y-051243D01*
G01X0039685Y-048448D01*
G01X0039843Y-048448D01*
G01X0039843Y-051243D01*
G01X0040472Y-051243D01*
G01X0040472Y-048448D01*
G01X0040630Y-048448D01*
G01X0040630Y-051243D01*
G01X0041260Y-051243D01*
G01X0041260Y-048448D01*
G01X0041417Y-048448D01*
G01X0041417Y-051243D01*
G01X0042047Y-051243D01*
G01X0042047Y-048448D01*
G01X0042205Y-048448D01*
G01X0042205Y-051243D01*
G01X0042835Y-051243D01*
G01X0042835Y-048448D01*
G01X0042992Y-048448D01*
G01X0042992Y-051243D01*
G01X0043622Y-051243D01*
G01X0043622Y-048448D01*
G01X0043780Y-048448D01*
G01X0043780Y-051243D01*
G01X0044409Y-051243D01*
G01X0044409Y-048448D01*
G01X0044567Y-048448D01*
G01X0044567Y-051243D01*
G01X0045197Y-051243D01*
G01X0045197Y-048448D01*
G01X0045354Y-048448D01*
G01X0045354Y-051243D01*
G01X0045984Y-051243D01*
G01X0045984Y-048448D01*
G01X0046142Y-048448D01*
G01X0046142Y-051243D01*
G01X0046772Y-051243D01*
G01X0046772Y-048448D01*
G01X0046929Y-048448D01*
G01X0046929Y-051243D01*
G01X0047559Y-051243D01*
G01X0047559Y-048448D01*
G01X0047717Y-048448D01*
G01X0047717Y-051243D01*
G01X0048346Y-051243D01*
G01X0048346Y-048448D01*
G01X0048504Y-048448D01*
G01X0048504Y-051243D01*
G01X0049020Y-051243D01*
G01X0049017Y-051230D01*
G01X0049016Y-051211D01*
G01X0049016Y-051192D01*
G01X0049018Y-051173D01*
G01X0049022Y-051154D01*
G01X0049028Y-051135D01*
G01X0049036Y-051118D01*
G01X0049045Y-051101D01*
G01X0049056Y-051085D01*
G01X0049068Y-051070D01*
G01X0049082Y-051057D01*
G01X0049097Y-051045D01*
G01X0049113Y-051034D01*
G01X0049130Y-051025D01*
G01X0049134Y-051024D01*
G01X0049134Y-048054D01*
G01X0049291Y-048054D01*
G01X0049291Y-051024D01*
G01X0049291Y-051024D01*
G37*
G54D15*
G01X0059567Y-048133D03*
G54D16*
G36*
G01X0059578Y-047937D02*
G01X0059597Y-047939D01*
G01X0059616Y-047942D01*
G01X0059634Y-047948D01*
G01X0059652Y-047956D01*
G01X0059669Y-047965D01*
G01X0059685Y-047976D01*
G01X0059700Y-047988D01*
G01X0059713Y-048001D01*
G01X0059725Y-048016D01*
G01X0059736Y-048032D01*
G01X0059745Y-048049D01*
G01X0059747Y-048054D01*
G01X0059764Y-048054D01*
G01X0059764Y-048212D01*
G01X0059747Y-048212D01*
G01X0059743Y-048222D01*
G01X0059733Y-048239D01*
G01X0059722Y-048254D01*
G01X0059709Y-048269D01*
G01X0059696Y-048282D01*
G01X0059680Y-048294D01*
G01X0059664Y-048304D01*
G01X0059647Y-048313D01*
G01X0059629Y-048320D01*
G01X0059611Y-048325D01*
G01X0059592Y-048328D01*
G01X0059572Y-048330D01*
G01X0059553Y-048330D01*
G01X0059534Y-048327D01*
G01X0059515Y-048323D01*
G01X0059497Y-048317D01*
G01X0059479Y-048309D01*
G01X0059463Y-048300D01*
G01X0059447Y-048289D01*
G01X0059432Y-048277D01*
G01X0059419Y-048263D01*
G01X0059407Y-048248D01*
G01X0059396Y-048232D01*
G01X0059388Y-048214D01*
G01X0059387Y-048212D01*
G01X0059134Y-048212D01*
G01X0059134Y-051007D01*
G01X0058976Y-051007D01*
G01X0058976Y-048212D01*
G01X0058346Y-048212D01*
G01X0058346Y-051007D01*
G01X0058189Y-051007D01*
G01X0058189Y-048212D01*
G01X0057559Y-048212D01*
G01X0057559Y-051007D01*
G01X0057402Y-051007D01*
G01X0057402Y-048212D01*
G01X0056772Y-048212D01*
G01X0056772Y-051007D01*
G01X0056614Y-051007D01*
G01X0056614Y-048212D01*
G01X0055984Y-048212D01*
G01X0055984Y-051007D01*
G01X0055827Y-051007D01*
G01X0055827Y-048212D01*
G01X0055197Y-048212D01*
G01X0055197Y-051007D01*
G01X0055039Y-051007D01*
G01X0055039Y-048212D01*
G01X0054409Y-048212D01*
G01X0054409Y-051007D01*
G01X0054252Y-051007D01*
G01X0054252Y-048212D01*
G01X0053622Y-048212D01*
G01X0053622Y-051007D01*
G01X0053465Y-051007D01*
G01X0053465Y-048212D01*
G01X0052835Y-048212D01*
G01X0052835Y-051007D01*
G01X0052677Y-051007D01*
G01X0052677Y-048212D01*
G01X0052047Y-048212D01*
G01X0052047Y-051007D01*
G01X0051890Y-051007D01*
G01X0051890Y-048212D01*
G01X0051260Y-048212D01*
G01X0051260Y-051007D01*
G01X0051102Y-051007D01*
G01X0051102Y-048212D01*
G01X0050472Y-048212D01*
G01X0050472Y-051007D01*
G01X0050315Y-051007D01*
G01X0050315Y-048212D01*
G01X0049685Y-048212D01*
G01X0049685Y-051007D01*
G01X0049528Y-051007D01*
G01X0049528Y-048054D01*
G01X0059387Y-048054D01*
G01X0059390Y-048047D01*
G01X0059399Y-048030D01*
G01X0059410Y-048014D01*
G01X0059422Y-047999D01*
G01X0059436Y-047986D01*
G01X0059451Y-047974D01*
G01X0059467Y-047963D01*
G01X0059484Y-047954D01*
G01X0059502Y-047947D01*
G01X0059521Y-047942D01*
G01X0059540Y-047938D01*
G01X0059559Y-047936D01*
G01X0059578Y-047937D01*
G01X0059578Y-047937D01*
G37*
G54D15*
G01X0038858Y-048133D03*
G54D16*
G36*
G01X0038869Y-047937D02*
G01X0038888Y-047939D01*
G01X0038907Y-047942D01*
G01X0038926Y-047948D01*
G01X0038943Y-047956D01*
G01X0038960Y-047965D01*
G01X0038976Y-047976D01*
G01X0038991Y-047988D01*
G01X0039005Y-048001D01*
G01X0039017Y-048016D01*
G01X0039027Y-048032D01*
G01X0039036Y-048049D01*
G01X0039038Y-048054D01*
G01X0048898Y-048054D01*
G01X0048898Y-051007D01*
G01X0048740Y-051007D01*
G01X0048740Y-048212D01*
G01X0048110Y-048212D01*
G01X0048110Y-051007D01*
G01X0047953Y-051007D01*
G01X0047953Y-048212D01*
G01X0047323Y-048212D01*
G01X0047323Y-051007D01*
G01X0047165Y-051007D01*
G01X0047165Y-048212D01*
G01X0046535Y-048212D01*
G01X0046535Y-051007D01*
G01X0046378Y-051007D01*
G01X0046378Y-048212D01*
G01X0045748Y-048212D01*
G01X0045748Y-051007D01*
G01X0045591Y-051007D01*
G01X0045591Y-048212D01*
G01X0044961Y-048212D01*
G01X0044961Y-051007D01*
G01X0044803Y-051007D01*
G01X0044803Y-048212D01*
G01X0044173Y-048212D01*
G01X0044173Y-051007D01*
G01X0044016Y-051007D01*
G01X0044016Y-048212D01*
G01X0043386Y-048212D01*
G01X0043386Y-051007D01*
G01X0043228Y-051007D01*
G01X0043228Y-048212D01*
G01X0042598Y-048212D01*
G01X0042598Y-051007D01*
G01X0042441Y-051007D01*
G01X0042441Y-048212D01*
G01X0041811Y-048212D01*
G01X0041811Y-051007D01*
G01X0041654Y-051007D01*
G01X0041654Y-048212D01*
G01X0041024Y-048212D01*
G01X0041024Y-051007D01*
G01X0040866Y-051007D01*
G01X0040866Y-048212D01*
G01X0040236Y-048212D01*
G01X0040236Y-051007D01*
G01X0040079Y-051007D01*
G01X0040079Y-048212D01*
G01X0039449Y-048212D01*
G01X0039449Y-051007D01*
G01X0039291Y-051007D01*
G01X0039291Y-048212D01*
G01X0039038Y-048212D01*
G01X0039034Y-048222D01*
G01X0039024Y-048239D01*
G01X0039013Y-048254D01*
G01X0039001Y-048269D01*
G01X0038987Y-048282D01*
G01X0038972Y-048294D01*
G01X0038956Y-048304D01*
G01X0038938Y-048313D01*
G01X0038920Y-048320D01*
G01X0038902Y-048325D01*
G01X0038883Y-048328D01*
G01X0038864Y-048330D01*
G01X0038845Y-048330D01*
G01X0038825Y-048327D01*
G01X0038807Y-048323D01*
G01X0038788Y-048317D01*
G01X0038771Y-048309D01*
G01X0038754Y-048300D01*
G01X0038738Y-048289D01*
G01X0038724Y-048277D01*
G01X0038710Y-048263D01*
G01X0038698Y-048248D01*
G01X0038688Y-048232D01*
G01X0038679Y-048214D01*
G01X0038678Y-048212D01*
G01X0038661Y-048212D01*
G01X0038661Y-048054D01*
G01X0038678Y-048054D01*
G01X0038681Y-048047D01*
G01X0038691Y-048030D01*
G01X0038701Y-048014D01*
G01X0038714Y-047999D01*
G01X0038728Y-047986D01*
G01X0038743Y-047974D01*
G01X0038759Y-047963D01*
G01X0038776Y-047954D01*
G01X0038794Y-047947D01*
G01X0038812Y-047942D01*
G01X0038831Y-047938D01*
G01X0038850Y-047936D01*
G01X0038869Y-047937D01*
G01X0038869Y-047937D01*
G37*
G54D15*
G01X0038858Y-039283D03*
G54D16*
G36*
G01X0038869Y-039086D02*
G01X0038888Y-039088D01*
G01X0038907Y-039092D01*
G01X0038926Y-039098D01*
G01X0038943Y-039105D01*
G01X0038960Y-039114D01*
G01X0038976Y-039125D01*
G01X0038991Y-039137D01*
G01X0039005Y-039151D01*
G01X0039017Y-039166D01*
G01X0039027Y-039182D01*
G01X0039036Y-039199D01*
G01X0039038Y-039204D01*
G01X0048898Y-039204D01*
G01X0048898Y-042157D01*
G01X0048740Y-042157D01*
G01X0048740Y-039361D01*
G01X0048110Y-039361D01*
G01X0048110Y-042157D01*
G01X0047953Y-042157D01*
G01X0047953Y-039361D01*
G01X0047323Y-039361D01*
G01X0047323Y-042157D01*
G01X0047165Y-042157D01*
G01X0047165Y-039361D01*
G01X0046535Y-039361D01*
G01X0046535Y-042157D01*
G01X0046378Y-042157D01*
G01X0046378Y-039361D01*
G01X0045748Y-039361D01*
G01X0045748Y-042157D01*
G01X0045591Y-042157D01*
G01X0045591Y-039361D01*
G01X0044961Y-039361D01*
G01X0044961Y-042157D01*
G01X0044803Y-042157D01*
G01X0044803Y-039361D01*
G01X0044173Y-039361D01*
G01X0044173Y-042157D01*
G01X0044016Y-042157D01*
G01X0044016Y-039361D01*
G01X0043386Y-039361D01*
G01X0043386Y-042157D01*
G01X0043228Y-042157D01*
G01X0043228Y-039361D01*
G01X0042598Y-039361D01*
G01X0042598Y-042157D01*
G01X0042441Y-042157D01*
G01X0042441Y-039361D01*
G01X0041811Y-039361D01*
G01X0041811Y-042157D01*
G01X0041654Y-042157D01*
G01X0041654Y-039361D01*
G01X0041024Y-039361D01*
G01X0041024Y-042157D01*
G01X0040866Y-042157D01*
G01X0040866Y-039361D01*
G01X0040236Y-039361D01*
G01X0040236Y-042157D01*
G01X0040079Y-042157D01*
G01X0040079Y-039361D01*
G01X0039449Y-039361D01*
G01X0039449Y-042157D01*
G01X0039291Y-042157D01*
G01X0039291Y-039361D01*
G01X0039038Y-039361D01*
G01X0039034Y-039371D01*
G01X0039024Y-039388D01*
G01X0039013Y-039404D01*
G01X0039001Y-039418D01*
G01X0038987Y-039432D01*
G01X0038972Y-039443D01*
G01X0038956Y-039454D01*
G01X0038938Y-039462D01*
G01X0038920Y-039469D01*
G01X0038902Y-039474D01*
G01X0038883Y-039478D01*
G01X0038864Y-039479D01*
G01X0038845Y-039479D01*
G01X0038825Y-039477D01*
G01X0038807Y-039472D01*
G01X0038788Y-039467D01*
G01X0038771Y-039459D01*
G01X0038754Y-039449D01*
G01X0038738Y-039438D01*
G01X0038724Y-039426D01*
G01X0038710Y-039412D01*
G01X0038698Y-039397D01*
G01X0038688Y-039381D01*
G01X0038679Y-039364D01*
G01X0038678Y-039361D01*
G01X0038661Y-039361D01*
G01X0038661Y-039204D01*
G01X0038678Y-039204D01*
G01X0038681Y-039196D01*
G01X0038691Y-039179D01*
G01X0038701Y-039164D01*
G01X0038714Y-039149D01*
G01X0038728Y-039135D01*
G01X0038743Y-039123D01*
G01X0038759Y-039113D01*
G01X0038776Y-039104D01*
G01X0038794Y-039097D01*
G01X0038812Y-039091D01*
G01X0038831Y-039088D01*
G01X0038850Y-039086D01*
G01X0038869Y-039086D01*
G01X0038869Y-039086D01*
G37*
G54D15*
G01X0059567Y-039283D03*
G54D16*
G36*
G01X0059578Y-039086D02*
G01X0059597Y-039088D01*
G01X0059616Y-039092D01*
G01X0059634Y-039098D01*
G01X0059652Y-039105D01*
G01X0059669Y-039114D01*
G01X0059685Y-039125D01*
G01X0059700Y-039137D01*
G01X0059713Y-039151D01*
G01X0059725Y-039166D01*
G01X0059736Y-039182D01*
G01X0059745Y-039199D01*
G01X0059747Y-039204D01*
G01X0059764Y-039204D01*
G01X0059764Y-039361D01*
G01X0059747Y-039361D01*
G01X0059743Y-039371D01*
G01X0059733Y-039388D01*
G01X0059722Y-039404D01*
G01X0059709Y-039418D01*
G01X0059696Y-039432D01*
G01X0059680Y-039443D01*
G01X0059664Y-039454D01*
G01X0059647Y-039462D01*
G01X0059629Y-039469D01*
G01X0059611Y-039474D01*
G01X0059592Y-039478D01*
G01X0059572Y-039479D01*
G01X0059553Y-039479D01*
G01X0059534Y-039477D01*
G01X0059515Y-039472D01*
G01X0059497Y-039467D01*
G01X0059479Y-039459D01*
G01X0059463Y-039449D01*
G01X0059447Y-039438D01*
G01X0059432Y-039426D01*
G01X0059419Y-039412D01*
G01X0059407Y-039397D01*
G01X0059396Y-039381D01*
G01X0059388Y-039364D01*
G01X0059387Y-039361D01*
G01X0059134Y-039361D01*
G01X0059134Y-042157D01*
G01X0058976Y-042157D01*
G01X0058976Y-039361D01*
G01X0058346Y-039361D01*
G01X0058346Y-042157D01*
G01X0058189Y-042157D01*
G01X0058189Y-039361D01*
G01X0057559Y-039361D01*
G01X0057559Y-042157D01*
G01X0057402Y-042157D01*
G01X0057402Y-039361D01*
G01X0056772Y-039361D01*
G01X0056772Y-042157D01*
G01X0056614Y-042157D01*
G01X0056614Y-039361D01*
G01X0055984Y-039361D01*
G01X0055984Y-042157D01*
G01X0055827Y-042157D01*
G01X0055827Y-039361D01*
G01X0055197Y-039361D01*
G01X0055197Y-042157D01*
G01X0055039Y-042157D01*
G01X0055039Y-039361D01*
G01X0054409Y-039361D01*
G01X0054409Y-042157D01*
G01X0054252Y-042157D01*
G01X0054252Y-039361D01*
G01X0053622Y-039361D01*
G01X0053622Y-042157D01*
G01X0053465Y-042157D01*
G01X0053465Y-039361D01*
G01X0052835Y-039361D01*
G01X0052835Y-042157D01*
G01X0052677Y-042157D01*
G01X0052677Y-039361D01*
G01X0052047Y-039361D01*
G01X0052047Y-042157D01*
G01X0051890Y-042157D01*
G01X0051890Y-039361D01*
G01X0051260Y-039361D01*
G01X0051260Y-042157D01*
G01X0051102Y-042157D01*
G01X0051102Y-039361D01*
G01X0050472Y-039361D01*
G01X0050472Y-042157D01*
G01X0050315Y-042157D01*
G01X0050315Y-039361D01*
G01X0049685Y-039361D01*
G01X0049685Y-042157D01*
G01X0049528Y-042157D01*
G01X0049528Y-039204D01*
G01X0059387Y-039204D01*
G01X0059390Y-039196D01*
G01X0059399Y-039179D01*
G01X0059410Y-039164D01*
G01X0059422Y-039149D01*
G01X0059436Y-039135D01*
G01X0059451Y-039123D01*
G01X0059467Y-039113D01*
G01X0059484Y-039104D01*
G01X0059502Y-039097D01*
G01X0059521Y-039091D01*
G01X0059540Y-039088D01*
G01X0059559Y-039086D01*
G01X0059578Y-039086D01*
G01X0059578Y-039086D01*
G37*
G54D15*
G01X0049213Y-042353D03*
G54D16*
G36*
G01X0049291Y-042173D02*
G01X0049298Y-042176D01*
G01X0049315Y-042185D01*
G01X0049331Y-042196D01*
G01X0049345Y-042208D01*
G01X0049359Y-042222D01*
G01X0049371Y-042237D01*
G01X0049382Y-042253D01*
G01X0049391Y-042270D01*
G01X0049398Y-042287D01*
G01X0049404Y-042306D01*
G01X0049407Y-042325D01*
G01X0049409Y-042344D01*
G01X0049409Y-042368D01*
G01X0049406Y-042388D01*
G01X0049405Y-042393D01*
G01X0049921Y-042393D01*
G01X0049921Y-039597D01*
G01X0050079Y-039597D01*
G01X0050079Y-042393D01*
G01X0050709Y-042393D01*
G01X0050709Y-039597D01*
G01X0050866Y-039597D01*
G01X0050866Y-042393D01*
G01X0051496Y-042393D01*
G01X0051496Y-039597D01*
G01X0051654Y-039597D01*
G01X0051654Y-042393D01*
G01X0052283Y-042393D01*
G01X0052283Y-039597D01*
G01X0052441Y-039597D01*
G01X0052441Y-042393D01*
G01X0053071Y-042393D01*
G01X0053071Y-039597D01*
G01X0053228Y-039597D01*
G01X0053228Y-042393D01*
G01X0053858Y-042393D01*
G01X0053858Y-039597D01*
G01X0054016Y-039597D01*
G01X0054016Y-042393D01*
G01X0054646Y-042393D01*
G01X0054646Y-039597D01*
G01X0054803Y-039597D01*
G01X0054803Y-042393D01*
G01X0055433Y-042393D01*
G01X0055433Y-039597D01*
G01X0055591Y-039597D01*
G01X0055591Y-042393D01*
G01X0056220Y-042393D01*
G01X0056220Y-039597D01*
G01X0056378Y-039597D01*
G01X0056378Y-042393D01*
G01X0057008Y-042393D01*
G01X0057008Y-039597D01*
G01X0057165Y-039597D01*
G01X0057165Y-042393D01*
G01X0057795Y-042393D01*
G01X0057795Y-039597D01*
G01X0057953Y-039597D01*
G01X0057953Y-042393D01*
G01X0058583Y-042393D01*
G01X0058583Y-039597D01*
G01X0058740Y-039597D01*
G01X0058740Y-042393D01*
G01X0059370Y-042393D01*
G01X0059370Y-039597D01*
G01X0059528Y-039597D01*
G01X0059528Y-042550D01*
G01X0038898Y-042550D01*
G01X0038898Y-039597D01*
G01X0039055Y-039597D01*
G01X0039055Y-042393D01*
G01X0039685Y-042393D01*
G01X0039685Y-039597D01*
G01X0039843Y-039597D01*
G01X0039843Y-042393D01*
G01X0040472Y-042393D01*
G01X0040472Y-039597D01*
G01X0040630Y-039597D01*
G01X0040630Y-042393D01*
G01X0041260Y-042393D01*
G01X0041260Y-039597D01*
G01X0041417Y-039597D01*
G01X0041417Y-042393D01*
G01X0042047Y-042393D01*
G01X0042047Y-039597D01*
G01X0042205Y-039597D01*
G01X0042205Y-042393D01*
G01X0042835Y-042393D01*
G01X0042835Y-039597D01*
G01X0042992Y-039597D01*
G01X0042992Y-042393D01*
G01X0043622Y-042393D01*
G01X0043622Y-039597D01*
G01X0043780Y-039597D01*
G01X0043780Y-042393D01*
G01X0044409Y-042393D01*
G01X0044409Y-039597D01*
G01X0044567Y-039597D01*
G01X0044567Y-042393D01*
G01X0045197Y-042393D01*
G01X0045197Y-039597D01*
G01X0045354Y-039597D01*
G01X0045354Y-042393D01*
G01X0045984Y-042393D01*
G01X0045984Y-039597D01*
G01X0046142Y-039597D01*
G01X0046142Y-042393D01*
G01X0046772Y-042393D01*
G01X0046772Y-039597D01*
G01X0046929Y-039597D01*
G01X0046929Y-042393D01*
G01X0047559Y-042393D01*
G01X0047559Y-039597D01*
G01X0047717Y-039597D01*
G01X0047717Y-042393D01*
G01X0048346Y-042393D01*
G01X0048346Y-039597D01*
G01X0048504Y-039597D01*
G01X0048504Y-042393D01*
G01X0049020Y-042393D01*
G01X0049017Y-042379D01*
G01X0049016Y-042360D01*
G01X0049016Y-042341D01*
G01X0049018Y-042322D01*
G01X0049022Y-042303D01*
G01X0049028Y-042285D01*
G01X0049036Y-042267D01*
G01X0049045Y-042250D01*
G01X0049056Y-042234D01*
G01X0049068Y-042220D01*
G01X0049082Y-042206D01*
G01X0049097Y-042194D01*
G01X0049113Y-042184D01*
G01X0049130Y-042175D01*
G01X0049134Y-042173D01*
G01X0049134Y-039204D01*
G01X0049291Y-039204D01*
G01X0049291Y-042173D01*
G01X0049291Y-042173D01*
G37*
G54D15*
G01X0038858Y-030432D03*
G54D16*
G36*
G01X0038869Y-030235D02*
G01X0038888Y-030237D01*
G01X0038907Y-030241D01*
G01X0038926Y-030247D01*
G01X0038943Y-030254D01*
G01X0038960Y-030264D01*
G01X0038976Y-030274D01*
G01X0038991Y-030287D01*
G01X0039005Y-030300D01*
G01X0039017Y-030315D01*
G01X0039027Y-030331D01*
G01X0039036Y-030348D01*
G01X0039038Y-030353D01*
G01X0048898Y-030353D01*
G01X0048898Y-033306D01*
G01X0048740Y-033306D01*
G01X0048740Y-030511D01*
G01X0048110Y-030511D01*
G01X0048110Y-033306D01*
G01X0047953Y-033306D01*
G01X0047953Y-030511D01*
G01X0047323Y-030511D01*
G01X0047323Y-033306D01*
G01X0047165Y-033306D01*
G01X0047165Y-030511D01*
G01X0046535Y-030511D01*
G01X0046535Y-033306D01*
G01X0046378Y-033306D01*
G01X0046378Y-030511D01*
G01X0045748Y-030511D01*
G01X0045748Y-033306D01*
G01X0045591Y-033306D01*
G01X0045591Y-030511D01*
G01X0044961Y-030511D01*
G01X0044961Y-033306D01*
G01X0044803Y-033306D01*
G01X0044803Y-030511D01*
G01X0044173Y-030511D01*
G01X0044173Y-033306D01*
G01X0044016Y-033306D01*
G01X0044016Y-030511D01*
G01X0043386Y-030511D01*
G01X0043386Y-033306D01*
G01X0043228Y-033306D01*
G01X0043228Y-030511D01*
G01X0042598Y-030511D01*
G01X0042598Y-033306D01*
G01X0042441Y-033306D01*
G01X0042441Y-030511D01*
G01X0041811Y-030511D01*
G01X0041811Y-033306D01*
G01X0041654Y-033306D01*
G01X0041654Y-030511D01*
G01X0041024Y-030511D01*
G01X0041024Y-033306D01*
G01X0040866Y-033306D01*
G01X0040866Y-030511D01*
G01X0040236Y-030511D01*
G01X0040236Y-033306D01*
G01X0040079Y-033306D01*
G01X0040079Y-030511D01*
G01X0039449Y-030511D01*
G01X0039449Y-033306D01*
G01X0039291Y-033306D01*
G01X0039291Y-030511D01*
G01X0039038Y-030511D01*
G01X0039034Y-030521D01*
G01X0039024Y-030537D01*
G01X0039013Y-030553D01*
G01X0039001Y-030568D01*
G01X0038987Y-030581D01*
G01X0038972Y-030593D01*
G01X0038956Y-030603D01*
G01X0038938Y-030612D01*
G01X0038920Y-030619D01*
G01X0038902Y-030624D01*
G01X0038883Y-030627D01*
G01X0038864Y-030629D01*
G01X0038845Y-030628D01*
G01X0038825Y-030626D01*
G01X0038807Y-030622D01*
G01X0038788Y-030616D01*
G01X0038771Y-030608D01*
G01X0038754Y-030599D01*
G01X0038738Y-030588D01*
G01X0038724Y-030575D01*
G01X0038710Y-030562D01*
G01X0038698Y-030546D01*
G01X0038688Y-030530D01*
G01X0038679Y-030513D01*
G01X0038678Y-030511D01*
G01X0038661Y-030511D01*
G01X0038661Y-030353D01*
G01X0038678Y-030353D01*
G01X0038681Y-030346D01*
G01X0038691Y-030329D01*
G01X0038701Y-030313D01*
G01X0038714Y-030298D01*
G01X0038728Y-030285D01*
G01X0038743Y-030273D01*
G01X0038759Y-030262D01*
G01X0038776Y-030253D01*
G01X0038794Y-030246D01*
G01X0038812Y-030241D01*
G01X0038831Y-030237D01*
G01X0038850Y-030235D01*
G01X0038869Y-030235D01*
G01X0038869Y-030235D01*
G37*
G54D15*
G01X0059567Y-030432D03*
G54D16*
G36*
G01X0059578Y-030235D02*
G01X0059597Y-030237D01*
G01X0059616Y-030241D01*
G01X0059634Y-030247D01*
G01X0059652Y-030254D01*
G01X0059669Y-030264D01*
G01X0059685Y-030274D01*
G01X0059700Y-030287D01*
G01X0059713Y-030300D01*
G01X0059725Y-030315D01*
G01X0059736Y-030331D01*
G01X0059745Y-030348D01*
G01X0059747Y-030353D01*
G01X0059764Y-030353D01*
G01X0059764Y-030511D01*
G01X0059747Y-030511D01*
G01X0059743Y-030521D01*
G01X0059733Y-030537D01*
G01X0059722Y-030553D01*
G01X0059709Y-030568D01*
G01X0059696Y-030581D01*
G01X0059680Y-030593D01*
G01X0059664Y-030603D01*
G01X0059647Y-030612D01*
G01X0059629Y-030619D01*
G01X0059611Y-030624D01*
G01X0059592Y-030627D01*
G01X0059572Y-030629D01*
G01X0059553Y-030628D01*
G01X0059534Y-030626D01*
G01X0059515Y-030622D01*
G01X0059497Y-030616D01*
G01X0059479Y-030608D01*
G01X0059463Y-030599D01*
G01X0059447Y-030588D01*
G01X0059432Y-030575D01*
G01X0059419Y-030562D01*
G01X0059407Y-030546D01*
G01X0059396Y-030530D01*
G01X0059388Y-030513D01*
G01X0059387Y-030511D01*
G01X0059134Y-030511D01*
G01X0059134Y-033306D01*
G01X0058976Y-033306D01*
G01X0058976Y-030511D01*
G01X0058346Y-030511D01*
G01X0058346Y-033306D01*
G01X0058189Y-033306D01*
G01X0058189Y-030511D01*
G01X0057559Y-030511D01*
G01X0057559Y-033306D01*
G01X0057402Y-033306D01*
G01X0057402Y-030511D01*
G01X0056772Y-030511D01*
G01X0056772Y-033306D01*
G01X0056614Y-033306D01*
G01X0056614Y-030511D01*
G01X0055984Y-030511D01*
G01X0055984Y-033306D01*
G01X0055827Y-033306D01*
G01X0055827Y-030511D01*
G01X0055197Y-030511D01*
G01X0055197Y-033306D01*
G01X0055039Y-033306D01*
G01X0055039Y-030511D01*
G01X0054409Y-030511D01*
G01X0054409Y-033306D01*
G01X0054252Y-033306D01*
G01X0054252Y-030511D01*
G01X0053622Y-030511D01*
G01X0053622Y-033306D01*
G01X0053465Y-033306D01*
G01X0053465Y-030511D01*
G01X0052835Y-030511D01*
G01X0052835Y-033306D01*
G01X0052677Y-033306D01*
G01X0052677Y-030511D01*
G01X0052047Y-030511D01*
G01X0052047Y-033306D01*
G01X0051890Y-033306D01*
G01X0051890Y-030511D01*
G01X0051260Y-030511D01*
G01X0051260Y-033306D01*
G01X0051102Y-033306D01*
G01X0051102Y-030511D01*
G01X0050472Y-030511D01*
G01X0050472Y-033306D01*
G01X0050315Y-033306D01*
G01X0050315Y-030511D01*
G01X0049685Y-030511D01*
G01X0049685Y-033306D01*
G01X0049528Y-033306D01*
G01X0049528Y-030353D01*
G01X0059387Y-030353D01*
G01X0059390Y-030346D01*
G01X0059399Y-030329D01*
G01X0059410Y-030313D01*
G01X0059422Y-030298D01*
G01X0059436Y-030285D01*
G01X0059451Y-030273D01*
G01X0059467Y-030262D01*
G01X0059484Y-030253D01*
G01X0059502Y-030246D01*
G01X0059521Y-030241D01*
G01X0059540Y-030237D01*
G01X0059559Y-030235D01*
G01X0059578Y-030235D01*
G01X0059578Y-030235D01*
G37*
G54D15*
G01X0049213Y-033503D03*
G54D16*
G36*
G01X0049291Y-033323D02*
G01X0049298Y-033325D01*
G01X0049315Y-033334D01*
G01X0049331Y-033345D01*
G01X0049345Y-033357D01*
G01X0049359Y-033371D01*
G01X0049371Y-033386D01*
G01X0049382Y-033402D01*
G01X0049391Y-033419D01*
G01X0049398Y-033437D01*
G01X0049404Y-033455D01*
G01X0049407Y-033474D01*
G01X0049409Y-033493D01*
G01X0049409Y-033518D01*
G01X0049406Y-033537D01*
G01X0049405Y-033542D01*
G01X0049921Y-033542D01*
G01X0049921Y-030747D01*
G01X0050079Y-030747D01*
G01X0050079Y-033542D01*
G01X0050709Y-033542D01*
G01X0050709Y-030747D01*
G01X0050866Y-030747D01*
G01X0050866Y-033542D01*
G01X0051496Y-033542D01*
G01X0051496Y-030747D01*
G01X0051654Y-030747D01*
G01X0051654Y-033542D01*
G01X0052283Y-033542D01*
G01X0052283Y-030747D01*
G01X0052441Y-030747D01*
G01X0052441Y-033542D01*
G01X0053071Y-033542D01*
G01X0053071Y-030747D01*
G01X0053228Y-030747D01*
G01X0053228Y-033542D01*
G01X0053858Y-033542D01*
G01X0053858Y-030747D01*
G01X0054016Y-030747D01*
G01X0054016Y-033542D01*
G01X0054646Y-033542D01*
G01X0054646Y-030747D01*
G01X0054803Y-030747D01*
G01X0054803Y-033542D01*
G01X0055433Y-033542D01*
G01X0055433Y-030747D01*
G01X0055591Y-030747D01*
G01X0055591Y-033542D01*
G01X0056220Y-033542D01*
G01X0056220Y-030747D01*
G01X0056378Y-030747D01*
G01X0056378Y-033542D01*
G01X0057008Y-033542D01*
G01X0057008Y-030747D01*
G01X0057165Y-030747D01*
G01X0057165Y-033542D01*
G01X0057795Y-033542D01*
G01X0057795Y-030747D01*
G01X0057953Y-030747D01*
G01X0057953Y-033542D01*
G01X0058583Y-033542D01*
G01X0058583Y-030747D01*
G01X0058740Y-030747D01*
G01X0058740Y-033542D01*
G01X0059370Y-033542D01*
G01X0059370Y-030747D01*
G01X0059528Y-030747D01*
G01X0059528Y-033700D01*
G01X0038898Y-033700D01*
G01X0038898Y-030747D01*
G01X0039055Y-030747D01*
G01X0039055Y-033542D01*
G01X0039685Y-033542D01*
G01X0039685Y-030747D01*
G01X0039843Y-030747D01*
G01X0039843Y-033542D01*
G01X0040472Y-033542D01*
G01X0040472Y-030747D01*
G01X0040630Y-030747D01*
G01X0040630Y-033542D01*
G01X0041260Y-033542D01*
G01X0041260Y-030747D01*
G01X0041417Y-030747D01*
G01X0041417Y-033542D01*
G01X0042047Y-033542D01*
G01X0042047Y-030747D01*
G01X0042205Y-030747D01*
G01X0042205Y-033542D01*
G01X0042835Y-033542D01*
G01X0042835Y-030747D01*
G01X0042992Y-030747D01*
G01X0042992Y-033542D01*
G01X0043622Y-033542D01*
G01X0043622Y-030747D01*
G01X0043780Y-030747D01*
G01X0043780Y-033542D01*
G01X0044409Y-033542D01*
G01X0044409Y-030747D01*
G01X0044567Y-030747D01*
G01X0044567Y-033542D01*
G01X0045197Y-033542D01*
G01X0045197Y-030747D01*
G01X0045354Y-030747D01*
G01X0045354Y-033542D01*
G01X0045984Y-033542D01*
G01X0045984Y-030747D01*
G01X0046142Y-030747D01*
G01X0046142Y-033542D01*
G01X0046772Y-033542D01*
G01X0046772Y-030747D01*
G01X0046929Y-030747D01*
G01X0046929Y-033542D01*
G01X0047559Y-033542D01*
G01X0047559Y-030747D01*
G01X0047717Y-030747D01*
G01X0047717Y-033542D01*
G01X0048346Y-033542D01*
G01X0048346Y-030747D01*
G01X0048504Y-030747D01*
G01X0048504Y-033542D01*
G01X0049020Y-033542D01*
G01X0049017Y-033529D01*
G01X0049016Y-033510D01*
G01X0049016Y-033490D01*
G01X0049018Y-033471D01*
G01X0049022Y-033452D01*
G01X0049028Y-033434D01*
G01X0049036Y-033416D01*
G01X0049045Y-033400D01*
G01X0049056Y-033384D01*
G01X0049068Y-033369D01*
G01X0049082Y-033356D01*
G01X0049097Y-033344D01*
G01X0049113Y-033333D01*
G01X0049130Y-033324D01*
G01X0049134Y-033323D01*
G01X0049134Y-030353D01*
G01X0049291Y-030353D01*
G01X0049291Y-033323D01*
G01X0049291Y-033323D01*
G37*
G54D15*
G01X0049213Y-024652D03*
G54D16*
G36*
G01X0049291Y-024472D02*
G01X0049298Y-024475D01*
G01X0049315Y-024484D01*
G01X0049331Y-024495D01*
G01X0049345Y-024507D01*
G01X0049359Y-024520D01*
G01X0049371Y-024535D01*
G01X0049382Y-024551D01*
G01X0049391Y-024568D01*
G01X0049398Y-024586D01*
G01X0049404Y-024605D01*
G01X0049407Y-024623D01*
G01X0049409Y-024643D01*
G01X0049409Y-024667D01*
G01X0049406Y-024686D01*
G01X0049405Y-024691D01*
G01X0049921Y-024691D01*
G01X0049921Y-021896D01*
G01X0050079Y-021896D01*
G01X0050079Y-024691D01*
G01X0050709Y-024691D01*
G01X0050709Y-021896D01*
G01X0050866Y-021896D01*
G01X0050866Y-024691D01*
G01X0051496Y-024691D01*
G01X0051496Y-021896D01*
G01X0051654Y-021896D01*
G01X0051654Y-024691D01*
G01X0052283Y-024691D01*
G01X0052283Y-021896D01*
G01X0052441Y-021896D01*
G01X0052441Y-024691D01*
G01X0053071Y-024691D01*
G01X0053071Y-021896D01*
G01X0053228Y-021896D01*
G01X0053228Y-024691D01*
G01X0053858Y-024691D01*
G01X0053858Y-021896D01*
G01X0054016Y-021896D01*
G01X0054016Y-024691D01*
G01X0054646Y-024691D01*
G01X0054646Y-021896D01*
G01X0054803Y-021896D01*
G01X0054803Y-024691D01*
G01X0055433Y-024691D01*
G01X0055433Y-021896D01*
G01X0055591Y-021896D01*
G01X0055591Y-024691D01*
G01X0056220Y-024691D01*
G01X0056220Y-021896D01*
G01X0056378Y-021896D01*
G01X0056378Y-024691D01*
G01X0057008Y-024691D01*
G01X0057008Y-021896D01*
G01X0057165Y-021896D01*
G01X0057165Y-024691D01*
G01X0057795Y-024691D01*
G01X0057795Y-021896D01*
G01X0057953Y-021896D01*
G01X0057953Y-024691D01*
G01X0058583Y-024691D01*
G01X0058583Y-021896D01*
G01X0058740Y-021896D01*
G01X0058740Y-024691D01*
G01X0059370Y-024691D01*
G01X0059370Y-021896D01*
G01X0059528Y-021896D01*
G01X0059528Y-024849D01*
G01X0038898Y-024849D01*
G01X0038898Y-021896D01*
G01X0039055Y-021896D01*
G01X0039055Y-024691D01*
G01X0039685Y-024691D01*
G01X0039685Y-021896D01*
G01X0039843Y-021896D01*
G01X0039843Y-024691D01*
G01X0040472Y-024691D01*
G01X0040472Y-021896D01*
G01X0040630Y-021896D01*
G01X0040630Y-024691D01*
G01X0041260Y-024691D01*
G01X0041260Y-021896D01*
G01X0041417Y-021896D01*
G01X0041417Y-024691D01*
G01X0042047Y-024691D01*
G01X0042047Y-021896D01*
G01X0042205Y-021896D01*
G01X0042205Y-024691D01*
G01X0042835Y-024691D01*
G01X0042835Y-021896D01*
G01X0042992Y-021896D01*
G01X0042992Y-024691D01*
G01X0043622Y-024691D01*
G01X0043622Y-021896D01*
G01X0043780Y-021896D01*
G01X0043780Y-024691D01*
G01X0044409Y-024691D01*
G01X0044409Y-021896D01*
G01X0044567Y-021896D01*
G01X0044567Y-024691D01*
G01X0045197Y-024691D01*
G01X0045197Y-021896D01*
G01X0045354Y-021896D01*
G01X0045354Y-024691D01*
G01X0045984Y-024691D01*
G01X0045984Y-021896D01*
G01X0046142Y-021896D01*
G01X0046142Y-024691D01*
G01X0046772Y-024691D01*
G01X0046772Y-021896D01*
G01X0046929Y-021896D01*
G01X0046929Y-024691D01*
G01X0047559Y-024691D01*
G01X0047559Y-021896D01*
G01X0047717Y-021896D01*
G01X0047717Y-024691D01*
G01X0048346Y-024691D01*
G01X0048346Y-021896D01*
G01X0048504Y-021896D01*
G01X0048504Y-024691D01*
G01X0049020Y-024691D01*
G01X0049017Y-024678D01*
G01X0049016Y-024659D01*
G01X0049016Y-024640D01*
G01X0049018Y-024621D01*
G01X0049022Y-024602D01*
G01X0049028Y-024584D01*
G01X0049036Y-024566D01*
G01X0049045Y-024549D01*
G01X0049056Y-024533D01*
G01X0049068Y-024518D01*
G01X0049082Y-024505D01*
G01X0049097Y-024493D01*
G01X0049113Y-024482D01*
G01X0049130Y-024473D01*
G01X0049134Y-024472D01*
G01X0049134Y-021503D01*
G01X0049291Y-021503D01*
G01X0049291Y-024472D01*
G01X0049291Y-024472D01*
G37*
G54D15*
G01X0059567Y-021581D03*
G54D16*
G36*
G01X0059578Y-021385D02*
G01X0059597Y-021387D01*
G01X0059616Y-021391D01*
G01X0059634Y-021396D01*
G01X0059652Y-021404D01*
G01X0059669Y-021413D01*
G01X0059685Y-021424D01*
G01X0059700Y-021436D01*
G01X0059713Y-021450D01*
G01X0059725Y-021464D01*
G01X0059736Y-021480D01*
G01X0059745Y-021497D01*
G01X0059747Y-021503D01*
G01X0059764Y-021503D01*
G01X0059764Y-021660D01*
G01X0059747Y-021660D01*
G01X0059743Y-021670D01*
G01X0059733Y-021687D01*
G01X0059722Y-021702D01*
G01X0059709Y-021717D01*
G01X0059696Y-021730D01*
G01X0059680Y-021742D01*
G01X0059664Y-021752D01*
G01X0059647Y-021761D01*
G01X0059629Y-021768D01*
G01X0059611Y-021773D01*
G01X0059592Y-021777D01*
G01X0059572Y-021778D01*
G01X0059553Y-021778D01*
G01X0059534Y-021775D01*
G01X0059515Y-021771D01*
G01X0059497Y-021765D01*
G01X0059479Y-021758D01*
G01X0059463Y-021748D01*
G01X0059447Y-021737D01*
G01X0059432Y-021725D01*
G01X0059419Y-021711D01*
G01X0059407Y-021696D01*
G01X0059396Y-021680D01*
G01X0059388Y-021663D01*
G01X0059387Y-021660D01*
G01X0059134Y-021660D01*
G01X0059134Y-024455D01*
G01X0058976Y-024455D01*
G01X0058976Y-021660D01*
G01X0058346Y-021660D01*
G01X0058346Y-024455D01*
G01X0058189Y-024455D01*
G01X0058189Y-021660D01*
G01X0057559Y-021660D01*
G01X0057559Y-024455D01*
G01X0057402Y-024455D01*
G01X0057402Y-021660D01*
G01X0056772Y-021660D01*
G01X0056772Y-024455D01*
G01X0056614Y-024455D01*
G01X0056614Y-021660D01*
G01X0055984Y-021660D01*
G01X0055984Y-024455D01*
G01X0055827Y-024455D01*
G01X0055827Y-021660D01*
G01X0055197Y-021660D01*
G01X0055197Y-024455D01*
G01X0055039Y-024455D01*
G01X0055039Y-021660D01*
G01X0054409Y-021660D01*
G01X0054409Y-024455D01*
G01X0054252Y-024455D01*
G01X0054252Y-021660D01*
G01X0053622Y-021660D01*
G01X0053622Y-024455D01*
G01X0053465Y-024455D01*
G01X0053465Y-021660D01*
G01X0052835Y-021660D01*
G01X0052835Y-024455D01*
G01X0052677Y-024455D01*
G01X0052677Y-021660D01*
G01X0052047Y-021660D01*
G01X0052047Y-024455D01*
G01X0051890Y-024455D01*
G01X0051890Y-021660D01*
G01X0051260Y-021660D01*
G01X0051260Y-024455D01*
G01X0051102Y-024455D01*
G01X0051102Y-021660D01*
G01X0050472Y-021660D01*
G01X0050472Y-024455D01*
G01X0050315Y-024455D01*
G01X0050315Y-021660D01*
G01X0049685Y-021660D01*
G01X0049685Y-024455D01*
G01X0049528Y-024455D01*
G01X0049528Y-021503D01*
G01X0059387Y-021503D01*
G01X0059390Y-021495D01*
G01X0059399Y-021478D01*
G01X0059410Y-021462D01*
G01X0059422Y-021448D01*
G01X0059436Y-021434D01*
G01X0059451Y-021422D01*
G01X0059467Y-021411D01*
G01X0059484Y-021403D01*
G01X0059502Y-021395D01*
G01X0059521Y-021390D01*
G01X0059540Y-021386D01*
G01X0059559Y-021385D01*
G01X0059578Y-021385D01*
G01X0059578Y-021385D01*
G37*
G54D15*
G01X0038858Y-021581D03*
G54D16*
G36*
G01X0038869Y-021385D02*
G01X0038888Y-021387D01*
G01X0038907Y-021391D01*
G01X0038926Y-021396D01*
G01X0038943Y-021404D01*
G01X0038960Y-021413D01*
G01X0038976Y-021424D01*
G01X0038991Y-021436D01*
G01X0039005Y-021450D01*
G01X0039017Y-021464D01*
G01X0039027Y-021480D01*
G01X0039036Y-021497D01*
G01X0039038Y-021503D01*
G01X0048898Y-021503D01*
G01X0048898Y-024455D01*
G01X0048740Y-024455D01*
G01X0048740Y-021660D01*
G01X0048110Y-021660D01*
G01X0048110Y-024455D01*
G01X0047953Y-024455D01*
G01X0047953Y-021660D01*
G01X0047323Y-021660D01*
G01X0047323Y-024455D01*
G01X0047165Y-024455D01*
G01X0047165Y-021660D01*
G01X0046535Y-021660D01*
G01X0046535Y-024455D01*
G01X0046378Y-024455D01*
G01X0046378Y-021660D01*
G01X0045748Y-021660D01*
G01X0045748Y-024455D01*
G01X0045591Y-024455D01*
G01X0045591Y-021660D01*
G01X0044961Y-021660D01*
G01X0044961Y-024455D01*
G01X0044803Y-024455D01*
G01X0044803Y-021660D01*
G01X0044173Y-021660D01*
G01X0044173Y-024455D01*
G01X0044016Y-024455D01*
G01X0044016Y-021660D01*
G01X0043386Y-021660D01*
G01X0043386Y-024455D01*
G01X0043228Y-024455D01*
G01X0043228Y-021660D01*
G01X0042598Y-021660D01*
G01X0042598Y-024455D01*
G01X0042441Y-024455D01*
G01X0042441Y-021660D01*
G01X0041811Y-021660D01*
G01X0041811Y-024455D01*
G01X0041654Y-024455D01*
G01X0041654Y-021660D01*
G01X0041024Y-021660D01*
G01X0041024Y-024455D01*
G01X0040866Y-024455D01*
G01X0040866Y-021660D01*
G01X0040236Y-021660D01*
G01X0040236Y-024455D01*
G01X0040079Y-024455D01*
G01X0040079Y-021660D01*
G01X0039449Y-021660D01*
G01X0039449Y-024455D01*
G01X0039291Y-024455D01*
G01X0039291Y-021660D01*
G01X0039038Y-021660D01*
G01X0039034Y-021670D01*
G01X0039024Y-021687D01*
G01X0039013Y-021702D01*
G01X0039001Y-021717D01*
G01X0038987Y-021730D01*
G01X0038972Y-021742D01*
G01X0038956Y-021752D01*
G01X0038938Y-021761D01*
G01X0038920Y-021768D01*
G01X0038902Y-021773D01*
G01X0038883Y-021777D01*
G01X0038864Y-021778D01*
G01X0038845Y-021778D01*
G01X0038825Y-021775D01*
G01X0038807Y-021771D01*
G01X0038788Y-021765D01*
G01X0038771Y-021758D01*
G01X0038754Y-021748D01*
G01X0038738Y-021737D01*
G01X0038724Y-021725D01*
G01X0038710Y-021711D01*
G01X0038698Y-021696D01*
G01X0038688Y-021680D01*
G01X0038679Y-021663D01*
G01X0038678Y-021660D01*
G01X0038661Y-021660D01*
G01X0038661Y-021503D01*
G01X0038678Y-021503D01*
G01X0038681Y-021495D01*
G01X0038691Y-021478D01*
G01X0038701Y-021462D01*
G01X0038714Y-021448D01*
G01X0038728Y-021434D01*
G01X0038743Y-021422D01*
G01X0038759Y-021411D01*
G01X0038776Y-021403D01*
G01X0038794Y-021395D01*
G01X0038812Y-021390D01*
G01X0038831Y-021386D01*
G01X0038850Y-021385D01*
G01X0038869Y-021385D01*
G01X0038869Y-021385D01*
G37*
G54D15*
G01X0049213Y-015801D03*
G54D16*
G36*
G01X0049291Y-015621D02*
G01X0049298Y-015624D01*
G01X0049315Y-015633D01*
G01X0049331Y-015644D01*
G01X0049345Y-015656D01*
G01X0049359Y-015670D01*
G01X0049371Y-015685D01*
G01X0049382Y-015701D01*
G01X0049391Y-015718D01*
G01X0049398Y-015735D01*
G01X0049404Y-015754D01*
G01X0049407Y-015773D01*
G01X0049409Y-015792D01*
G01X0049409Y-015817D01*
G01X0049406Y-015836D01*
G01X0049405Y-015841D01*
G01X0049921Y-015841D01*
G01X0049921Y-013046D01*
G01X0050079Y-013046D01*
G01X0050079Y-015841D01*
G01X0050709Y-015841D01*
G01X0050709Y-013046D01*
G01X0050866Y-013046D01*
G01X0050866Y-015841D01*
G01X0051496Y-015841D01*
G01X0051496Y-013046D01*
G01X0051654Y-013046D01*
G01X0051654Y-015841D01*
G01X0052283Y-015841D01*
G01X0052283Y-013046D01*
G01X0052441Y-013046D01*
G01X0052441Y-015841D01*
G01X0053071Y-015841D01*
G01X0053071Y-013046D01*
G01X0053228Y-013046D01*
G01X0053228Y-015841D01*
G01X0053858Y-015841D01*
G01X0053858Y-013046D01*
G01X0054016Y-013046D01*
G01X0054016Y-015841D01*
G01X0054646Y-015841D01*
G01X0054646Y-013046D01*
G01X0054803Y-013046D01*
G01X0054803Y-015841D01*
G01X0055433Y-015841D01*
G01X0055433Y-013046D01*
G01X0055591Y-013046D01*
G01X0055591Y-015841D01*
G01X0056220Y-015841D01*
G01X0056220Y-013046D01*
G01X0056378Y-013046D01*
G01X0056378Y-015841D01*
G01X0057008Y-015841D01*
G01X0057008Y-013046D01*
G01X0057165Y-013046D01*
G01X0057165Y-015841D01*
G01X0057795Y-015841D01*
G01X0057795Y-013046D01*
G01X0057953Y-013046D01*
G01X0057953Y-015841D01*
G01X0058583Y-015841D01*
G01X0058583Y-013046D01*
G01X0058740Y-013046D01*
G01X0058740Y-015841D01*
G01X0059370Y-015841D01*
G01X0059370Y-013046D01*
G01X0059528Y-013046D01*
G01X0059528Y-015998D01*
G01X0038898Y-015998D01*
G01X0038898Y-013046D01*
G01X0039055Y-013046D01*
G01X0039055Y-015841D01*
G01X0039685Y-015841D01*
G01X0039685Y-013046D01*
G01X0039843Y-013046D01*
G01X0039843Y-015841D01*
G01X0040472Y-015841D01*
G01X0040472Y-013046D01*
G01X0040630Y-013046D01*
G01X0040630Y-015841D01*
G01X0041260Y-015841D01*
G01X0041260Y-013046D01*
G01X0041417Y-013046D01*
G01X0041417Y-015841D01*
G01X0042047Y-015841D01*
G01X0042047Y-013046D01*
G01X0042205Y-013046D01*
G01X0042205Y-015841D01*
G01X0042835Y-015841D01*
G01X0042835Y-013046D01*
G01X0042992Y-013046D01*
G01X0042992Y-015841D01*
G01X0043622Y-015841D01*
G01X0043622Y-013046D01*
G01X0043780Y-013046D01*
G01X0043780Y-015841D01*
G01X0044409Y-015841D01*
G01X0044409Y-013046D01*
G01X0044567Y-013046D01*
G01X0044567Y-015841D01*
G01X0045197Y-015841D01*
G01X0045197Y-013046D01*
G01X0045354Y-013046D01*
G01X0045354Y-015841D01*
G01X0045984Y-015841D01*
G01X0045984Y-013046D01*
G01X0046142Y-013046D01*
G01X0046142Y-015841D01*
G01X0046772Y-015841D01*
G01X0046772Y-013046D01*
G01X0046929Y-013046D01*
G01X0046929Y-015841D01*
G01X0047559Y-015841D01*
G01X0047559Y-013046D01*
G01X0047717Y-013046D01*
G01X0047717Y-015841D01*
G01X0048346Y-015841D01*
G01X0048346Y-013046D01*
G01X0048504Y-013046D01*
G01X0048504Y-015841D01*
G01X0049020Y-015841D01*
G01X0049017Y-015828D01*
G01X0049016Y-015808D01*
G01X0049016Y-015789D01*
G01X0049018Y-015770D01*
G01X0049022Y-015751D01*
G01X0049028Y-015733D01*
G01X0049036Y-015715D01*
G01X0049045Y-015698D01*
G01X0049056Y-015682D01*
G01X0049068Y-015668D01*
G01X0049082Y-015654D01*
G01X0049097Y-015642D01*
G01X0049113Y-015632D01*
G01X0049130Y-015623D01*
G01X0049134Y-015621D01*
G01X0049134Y-012652D01*
G01X0049291Y-012652D01*
G01X0049291Y-015621D01*
G01X0049291Y-015621D01*
G37*
G54D15*
G01X0059567Y-012731D03*
G54D16*
G36*
G01X0059578Y-012534D02*
G01X0059597Y-012536D01*
G01X0059616Y-012540D01*
G01X0059634Y-012546D01*
G01X0059652Y-012553D01*
G01X0059669Y-012562D01*
G01X0059685Y-012573D01*
G01X0059700Y-012585D01*
G01X0059713Y-012599D01*
G01X0059725Y-012614D01*
G01X0059736Y-012630D01*
G01X0059745Y-012647D01*
G01X0059747Y-012652D01*
G01X0059764Y-012652D01*
G01X0059764Y-012809D01*
G01X0059747Y-012809D01*
G01X0059743Y-012819D01*
G01X0059733Y-012836D01*
G01X0059722Y-012852D01*
G01X0059709Y-012866D01*
G01X0059696Y-012880D01*
G01X0059680Y-012891D01*
G01X0059664Y-012902D01*
G01X0059647Y-012910D01*
G01X0059629Y-012917D01*
G01X0059611Y-012923D01*
G01X0059592Y-012926D01*
G01X0059572Y-012927D01*
G01X0059553Y-012927D01*
G01X0059534Y-012925D01*
G01X0059515Y-012921D01*
G01X0059497Y-012915D01*
G01X0059479Y-012907D01*
G01X0059463Y-012898D01*
G01X0059447Y-012887D01*
G01X0059432Y-012874D01*
G01X0059419Y-012860D01*
G01X0059407Y-012845D01*
G01X0059396Y-012829D01*
G01X0059388Y-012812D01*
G01X0059387Y-012809D01*
G01X0059134Y-012809D01*
G01X0059134Y-015605D01*
G01X0058976Y-015605D01*
G01X0058976Y-012809D01*
G01X0058346Y-012809D01*
G01X0058346Y-015605D01*
G01X0058189Y-015605D01*
G01X0058189Y-012809D01*
G01X0057559Y-012809D01*
G01X0057559Y-015605D01*
G01X0057402Y-015605D01*
G01X0057402Y-012809D01*
G01X0056772Y-012809D01*
G01X0056772Y-015605D01*
G01X0056614Y-015605D01*
G01X0056614Y-012809D01*
G01X0055984Y-012809D01*
G01X0055984Y-015605D01*
G01X0055827Y-015605D01*
G01X0055827Y-012809D01*
G01X0055197Y-012809D01*
G01X0055197Y-015605D01*
G01X0055039Y-015605D01*
G01X0055039Y-012809D01*
G01X0054409Y-012809D01*
G01X0054409Y-015605D01*
G01X0054252Y-015605D01*
G01X0054252Y-012809D01*
G01X0053622Y-012809D01*
G01X0053622Y-015605D01*
G01X0053465Y-015605D01*
G01X0053465Y-012809D01*
G01X0052835Y-012809D01*
G01X0052835Y-015605D01*
G01X0052677Y-015605D01*
G01X0052677Y-012809D01*
G01X0052047Y-012809D01*
G01X0052047Y-015605D01*
G01X0051890Y-015605D01*
G01X0051890Y-012809D01*
G01X0051260Y-012809D01*
G01X0051260Y-015605D01*
G01X0051102Y-015605D01*
G01X0051102Y-012809D01*
G01X0050472Y-012809D01*
G01X0050472Y-015605D01*
G01X0050315Y-015605D01*
G01X0050315Y-012809D01*
G01X0049685Y-012809D01*
G01X0049685Y-015605D01*
G01X0049528Y-015605D01*
G01X0049528Y-012652D01*
G01X0059387Y-012652D01*
G01X0059390Y-012644D01*
G01X0059399Y-012627D01*
G01X0059410Y-012612D01*
G01X0059422Y-012597D01*
G01X0059436Y-012583D01*
G01X0059451Y-012571D01*
G01X0059467Y-012561D01*
G01X0059484Y-012552D01*
G01X0059502Y-012545D01*
G01X0059521Y-012539D01*
G01X0059540Y-012536D01*
G01X0059559Y-012534D01*
G01X0059578Y-012534D01*
G01X0059578Y-012534D01*
G37*
G54D15*
G01X0038858Y-012731D03*
G54D16*
G36*
G01X0038869Y-012534D02*
G01X0038888Y-012536D01*
G01X0038907Y-012540D01*
G01X0038926Y-012546D01*
G01X0038943Y-012553D01*
G01X0038960Y-012562D01*
G01X0038976Y-012573D01*
G01X0038991Y-012585D01*
G01X0039005Y-012599D01*
G01X0039017Y-012614D01*
G01X0039027Y-012630D01*
G01X0039036Y-012647D01*
G01X0039038Y-012652D01*
G01X0048898Y-012652D01*
G01X0048898Y-015605D01*
G01X0048740Y-015605D01*
G01X0048740Y-012809D01*
G01X0048110Y-012809D01*
G01X0048110Y-015605D01*
G01X0047953Y-015605D01*
G01X0047953Y-012809D01*
G01X0047323Y-012809D01*
G01X0047323Y-015605D01*
G01X0047165Y-015605D01*
G01X0047165Y-012809D01*
G01X0046535Y-012809D01*
G01X0046535Y-015605D01*
G01X0046378Y-015605D01*
G01X0046378Y-012809D01*
G01X0045748Y-012809D01*
G01X0045748Y-015605D01*
G01X0045591Y-015605D01*
G01X0045591Y-012809D01*
G01X0044961Y-012809D01*
G01X0044961Y-015605D01*
G01X0044803Y-015605D01*
G01X0044803Y-012809D01*
G01X0044173Y-012809D01*
G01X0044173Y-015605D01*
G01X0044016Y-015605D01*
G01X0044016Y-012809D01*
G01X0043386Y-012809D01*
G01X0043386Y-015605D01*
G01X0043228Y-015605D01*
G01X0043228Y-012809D01*
G01X0042598Y-012809D01*
G01X0042598Y-015605D01*
G01X0042441Y-015605D01*
G01X0042441Y-012809D01*
G01X0041811Y-012809D01*
G01X0041811Y-015605D01*
G01X0041654Y-015605D01*
G01X0041654Y-012809D01*
G01X0041024Y-012809D01*
G01X0041024Y-015605D01*
G01X0040866Y-015605D01*
G01X0040866Y-012809D01*
G01X0040236Y-012809D01*
G01X0040236Y-015605D01*
G01X0040079Y-015605D01*
G01X0040079Y-012809D01*
G01X0039449Y-012809D01*
G01X0039449Y-015605D01*
G01X0039291Y-015605D01*
G01X0039291Y-012809D01*
G01X0039038Y-012809D01*
G01X0039034Y-012819D01*
G01X0039024Y-012836D01*
G01X0039013Y-012852D01*
G01X0039001Y-012866D01*
G01X0038987Y-012880D01*
G01X0038972Y-012891D01*
G01X0038956Y-012902D01*
G01X0038938Y-012910D01*
G01X0038920Y-012917D01*
G01X0038902Y-012923D01*
G01X0038883Y-012926D01*
G01X0038864Y-012927D01*
G01X0038845Y-012927D01*
G01X0038825Y-012925D01*
G01X0038807Y-012921D01*
G01X0038788Y-012915D01*
G01X0038771Y-012907D01*
G01X0038754Y-012898D01*
G01X0038738Y-012887D01*
G01X0038724Y-012874D01*
G01X0038710Y-012860D01*
G01X0038698Y-012845D01*
G01X0038688Y-012829D01*
G01X0038679Y-012812D01*
G01X0038678Y-012809D01*
G01X0038661Y-012809D01*
G01X0038661Y-012652D01*
G01X0038678Y-012652D01*
G01X0038681Y-012644D01*
G01X0038691Y-012627D01*
G01X0038701Y-012612D01*
G01X0038714Y-012597D01*
G01X0038728Y-012583D01*
G01X0038743Y-012571D01*
G01X0038759Y-012561D01*
G01X0038776Y-012552D01*
G01X0038794Y-012545D01*
G01X0038812Y-012539D01*
G01X0038831Y-012536D01*
G01X0038850Y-012534D01*
G01X0038869Y-012534D01*
G01X0038869Y-012534D01*
G37*
M02*
