999
dxfrw 0.6.3
  0
SECTION
  2
HEADER
  9
$ACADVER
  1
AC1021
  9
$DWGCODEPAGE
  3
ANSI_1252
  9
$INSBASE
 10
0
 20
0
 30
0
  9
$EXTMIN
 10
5.000000663982973
 20
4.999999798667886
 30
0
  9
$EXTMAX
 10
255.000000663983
 20
204.9999997986679
 30
0
  9
$LIMMIN
 10
0
 20
0
  9
$LIMMAX
 10
12
 20
9
  9
$ORTHOMODE
 70
    0
  9
$REGENMODE
 70
    1
  9
$FILLMODE
 70
    1
  9
$QTEXTMODE
 70
    0
  9
$MIRRTEXT
 70
    0
  9
$LTSCALE
 40
1
  9
$ATTMODE
 70
    1
  9
$TEXTSIZE
 40
0.2
  9
$TRACEWID
 40
0.05
  9
$TEXTSTYLE
  7
Standard
  9
$CLAYER
  8
0
  9
$CELTYPE
  6
ByLayer
  9
$CECOLOR
 62
  256
  9
$CELTSCALE
 40
1
  9
$DISPSILH
 70
    0
  9
$DIMSCALE
 40
1
  9
$DIMASZ
 40
0.18
  9
$DIMEXO
 40
0.0625
  9
$DIMDLI
 40
0.38
  9
$DIMRND
 40
0
  9
$DIMDLE
 40
0
  9
$DIMEXE
 40
0.18
  9
$DIMTP
 40
0
  9
$DIMTM
 40
0
  9
$DIMTXT
 40
0.18
  9
$DIMCEN
 40
0.09
  9
$DIMTSZ
 40
0
  9
$DIMTOL
 70
    0
  9
$DIMLIM
 70
    0
  9
$DIMTIH
 70
    1
  9
$DIMTOH
 70
    1
  9
$DIMSE1
 70
    0
  9
$DIMSE2
 70
    0
  9
$DIMTAD
 70
    0
  9
$DIMZIN
 70
    0
  9
$DIMBLK
  1

  9
$DIMASO
 70
    1
  9
$DIMSHO
 70
    1
  9
$DIMPOST
  1

  9
$DIMAPOST
  1

  9
$DIMALT
 70
    0
  9
$DIMALTD
 70
    2
  9
$DIMALTF
 40
25.4
  9
$DIMLFAC
 40
1
  9
$DIMTOFL
 70
    0
  9
$DIMTVP
 40
0
  9
$DIMTIX
 70
    0
  9
$DIMSOXD
 70
    0
  9
$DIMSAH
 70
    0
  9
$DIMBLK1
  1

  9
$DIMBLK2
  1

  9
$DIMSTYLE
  2
Standard
  9
$DIMCLRD
 70
    0
  9
$DIMCLRE
 70
    0
  9
$DIMCLRT
 70
    0
  9
$DIMTFAC
 40
1
  9
$DIMGAP
 40
0.09
  9
$DIMJUST
 70
    0
  9
$DIMSD1
 70
    0
  9
$DIMSD2
 70
    0
  9
$DIMTOLJ
 70
    1
  9
$DIMTZIN
 70
    0
  9
$DIMALTZ
 70
    0
  9
$DIMALTTZ
 70
    0
  9
$DIMUPT
 70
    0
  9
$DIMDEC
 70
    4
  9
$DIMTDEC
 70
    4
  9
$DIMALTU
 70
    2
  9
$DIMALTTD
 70
    2
  9
$DIMTXSTY
  7
Standard
  9
$DIMAUNIT
 70
    0
  9
$DIMADEC
 70
    0
  9
$DIMALTRND
 40
0
  9
$DIMAZIN
 70
    0
  9
$DIMDSEP
 70
   46
  9
$DIMATFIT
 70
    3
  9
$DIMFRAC
 70
    0
  9
$DIMLDRBLK
  1

  9
$DIMLUNIT
 70
    2
  9
$DIMLWD
 70
   -2
  9
$DIMLWE
 70
   -2
  9
$DIMTMOVE
 70
    0
  9
$DIMFXL
 40
1
  9
$DIMFXLON
 70
    0
  9
$DIMJOGANG
 40
0.7853981633974483
  9
$DIMTFILL
 70
    0
  9
$DIMTFILLCLR
 70
    0
  9
$DIMARCSYM
 70
    0
  9
$DIMLTYPE
  6

  9
$DIMLTEX1
  6

  9
$DIMLTEX2
  6

  9
$LUNITS
 70
    2
  9
$LUPREC
 70
    4
  9
$SKETCHINC
 40
0.1
  9
$FILLETRAD
 40
0
  9
$AUNITS
 70
    0
  9
$AUPREC
 70
    0
  9
$MENU
  1
.
  9
$ELEVATION
 40
0
  9
$PELEVATION
 40
0
  9
$THICKNESS
 40
0
  9
$LIMCHECK
 70
    0
  9
$CHAMFERA
 40
0
  9
$CHAMFERB
 40
0
  9
$CHAMFERC
 40
0
  9
$CHAMFERD
 40
0
  9
$SKPOLY
 70
    0
  9
$USRTIMER
 70
    1
  9
$ANGBASE
 50
0
  9
$ANGDIR
 70
    0
  9
$PDMODE
 70
    0
  9
$PDSIZE
 40
0
  9
$PLINEWID
 40
0
  9
$SPLFRAME
 70
    0
  9
$SPLINETYPE
 70
    6
  9
$SPLINESEGS
 70
    8
  9
$HANDSEED
  5
20000
  9
$SURFTAB1
 70
    6
  9
$SURFTAB2
 70
    6
  9
$SURFTYPE
 70
    6
  9
$SURFU
 70
    6
  9
$SURFV
 70
    6
  9
$UCSBASE
  2

  9
$UCSNAME
  2

  9
$UCSORG
 10
0
 20
0
 30
0
  9
$UCSXDIR
 10
1
 20
0
 30
0
  9
$UCSYDIR
 10
0
 20
1
 30
0
  9
$UCSORTHOREF
  2

  9
$UCSORTHOVIEW
 70
    0
  9
$UCSORGTOP
 10
0
 20
0
 30
0
  9
$UCSORGBOTTOM
 10
0
 20
0
 30
0
  9
$UCSORGLEFT
 10
0
 20
0
 30
0
  9
$UCSORGRIGHT
 10
0
 20
0
 30
0
  9
$UCSORGFRONT
 10
0
 20
0
 30
0
  9
$UCSORGBACK
 10
0
 20
0
 30
0
  9
$PUCSBASE
  2

  9
$PUCSNAME
  2

  9
$PUCSORG
 10
0
 20
0
 30
0
  9
$PUCSXDIR
 10
1
 20
0
 30
0
  9
$PUCSYDIR
 10
0
 20
1
 30
0
  9
$PUCSORTHOREF
  2

  9
$PUCSORTHOVIEW
 70
    0
  9
$PUCSORGTOP
 10
0
 20
0
 30
0
  9
$PUCSORGBOTTOM
 10
0
 20
0
 30
0
  9
$PUCSORGLEFT
 10
0
 20
0
 30
0
  9
$PUCSORGRIGHT
 10
0
 20
0
 30
0
  9
$PUCSORGFRONT
 10
0
 20
0
 30
0
  9
$PUCSORGBACK
 10
0
 20
0
 30
0
  9
$USERI1
 70
    0
  9
$USERI2
 70
    0
  9
$USERI3
 70
    0
  9
$USERI4
 70
    0
  9
$USERI5
 70
    0
  9
$USERR1
 40
0
  9
$USERR2
 40
0
  9
$USERR3
 40
0
  9
$USERR4
 40
0
  9
$USERR5
 40
0
  9
$WORLDVIEW
 70
    1
  9
$SHADEDGE
 70
    3
  9
$SHADEDIF
 70
   70
  9
$TILEMODE
 70
    1
  9
$MAXACTVP
 70
   64
  9
$PINSBASE
 10
0
 20
0
 30
0
  9
$PLIMCHECK
 70
    0
  9
$PEXTMIN
 10
0
 20
0
 30
0
  9
$PEXTMAX
 10
0
 20
0
 30
0
  9
$GRIDMODE
 70
    1
  9
$SNAPSTYLE
 70
    0
  9
$PLIMMIN
 10
0
 20
0
  9
$PLIMMAX
 10
12
 20
9
  9
$UNITMODE
 70
    0
  9
$VISRETAIN
 70
    1
  9
$PLINEGEN
 70
    0
  9
$PSLTSCALE
 70
    1
  9
$TREEDEPTH
 70
 3020
  9
$CMLSTYLE
  2
Standard
  9
$CMLJUST
 70
    0
  9
$CMLSCALE
 40
1
  9
$PROXYGRAPHICS
 70
    1
  9
$MEASUREMENT
 70
    0
  9
$CELWEIGHT
370
   -1
  9
$ENDCAPS
280
    0
  9
$JOINSTYLE
280
    0
  9
$LWDISPLAY
290
    0
  9
$INSUNITS
 70
    4
  9
$HYPERLINKBASE
  1

  9
$STYLESHEET
  1

  9
$XEDIT
290
    1
  9
$CEPSNTYPE
380
    0
  9
$PSTYLEMODE
290
    1
  9
$EXTNAMES
290
    1
  9
$PSVPSCALE
 40
0
  9
$OLESTARTUP
290
    0
  9
$SORTENTS
280
  127
  9
$INDEXCTL
280
    0
  9
$HIDETEXT
280
    1
  9
$XCLIPFRAME
290
    2
  9
$HALOGAP
280
    0
  9
$OBSCOLOR
 70
  257
  9
$OBSLTYPE
280
    0
  9
$INTERSECTIONDISPLAY
280
    0
  9
$INTERSECTIONCOLOR
 70
  257
  9
$DIMASSOC
280
    2
  9
$PROJECTNAME
  1

  9
$CAMERADISPLAY
290
    0
  9
$LENSLENGTH
 40
50
  9
$CAMERAHEIGHT
 40
0
  9
$STEPSPERSEC
 40
2
  9
$STEPSIZE
 40
6
  9
$3DDWFPREC
 40
2
  9
$PSOLWIDTH
 40
0.25
  9
$PSOLHEIGHT
 40
4
  9
$LOFTANG1
 40
1.570796326794896
  9
$LOFTANG2
 40
1.570796326794896
  9
$LOFTMAG1
 40
0
  9
$LOFTMAG2
 40
0
  9
$LOFTPARAM
 70
    7
  9
$LOFTNORMALS
280
    1
  9
$LATITUDE
 40
37.795
  9
$LONGITUDE
 40
-122.394
  9
$NORTHDIRECTION
 40
0
  9
$TIMEZONE
 70
-8000
  9
$LIGHTGLYPHDISPLAY
280
    1
  9
$TILEMODELIGHTSYNCH
280
    1
  9
$SOLIDHIST
280
    0
  9
$SHOWHIST
280
    1
  9
$DWFFRAME
280
    2
  9
$DGNFRAME
280
    0
  9
$REALWORLDSCALE
290
    1
  9
$INTERFERECOLOR
 62
    1
  9
$CSHADOW
280
    0
  9
$SHADOWPLANELOCATION
 40
0
  0
ENDSEC
  0
SECTION
  2
CLASSES
  0
ENDSEC
  0
SECTION
  2
TABLES
  0
TABLE
  2
VPORT
  5
8
330
0
100
AcDbSymbolTable
 70
    1
  0
VPORT
  5
31
330
2
100
AcDbSymbolTableRecord
100
AcDbViewportTableRecord
  2
*ACTIVE
 70
    0
 10
0
 20
0
 11
1
 21
1
 12
305.1587355876334
 22
211.6632931948265
 13
0
 23
0
 14
10
 24
10
 15
10
 25
10
 16
0
 26
0
 36
1
 17
0
 27
0
 37
0
 40
543.6586835433582
 41
1.35828025477707
 42
50
 43
0
 44
0
 50
0
 51
0
 71
    0
 72
  100
 73
    1
 74
    3
 75
    0
 76
    1
 77
    0
 78
    0
281
    0
 65
    1
110
0
120
0
130
0
111
1
121
0
131
0
112
0
122
1
132
0
 79
    0
146
0
348
10020
 60
    7
 61
    5
292
1
282
    1
141
0
142
0
 63
  250
421
3358443
  0
ENDTAB
  0
TABLE
  2
LTYPE
  5
5
330
0
100
AcDbSymbolTable
 70
    4
  0
LTYPE
  5
14
330
5
100
AcDbSymbolTableRecord
100
AcDbLinetypeTableRecord
  2
ByBlock
 70
    0
  3

 72
   65
 73
    0
 40
0
  0
LTYPE
  5
15
330
5
100
AcDbSymbolTableRecord
100
AcDbLinetypeTableRecord
  2
ByLayer
 70
    0
  3

 72
   65
 73
    0
 40
0
  0
LTYPE
  5
16
330
5
100
AcDbSymbolTableRecord
100
AcDbLinetypeTableRecord
  2
Continuous
 70
    0
  3
Solid line
 72
   65
 73
    0
 40
0
  0
LTYPE
  5
32
330
5
100
AcDbSymbolTableRecord
100
AcDbLinetypeTableRecord
  2
DOT
 70
    0
  3
Dot . . . . . . . . . . . . . . . . . . . . . .
 72
   65
 73
    2
 40
6.35
 49
0
 74
    0
 49
-6.35
 74
    0
  0
LTYPE
  5
33
330
5
100
AcDbSymbolTableRecord
100
AcDbLinetypeTableRecord
  2
DOTTINY
 70
    0
  3
Dot (.15x) .....................................
 72
   65
 73
    2
 40
0.9525
 49
0
 74
    0
 49
-0.9525
 74
    0
  0
LTYPE
  5
34
330
5
100
AcDbSymbolTableRecord
100
AcDbLinetypeTableRecord
  2
DOT2
 70
    0
  3
Dot (.5x) .....................................
 72
   65
 73
    2
 40
3.175
 49
0
 74
    0
 49
-3.175
 74
    0
  0
LTYPE
  5
35
330
5
100
AcDbSymbolTableRecord
100
AcDbLinetypeTableRecord
  2
DOTX2
 70
    0
  3
Dot (2x) .  .  .  .  .  .  .  .  .  .  .  .  .
 72
   65
 73
    2
 40
12.7
 49
0
 74
    0
 49
-12.7
 74
    0
  0
LTYPE
  5
36
330
5
100
AcDbSymbolTableRecord
100
AcDbLinetypeTableRecord
  2
DASHED
 70
    0
  3
Dashed _ _ _ _ _ _ _ _ _ _ _ _ _ _ _ _ _
 72
   65
 73
    2
 40
19.05
 49
12.7
 74
    0
 49
-6.35
 74
    0
  0
LTYPE
  5
37
330
5
100
AcDbSymbolTableRecord
100
AcDbLinetypeTableRecord
  2
DASHEDTINY
 70
    0
  3
Dashed (.15x) _ _ _ _ _ _ _ _ _ _ _ _ _ _ _ _ _
 72
   65
 73
    2
 40
2.8575
 49
1.905
 74
    0
 49
-0.9525
 74
    0
  0
LTYPE
  5
38
330
5
100
AcDbSymbolTableRecord
100
AcDbLinetypeTableRecord
  2
DASHED2
 70
    0
  3
Dashed (.5x) _ _ _ _ _ _ _ _ _ _ _ _ _ _ _ _ _
 72
   65
 73
    2
 40
9.524999999999999
 49
6.35
 74
    0
 49
-3.175
 74
    0
  0
LTYPE
  5
39
330
5
100
AcDbSymbolTableRecord
100
AcDbLinetypeTableRecord
  2
DASHEDX2
 70
    0
  3
Dashed (2x) ____  ____  ____  ____  ____  ___
 72
   65
 73
    2
 40
38.09999999999999
 49
25.4
 74
    0
 49
-12.7
 74
    0
  0
LTYPE
  5
3A
330
5
100
AcDbSymbolTableRecord
100
AcDbLinetypeTableRecord
  2
DASHDOT
 70
    0
  3
Dash dot __ . __ . __ . __ . __ . __ . __ . __
 72
   65
 73
    4
 40
25.4
 49
12.7
 74
    0
 49
-6.35
 74
    0
 49
0
 74
    0
 49
-6.35
 74
    0
  0
LTYPE
  5
3B
330
5
100
AcDbSymbolTableRecord
100
AcDbLinetypeTableRecord
  2
DASHDOTTINY
 70
    0
  3
Dash dot (.15x) _._._._._._._._._._._._._._._.
 72
   65
 73
    4
 40
3.81
 49
1.905
 74
    0
 49
-0.9525
 74
    0
 49
0
 74
    0
 49
-0.9525
 74
    0
  0
LTYPE
  5
3C
330
5
100
AcDbSymbolTableRecord
100
AcDbLinetypeTableRecord
  2
DASHDOT2
 70
    0
  3
Dash dot (.5x) _._._._._._._._._._._._._._._.
 72
   65
 73
    4
 40
12.7
 49
6.35
 74
    0
 49
-3.175
 74
    0
 49
0
 74
    0
 49
-3.175
 74
    0
  0
LTYPE
  5
3D
330
5
100
AcDbSymbolTableRecord
100
AcDbLinetypeTableRecord
  2
DASHDOTX2
 70
    0
  3
Dash dot (2x) ____  .  ____  .  ____  .  ___
 72
   65
 73
    4
 40
50.8
 49
25.4
 74
    0
 49
-12.7
 74
    0
 49
0
 74
    0
 49
-12.7
 74
    0
  0
LTYPE
  5
3E
330
5
100
AcDbSymbolTableRecord
100
AcDbLinetypeTableRecord
  2
DIVIDE
 70
    0
  3
Divide ____ . . ____ . . ____ . . ____ . . ____
 72
   65
 73
    6
 40
31.75
 49
12.7
 74
    0
 49
-6.35
 74
    0
 49
0
 74
    0
 49
-6.35
 74
    0
 49
0
 74
    0
 49
-6.35
 74
    0
  0
LTYPE
  5
3F
330
5
100
AcDbSymbolTableRecord
100
AcDbLinetypeTableRecord
  2
DIVIDETINY
 70
    0
  3
Divide (.15x) __..__..__..__..__..__..__..__.._
 72
   65
 73
    6
 40
4.7625
 49
1.905
 74
    0
 49
-0.9525
 74
    0
 49
0
 74
    0
 49
-0.9525
 74
    0
 49
0
 74
    0
 49
-0.9525
 74
    0
  0
LTYPE
  5
40
330
5
100
AcDbSymbolTableRecord
100
AcDbLinetypeTableRecord
  2
DIVIDE2
 70
    0
  3
Divide (.5x) __..__..__..__..__..__..__..__.._
 72
   65
 73
    6
 40
15.875
 49
6.35
 74
    0
 49
-3.175
 74
    0
 49
0
 74
    0
 49
-3.175
 74
    0
 49
0
 74
    0
 49
-3.175
 74
    0
  0
LTYPE
  5
41
330
5
100
AcDbSymbolTableRecord
100
AcDbLinetypeTableRecord
  2
DIVIDEX2
 70
    0
  3
Divide (2x) ________  .  .  ________  .  .  _
 72
   65
 73
    6
 40
63.5
 49
25.4
 74
    0
 49
-12.7
 74
    0
 49
0
 74
    0
 49
-12.7
 74
    0
 49
0
 74
    0
 49
-12.7
 74
    0
  0
LTYPE
  5
42
330
5
100
AcDbSymbolTableRecord
100
AcDbLinetypeTableRecord
  2
BORDER
 70
    0
  3
Border __ __ . __ __ . __ __ . __ __ . __ __ .
 72
   65
 73
    6
 40
44.45
 49
12.7
 74
    0
 49
-6.35
 74
    0
 49
12.7
 74
    0
 49
-6.35
 74
    0
 49
0
 74
    0
 49
-6.35
 74
    0
  0
LTYPE
  5
43
330
5
100
AcDbSymbolTableRecord
100
AcDbLinetypeTableRecord
  2
BORDERTINY
 70
    0
  3
Border (.15x) __.__.__.__.__.__.__.__.__.__.__.
 72
   65
 73
    6
 40
6.6675
 49
1.905
 74
    0
 49
-0.9525
 74
    0
 49
1.905
 74
    0
 49
-0.9525
 74
    0
 49
0
 74
    0
 49
-0.9525
 74
    0
  0
LTYPE
  5
44
330
5
100
AcDbSymbolTableRecord
100
AcDbLinetypeTableRecord
  2
BORDER2
 70
    0
  3
Border (.5x) __.__.__.__.__.__.__.__.__.__.__.
 72
   65
 73
    6
 40
22.225
 49
6.35
 74
    0
 49
-3.175
 74
    0
 49
6.35
 74
    0
 49
-3.175
 74
    0
 49
0
 74
    0
 49
-3.175
 74
    0
  0
LTYPE
  5
45
330
5
100
AcDbSymbolTableRecord
100
AcDbLinetypeTableRecord
  2
BORDERX2
 70
    0
  3
Border (2x) ____  ____  .  ____  ____  .  ___
 72
   65
 73
    6
 40
88.89999999999999
 49
25.4
 74
    0
 49
-12.7
 74
    0
 49
25.4
 74
    0
 49
-12.7
 74
    0
 49
0
 74
    0
 49
-12.7
 74
    0
  0
LTYPE
  5
46
330
5
100
AcDbSymbolTableRecord
100
AcDbLinetypeTableRecord
  2
CENTER
 70
    0
  3
Center ____ _ ____ _ ____ _ ____ _ ____ _ ____
 72
   65
 73
    4
 40
50.8
 49
31.75
 74
    0
 49
-6.35
 74
    0
 49
6.35
 74
    0
 49
-6.35
 74
    0
  0
LTYPE
  5
47
330
5
100
AcDbSymbolTableRecord
100
AcDbLinetypeTableRecord
  2
CENTERTINY
 70
    0
  3
Center (.15x) ___ _ ___ _ ___ _ ___ _ ___ _ ___
 72
   65
 73
    4
 40
7.619999999999999
 49
4.7625
 74
    0
 49
-0.9525
 74
    0
 49
0.9525
 74
    0
 49
-0.9525
 74
    0
  0
LTYPE
  5
48
330
5
100
AcDbSymbolTableRecord
100
AcDbLinetypeTableRecord
  2
CENTER2
 70
    0
  3
Center (.5x) ___ _ ___ _ ___ _ ___ _ ___ _ ___
 72
   65
 73
    4
 40
28.575
 49
19.05
 74
    0
 49
-3.175
 74
    0
 49
3.175
 74
    0
 49
-3.175
 74
    0
  0
LTYPE
  5
49
330
5
100
AcDbSymbolTableRecord
100
AcDbLinetypeTableRecord
  2
CENTERX2
 70
    0
  3
Center (2x) ________  __  ________  __  _____
 72
   65
 73
    4
 40
101.6
 49
63.5
 74
    0
 49
-12.7
 74
    0
 49
12.7
 74
    0
 49
-12.7
 74
    0
  0
ENDTAB
  0
TABLE
  2
LAYER
  5
2
330
0
100
AcDbSymbolTable
 70
    1
  0
LAYER
  5
10
330
2
100
AcDbSymbolTableRecord
100
AcDbLayerTableRecord
  2
0
 70
    0
 62
    7
  6
CONTINUOUS
370
   -3
390
F
  0
ENDTAB
  0
TABLE
  2
STYLE
  5
3
330
0
100
AcDbSymbolTable
 70
    3
  0
STYLE
  5
4A
330
2
100
AcDbSymbolTableRecord
100
AcDbTextStyleTableRecord
  2
Standard
 70
    0
 40
0
 41
1
 50
0
 71
    0
 42
1
  3
txt
  4

  0
ENDTAB
  0
TABLE
  2
VIEW
  5
6
330
0
100
AcDbSymbolTable
 70
    0
  0
ENDTAB
  0
TABLE
  2
UCS
  5
7
330
0
100
AcDbSymbolTable
 70
    0
  0
ENDTAB
  0
TABLE
  2
APPID
  5
9
330
0
100
AcDbSymbolTable
 70
    1
  0
APPID
  5
12
330
9
100
AcDbSymbolTableRecord
100
AcDbRegAppTableRecord
  2
ACAD
 70
    0
  0
APPID
  5
4B
330
9
100
AcDbSymbolTableRecord
100
AcDbRegAppTableRecord
  2
LibreCad
 70
    0
  0
ENDTAB
  0
TABLE
  2
DIMSTYLE
  5
A
330
0
100
AcDbSymbolTable
 70
    1
100
AcDbDimStyleTable
 71
    1
  0
DIMSTYLE
105
4C
330
A
100
AcDbSymbolTableRecord
100
AcDbDimStyleTableRecord
  2
Standard
 70
    0
 40
1
 41
0.18
 42
0.0625
 43
0.38
 44
0.18
 45
0
 46
0
 47
0
 48
0
 49
1
140
0.18
141
0.09
142
0
143
25.4
144
1
145
0
146
1
147
0.09
148
0
 71
    0
 72
    0
 73
    1
 74
    1
 75
    0
 76
    0
 77
    0
 78
    0
 79
    0
170
    0
171
    2
172
    0
173
    0
174
    0
175
    0
176
    0
177
    0
178
    0
179
    0
271
    4
272
    4
273
    2
274
    2
275
    0
276
    0
277
    2
278
   46
279
    0
280
    0
281
    0
282
    0
283
    1
284
    0
285
    0
286
    0
288
    0
289
    3
340
Standard
341

371
   -2
372
   -2
  0
ENDTAB
  0
TABLE
  2
BLOCK_RECORD
  5
1
330
0
100
AcDbSymbolTable
 70
    2
  0
BLOCK_RECORD
  5
1F
330
1
100
AcDbSymbolTableRecord
100
AcDbBlockTableRecord
  2
*Model_Space
 70
    0
280
    1
281
    0
  0
BLOCK_RECORD
  5
1E
330
1
100
AcDbSymbolTableRecord
100
AcDbBlockTableRecord
  2
*Paper_Space
 70
    0
280
    1
281
    0
  0
BLOCK_RECORD
  5
4D
330
1
100
AcDbSymbolTableRecord
100
AcDbBlockTableRecord
  2
A$C7C00165E
 70
    0
280
    1
281
    0
  0
BLOCK_RECORD
  5
50
330
1
100
AcDbSymbolTableRecord
100
AcDbBlockTableRecord
  2
A$C5F4D0C60
 70
    0
280
    1
281
    0
  0
BLOCK_RECORD
  5
53
330
1
100
AcDbSymbolTableRecord
100
AcDbBlockTableRecord
  2
A$C03D940AC
 70
    0
280
    1
281
    0
  0
ENDTAB
  0
ENDSEC
  0
SECTION
  2
BLOCKS
  0
BLOCK
  5
20
330
1F
100
AcDbEntity
  8
0
100
AcDbBlockBegin
  2
*Model_Space
 70
    0
 10
0
 20
0
 30
0
  3
*Model_Space
  1

  0
ENDBLK
  5
21
330
1F
100
AcDbEntity
  8
0
100
AcDbBlockEnd
  0
BLOCK
  5
1C
330
1B
100
AcDbEntity
  8
0
100
AcDbBlockBegin
  2
*Paper_Space
 70
    0
 10
0
 20
0
 30
0
  3
*Paper_Space
  1

  0
ENDBLK
  5
1D
330
1F
100
AcDbEntity
  8
0
100
AcDbBlockEnd
  0
BLOCK
  5
4E
330
4D
100
AcDbEntity
  8
0
100
AcDbBlockBegin
  2
A$C7C00165E
 70
    0
 10
0
 20
0
  3
A$C7C00165E
  1

  0
ARC
  5
56
100
AcDbEntity
  8
0
  6
ByLayer
 62
  256
370
   -1
100
AcDbCircle
 10
14.96449986232312
 20
159.2144995270502
 40
1.714499999999999
100
AcDbArc
 50
307.1545209719894
 51
235.7673790178436
  0
ARC
  5
57
100
AcDbEntity
  8
0
  6
ByLayer
 62
  256
370
   -1
100
AcDbCircle
 10
14.96449930415872
 20
136.7144998217224
 40
1.714499999999999
100
AcDbArc
 50
124.2325984206788
 51
52.8454556243493
  0
LINE
  5
58
100
AcDbEntity
  8
0
  6
ByLayer
 62
  256
370
   -1
100
AcDbLine
 10
14.00000072120747
 20
157.7970187840462
 11
14.00000072120747
 21
149.5000003947557
  0
LINE
  5
59
100
AcDbEntity
  8
0
  6
ByLayer
 62
  256
370
   -1
100
AcDbLine
 10
14.00000072120747
 20
146.5000003947557
 11
14.00000072120747
 21
138.1319809445191
  0
LINE
  5
5A
100
AcDbEntity
  8
0
  6
ByLayer
 62
  256
370
   -1
100
AcDbLine
 10
16.00000072120747
 20
138.0809723114894
 11
16.00000072120747
 21
157.8480266143111
  0
LINE
  5
5B
100
AcDbEntity
  8
0
  6
ByLayer
 62
  256
370
   -1
100
AcDbLine
 10
14.00000072120747
 20
149.5000003947557
 11
1.50000072120747
 21
149.5000003947557
  0
ARC
  5
5C
100
AcDbEntity
  8
0
  6
ByLayer
 62
  256
370
   -1
100
AcDbCircle
 10
1.50000072120747
 20
148.0000003947557
 40
1.5
100
AcDbArc
 50
90
 51
270
  0
LINE
  5
5D
100
AcDbEntity
  8
0
  6
ByLayer
 62
  256
370
   -1
100
AcDbLine
 10
1.50000072120747
 20
146.5000003947557
 11
14.00000072120747
 21
146.5000003947557
  0
ARC
  5
5E
100
AcDbEntity
  8
0
  6
ByLayer
 62
  256
370
   -1
100
AcDbCircle
 10
14.96449850243232
 20
114.2145000581928
 40
1.714499999999999
100
AcDbArc
 50
307.1545209719888
 51
235.7673790178433
  0
ARC
  5
5F
100
AcDbEntity
  8
0
  6
ByLayer
 62
  256
370
   -1
100
AcDbCircle
 10
14.96449794426792
 20
91.71450035286506
 40
1.714499999999999
100
AcDbArc
 50
124.2325984206788
 51
52.84545562434962
  0
LINE
  5
60
100
AcDbEntity
  8
0
  6
ByLayer
 62
  256
370
   -1
100
AcDbLine
 10
13.99999936131667
 20
112.7970193151888
 11
13.99999936131667
 21
104.5000009258983
  0
LINE
  5
61
100
AcDbEntity
  8
0
  6
ByLayer
 62
  256
370
   -1
100
AcDbLine
 10
13.99999936131667
 20
101.5000009258983
 11
13.99999936131667
 21
93.13198147566177
  0
LINE
  5
62
100
AcDbEntity
  8
0
  6
ByLayer
 62
  256
370
   -1
100
AcDbLine
 10
15.99999936131666
 20
93.08097284263206
 11
15.99999936131666
 21
112.8480271454537
  0
LINE
  5
63
100
AcDbEntity
  8
0
  6
ByLayer
 62
  256
370
   -1
100
AcDbLine
 10
13.99999936131667
 20
104.5000009258983
 11
1.499999361316668
 21
104.5000009258983
  0
ARC
  5
64
100
AcDbEntity
  8
0
  6
ByLayer
 62
  256
370
   -1
100
AcDbCircle
 10
1.499999361316668
 20
103.0000009258983
 40
1.5
100
AcDbArc
 50
90
 51
270
  0
LINE
  5
65
100
AcDbEntity
  8
0
  6
ByLayer
 62
  256
370
   -1
100
AcDbLine
 10
1.499999361316668
 20
101.5000009258983
 11
13.99999936131667
 21
101.5000009258983
  0
ARC
  5
66
100
AcDbEntity
  8
0
  6
ByLayer
 62
  256
370
   -1
100
AcDbCircle
 10
14.96450006501061
 20
69.21449929480804
 40
1.714499999999999
100
AcDbArc
 50
307.1545209719894
 51
235.7673790178433
  0
ARC
  5
67
100
AcDbEntity
  8
0
  6
ByLayer
 62
  256
370
   -1
100
AcDbCircle
 10
14.96449950684621
 20
46.71449958948023
 40
1.714499999999999
100
AcDbArc
 50
124.2325984206788
 51
52.8454556243493
  0
LINE
  5
68
100
AcDbEntity
  8
0
  6
ByLayer
 62
  256
370
   -1
100
AcDbLine
 10
14.00000092389496
 20
67.79701855180403
 11
14.00000092389496
 21
59.50000016251351
  0
LINE
  5
69
100
AcDbEntity
  8
0
  6
ByLayer
 62
  256
370
   -1
100
AcDbLine
 10
14.00000092389496
 20
56.50000016251351
 11
14.00000092389496
 21
48.13198071227694
  0
LINE
  5
6A
100
AcDbEntity
  8
0
  6
ByLayer
 62
  256
370
   -1
100
AcDbLine
 10
16.00000092389496
 20
48.08097207924723
 11
16.00000092389496
 21
67.84802638206889
  0
LINE
  5
6B
100
AcDbEntity
  8
0
  6
ByLayer
 62
  256
370
   -1
100
AcDbLine
 10
14.00000092389496
 20
59.50000016251351
 11
1.500000923894958
 21
59.50000016251351
  0
ARC
  5
6C
100
AcDbEntity
  8
0
  6
ByLayer
 62
  256
370
   -1
100
AcDbCircle
 10
1.500000923894958
 20
58.00000016251352
 40
1.5
100
AcDbArc
 50
90
 51
270
  0
LINE
  5
6D
100
AcDbEntity
  8
0
  6
ByLayer
 62
  256
370
   -1
100
AcDbLine
 10
1.500000923894958
 20
56.50000016251351
 11
14.00000092389496
 21
56.50000016251351
  0
ARC
  5
6E
100
AcDbEntity
  8
0
  6
ByLayer
 62
  256
370
   -1
100
AcDbCircle
 10
14.96449870511981
 20
24.21449982595067
 40
1.714499999999999
100
AcDbArc
 50
307.1545209719885
 51
235.7673790178433
  0
ARC
  5
6F
100
AcDbEntity
  8
0
  6
ByLayer
 62
  256
370
   -1
100
AcDbCircle
 10
14.9644981469554
 20
1.714500120622858
 40
1.714499999999999
100
AcDbArc
 50
124.2325984206788
 51
52.84545562435019
  0
LINE
  5
70
100
AcDbEntity
  8
0
  6
ByLayer
 62
  256
370
   -1
100
AcDbLine
 10
13.99999956400415
 20
22.79701908294666
 11
13.99999956400415
 21
14.50000069365614
  0
LINE
  5
71
100
AcDbEntity
  8
0
  6
ByLayer
 62
  256
370
   -1
100
AcDbLine
 10
13.99999956400415
 20
11.50000069365614
 11
13.99999956400415
 21
3.131981243419573
  0
LINE
  5
72
100
AcDbEntity
  8
0
  6
ByLayer
 62
  256
370
   -1
100
AcDbLine
 10
15.99999956400415
 20
3.080972610389864
 11
15.99999956400415
 21
22.84802691321153
  0
LINE
  5
73
100
AcDbEntity
  8
0
  6
ByLayer
 62
  256
370
   -1
100
AcDbLine
 10
13.99999956400415
 20
14.50000069365614
 11
1.499999564004156
 21
14.50000069365614
  0
ARC
  5
74
100
AcDbEntity
  8
0
  6
ByLayer
 62
  256
370
   -1
100
AcDbCircle
 10
1.499999564004156
 20
13.00000069365615
 40
1.5
100
AcDbArc
 50
90
 51
270
  0
LINE
  5
75
100
AcDbEntity
  8
0
  6
ByLayer
 62
  256
370
   -1
100
AcDbLine
 10
1.499999564004156
 20
11.50000069365614
 11
13.99999956400415
 21
11.50000069365614
  0
ENDBLK
  5
4F
330
4D
100
AcDbEntity
  8
0
100
AcDbBlockEnd
  0
BLOCK
  5
51
330
50
100
AcDbEntity
  8
0
100
AcDbBlockBegin
  2
A$C5F4D0C60
 70
    0
 10
0
 20
0
  3
A$C5F4D0C60
  1

  0
LWPOLYLINE
  5
76
100
AcDbEntity
  8
0
  6
ByLayer
 62
  256
370
   -1
100
AcDbPolyline
 90
    4
 70
    1
 43
0
 10
7.0032911e-08
 20
4.456160241e-07
 10
250.0000000700329
 20
4.456160241e-07
 10
250.0000000700329
 20
250.000000445616
 10
7.0032911e-08
 20
250.000000445616
  0
CIRCLE
  5
77
100
AcDbEntity
  8
0
  6
ByLayer
 62
  256
370
   -1
100
AcDbCircle
 10
12.71449773442248
 20
243.7144996798515
 40
1.714499999999999
  0
CIRCLE
  5
78
100
AcDbEntity
  8
0
  6
ByLayer
 62
  256
370
   -1
100
AcDbCircle
 10
237.285502216734
 20
243.7144996798515
 40
1.714499999999999
  0
CIRCLE
  5
79
100
AcDbEntity
  8
0
  6
ByLayer
 62
  256
370
   -1
100
AcDbCircle
 10
12.71449773442248
 20
16.28550125168391
 40
1.714499999999999
  0
CIRCLE
  5
7A
100
AcDbEntity
  8
0
  6
ByLayer
 62
  256
370
   -1
100
AcDbCircle
 10
237.285502216734
 20
16.28550125168391
 40
1.714499999999999
  0
CIRCLE
  5
7B
100
AcDbEntity
  8
0
  6
ByLayer
 62
  256
370
   -1
100
AcDbCircle
 10
11.96449773442248
 20
165.2144996798515
 40
1.714499999999999
  0
CIRCLE
  5
7C
100
AcDbEntity
  8
0
  6
ByLayer
 62
  256
370
   -1
100
AcDbCircle
 10
238.035502216734
 20
165.2144996798515
 40
1.714499999999999
  0
CIRCLE
  5
7D
100
AcDbEntity
  8
0
  6
ByLayer
 62
  256
370
   -1
100
AcDbCircle
 10
11.96449773442248
 20
84.78550125168391
 40
1.714499999999999
  0
CIRCLE
  5
7E
100
AcDbEntity
  8
0
  6
ByLayer
 62
  256
370
   -1
100
AcDbCircle
 10
238.035502216734
 20
84.78550125168391
 40
1.714499999999999
  0
CIRCLE
  5
7F
100
AcDbEntity
  8
0
  6
ByLayer
 62
  256
370
   -1
100
AcDbCircle
 10
125.4644977344224
 20
243.9644996798515
 40
1.714499999999999
  0
CIRCLE
  5
80
100
AcDbEntity
  8
0
  6
ByLayer
 62
  256
370
   -1
100
AcDbCircle
 10
125.4644977344224
 20
17.03550125168391
 40
1.714499999999999
  0
CIRCLE
  5
81
100
AcDbEntity
  8
0
  6
ByLayer
 62
  256
370
   -1
100
AcDbCircle
 10
96.21449829836376
 20
192.2144997083979
 40
1.714499999999999
  0
CIRCLE
  5
82
100
AcDbEntity
  8
0
  6
ByLayer
 62
  256
370
   -1
100
AcDbCircle
 10
96.25000099721137
 20
169.9644998268357
 40
1.714499999999999
  0
CIRCLE
  5
83
100
AcDbEntity
  8
0
  6
ByLayer
 62
  256
370
   -1
100
AcDbCircle
 10
96.21449922554223
 20
147.7145003099022
 40
1.714499999999999
  0
CIRCLE
  5
84
100
AcDbEntity
  8
0
  6
ByLayer
 62
  256
370
   -1
100
AcDbCircle
 10
96.25000192438984
 20
125.46450042834
 40
1.714499999999999
  0
CIRCLE
  5
85
100
AcDbEntity
  8
0
  6
ByLayer
 62
  256
370
   -1
100
AcDbCircle
 10
96.21449922554223
 20
102.2144994365879
 40
1.714499999999999
  0
CIRCLE
  5
86
100
AcDbEntity
  8
0
  6
ByLayer
 62
  256
370
   -1
100
AcDbCircle
 10
96.25000192438984
 20
79.96449955502572
 40
1.714499999999999
  0
CIRCLE
  5
87
100
AcDbEntity
  8
0
  6
ByLayer
 62
  256
370
   -1
100
AcDbCircle
 10
96.21450015272069
 20
57.71450003809224
 40
1.714499999999999
  0
CIRCLE
  5
88
100
AcDbEntity
  8
0
  6
ByLayer
 62
  256
370
   -1
100
AcDbCircle
 10
96.2500028515683
 20
35.46450015653005
 40
1.714499999999999
  0
CIRCLE
  5
89
100
AcDbEntity
  8
0
  6
ByLayer
 62
  256
370
   -1
100
AcDbCircle
 10
96.21449790878432
 20
214.2145007846319
 40
1.714499999999999
  0
CIRCLE
  5
8A
100
AcDbEntity
  8
0
  6
ByLayer
 62
  256
370
   -1
100
AcDbCircle
 10
153.7144982983637
 20
192.2144997083979
 40
1.714499999999999
  0
CIRCLE
  5
8B
100
AcDbEntity
  8
0
  6
ByLayer
 62
  256
370
   -1
100
AcDbCircle
 10
153.7500009972113
 20
169.9644998268357
 40
1.714499999999999
  0
CIRCLE
  5
8C
100
AcDbEntity
  8
0
  6
ByLayer
 62
  256
370
   -1
100
AcDbCircle
 10
153.7144992255422
 20
147.7145003099022
 40
1.714499999999999
  0
CIRCLE
  5
8D
100
AcDbEntity
  8
0
  6
ByLayer
 62
  256
370
   -1
100
AcDbCircle
 10
153.7500019243898
 20
125.46450042834
 40
1.714499999999999
  0
CIRCLE
  5
8E
100
AcDbEntity
  8
0
  6
ByLayer
 62
  256
370
   -1
100
AcDbCircle
 10
153.7144992255422
 20
102.2144994365879
 40
1.714499999999999
  0
CIRCLE
  5
8F
100
AcDbEntity
  8
0
  6
ByLayer
 62
  256
370
   -1
100
AcDbCircle
 10
153.7500019243898
 20
79.96449955502572
 40
1.714499999999999
  0
CIRCLE
  5
90
100
AcDbEntity
  8
0
  6
ByLayer
 62
  256
370
   -1
100
AcDbCircle
 10
153.7145001527207
 20
57.71450003809224
 40
1.714499999999999
  0
CIRCLE
  5
91
100
AcDbEntity
  8
0
  6
ByLayer
 62
  256
370
   -1
100
AcDbCircle
 10
153.7500028515683
 20
35.46450015653005
 40
1.714499999999999
  0
CIRCLE
  5
92
100
AcDbEntity
  8
0
  6
ByLayer
 62
  256
370
   -1
100
AcDbCircle
 10
153.7144979087843
 20
214.2145007846319
 40
1.714499999999999
  0
CIRCLE
  5
93
100
AcDbEntity
  8
0
  6
ByLayer
 62
  256
370
   -1
100
AcDbCircle
 10
12.71449496482194
 20
233.7144968696329
 40
1.714499999999999
  0
CIRCLE
  5
94
100
AcDbEntity
  8
0
  6
ByLayer
 62
  256
370
   -1
100
AcDbCircle
 10
237.2854994471335
 20
233.7144968696329
 40
1.714499999999999
  0
CIRCLE
  5
95
100
AcDbEntity
  8
0
  6
ByLayer
 62
  256
370
   -1
100
AcDbCircle
 10
125.4644949648219
 20
233.9644968696329
 40
1.714499999999999
  0
ENDBLK
  5
52
330
50
100
AcDbEntity
  8
0
100
AcDbBlockEnd
  0
BLOCK
  5
54
330
53
100
AcDbEntity
  8
0
100
AcDbBlockBegin
  2
A$C03D940AC
 70
    0
 10
0
 20
0
  3
A$C03D940AC
  1

  0
CIRCLE
  5
96
100
AcDbEntity
  8
0
  6
ByLayer
 62
  256
370
   -1
100
AcDbCircle
 10
226.7693002052114
 20
110.4482983644538
 40
2.019299999999999
  0
CIRCLE
  5
97
100
AcDbEntity
  8
0
  6
ByLayer
 62
  256
370
   -1
100
AcDbCircle
 10
2.769300205211379
 20
110.4482983644538
 40
2.019299999999999
  0
CIRCLE
  5
98
100
AcDbEntity
  8
0
  6
ByLayer
 62
  256
370
   -1
100
AcDbCircle
 10
114.750002500913
 20
195.946098664493
 40
1.517099999999999
  0
CIRCLE
  5
99
100
AcDbEntity
  8
0
  6
ByLayer
 62
  256
370
   -1
100
AcDbCircle
 10
114.750002500913
 20
182.911898664493
 40
1.517099999999999
  0
CIRCLE
  5
9A
100
AcDbEntity
  8
0
  6
ByLayer
 62
  256
370
   -1
100
AcDbCircle
 10
114.750002500913
 20
173.446098664493
 40
1.517099999999999
  0
CIRCLE
  5
9B
100
AcDbEntity
  8
0
  6
ByLayer
 62
  256
370
   -1
100
AcDbCircle
 10
114.750002500913
 20
160.411898664493
 40
1.517099999999999
  0
CIRCLE
  5
9C
100
AcDbEntity
  8
0
  6
ByLayer
 62
  256
370
   -1
100
AcDbCircle
 10
114.750002500913
 20
150.946098664493
 40
1.517099999999999
  0
CIRCLE
  5
9D
100
AcDbEntity
  8
0
  6
ByLayer
 62
  256
370
   -1
100
AcDbCircle
 10
114.750002500913
 20
137.911898664493
 40
1.517099999999999
  0
CIRCLE
  5
9E
100
AcDbEntity
  8
0
  6
ByLayer
 62
  256
370
   -1
100
AcDbCircle
 10
114.750002500913
 20
128.196098664493
 40
1.517099999999999
  0
CIRCLE
  5
9F
100
AcDbEntity
  8
0
  6
ByLayer
 62
  256
370
   -1
100
AcDbCircle
 10
114.750002500913
 20
115.161898664493
 40
1.517099999999999
  0
CIRCLE
  5
A0
100
AcDbEntity
  8
0
  6
ByLayer
 62
  256
370
   -1
100
AcDbCircle
 10
114.750002500913
 20
105.696098664493
 40
1.517099999999999
  0
CIRCLE
  5
A1
100
AcDbEntity
  8
0
  6
ByLayer
 62
  256
370
   -1
100
AcDbCircle
 10
114.750002500913
 20
92.66189866449307
 40
1.517099999999999
  0
CIRCLE
  5
A2
100
AcDbEntity
  8
0
  6
ByLayer
 62
  256
370
   -1
100
AcDbCircle
 10
114.750002500913
 20
83.19609866449306
 40
1.517099999999999
  0
CIRCLE
  5
A3
100
AcDbEntity
  8
0
  6
ByLayer
 62
  256
370
   -1
100
AcDbCircle
 10
114.750002500913
 20
70.16189866449307
 40
1.517099999999999
  0
CIRCLE
  5
A4
100
AcDbEntity
  8
0
  6
ByLayer
 62
  256
370
   -1
100
AcDbCircle
 10
114.750002500913
 20
60.69609866449306
 40
1.517099999999999
  0
CIRCLE
  5
A5
100
AcDbEntity
  8
0
  6
ByLayer
 62
  256
370
   -1
100
AcDbCircle
 10
114.750002500913
 20
47.66189866449306
 40
1.517099999999999
  0
CIRCLE
  5
A6
100
AcDbEntity
  8
0
  6
ByLayer
 62
  256
370
   -1
100
AcDbCircle
 10
114.750002500913
 20
38.19609866449307
 40
1.517099999999999
  0
CIRCLE
  5
A7
100
AcDbEntity
  8
0
  6
ByLayer
 62
  256
370
   -1
100
AcDbCircle
 10
114.750002500913
 20
25.16189866449307
 40
1.517099999999999
  0
CIRCLE
  5
A8
100
AcDbEntity
  8
0
  6
ByLayer
 62
  256
370
   -1
100
AcDbCircle
 10
114.750002500913
 20
210.9289986644931
 40
1.5
  0
CIRCLE
  5
A9
100
AcDbEntity
  8
0
  6
ByLayer
 62
  256
370
   -1
100
AcDbCircle
 10
2.46449999240292
 20
1.714499917175373
 40
1.714499999999999
  0
CIRCLE
  5
AA
100
AcDbEntity
  8
0
  6
ByLayer
 62
  256
370
   -1
100
AcDbCircle
 10
227.0355044747145
 20
1.714499917175373
 40
1.714499999999999
  0
CIRCLE
  5
AB
100
AcDbEntity
  8
0
  6
ByLayer
 62
  256
370
   -1
100
AcDbCircle
 10
1.71449999240292
 20
150.6434983453429
 40
1.714499999999999
  0
CIRCLE
  5
AC
100
AcDbEntity
  8
0
  6
ByLayer
 62
  256
370
   -1
100
AcDbCircle
 10
227.7855044747145
 20
150.6434983453429
 40
1.714499999999999
  0
CIRCLE
  5
AD
100
AcDbEntity
  8
0
  6
ByLayer
 62
  256
370
   -1
100
AcDbCircle
 10
1.71449999240292
 20
70.21449991717537
 40
1.714499999999999
  0
CIRCLE
  5
AE
100
AcDbEntity
  8
0
  6
ByLayer
 62
  256
370
   -1
100
AcDbCircle
 10
227.7855044747145
 20
70.21449991717537
 40
1.714499999999999
  0
CIRCLE
  5
AF
100
AcDbEntity
  8
0
  6
ByLayer
 62
  256
370
   -1
100
AcDbCircle
 10
115.2144999924029
 20
2.464499917175373
 40
1.714499999999999
  0
CIRCLE
  5
B0
100
AcDbEntity
  8
0
  6
ByLayer
 62
  256
370
   -1
100
AcDbCircle
 10
85.96450055634421
 20
177.6434983738893
 40
1.714499999999999
  0
CIRCLE
  5
B1
100
AcDbEntity
  8
0
  6
ByLayer
 62
  256
370
   -1
100
AcDbCircle
 10
86.00000325519181
 20
155.3934984923271
 40
1.714499999999999
  0
CIRCLE
  5
B2
100
AcDbEntity
  8
0
  6
ByLayer
 62
  256
370
   -1
100
AcDbCircle
 10
85.96450148352265
 20
133.1434989753937
 40
1.714499999999999
  0
CIRCLE
  5
B3
100
AcDbEntity
  8
0
  6
ByLayer
 62
  256
370
   -1
100
AcDbCircle
 10
86.00000418237028
 20
110.8934990938315
 40
1.714499999999999
  0
CIRCLE
  5
B4
100
AcDbEntity
  8
0
  6
ByLayer
 62
  256
370
   -1
100
AcDbCircle
 10
85.96450148352265
 20
87.64349810207938
 40
1.714499999999999
  0
CIRCLE
  5
B5
100
AcDbEntity
  8
0
  6
ByLayer
 62
  256
370
   -1
100
AcDbCircle
 10
86.00000418237028
 20
65.39349822051717
 40
1.714499999999999
  0
CIRCLE
  5
B6
100
AcDbEntity
  8
0
  6
ByLayer
 62
  256
370
   -1
100
AcDbCircle
 10
85.96450241070114
 20
43.1434987035837
 40
1.714499999999999
  0
CIRCLE
  5
B7
100
AcDbEntity
  8
0
  6
ByLayer
 62
  256
370
   -1
100
AcDbCircle
 10
86.00000510954874
 20
20.89349882202151
 40
1.714499999999999
  0
CIRCLE
  5
B8
100
AcDbEntity
  8
0
  6
ByLayer
 62
  256
370
   -1
100
AcDbCircle
 10
85.96450016676476
 20
199.6434994501233
 40
1.714499999999999
  0
CIRCLE
  5
B9
100
AcDbEntity
  8
0
  6
ByLayer
 62
  256
370
   -1
100
AcDbCircle
 10
143.4645005563442
 20
177.6434983738893
 40
1.714499999999999
  0
CIRCLE
  5
BA
100
AcDbEntity
  8
0
  6
ByLayer
 62
  256
370
   -1
100
AcDbCircle
 10
143.5000032551918
 20
155.3934984923271
 40
1.714499999999999
  0
CIRCLE
  5
BB
100
AcDbEntity
  8
0
  6
ByLayer
 62
  256
370
   -1
100
AcDbCircle
 10
143.4645014835226
 20
133.1434989753937
 40
1.714499999999999
  0
CIRCLE
  5
BC
100
AcDbEntity
  8
0
  6
ByLayer
 62
  256
370
   -1
100
AcDbCircle
 10
143.5000041823703
 20
110.8934990938315
 40
1.714499999999999
  0
CIRCLE
  5
BD
100
AcDbEntity
  8
0
  6
ByLayer
 62
  256
370
   -1
100
AcDbCircle
 10
143.4645014835226
 20
87.64349810207938
 40
1.714499999999999
  0
CIRCLE
  5
BE
100
AcDbEntity
  8
0
  6
ByLayer
 62
  256
370
   -1
100
AcDbCircle
 10
143.5000041823703
 20
65.39349822051717
 40
1.714499999999999
  0
CIRCLE
  5
BF
100
AcDbEntity
  8
0
  6
ByLayer
 62
  256
370
   -1
100
AcDbCircle
 10
143.4645024107011
 20
43.1434987035837
 40
1.714499999999999
  0
CIRCLE
  5
C0
100
AcDbEntity
  8
0
  6
ByLayer
 62
  256
370
   -1
100
AcDbCircle
 10
143.5000051095487
 20
20.89349882202151
 40
1.714499999999999
  0
CIRCLE
  5
C1
100
AcDbEntity
  8
0
  6
ByLayer
 62
  256
370
   -1
100
AcDbCircle
 10
143.4645001667647
 20
199.6434994501233
 40
1.714499999999999
  0
CIRCLE
  5
C2
100
AcDbEntity
  8
0
  6
ByLayer
 62
  256
370
   -1
100
AcDbCircle
 10
2.464497222802378
 20
219.1434955351244
 40
1.714499999999999
  0
CIRCLE
  5
C3
100
AcDbEntity
  8
0
  6
ByLayer
 62
  256
370
   -1
100
AcDbCircle
 10
227.0355017051139
 20
219.1434955351244
 40
1.714499999999999
  0
CIRCLE
  5
C4
100
AcDbEntity
  8
0
  6
ByLayer
 62
  256
370
   -1
100
AcDbCircle
 10
115.2144972228024
 20
219.3934955351244
 40
1.714499999999999
  0
ENDBLK
  5
55
330
53
100
AcDbEntity
  8
0
100
AcDbBlockEnd
  0
ENDSEC
  0
SECTION
  2
ENTITIES
  0
LWPOLYLINE
  5
C5
100
AcDbEntity
  8
0
  6
ByLayer
 62
  256
370
   -1
100
AcDbPolyline
 90
   24
 70
    1
 43
0
 10
129.4999995726145
 20
173.6994904208286
 10
129.4999995726145
 20
176.2500019028632
 10
106.0000009323167
 20
176.2500019028632
 42
-0.414213562373095
 10
105.0000009323167
 20
177.2500019028632
 10
105.0000009323167
 20
178.2500023730706
 10
80.16421405262763
 20
178.2500023425078
 42
-5.828427125985053
 10
80.16421221741379
 20
179.2500023423057
 10
105.0000009323167
 20
179.2500023423057
 10
105.0000009323167
 20
180.2500019028632
 42
-0.414213562373095
 10
106.0000009323167
 20
181.2500019028632
 10
129.4999995726145
 20
181.2500019028632
 10
129.4999995726146
 20
183.8005102411344
 42
-5.898978511461154
 10
130.4999995726146
 20
183.8005107414509
 10
130.4999995726146
 20
181.2500019028632
 10
154.0000009323167
 20
181.2500019028632
 42
-0.414213562373095
 10
155.0000009323167
 20
180.2500019028632
 10
155.0000009323167
 20
179.2500021783367
 10
179.8357832655646
 20
179.2500022088995
 42
-5.828427125991288
 10
179.8357820991922
 20
178.2500022091016
 10
155.0000009323167
 20
178.2500022091016
 10
155.0000009323167
 20
177.2500019028632
 42
-0.414213562373095
 10
154.0000009323167
 20
176.2500019028632
 10
130.4999995726146
 20
176.2500019028632
 10
130.4999995726146
 20
173.6994899493877
 42
-5.898980876172962
  0
LWPOLYLINE
  5
C6
100
AcDbEntity
  8
0
  6
ByLayer
 62
  256
370
   -1
100
AcDbPolyline
 90
   24
 70
    1
 43
0
 10
155.0000004885784
 20
157.7500005443583
 42
0.414213562373095
 10
154.0000004885784
 20
158.7500005443583
 10
130.4999995726146
 20
158.7500005443583
 10
130.4999995726146
 20
161.3005105810809
 42
5.898978963052189
 10
129.4999995726145
 20
161.3005099499143
 10
129.4999995726145
 20
158.7500005443583
 10
106.0000004885784
 20
158.7500005443583
 42
0.414213562373095
 10
105.0000004885784
 20
157.7500005443583
 10
105.0000004885784
 20
156.7500009838007
 10
80.16420965714657
 20
156.7500009838007
 42
5.828427125995148
 10
80.16420995724332
 20
155.7500009840028
 10
105.0000004885784
 20
155.7500010145656
 10
105.0000004885784
 20
154.7500005443582
 42
0.414213562373095
 10
106.0000004885784
 20
153.7500005443583
 10
129.4999995726145
 20
153.7500005443583
 10
129.4999995726145
 20
151.1994902604582
 42
5.898980424583271
 10
130.4999995726146
 20
151.1994896581675
 10
130.4999995726146
 20
153.7500005443583
 10
154.0000004885784
 20
153.7500005443583
 42
0.414213562373095
 10
155.0000004885784
 20
154.7500005443582
 10
155.0000004885784
 20
155.7500008505967
 10
179.8357825794952
 20
155.7500008505966
 42
5.828427125995296
 10
179.8357827852596
 20
156.7500008503946
 10
155.0000004885784
 20
156.7500008198317
  0
LINE
  5
C7
100
AcDbEntity
  8
0
  6
ByLayer
 62
  256
370
   -1
100
AcDbLine
 10
63.49999957261456
 20
122.5020200975961
 11
63.49999957261458
 21
142.9999997470224
  0
LINE
  5
C8
100
AcDbEntity
  8
0
  6
ByLayer
 62
  256
370
   -1
100
AcDbLine
 10
63.49999957261456
 20
77.49797939644881
 11
63.49999957261458
 21
56.99999974702246
  0
LWPOLYLINE
  5
C9
100
AcDbEntity
  8
0
  6
ByLayer
 62
  256
370
   -1
100
AcDbPolyline
 90
   24
 70
    1
 43
0
 10
155.0000009323167
 20
109.7499975911817
 42
-0.414213562373095
 10
154.0000009323167
 20
108.7499975911817
 10
130.4999995726146
 20
108.7499975911817
 10
130.4999995726146
 20
106.1994887525939
 42
-5.898978511461345
 10
129.4999995726145
 20
106.1994892529106
 10
129.4999995726145
 20
108.7499975911817
 10
106.0000009323167
 20
108.7499975911817
 42
-0.414213562373095
 10
105.0000009323167
 20
109.7499975911817
 10
105.0000009323167
 20
110.7499971517392
 10
80.16421221741381
 20
110.7499971517392
 42
-5.828427125985348
 10
80.16421405262763
 20
111.7499971515371
 10
105.0000009323167
 20
111.7499971209743
 10
105.0000009323167
 20
112.7499975911817
 42
-0.414213562373095
 10
106.0000009323167
 20
113.7499975911817
 10
129.4999995726145
 20
113.7499975911817
 10
129.4999995726145
 20
116.3005090732163
 42
-5.898980876172803
 10
130.4999995726146
 20
116.3005095446572
 10
130.4999995726146
 20
113.7499975911817
 10
154.0000009323167
 20
113.7499975911817
 42
-0.414213562373095
 10
155.0000009323167
 20
112.7499975911817
 10
155.0000009323167
 20
111.7499972849432
 10
179.8357820991922
 20
111.7499972849433
 42
-5.828427125991653
 10
179.8357832655646
 20
110.7499972851453
 10
155.0000009323167
 20
110.7499973157082
  0
LWPOLYLINE
  5
CA
100
AcDbEntity
  8
0
  6
ByLayer
 62
  256
370
   -1
100
AcDbPolyline
 90
   24
 70
    1
 43
0
 10
155.0000004885784
 20
132.2499989496866
 42
-0.414213562373095
 10
154.0000004885784
 20
131.2499989496866
 10
130.4999995726146
 20
131.2499989496866
 10
130.4999995726146
 20
128.6994889129639
 42
-5.898978963052356
 10
129.4999995726145
 20
128.6994895441305
 10
129.4999995726145
 20
131.2499989496866
 10
106.0000004885784
 20
131.2499989496866
 42
-0.414213562373095
 10
105.0000004885784
 20
132.2499989496866
 10
105.0000004885784
 20
133.2499985102441
 10
80.16420965714657
 20
133.2499985102441
 42
-5.828427125994985
 10
80.16420995724332
 20
134.249998510042
 10
105.0000004885784
 20
134.2499984794792
 10
105.0000004885784
 20
135.2499989496866
 42
-0.414213562373095
 10
106.0000004885784
 20
136.2499989496866
 10
129.4999995726145
 20
136.2499989496866
 10
129.4999995726145
 20
138.8005092335866
 42
-5.898980424583215
 10
130.4999995726146
 20
138.8005098358774
 10
130.4999995726146
 20
136.2499989496866
 10
154.0000004885784
 20
136.2499989496866
 42
-0.414213562373095
 10
155.0000004885784
 20
135.2499989496866
 10
155.0000004885784
 20
134.2499986434482
 10
179.8357825794952
 20
134.2499986434482
 42
-5.828427125995101
 10
179.8357827852596
 20
133.2499986436503
 10
155.0000004885784
 20
133.2499986742131
  0
ARC
  5
CB
100
AcDbEntity
  8
0
  6
ByLayer
 62
  256
370
   -1
100
AcDbCircle
 10
64.99999957261457
 20
77.49999974702246
 40
1.5
100
AcDbArc
 50
0
 51
180
  0
ARC
  5
CC
100
AcDbEntity
  8
0
  6
ByLayer
 62
  256
370
   -1
100
AcDbCircle
 10
64.99999957261457
 20
122.4999997470224
 40
1.5
100
AcDbArc
 50
180
 51
0
  0
LINE
  5
CD
100
AcDbEntity
  8
0
  6
ByLayer
 62
  256
370
   -1
100
AcDbLine
 10
196.4999995726145
 20
122.5020200975961
 11
196.4999995726145
 21
142.9999997470224
  0
LINE
  5
CE
100
AcDbEntity
  8
0
  6
ByLayer
 62
  256
370
   -1
100
AcDbLine
 10
196.4999995726145
 20
77.49797939644881
 11
196.4999995726145
 21
56.99999974702246
  0
ARC
  5
CF
100
AcDbEntity
  8
0
  6
ByLayer
 62
  256
370
   -1
100
AcDbCircle
 10
194.9999995726146
 20
77.49999974702246
 40
1.5
100
AcDbArc
 50
0
 51
180
  0
ARC
  5
D0
100
AcDbEntity
  8
0
  6
ByLayer
 62
  256
370
   -1
100
AcDbCircle
 10
194.9999995726146
 20
122.4999997470224
 40
1.5
100
AcDbArc
 50
180
 51
0
  0
LWPOLYLINE
  5
D1
100
AcDbEntity
  8
0
  6
ByLayer
 62
  256
370
   -1
100
AcDbPolyline
 90
   24
 70
    1
 43
0
 10
155.0000009323167
 20
19.74999759118168
 42
-0.414213562373095
 10
154.0000009323167
 20
18.74999759118168
 10
130.4999995726146
 20
18.74999759118168
 10
130.4999995726146
 20
16.19948875259396
 42
-5.898978511461368
 10
129.4999995726145
 20
16.19948925291068
 10
129.4999995726145
 20
18.74999759118168
 10
106.0000009323167
 20
18.74999759118168
 42
-0.414213562373095
 10
105.0000009323167
 20
19.74999759118168
 10
105.0000009323167
 20
20.7499971517392
 10
80.16421221741381
 20
20.74999715173922
 42
-5.828427125985341
 10
80.16421405262763
 20
21.74999715153711
 10
105.0000009323167
 20
21.74999712097429
 10
105.0000009323167
 20
22.74999759118168
 42
-0.414213562373095
 10
106.0000009323167
 20
23.74999759118168
 10
129.4999995726145
 20
23.74999759118168
 10
129.4999995726145
 20
26.30050907321627
 42
-5.898980876172747
 10
130.4999995726146
 20
26.30050954465718
 10
130.4999995726146
 20
23.74999759118168
 10
154.0000009323167
 20
23.74999759118168
 42
-0.414213562373095
 10
155.0000009323167
 20
22.74999759118168
 10
155.0000009323167
 20
21.74999728494325
 10
179.8357820991922
 20
21.74999728494327
 42
-5.828427125991646
 10
179.8357832655646
 20
20.74999728514536
 10
155.0000009323167
 20
20.74999731570819
  0
LWPOLYLINE
  5
D2
100
AcDbEntity
  8
0
  6
ByLayer
 62
  256
370
   -1
100
AcDbPolyline
 90
   24
 70
    1
 43
0
 10
155.0000004885784
 20
42.24999894968664
 42
-0.414213562373095
 10
154.0000004885784
 20
41.24999894968664
 10
130.4999995726146
 20
41.24999894968664
 10
130.4999995726146
 20
38.69948891296398
 42
-5.898978963052269
 10
129.4999995726145
 20
38.69948954413055
 10
129.4999995726145
 20
41.24999894968664
 10
106.0000004885784
 20
41.24999894968664
 42
-0.414213562373095
 10
105.0000004885784
 20
42.24999894968664
 10
105.0000004885784
 20
43.24999851024415
 10
80.16420965714656
 20
43.24999851024412
 42
-5.828427125994977
 10
80.16420995724332
 20
44.24999851004208
 10
105.0000004885784
 20
44.24999847947924
 10
105.0000004885784
 20
45.24999894968664
 42
-0.414213562373095
 10
106.0000004885784
 20
46.24999894968664
 10
129.4999995726145
 20
46.24999894968664
 10
129.4999995726145
 20
48.80050923358665
 42
-5.898980424583263
 10
130.4999995726146
 20
48.80050983587741
 10
130.4999995726146
 20
46.24999894968664
 10
154.0000004885784
 20
46.24999894968664
 42
-0.414213562373095
 10
155.0000004885784
 20
45.24999894968664
 10
155.0000004885784
 20
44.24999864344821
 10
179.8357825794952
 20
44.24999864344824
 42
-5.82842712599507
 10
179.8357827852596
 20
43.24999864365031
 10
155.0000004885784
 20
43.24999867421314
  0
LWPOLYLINE
  5
D3
100
AcDbEntity
  8
0
  6
ByLayer
 62
  256
370
   -1
100
AcDbPolyline
 90
   24
 70
    1
 43
0
 10
155.0000009323167
 20
90.25000190286323
 42
0.414213562373095
 10
154.0000009323167
 20
91.25000190286323
 10
130.4999995726146
 20
91.25000190286323
 10
130.4999995726146
 20
93.80051074145094
 42
5.8989785114614
 10
129.4999995726145
 20
93.80051024113425
 10
129.4999995726145
 20
91.25000190286323
 10
106.0000009323167
 20
91.25000190286323
 42
0.414213562373095
 10
105.0000009323167
 20
90.25000190286323
 10
105.0000009323167
 20
89.25000234230571
 10
80.16421221741381
 20
89.25000234230569
 42
5.828427125985348
 10
80.16421405262763
 20
88.25000234250778
 10
105.0000009323167
 20
88.25000237307063
 10
105.0000009323167
 20
87.25000190286323
 42
0.414213562373095
 10
106.0000009323167
 20
86.25000190286323
 10
129.4999995726145
 20
86.25000190286323
 10
129.4999995726145
 20
83.69949042082864
 42
5.898980876172803
 10
130.4999995726146
 20
83.69948994938773
 10
130.4999995726146
 20
86.25000190286323
 10
154.0000009323167
 20
86.25000190286323
 42
0.414213562373095
 10
155.0000009323167
 20
87.25000190286323
 10
155.0000009323167
 20
88.25000220910167
 10
179.8357820991922
 20
88.25000220910165
 42
5.828427125991653
 10
179.8357832655646
 20
89.25000220889955
 10
155.0000009323167
 20
89.25000217833673
  0
LWPOLYLINE
  5
D4
100
AcDbEntity
  8
0
  6
ByLayer
 62
  256
370
   -1
100
AcDbPolyline
 90
   24
 70
    1
 43
0
 10
155.0000004885784
 20
67.75000054435827
 42
0.414213562373095
 10
154.0000004885784
 20
68.75000054435827
 10
130.4999995726146
 20
68.75000054435827
 10
130.4999995726146
 20
71.30051058108093
 42
5.898978963052571
 10
129.4999995726145
 20
71.30050994991436
 10
129.4999995726145
 20
68.75000054435827
 10
106.0000004885784
 20
68.75000054435827
 42
0.414213562373095
 10
105.0000004885784
 20
67.75000054435827
 10
105.0000004885784
 20
66.75000098380076
 10
80.16420965714656
 20
66.75000098380079
 42
5.828427125994923
 10
80.16420995724333
 20
65.75000098400284
 10
105.0000004885784
 20
65.75000101456565
 10
105.0000004885784
 20
64.75000054435827
 42
0.414213562373095
 10
106.0000004885784
 20
63.75000054435827
 10
129.4999995726145
 20
63.75000054435827
 10
129.4999995726145
 20
61.19949026045826
 42
5.898980424583358
 10
130.4999995726146
 20
61.19948965816751
 10
130.4999995726146
 20
63.75000054435827
 10
154.0000004885784
 20
63.75000054435827
 42
0.414213562373095
 10
155.0000004885784
 20
64.75000054435827
 10
155.0000004885784
 20
65.75000085059671
 10
179.8357825794952
 20
65.75000085059666
 42
5.828427125995024
 10
179.8357827852596
 20
66.75000085039461
 10
155.0000004885784
 20
66.75000081983177
  0
CIRCLE
  5
D5
100
AcDbEntity
  8
0
  6
ByLayer
 62
  256
370
   -1
100
AcDbCircle
 10
16.96449723700414
 20
140.2144989812579
 40
1.714499999999999
  0
CIRCLE
  5
D6
100
AcDbEntity
  8
0
  6
ByLayer
 62
  256
370
   -1
100
AcDbCircle
 10
243.0355017193157
 20
140.2144989812579
 40
1.714499999999999
  0
CIRCLE
  5
D7
100
AcDbEntity
  8
0
  6
ByLayer
 62
  256
370
   -1
100
AcDbCircle
 10
16.96449723700414
 20
59.78550055309034
 40
1.714499999999999
  0
CIRCLE
  5
D8
100
AcDbEntity
  8
0
  6
ByLayer
 62
  256
370
   -1
100
AcDbCircle
 10
243.0355017193157
 20
59.78550055309034
 40
1.714499999999999
  0
LWPOLYLINE
  5
D9
100
AcDbEntity
  8
0
  6
ByLayer
 62
  256
370
   -1
100
AcDbPolyline
 90
    5
 70
    0
 43
0
 10
33.49999957261457
 20
52.99999974702245
 10
63.49999957261458
 20
52.99999974702245
 10
63.49999957261458
 20
32.49999974702246
 42
0.9999999999999999
 10
66.49999957261457
 20
32.49999974702246
 10
66.49999957261456
 20
77.49852935861514
  0
LWPOLYLINE
  5
DA
100
AcDbEntity
  8
0
  6
ByLayer
 62
  256
370
   -1
100
AcDbPolyline
 90
    5
 70
    0
 43
0
 10
66.49999957261456
 20
122.5014701354298
 10
66.49999957261457
 20
167.4999997470224
 42
0.9999999999999999
 10
63.49999957261458
 20
167.4999997470224
 10
63.49999957261458
 20
146.9999997470224
 10
33.49999957261457
 20
146.9999997470224
  0
LWPOLYLINE
  5
DB
100
AcDbEntity
  8
0
  6
ByLayer
 62
  256
370
   -1
100
AcDbPolyline
 90
   11
 70
    0
 43
0
 10
31.49999957261457
 20
54.99999977132292
 42
0.4142135659318153
 10
33.49999957261457
 20
52.99999974702243
 42
-0.4142135588143768
 10
31.49999957261457
 20
54.99999972272195
 10
31.50000009455098
 20
97.95690945407304
 10
17.98003233093169
 20
97.96139959740509
 42
-0.4169183637076379
 10
15.96149520168393
 20
99.99999974702246
 42
-0.4169183637076373
 10
17.98003233093164
 20
102.0385998966398
 10
31.50000009455096
 20
102.0430900399718
 10
31.49999957261457
 20
144.9999997713229
 42
-0.4142135588143748
 10
33.49999957261457
 20
146.9999997470225
 42
0.4142135659318153
 10
31.49999957261457
 20
144.9999997227219
 42
0.4142135659318153
  0
LWPOLYLINE
  5
DC
100
AcDbEntity
  8
0
  6
ByLayer
 62
  256
370
   -1
100
AcDbPolyline
 90
    7
 70
    0
 43
0
 10
62.49999957261457
 20
142.9999997470224
 10
63.49999957261457
 20
142.9999997470224
 10
35.49999959691504
 20
142.9999997470224
 10
35.50000011937502
 20
99.99999974702246
 10
35.49999959691503
 20
56.99999974702246
 10
63.49999957261457
 20
56.99999974702246
 10
62.49999957261457
 20
56.99999974702246
  0
LWPOLYLINE
  5
DD
100
AcDbEntity
  8
0
  6
ByLayer
 62
  256
370
   -1
100
AcDbPolyline
 90
    5
 70
    0
 43
0
 10
193.4999995726145
 20
77.49852935861514
 10
193.4999995726145
 20
32.49999974702246
 42
0.9999999999999999
 10
196.4999995726145
 20
32.49999974702246
 10
196.4999995726145
 20
52.99999974702245
 10
226.4999995726146
 20
52.99999974702245
  0
LWPOLYLINE
  5
DE
100
AcDbEntity
  8
0
  6
ByLayer
 62
  256
370
   -1
100
AcDbPolyline
 90
    5
 70
    0
 43
0
 10
226.4999995726146
 20
146.9999997470224
 10
196.4999995726145
 20
146.9999997470224
 10
196.4999995726145
 20
167.4999997470224
 42
0.9999999999999999
 10
193.4999995726145
 20
167.4999997470224
 10
193.4999995726145
 20
122.5014701354298
  0
LWPOLYLINE
  5
DF
100
AcDbEntity
  8
0
  6
ByLayer
 62
  256
370
   -1
100
AcDbPolyline
 90
   11
 70
    0
 43
0
 10
228.4999995726145
 20
54.99999977132292
 42
-0.4142135659318195
 10
226.4999995726146
 20
52.99999974702243
 42
0.414213558814381
 10
228.4999995726145
 20
54.99999972272195
 10
228.4999990506781
 20
97.95690945407304
 10
242.0199668142974
 20
97.96139959740509
 42
0.4169183637076394
 10
244.0385039435452
 20
99.99999974702246
 42
0.4169183637076373
 10
242.0199668142975
 20
102.0385998966398
 10
228.4999990506782
 20
102.0430900399718
 10
228.4999995726145
 20
144.9999997713229
 42
0.4142135588143768
 10
226.4999995726146
 20
146.9999997470225
 42
-0.4142135659318174
 10
228.4999995726145
 20
144.9999997227219
 42
-0.4142135659318174
  0
LWPOLYLINE
  5
E0
100
AcDbEntity
  8
0
  6
ByLayer
 62
  256
370
   -1
100
AcDbPolyline
 90
    7
 70
    0
 43
0
 10
197.4999995726145
 20
142.9999997470224
 10
196.4999995726145
 20
142.9999997470224
 10
224.4999995483141
 20
142.9999997470224
 10
224.4999990258541
 20
99.99999974702246
 10
224.4999995483141
 20
56.99999974702246
 10
196.4999995726145
 20
56.99999974702246
 10
197.4999995726145
 20
56.99999974702246
  0
CIRCLE
  5
E1
100
AcDbEntity
  8
0
  6
ByLayer
 62
  256
370
   -1
100
AcDbCircle
 10
42.71451076946834
 20
99.96447305095631
 40
1.714499999999999
  0
CIRCLE
  5
E2
100
AcDbEntity
  8
0
  6
ByLayer
 62
  256
370
   -1
100
AcDbCircle
 10
58.71451076946835
 20
151.7144730509563
 40
1.714499999999999
  0
CIRCLE
  5
E3
100
AcDbEntity
  8
0
  6
ByLayer
 62
  256
370
   -1
100
AcDbCircle
 10
58.71451076946835
 20
138.2144730509563
 40
1.714499999999999
  0
CIRCLE
  5
E4
100
AcDbEntity
  8
0
  6
ByLayer
 62
  256
370
   -1
100
AcDbCircle
 10
26.71451076946835
 20
106.7144730509563
 40
1.714499999999999
  0
CIRCLE
  5
E5
100
AcDbEntity
  8
0
  6
ByLayer
 62
  256
370
   -1
100
AcDbCircle
 10
26.71451076946835
 20
93.21447305095631
 40
1.714499999999999
  0
CIRCLE
  5
E6
100
AcDbEntity
  8
0
  6
ByLayer
 62
  256
370
   -1
100
AcDbCircle
 10
58.71451076946835
 20
61.71447305095631
 40
1.714499999999999
  0
CIRCLE
  5
E7
100
AcDbEntity
  8
0
  6
ByLayer
 62
  256
370
   -1
100
AcDbCircle
 10
58.71451076946835
 20
48.21447305095631
 40
1.714499999999999
  0
CIRCLE
  5
E8
100
AcDbEntity
  8
0
  6
ByLayer
 62
  256
370
   -1
100
AcDbCircle
 10
16.96451076946835
 20
189.2144730509563
 40
1.714499999999999
  0
CIRCLE
  5
E9
100
AcDbEntity
  8
0
  6
ByLayer
 62
  256
370
   -1
100
AcDbCircle
 10
16.96451076946835
 20
10.46447305095631
 40
1.714499999999999
  0
CIRCLE
  5
EA
100
AcDbEntity
  8
0
  6
ByLayer
 62
  256
370
   -1
100
AcDbCircle
 10
16.96449429627284
 20
199.5
 40
1.714499999999999
  0
CIRCLE
  5
EB
100
AcDbEntity
  8
0
  6
ByLayer
 62
  256
370
   -1
100
AcDbCircle
 10
243.0355027629959
 20
59.78550055309034
 40
1.714499999999999
  0
CIRCLE
  5
EC
100
AcDbEntity
  8
0
  6
ByLayer
 62
  256
370
   -1
100
AcDbCircle
 10
217.2854892305316
 20
99.96447305095631
 40
1.714499999999999
  0
CIRCLE
  5
ED
100
AcDbEntity
  8
0
  6
ByLayer
 62
  256
370
   -1
100
AcDbCircle
 10
201.2854892305317
 20
151.7144730509563
 40
1.714499999999999
  0
CIRCLE
  5
EE
100
AcDbEntity
  8
0
  6
ByLayer
 62
  256
370
   -1
100
AcDbCircle
 10
201.2854892305317
 20
138.2144730509563
 40
1.714499999999999
  0
CIRCLE
  5
EF
100
AcDbEntity
  8
0
  6
ByLayer
 62
  256
370
   -1
100
AcDbCircle
 10
233.2854892305316
 20
106.7144730509563
 40
1.714499999999999
  0
CIRCLE
  5
F0
100
AcDbEntity
  8
0
  6
ByLayer
 62
  256
370
   -1
100
AcDbCircle
 10
233.2854892305316
 20
93.21447305095631
 40
1.714499999999999
  0
CIRCLE
  5
F1
100
AcDbEntity
  8
0
  6
ByLayer
 62
  256
370
   -1
100
AcDbCircle
 10
201.2854892305317
 20
61.71447305095631
 40
1.714499999999999
  0
CIRCLE
  5
F2
100
AcDbEntity
  8
0
  6
ByLayer
 62
  256
370
   -1
100
AcDbCircle
 10
201.2854892305317
 20
48.21447305095631
 40
1.714499999999999
  0
CIRCLE
  5
F3
100
AcDbEntity
  8
0
  6
ByLayer
 62
  256
370
   -1
100
AcDbCircle
 10
243.0354892305317
 20
189.2144730509563
 40
1.714499999999999
  0
CIRCLE
  5
F4
100
AcDbEntity
  8
0
  6
ByLayer
 62
  256
370
   -1
100
AcDbCircle
 10
243.0354892305317
 20
10.46447305095631
 40
1.714499999999999
  0
CIRCLE
  5
F5
100
AcDbEntity
  8
0
  6
ByLayer
 62
  256
370
   -1
100
AcDbCircle
 10
243.0355057037271
 20
199.5
 40
1.714499999999999
  0
LWPOLYLINE
  5
F6
100
AcDbEntity
  8
0
  6
ByLayer
 62
  256
370
   -1
100
AcDbPolyline
 90
   16
 70
    0
 43
0
 10
157.5000008811507
 20
4.999999798667886
 10
255.000000663983
 20
4.999999798667886
 10
255.000000663983
 20
97.49999979866787
 10
255.000000663983
 20
102.4999997986678
 10
255.000000663983
 20
204.9999997986679
 10
157.500000663983
 20
204.9999997986679
 10
157.500000663983
 20
192.4999997986679
 10
102.5000006639829
 20
192.4999997986679
 10
102.5000006639829
 20
204.9999997986679
 10
5.000000663982973
 20
204.9999997986679
 10
5.000000663982973
 20
102.4999997986678
 10
5.000000663982973
 20
97.49999979866787
 10
5.000000663982973
 20
4.999999798667886
 10
102.5000006639829
 20
4.999999798667886
 10
102.5000006639829
 20
7.499999798667886
 10
157.500000663983
 20
7.499999798667886
  0
CIRCLE
  5
F7
100
AcDbEntity
  8
0
  6
ByLayer
 62
  256
370
   -1
100
AcDbCircle
 10
99.40000066398296
 20
167.214499378591
 40
1.714499999999999
  0
CIRCLE
  5
F8
100
AcDbEntity
  8
0
  6
ByLayer
 62
  256
370
   -1
100
AcDbCircle
 10
99.40000066398296
 20
144.9644994970288
 40
1.714499999999999
  0
CIRCLE
  5
F9
100
AcDbEntity
  8
0
  6
ByLayer
 62
  256
370
   -1
100
AcDbCircle
 10
99.40000066398296
 20
122.7144999800953
 40
1.714499999999999
  0
CIRCLE
  5
FA
100
AcDbEntity
  8
0
  6
ByLayer
 62
  256
370
   -1
100
AcDbCircle
 10
99.40000066398296
 20
100.4645000985331
 40
1.714499999999999
  0
CIRCLE
  5
FB
100
AcDbEntity
  8
0
  6
ByLayer
 62
  256
370
   -1
100
AcDbCircle
 10
99.40000066398296
 20
77.21449910678103
 40
1.714499999999999
  0
CIRCLE
  5
FC
100
AcDbEntity
  8
0
  6
ByLayer
 62
  256
370
   -1
100
AcDbCircle
 10
99.40000066398296
 20
54.96449922521884
 40
1.714499999999999
  0
CIRCLE
  5
FD
100
AcDbEntity
  8
0
  6
ByLayer
 62
  256
370
   -1
100
AcDbCircle
 10
99.40000066398296
 20
32.71449970828536
 40
1.714499999999999
  0
CIRCLE
  5
FE
100
AcDbEntity
  8
0
  6
ByLayer
 62
  256
370
   -1
100
AcDbCircle
 10
99.40000066398296
 20
10.46449982672317
 40
1.714499999999999
  0
CIRCLE
  5
FF
100
AcDbEntity
  8
0
  6
ByLayer
 62
  256
370
   -1
100
AcDbCircle
 10
99.40000066398296
 20
189.214500454825
 40
1.714499999999999
  0
CIRCLE
  5
100
100
AcDbEntity
  8
0
  6
ByLayer
 62
  256
370
   -1
100
AcDbCircle
 10
160.600000663983
 20
167.214499378591
 40
1.714499999999999
  0
CIRCLE
  5
101
100
AcDbEntity
  8
0
  6
ByLayer
 62
  256
370
   -1
100
AcDbCircle
 10
160.600000663983
 20
144.9644994970288
 40
1.714499999999999
  0
CIRCLE
  5
102
100
AcDbEntity
  8
0
  6
ByLayer
 62
  256
370
   -1
100
AcDbCircle
 10
160.600000663983
 20
122.7144999800953
 40
1.714499999999999
  0
CIRCLE
  5
103
100
AcDbEntity
  8
0
  6
ByLayer
 62
  256
370
   -1
100
AcDbCircle
 10
160.600000663983
 20
100.4645000985331
 40
1.714499999999999
  0
CIRCLE
  5
104
100
AcDbEntity
  8
0
  6
ByLayer
 62
  256
370
   -1
100
AcDbCircle
 10
160.600000663983
 20
77.21449910678103
 40
1.714499999999999
  0
CIRCLE
  5
105
100
AcDbEntity
  8
0
  6
ByLayer
 62
  256
370
   -1
100
AcDbCircle
 10
160.600000663983
 20
54.96449922521884
 40
1.714499999999999
  0
CIRCLE
  5
106
100
AcDbEntity
  8
0
  6
ByLayer
 62
  256
370
   -1
100
AcDbCircle
 10
160.600000663983
 20
32.71449970828536
 40
1.714499999999999
  0
CIRCLE
  5
107
100
AcDbEntity
  8
0
  6
ByLayer
 62
  256
370
   -1
100
AcDbCircle
 10
160.600000663983
 20
10.46449982672317
 40
1.714499999999999
  0
CIRCLE
  5
108
100
AcDbEntity
  8
0
  6
ByLayer
 62
  256
370
   -1
100
AcDbCircle
 10
160.600000663983
 20
189.214500454825
 40
1.714499999999999
  0
LINE
  5
109
100
AcDbEntity
  8
0
  6
ByLayer
 62
  256
370
   -1
100
AcDbLine
 10
157.5
 20
5
 11
157.5
 21
7.5
  0
ENDSEC
  0
SECTION
  2
OBJECTS
  0
DICTIONARY
  5
C
330
0
100
AcDbDictionary
281
    1
  3
ACAD_GROUP
350
D
  0
DICTIONARY
  5
D
330
C
100
AcDbDictionary
281
    1
  0
ENDSEC
  0
EOF
