G04 #@! TF.GenerationSoftware,KiCad,Pcbnew,(2017-11-10 revision d8f4e35)-HEAD*
G04 #@! TF.CreationDate,2017-12-11T22:22:10-08:00*
G04 #@! TF.ProjectId,floor_pcb,666C6F6F725F7063622E6B696361645F,rev?*
G04 #@! TF.SameCoordinates,Original*
G04 #@! TF.FileFunction,Soldermask,Top*
G04 #@! TF.FilePolarity,Negative*
%FSLAX46Y46*%
G04 Gerber Fmt 4.6, Leading zero omitted, Abs format (unit mm)*
G04 Created by KiCad (PCBNEW (2017-11-10 revision d8f4e35)-HEAD) date Mon Dec 11 22:22:10 2017*
%MOMM*%
%LPD*%
G01*
G04 APERTURE LIST*
%ADD10C,0.001000*%
%ADD11C,4.400000*%
%ADD12C,2.000000*%
%ADD13R,2.000000X2.000000*%
%ADD14C,1.900000*%
%ADD15C,1.000001*%
%ADD16C,0.100000*%
G04 APERTURE END LIST*
D10*
X142115153Y-70245379D02*
G75*
G02X142108633Y-67045385I-3260J1599997D01*
G01*
X152108612Y-67025010D02*
G75*
G02X152115132Y-70225004I3260J-1599997D01*
G01*
X142057908Y-25235283D02*
X152057887Y-25214907D01*
X142051388Y-22035289D02*
X152051367Y-22014914D01*
X126762780Y-25774200D02*
G75*
G03X126762780Y-25774200I-1851780J0D01*
G01*
X138486470Y-25755190D02*
G75*
G03X138486470Y-25755190I-4200000J0D01*
G01*
X142057908Y-25235283D02*
G75*
G02X142051388Y-22035289I-3260J1599997D01*
G01*
X87500000Y-228507200D02*
X87500000Y-6507200D01*
X162500000Y-228507200D02*
X87500000Y-228507200D01*
X162500000Y-6507200D02*
X162500000Y-228507200D01*
X87500000Y-6507200D02*
X162500000Y-6507200D01*
X107891787Y-182789837D02*
X97891788Y-182794898D01*
X107890167Y-179589837D02*
X97890169Y-179594898D01*
X126891790Y-183285137D02*
G75*
G03X126891790Y-183285137I-1851780J0D01*
G01*
X119864522Y-183289976D02*
G75*
G03X119864522Y-183289976I-4200000J0D01*
G01*
X107890167Y-179589837D02*
G75*
G02X107891787Y-182789837I810J-1600000D01*
G01*
X138600959Y-115775383D02*
G75*
G03X138600959Y-115775383I-4200000J0D01*
G01*
X142172397Y-115255474D02*
G75*
G02X142165877Y-112055482I-3260J1599996D01*
G01*
X152165856Y-112035106D02*
G75*
G02X152172376Y-115235100I3260J-1599997D01*
G01*
X142115153Y-70245379D02*
X152115132Y-70225004D01*
X142108633Y-67045385D02*
X152108612Y-67025010D01*
X126820024Y-70784296D02*
G75*
G03X126820024Y-70784296I-1851780J0D01*
G01*
X138543714Y-70765287D02*
G75*
G03X138543714Y-70765287I-4200000J0D01*
G01*
X107848157Y-44572900D02*
X97848158Y-44577961D01*
X126849780Y-48268200D02*
G75*
G03X126849780Y-48268200I-1851780J0D01*
G01*
X119822512Y-48273038D02*
G75*
G03X119822512Y-48273038I-4200000J0D01*
G01*
X107848157Y-44572900D02*
G75*
G02X107849777Y-47772900I810J-1600000D01*
G01*
X97849778Y-47777961D02*
G75*
G02X97848158Y-44577961I-810J1600000D01*
G01*
X142229641Y-160265571D02*
X152229621Y-160245196D01*
X142223121Y-157065578D02*
X152223101Y-157045203D01*
X152051367Y-22014915D02*
G75*
G02X152057887Y-25214907I3260J-1599996D01*
G01*
X147000000Y-15007200D02*
G75*
G03X147000000Y-15007200I-2000000J0D01*
G01*
X107000000Y-15007200D02*
G75*
G03X107000000Y-15007200I-2000000J0D01*
G01*
X147000000Y-208542700D02*
G75*
G03X147000000Y-208542700I-2000000J0D01*
G01*
X107000000Y-208542700D02*
G75*
G03X107000000Y-208542700I-2000000J0D01*
G01*
X96114500Y-70043200D02*
G75*
G03X96114500Y-70043200I-1714500J0D01*
G01*
X96114500Y-25792200D02*
G75*
G03X96114500Y-25792200I-1714500J0D01*
G01*
X126934513Y-160804489D02*
G75*
G03X126934513Y-160804489I-1851780J0D01*
G01*
X138658203Y-160785479D02*
G75*
G03X138658203Y-160785479I-4200000J0D01*
G01*
X142229641Y-160265572D02*
G75*
G02X142223121Y-157065578I-3260J1599997D01*
G01*
X152223101Y-157045204D02*
G75*
G02X152229621Y-160245196I3260J-1599996D01*
G01*
X142172397Y-115255475D02*
X152172376Y-115235100D01*
X142165877Y-112055482D02*
X152165856Y-112035107D01*
X126877269Y-115794393D02*
G75*
G03X126877269Y-115794393I-1851780J0D01*
G01*
X157314501Y-204542700D02*
G75*
G03X157314501Y-204542700I-1714500J0D01*
G01*
X157314501Y-182292700D02*
G75*
G03X157314501Y-182292700I-1714500J0D01*
G01*
X157314501Y-137792701D02*
G75*
G03X157314501Y-137792701I-1714500J0D01*
G01*
X157314501Y-92292700D02*
G75*
G03X157314501Y-92292700I-1714500J0D01*
G01*
X157314501Y-47792701D02*
G75*
G03X157314501Y-47792701I-1714500J0D01*
G01*
X96114501Y-204542700D02*
G75*
G03X96114501Y-204542700I-1714500J0D01*
G01*
X96114501Y-160042701D02*
G75*
G03X96114501Y-160042701I-1714500J0D01*
G01*
X107863780Y-92778545D02*
X97863781Y-92783606D01*
X107862160Y-89578546D02*
X97862162Y-89583607D01*
X126863783Y-93273846D02*
G75*
G03X126863783Y-93273846I-1851780J0D01*
G01*
X119836515Y-93278684D02*
G75*
G03X119836515Y-93278684I-4200000J0D01*
G01*
X107862160Y-89578547D02*
G75*
G02X107863780Y-92778545I810J-1599999D01*
G01*
X97863782Y-92783607D02*
G75*
G02X97862162Y-89583607I-810J1600000D01*
G01*
X107849777Y-47772900D02*
X97849778Y-47777961D01*
X97891787Y-182794898D02*
G75*
G02X97890169Y-179594898I-809J1600000D01*
G01*
X107877783Y-137784191D02*
X97877785Y-137789252D01*
X107876164Y-134584192D02*
X97876165Y-134589253D01*
X126877787Y-138279492D02*
G75*
G03X126877787Y-138279492I-1851780J0D01*
G01*
X119850519Y-138284330D02*
G75*
G03X119850519Y-138284330I-4200000J0D01*
G01*
X107876165Y-134584191D02*
G75*
G02X107877783Y-137784191I809J-1600000D01*
G01*
X97877785Y-137789251D02*
G75*
G02X97876165Y-134589253I-810J1599999D01*
G01*
X96114501Y-114542700D02*
G75*
G03X96114501Y-114542700I-1714500J0D01*
G01*
D11*
X101500000Y-219072501D03*
X148600000Y-219072501D03*
D12*
X109815000Y-220492501D03*
X112585000Y-220492501D03*
X115355000Y-220492501D03*
X118125000Y-220492501D03*
X120895000Y-220492501D03*
X123665000Y-220492501D03*
X126435000Y-220492501D03*
X129205000Y-220492501D03*
X131975000Y-220492501D03*
X134745000Y-220492501D03*
X137515000Y-220492501D03*
X140285000Y-220492501D03*
X108430000Y-217652501D03*
X111200000Y-217652501D03*
X113970000Y-217652501D03*
X116740000Y-217652501D03*
X119510000Y-217652501D03*
X122280000Y-217652501D03*
X125050000Y-217652501D03*
X127820000Y-217652501D03*
X130590000Y-217652501D03*
X133360000Y-217652501D03*
X136130000Y-217652501D03*
X138900000Y-217652501D03*
D13*
X141670000Y-217652501D03*
D14*
X114890000Y-16385800D03*
X117430000Y-16385800D03*
X119970000Y-16385800D03*
X122510000Y-16385800D03*
X125050000Y-16385800D03*
X127590000Y-16385800D03*
X130130000Y-16385800D03*
X132670000Y-16385800D03*
X135210000Y-16385800D03*
X137750000Y-16385800D03*
X137750000Y-213750000D03*
X135210000Y-213750000D03*
X132670000Y-213750000D03*
X130130000Y-213750000D03*
X127590000Y-213750000D03*
X125050000Y-213750000D03*
X122510000Y-213750000D03*
X119970000Y-213750000D03*
X117430000Y-213750000D03*
X114890000Y-213750000D03*
D15*
X98700000Y-189700000D03*
D16*
G36*
X98727911Y-189200780D02*
X98776493Y-189205886D01*
X98824345Y-189215708D01*
X98871010Y-189230154D01*
X98916043Y-189249084D01*
X98959014Y-189272318D01*
X98999512Y-189299634D01*
X99037151Y-189330772D01*
X99071572Y-189365435D01*
X99102447Y-189403291D01*
X99129480Y-189443979D01*
X99152414Y-189487110D01*
X99157727Y-189500000D01*
X124200000Y-189500000D01*
X124200000Y-197000000D01*
X123800000Y-197000000D01*
X123800000Y-189900000D01*
X122200000Y-189900000D01*
X122200000Y-197000000D01*
X121800000Y-197000000D01*
X121800000Y-189900000D01*
X120200000Y-189900000D01*
X120200000Y-197000000D01*
X119800000Y-197000000D01*
X119800000Y-189900000D01*
X118200000Y-189900000D01*
X118200000Y-197000000D01*
X117800000Y-197000000D01*
X117800000Y-189900000D01*
X116200000Y-189900000D01*
X116200000Y-197000000D01*
X115800000Y-197000000D01*
X115800000Y-189900000D01*
X114200000Y-189900000D01*
X114200000Y-197000000D01*
X113800000Y-197000000D01*
X113800000Y-189900000D01*
X112200000Y-189900000D01*
X112200000Y-197000000D01*
X111800000Y-197000000D01*
X111800000Y-189900000D01*
X110200000Y-189900000D01*
X110200000Y-197000000D01*
X109800000Y-197000000D01*
X109800000Y-189900000D01*
X108200000Y-189900000D01*
X108200000Y-197000000D01*
X107800000Y-197000000D01*
X107800000Y-189900000D01*
X106200000Y-189900000D01*
X106200000Y-197000000D01*
X105800000Y-197000000D01*
X105800000Y-189900000D01*
X104200000Y-189900000D01*
X104200000Y-197000000D01*
X103800000Y-197000000D01*
X103800000Y-189900000D01*
X102200000Y-189900000D01*
X102200000Y-197000000D01*
X101800000Y-197000000D01*
X101800000Y-189900000D01*
X100200000Y-189900000D01*
X100200000Y-197000000D01*
X99800000Y-197000000D01*
X99800000Y-189900000D01*
X99157619Y-189900000D01*
X99146293Y-189925439D01*
X99122164Y-189967913D01*
X99094005Y-190007831D01*
X99062086Y-190044810D01*
X99026710Y-190078498D01*
X98988216Y-190108572D01*
X98946971Y-190134747D01*
X98903368Y-190156773D01*
X98857825Y-190174438D01*
X98810774Y-190187575D01*
X98762667Y-190196057D01*
X98713961Y-190199805D01*
X98665122Y-190198782D01*
X98616616Y-190192998D01*
X98568905Y-190182508D01*
X98522447Y-190167413D01*
X98477682Y-190147856D01*
X98435040Y-190124024D01*
X98394927Y-190096145D01*
X98357726Y-190064484D01*
X98323793Y-190029345D01*
X98293450Y-189991061D01*
X98266987Y-189950000D01*
X98244658Y-189906552D01*
X98242064Y-189900000D01*
X98200000Y-189900000D01*
X98200000Y-189500000D01*
X98242380Y-189500000D01*
X98250603Y-189480814D01*
X98274137Y-189438007D01*
X98301735Y-189397700D01*
X98333135Y-189360279D01*
X98368037Y-189326101D01*
X98406107Y-189295492D01*
X98446983Y-189268743D01*
X98490274Y-189246111D01*
X98535567Y-189227812D01*
X98582429Y-189214019D01*
X98630413Y-189204866D01*
X98679062Y-189200439D01*
X98727911Y-189200780D01*
X98727911Y-189200780D01*
G37*
D15*
X151300000Y-189700000D03*
D16*
G36*
X151327911Y-189200780D02*
X151376493Y-189205886D01*
X151424345Y-189215708D01*
X151471010Y-189230154D01*
X151516043Y-189249084D01*
X151559014Y-189272318D01*
X151599512Y-189299634D01*
X151637151Y-189330772D01*
X151671572Y-189365435D01*
X151702447Y-189403291D01*
X151729480Y-189443979D01*
X151752414Y-189487110D01*
X151757727Y-189500000D01*
X151800000Y-189500000D01*
X151800000Y-189900000D01*
X151757619Y-189900000D01*
X151746293Y-189925439D01*
X151722164Y-189967913D01*
X151694005Y-190007831D01*
X151662086Y-190044810D01*
X151626710Y-190078498D01*
X151588216Y-190108572D01*
X151546971Y-190134747D01*
X151503368Y-190156773D01*
X151457825Y-190174438D01*
X151410774Y-190187575D01*
X151362667Y-190196057D01*
X151313961Y-190199805D01*
X151265122Y-190198782D01*
X151216616Y-190192998D01*
X151168905Y-190182508D01*
X151122447Y-190167413D01*
X151077682Y-190147856D01*
X151035040Y-190124024D01*
X150994927Y-190096145D01*
X150957726Y-190064484D01*
X150923793Y-190029345D01*
X150893450Y-189991061D01*
X150866987Y-189950000D01*
X150844658Y-189906552D01*
X150842064Y-189900000D01*
X150200000Y-189900000D01*
X150200000Y-197000000D01*
X149800000Y-197000000D01*
X149800000Y-189900000D01*
X148200000Y-189900000D01*
X148200000Y-197000000D01*
X147800000Y-197000000D01*
X147800000Y-189900000D01*
X146200000Y-189900000D01*
X146200000Y-197000000D01*
X145800000Y-197000000D01*
X145800000Y-189900000D01*
X144200000Y-189900000D01*
X144200000Y-197000000D01*
X143800000Y-197000000D01*
X143800000Y-189900000D01*
X142200000Y-189900000D01*
X142200000Y-197000000D01*
X141800000Y-197000000D01*
X141800000Y-189900000D01*
X140200000Y-189900000D01*
X140200000Y-197000000D01*
X139800000Y-197000000D01*
X139800000Y-189900000D01*
X138200000Y-189900000D01*
X138200000Y-197000000D01*
X137800000Y-197000000D01*
X137800000Y-189900000D01*
X136200000Y-189900000D01*
X136200000Y-197000000D01*
X135800000Y-197000000D01*
X135800000Y-189900000D01*
X134200000Y-189900000D01*
X134200000Y-197000000D01*
X133800000Y-197000000D01*
X133800000Y-189900000D01*
X132200000Y-189900000D01*
X132200000Y-197000000D01*
X131800000Y-197000000D01*
X131800000Y-189900000D01*
X130200000Y-189900000D01*
X130200000Y-197000000D01*
X129800000Y-197000000D01*
X129800000Y-189900000D01*
X128200000Y-189900000D01*
X128200000Y-197000000D01*
X127800000Y-197000000D01*
X127800000Y-189900000D01*
X126200000Y-189900000D01*
X126200000Y-197000000D01*
X125800000Y-197000000D01*
X125800000Y-189500000D01*
X150842380Y-189500000D01*
X150850603Y-189480814D01*
X150874137Y-189438007D01*
X150901735Y-189397700D01*
X150933135Y-189360279D01*
X150968037Y-189326101D01*
X151006107Y-189295492D01*
X151046983Y-189268743D01*
X151090274Y-189246111D01*
X151135567Y-189227812D01*
X151182429Y-189214019D01*
X151230413Y-189204866D01*
X151279062Y-189200439D01*
X151327911Y-189200780D01*
X151327911Y-189200780D01*
G37*
D15*
X125000000Y-197500000D03*
D16*
G36*
X125200000Y-197042340D02*
X125216043Y-197049084D01*
X125259014Y-197072318D01*
X125299512Y-197099634D01*
X125337151Y-197130772D01*
X125371572Y-197165435D01*
X125402447Y-197203291D01*
X125429480Y-197243979D01*
X125452414Y-197287110D01*
X125471029Y-197332274D01*
X125485148Y-197379039D01*
X125494636Y-197426958D01*
X125499403Y-197475575D01*
X125498526Y-197538360D01*
X125492404Y-197586824D01*
X125489410Y-197600000D01*
X126800000Y-197600000D01*
X126800000Y-190500000D01*
X127200000Y-190500000D01*
X127200000Y-197600000D01*
X128800000Y-197600000D01*
X128800000Y-190500000D01*
X129200000Y-190500000D01*
X129200000Y-197600000D01*
X130800000Y-197600000D01*
X130800000Y-190500000D01*
X131200000Y-190500000D01*
X131200000Y-197600000D01*
X132800000Y-197600000D01*
X132800000Y-190500000D01*
X133200000Y-190500000D01*
X133200000Y-197600000D01*
X134800000Y-197600000D01*
X134800000Y-190500000D01*
X135200000Y-190500000D01*
X135200000Y-197600000D01*
X136800000Y-197600000D01*
X136800000Y-190500000D01*
X137200000Y-190500000D01*
X137200000Y-197600000D01*
X138800000Y-197600000D01*
X138800000Y-190500000D01*
X139200000Y-190500000D01*
X139200000Y-197600000D01*
X140800000Y-197600000D01*
X140800000Y-190500000D01*
X141200000Y-190500000D01*
X141200000Y-197600000D01*
X142800000Y-197600000D01*
X142800000Y-190500000D01*
X143200000Y-190500000D01*
X143200000Y-197600000D01*
X144800000Y-197600000D01*
X144800000Y-190500000D01*
X145200000Y-190500000D01*
X145200000Y-197600000D01*
X146800000Y-197600000D01*
X146800000Y-190500000D01*
X147200000Y-190500000D01*
X147200000Y-197600000D01*
X148800000Y-197600000D01*
X148800000Y-190500000D01*
X149200000Y-190500000D01*
X149200000Y-197600000D01*
X150800000Y-197600000D01*
X150800000Y-190500000D01*
X151200000Y-190500000D01*
X151200000Y-198000000D01*
X98800000Y-198000000D01*
X98800000Y-190500000D01*
X99200000Y-190500000D01*
X99200000Y-197600000D01*
X100800000Y-197600000D01*
X100800000Y-190500000D01*
X101200000Y-190500000D01*
X101200000Y-197600000D01*
X102800000Y-197600000D01*
X102800000Y-190500000D01*
X103200000Y-190500000D01*
X103200000Y-197600000D01*
X104800000Y-197600000D01*
X104800000Y-190500000D01*
X105200000Y-190500000D01*
X105200000Y-197600000D01*
X106800000Y-197600000D01*
X106800000Y-190500000D01*
X107200000Y-190500000D01*
X107200000Y-197600000D01*
X108800000Y-197600000D01*
X108800000Y-190500000D01*
X109200000Y-190500000D01*
X109200000Y-197600000D01*
X110800000Y-197600000D01*
X110800000Y-190500000D01*
X111200000Y-190500000D01*
X111200000Y-197600000D01*
X112800000Y-197600000D01*
X112800000Y-190500000D01*
X113200000Y-190500000D01*
X113200000Y-197600000D01*
X114800000Y-197600000D01*
X114800000Y-190500000D01*
X115200000Y-190500000D01*
X115200000Y-197600000D01*
X116800000Y-197600000D01*
X116800000Y-190500000D01*
X117200000Y-190500000D01*
X117200000Y-197600000D01*
X118800000Y-197600000D01*
X118800000Y-190500000D01*
X119200000Y-190500000D01*
X119200000Y-197600000D01*
X120800000Y-197600000D01*
X120800000Y-190500000D01*
X121200000Y-190500000D01*
X121200000Y-197600000D01*
X122800000Y-197600000D01*
X122800000Y-190500000D01*
X123200000Y-190500000D01*
X123200000Y-197600000D01*
X124510609Y-197600000D01*
X124504392Y-197566128D01*
X124500305Y-197517450D01*
X124500987Y-197468605D01*
X124506432Y-197420059D01*
X124516588Y-197372277D01*
X124531359Y-197325714D01*
X124550603Y-197280814D01*
X124574137Y-197238007D01*
X124601735Y-197197700D01*
X124633135Y-197160279D01*
X124668037Y-197126101D01*
X124706107Y-197095492D01*
X124746983Y-197068743D01*
X124790274Y-197046111D01*
X124800000Y-197042182D01*
X124800000Y-189500000D01*
X125200000Y-189500000D01*
X125200000Y-197042340D01*
X125200000Y-197042340D01*
G37*
D15*
X125000000Y-175019400D03*
D16*
G36*
X125200000Y-174561740D02*
X125216043Y-174568484D01*
X125259014Y-174591718D01*
X125299512Y-174619034D01*
X125337151Y-174650172D01*
X125371572Y-174684835D01*
X125402447Y-174722691D01*
X125429480Y-174763379D01*
X125452414Y-174806510D01*
X125471029Y-174851674D01*
X125485148Y-174898439D01*
X125494636Y-174946358D01*
X125499403Y-174994975D01*
X125498526Y-175057760D01*
X125492404Y-175106224D01*
X125489410Y-175119400D01*
X126800000Y-175119400D01*
X126800000Y-168019400D01*
X127200000Y-168019400D01*
X127200000Y-175119400D01*
X128800000Y-175119400D01*
X128800000Y-168019400D01*
X129200000Y-168019400D01*
X129200000Y-175119400D01*
X130800000Y-175119400D01*
X130800000Y-168019400D01*
X131200000Y-168019400D01*
X131200000Y-175119400D01*
X132800000Y-175119400D01*
X132800000Y-168019400D01*
X133200000Y-168019400D01*
X133200000Y-175119400D01*
X134800000Y-175119400D01*
X134800000Y-168019400D01*
X135200000Y-168019400D01*
X135200000Y-175119400D01*
X136800000Y-175119400D01*
X136800000Y-168019400D01*
X137200000Y-168019400D01*
X137200000Y-175119400D01*
X138800000Y-175119400D01*
X138800000Y-168019400D01*
X139200000Y-168019400D01*
X139200000Y-175119400D01*
X140800000Y-175119400D01*
X140800000Y-168019400D01*
X141200000Y-168019400D01*
X141200000Y-175119400D01*
X142800000Y-175119400D01*
X142800000Y-168019400D01*
X143200000Y-168019400D01*
X143200000Y-175119400D01*
X144800000Y-175119400D01*
X144800000Y-168019400D01*
X145200000Y-168019400D01*
X145200000Y-175119400D01*
X146800000Y-175119400D01*
X146800000Y-168019400D01*
X147200000Y-168019400D01*
X147200000Y-175119400D01*
X148800000Y-175119400D01*
X148800000Y-168019400D01*
X149200000Y-168019400D01*
X149200000Y-175119400D01*
X150800000Y-175119400D01*
X150800000Y-168019400D01*
X151200000Y-168019400D01*
X151200000Y-175519400D01*
X98800000Y-175519400D01*
X98800000Y-168019400D01*
X99200000Y-168019400D01*
X99200000Y-175119400D01*
X100800000Y-175119400D01*
X100800000Y-168019400D01*
X101200000Y-168019400D01*
X101200000Y-175119400D01*
X102800000Y-175119400D01*
X102800000Y-168019400D01*
X103200000Y-168019400D01*
X103200000Y-175119400D01*
X104800000Y-175119400D01*
X104800000Y-168019400D01*
X105200000Y-168019400D01*
X105200000Y-175119400D01*
X106800000Y-175119400D01*
X106800000Y-168019400D01*
X107200000Y-168019400D01*
X107200000Y-175119400D01*
X108800000Y-175119400D01*
X108800000Y-168019400D01*
X109200000Y-168019400D01*
X109200000Y-175119400D01*
X110800000Y-175119400D01*
X110800000Y-168019400D01*
X111200000Y-168019400D01*
X111200000Y-175119400D01*
X112800000Y-175119400D01*
X112800000Y-168019400D01*
X113200000Y-168019400D01*
X113200000Y-175119400D01*
X114800000Y-175119400D01*
X114800000Y-168019400D01*
X115200000Y-168019400D01*
X115200000Y-175119400D01*
X116800000Y-175119400D01*
X116800000Y-168019400D01*
X117200000Y-168019400D01*
X117200000Y-175119400D01*
X118800000Y-175119400D01*
X118800000Y-168019400D01*
X119200000Y-168019400D01*
X119200000Y-175119400D01*
X120800000Y-175119400D01*
X120800000Y-168019400D01*
X121200000Y-168019400D01*
X121200000Y-175119400D01*
X122800000Y-175119400D01*
X122800000Y-168019400D01*
X123200000Y-168019400D01*
X123200000Y-175119400D01*
X124510609Y-175119400D01*
X124504392Y-175085528D01*
X124500305Y-175036850D01*
X124500987Y-174988005D01*
X124506432Y-174939459D01*
X124516588Y-174891677D01*
X124531359Y-174845114D01*
X124550603Y-174800214D01*
X124574137Y-174757407D01*
X124601735Y-174717100D01*
X124633135Y-174679679D01*
X124668037Y-174645501D01*
X124706107Y-174614892D01*
X124746983Y-174588143D01*
X124790274Y-174565511D01*
X124800000Y-174561582D01*
X124800000Y-167019400D01*
X125200000Y-167019400D01*
X125200000Y-174561740D01*
X125200000Y-174561740D01*
G37*
D15*
X151300000Y-167219400D03*
D16*
G36*
X151327911Y-166720180D02*
X151376493Y-166725286D01*
X151424345Y-166735108D01*
X151471010Y-166749554D01*
X151516043Y-166768484D01*
X151559014Y-166791718D01*
X151599512Y-166819034D01*
X151637151Y-166850172D01*
X151671572Y-166884835D01*
X151702447Y-166922691D01*
X151729480Y-166963379D01*
X151752414Y-167006510D01*
X151757727Y-167019400D01*
X151800000Y-167019400D01*
X151800000Y-167419400D01*
X151757619Y-167419400D01*
X151746293Y-167444839D01*
X151722164Y-167487313D01*
X151694005Y-167527231D01*
X151662086Y-167564210D01*
X151626710Y-167597898D01*
X151588216Y-167627972D01*
X151546971Y-167654147D01*
X151503368Y-167676173D01*
X151457825Y-167693838D01*
X151410774Y-167706975D01*
X151362667Y-167715457D01*
X151313961Y-167719205D01*
X151265122Y-167718182D01*
X151216616Y-167712398D01*
X151168905Y-167701908D01*
X151122447Y-167686813D01*
X151077682Y-167667256D01*
X151035040Y-167643424D01*
X150994927Y-167615545D01*
X150957726Y-167583884D01*
X150923793Y-167548745D01*
X150893450Y-167510461D01*
X150866987Y-167469400D01*
X150844658Y-167425952D01*
X150842064Y-167419400D01*
X150200000Y-167419400D01*
X150200000Y-174519400D01*
X149800000Y-174519400D01*
X149800000Y-167419400D01*
X148200000Y-167419400D01*
X148200000Y-174519400D01*
X147800000Y-174519400D01*
X147800000Y-167419400D01*
X146200000Y-167419400D01*
X146200000Y-174519400D01*
X145800000Y-174519400D01*
X145800000Y-167419400D01*
X144200000Y-167419400D01*
X144200000Y-174519400D01*
X143800000Y-174519400D01*
X143800000Y-167419400D01*
X142200000Y-167419400D01*
X142200000Y-174519400D01*
X141800000Y-174519400D01*
X141800000Y-167419400D01*
X140200000Y-167419400D01*
X140200000Y-174519400D01*
X139800000Y-174519400D01*
X139800000Y-167419400D01*
X138200000Y-167419400D01*
X138200000Y-174519400D01*
X137800000Y-174519400D01*
X137800000Y-167419400D01*
X136200000Y-167419400D01*
X136200000Y-174519400D01*
X135800000Y-174519400D01*
X135800000Y-167419400D01*
X134200000Y-167419400D01*
X134200000Y-174519400D01*
X133800000Y-174519400D01*
X133800000Y-167419400D01*
X132200000Y-167419400D01*
X132200000Y-174519400D01*
X131800000Y-174519400D01*
X131800000Y-167419400D01*
X130200000Y-167419400D01*
X130200000Y-174519400D01*
X129800000Y-174519400D01*
X129800000Y-167419400D01*
X128200000Y-167419400D01*
X128200000Y-174519400D01*
X127800000Y-174519400D01*
X127800000Y-167419400D01*
X126200000Y-167419400D01*
X126200000Y-174519400D01*
X125800000Y-174519400D01*
X125800000Y-167019400D01*
X150842380Y-167019400D01*
X150850603Y-167000214D01*
X150874137Y-166957407D01*
X150901735Y-166917100D01*
X150933135Y-166879679D01*
X150968037Y-166845501D01*
X151006107Y-166814892D01*
X151046983Y-166788143D01*
X151090274Y-166765511D01*
X151135567Y-166747212D01*
X151182429Y-166733419D01*
X151230413Y-166724266D01*
X151279062Y-166719839D01*
X151327911Y-166720180D01*
X151327911Y-166720180D01*
G37*
D15*
X98700000Y-167219400D03*
D16*
G36*
X98727911Y-166720180D02*
X98776493Y-166725286D01*
X98824345Y-166735108D01*
X98871010Y-166749554D01*
X98916043Y-166768484D01*
X98959014Y-166791718D01*
X98999512Y-166819034D01*
X99037151Y-166850172D01*
X99071572Y-166884835D01*
X99102447Y-166922691D01*
X99129480Y-166963379D01*
X99152414Y-167006510D01*
X99157727Y-167019400D01*
X124200000Y-167019400D01*
X124200000Y-174519400D01*
X123800000Y-174519400D01*
X123800000Y-167419400D01*
X122200000Y-167419400D01*
X122200000Y-174519400D01*
X121800000Y-174519400D01*
X121800000Y-167419400D01*
X120200000Y-167419400D01*
X120200000Y-174519400D01*
X119800000Y-174519400D01*
X119800000Y-167419400D01*
X118200000Y-167419400D01*
X118200000Y-174519400D01*
X117800000Y-174519400D01*
X117800000Y-167419400D01*
X116200000Y-167419400D01*
X116200000Y-174519400D01*
X115800000Y-174519400D01*
X115800000Y-167419400D01*
X114200000Y-167419400D01*
X114200000Y-174519400D01*
X113800000Y-174519400D01*
X113800000Y-167419400D01*
X112200000Y-167419400D01*
X112200000Y-174519400D01*
X111800000Y-174519400D01*
X111800000Y-167419400D01*
X110200000Y-167419400D01*
X110200000Y-174519400D01*
X109800000Y-174519400D01*
X109800000Y-167419400D01*
X108200000Y-167419400D01*
X108200000Y-174519400D01*
X107800000Y-174519400D01*
X107800000Y-167419400D01*
X106200000Y-167419400D01*
X106200000Y-174519400D01*
X105800000Y-174519400D01*
X105800000Y-167419400D01*
X104200000Y-167419400D01*
X104200000Y-174519400D01*
X103800000Y-174519400D01*
X103800000Y-167419400D01*
X102200000Y-167419400D01*
X102200000Y-174519400D01*
X101800000Y-174519400D01*
X101800000Y-167419400D01*
X100200000Y-167419400D01*
X100200000Y-174519400D01*
X99800000Y-174519400D01*
X99800000Y-167419400D01*
X99157619Y-167419400D01*
X99146293Y-167444839D01*
X99122164Y-167487313D01*
X99094005Y-167527231D01*
X99062086Y-167564210D01*
X99026710Y-167597898D01*
X98988216Y-167627972D01*
X98946971Y-167654147D01*
X98903368Y-167676173D01*
X98857825Y-167693838D01*
X98810774Y-167706975D01*
X98762667Y-167715457D01*
X98713961Y-167719205D01*
X98665122Y-167718182D01*
X98616616Y-167712398D01*
X98568905Y-167701908D01*
X98522447Y-167686813D01*
X98477682Y-167667256D01*
X98435040Y-167643424D01*
X98394927Y-167615545D01*
X98357726Y-167583884D01*
X98323793Y-167548745D01*
X98293450Y-167510461D01*
X98266987Y-167469400D01*
X98244658Y-167425952D01*
X98242064Y-167419400D01*
X98200000Y-167419400D01*
X98200000Y-167019400D01*
X98242380Y-167019400D01*
X98250603Y-167000214D01*
X98274137Y-166957407D01*
X98301735Y-166917100D01*
X98333135Y-166879679D01*
X98368037Y-166845501D01*
X98406107Y-166814892D01*
X98446983Y-166788143D01*
X98490274Y-166765511D01*
X98535567Y-166747212D01*
X98582429Y-166733419D01*
X98630413Y-166724266D01*
X98679062Y-166719839D01*
X98727911Y-166720180D01*
X98727911Y-166720180D01*
G37*
D15*
X98700000Y-144738800D03*
D16*
G36*
X98727911Y-144239580D02*
X98776493Y-144244686D01*
X98824345Y-144254508D01*
X98871010Y-144268954D01*
X98916043Y-144287884D01*
X98959014Y-144311118D01*
X98999512Y-144338434D01*
X99037151Y-144369572D01*
X99071572Y-144404235D01*
X99102447Y-144442091D01*
X99129480Y-144482779D01*
X99152414Y-144525910D01*
X99157727Y-144538800D01*
X124200000Y-144538800D01*
X124200000Y-152038800D01*
X123800000Y-152038800D01*
X123800000Y-144938800D01*
X122200000Y-144938800D01*
X122200000Y-152038800D01*
X121800000Y-152038800D01*
X121800000Y-144938800D01*
X120200000Y-144938800D01*
X120200000Y-152038800D01*
X119800000Y-152038800D01*
X119800000Y-144938800D01*
X118200000Y-144938800D01*
X118200000Y-152038800D01*
X117800000Y-152038800D01*
X117800000Y-144938800D01*
X116200000Y-144938800D01*
X116200000Y-152038800D01*
X115800000Y-152038800D01*
X115800000Y-144938800D01*
X114200000Y-144938800D01*
X114200000Y-152038800D01*
X113800000Y-152038800D01*
X113800000Y-144938800D01*
X112200000Y-144938800D01*
X112200000Y-152038800D01*
X111800000Y-152038800D01*
X111800000Y-144938800D01*
X110200000Y-144938800D01*
X110200000Y-152038800D01*
X109800000Y-152038800D01*
X109800000Y-144938800D01*
X108200000Y-144938800D01*
X108200000Y-152038800D01*
X107800000Y-152038800D01*
X107800000Y-144938800D01*
X106200000Y-144938800D01*
X106200000Y-152038800D01*
X105800000Y-152038800D01*
X105800000Y-144938800D01*
X104200000Y-144938800D01*
X104200000Y-152038800D01*
X103800000Y-152038800D01*
X103800000Y-144938800D01*
X102200000Y-144938800D01*
X102200000Y-152038800D01*
X101800000Y-152038800D01*
X101800000Y-144938800D01*
X100200000Y-144938800D01*
X100200000Y-152038800D01*
X99800000Y-152038800D01*
X99800000Y-144938800D01*
X99157619Y-144938800D01*
X99146293Y-144964239D01*
X99122164Y-145006713D01*
X99094005Y-145046631D01*
X99062086Y-145083610D01*
X99026710Y-145117298D01*
X98988216Y-145147372D01*
X98946971Y-145173547D01*
X98903368Y-145195573D01*
X98857825Y-145213238D01*
X98810774Y-145226375D01*
X98762667Y-145234857D01*
X98713961Y-145238605D01*
X98665122Y-145237582D01*
X98616616Y-145231798D01*
X98568905Y-145221308D01*
X98522447Y-145206213D01*
X98477682Y-145186656D01*
X98435040Y-145162824D01*
X98394927Y-145134945D01*
X98357726Y-145103284D01*
X98323793Y-145068145D01*
X98293450Y-145029861D01*
X98266987Y-144988800D01*
X98244658Y-144945352D01*
X98242064Y-144938800D01*
X98200000Y-144938800D01*
X98200000Y-144538800D01*
X98242380Y-144538800D01*
X98250603Y-144519614D01*
X98274137Y-144476807D01*
X98301735Y-144436500D01*
X98333135Y-144399079D01*
X98368037Y-144364901D01*
X98406107Y-144334292D01*
X98446983Y-144307543D01*
X98490274Y-144284911D01*
X98535567Y-144266612D01*
X98582429Y-144252819D01*
X98630413Y-144243666D01*
X98679062Y-144239239D01*
X98727911Y-144239580D01*
X98727911Y-144239580D01*
G37*
D15*
X151300000Y-144738800D03*
D16*
G36*
X151327911Y-144239580D02*
X151376493Y-144244686D01*
X151424345Y-144254508D01*
X151471010Y-144268954D01*
X151516043Y-144287884D01*
X151559014Y-144311118D01*
X151599512Y-144338434D01*
X151637151Y-144369572D01*
X151671572Y-144404235D01*
X151702447Y-144442091D01*
X151729480Y-144482779D01*
X151752414Y-144525910D01*
X151757727Y-144538800D01*
X151800000Y-144538800D01*
X151800000Y-144938800D01*
X151757619Y-144938800D01*
X151746293Y-144964239D01*
X151722164Y-145006713D01*
X151694005Y-145046631D01*
X151662086Y-145083610D01*
X151626710Y-145117298D01*
X151588216Y-145147372D01*
X151546971Y-145173547D01*
X151503368Y-145195573D01*
X151457825Y-145213238D01*
X151410774Y-145226375D01*
X151362667Y-145234857D01*
X151313961Y-145238605D01*
X151265122Y-145237582D01*
X151216616Y-145231798D01*
X151168905Y-145221308D01*
X151122447Y-145206213D01*
X151077682Y-145186656D01*
X151035040Y-145162824D01*
X150994927Y-145134945D01*
X150957726Y-145103284D01*
X150923793Y-145068145D01*
X150893450Y-145029861D01*
X150866987Y-144988800D01*
X150844658Y-144945352D01*
X150842064Y-144938800D01*
X150200000Y-144938800D01*
X150200000Y-152038800D01*
X149800000Y-152038800D01*
X149800000Y-144938800D01*
X148200000Y-144938800D01*
X148200000Y-152038800D01*
X147800000Y-152038800D01*
X147800000Y-144938800D01*
X146200000Y-144938800D01*
X146200000Y-152038800D01*
X145800000Y-152038800D01*
X145800000Y-144938800D01*
X144200000Y-144938800D01*
X144200000Y-152038800D01*
X143800000Y-152038800D01*
X143800000Y-144938800D01*
X142200000Y-144938800D01*
X142200000Y-152038800D01*
X141800000Y-152038800D01*
X141800000Y-144938800D01*
X140200000Y-144938800D01*
X140200000Y-152038800D01*
X139800000Y-152038800D01*
X139800000Y-144938800D01*
X138200000Y-144938800D01*
X138200000Y-152038800D01*
X137800000Y-152038800D01*
X137800000Y-144938800D01*
X136200000Y-144938800D01*
X136200000Y-152038800D01*
X135800000Y-152038800D01*
X135800000Y-144938800D01*
X134200000Y-144938800D01*
X134200000Y-152038800D01*
X133800000Y-152038800D01*
X133800000Y-144938800D01*
X132200000Y-144938800D01*
X132200000Y-152038800D01*
X131800000Y-152038800D01*
X131800000Y-144938800D01*
X130200000Y-144938800D01*
X130200000Y-152038800D01*
X129800000Y-152038800D01*
X129800000Y-144938800D01*
X128200000Y-144938800D01*
X128200000Y-152038800D01*
X127800000Y-152038800D01*
X127800000Y-144938800D01*
X126200000Y-144938800D01*
X126200000Y-152038800D01*
X125800000Y-152038800D01*
X125800000Y-144538800D01*
X150842380Y-144538800D01*
X150850603Y-144519614D01*
X150874137Y-144476807D01*
X150901735Y-144436500D01*
X150933135Y-144399079D01*
X150968037Y-144364901D01*
X151006107Y-144334292D01*
X151046983Y-144307543D01*
X151090274Y-144284911D01*
X151135567Y-144266612D01*
X151182429Y-144252819D01*
X151230413Y-144243666D01*
X151279062Y-144239239D01*
X151327911Y-144239580D01*
X151327911Y-144239580D01*
G37*
D15*
X125000000Y-152538800D03*
D16*
G36*
X125200000Y-152081140D02*
X125216043Y-152087884D01*
X125259014Y-152111118D01*
X125299512Y-152138434D01*
X125337151Y-152169572D01*
X125371572Y-152204235D01*
X125402447Y-152242091D01*
X125429480Y-152282779D01*
X125452414Y-152325910D01*
X125471029Y-152371074D01*
X125485148Y-152417839D01*
X125494636Y-152465758D01*
X125499403Y-152514375D01*
X125498526Y-152577160D01*
X125492404Y-152625624D01*
X125489410Y-152638800D01*
X126800000Y-152638800D01*
X126800000Y-145538800D01*
X127200000Y-145538800D01*
X127200000Y-152638800D01*
X128800000Y-152638800D01*
X128800000Y-145538800D01*
X129200000Y-145538800D01*
X129200000Y-152638800D01*
X130800000Y-152638800D01*
X130800000Y-145538800D01*
X131200000Y-145538800D01*
X131200000Y-152638800D01*
X132800000Y-152638800D01*
X132800000Y-145538800D01*
X133200000Y-145538800D01*
X133200000Y-152638800D01*
X134800000Y-152638800D01*
X134800000Y-145538800D01*
X135200000Y-145538800D01*
X135200000Y-152638800D01*
X136800000Y-152638800D01*
X136800000Y-145538800D01*
X137200000Y-145538800D01*
X137200000Y-152638800D01*
X138800000Y-152638800D01*
X138800000Y-145538800D01*
X139200000Y-145538800D01*
X139200000Y-152638800D01*
X140800000Y-152638800D01*
X140800000Y-145538800D01*
X141200000Y-145538800D01*
X141200000Y-152638800D01*
X142800000Y-152638800D01*
X142800000Y-145538800D01*
X143200000Y-145538800D01*
X143200000Y-152638800D01*
X144800000Y-152638800D01*
X144800000Y-145538800D01*
X145200000Y-145538800D01*
X145200000Y-152638800D01*
X146800000Y-152638800D01*
X146800000Y-145538800D01*
X147200000Y-145538800D01*
X147200000Y-152638800D01*
X148800000Y-152638800D01*
X148800000Y-145538800D01*
X149200000Y-145538800D01*
X149200000Y-152638800D01*
X150800000Y-152638800D01*
X150800000Y-145538800D01*
X151200000Y-145538800D01*
X151200000Y-153038800D01*
X98800000Y-153038800D01*
X98800000Y-145538800D01*
X99200000Y-145538800D01*
X99200000Y-152638800D01*
X100800000Y-152638800D01*
X100800000Y-145538800D01*
X101200000Y-145538800D01*
X101200000Y-152638800D01*
X102800000Y-152638800D01*
X102800000Y-145538800D01*
X103200000Y-145538800D01*
X103200000Y-152638800D01*
X104800000Y-152638800D01*
X104800000Y-145538800D01*
X105200000Y-145538800D01*
X105200000Y-152638800D01*
X106800000Y-152638800D01*
X106800000Y-145538800D01*
X107200000Y-145538800D01*
X107200000Y-152638800D01*
X108800000Y-152638800D01*
X108800000Y-145538800D01*
X109200000Y-145538800D01*
X109200000Y-152638800D01*
X110800000Y-152638800D01*
X110800000Y-145538800D01*
X111200000Y-145538800D01*
X111200000Y-152638800D01*
X112800000Y-152638800D01*
X112800000Y-145538800D01*
X113200000Y-145538800D01*
X113200000Y-152638800D01*
X114800000Y-152638800D01*
X114800000Y-145538800D01*
X115200000Y-145538800D01*
X115200000Y-152638800D01*
X116800000Y-152638800D01*
X116800000Y-145538800D01*
X117200000Y-145538800D01*
X117200000Y-152638800D01*
X118800000Y-152638800D01*
X118800000Y-145538800D01*
X119200000Y-145538800D01*
X119200000Y-152638800D01*
X120800000Y-152638800D01*
X120800000Y-145538800D01*
X121200000Y-145538800D01*
X121200000Y-152638800D01*
X122800000Y-152638800D01*
X122800000Y-145538800D01*
X123200000Y-145538800D01*
X123200000Y-152638800D01*
X124510609Y-152638800D01*
X124504392Y-152604928D01*
X124500305Y-152556250D01*
X124500987Y-152507405D01*
X124506432Y-152458859D01*
X124516588Y-152411077D01*
X124531359Y-152364514D01*
X124550603Y-152319614D01*
X124574137Y-152276807D01*
X124601735Y-152236500D01*
X124633135Y-152199079D01*
X124668037Y-152164901D01*
X124706107Y-152134292D01*
X124746983Y-152107543D01*
X124790274Y-152084911D01*
X124800000Y-152080982D01*
X124800000Y-144538800D01*
X125200000Y-144538800D01*
X125200000Y-152081140D01*
X125200000Y-152081140D01*
G37*
D15*
X125000000Y-130058200D03*
D16*
G36*
X125200000Y-129600540D02*
X125216043Y-129607284D01*
X125259014Y-129630518D01*
X125299512Y-129657834D01*
X125337151Y-129688972D01*
X125371572Y-129723635D01*
X125402447Y-129761491D01*
X125429480Y-129802179D01*
X125452414Y-129845310D01*
X125471029Y-129890474D01*
X125485148Y-129937239D01*
X125494636Y-129985158D01*
X125499403Y-130033775D01*
X125498526Y-130096560D01*
X125492404Y-130145024D01*
X125489410Y-130158200D01*
X126800000Y-130158200D01*
X126800000Y-123058200D01*
X127200000Y-123058200D01*
X127200000Y-130158200D01*
X128800000Y-130158200D01*
X128800000Y-123058200D01*
X129200000Y-123058200D01*
X129200000Y-130158200D01*
X130800000Y-130158200D01*
X130800000Y-123058200D01*
X131200000Y-123058200D01*
X131200000Y-130158200D01*
X132800000Y-130158200D01*
X132800000Y-123058200D01*
X133200000Y-123058200D01*
X133200000Y-130158200D01*
X134800000Y-130158200D01*
X134800000Y-123058200D01*
X135200000Y-123058200D01*
X135200000Y-130158200D01*
X136800000Y-130158200D01*
X136800000Y-123058200D01*
X137200000Y-123058200D01*
X137200000Y-130158200D01*
X138800000Y-130158200D01*
X138800000Y-123058200D01*
X139200000Y-123058200D01*
X139200000Y-130158200D01*
X140800000Y-130158200D01*
X140800000Y-123058200D01*
X141200000Y-123058200D01*
X141200000Y-130158200D01*
X142800000Y-130158200D01*
X142800000Y-123058200D01*
X143200000Y-123058200D01*
X143200000Y-130158200D01*
X144800000Y-130158200D01*
X144800000Y-123058200D01*
X145200000Y-123058200D01*
X145200000Y-130158200D01*
X146800000Y-130158200D01*
X146800000Y-123058200D01*
X147200000Y-123058200D01*
X147200000Y-130158200D01*
X148800000Y-130158200D01*
X148800000Y-123058200D01*
X149200000Y-123058200D01*
X149200000Y-130158200D01*
X150800000Y-130158200D01*
X150800000Y-123058200D01*
X151200000Y-123058200D01*
X151200000Y-130558200D01*
X98800000Y-130558200D01*
X98800000Y-123058200D01*
X99200000Y-123058200D01*
X99200000Y-130158200D01*
X100800000Y-130158200D01*
X100800000Y-123058200D01*
X101200000Y-123058200D01*
X101200000Y-130158200D01*
X102800000Y-130158200D01*
X102800000Y-123058200D01*
X103200000Y-123058200D01*
X103200000Y-130158200D01*
X104800000Y-130158200D01*
X104800000Y-123058200D01*
X105200000Y-123058200D01*
X105200000Y-130158200D01*
X106800000Y-130158200D01*
X106800000Y-123058200D01*
X107200000Y-123058200D01*
X107200000Y-130158200D01*
X108800000Y-130158200D01*
X108800000Y-123058200D01*
X109200000Y-123058200D01*
X109200000Y-130158200D01*
X110800000Y-130158200D01*
X110800000Y-123058200D01*
X111200000Y-123058200D01*
X111200000Y-130158200D01*
X112800000Y-130158200D01*
X112800000Y-123058200D01*
X113200000Y-123058200D01*
X113200000Y-130158200D01*
X114800000Y-130158200D01*
X114800000Y-123058200D01*
X115200000Y-123058200D01*
X115200000Y-130158200D01*
X116800000Y-130158200D01*
X116800000Y-123058200D01*
X117200000Y-123058200D01*
X117200000Y-130158200D01*
X118800000Y-130158200D01*
X118800000Y-123058200D01*
X119200000Y-123058200D01*
X119200000Y-130158200D01*
X120800000Y-130158200D01*
X120800000Y-123058200D01*
X121200000Y-123058200D01*
X121200000Y-130158200D01*
X122800000Y-130158200D01*
X122800000Y-123058200D01*
X123200000Y-123058200D01*
X123200000Y-130158200D01*
X124510609Y-130158200D01*
X124504392Y-130124328D01*
X124500305Y-130075650D01*
X124500987Y-130026805D01*
X124506432Y-129978259D01*
X124516588Y-129930477D01*
X124531359Y-129883914D01*
X124550603Y-129839014D01*
X124574137Y-129796207D01*
X124601735Y-129755900D01*
X124633135Y-129718479D01*
X124668037Y-129684301D01*
X124706107Y-129653692D01*
X124746983Y-129626943D01*
X124790274Y-129604311D01*
X124800000Y-129600382D01*
X124800000Y-122058200D01*
X125200000Y-122058200D01*
X125200000Y-129600540D01*
X125200000Y-129600540D01*
G37*
D15*
X151300000Y-122258200D03*
D16*
G36*
X151327911Y-121758980D02*
X151376493Y-121764086D01*
X151424345Y-121773908D01*
X151471010Y-121788354D01*
X151516043Y-121807284D01*
X151559014Y-121830518D01*
X151599512Y-121857834D01*
X151637151Y-121888972D01*
X151671572Y-121923635D01*
X151702447Y-121961491D01*
X151729480Y-122002179D01*
X151752414Y-122045310D01*
X151757727Y-122058200D01*
X151800000Y-122058200D01*
X151800000Y-122458200D01*
X151757619Y-122458200D01*
X151746293Y-122483639D01*
X151722164Y-122526113D01*
X151694005Y-122566031D01*
X151662086Y-122603010D01*
X151626710Y-122636698D01*
X151588216Y-122666772D01*
X151546971Y-122692947D01*
X151503368Y-122714973D01*
X151457825Y-122732638D01*
X151410774Y-122745775D01*
X151362667Y-122754257D01*
X151313961Y-122758005D01*
X151265122Y-122756982D01*
X151216616Y-122751198D01*
X151168905Y-122740708D01*
X151122447Y-122725613D01*
X151077682Y-122706056D01*
X151035040Y-122682224D01*
X150994927Y-122654345D01*
X150957726Y-122622684D01*
X150923793Y-122587545D01*
X150893450Y-122549261D01*
X150866987Y-122508200D01*
X150844658Y-122464752D01*
X150842064Y-122458200D01*
X150200000Y-122458200D01*
X150200000Y-129558200D01*
X149800000Y-129558200D01*
X149800000Y-122458200D01*
X148200000Y-122458200D01*
X148200000Y-129558200D01*
X147800000Y-129558200D01*
X147800000Y-122458200D01*
X146200000Y-122458200D01*
X146200000Y-129558200D01*
X145800000Y-129558200D01*
X145800000Y-122458200D01*
X144200000Y-122458200D01*
X144200000Y-129558200D01*
X143800000Y-129558200D01*
X143800000Y-122458200D01*
X142200000Y-122458200D01*
X142200000Y-129558200D01*
X141800000Y-129558200D01*
X141800000Y-122458200D01*
X140200000Y-122458200D01*
X140200000Y-129558200D01*
X139800000Y-129558200D01*
X139800000Y-122458200D01*
X138200000Y-122458200D01*
X138200000Y-129558200D01*
X137800000Y-129558200D01*
X137800000Y-122458200D01*
X136200000Y-122458200D01*
X136200000Y-129558200D01*
X135800000Y-129558200D01*
X135800000Y-122458200D01*
X134200000Y-122458200D01*
X134200000Y-129558200D01*
X133800000Y-129558200D01*
X133800000Y-122458200D01*
X132200000Y-122458200D01*
X132200000Y-129558200D01*
X131800000Y-129558200D01*
X131800000Y-122458200D01*
X130200000Y-122458200D01*
X130200000Y-129558200D01*
X129800000Y-129558200D01*
X129800000Y-122458200D01*
X128200000Y-122458200D01*
X128200000Y-129558200D01*
X127800000Y-129558200D01*
X127800000Y-122458200D01*
X126200000Y-122458200D01*
X126200000Y-129558200D01*
X125800000Y-129558200D01*
X125800000Y-122058200D01*
X150842380Y-122058200D01*
X150850603Y-122039014D01*
X150874137Y-121996207D01*
X150901735Y-121955900D01*
X150933135Y-121918479D01*
X150968037Y-121884301D01*
X151006107Y-121853692D01*
X151046983Y-121826943D01*
X151090274Y-121804311D01*
X151135567Y-121786012D01*
X151182429Y-121772219D01*
X151230413Y-121763066D01*
X151279062Y-121758639D01*
X151327911Y-121758980D01*
X151327911Y-121758980D01*
G37*
D15*
X98700000Y-122258200D03*
D16*
G36*
X98727911Y-121758980D02*
X98776493Y-121764086D01*
X98824345Y-121773908D01*
X98871010Y-121788354D01*
X98916043Y-121807284D01*
X98959014Y-121830518D01*
X98999512Y-121857834D01*
X99037151Y-121888972D01*
X99071572Y-121923635D01*
X99102447Y-121961491D01*
X99129480Y-122002179D01*
X99152414Y-122045310D01*
X99157727Y-122058200D01*
X124200000Y-122058200D01*
X124200000Y-129558200D01*
X123800000Y-129558200D01*
X123800000Y-122458200D01*
X122200000Y-122458200D01*
X122200000Y-129558200D01*
X121800000Y-129558200D01*
X121800000Y-122458200D01*
X120200000Y-122458200D01*
X120200000Y-129558200D01*
X119800000Y-129558200D01*
X119800000Y-122458200D01*
X118200000Y-122458200D01*
X118200000Y-129558200D01*
X117800000Y-129558200D01*
X117800000Y-122458200D01*
X116200000Y-122458200D01*
X116200000Y-129558200D01*
X115800000Y-129558200D01*
X115800000Y-122458200D01*
X114200000Y-122458200D01*
X114200000Y-129558200D01*
X113800000Y-129558200D01*
X113800000Y-122458200D01*
X112200000Y-122458200D01*
X112200000Y-129558200D01*
X111800000Y-129558200D01*
X111800000Y-122458200D01*
X110200000Y-122458200D01*
X110200000Y-129558200D01*
X109800000Y-129558200D01*
X109800000Y-122458200D01*
X108200000Y-122458200D01*
X108200000Y-129558200D01*
X107800000Y-129558200D01*
X107800000Y-122458200D01*
X106200000Y-122458200D01*
X106200000Y-129558200D01*
X105800000Y-129558200D01*
X105800000Y-122458200D01*
X104200000Y-122458200D01*
X104200000Y-129558200D01*
X103800000Y-129558200D01*
X103800000Y-122458200D01*
X102200000Y-122458200D01*
X102200000Y-129558200D01*
X101800000Y-129558200D01*
X101800000Y-122458200D01*
X100200000Y-122458200D01*
X100200000Y-129558200D01*
X99800000Y-129558200D01*
X99800000Y-122458200D01*
X99157619Y-122458200D01*
X99146293Y-122483639D01*
X99122164Y-122526113D01*
X99094005Y-122566031D01*
X99062086Y-122603010D01*
X99026710Y-122636698D01*
X98988216Y-122666772D01*
X98946971Y-122692947D01*
X98903368Y-122714973D01*
X98857825Y-122732638D01*
X98810774Y-122745775D01*
X98762667Y-122754257D01*
X98713961Y-122758005D01*
X98665122Y-122756982D01*
X98616616Y-122751198D01*
X98568905Y-122740708D01*
X98522447Y-122725613D01*
X98477682Y-122706056D01*
X98435040Y-122682224D01*
X98394927Y-122654345D01*
X98357726Y-122622684D01*
X98323793Y-122587545D01*
X98293450Y-122549261D01*
X98266987Y-122508200D01*
X98244658Y-122464752D01*
X98242064Y-122458200D01*
X98200000Y-122458200D01*
X98200000Y-122058200D01*
X98242380Y-122058200D01*
X98250603Y-122039014D01*
X98274137Y-121996207D01*
X98301735Y-121955900D01*
X98333135Y-121918479D01*
X98368037Y-121884301D01*
X98406107Y-121853692D01*
X98446983Y-121826943D01*
X98490274Y-121804311D01*
X98535567Y-121786012D01*
X98582429Y-121772219D01*
X98630413Y-121763066D01*
X98679062Y-121758639D01*
X98727911Y-121758980D01*
X98727911Y-121758980D01*
G37*
D15*
X98700000Y-99777600D03*
D16*
G36*
X98727911Y-99278380D02*
X98776493Y-99283486D01*
X98824345Y-99293308D01*
X98871010Y-99307754D01*
X98916043Y-99326684D01*
X98959014Y-99349918D01*
X98999512Y-99377234D01*
X99037151Y-99408372D01*
X99071572Y-99443035D01*
X99102447Y-99480891D01*
X99129480Y-99521579D01*
X99152414Y-99564710D01*
X99157727Y-99577600D01*
X124200000Y-99577600D01*
X124200000Y-107077600D01*
X123800000Y-107077600D01*
X123800000Y-99977600D01*
X122200000Y-99977600D01*
X122200000Y-107077600D01*
X121800000Y-107077600D01*
X121800000Y-99977600D01*
X120200000Y-99977600D01*
X120200000Y-107077600D01*
X119800000Y-107077600D01*
X119800000Y-99977600D01*
X118200000Y-99977600D01*
X118200000Y-107077600D01*
X117800000Y-107077600D01*
X117800000Y-99977600D01*
X116200000Y-99977600D01*
X116200000Y-107077600D01*
X115800000Y-107077600D01*
X115800000Y-99977600D01*
X114200000Y-99977600D01*
X114200000Y-107077600D01*
X113800000Y-107077600D01*
X113800000Y-99977600D01*
X112200000Y-99977600D01*
X112200000Y-107077600D01*
X111800000Y-107077600D01*
X111800000Y-99977600D01*
X110200000Y-99977600D01*
X110200000Y-107077600D01*
X109800000Y-107077600D01*
X109800000Y-99977600D01*
X108200000Y-99977600D01*
X108200000Y-107077600D01*
X107800000Y-107077600D01*
X107800000Y-99977600D01*
X106200000Y-99977600D01*
X106200000Y-107077600D01*
X105800000Y-107077600D01*
X105800000Y-99977600D01*
X104200000Y-99977600D01*
X104200000Y-107077600D01*
X103800000Y-107077600D01*
X103800000Y-99977600D01*
X102200000Y-99977600D01*
X102200000Y-107077600D01*
X101800000Y-107077600D01*
X101800000Y-99977600D01*
X100200000Y-99977600D01*
X100200000Y-107077600D01*
X99800000Y-107077600D01*
X99800000Y-99977600D01*
X99157619Y-99977600D01*
X99146293Y-100003039D01*
X99122164Y-100045513D01*
X99094005Y-100085431D01*
X99062086Y-100122410D01*
X99026710Y-100156098D01*
X98988216Y-100186172D01*
X98946971Y-100212347D01*
X98903368Y-100234373D01*
X98857825Y-100252038D01*
X98810774Y-100265175D01*
X98762667Y-100273657D01*
X98713961Y-100277405D01*
X98665122Y-100276382D01*
X98616616Y-100270598D01*
X98568905Y-100260108D01*
X98522447Y-100245013D01*
X98477682Y-100225456D01*
X98435040Y-100201624D01*
X98394927Y-100173745D01*
X98357726Y-100142084D01*
X98323793Y-100106945D01*
X98293450Y-100068661D01*
X98266987Y-100027600D01*
X98244658Y-99984152D01*
X98242064Y-99977600D01*
X98200000Y-99977600D01*
X98200000Y-99577600D01*
X98242380Y-99577600D01*
X98250603Y-99558414D01*
X98274137Y-99515607D01*
X98301735Y-99475300D01*
X98333135Y-99437879D01*
X98368037Y-99403701D01*
X98406107Y-99373092D01*
X98446983Y-99346343D01*
X98490274Y-99323711D01*
X98535567Y-99305412D01*
X98582429Y-99291619D01*
X98630413Y-99282466D01*
X98679062Y-99278039D01*
X98727911Y-99278380D01*
X98727911Y-99278380D01*
G37*
D15*
X151300000Y-99777600D03*
D16*
G36*
X151327911Y-99278380D02*
X151376493Y-99283486D01*
X151424345Y-99293308D01*
X151471010Y-99307754D01*
X151516043Y-99326684D01*
X151559014Y-99349918D01*
X151599512Y-99377234D01*
X151637151Y-99408372D01*
X151671572Y-99443035D01*
X151702447Y-99480891D01*
X151729480Y-99521579D01*
X151752414Y-99564710D01*
X151757727Y-99577600D01*
X151800000Y-99577600D01*
X151800000Y-99977600D01*
X151757619Y-99977600D01*
X151746293Y-100003039D01*
X151722164Y-100045513D01*
X151694005Y-100085431D01*
X151662086Y-100122410D01*
X151626710Y-100156098D01*
X151588216Y-100186172D01*
X151546971Y-100212347D01*
X151503368Y-100234373D01*
X151457825Y-100252038D01*
X151410774Y-100265175D01*
X151362667Y-100273657D01*
X151313961Y-100277405D01*
X151265122Y-100276382D01*
X151216616Y-100270598D01*
X151168905Y-100260108D01*
X151122447Y-100245013D01*
X151077682Y-100225456D01*
X151035040Y-100201624D01*
X150994927Y-100173745D01*
X150957726Y-100142084D01*
X150923793Y-100106945D01*
X150893450Y-100068661D01*
X150866987Y-100027600D01*
X150844658Y-99984152D01*
X150842064Y-99977600D01*
X150200000Y-99977600D01*
X150200000Y-107077600D01*
X149800000Y-107077600D01*
X149800000Y-99977600D01*
X148200000Y-99977600D01*
X148200000Y-107077600D01*
X147800000Y-107077600D01*
X147800000Y-99977600D01*
X146200000Y-99977600D01*
X146200000Y-107077600D01*
X145800000Y-107077600D01*
X145800000Y-99977600D01*
X144200000Y-99977600D01*
X144200000Y-107077600D01*
X143800000Y-107077600D01*
X143800000Y-99977600D01*
X142200000Y-99977600D01*
X142200000Y-107077600D01*
X141800000Y-107077600D01*
X141800000Y-99977600D01*
X140200000Y-99977600D01*
X140200000Y-107077600D01*
X139800000Y-107077600D01*
X139800000Y-99977600D01*
X138200000Y-99977600D01*
X138200000Y-107077600D01*
X137800000Y-107077600D01*
X137800000Y-99977600D01*
X136200000Y-99977600D01*
X136200000Y-107077600D01*
X135800000Y-107077600D01*
X135800000Y-99977600D01*
X134200000Y-99977600D01*
X134200000Y-107077600D01*
X133800000Y-107077600D01*
X133800000Y-99977600D01*
X132200000Y-99977600D01*
X132200000Y-107077600D01*
X131800000Y-107077600D01*
X131800000Y-99977600D01*
X130200000Y-99977600D01*
X130200000Y-107077600D01*
X129800000Y-107077600D01*
X129800000Y-99977600D01*
X128200000Y-99977600D01*
X128200000Y-107077600D01*
X127800000Y-107077600D01*
X127800000Y-99977600D01*
X126200000Y-99977600D01*
X126200000Y-107077600D01*
X125800000Y-107077600D01*
X125800000Y-99577600D01*
X150842380Y-99577600D01*
X150850603Y-99558414D01*
X150874137Y-99515607D01*
X150901735Y-99475300D01*
X150933135Y-99437879D01*
X150968037Y-99403701D01*
X151006107Y-99373092D01*
X151046983Y-99346343D01*
X151090274Y-99323711D01*
X151135567Y-99305412D01*
X151182429Y-99291619D01*
X151230413Y-99282466D01*
X151279062Y-99278039D01*
X151327911Y-99278380D01*
X151327911Y-99278380D01*
G37*
D15*
X125000000Y-107577600D03*
D16*
G36*
X125200000Y-107119940D02*
X125216043Y-107126684D01*
X125259014Y-107149918D01*
X125299512Y-107177234D01*
X125337151Y-107208372D01*
X125371572Y-107243035D01*
X125402447Y-107280891D01*
X125429480Y-107321579D01*
X125452414Y-107364710D01*
X125471029Y-107409874D01*
X125485148Y-107456639D01*
X125494636Y-107504558D01*
X125499403Y-107553175D01*
X125498526Y-107615960D01*
X125492404Y-107664424D01*
X125489410Y-107677600D01*
X126800000Y-107677600D01*
X126800000Y-100577600D01*
X127200000Y-100577600D01*
X127200000Y-107677600D01*
X128800000Y-107677600D01*
X128800000Y-100577600D01*
X129200000Y-100577600D01*
X129200000Y-107677600D01*
X130800000Y-107677600D01*
X130800000Y-100577600D01*
X131200000Y-100577600D01*
X131200000Y-107677600D01*
X132800000Y-107677600D01*
X132800000Y-100577600D01*
X133200000Y-100577600D01*
X133200000Y-107677600D01*
X134800000Y-107677600D01*
X134800000Y-100577600D01*
X135200000Y-100577600D01*
X135200000Y-107677600D01*
X136800000Y-107677600D01*
X136800000Y-100577600D01*
X137200000Y-100577600D01*
X137200000Y-107677600D01*
X138800000Y-107677600D01*
X138800000Y-100577600D01*
X139200000Y-100577600D01*
X139200000Y-107677600D01*
X140800000Y-107677600D01*
X140800000Y-100577600D01*
X141200000Y-100577600D01*
X141200000Y-107677600D01*
X142800000Y-107677600D01*
X142800000Y-100577600D01*
X143200000Y-100577600D01*
X143200000Y-107677600D01*
X144800000Y-107677600D01*
X144800000Y-100577600D01*
X145200000Y-100577600D01*
X145200000Y-107677600D01*
X146800000Y-107677600D01*
X146800000Y-100577600D01*
X147200000Y-100577600D01*
X147200000Y-107677600D01*
X148800000Y-107677600D01*
X148800000Y-100577600D01*
X149200000Y-100577600D01*
X149200000Y-107677600D01*
X150800000Y-107677600D01*
X150800000Y-100577600D01*
X151200000Y-100577600D01*
X151200000Y-108077600D01*
X98800000Y-108077600D01*
X98800000Y-100577600D01*
X99200000Y-100577600D01*
X99200000Y-107677600D01*
X100800000Y-107677600D01*
X100800000Y-100577600D01*
X101200000Y-100577600D01*
X101200000Y-107677600D01*
X102800000Y-107677600D01*
X102800000Y-100577600D01*
X103200000Y-100577600D01*
X103200000Y-107677600D01*
X104800000Y-107677600D01*
X104800000Y-100577600D01*
X105200000Y-100577600D01*
X105200000Y-107677600D01*
X106800000Y-107677600D01*
X106800000Y-100577600D01*
X107200000Y-100577600D01*
X107200000Y-107677600D01*
X108800000Y-107677600D01*
X108800000Y-100577600D01*
X109200000Y-100577600D01*
X109200000Y-107677600D01*
X110800000Y-107677600D01*
X110800000Y-100577600D01*
X111200000Y-100577600D01*
X111200000Y-107677600D01*
X112800000Y-107677600D01*
X112800000Y-100577600D01*
X113200000Y-100577600D01*
X113200000Y-107677600D01*
X114800000Y-107677600D01*
X114800000Y-100577600D01*
X115200000Y-100577600D01*
X115200000Y-107677600D01*
X116800000Y-107677600D01*
X116800000Y-100577600D01*
X117200000Y-100577600D01*
X117200000Y-107677600D01*
X118800000Y-107677600D01*
X118800000Y-100577600D01*
X119200000Y-100577600D01*
X119200000Y-107677600D01*
X120800000Y-107677600D01*
X120800000Y-100577600D01*
X121200000Y-100577600D01*
X121200000Y-107677600D01*
X122800000Y-107677600D01*
X122800000Y-100577600D01*
X123200000Y-100577600D01*
X123200000Y-107677600D01*
X124510609Y-107677600D01*
X124504392Y-107643728D01*
X124500305Y-107595050D01*
X124500987Y-107546205D01*
X124506432Y-107497659D01*
X124516588Y-107449877D01*
X124531359Y-107403314D01*
X124550603Y-107358414D01*
X124574137Y-107315607D01*
X124601735Y-107275300D01*
X124633135Y-107237879D01*
X124668037Y-107203701D01*
X124706107Y-107173092D01*
X124746983Y-107146343D01*
X124790274Y-107123711D01*
X124800000Y-107119782D01*
X124800000Y-99577600D01*
X125200000Y-99577600D01*
X125200000Y-107119940D01*
X125200000Y-107119940D01*
G37*
D15*
X98700000Y-77297000D03*
D16*
G36*
X98727911Y-76797780D02*
X98776493Y-76802886D01*
X98824345Y-76812708D01*
X98871010Y-76827154D01*
X98916043Y-76846084D01*
X98959014Y-76869318D01*
X98999512Y-76896634D01*
X99037151Y-76927772D01*
X99071572Y-76962435D01*
X99102447Y-77000291D01*
X99129480Y-77040979D01*
X99152414Y-77084110D01*
X99157727Y-77097000D01*
X124200000Y-77097000D01*
X124200000Y-84597000D01*
X123800000Y-84597000D01*
X123800000Y-77497000D01*
X122200000Y-77497000D01*
X122200000Y-84597000D01*
X121800000Y-84597000D01*
X121800000Y-77497000D01*
X120200000Y-77497000D01*
X120200000Y-84597000D01*
X119800000Y-84597000D01*
X119800000Y-77497000D01*
X118200000Y-77497000D01*
X118200000Y-84597000D01*
X117800000Y-84597000D01*
X117800000Y-77497000D01*
X116200000Y-77497000D01*
X116200000Y-84597000D01*
X115800000Y-84597000D01*
X115800000Y-77497000D01*
X114200000Y-77497000D01*
X114200000Y-84597000D01*
X113800000Y-84597000D01*
X113800000Y-77497000D01*
X112200000Y-77497000D01*
X112200000Y-84597000D01*
X111800000Y-84597000D01*
X111800000Y-77497000D01*
X110200000Y-77497000D01*
X110200000Y-84597000D01*
X109800000Y-84597000D01*
X109800000Y-77497000D01*
X108200000Y-77497000D01*
X108200000Y-84597000D01*
X107800000Y-84597000D01*
X107800000Y-77497000D01*
X106200000Y-77497000D01*
X106200000Y-84597000D01*
X105800000Y-84597000D01*
X105800000Y-77497000D01*
X104200000Y-77497000D01*
X104200000Y-84597000D01*
X103800000Y-84597000D01*
X103800000Y-77497000D01*
X102200000Y-77497000D01*
X102200000Y-84597000D01*
X101800000Y-84597000D01*
X101800000Y-77497000D01*
X100200000Y-77497000D01*
X100200000Y-84597000D01*
X99800000Y-84597000D01*
X99800000Y-77497000D01*
X99157619Y-77497000D01*
X99146293Y-77522439D01*
X99122164Y-77564913D01*
X99094005Y-77604831D01*
X99062086Y-77641810D01*
X99026710Y-77675498D01*
X98988216Y-77705572D01*
X98946971Y-77731747D01*
X98903368Y-77753773D01*
X98857825Y-77771438D01*
X98810774Y-77784575D01*
X98762667Y-77793057D01*
X98713961Y-77796805D01*
X98665122Y-77795782D01*
X98616616Y-77789998D01*
X98568905Y-77779508D01*
X98522447Y-77764413D01*
X98477682Y-77744856D01*
X98435040Y-77721024D01*
X98394927Y-77693145D01*
X98357726Y-77661484D01*
X98323793Y-77626345D01*
X98293450Y-77588061D01*
X98266987Y-77547000D01*
X98244658Y-77503552D01*
X98242064Y-77497000D01*
X98200000Y-77497000D01*
X98200000Y-77097000D01*
X98242380Y-77097000D01*
X98250603Y-77077814D01*
X98274137Y-77035007D01*
X98301735Y-76994700D01*
X98333135Y-76957279D01*
X98368037Y-76923101D01*
X98406107Y-76892492D01*
X98446983Y-76865743D01*
X98490274Y-76843111D01*
X98535567Y-76824812D01*
X98582429Y-76811019D01*
X98630413Y-76801866D01*
X98679062Y-76797439D01*
X98727911Y-76797780D01*
X98727911Y-76797780D01*
G37*
D15*
X151300000Y-77297000D03*
D16*
G36*
X151327911Y-76797780D02*
X151376493Y-76802886D01*
X151424345Y-76812708D01*
X151471010Y-76827154D01*
X151516043Y-76846084D01*
X151559014Y-76869318D01*
X151599512Y-76896634D01*
X151637151Y-76927772D01*
X151671572Y-76962435D01*
X151702447Y-77000291D01*
X151729480Y-77040979D01*
X151752414Y-77084110D01*
X151757727Y-77097000D01*
X151800000Y-77097000D01*
X151800000Y-77497000D01*
X151757619Y-77497000D01*
X151746293Y-77522439D01*
X151722164Y-77564913D01*
X151694005Y-77604831D01*
X151662086Y-77641810D01*
X151626710Y-77675498D01*
X151588216Y-77705572D01*
X151546971Y-77731747D01*
X151503368Y-77753773D01*
X151457825Y-77771438D01*
X151410774Y-77784575D01*
X151362667Y-77793057D01*
X151313961Y-77796805D01*
X151265122Y-77795782D01*
X151216616Y-77789998D01*
X151168905Y-77779508D01*
X151122447Y-77764413D01*
X151077682Y-77744856D01*
X151035040Y-77721024D01*
X150994927Y-77693145D01*
X150957726Y-77661484D01*
X150923793Y-77626345D01*
X150893450Y-77588061D01*
X150866987Y-77547000D01*
X150844658Y-77503552D01*
X150842064Y-77497000D01*
X150200000Y-77497000D01*
X150200000Y-84597000D01*
X149800000Y-84597000D01*
X149800000Y-77497000D01*
X148200000Y-77497000D01*
X148200000Y-84597000D01*
X147800000Y-84597000D01*
X147800000Y-77497000D01*
X146200000Y-77497000D01*
X146200000Y-84597000D01*
X145800000Y-84597000D01*
X145800000Y-77497000D01*
X144200000Y-77497000D01*
X144200000Y-84597000D01*
X143800000Y-84597000D01*
X143800000Y-77497000D01*
X142200000Y-77497000D01*
X142200000Y-84597000D01*
X141800000Y-84597000D01*
X141800000Y-77497000D01*
X140200000Y-77497000D01*
X140200000Y-84597000D01*
X139800000Y-84597000D01*
X139800000Y-77497000D01*
X138200000Y-77497000D01*
X138200000Y-84597000D01*
X137800000Y-84597000D01*
X137800000Y-77497000D01*
X136200000Y-77497000D01*
X136200000Y-84597000D01*
X135800000Y-84597000D01*
X135800000Y-77497000D01*
X134200000Y-77497000D01*
X134200000Y-84597000D01*
X133800000Y-84597000D01*
X133800000Y-77497000D01*
X132200000Y-77497000D01*
X132200000Y-84597000D01*
X131800000Y-84597000D01*
X131800000Y-77497000D01*
X130200000Y-77497000D01*
X130200000Y-84597000D01*
X129800000Y-84597000D01*
X129800000Y-77497000D01*
X128200000Y-77497000D01*
X128200000Y-84597000D01*
X127800000Y-84597000D01*
X127800000Y-77497000D01*
X126200000Y-77497000D01*
X126200000Y-84597000D01*
X125800000Y-84597000D01*
X125800000Y-77097000D01*
X150842380Y-77097000D01*
X150850603Y-77077814D01*
X150874137Y-77035007D01*
X150901735Y-76994700D01*
X150933135Y-76957279D01*
X150968037Y-76923101D01*
X151006107Y-76892492D01*
X151046983Y-76865743D01*
X151090274Y-76843111D01*
X151135567Y-76824812D01*
X151182429Y-76811019D01*
X151230413Y-76801866D01*
X151279062Y-76797439D01*
X151327911Y-76797780D01*
X151327911Y-76797780D01*
G37*
D15*
X125000000Y-85097000D03*
D16*
G36*
X125200000Y-84639340D02*
X125216043Y-84646084D01*
X125259014Y-84669318D01*
X125299512Y-84696634D01*
X125337151Y-84727772D01*
X125371572Y-84762435D01*
X125402447Y-84800291D01*
X125429480Y-84840979D01*
X125452414Y-84884110D01*
X125471029Y-84929274D01*
X125485148Y-84976039D01*
X125494636Y-85023958D01*
X125499403Y-85072575D01*
X125498526Y-85135360D01*
X125492404Y-85183824D01*
X125489410Y-85197000D01*
X126800000Y-85197000D01*
X126800000Y-78097000D01*
X127200000Y-78097000D01*
X127200000Y-85197000D01*
X128800000Y-85197000D01*
X128800000Y-78097000D01*
X129200000Y-78097000D01*
X129200000Y-85197000D01*
X130800000Y-85197000D01*
X130800000Y-78097000D01*
X131200000Y-78097000D01*
X131200000Y-85197000D01*
X132800000Y-85197000D01*
X132800000Y-78097000D01*
X133200000Y-78097000D01*
X133200000Y-85197000D01*
X134800000Y-85197000D01*
X134800000Y-78097000D01*
X135200000Y-78097000D01*
X135200000Y-85197000D01*
X136800000Y-85197000D01*
X136800000Y-78097000D01*
X137200000Y-78097000D01*
X137200000Y-85197000D01*
X138800000Y-85197000D01*
X138800000Y-78097000D01*
X139200000Y-78097000D01*
X139200000Y-85197000D01*
X140800000Y-85197000D01*
X140800000Y-78097000D01*
X141200000Y-78097000D01*
X141200000Y-85197000D01*
X142800000Y-85197000D01*
X142800000Y-78097000D01*
X143200000Y-78097000D01*
X143200000Y-85197000D01*
X144800000Y-85197000D01*
X144800000Y-78097000D01*
X145200000Y-78097000D01*
X145200000Y-85197000D01*
X146800000Y-85197000D01*
X146800000Y-78097000D01*
X147200000Y-78097000D01*
X147200000Y-85197000D01*
X148800000Y-85197000D01*
X148800000Y-78097000D01*
X149200000Y-78097000D01*
X149200000Y-85197000D01*
X150800000Y-85197000D01*
X150800000Y-78097000D01*
X151200000Y-78097000D01*
X151200000Y-85597000D01*
X98800000Y-85597000D01*
X98800000Y-78097000D01*
X99200000Y-78097000D01*
X99200000Y-85197000D01*
X100800000Y-85197000D01*
X100800000Y-78097000D01*
X101200000Y-78097000D01*
X101200000Y-85197000D01*
X102800000Y-85197000D01*
X102800000Y-78097000D01*
X103200000Y-78097000D01*
X103200000Y-85197000D01*
X104800000Y-85197000D01*
X104800000Y-78097000D01*
X105200000Y-78097000D01*
X105200000Y-85197000D01*
X106800000Y-85197000D01*
X106800000Y-78097000D01*
X107200000Y-78097000D01*
X107200000Y-85197000D01*
X108800000Y-85197000D01*
X108800000Y-78097000D01*
X109200000Y-78097000D01*
X109200000Y-85197000D01*
X110800000Y-85197000D01*
X110800000Y-78097000D01*
X111200000Y-78097000D01*
X111200000Y-85197000D01*
X112800000Y-85197000D01*
X112800000Y-78097000D01*
X113200000Y-78097000D01*
X113200000Y-85197000D01*
X114800000Y-85197000D01*
X114800000Y-78097000D01*
X115200000Y-78097000D01*
X115200000Y-85197000D01*
X116800000Y-85197000D01*
X116800000Y-78097000D01*
X117200000Y-78097000D01*
X117200000Y-85197000D01*
X118800000Y-85197000D01*
X118800000Y-78097000D01*
X119200000Y-78097000D01*
X119200000Y-85197000D01*
X120800000Y-85197000D01*
X120800000Y-78097000D01*
X121200000Y-78097000D01*
X121200000Y-85197000D01*
X122800000Y-85197000D01*
X122800000Y-78097000D01*
X123200000Y-78097000D01*
X123200000Y-85197000D01*
X124510609Y-85197000D01*
X124504392Y-85163128D01*
X124500305Y-85114450D01*
X124500987Y-85065605D01*
X124506432Y-85017059D01*
X124516588Y-84969277D01*
X124531359Y-84922714D01*
X124550603Y-84877814D01*
X124574137Y-84835007D01*
X124601735Y-84794700D01*
X124633135Y-84757279D01*
X124668037Y-84723101D01*
X124706107Y-84692492D01*
X124746983Y-84665743D01*
X124790274Y-84643111D01*
X124800000Y-84639182D01*
X124800000Y-77097000D01*
X125200000Y-77097000D01*
X125200000Y-84639340D01*
X125200000Y-84639340D01*
G37*
D15*
X125000000Y-62616400D03*
D16*
G36*
X125200000Y-62158740D02*
X125216043Y-62165484D01*
X125259014Y-62188718D01*
X125299512Y-62216034D01*
X125337151Y-62247172D01*
X125371572Y-62281835D01*
X125402447Y-62319691D01*
X125429480Y-62360379D01*
X125452414Y-62403510D01*
X125471029Y-62448674D01*
X125485148Y-62495439D01*
X125494636Y-62543358D01*
X125499403Y-62591975D01*
X125498526Y-62654760D01*
X125492404Y-62703224D01*
X125489410Y-62716400D01*
X126800000Y-62716400D01*
X126800000Y-55616400D01*
X127200000Y-55616400D01*
X127200000Y-62716400D01*
X128800000Y-62716400D01*
X128800000Y-55616400D01*
X129200000Y-55616400D01*
X129200000Y-62716400D01*
X130800000Y-62716400D01*
X130800000Y-55616400D01*
X131200000Y-55616400D01*
X131200000Y-62716400D01*
X132800000Y-62716400D01*
X132800000Y-55616400D01*
X133200000Y-55616400D01*
X133200000Y-62716400D01*
X134800000Y-62716400D01*
X134800000Y-55616400D01*
X135200000Y-55616400D01*
X135200000Y-62716400D01*
X136800000Y-62716400D01*
X136800000Y-55616400D01*
X137200000Y-55616400D01*
X137200000Y-62716400D01*
X138800000Y-62716400D01*
X138800000Y-55616400D01*
X139200000Y-55616400D01*
X139200000Y-62716400D01*
X140800000Y-62716400D01*
X140800000Y-55616400D01*
X141200000Y-55616400D01*
X141200000Y-62716400D01*
X142800000Y-62716400D01*
X142800000Y-55616400D01*
X143200000Y-55616400D01*
X143200000Y-62716400D01*
X144800000Y-62716400D01*
X144800000Y-55616400D01*
X145200000Y-55616400D01*
X145200000Y-62716400D01*
X146800000Y-62716400D01*
X146800000Y-55616400D01*
X147200000Y-55616400D01*
X147200000Y-62716400D01*
X148800000Y-62716400D01*
X148800000Y-55616400D01*
X149200000Y-55616400D01*
X149200000Y-62716400D01*
X150800000Y-62716400D01*
X150800000Y-55616400D01*
X151200000Y-55616400D01*
X151200000Y-63116400D01*
X98800000Y-63116400D01*
X98800000Y-55616400D01*
X99200000Y-55616400D01*
X99200000Y-62716400D01*
X100800000Y-62716400D01*
X100800000Y-55616400D01*
X101200000Y-55616400D01*
X101200000Y-62716400D01*
X102800000Y-62716400D01*
X102800000Y-55616400D01*
X103200000Y-55616400D01*
X103200000Y-62716400D01*
X104800000Y-62716400D01*
X104800000Y-55616400D01*
X105200000Y-55616400D01*
X105200000Y-62716400D01*
X106800000Y-62716400D01*
X106800000Y-55616400D01*
X107200000Y-55616400D01*
X107200000Y-62716400D01*
X108800000Y-62716400D01*
X108800000Y-55616400D01*
X109200000Y-55616400D01*
X109200000Y-62716400D01*
X110800000Y-62716400D01*
X110800000Y-55616400D01*
X111200000Y-55616400D01*
X111200000Y-62716400D01*
X112800000Y-62716400D01*
X112800000Y-55616400D01*
X113200000Y-55616400D01*
X113200000Y-62716400D01*
X114800000Y-62716400D01*
X114800000Y-55616400D01*
X115200000Y-55616400D01*
X115200000Y-62716400D01*
X116800000Y-62716400D01*
X116800000Y-55616400D01*
X117200000Y-55616400D01*
X117200000Y-62716400D01*
X118800000Y-62716400D01*
X118800000Y-55616400D01*
X119200000Y-55616400D01*
X119200000Y-62716400D01*
X120800000Y-62716400D01*
X120800000Y-55616400D01*
X121200000Y-55616400D01*
X121200000Y-62716400D01*
X122800000Y-62716400D01*
X122800000Y-55616400D01*
X123200000Y-55616400D01*
X123200000Y-62716400D01*
X124510609Y-62716400D01*
X124504392Y-62682528D01*
X124500305Y-62633850D01*
X124500987Y-62585005D01*
X124506432Y-62536459D01*
X124516588Y-62488677D01*
X124531359Y-62442114D01*
X124550603Y-62397214D01*
X124574137Y-62354407D01*
X124601735Y-62314100D01*
X124633135Y-62276679D01*
X124668037Y-62242501D01*
X124706107Y-62211892D01*
X124746983Y-62185143D01*
X124790274Y-62162511D01*
X124800000Y-62158582D01*
X124800000Y-54616400D01*
X125200000Y-54616400D01*
X125200000Y-62158740D01*
X125200000Y-62158740D01*
G37*
D15*
X151300000Y-54816400D03*
D16*
G36*
X151327911Y-54317180D02*
X151376493Y-54322286D01*
X151424345Y-54332108D01*
X151471010Y-54346554D01*
X151516043Y-54365484D01*
X151559014Y-54388718D01*
X151599512Y-54416034D01*
X151637151Y-54447172D01*
X151671572Y-54481835D01*
X151702447Y-54519691D01*
X151729480Y-54560379D01*
X151752414Y-54603510D01*
X151757727Y-54616400D01*
X151800000Y-54616400D01*
X151800000Y-55016400D01*
X151757619Y-55016400D01*
X151746293Y-55041839D01*
X151722164Y-55084313D01*
X151694005Y-55124231D01*
X151662086Y-55161210D01*
X151626710Y-55194898D01*
X151588216Y-55224972D01*
X151546971Y-55251147D01*
X151503368Y-55273173D01*
X151457825Y-55290838D01*
X151410774Y-55303975D01*
X151362667Y-55312457D01*
X151313961Y-55316205D01*
X151265122Y-55315182D01*
X151216616Y-55309398D01*
X151168905Y-55298908D01*
X151122447Y-55283813D01*
X151077682Y-55264256D01*
X151035040Y-55240424D01*
X150994927Y-55212545D01*
X150957726Y-55180884D01*
X150923793Y-55145745D01*
X150893450Y-55107461D01*
X150866987Y-55066400D01*
X150844658Y-55022952D01*
X150842064Y-55016400D01*
X150200000Y-55016400D01*
X150200000Y-62116400D01*
X149800000Y-62116400D01*
X149800000Y-55016400D01*
X148200000Y-55016400D01*
X148200000Y-62116400D01*
X147800000Y-62116400D01*
X147800000Y-55016400D01*
X146200000Y-55016400D01*
X146200000Y-62116400D01*
X145800000Y-62116400D01*
X145800000Y-55016400D01*
X144200000Y-55016400D01*
X144200000Y-62116400D01*
X143800000Y-62116400D01*
X143800000Y-55016400D01*
X142200000Y-55016400D01*
X142200000Y-62116400D01*
X141800000Y-62116400D01*
X141800000Y-55016400D01*
X140200000Y-55016400D01*
X140200000Y-62116400D01*
X139800000Y-62116400D01*
X139800000Y-55016400D01*
X138200000Y-55016400D01*
X138200000Y-62116400D01*
X137800000Y-62116400D01*
X137800000Y-55016400D01*
X136200000Y-55016400D01*
X136200000Y-62116400D01*
X135800000Y-62116400D01*
X135800000Y-55016400D01*
X134200000Y-55016400D01*
X134200000Y-62116400D01*
X133800000Y-62116400D01*
X133800000Y-55016400D01*
X132200000Y-55016400D01*
X132200000Y-62116400D01*
X131800000Y-62116400D01*
X131800000Y-55016400D01*
X130200000Y-55016400D01*
X130200000Y-62116400D01*
X129800000Y-62116400D01*
X129800000Y-55016400D01*
X128200000Y-55016400D01*
X128200000Y-62116400D01*
X127800000Y-62116400D01*
X127800000Y-55016400D01*
X126200000Y-55016400D01*
X126200000Y-62116400D01*
X125800000Y-62116400D01*
X125800000Y-54616400D01*
X150842380Y-54616400D01*
X150850603Y-54597214D01*
X150874137Y-54554407D01*
X150901735Y-54514100D01*
X150933135Y-54476679D01*
X150968037Y-54442501D01*
X151006107Y-54411892D01*
X151046983Y-54385143D01*
X151090274Y-54362511D01*
X151135567Y-54344212D01*
X151182429Y-54330419D01*
X151230413Y-54321266D01*
X151279062Y-54316839D01*
X151327911Y-54317180D01*
X151327911Y-54317180D01*
G37*
D15*
X98700000Y-54816400D03*
D16*
G36*
X98727911Y-54317180D02*
X98776493Y-54322286D01*
X98824345Y-54332108D01*
X98871010Y-54346554D01*
X98916043Y-54365484D01*
X98959014Y-54388718D01*
X98999512Y-54416034D01*
X99037151Y-54447172D01*
X99071572Y-54481835D01*
X99102447Y-54519691D01*
X99129480Y-54560379D01*
X99152414Y-54603510D01*
X99157727Y-54616400D01*
X124200000Y-54616400D01*
X124200000Y-62116400D01*
X123800000Y-62116400D01*
X123800000Y-55016400D01*
X122200000Y-55016400D01*
X122200000Y-62116400D01*
X121800000Y-62116400D01*
X121800000Y-55016400D01*
X120200000Y-55016400D01*
X120200000Y-62116400D01*
X119800000Y-62116400D01*
X119800000Y-55016400D01*
X118200000Y-55016400D01*
X118200000Y-62116400D01*
X117800000Y-62116400D01*
X117800000Y-55016400D01*
X116200000Y-55016400D01*
X116200000Y-62116400D01*
X115800000Y-62116400D01*
X115800000Y-55016400D01*
X114200000Y-55016400D01*
X114200000Y-62116400D01*
X113800000Y-62116400D01*
X113800000Y-55016400D01*
X112200000Y-55016400D01*
X112200000Y-62116400D01*
X111800000Y-62116400D01*
X111800000Y-55016400D01*
X110200000Y-55016400D01*
X110200000Y-62116400D01*
X109800000Y-62116400D01*
X109800000Y-55016400D01*
X108200000Y-55016400D01*
X108200000Y-62116400D01*
X107800000Y-62116400D01*
X107800000Y-55016400D01*
X106200000Y-55016400D01*
X106200000Y-62116400D01*
X105800000Y-62116400D01*
X105800000Y-55016400D01*
X104200000Y-55016400D01*
X104200000Y-62116400D01*
X103800000Y-62116400D01*
X103800000Y-55016400D01*
X102200000Y-55016400D01*
X102200000Y-62116400D01*
X101800000Y-62116400D01*
X101800000Y-55016400D01*
X100200000Y-55016400D01*
X100200000Y-62116400D01*
X99800000Y-62116400D01*
X99800000Y-55016400D01*
X99157619Y-55016400D01*
X99146293Y-55041839D01*
X99122164Y-55084313D01*
X99094005Y-55124231D01*
X99062086Y-55161210D01*
X99026710Y-55194898D01*
X98988216Y-55224972D01*
X98946971Y-55251147D01*
X98903368Y-55273173D01*
X98857825Y-55290838D01*
X98810774Y-55303975D01*
X98762667Y-55312457D01*
X98713961Y-55316205D01*
X98665122Y-55315182D01*
X98616616Y-55309398D01*
X98568905Y-55298908D01*
X98522447Y-55283813D01*
X98477682Y-55264256D01*
X98435040Y-55240424D01*
X98394927Y-55212545D01*
X98357726Y-55180884D01*
X98323793Y-55145745D01*
X98293450Y-55107461D01*
X98266987Y-55066400D01*
X98244658Y-55022952D01*
X98242064Y-55016400D01*
X98200000Y-55016400D01*
X98200000Y-54616400D01*
X98242380Y-54616400D01*
X98250603Y-54597214D01*
X98274137Y-54554407D01*
X98301735Y-54514100D01*
X98333135Y-54476679D01*
X98368037Y-54442501D01*
X98406107Y-54411892D01*
X98446983Y-54385143D01*
X98490274Y-54362511D01*
X98535567Y-54344212D01*
X98582429Y-54330419D01*
X98630413Y-54321266D01*
X98679062Y-54316839D01*
X98727911Y-54317180D01*
X98727911Y-54317180D01*
G37*
D15*
X125000000Y-40135800D03*
D16*
G36*
X125200000Y-39678140D02*
X125216043Y-39684884D01*
X125259014Y-39708118D01*
X125299512Y-39735434D01*
X125337151Y-39766572D01*
X125371572Y-39801235D01*
X125402447Y-39839091D01*
X125429480Y-39879779D01*
X125452414Y-39922910D01*
X125471029Y-39968074D01*
X125485148Y-40014839D01*
X125494636Y-40062758D01*
X125499403Y-40111375D01*
X125498526Y-40174160D01*
X125492404Y-40222624D01*
X125489410Y-40235800D01*
X126800000Y-40235800D01*
X126800000Y-33135800D01*
X127200000Y-33135800D01*
X127200000Y-40235800D01*
X128800000Y-40235800D01*
X128800000Y-33135800D01*
X129200000Y-33135800D01*
X129200000Y-40235800D01*
X130800000Y-40235800D01*
X130800000Y-33135800D01*
X131200000Y-33135800D01*
X131200000Y-40235800D01*
X132800000Y-40235800D01*
X132800000Y-33135800D01*
X133200000Y-33135800D01*
X133200000Y-40235800D01*
X134800000Y-40235800D01*
X134800000Y-33135800D01*
X135200000Y-33135800D01*
X135200000Y-40235800D01*
X136800000Y-40235800D01*
X136800000Y-33135800D01*
X137200000Y-33135800D01*
X137200000Y-40235800D01*
X138800000Y-40235800D01*
X138800000Y-33135800D01*
X139200000Y-33135800D01*
X139200000Y-40235800D01*
X140800000Y-40235800D01*
X140800000Y-33135800D01*
X141200000Y-33135800D01*
X141200000Y-40235800D01*
X142800000Y-40235800D01*
X142800000Y-33135800D01*
X143200000Y-33135800D01*
X143200000Y-40235800D01*
X144800000Y-40235800D01*
X144800000Y-33135800D01*
X145200000Y-33135800D01*
X145200000Y-40235800D01*
X146800000Y-40235800D01*
X146800000Y-33135800D01*
X147200000Y-33135800D01*
X147200000Y-40235800D01*
X148800000Y-40235800D01*
X148800000Y-33135800D01*
X149200000Y-33135800D01*
X149200000Y-40235800D01*
X150800000Y-40235800D01*
X150800000Y-33135800D01*
X151200000Y-33135800D01*
X151200000Y-40635800D01*
X98800000Y-40635800D01*
X98800000Y-33135800D01*
X99200000Y-33135800D01*
X99200000Y-40235800D01*
X100800000Y-40235800D01*
X100800000Y-33135800D01*
X101200000Y-33135800D01*
X101200000Y-40235800D01*
X102800000Y-40235800D01*
X102800000Y-33135800D01*
X103200000Y-33135800D01*
X103200000Y-40235800D01*
X104800000Y-40235800D01*
X104800000Y-33135800D01*
X105200000Y-33135800D01*
X105200000Y-40235800D01*
X106800000Y-40235800D01*
X106800000Y-33135800D01*
X107200000Y-33135800D01*
X107200000Y-40235800D01*
X108800000Y-40235800D01*
X108800000Y-33135800D01*
X109200000Y-33135800D01*
X109200000Y-40235800D01*
X110800000Y-40235800D01*
X110800000Y-33135800D01*
X111200000Y-33135800D01*
X111200000Y-40235800D01*
X112800000Y-40235800D01*
X112800000Y-33135800D01*
X113200000Y-33135800D01*
X113200000Y-40235800D01*
X114800000Y-40235800D01*
X114800000Y-33135800D01*
X115200000Y-33135800D01*
X115200000Y-40235800D01*
X116800000Y-40235800D01*
X116800000Y-33135800D01*
X117200000Y-33135800D01*
X117200000Y-40235800D01*
X118800000Y-40235800D01*
X118800000Y-33135800D01*
X119200000Y-33135800D01*
X119200000Y-40235800D01*
X120800000Y-40235800D01*
X120800000Y-33135800D01*
X121200000Y-33135800D01*
X121200000Y-40235800D01*
X122800000Y-40235800D01*
X122800000Y-33135800D01*
X123200000Y-33135800D01*
X123200000Y-40235800D01*
X124510609Y-40235800D01*
X124504392Y-40201928D01*
X124500305Y-40153250D01*
X124500987Y-40104405D01*
X124506432Y-40055859D01*
X124516588Y-40008077D01*
X124531359Y-39961514D01*
X124550603Y-39916614D01*
X124574137Y-39873807D01*
X124601735Y-39833500D01*
X124633135Y-39796079D01*
X124668037Y-39761901D01*
X124706107Y-39731292D01*
X124746983Y-39704543D01*
X124790274Y-39681911D01*
X124800000Y-39677982D01*
X124800000Y-32135800D01*
X125200000Y-32135800D01*
X125200000Y-39678140D01*
X125200000Y-39678140D01*
G37*
D15*
X151300000Y-32335800D03*
D16*
G36*
X151327911Y-31836580D02*
X151376493Y-31841686D01*
X151424345Y-31851508D01*
X151471010Y-31865954D01*
X151516043Y-31884884D01*
X151559014Y-31908118D01*
X151599512Y-31935434D01*
X151637151Y-31966572D01*
X151671572Y-32001235D01*
X151702447Y-32039091D01*
X151729480Y-32079779D01*
X151752414Y-32122910D01*
X151757727Y-32135800D01*
X151800000Y-32135800D01*
X151800000Y-32535800D01*
X151757619Y-32535800D01*
X151746293Y-32561239D01*
X151722164Y-32603713D01*
X151694005Y-32643631D01*
X151662086Y-32680610D01*
X151626710Y-32714298D01*
X151588216Y-32744372D01*
X151546971Y-32770547D01*
X151503368Y-32792573D01*
X151457825Y-32810238D01*
X151410774Y-32823375D01*
X151362667Y-32831857D01*
X151313961Y-32835605D01*
X151265122Y-32834582D01*
X151216616Y-32828798D01*
X151168905Y-32818308D01*
X151122447Y-32803213D01*
X151077682Y-32783656D01*
X151035040Y-32759824D01*
X150994927Y-32731945D01*
X150957726Y-32700284D01*
X150923793Y-32665145D01*
X150893450Y-32626861D01*
X150866987Y-32585800D01*
X150844658Y-32542352D01*
X150842064Y-32535800D01*
X150200000Y-32535800D01*
X150200000Y-39635800D01*
X149800000Y-39635800D01*
X149800000Y-32535800D01*
X148200000Y-32535800D01*
X148200000Y-39635800D01*
X147800000Y-39635800D01*
X147800000Y-32535800D01*
X146200000Y-32535800D01*
X146200000Y-39635800D01*
X145800000Y-39635800D01*
X145800000Y-32535800D01*
X144200000Y-32535800D01*
X144200000Y-39635800D01*
X143800000Y-39635800D01*
X143800000Y-32535800D01*
X142200000Y-32535800D01*
X142200000Y-39635800D01*
X141800000Y-39635800D01*
X141800000Y-32535800D01*
X140200000Y-32535800D01*
X140200000Y-39635800D01*
X139800000Y-39635800D01*
X139800000Y-32535800D01*
X138200000Y-32535800D01*
X138200000Y-39635800D01*
X137800000Y-39635800D01*
X137800000Y-32535800D01*
X136200000Y-32535800D01*
X136200000Y-39635800D01*
X135800000Y-39635800D01*
X135800000Y-32535800D01*
X134200000Y-32535800D01*
X134200000Y-39635800D01*
X133800000Y-39635800D01*
X133800000Y-32535800D01*
X132200000Y-32535800D01*
X132200000Y-39635800D01*
X131800000Y-39635800D01*
X131800000Y-32535800D01*
X130200000Y-32535800D01*
X130200000Y-39635800D01*
X129800000Y-39635800D01*
X129800000Y-32535800D01*
X128200000Y-32535800D01*
X128200000Y-39635800D01*
X127800000Y-39635800D01*
X127800000Y-32535800D01*
X126200000Y-32535800D01*
X126200000Y-39635800D01*
X125800000Y-39635800D01*
X125800000Y-32135800D01*
X150842380Y-32135800D01*
X150850603Y-32116614D01*
X150874137Y-32073807D01*
X150901735Y-32033500D01*
X150933135Y-31996079D01*
X150968037Y-31961901D01*
X151006107Y-31931292D01*
X151046983Y-31904543D01*
X151090274Y-31881911D01*
X151135567Y-31863612D01*
X151182429Y-31849819D01*
X151230413Y-31840666D01*
X151279062Y-31836239D01*
X151327911Y-31836580D01*
X151327911Y-31836580D01*
G37*
D15*
X98700000Y-32335800D03*
D16*
G36*
X98727911Y-31836580D02*
X98776493Y-31841686D01*
X98824345Y-31851508D01*
X98871010Y-31865954D01*
X98916043Y-31884884D01*
X98959014Y-31908118D01*
X98999512Y-31935434D01*
X99037151Y-31966572D01*
X99071572Y-32001235D01*
X99102447Y-32039091D01*
X99129480Y-32079779D01*
X99152414Y-32122910D01*
X99157727Y-32135800D01*
X124200000Y-32135800D01*
X124200000Y-39635800D01*
X123800000Y-39635800D01*
X123800000Y-32535800D01*
X122200000Y-32535800D01*
X122200000Y-39635800D01*
X121800000Y-39635800D01*
X121800000Y-32535800D01*
X120200000Y-32535800D01*
X120200000Y-39635800D01*
X119800000Y-39635800D01*
X119800000Y-32535800D01*
X118200000Y-32535800D01*
X118200000Y-39635800D01*
X117800000Y-39635800D01*
X117800000Y-32535800D01*
X116200000Y-32535800D01*
X116200000Y-39635800D01*
X115800000Y-39635800D01*
X115800000Y-32535800D01*
X114200000Y-32535800D01*
X114200000Y-39635800D01*
X113800000Y-39635800D01*
X113800000Y-32535800D01*
X112200000Y-32535800D01*
X112200000Y-39635800D01*
X111800000Y-39635800D01*
X111800000Y-32535800D01*
X110200000Y-32535800D01*
X110200000Y-39635800D01*
X109800000Y-39635800D01*
X109800000Y-32535800D01*
X108200000Y-32535800D01*
X108200000Y-39635800D01*
X107800000Y-39635800D01*
X107800000Y-32535800D01*
X106200000Y-32535800D01*
X106200000Y-39635800D01*
X105800000Y-39635800D01*
X105800000Y-32535800D01*
X104200000Y-32535800D01*
X104200000Y-39635800D01*
X103800000Y-39635800D01*
X103800000Y-32535800D01*
X102200000Y-32535800D01*
X102200000Y-39635800D01*
X101800000Y-39635800D01*
X101800000Y-32535800D01*
X100200000Y-32535800D01*
X100200000Y-39635800D01*
X99800000Y-39635800D01*
X99800000Y-32535800D01*
X99157619Y-32535800D01*
X99146293Y-32561239D01*
X99122164Y-32603713D01*
X99094005Y-32643631D01*
X99062086Y-32680610D01*
X99026710Y-32714298D01*
X98988216Y-32744372D01*
X98946971Y-32770547D01*
X98903368Y-32792573D01*
X98857825Y-32810238D01*
X98810774Y-32823375D01*
X98762667Y-32831857D01*
X98713961Y-32835605D01*
X98665122Y-32834582D01*
X98616616Y-32828798D01*
X98568905Y-32818308D01*
X98522447Y-32803213D01*
X98477682Y-32783656D01*
X98435040Y-32759824D01*
X98394927Y-32731945D01*
X98357726Y-32700284D01*
X98323793Y-32665145D01*
X98293450Y-32626861D01*
X98266987Y-32585800D01*
X98244658Y-32542352D01*
X98242064Y-32535800D01*
X98200000Y-32535800D01*
X98200000Y-32135800D01*
X98242380Y-32135800D01*
X98250603Y-32116614D01*
X98274137Y-32073807D01*
X98301735Y-32033500D01*
X98333135Y-31996079D01*
X98368037Y-31961901D01*
X98406107Y-31931292D01*
X98446983Y-31904543D01*
X98490274Y-31881911D01*
X98535567Y-31863612D01*
X98582429Y-31849819D01*
X98630413Y-31840666D01*
X98679062Y-31836239D01*
X98727911Y-31836580D01*
X98727911Y-31836580D01*
G37*
M02*
