G04 #@! TF.GenerationSoftware,KiCad,Pcbnew,(2017-11-10 revision d8f4e35)-HEAD*
G04 #@! TF.CreationDate,2017-12-11T22:22:10-08:00*
G04 #@! TF.ProjectId,floor_pcb,666C6F6F725F7063622E6B696361645F,rev?*
G04 #@! TF.SameCoordinates,Original*
G04 #@! TF.FileFunction,Copper,L1,Top,Signal*
G04 #@! TF.FilePolarity,Positive*
%FSLAX46Y46*%
G04 Gerber Fmt 4.6, Leading zero omitted, Abs format (unit mm)*
G04 Created by KiCad (PCBNEW (2017-11-10 revision d8f4e35)-HEAD) date Mon Dec 11 22:22:10 2017*
%MOMM*%
%LPD*%
G01*
G04 APERTURE LIST*
%ADD10C,0.001000*%
%ADD11C,4.000000*%
%ADD12C,1.600000*%
%ADD13R,1.600000X1.600000*%
%ADD14C,1.500000*%
%ADD15C,0.000001*%
%ADD16C,0.100000*%
%ADD17C,0.800000*%
%ADD18C,0.250000*%
%ADD19C,0.400000*%
G04 APERTURE END LIST*
D10*
X142115153Y-70245379D02*
G75*
G02X142108633Y-67045385I-3260J1599997D01*
G01*
X152108612Y-67025010D02*
G75*
G02X152115132Y-70225004I3260J-1599997D01*
G01*
X142057908Y-25235283D02*
X152057887Y-25214907D01*
X142051388Y-22035289D02*
X152051367Y-22014914D01*
X126762780Y-25774200D02*
G75*
G03X126762780Y-25774200I-1851780J0D01*
G01*
X138486470Y-25755190D02*
G75*
G03X138486470Y-25755190I-4200000J0D01*
G01*
X142057908Y-25235283D02*
G75*
G02X142051388Y-22035289I-3260J1599997D01*
G01*
X87500000Y-228507200D02*
X87500000Y-6507200D01*
X162500000Y-228507200D02*
X87500000Y-228507200D01*
X162500000Y-6507200D02*
X162500000Y-228507200D01*
X87500000Y-6507200D02*
X162500000Y-6507200D01*
X107891787Y-182789837D02*
X97891788Y-182794898D01*
X107890167Y-179589837D02*
X97890169Y-179594898D01*
X126891790Y-183285137D02*
G75*
G03X126891790Y-183285137I-1851780J0D01*
G01*
X119864522Y-183289976D02*
G75*
G03X119864522Y-183289976I-4200000J0D01*
G01*
X107890167Y-179589837D02*
G75*
G02X107891787Y-182789837I810J-1600000D01*
G01*
X138600959Y-115775383D02*
G75*
G03X138600959Y-115775383I-4200000J0D01*
G01*
X142172397Y-115255474D02*
G75*
G02X142165877Y-112055482I-3260J1599996D01*
G01*
X152165856Y-112035106D02*
G75*
G02X152172376Y-115235100I3260J-1599997D01*
G01*
X142115153Y-70245379D02*
X152115132Y-70225004D01*
X142108633Y-67045385D02*
X152108612Y-67025010D01*
X126820024Y-70784296D02*
G75*
G03X126820024Y-70784296I-1851780J0D01*
G01*
X138543714Y-70765287D02*
G75*
G03X138543714Y-70765287I-4200000J0D01*
G01*
X107848157Y-44572900D02*
X97848158Y-44577961D01*
X126849780Y-48268200D02*
G75*
G03X126849780Y-48268200I-1851780J0D01*
G01*
X119822512Y-48273038D02*
G75*
G03X119822512Y-48273038I-4200000J0D01*
G01*
X107848157Y-44572900D02*
G75*
G02X107849777Y-47772900I810J-1600000D01*
G01*
X97849778Y-47777961D02*
G75*
G02X97848158Y-44577961I-810J1600000D01*
G01*
X142229641Y-160265571D02*
X152229621Y-160245196D01*
X142223121Y-157065578D02*
X152223101Y-157045203D01*
X152051367Y-22014915D02*
G75*
G02X152057887Y-25214907I3260J-1599996D01*
G01*
X147000000Y-15007200D02*
G75*
G03X147000000Y-15007200I-2000000J0D01*
G01*
X107000000Y-15007200D02*
G75*
G03X107000000Y-15007200I-2000000J0D01*
G01*
X147000000Y-208542700D02*
G75*
G03X147000000Y-208542700I-2000000J0D01*
G01*
X107000000Y-208542700D02*
G75*
G03X107000000Y-208542700I-2000000J0D01*
G01*
X96114500Y-70043200D02*
G75*
G03X96114500Y-70043200I-1714500J0D01*
G01*
X96114500Y-25792200D02*
G75*
G03X96114500Y-25792200I-1714500J0D01*
G01*
X126934513Y-160804489D02*
G75*
G03X126934513Y-160804489I-1851780J0D01*
G01*
X138658203Y-160785479D02*
G75*
G03X138658203Y-160785479I-4200000J0D01*
G01*
X142229641Y-160265572D02*
G75*
G02X142223121Y-157065578I-3260J1599997D01*
G01*
X152223101Y-157045204D02*
G75*
G02X152229621Y-160245196I3260J-1599996D01*
G01*
X142172397Y-115255475D02*
X152172376Y-115235100D01*
X142165877Y-112055482D02*
X152165856Y-112035107D01*
X126877269Y-115794393D02*
G75*
G03X126877269Y-115794393I-1851780J0D01*
G01*
X157314501Y-204542700D02*
G75*
G03X157314501Y-204542700I-1714500J0D01*
G01*
X157314501Y-182292700D02*
G75*
G03X157314501Y-182292700I-1714500J0D01*
G01*
X157314501Y-137792701D02*
G75*
G03X157314501Y-137792701I-1714500J0D01*
G01*
X157314501Y-92292700D02*
G75*
G03X157314501Y-92292700I-1714500J0D01*
G01*
X157314501Y-47792701D02*
G75*
G03X157314501Y-47792701I-1714500J0D01*
G01*
X96114501Y-204542700D02*
G75*
G03X96114501Y-204542700I-1714500J0D01*
G01*
X96114501Y-160042701D02*
G75*
G03X96114501Y-160042701I-1714500J0D01*
G01*
X107863780Y-92778545D02*
X97863781Y-92783606D01*
X107862160Y-89578546D02*
X97862162Y-89583607D01*
X126863783Y-93273846D02*
G75*
G03X126863783Y-93273846I-1851780J0D01*
G01*
X119836515Y-93278684D02*
G75*
G03X119836515Y-93278684I-4200000J0D01*
G01*
X107862160Y-89578547D02*
G75*
G02X107863780Y-92778545I810J-1599999D01*
G01*
X97863782Y-92783607D02*
G75*
G02X97862162Y-89583607I-810J1600000D01*
G01*
X107849777Y-47772900D02*
X97849778Y-47777961D01*
X97891787Y-182794898D02*
G75*
G02X97890169Y-179594898I-809J1600000D01*
G01*
X107877783Y-137784191D02*
X97877785Y-137789252D01*
X107876164Y-134584192D02*
X97876165Y-134589253D01*
X126877787Y-138279492D02*
G75*
G03X126877787Y-138279492I-1851780J0D01*
G01*
X119850519Y-138284330D02*
G75*
G03X119850519Y-138284330I-4200000J0D01*
G01*
X107876165Y-134584191D02*
G75*
G02X107877783Y-137784191I809J-1600000D01*
G01*
X97877785Y-137789251D02*
G75*
G02X97876165Y-134589253I-810J1599999D01*
G01*
X96114501Y-114542700D02*
G75*
G03X96114501Y-114542700I-1714500J0D01*
G01*
D11*
X101500000Y-219072501D03*
X148600000Y-219072501D03*
D12*
X109815000Y-220492501D03*
X112585000Y-220492501D03*
X115355000Y-220492501D03*
X118125000Y-220492501D03*
X120895000Y-220492501D03*
X123665000Y-220492501D03*
X126435000Y-220492501D03*
X129205000Y-220492501D03*
X131975000Y-220492501D03*
X134745000Y-220492501D03*
X137515000Y-220492501D03*
X140285000Y-220492501D03*
X108430000Y-217652501D03*
X111200000Y-217652501D03*
X113970000Y-217652501D03*
X116740000Y-217652501D03*
X119510000Y-217652501D03*
X122280000Y-217652501D03*
X125050000Y-217652501D03*
X127820000Y-217652501D03*
X130590000Y-217652501D03*
X133360000Y-217652501D03*
X136130000Y-217652501D03*
X138900000Y-217652501D03*
D13*
X141670000Y-217652501D03*
D14*
X114890000Y-16385800D03*
X117430000Y-16385800D03*
X119970000Y-16385800D03*
X122510000Y-16385800D03*
X125050000Y-16385800D03*
X127590000Y-16385800D03*
X130130000Y-16385800D03*
X132670000Y-16385800D03*
X135210000Y-16385800D03*
X137750000Y-16385800D03*
X137750000Y-213750000D03*
X135210000Y-213750000D03*
X132670000Y-213750000D03*
X130130000Y-213750000D03*
X127590000Y-213750000D03*
X125050000Y-213750000D03*
X122510000Y-213750000D03*
X119970000Y-213750000D03*
X117430000Y-213750000D03*
X114890000Y-213750000D03*
D15*
X98700000Y-189700000D03*
D16*
G36*
X124200000Y-197000000D02*
X123800000Y-197000000D01*
X123800000Y-189900000D01*
X122200000Y-189900000D01*
X122200000Y-197000000D01*
X121800000Y-197000000D01*
X121800000Y-189900000D01*
X120200000Y-189900000D01*
X120200000Y-197000000D01*
X119800000Y-197000000D01*
X119800000Y-189900000D01*
X118200000Y-189900000D01*
X118200000Y-197000000D01*
X117800000Y-197000000D01*
X117800000Y-189900000D01*
X116200000Y-189900000D01*
X116200000Y-197000000D01*
X115800000Y-197000000D01*
X115800000Y-189900000D01*
X114200000Y-189900000D01*
X114200000Y-197000000D01*
X113800000Y-197000000D01*
X113800000Y-189900000D01*
X112200000Y-189900000D01*
X112200000Y-197000000D01*
X111800000Y-197000000D01*
X111800000Y-189900000D01*
X110200000Y-189900000D01*
X110200000Y-197000000D01*
X109800000Y-197000000D01*
X109800000Y-189900000D01*
X108200000Y-189900000D01*
X108200000Y-197000000D01*
X107800000Y-197000000D01*
X107800000Y-189900000D01*
X106200000Y-189900000D01*
X106200000Y-197000000D01*
X105800000Y-197000000D01*
X105800000Y-189900000D01*
X104200000Y-189900000D01*
X104200000Y-197000000D01*
X103800000Y-197000000D01*
X103800000Y-189900000D01*
X102200000Y-189900000D01*
X102200000Y-197000000D01*
X101800000Y-197000000D01*
X101800000Y-189900000D01*
X100200000Y-189900000D01*
X100200000Y-197000000D01*
X99800000Y-197000000D01*
X99800000Y-189900000D01*
X98200000Y-189900000D01*
X98200000Y-189500000D01*
X124200000Y-189500000D01*
X124200000Y-197000000D01*
X124200000Y-197000000D01*
G37*
D15*
X151300000Y-189700000D03*
D16*
G36*
X151800000Y-189900000D02*
X150200000Y-189900000D01*
X150200000Y-197000000D01*
X149800000Y-197000000D01*
X149800000Y-189900000D01*
X148200000Y-189900000D01*
X148200000Y-197000000D01*
X147800000Y-197000000D01*
X147800000Y-189900000D01*
X146200000Y-189900000D01*
X146200000Y-197000000D01*
X145800000Y-197000000D01*
X145800000Y-189900000D01*
X144200000Y-189900000D01*
X144200000Y-197000000D01*
X143800000Y-197000000D01*
X143800000Y-189900000D01*
X142200000Y-189900000D01*
X142200000Y-197000000D01*
X141800000Y-197000000D01*
X141800000Y-189900000D01*
X140200000Y-189900000D01*
X140200000Y-197000000D01*
X139800000Y-197000000D01*
X139800000Y-189900000D01*
X138200000Y-189900000D01*
X138200000Y-197000000D01*
X137800000Y-197000000D01*
X137800000Y-189900000D01*
X136200000Y-189900000D01*
X136200000Y-197000000D01*
X135800000Y-197000000D01*
X135800000Y-189900000D01*
X134200000Y-189900000D01*
X134200000Y-197000000D01*
X133800000Y-197000000D01*
X133800000Y-189900000D01*
X132200000Y-189900000D01*
X132200000Y-197000000D01*
X131800000Y-197000000D01*
X131800000Y-189900000D01*
X130200000Y-189900000D01*
X130200000Y-197000000D01*
X129800000Y-197000000D01*
X129800000Y-189900000D01*
X128200000Y-189900000D01*
X128200000Y-197000000D01*
X127800000Y-197000000D01*
X127800000Y-189900000D01*
X126200000Y-189900000D01*
X126200000Y-197000000D01*
X125800000Y-197000000D01*
X125800000Y-189500000D01*
X151800000Y-189500000D01*
X151800000Y-189900000D01*
X151800000Y-189900000D01*
G37*
D15*
X125000000Y-197500000D03*
D16*
G36*
X125200000Y-197600000D02*
X126800000Y-197600000D01*
X126800000Y-190500000D01*
X127200000Y-190500000D01*
X127200000Y-197600000D01*
X128800000Y-197600000D01*
X128800000Y-190500000D01*
X129200000Y-190500000D01*
X129200000Y-197600000D01*
X130800000Y-197600000D01*
X130800000Y-190500000D01*
X131200000Y-190500000D01*
X131200000Y-197600000D01*
X132800000Y-197600000D01*
X132800000Y-190500000D01*
X133200000Y-190500000D01*
X133200000Y-197600000D01*
X134800000Y-197600000D01*
X134800000Y-190500000D01*
X135200000Y-190500000D01*
X135200000Y-197600000D01*
X136800000Y-197600000D01*
X136800000Y-190500000D01*
X137200000Y-190500000D01*
X137200000Y-197600000D01*
X138800000Y-197600000D01*
X138800000Y-190500000D01*
X139200000Y-190500000D01*
X139200000Y-197600000D01*
X140800000Y-197600000D01*
X140800000Y-190500000D01*
X141200000Y-190500000D01*
X141200000Y-197600000D01*
X142800000Y-197600000D01*
X142800000Y-190500000D01*
X143200000Y-190500000D01*
X143200000Y-197600000D01*
X144800000Y-197600000D01*
X144800000Y-190500000D01*
X145200000Y-190500000D01*
X145200000Y-197600000D01*
X146800000Y-197600000D01*
X146800000Y-190500000D01*
X147200000Y-190500000D01*
X147200000Y-197600000D01*
X148800000Y-197600000D01*
X148800000Y-190500000D01*
X149200000Y-190500000D01*
X149200000Y-197600000D01*
X150800000Y-197600000D01*
X150800000Y-190500000D01*
X151200000Y-190500000D01*
X151200000Y-198000000D01*
X98800000Y-198000000D01*
X98800000Y-190500000D01*
X99200000Y-190500000D01*
X99200000Y-197600000D01*
X100800000Y-197600000D01*
X100800000Y-190500000D01*
X101200000Y-190500000D01*
X101200000Y-197600000D01*
X102800000Y-197600000D01*
X102800000Y-190500000D01*
X103200000Y-190500000D01*
X103200000Y-197600000D01*
X104800000Y-197600000D01*
X104800000Y-190500000D01*
X105200000Y-190500000D01*
X105200000Y-197600000D01*
X106800000Y-197600000D01*
X106800000Y-190500000D01*
X107200000Y-190500000D01*
X107200000Y-197600000D01*
X108800000Y-197600000D01*
X108800000Y-190500000D01*
X109200000Y-190500000D01*
X109200000Y-197600000D01*
X110800000Y-197600000D01*
X110800000Y-190500000D01*
X111200000Y-190500000D01*
X111200000Y-197600000D01*
X112800000Y-197600000D01*
X112800000Y-190500000D01*
X113200000Y-190500000D01*
X113200000Y-197600000D01*
X114800000Y-197600000D01*
X114800000Y-190500000D01*
X115200000Y-190500000D01*
X115200000Y-197600000D01*
X116800000Y-197600000D01*
X116800000Y-190500000D01*
X117200000Y-190500000D01*
X117200000Y-197600000D01*
X118800000Y-197600000D01*
X118800000Y-190500000D01*
X119200000Y-190500000D01*
X119200000Y-197600000D01*
X120800000Y-197600000D01*
X120800000Y-190500000D01*
X121200000Y-190500000D01*
X121200000Y-197600000D01*
X122800000Y-197600000D01*
X122800000Y-190500000D01*
X123200000Y-190500000D01*
X123200000Y-197600000D01*
X124800000Y-197600000D01*
X124800000Y-189500000D01*
X125200000Y-189500000D01*
X125200000Y-197600000D01*
X125200000Y-197600000D01*
G37*
D15*
X125000000Y-175019400D03*
D16*
G36*
X125200000Y-175119400D02*
X126800000Y-175119400D01*
X126800000Y-168019400D01*
X127200000Y-168019400D01*
X127200000Y-175119400D01*
X128800000Y-175119400D01*
X128800000Y-168019400D01*
X129200000Y-168019400D01*
X129200000Y-175119400D01*
X130800000Y-175119400D01*
X130800000Y-168019400D01*
X131200000Y-168019400D01*
X131200000Y-175119400D01*
X132800000Y-175119400D01*
X132800000Y-168019400D01*
X133200000Y-168019400D01*
X133200000Y-175119400D01*
X134800000Y-175119400D01*
X134800000Y-168019400D01*
X135200000Y-168019400D01*
X135200000Y-175119400D01*
X136800000Y-175119400D01*
X136800000Y-168019400D01*
X137200000Y-168019400D01*
X137200000Y-175119400D01*
X138800000Y-175119400D01*
X138800000Y-168019400D01*
X139200000Y-168019400D01*
X139200000Y-175119400D01*
X140800000Y-175119400D01*
X140800000Y-168019400D01*
X141200000Y-168019400D01*
X141200000Y-175119400D01*
X142800000Y-175119400D01*
X142800000Y-168019400D01*
X143200000Y-168019400D01*
X143200000Y-175119400D01*
X144800000Y-175119400D01*
X144800000Y-168019400D01*
X145200000Y-168019400D01*
X145200000Y-175119400D01*
X146800000Y-175119400D01*
X146800000Y-168019400D01*
X147200000Y-168019400D01*
X147200000Y-175119400D01*
X148800000Y-175119400D01*
X148800000Y-168019400D01*
X149200000Y-168019400D01*
X149200000Y-175119400D01*
X150800000Y-175119400D01*
X150800000Y-168019400D01*
X151200000Y-168019400D01*
X151200000Y-175519400D01*
X98800000Y-175519400D01*
X98800000Y-168019400D01*
X99200000Y-168019400D01*
X99200000Y-175119400D01*
X100800000Y-175119400D01*
X100800000Y-168019400D01*
X101200000Y-168019400D01*
X101200000Y-175119400D01*
X102800000Y-175119400D01*
X102800000Y-168019400D01*
X103200000Y-168019400D01*
X103200000Y-175119400D01*
X104800000Y-175119400D01*
X104800000Y-168019400D01*
X105200000Y-168019400D01*
X105200000Y-175119400D01*
X106800000Y-175119400D01*
X106800000Y-168019400D01*
X107200000Y-168019400D01*
X107200000Y-175119400D01*
X108800000Y-175119400D01*
X108800000Y-168019400D01*
X109200000Y-168019400D01*
X109200000Y-175119400D01*
X110800000Y-175119400D01*
X110800000Y-168019400D01*
X111200000Y-168019400D01*
X111200000Y-175119400D01*
X112800000Y-175119400D01*
X112800000Y-168019400D01*
X113200000Y-168019400D01*
X113200000Y-175119400D01*
X114800000Y-175119400D01*
X114800000Y-168019400D01*
X115200000Y-168019400D01*
X115200000Y-175119400D01*
X116800000Y-175119400D01*
X116800000Y-168019400D01*
X117200000Y-168019400D01*
X117200000Y-175119400D01*
X118800000Y-175119400D01*
X118800000Y-168019400D01*
X119200000Y-168019400D01*
X119200000Y-175119400D01*
X120800000Y-175119400D01*
X120800000Y-168019400D01*
X121200000Y-168019400D01*
X121200000Y-175119400D01*
X122800000Y-175119400D01*
X122800000Y-168019400D01*
X123200000Y-168019400D01*
X123200000Y-175119400D01*
X124800000Y-175119400D01*
X124800000Y-167019400D01*
X125200000Y-167019400D01*
X125200000Y-175119400D01*
X125200000Y-175119400D01*
G37*
D15*
X151300000Y-167219400D03*
D16*
G36*
X151800000Y-167419400D02*
X150200000Y-167419400D01*
X150200000Y-174519400D01*
X149800000Y-174519400D01*
X149800000Y-167419400D01*
X148200000Y-167419400D01*
X148200000Y-174519400D01*
X147800000Y-174519400D01*
X147800000Y-167419400D01*
X146200000Y-167419400D01*
X146200000Y-174519400D01*
X145800000Y-174519400D01*
X145800000Y-167419400D01*
X144200000Y-167419400D01*
X144200000Y-174519400D01*
X143800000Y-174519400D01*
X143800000Y-167419400D01*
X142200000Y-167419400D01*
X142200000Y-174519400D01*
X141800000Y-174519400D01*
X141800000Y-167419400D01*
X140200000Y-167419400D01*
X140200000Y-174519400D01*
X139800000Y-174519400D01*
X139800000Y-167419400D01*
X138200000Y-167419400D01*
X138200000Y-174519400D01*
X137800000Y-174519400D01*
X137800000Y-167419400D01*
X136200000Y-167419400D01*
X136200000Y-174519400D01*
X135800000Y-174519400D01*
X135800000Y-167419400D01*
X134200000Y-167419400D01*
X134200000Y-174519400D01*
X133800000Y-174519400D01*
X133800000Y-167419400D01*
X132200000Y-167419400D01*
X132200000Y-174519400D01*
X131800000Y-174519400D01*
X131800000Y-167419400D01*
X130200000Y-167419400D01*
X130200000Y-174519400D01*
X129800000Y-174519400D01*
X129800000Y-167419400D01*
X128200000Y-167419400D01*
X128200000Y-174519400D01*
X127800000Y-174519400D01*
X127800000Y-167419400D01*
X126200000Y-167419400D01*
X126200000Y-174519400D01*
X125800000Y-174519400D01*
X125800000Y-167019400D01*
X151800000Y-167019400D01*
X151800000Y-167419400D01*
X151800000Y-167419400D01*
G37*
D15*
X98700000Y-167219400D03*
D16*
G36*
X124200000Y-174519400D02*
X123800000Y-174519400D01*
X123800000Y-167419400D01*
X122200000Y-167419400D01*
X122200000Y-174519400D01*
X121800000Y-174519400D01*
X121800000Y-167419400D01*
X120200000Y-167419400D01*
X120200000Y-174519400D01*
X119800000Y-174519400D01*
X119800000Y-167419400D01*
X118200000Y-167419400D01*
X118200000Y-174519400D01*
X117800000Y-174519400D01*
X117800000Y-167419400D01*
X116200000Y-167419400D01*
X116200000Y-174519400D01*
X115800000Y-174519400D01*
X115800000Y-167419400D01*
X114200000Y-167419400D01*
X114200000Y-174519400D01*
X113800000Y-174519400D01*
X113800000Y-167419400D01*
X112200000Y-167419400D01*
X112200000Y-174519400D01*
X111800000Y-174519400D01*
X111800000Y-167419400D01*
X110200000Y-167419400D01*
X110200000Y-174519400D01*
X109800000Y-174519400D01*
X109800000Y-167419400D01*
X108200000Y-167419400D01*
X108200000Y-174519400D01*
X107800000Y-174519400D01*
X107800000Y-167419400D01*
X106200000Y-167419400D01*
X106200000Y-174519400D01*
X105800000Y-174519400D01*
X105800000Y-167419400D01*
X104200000Y-167419400D01*
X104200000Y-174519400D01*
X103800000Y-174519400D01*
X103800000Y-167419400D01*
X102200000Y-167419400D01*
X102200000Y-174519400D01*
X101800000Y-174519400D01*
X101800000Y-167419400D01*
X100200000Y-167419400D01*
X100200000Y-174519400D01*
X99800000Y-174519400D01*
X99800000Y-167419400D01*
X98200000Y-167419400D01*
X98200000Y-167019400D01*
X124200000Y-167019400D01*
X124200000Y-174519400D01*
X124200000Y-174519400D01*
G37*
D15*
X98700000Y-144738800D03*
D16*
G36*
X124200000Y-152038800D02*
X123800000Y-152038800D01*
X123800000Y-144938800D01*
X122200000Y-144938800D01*
X122200000Y-152038800D01*
X121800000Y-152038800D01*
X121800000Y-144938800D01*
X120200000Y-144938800D01*
X120200000Y-152038800D01*
X119800000Y-152038800D01*
X119800000Y-144938800D01*
X118200000Y-144938800D01*
X118200000Y-152038800D01*
X117800000Y-152038800D01*
X117800000Y-144938800D01*
X116200000Y-144938800D01*
X116200000Y-152038800D01*
X115800000Y-152038800D01*
X115800000Y-144938800D01*
X114200000Y-144938800D01*
X114200000Y-152038800D01*
X113800000Y-152038800D01*
X113800000Y-144938800D01*
X112200000Y-144938800D01*
X112200000Y-152038800D01*
X111800000Y-152038800D01*
X111800000Y-144938800D01*
X110200000Y-144938800D01*
X110200000Y-152038800D01*
X109800000Y-152038800D01*
X109800000Y-144938800D01*
X108200000Y-144938800D01*
X108200000Y-152038800D01*
X107800000Y-152038800D01*
X107800000Y-144938800D01*
X106200000Y-144938800D01*
X106200000Y-152038800D01*
X105800000Y-152038800D01*
X105800000Y-144938800D01*
X104200000Y-144938800D01*
X104200000Y-152038800D01*
X103800000Y-152038800D01*
X103800000Y-144938800D01*
X102200000Y-144938800D01*
X102200000Y-152038800D01*
X101800000Y-152038800D01*
X101800000Y-144938800D01*
X100200000Y-144938800D01*
X100200000Y-152038800D01*
X99800000Y-152038800D01*
X99800000Y-144938800D01*
X98200000Y-144938800D01*
X98200000Y-144538800D01*
X124200000Y-144538800D01*
X124200000Y-152038800D01*
X124200000Y-152038800D01*
G37*
D15*
X151300000Y-144738800D03*
D16*
G36*
X151800000Y-144938800D02*
X150200000Y-144938800D01*
X150200000Y-152038800D01*
X149800000Y-152038800D01*
X149800000Y-144938800D01*
X148200000Y-144938800D01*
X148200000Y-152038800D01*
X147800000Y-152038800D01*
X147800000Y-144938800D01*
X146200000Y-144938800D01*
X146200000Y-152038800D01*
X145800000Y-152038800D01*
X145800000Y-144938800D01*
X144200000Y-144938800D01*
X144200000Y-152038800D01*
X143800000Y-152038800D01*
X143800000Y-144938800D01*
X142200000Y-144938800D01*
X142200000Y-152038800D01*
X141800000Y-152038800D01*
X141800000Y-144938800D01*
X140200000Y-144938800D01*
X140200000Y-152038800D01*
X139800000Y-152038800D01*
X139800000Y-144938800D01*
X138200000Y-144938800D01*
X138200000Y-152038800D01*
X137800000Y-152038800D01*
X137800000Y-144938800D01*
X136200000Y-144938800D01*
X136200000Y-152038800D01*
X135800000Y-152038800D01*
X135800000Y-144938800D01*
X134200000Y-144938800D01*
X134200000Y-152038800D01*
X133800000Y-152038800D01*
X133800000Y-144938800D01*
X132200000Y-144938800D01*
X132200000Y-152038800D01*
X131800000Y-152038800D01*
X131800000Y-144938800D01*
X130200000Y-144938800D01*
X130200000Y-152038800D01*
X129800000Y-152038800D01*
X129800000Y-144938800D01*
X128200000Y-144938800D01*
X128200000Y-152038800D01*
X127800000Y-152038800D01*
X127800000Y-144938800D01*
X126200000Y-144938800D01*
X126200000Y-152038800D01*
X125800000Y-152038800D01*
X125800000Y-144538800D01*
X151800000Y-144538800D01*
X151800000Y-144938800D01*
X151800000Y-144938800D01*
G37*
D15*
X125000000Y-152538800D03*
D16*
G36*
X125200000Y-152638800D02*
X126800000Y-152638800D01*
X126800000Y-145538800D01*
X127200000Y-145538800D01*
X127200000Y-152638800D01*
X128800000Y-152638800D01*
X128800000Y-145538800D01*
X129200000Y-145538800D01*
X129200000Y-152638800D01*
X130800000Y-152638800D01*
X130800000Y-145538800D01*
X131200000Y-145538800D01*
X131200000Y-152638800D01*
X132800000Y-152638800D01*
X132800000Y-145538800D01*
X133200000Y-145538800D01*
X133200000Y-152638800D01*
X134800000Y-152638800D01*
X134800000Y-145538800D01*
X135200000Y-145538800D01*
X135200000Y-152638800D01*
X136800000Y-152638800D01*
X136800000Y-145538800D01*
X137200000Y-145538800D01*
X137200000Y-152638800D01*
X138800000Y-152638800D01*
X138800000Y-145538800D01*
X139200000Y-145538800D01*
X139200000Y-152638800D01*
X140800000Y-152638800D01*
X140800000Y-145538800D01*
X141200000Y-145538800D01*
X141200000Y-152638800D01*
X142800000Y-152638800D01*
X142800000Y-145538800D01*
X143200000Y-145538800D01*
X143200000Y-152638800D01*
X144800000Y-152638800D01*
X144800000Y-145538800D01*
X145200000Y-145538800D01*
X145200000Y-152638800D01*
X146800000Y-152638800D01*
X146800000Y-145538800D01*
X147200000Y-145538800D01*
X147200000Y-152638800D01*
X148800000Y-152638800D01*
X148800000Y-145538800D01*
X149200000Y-145538800D01*
X149200000Y-152638800D01*
X150800000Y-152638800D01*
X150800000Y-145538800D01*
X151200000Y-145538800D01*
X151200000Y-153038800D01*
X98800000Y-153038800D01*
X98800000Y-145538800D01*
X99200000Y-145538800D01*
X99200000Y-152638800D01*
X100800000Y-152638800D01*
X100800000Y-145538800D01*
X101200000Y-145538800D01*
X101200000Y-152638800D01*
X102800000Y-152638800D01*
X102800000Y-145538800D01*
X103200000Y-145538800D01*
X103200000Y-152638800D01*
X104800000Y-152638800D01*
X104800000Y-145538800D01*
X105200000Y-145538800D01*
X105200000Y-152638800D01*
X106800000Y-152638800D01*
X106800000Y-145538800D01*
X107200000Y-145538800D01*
X107200000Y-152638800D01*
X108800000Y-152638800D01*
X108800000Y-145538800D01*
X109200000Y-145538800D01*
X109200000Y-152638800D01*
X110800000Y-152638800D01*
X110800000Y-145538800D01*
X111200000Y-145538800D01*
X111200000Y-152638800D01*
X112800000Y-152638800D01*
X112800000Y-145538800D01*
X113200000Y-145538800D01*
X113200000Y-152638800D01*
X114800000Y-152638800D01*
X114800000Y-145538800D01*
X115200000Y-145538800D01*
X115200000Y-152638800D01*
X116800000Y-152638800D01*
X116800000Y-145538800D01*
X117200000Y-145538800D01*
X117200000Y-152638800D01*
X118800000Y-152638800D01*
X118800000Y-145538800D01*
X119200000Y-145538800D01*
X119200000Y-152638800D01*
X120800000Y-152638800D01*
X120800000Y-145538800D01*
X121200000Y-145538800D01*
X121200000Y-152638800D01*
X122800000Y-152638800D01*
X122800000Y-145538800D01*
X123200000Y-145538800D01*
X123200000Y-152638800D01*
X124800000Y-152638800D01*
X124800000Y-144538800D01*
X125200000Y-144538800D01*
X125200000Y-152638800D01*
X125200000Y-152638800D01*
G37*
D15*
X125000000Y-130058200D03*
D16*
G36*
X125200000Y-130158200D02*
X126800000Y-130158200D01*
X126800000Y-123058200D01*
X127200000Y-123058200D01*
X127200000Y-130158200D01*
X128800000Y-130158200D01*
X128800000Y-123058200D01*
X129200000Y-123058200D01*
X129200000Y-130158200D01*
X130800000Y-130158200D01*
X130800000Y-123058200D01*
X131200000Y-123058200D01*
X131200000Y-130158200D01*
X132800000Y-130158200D01*
X132800000Y-123058200D01*
X133200000Y-123058200D01*
X133200000Y-130158200D01*
X134800000Y-130158200D01*
X134800000Y-123058200D01*
X135200000Y-123058200D01*
X135200000Y-130158200D01*
X136800000Y-130158200D01*
X136800000Y-123058200D01*
X137200000Y-123058200D01*
X137200000Y-130158200D01*
X138800000Y-130158200D01*
X138800000Y-123058200D01*
X139200000Y-123058200D01*
X139200000Y-130158200D01*
X140800000Y-130158200D01*
X140800000Y-123058200D01*
X141200000Y-123058200D01*
X141200000Y-130158200D01*
X142800000Y-130158200D01*
X142800000Y-123058200D01*
X143200000Y-123058200D01*
X143200000Y-130158200D01*
X144800000Y-130158200D01*
X144800000Y-123058200D01*
X145200000Y-123058200D01*
X145200000Y-130158200D01*
X146800000Y-130158200D01*
X146800000Y-123058200D01*
X147200000Y-123058200D01*
X147200000Y-130158200D01*
X148800000Y-130158200D01*
X148800000Y-123058200D01*
X149200000Y-123058200D01*
X149200000Y-130158200D01*
X150800000Y-130158200D01*
X150800000Y-123058200D01*
X151200000Y-123058200D01*
X151200000Y-130558200D01*
X98800000Y-130558200D01*
X98800000Y-123058200D01*
X99200000Y-123058200D01*
X99200000Y-130158200D01*
X100800000Y-130158200D01*
X100800000Y-123058200D01*
X101200000Y-123058200D01*
X101200000Y-130158200D01*
X102800000Y-130158200D01*
X102800000Y-123058200D01*
X103200000Y-123058200D01*
X103200000Y-130158200D01*
X104800000Y-130158200D01*
X104800000Y-123058200D01*
X105200000Y-123058200D01*
X105200000Y-130158200D01*
X106800000Y-130158200D01*
X106800000Y-123058200D01*
X107200000Y-123058200D01*
X107200000Y-130158200D01*
X108800000Y-130158200D01*
X108800000Y-123058200D01*
X109200000Y-123058200D01*
X109200000Y-130158200D01*
X110800000Y-130158200D01*
X110800000Y-123058200D01*
X111200000Y-123058200D01*
X111200000Y-130158200D01*
X112800000Y-130158200D01*
X112800000Y-123058200D01*
X113200000Y-123058200D01*
X113200000Y-130158200D01*
X114800000Y-130158200D01*
X114800000Y-123058200D01*
X115200000Y-123058200D01*
X115200000Y-130158200D01*
X116800000Y-130158200D01*
X116800000Y-123058200D01*
X117200000Y-123058200D01*
X117200000Y-130158200D01*
X118800000Y-130158200D01*
X118800000Y-123058200D01*
X119200000Y-123058200D01*
X119200000Y-130158200D01*
X120800000Y-130158200D01*
X120800000Y-123058200D01*
X121200000Y-123058200D01*
X121200000Y-130158200D01*
X122800000Y-130158200D01*
X122800000Y-123058200D01*
X123200000Y-123058200D01*
X123200000Y-130158200D01*
X124800000Y-130158200D01*
X124800000Y-122058200D01*
X125200000Y-122058200D01*
X125200000Y-130158200D01*
X125200000Y-130158200D01*
G37*
D15*
X151300000Y-122258200D03*
D16*
G36*
X151800000Y-122458200D02*
X150200000Y-122458200D01*
X150200000Y-129558200D01*
X149800000Y-129558200D01*
X149800000Y-122458200D01*
X148200000Y-122458200D01*
X148200000Y-129558200D01*
X147800000Y-129558200D01*
X147800000Y-122458200D01*
X146200000Y-122458200D01*
X146200000Y-129558200D01*
X145800000Y-129558200D01*
X145800000Y-122458200D01*
X144200000Y-122458200D01*
X144200000Y-129558200D01*
X143800000Y-129558200D01*
X143800000Y-122458200D01*
X142200000Y-122458200D01*
X142200000Y-129558200D01*
X141800000Y-129558200D01*
X141800000Y-122458200D01*
X140200000Y-122458200D01*
X140200000Y-129558200D01*
X139800000Y-129558200D01*
X139800000Y-122458200D01*
X138200000Y-122458200D01*
X138200000Y-129558200D01*
X137800000Y-129558200D01*
X137800000Y-122458200D01*
X136200000Y-122458200D01*
X136200000Y-129558200D01*
X135800000Y-129558200D01*
X135800000Y-122458200D01*
X134200000Y-122458200D01*
X134200000Y-129558200D01*
X133800000Y-129558200D01*
X133800000Y-122458200D01*
X132200000Y-122458200D01*
X132200000Y-129558200D01*
X131800000Y-129558200D01*
X131800000Y-122458200D01*
X130200000Y-122458200D01*
X130200000Y-129558200D01*
X129800000Y-129558200D01*
X129800000Y-122458200D01*
X128200000Y-122458200D01*
X128200000Y-129558200D01*
X127800000Y-129558200D01*
X127800000Y-122458200D01*
X126200000Y-122458200D01*
X126200000Y-129558200D01*
X125800000Y-129558200D01*
X125800000Y-122058200D01*
X151800000Y-122058200D01*
X151800000Y-122458200D01*
X151800000Y-122458200D01*
G37*
D15*
X98700000Y-122258200D03*
D16*
G36*
X124200000Y-129558200D02*
X123800000Y-129558200D01*
X123800000Y-122458200D01*
X122200000Y-122458200D01*
X122200000Y-129558200D01*
X121800000Y-129558200D01*
X121800000Y-122458200D01*
X120200000Y-122458200D01*
X120200000Y-129558200D01*
X119800000Y-129558200D01*
X119800000Y-122458200D01*
X118200000Y-122458200D01*
X118200000Y-129558200D01*
X117800000Y-129558200D01*
X117800000Y-122458200D01*
X116200000Y-122458200D01*
X116200000Y-129558200D01*
X115800000Y-129558200D01*
X115800000Y-122458200D01*
X114200000Y-122458200D01*
X114200000Y-129558200D01*
X113800000Y-129558200D01*
X113800000Y-122458200D01*
X112200000Y-122458200D01*
X112200000Y-129558200D01*
X111800000Y-129558200D01*
X111800000Y-122458200D01*
X110200000Y-122458200D01*
X110200000Y-129558200D01*
X109800000Y-129558200D01*
X109800000Y-122458200D01*
X108200000Y-122458200D01*
X108200000Y-129558200D01*
X107800000Y-129558200D01*
X107800000Y-122458200D01*
X106200000Y-122458200D01*
X106200000Y-129558200D01*
X105800000Y-129558200D01*
X105800000Y-122458200D01*
X104200000Y-122458200D01*
X104200000Y-129558200D01*
X103800000Y-129558200D01*
X103800000Y-122458200D01*
X102200000Y-122458200D01*
X102200000Y-129558200D01*
X101800000Y-129558200D01*
X101800000Y-122458200D01*
X100200000Y-122458200D01*
X100200000Y-129558200D01*
X99800000Y-129558200D01*
X99800000Y-122458200D01*
X98200000Y-122458200D01*
X98200000Y-122058200D01*
X124200000Y-122058200D01*
X124200000Y-129558200D01*
X124200000Y-129558200D01*
G37*
D15*
X98700000Y-99777600D03*
D16*
G36*
X124200000Y-107077600D02*
X123800000Y-107077600D01*
X123800000Y-99977600D01*
X122200000Y-99977600D01*
X122200000Y-107077600D01*
X121800000Y-107077600D01*
X121800000Y-99977600D01*
X120200000Y-99977600D01*
X120200000Y-107077600D01*
X119800000Y-107077600D01*
X119800000Y-99977600D01*
X118200000Y-99977600D01*
X118200000Y-107077600D01*
X117800000Y-107077600D01*
X117800000Y-99977600D01*
X116200000Y-99977600D01*
X116200000Y-107077600D01*
X115800000Y-107077600D01*
X115800000Y-99977600D01*
X114200000Y-99977600D01*
X114200000Y-107077600D01*
X113800000Y-107077600D01*
X113800000Y-99977600D01*
X112200000Y-99977600D01*
X112200000Y-107077600D01*
X111800000Y-107077600D01*
X111800000Y-99977600D01*
X110200000Y-99977600D01*
X110200000Y-107077600D01*
X109800000Y-107077600D01*
X109800000Y-99977600D01*
X108200000Y-99977600D01*
X108200000Y-107077600D01*
X107800000Y-107077600D01*
X107800000Y-99977600D01*
X106200000Y-99977600D01*
X106200000Y-107077600D01*
X105800000Y-107077600D01*
X105800000Y-99977600D01*
X104200000Y-99977600D01*
X104200000Y-107077600D01*
X103800000Y-107077600D01*
X103800000Y-99977600D01*
X102200000Y-99977600D01*
X102200000Y-107077600D01*
X101800000Y-107077600D01*
X101800000Y-99977600D01*
X100200000Y-99977600D01*
X100200000Y-107077600D01*
X99800000Y-107077600D01*
X99800000Y-99977600D01*
X98200000Y-99977600D01*
X98200000Y-99577600D01*
X124200000Y-99577600D01*
X124200000Y-107077600D01*
X124200000Y-107077600D01*
G37*
D15*
X151300000Y-99777600D03*
D16*
G36*
X151800000Y-99977600D02*
X150200000Y-99977600D01*
X150200000Y-107077600D01*
X149800000Y-107077600D01*
X149800000Y-99977600D01*
X148200000Y-99977600D01*
X148200000Y-107077600D01*
X147800000Y-107077600D01*
X147800000Y-99977600D01*
X146200000Y-99977600D01*
X146200000Y-107077600D01*
X145800000Y-107077600D01*
X145800000Y-99977600D01*
X144200000Y-99977600D01*
X144200000Y-107077600D01*
X143800000Y-107077600D01*
X143800000Y-99977600D01*
X142200000Y-99977600D01*
X142200000Y-107077600D01*
X141800000Y-107077600D01*
X141800000Y-99977600D01*
X140200000Y-99977600D01*
X140200000Y-107077600D01*
X139800000Y-107077600D01*
X139800000Y-99977600D01*
X138200000Y-99977600D01*
X138200000Y-107077600D01*
X137800000Y-107077600D01*
X137800000Y-99977600D01*
X136200000Y-99977600D01*
X136200000Y-107077600D01*
X135800000Y-107077600D01*
X135800000Y-99977600D01*
X134200000Y-99977600D01*
X134200000Y-107077600D01*
X133800000Y-107077600D01*
X133800000Y-99977600D01*
X132200000Y-99977600D01*
X132200000Y-107077600D01*
X131800000Y-107077600D01*
X131800000Y-99977600D01*
X130200000Y-99977600D01*
X130200000Y-107077600D01*
X129800000Y-107077600D01*
X129800000Y-99977600D01*
X128200000Y-99977600D01*
X128200000Y-107077600D01*
X127800000Y-107077600D01*
X127800000Y-99977600D01*
X126200000Y-99977600D01*
X126200000Y-107077600D01*
X125800000Y-107077600D01*
X125800000Y-99577600D01*
X151800000Y-99577600D01*
X151800000Y-99977600D01*
X151800000Y-99977600D01*
G37*
D15*
X125000000Y-107577600D03*
D16*
G36*
X125200000Y-107677600D02*
X126800000Y-107677600D01*
X126800000Y-100577600D01*
X127200000Y-100577600D01*
X127200000Y-107677600D01*
X128800000Y-107677600D01*
X128800000Y-100577600D01*
X129200000Y-100577600D01*
X129200000Y-107677600D01*
X130800000Y-107677600D01*
X130800000Y-100577600D01*
X131200000Y-100577600D01*
X131200000Y-107677600D01*
X132800000Y-107677600D01*
X132800000Y-100577600D01*
X133200000Y-100577600D01*
X133200000Y-107677600D01*
X134800000Y-107677600D01*
X134800000Y-100577600D01*
X135200000Y-100577600D01*
X135200000Y-107677600D01*
X136800000Y-107677600D01*
X136800000Y-100577600D01*
X137200000Y-100577600D01*
X137200000Y-107677600D01*
X138800000Y-107677600D01*
X138800000Y-100577600D01*
X139200000Y-100577600D01*
X139200000Y-107677600D01*
X140800000Y-107677600D01*
X140800000Y-100577600D01*
X141200000Y-100577600D01*
X141200000Y-107677600D01*
X142800000Y-107677600D01*
X142800000Y-100577600D01*
X143200000Y-100577600D01*
X143200000Y-107677600D01*
X144800000Y-107677600D01*
X144800000Y-100577600D01*
X145200000Y-100577600D01*
X145200000Y-107677600D01*
X146800000Y-107677600D01*
X146800000Y-100577600D01*
X147200000Y-100577600D01*
X147200000Y-107677600D01*
X148800000Y-107677600D01*
X148800000Y-100577600D01*
X149200000Y-100577600D01*
X149200000Y-107677600D01*
X150800000Y-107677600D01*
X150800000Y-100577600D01*
X151200000Y-100577600D01*
X151200000Y-108077600D01*
X98800000Y-108077600D01*
X98800000Y-100577600D01*
X99200000Y-100577600D01*
X99200000Y-107677600D01*
X100800000Y-107677600D01*
X100800000Y-100577600D01*
X101200000Y-100577600D01*
X101200000Y-107677600D01*
X102800000Y-107677600D01*
X102800000Y-100577600D01*
X103200000Y-100577600D01*
X103200000Y-107677600D01*
X104800000Y-107677600D01*
X104800000Y-100577600D01*
X105200000Y-100577600D01*
X105200000Y-107677600D01*
X106800000Y-107677600D01*
X106800000Y-100577600D01*
X107200000Y-100577600D01*
X107200000Y-107677600D01*
X108800000Y-107677600D01*
X108800000Y-100577600D01*
X109200000Y-100577600D01*
X109200000Y-107677600D01*
X110800000Y-107677600D01*
X110800000Y-100577600D01*
X111200000Y-100577600D01*
X111200000Y-107677600D01*
X112800000Y-107677600D01*
X112800000Y-100577600D01*
X113200000Y-100577600D01*
X113200000Y-107677600D01*
X114800000Y-107677600D01*
X114800000Y-100577600D01*
X115200000Y-100577600D01*
X115200000Y-107677600D01*
X116800000Y-107677600D01*
X116800000Y-100577600D01*
X117200000Y-100577600D01*
X117200000Y-107677600D01*
X118800000Y-107677600D01*
X118800000Y-100577600D01*
X119200000Y-100577600D01*
X119200000Y-107677600D01*
X120800000Y-107677600D01*
X120800000Y-100577600D01*
X121200000Y-100577600D01*
X121200000Y-107677600D01*
X122800000Y-107677600D01*
X122800000Y-100577600D01*
X123200000Y-100577600D01*
X123200000Y-107677600D01*
X124800000Y-107677600D01*
X124800000Y-99577600D01*
X125200000Y-99577600D01*
X125200000Y-107677600D01*
X125200000Y-107677600D01*
G37*
D15*
X98700000Y-77297000D03*
D16*
G36*
X124200000Y-84597000D02*
X123800000Y-84597000D01*
X123800000Y-77497000D01*
X122200000Y-77497000D01*
X122200000Y-84597000D01*
X121800000Y-84597000D01*
X121800000Y-77497000D01*
X120200000Y-77497000D01*
X120200000Y-84597000D01*
X119800000Y-84597000D01*
X119800000Y-77497000D01*
X118200000Y-77497000D01*
X118200000Y-84597000D01*
X117800000Y-84597000D01*
X117800000Y-77497000D01*
X116200000Y-77497000D01*
X116200000Y-84597000D01*
X115800000Y-84597000D01*
X115800000Y-77497000D01*
X114200000Y-77497000D01*
X114200000Y-84597000D01*
X113800000Y-84597000D01*
X113800000Y-77497000D01*
X112200000Y-77497000D01*
X112200000Y-84597000D01*
X111800000Y-84597000D01*
X111800000Y-77497000D01*
X110200000Y-77497000D01*
X110200000Y-84597000D01*
X109800000Y-84597000D01*
X109800000Y-77497000D01*
X108200000Y-77497000D01*
X108200000Y-84597000D01*
X107800000Y-84597000D01*
X107800000Y-77497000D01*
X106200000Y-77497000D01*
X106200000Y-84597000D01*
X105800000Y-84597000D01*
X105800000Y-77497000D01*
X104200000Y-77497000D01*
X104200000Y-84597000D01*
X103800000Y-84597000D01*
X103800000Y-77497000D01*
X102200000Y-77497000D01*
X102200000Y-84597000D01*
X101800000Y-84597000D01*
X101800000Y-77497000D01*
X100200000Y-77497000D01*
X100200000Y-84597000D01*
X99800000Y-84597000D01*
X99800000Y-77497000D01*
X98200000Y-77497000D01*
X98200000Y-77097000D01*
X124200000Y-77097000D01*
X124200000Y-84597000D01*
X124200000Y-84597000D01*
G37*
D15*
X151300000Y-77297000D03*
D16*
G36*
X151800000Y-77497000D02*
X150200000Y-77497000D01*
X150200000Y-84597000D01*
X149800000Y-84597000D01*
X149800000Y-77497000D01*
X148200000Y-77497000D01*
X148200000Y-84597000D01*
X147800000Y-84597000D01*
X147800000Y-77497000D01*
X146200000Y-77497000D01*
X146200000Y-84597000D01*
X145800000Y-84597000D01*
X145800000Y-77497000D01*
X144200000Y-77497000D01*
X144200000Y-84597000D01*
X143800000Y-84597000D01*
X143800000Y-77497000D01*
X142200000Y-77497000D01*
X142200000Y-84597000D01*
X141800000Y-84597000D01*
X141800000Y-77497000D01*
X140200000Y-77497000D01*
X140200000Y-84597000D01*
X139800000Y-84597000D01*
X139800000Y-77497000D01*
X138200000Y-77497000D01*
X138200000Y-84597000D01*
X137800000Y-84597000D01*
X137800000Y-77497000D01*
X136200000Y-77497000D01*
X136200000Y-84597000D01*
X135800000Y-84597000D01*
X135800000Y-77497000D01*
X134200000Y-77497000D01*
X134200000Y-84597000D01*
X133800000Y-84597000D01*
X133800000Y-77497000D01*
X132200000Y-77497000D01*
X132200000Y-84597000D01*
X131800000Y-84597000D01*
X131800000Y-77497000D01*
X130200000Y-77497000D01*
X130200000Y-84597000D01*
X129800000Y-84597000D01*
X129800000Y-77497000D01*
X128200000Y-77497000D01*
X128200000Y-84597000D01*
X127800000Y-84597000D01*
X127800000Y-77497000D01*
X126200000Y-77497000D01*
X126200000Y-84597000D01*
X125800000Y-84597000D01*
X125800000Y-77097000D01*
X151800000Y-77097000D01*
X151800000Y-77497000D01*
X151800000Y-77497000D01*
G37*
D15*
X125000000Y-85097000D03*
D16*
G36*
X125200000Y-85197000D02*
X126800000Y-85197000D01*
X126800000Y-78097000D01*
X127200000Y-78097000D01*
X127200000Y-85197000D01*
X128800000Y-85197000D01*
X128800000Y-78097000D01*
X129200000Y-78097000D01*
X129200000Y-85197000D01*
X130800000Y-85197000D01*
X130800000Y-78097000D01*
X131200000Y-78097000D01*
X131200000Y-85197000D01*
X132800000Y-85197000D01*
X132800000Y-78097000D01*
X133200000Y-78097000D01*
X133200000Y-85197000D01*
X134800000Y-85197000D01*
X134800000Y-78097000D01*
X135200000Y-78097000D01*
X135200000Y-85197000D01*
X136800000Y-85197000D01*
X136800000Y-78097000D01*
X137200000Y-78097000D01*
X137200000Y-85197000D01*
X138800000Y-85197000D01*
X138800000Y-78097000D01*
X139200000Y-78097000D01*
X139200000Y-85197000D01*
X140800000Y-85197000D01*
X140800000Y-78097000D01*
X141200000Y-78097000D01*
X141200000Y-85197000D01*
X142800000Y-85197000D01*
X142800000Y-78097000D01*
X143200000Y-78097000D01*
X143200000Y-85197000D01*
X144800000Y-85197000D01*
X144800000Y-78097000D01*
X145200000Y-78097000D01*
X145200000Y-85197000D01*
X146800000Y-85197000D01*
X146800000Y-78097000D01*
X147200000Y-78097000D01*
X147200000Y-85197000D01*
X148800000Y-85197000D01*
X148800000Y-78097000D01*
X149200000Y-78097000D01*
X149200000Y-85197000D01*
X150800000Y-85197000D01*
X150800000Y-78097000D01*
X151200000Y-78097000D01*
X151200000Y-85597000D01*
X98800000Y-85597000D01*
X98800000Y-78097000D01*
X99200000Y-78097000D01*
X99200000Y-85197000D01*
X100800000Y-85197000D01*
X100800000Y-78097000D01*
X101200000Y-78097000D01*
X101200000Y-85197000D01*
X102800000Y-85197000D01*
X102800000Y-78097000D01*
X103200000Y-78097000D01*
X103200000Y-85197000D01*
X104800000Y-85197000D01*
X104800000Y-78097000D01*
X105200000Y-78097000D01*
X105200000Y-85197000D01*
X106800000Y-85197000D01*
X106800000Y-78097000D01*
X107200000Y-78097000D01*
X107200000Y-85197000D01*
X108800000Y-85197000D01*
X108800000Y-78097000D01*
X109200000Y-78097000D01*
X109200000Y-85197000D01*
X110800000Y-85197000D01*
X110800000Y-78097000D01*
X111200000Y-78097000D01*
X111200000Y-85197000D01*
X112800000Y-85197000D01*
X112800000Y-78097000D01*
X113200000Y-78097000D01*
X113200000Y-85197000D01*
X114800000Y-85197000D01*
X114800000Y-78097000D01*
X115200000Y-78097000D01*
X115200000Y-85197000D01*
X116800000Y-85197000D01*
X116800000Y-78097000D01*
X117200000Y-78097000D01*
X117200000Y-85197000D01*
X118800000Y-85197000D01*
X118800000Y-78097000D01*
X119200000Y-78097000D01*
X119200000Y-85197000D01*
X120800000Y-85197000D01*
X120800000Y-78097000D01*
X121200000Y-78097000D01*
X121200000Y-85197000D01*
X122800000Y-85197000D01*
X122800000Y-78097000D01*
X123200000Y-78097000D01*
X123200000Y-85197000D01*
X124800000Y-85197000D01*
X124800000Y-77097000D01*
X125200000Y-77097000D01*
X125200000Y-85197000D01*
X125200000Y-85197000D01*
G37*
D15*
X125000000Y-62616400D03*
D16*
G36*
X125200000Y-62716400D02*
X126800000Y-62716400D01*
X126800000Y-55616400D01*
X127200000Y-55616400D01*
X127200000Y-62716400D01*
X128800000Y-62716400D01*
X128800000Y-55616400D01*
X129200000Y-55616400D01*
X129200000Y-62716400D01*
X130800000Y-62716400D01*
X130800000Y-55616400D01*
X131200000Y-55616400D01*
X131200000Y-62716400D01*
X132800000Y-62716400D01*
X132800000Y-55616400D01*
X133200000Y-55616400D01*
X133200000Y-62716400D01*
X134800000Y-62716400D01*
X134800000Y-55616400D01*
X135200000Y-55616400D01*
X135200000Y-62716400D01*
X136800000Y-62716400D01*
X136800000Y-55616400D01*
X137200000Y-55616400D01*
X137200000Y-62716400D01*
X138800000Y-62716400D01*
X138800000Y-55616400D01*
X139200000Y-55616400D01*
X139200000Y-62716400D01*
X140800000Y-62716400D01*
X140800000Y-55616400D01*
X141200000Y-55616400D01*
X141200000Y-62716400D01*
X142800000Y-62716400D01*
X142800000Y-55616400D01*
X143200000Y-55616400D01*
X143200000Y-62716400D01*
X144800000Y-62716400D01*
X144800000Y-55616400D01*
X145200000Y-55616400D01*
X145200000Y-62716400D01*
X146800000Y-62716400D01*
X146800000Y-55616400D01*
X147200000Y-55616400D01*
X147200000Y-62716400D01*
X148800000Y-62716400D01*
X148800000Y-55616400D01*
X149200000Y-55616400D01*
X149200000Y-62716400D01*
X150800000Y-62716400D01*
X150800000Y-55616400D01*
X151200000Y-55616400D01*
X151200000Y-63116400D01*
X98800000Y-63116400D01*
X98800000Y-55616400D01*
X99200000Y-55616400D01*
X99200000Y-62716400D01*
X100800000Y-62716400D01*
X100800000Y-55616400D01*
X101200000Y-55616400D01*
X101200000Y-62716400D01*
X102800000Y-62716400D01*
X102800000Y-55616400D01*
X103200000Y-55616400D01*
X103200000Y-62716400D01*
X104800000Y-62716400D01*
X104800000Y-55616400D01*
X105200000Y-55616400D01*
X105200000Y-62716400D01*
X106800000Y-62716400D01*
X106800000Y-55616400D01*
X107200000Y-55616400D01*
X107200000Y-62716400D01*
X108800000Y-62716400D01*
X108800000Y-55616400D01*
X109200000Y-55616400D01*
X109200000Y-62716400D01*
X110800000Y-62716400D01*
X110800000Y-55616400D01*
X111200000Y-55616400D01*
X111200000Y-62716400D01*
X112800000Y-62716400D01*
X112800000Y-55616400D01*
X113200000Y-55616400D01*
X113200000Y-62716400D01*
X114800000Y-62716400D01*
X114800000Y-55616400D01*
X115200000Y-55616400D01*
X115200000Y-62716400D01*
X116800000Y-62716400D01*
X116800000Y-55616400D01*
X117200000Y-55616400D01*
X117200000Y-62716400D01*
X118800000Y-62716400D01*
X118800000Y-55616400D01*
X119200000Y-55616400D01*
X119200000Y-62716400D01*
X120800000Y-62716400D01*
X120800000Y-55616400D01*
X121200000Y-55616400D01*
X121200000Y-62716400D01*
X122800000Y-62716400D01*
X122800000Y-55616400D01*
X123200000Y-55616400D01*
X123200000Y-62716400D01*
X124800000Y-62716400D01*
X124800000Y-54616400D01*
X125200000Y-54616400D01*
X125200000Y-62716400D01*
X125200000Y-62716400D01*
G37*
D15*
X151300000Y-54816400D03*
D16*
G36*
X151800000Y-55016400D02*
X150200000Y-55016400D01*
X150200000Y-62116400D01*
X149800000Y-62116400D01*
X149800000Y-55016400D01*
X148200000Y-55016400D01*
X148200000Y-62116400D01*
X147800000Y-62116400D01*
X147800000Y-55016400D01*
X146200000Y-55016400D01*
X146200000Y-62116400D01*
X145800000Y-62116400D01*
X145800000Y-55016400D01*
X144200000Y-55016400D01*
X144200000Y-62116400D01*
X143800000Y-62116400D01*
X143800000Y-55016400D01*
X142200000Y-55016400D01*
X142200000Y-62116400D01*
X141800000Y-62116400D01*
X141800000Y-55016400D01*
X140200000Y-55016400D01*
X140200000Y-62116400D01*
X139800000Y-62116400D01*
X139800000Y-55016400D01*
X138200000Y-55016400D01*
X138200000Y-62116400D01*
X137800000Y-62116400D01*
X137800000Y-55016400D01*
X136200000Y-55016400D01*
X136200000Y-62116400D01*
X135800000Y-62116400D01*
X135800000Y-55016400D01*
X134200000Y-55016400D01*
X134200000Y-62116400D01*
X133800000Y-62116400D01*
X133800000Y-55016400D01*
X132200000Y-55016400D01*
X132200000Y-62116400D01*
X131800000Y-62116400D01*
X131800000Y-55016400D01*
X130200000Y-55016400D01*
X130200000Y-62116400D01*
X129800000Y-62116400D01*
X129800000Y-55016400D01*
X128200000Y-55016400D01*
X128200000Y-62116400D01*
X127800000Y-62116400D01*
X127800000Y-55016400D01*
X126200000Y-55016400D01*
X126200000Y-62116400D01*
X125800000Y-62116400D01*
X125800000Y-54616400D01*
X151800000Y-54616400D01*
X151800000Y-55016400D01*
X151800000Y-55016400D01*
G37*
D15*
X98700000Y-54816400D03*
D16*
G36*
X124200000Y-62116400D02*
X123800000Y-62116400D01*
X123800000Y-55016400D01*
X122200000Y-55016400D01*
X122200000Y-62116400D01*
X121800000Y-62116400D01*
X121800000Y-55016400D01*
X120200000Y-55016400D01*
X120200000Y-62116400D01*
X119800000Y-62116400D01*
X119800000Y-55016400D01*
X118200000Y-55016400D01*
X118200000Y-62116400D01*
X117800000Y-62116400D01*
X117800000Y-55016400D01*
X116200000Y-55016400D01*
X116200000Y-62116400D01*
X115800000Y-62116400D01*
X115800000Y-55016400D01*
X114200000Y-55016400D01*
X114200000Y-62116400D01*
X113800000Y-62116400D01*
X113800000Y-55016400D01*
X112200000Y-55016400D01*
X112200000Y-62116400D01*
X111800000Y-62116400D01*
X111800000Y-55016400D01*
X110200000Y-55016400D01*
X110200000Y-62116400D01*
X109800000Y-62116400D01*
X109800000Y-55016400D01*
X108200000Y-55016400D01*
X108200000Y-62116400D01*
X107800000Y-62116400D01*
X107800000Y-55016400D01*
X106200000Y-55016400D01*
X106200000Y-62116400D01*
X105800000Y-62116400D01*
X105800000Y-55016400D01*
X104200000Y-55016400D01*
X104200000Y-62116400D01*
X103800000Y-62116400D01*
X103800000Y-55016400D01*
X102200000Y-55016400D01*
X102200000Y-62116400D01*
X101800000Y-62116400D01*
X101800000Y-55016400D01*
X100200000Y-55016400D01*
X100200000Y-62116400D01*
X99800000Y-62116400D01*
X99800000Y-55016400D01*
X98200000Y-55016400D01*
X98200000Y-54616400D01*
X124200000Y-54616400D01*
X124200000Y-62116400D01*
X124200000Y-62116400D01*
G37*
D15*
X125000000Y-40135800D03*
D16*
G36*
X125200000Y-40235800D02*
X126800000Y-40235800D01*
X126800000Y-33135800D01*
X127200000Y-33135800D01*
X127200000Y-40235800D01*
X128800000Y-40235800D01*
X128800000Y-33135800D01*
X129200000Y-33135800D01*
X129200000Y-40235800D01*
X130800000Y-40235800D01*
X130800000Y-33135800D01*
X131200000Y-33135800D01*
X131200000Y-40235800D01*
X132800000Y-40235800D01*
X132800000Y-33135800D01*
X133200000Y-33135800D01*
X133200000Y-40235800D01*
X134800000Y-40235800D01*
X134800000Y-33135800D01*
X135200000Y-33135800D01*
X135200000Y-40235800D01*
X136800000Y-40235800D01*
X136800000Y-33135800D01*
X137200000Y-33135800D01*
X137200000Y-40235800D01*
X138800000Y-40235800D01*
X138800000Y-33135800D01*
X139200000Y-33135800D01*
X139200000Y-40235800D01*
X140800000Y-40235800D01*
X140800000Y-33135800D01*
X141200000Y-33135800D01*
X141200000Y-40235800D01*
X142800000Y-40235800D01*
X142800000Y-33135800D01*
X143200000Y-33135800D01*
X143200000Y-40235800D01*
X144800000Y-40235800D01*
X144800000Y-33135800D01*
X145200000Y-33135800D01*
X145200000Y-40235800D01*
X146800000Y-40235800D01*
X146800000Y-33135800D01*
X147200000Y-33135800D01*
X147200000Y-40235800D01*
X148800000Y-40235800D01*
X148800000Y-33135800D01*
X149200000Y-33135800D01*
X149200000Y-40235800D01*
X150800000Y-40235800D01*
X150800000Y-33135800D01*
X151200000Y-33135800D01*
X151200000Y-40635800D01*
X98800000Y-40635800D01*
X98800000Y-33135800D01*
X99200000Y-33135800D01*
X99200000Y-40235800D01*
X100800000Y-40235800D01*
X100800000Y-33135800D01*
X101200000Y-33135800D01*
X101200000Y-40235800D01*
X102800000Y-40235800D01*
X102800000Y-33135800D01*
X103200000Y-33135800D01*
X103200000Y-40235800D01*
X104800000Y-40235800D01*
X104800000Y-33135800D01*
X105200000Y-33135800D01*
X105200000Y-40235800D01*
X106800000Y-40235800D01*
X106800000Y-33135800D01*
X107200000Y-33135800D01*
X107200000Y-40235800D01*
X108800000Y-40235800D01*
X108800000Y-33135800D01*
X109200000Y-33135800D01*
X109200000Y-40235800D01*
X110800000Y-40235800D01*
X110800000Y-33135800D01*
X111200000Y-33135800D01*
X111200000Y-40235800D01*
X112800000Y-40235800D01*
X112800000Y-33135800D01*
X113200000Y-33135800D01*
X113200000Y-40235800D01*
X114800000Y-40235800D01*
X114800000Y-33135800D01*
X115200000Y-33135800D01*
X115200000Y-40235800D01*
X116800000Y-40235800D01*
X116800000Y-33135800D01*
X117200000Y-33135800D01*
X117200000Y-40235800D01*
X118800000Y-40235800D01*
X118800000Y-33135800D01*
X119200000Y-33135800D01*
X119200000Y-40235800D01*
X120800000Y-40235800D01*
X120800000Y-33135800D01*
X121200000Y-33135800D01*
X121200000Y-40235800D01*
X122800000Y-40235800D01*
X122800000Y-33135800D01*
X123200000Y-33135800D01*
X123200000Y-40235800D01*
X124800000Y-40235800D01*
X124800000Y-32135800D01*
X125200000Y-32135800D01*
X125200000Y-40235800D01*
X125200000Y-40235800D01*
G37*
D15*
X151300000Y-32335800D03*
D16*
G36*
X151800000Y-32535800D02*
X150200000Y-32535800D01*
X150200000Y-39635800D01*
X149800000Y-39635800D01*
X149800000Y-32535800D01*
X148200000Y-32535800D01*
X148200000Y-39635800D01*
X147800000Y-39635800D01*
X147800000Y-32535800D01*
X146200000Y-32535800D01*
X146200000Y-39635800D01*
X145800000Y-39635800D01*
X145800000Y-32535800D01*
X144200000Y-32535800D01*
X144200000Y-39635800D01*
X143800000Y-39635800D01*
X143800000Y-32535800D01*
X142200000Y-32535800D01*
X142200000Y-39635800D01*
X141800000Y-39635800D01*
X141800000Y-32535800D01*
X140200000Y-32535800D01*
X140200000Y-39635800D01*
X139800000Y-39635800D01*
X139800000Y-32535800D01*
X138200000Y-32535800D01*
X138200000Y-39635800D01*
X137800000Y-39635800D01*
X137800000Y-32535800D01*
X136200000Y-32535800D01*
X136200000Y-39635800D01*
X135800000Y-39635800D01*
X135800000Y-32535800D01*
X134200000Y-32535800D01*
X134200000Y-39635800D01*
X133800000Y-39635800D01*
X133800000Y-32535800D01*
X132200000Y-32535800D01*
X132200000Y-39635800D01*
X131800000Y-39635800D01*
X131800000Y-32535800D01*
X130200000Y-32535800D01*
X130200000Y-39635800D01*
X129800000Y-39635800D01*
X129800000Y-32535800D01*
X128200000Y-32535800D01*
X128200000Y-39635800D01*
X127800000Y-39635800D01*
X127800000Y-32535800D01*
X126200000Y-32535800D01*
X126200000Y-39635800D01*
X125800000Y-39635800D01*
X125800000Y-32135800D01*
X151800000Y-32135800D01*
X151800000Y-32535800D01*
X151800000Y-32535800D01*
G37*
D15*
X98700000Y-32335800D03*
D16*
G36*
X124200000Y-39635800D02*
X123800000Y-39635800D01*
X123800000Y-32535800D01*
X122200000Y-32535800D01*
X122200000Y-39635800D01*
X121800000Y-39635800D01*
X121800000Y-32535800D01*
X120200000Y-32535800D01*
X120200000Y-39635800D01*
X119800000Y-39635800D01*
X119800000Y-32535800D01*
X118200000Y-32535800D01*
X118200000Y-39635800D01*
X117800000Y-39635800D01*
X117800000Y-32535800D01*
X116200000Y-32535800D01*
X116200000Y-39635800D01*
X115800000Y-39635800D01*
X115800000Y-32535800D01*
X114200000Y-32535800D01*
X114200000Y-39635800D01*
X113800000Y-39635800D01*
X113800000Y-32535800D01*
X112200000Y-32535800D01*
X112200000Y-39635800D01*
X111800000Y-39635800D01*
X111800000Y-32535800D01*
X110200000Y-32535800D01*
X110200000Y-39635800D01*
X109800000Y-39635800D01*
X109800000Y-32535800D01*
X108200000Y-32535800D01*
X108200000Y-39635800D01*
X107800000Y-39635800D01*
X107800000Y-32535800D01*
X106200000Y-32535800D01*
X106200000Y-39635800D01*
X105800000Y-39635800D01*
X105800000Y-32535800D01*
X104200000Y-32535800D01*
X104200000Y-39635800D01*
X103800000Y-39635800D01*
X103800000Y-32535800D01*
X102200000Y-32535800D01*
X102200000Y-39635800D01*
X101800000Y-39635800D01*
X101800000Y-32535800D01*
X100200000Y-32535800D01*
X100200000Y-39635800D01*
X99800000Y-39635800D01*
X99800000Y-32535800D01*
X98200000Y-32535800D01*
X98200000Y-32135800D01*
X124200000Y-32135800D01*
X124200000Y-39635800D01*
X124200000Y-39635800D01*
G37*
D17*
X157575496Y-221225496D03*
X152645016Y-215895016D03*
X152830000Y-99780000D03*
X158030000Y-31780000D03*
X136530000Y-225305000D03*
X152930000Y-77280000D03*
X155430000Y-31880000D03*
X154130000Y-53580000D03*
X154305000Y-29180000D03*
X158869040Y-208080000D03*
X153180000Y-32380000D03*
X94230000Y-30880000D03*
X96330000Y-99780000D03*
X97130000Y-77180000D03*
X96984504Y-30534504D03*
X105730000Y-218780000D03*
X91354970Y-54780000D03*
X97030000Y-54780000D03*
X96330000Y-32480000D03*
X105230000Y-214205000D03*
X112430000Y-207680000D03*
X105330000Y-201657104D03*
X97130000Y-122280000D03*
X96451809Y-200500579D03*
X111155000Y-203080000D03*
X97130000Y-144780000D03*
X96404175Y-198862638D03*
X97330000Y-167380000D03*
X97430000Y-189780000D03*
X97761210Y-198518456D03*
X152530000Y-122280000D03*
X156619039Y-198604314D03*
X140511997Y-214761997D03*
X141330000Y-211655000D03*
X152630000Y-144780000D03*
X155223964Y-198486959D03*
X152530000Y-167380000D03*
X153827786Y-198383554D03*
X151830000Y-213005000D03*
X151430000Y-209880000D03*
X152430000Y-189780000D03*
X152428708Y-198332698D03*
D18*
X157575496Y-221225496D02*
X152645016Y-216295016D01*
X152645016Y-216295016D02*
X152645016Y-215895016D01*
X152954024Y-215895016D02*
X152645016Y-215895016D01*
X152264315Y-99780000D02*
X151330000Y-99780000D01*
X152830000Y-99780000D02*
X152264315Y-99780000D01*
X153032075Y-18679980D02*
X158030000Y-23677905D01*
X158030000Y-23677905D02*
X158030000Y-31780000D01*
X137504180Y-18679980D02*
X153032075Y-18679980D01*
X135210000Y-16385800D02*
X137504180Y-18679980D01*
X134730000Y-222980000D02*
X134745000Y-222965000D01*
X134745000Y-222965000D02*
X134745000Y-220492501D01*
X136130001Y-224380001D02*
X134730000Y-222980000D01*
X136530000Y-225305000D02*
X136130001Y-224905001D01*
X136130001Y-224905001D02*
X136130001Y-224380001D01*
X152364315Y-77280000D02*
X151330000Y-77280000D01*
X152930000Y-77280000D02*
X152364315Y-77280000D01*
X152679990Y-19529990D02*
X155430000Y-22280000D01*
X155430000Y-22280000D02*
X155430000Y-31880000D01*
X132670000Y-16385800D02*
X135814190Y-19529990D01*
X135814190Y-19529990D02*
X152679990Y-19529990D01*
X152530000Y-53480000D02*
X154030000Y-53480000D01*
X154030000Y-53480000D02*
X154130000Y-53580000D01*
X154430000Y-28880000D02*
X154430000Y-29055000D01*
X154430000Y-29055000D02*
X154305000Y-29180000D01*
X141030000Y-26580000D02*
X152130000Y-26580000D01*
X152130000Y-26580000D02*
X154430000Y-28880000D01*
X134159999Y-216852502D02*
X133360000Y-217652501D01*
X158869040Y-208080000D02*
X150821540Y-216127500D01*
X150821540Y-216127500D02*
X134885001Y-216127500D01*
X134885001Y-216127500D02*
X134159999Y-216852502D01*
X151330000Y-54721078D02*
X151559461Y-54950539D01*
X152530000Y-53480000D02*
X151964315Y-53480000D01*
X151964315Y-53480000D02*
X151330000Y-54114315D01*
X151330000Y-54114315D02*
X151330000Y-54721078D01*
X139430000Y-24980000D02*
X141030000Y-26580000D01*
X139430000Y-21880000D02*
X139430000Y-24980000D01*
X137930000Y-20380000D02*
X139430000Y-21880000D01*
X131630000Y-20380000D02*
X137930000Y-20380000D01*
X130130000Y-18880000D02*
X131630000Y-20380000D01*
X130130000Y-16385800D02*
X130130000Y-18880000D01*
X151449761Y-32360239D02*
X153160239Y-32360239D01*
X153160239Y-32360239D02*
X153180000Y-32380000D01*
X130260790Y-31410790D02*
X140730000Y-31410790D01*
X140730000Y-31410790D02*
X150500312Y-31410790D01*
X150500312Y-31410790D02*
X151449761Y-32360239D01*
X128030000Y-29180000D02*
X130260790Y-31410790D01*
X128030000Y-17886460D02*
X128030000Y-29180000D01*
X127590000Y-16385800D02*
X127590000Y-17446460D01*
X127590000Y-17446460D02*
X128030000Y-17886460D01*
D19*
X126530000Y-188080000D02*
X126088612Y-188080000D01*
X126088612Y-188080000D02*
X125000010Y-189168602D01*
X125000010Y-189168602D02*
X125000010Y-189168622D01*
X129030000Y-185580000D02*
X126530000Y-188080000D01*
X129030000Y-181580000D02*
X129030000Y-185580000D01*
X125074990Y-177624990D02*
X129030000Y-181580000D01*
X125074990Y-176080000D02*
X125074990Y-176324990D01*
X125074990Y-175340000D02*
X125074990Y-176080000D01*
X125074990Y-176080000D02*
X125074990Y-177624990D01*
X121030000Y-158580000D02*
X121030000Y-163080000D01*
X121030000Y-163080000D02*
X124169390Y-166219390D01*
X125030000Y-154580000D02*
X121030000Y-158580000D01*
X125030000Y-152870000D02*
X125030000Y-154580000D01*
X124169390Y-166219390D02*
X124779390Y-166219390D01*
X124779390Y-166219390D02*
X125030000Y-166470000D01*
X125030000Y-166470000D02*
X125030000Y-166764078D01*
X127030000Y-134580000D02*
X129030000Y-136580000D01*
X126030000Y-134580000D02*
X127030000Y-134580000D01*
X124970000Y-133520000D02*
X126030000Y-134580000D01*
X124970000Y-130440000D02*
X124970000Y-133520000D01*
X129030000Y-136580000D02*
X129030000Y-139580000D01*
X129030000Y-139580000D02*
X125030000Y-143580000D01*
X125030000Y-143580000D02*
X125030000Y-143940000D01*
X124921388Y-189090000D02*
X125050000Y-189090000D01*
X125050000Y-189120000D02*
X124951388Y-189120000D01*
X124951388Y-189120000D02*
X125000010Y-189168622D01*
X125030000Y-107630000D02*
X125030000Y-110580000D01*
X124531378Y-121258190D02*
X125030000Y-121756812D01*
X125030000Y-110580000D02*
X121530000Y-114080000D01*
X121530000Y-114080000D02*
X121530000Y-119080000D01*
X121530000Y-119080000D02*
X123708190Y-121258190D01*
X123708190Y-121258190D02*
X124531378Y-121258190D01*
X125030000Y-121756812D02*
X125030000Y-121780000D01*
X129030000Y-93580000D02*
X125000000Y-97610000D01*
X125000000Y-97610000D02*
X125000000Y-99246212D01*
X129030000Y-92080000D02*
X129030000Y-93580000D01*
X125030000Y-88080000D02*
X129030000Y-92080000D01*
X125030000Y-85280000D02*
X125030000Y-88080000D01*
X121030000Y-68580000D02*
X121030000Y-72795612D01*
X121030000Y-72795612D02*
X124668302Y-76433914D01*
X124930000Y-64680000D02*
X121030000Y-68580000D01*
X124930000Y-63130000D02*
X124930000Y-64680000D01*
X125000000Y-54135000D02*
X125055000Y-54080000D01*
X125055000Y-54080000D02*
X125355000Y-53780000D01*
X129030000Y-46080000D02*
X129030000Y-50105000D01*
X129030000Y-50105000D02*
X125055000Y-54080000D01*
X124930000Y-41980000D02*
X129030000Y-46080000D01*
X124930000Y-40280000D02*
X124930000Y-41980000D01*
X121530000Y-24080000D02*
X125050000Y-20560000D01*
X125050000Y-20560000D02*
X125050000Y-16385800D01*
X121530000Y-27580000D02*
X121530000Y-24080000D01*
X124531378Y-30581378D02*
X121530000Y-27580000D01*
X124780000Y-31584412D02*
X124531378Y-31335790D01*
X124531378Y-31335790D02*
X124531378Y-30581378D01*
X125000010Y-189390000D02*
X125000010Y-189480000D01*
X125000010Y-189168622D02*
X125000010Y-189390000D01*
X125000010Y-189168622D02*
X125000000Y-189168612D01*
D18*
X125050000Y-189400000D02*
X125050000Y-189120000D01*
D19*
X125050000Y-189120000D02*
X125050000Y-189090000D01*
D18*
X125074990Y-175340000D02*
X125074990Y-174924990D01*
D19*
X125000010Y-166789990D02*
X125000010Y-166980000D01*
X125030000Y-166764078D02*
X125025922Y-166764078D01*
X125025922Y-166764078D02*
X125000010Y-166789990D01*
D18*
X125030000Y-152870000D02*
X125030000Y-152280000D01*
D19*
X125030000Y-144177412D02*
X125000010Y-144207402D01*
X125030000Y-143940000D02*
X125030000Y-144177412D01*
D18*
X125030000Y-152280000D02*
X125030000Y-143940000D01*
D19*
X125000010Y-144207402D02*
X125000010Y-144530000D01*
X125000010Y-121726822D02*
X125000010Y-122040000D01*
X125000010Y-121726822D02*
X124711594Y-121438406D01*
X125000010Y-121750010D02*
X125000010Y-121726822D01*
X125000010Y-99379990D02*
X125000010Y-99520000D01*
X125030000Y-99322278D02*
X125030000Y-99350000D01*
X125030000Y-99350000D02*
X125000010Y-99379990D01*
X125030000Y-98700000D02*
X125030000Y-99216212D01*
D18*
X125000000Y-99246212D02*
X125030000Y-107630000D01*
D19*
X125030000Y-99322278D02*
X125030000Y-99216212D01*
X125030000Y-99216212D02*
X125000000Y-99246212D01*
X125000000Y-54570000D02*
X125000000Y-54135000D01*
D18*
X125030000Y-62380000D02*
X125000000Y-54570000D01*
X125000000Y-54570000D02*
X125030000Y-60530000D01*
X125030000Y-60530000D02*
X124930000Y-60630000D01*
X124930000Y-60630000D02*
X124930000Y-63130000D01*
X125068590Y-62841410D02*
X125068590Y-62730000D01*
X125068590Y-62730000D02*
X125068590Y-62418590D01*
X124930000Y-62868590D02*
X125068590Y-62730000D01*
X124930000Y-63130000D02*
X124930000Y-62868590D01*
X124930000Y-63130000D02*
X124925010Y-63125010D01*
X124925010Y-62984990D02*
X125030000Y-62880000D01*
X124925010Y-63125010D02*
X124925010Y-62984990D01*
X124930000Y-62980000D02*
X124930000Y-63130000D01*
X125030000Y-62880000D02*
X125030000Y-62380000D01*
X124930000Y-62980000D02*
X125068590Y-62841410D01*
X125068590Y-62418590D02*
X125030000Y-62380000D01*
D19*
X124930000Y-62980000D02*
X125030000Y-62880000D01*
D18*
X125030000Y-39980000D02*
X124999990Y-32130000D01*
D19*
X124780000Y-31530000D02*
X124780000Y-31584412D01*
X124999990Y-31804422D02*
X124999990Y-32130000D01*
X124780000Y-31584412D02*
X125000000Y-31804412D01*
X125000000Y-31804412D02*
X124999990Y-31804422D01*
D18*
X125030000Y-107630000D02*
X125030000Y-108030000D01*
X125074990Y-85324990D02*
X124999990Y-77040000D01*
D19*
X124668302Y-76433914D02*
X125000000Y-76765612D01*
X124999990Y-76765622D02*
X124999990Y-77040000D01*
X125000000Y-76765612D02*
X124999990Y-76765622D01*
D18*
X124930000Y-40280000D02*
X124930000Y-40080000D01*
X124930000Y-40080000D02*
X125030000Y-39980000D01*
X125230000Y-85480000D02*
X125074990Y-85324990D01*
X125030000Y-85280000D02*
X125230000Y-85480000D01*
X124930000Y-85180000D02*
X125030000Y-85280000D01*
X125030000Y-121780000D02*
X125030000Y-129580000D01*
X125030000Y-130080000D02*
X125030000Y-129580000D01*
X125030000Y-129580000D02*
X124930000Y-129480000D01*
X125330000Y-130380000D02*
X125030000Y-130080000D01*
X125030000Y-174880000D02*
X125030000Y-166764078D01*
X125074990Y-174924990D02*
X125030000Y-174880000D01*
X125050000Y-197381388D02*
X125050000Y-189400000D01*
D19*
X125050000Y-198080000D02*
X125050000Y-197381388D01*
D18*
X125050000Y-198080000D02*
X125050000Y-198480000D01*
D19*
X125050000Y-213750000D02*
X125050000Y-198080000D01*
D18*
X125050000Y-197381388D02*
X125050000Y-196100000D01*
X125050000Y-196100000D02*
X125030000Y-196080000D01*
D19*
X124999990Y-197331378D02*
X125050000Y-197381388D01*
X125050000Y-213750000D02*
X125050000Y-217652501D01*
D18*
X108024200Y-16385800D02*
X108024200Y-17085800D01*
X108024200Y-17085800D02*
X94230000Y-30880000D01*
X98830000Y-99780000D02*
X98930000Y-99680000D01*
X96330000Y-99780000D02*
X98830000Y-99780000D01*
X114890000Y-16385800D02*
X108024200Y-16385800D01*
X97795685Y-77280000D02*
X98591678Y-77280000D01*
X97130000Y-77180000D02*
X97695685Y-77180000D01*
X97695685Y-77180000D02*
X97795685Y-77280000D01*
X104105030Y-29710770D02*
X97434228Y-29710770D01*
X97434228Y-29710770D02*
X96984504Y-30160494D01*
X96984504Y-30160494D02*
X96984504Y-30534504D01*
X117430000Y-16385800D02*
X104105030Y-29710770D01*
X105730000Y-218780000D02*
X105730000Y-219380000D01*
X105730000Y-219380000D02*
X106842501Y-220492501D01*
X97030000Y-54780000D02*
X91354970Y-54780000D01*
X106842501Y-220492501D02*
X109815000Y-220492501D01*
X98730000Y-54780000D02*
X98830000Y-54880000D01*
X97030000Y-54780000D02*
X98730000Y-54780000D01*
X98549220Y-30560780D02*
X96630000Y-32480000D01*
X96630000Y-32480000D02*
X96330000Y-32480000D01*
X119970000Y-16385800D02*
X105795020Y-30560780D01*
X105795020Y-30560780D02*
X98549220Y-30560780D01*
X105230000Y-214205000D02*
X107330000Y-216305000D01*
X107330000Y-216305000D02*
X107330000Y-216552501D01*
X109230000Y-208080000D02*
X109130000Y-208180000D01*
X109130000Y-208180000D02*
X108030000Y-209280000D01*
X112430000Y-207680000D02*
X109630000Y-207680000D01*
X109630000Y-207680000D02*
X109130000Y-208180000D01*
X107330000Y-212180000D02*
X107330000Y-216552501D01*
X107330000Y-216552501D02*
X108430000Y-217652501D01*
X108030000Y-211480000D02*
X107330000Y-212180000D01*
X108030000Y-209280000D02*
X108030000Y-211480000D01*
X99499688Y-31410790D02*
X98580239Y-32330239D01*
X122510000Y-19100000D02*
X110199210Y-31410790D01*
X110199210Y-31410790D02*
X99499688Y-31410790D01*
X122510000Y-16385800D02*
X122510000Y-19100000D01*
X114830000Y-203680000D02*
X112707104Y-201657104D01*
X112707104Y-201657104D02*
X105330000Y-201657104D01*
X114890000Y-203742094D02*
X114830000Y-203680000D01*
X114890000Y-213750000D02*
X114890000Y-203742094D01*
X98541439Y-122291439D02*
X98591439Y-122241439D01*
X98530000Y-122280000D02*
X98541439Y-122291439D01*
X97130000Y-122280000D02*
X98530000Y-122280000D01*
X114890000Y-213750000D02*
X113970000Y-214670000D01*
X113970000Y-214670000D02*
X113970000Y-217652501D01*
X112882104Y-200532104D02*
X96930000Y-200532104D01*
X96898475Y-200500579D02*
X96930000Y-200532104D01*
X96930000Y-200532104D02*
X96482649Y-200532104D01*
X96451809Y-200500579D02*
X96898475Y-200500579D01*
X111155000Y-203080000D02*
X103427905Y-203080000D01*
X114555001Y-221292500D02*
X115355000Y-220492501D01*
X103427905Y-203080000D02*
X100979990Y-205527915D01*
X100979990Y-205527915D02*
X100979990Y-213832085D01*
X113829999Y-222017502D02*
X114555001Y-221292500D01*
X100979990Y-213832085D02*
X104379990Y-217232085D01*
X104379990Y-217232085D02*
X104379990Y-219232085D01*
X107165407Y-222017502D02*
X113829999Y-222017502D01*
X104379990Y-219232085D02*
X107165407Y-222017502D01*
X117430000Y-204984188D02*
X115242084Y-202796272D01*
X115242084Y-202796272D02*
X115146272Y-202796272D01*
X115146272Y-202796272D02*
X112882104Y-200532104D01*
X98631739Y-144681739D02*
X98681739Y-144631739D01*
X98533478Y-144780000D02*
X98631739Y-144681739D01*
X97130000Y-144780000D02*
X98533478Y-144780000D01*
X117430000Y-212689340D02*
X117430000Y-204984188D01*
X117430000Y-213750000D02*
X117430000Y-212689340D01*
X119970000Y-213750000D02*
X119970000Y-206480000D01*
X119970000Y-206480000D02*
X119970000Y-206322094D01*
X119970000Y-206480000D02*
X119970000Y-206322093D01*
X119970000Y-206322093D02*
X113330001Y-199682094D01*
X113330001Y-199682094D02*
X97223631Y-199682094D01*
X97223631Y-199682094D02*
X96404175Y-198862638D01*
X98430000Y-167380000D02*
X98730000Y-167080000D01*
X97330000Y-167380000D02*
X98430000Y-167380000D01*
X119970000Y-213750000D02*
X116740000Y-216980000D01*
X116740000Y-216980000D02*
X116740000Y-217652501D01*
X97761210Y-198518456D02*
X96747480Y-197504726D01*
X96747480Y-197504726D02*
X92540272Y-197504726D01*
X92540272Y-197504726D02*
X91704999Y-198339999D01*
X91704999Y-198339999D02*
X91704999Y-213310502D01*
X115749989Y-222867512D02*
X117325001Y-221292500D01*
X91704999Y-213310502D02*
X101262009Y-222867512D01*
X101262009Y-222867512D02*
X115749989Y-222867512D01*
X117325001Y-221292500D02*
X118125000Y-220492501D01*
X97430000Y-189780000D02*
X98430000Y-189780000D01*
X98499688Y-198725010D02*
X97967764Y-198725010D01*
X97967764Y-198725010D02*
X97761210Y-198518456D01*
X113575010Y-198725010D02*
X98499688Y-198725010D01*
X122330000Y-207480000D02*
X113575010Y-198725010D01*
X122330000Y-212509340D02*
X122330000Y-207480000D01*
X122510000Y-213750000D02*
X122510000Y-212689340D01*
X122510000Y-212689340D02*
X122330000Y-212509340D01*
X153803397Y-201275040D02*
X159994041Y-207465684D01*
X159994041Y-207465684D02*
X159994041Y-220471953D01*
X159994041Y-220471953D02*
X158115497Y-222350497D01*
X158115497Y-222350497D02*
X139372996Y-222350497D01*
X139372996Y-222350497D02*
X138314999Y-221292500D01*
X138314999Y-221292500D02*
X137515000Y-220492501D01*
X151964315Y-122280000D02*
X151230000Y-122280000D01*
X152530000Y-122280000D02*
X151964315Y-122280000D01*
X155398437Y-199680000D02*
X155695925Y-199680000D01*
X155695925Y-199680000D02*
X156619039Y-198756886D01*
X156619039Y-198756886D02*
X156619039Y-198604314D01*
X137034960Y-201275040D02*
X153803397Y-201275040D01*
X153803397Y-201275040D02*
X155398437Y-199680000D01*
X135210000Y-203495040D02*
X135210000Y-203100000D01*
X135210000Y-203100000D02*
X137034960Y-201275040D01*
X135210000Y-213750000D02*
X135210000Y-203495040D01*
X141330000Y-211655000D02*
X141330000Y-213943994D01*
X141330000Y-213943994D02*
X140511997Y-214761997D01*
X151566522Y-144880000D02*
X151448261Y-144761739D01*
X152630000Y-144780000D02*
X152064315Y-144780000D01*
X152064315Y-144780000D02*
X151964315Y-144880000D01*
X151964315Y-144880000D02*
X151566522Y-144880000D01*
X134130000Y-200425030D02*
X153451312Y-200425030D01*
X153451312Y-200425030D02*
X155223964Y-198652378D01*
X155223964Y-198652378D02*
X155223964Y-198486959D01*
X132670000Y-201885030D02*
X134130000Y-200425030D01*
X132670000Y-213750000D02*
X132670000Y-201885030D01*
X151764315Y-167180000D02*
X151230000Y-167180000D01*
X152530000Y-167380000D02*
X151964315Y-167380000D01*
X151964315Y-167380000D02*
X151764315Y-167180000D01*
X132030000Y-199575020D02*
X152851388Y-199575020D01*
X152851388Y-199575020D02*
X153827786Y-198598622D01*
X153827786Y-198598622D02*
X153827786Y-198383554D01*
X130130000Y-201475020D02*
X132030000Y-199575020D01*
X130130000Y-213750000D02*
X130130000Y-201475020D01*
X151430000Y-212480000D02*
X151830000Y-212880000D01*
X151830000Y-212880000D02*
X151830000Y-213005000D01*
X151430000Y-209880000D02*
X151430000Y-212480000D01*
X151764315Y-189680000D02*
X151330000Y-189680000D01*
X152430000Y-189780000D02*
X151864315Y-189780000D01*
X151864315Y-189780000D02*
X151764315Y-189680000D01*
X151500312Y-198725010D02*
X152036396Y-198725010D01*
X152036396Y-198725010D02*
X152428708Y-198332698D01*
X127590000Y-201365010D02*
X130230000Y-198725010D01*
X130230000Y-198725010D02*
X151500312Y-198725010D01*
X127590000Y-213750000D02*
X127590000Y-201365010D01*
M02*
