999
dxfrw 0.6.3
  0
SECTION
  2
HEADER
  9
$ACADVER
  1
AC1009
  9
$DWGCODEPAGE
  3
ANSI_1252
  9
$INSBASE
 10
0
 20
0
 30
0
  9
$EXTMIN
 10
-14.7
 20
-3.000000000000001
 30
0
  9
$EXTMAX
 10
392.7500077143099
 20
225
 30
0
  9
$LIMMIN
 10
0
 20
0
  9
$LIMMAX
 10
420
 20
297
  9
$ORTHOMODE
 70
    0
  9
$REGENMODE
 70
    1
  9
$FILLMODE
 70
    1
  9
$QTEXTMODE
 70
    0
  9
$MIRRTEXT
 70
    0
  9
$DRAGMODE
 70
    2
  9
$LTSCALE
 40
1
  9
$OSMODE
 70
    0
  9
$ATTMODE
 70
    0
  9
$TEXTSIZE
 40
2.5
  9
$TRACEWID
 40
15.68
  9
$TEXTSTYLE
  7
STANDARD
  9
$CLAYER
  8
06B_METAL_SUPPORT_TAPPED
  9
$CELTYPE
  6
BYLAYER
  9
$CECOLOR
 62
  256
  9
$DIMSCALE
 40
2.5
  9
$DIMASZ
 40
2.5
  9
$DIMEXO
 40
0.625
  9
$DIMDLI
 40
3.75
  9
$DIMRND
 40
0
  9
$DIMDLE
 40
0
  9
$DIMEXE
 40
1.25
  9
$DIMTP
 40
0
  9
$DIMTM
 40
0
  9
$DIMTXT
 40
2.5
  9
$DIMCEN
 40
2.5
  9
$DIMTSZ
 40
0
  9
$DIMTOL
 70
    0
  9
$DIMLIM
 70
    0
  9
$DIMTIH
 70
    0
  9
$DIMTOH
 70
    0
  9
$DIMSE1
 70
    0
  9
$DIMSE2
 70
    0
  9
$DIMTAD
 70
    1
  9
$DIMZIN
 70
    8
  9
$DIMBLK
  1

  9
$DIMASO
 70
    1
  9
$DIMSHO
 70
    1
  9
$DIMPOST
  1

  9
$DIMAPOST
  1

  9
$DIMALT
 70
    0
  9
$DIMALTD
 70
    3
  9
$DIMALTF
 40
0.03937
  9
$DIMLFAC
 40
1
  9
$DIMTOFL
 70
    1
  9
$DIMTVP
 40
0
  9
$DIMTIX
 70
    0
  9
$DIMSOXD
 70
    0
  9
$DIMSAH
 70
    0
  9
$DIMBLK1
  1

  9
$DIMBLK2
  1

  9
$DIMSTYLE
  2
STANDARD
  9
$DIMCLRD
 70
    0
  9
$DIMCLRE
 70
    0
  9
$DIMCLRT
 70
    0
  9
$DIMTFAC
 40
1
  9
$DIMGAP
 40
0.625
  9
$LUNITS
 70
    2
  9
$LUPREC
 70
    4
  9
$SKETCHINC
 40
1
  9
$FILLETRAD
 40
0
  9
$AUNITS
 70
    0
  9
$AUPREC
 70
    2
  9
$MENU
  1
.
  9
$ELEVATION
 40
0
  9
$PELEVATION
 40
0
  9
$THICKNESS
 40
0
  9
$LIMCHECK
 70
    0
  9
$BLIPMODE
 70
    0
  9
$CHAMFERA
 40
0
  9
$CHAMFERB
 40
0
  9
$SKPOLY
 70
    0
  9
$USRTIMER
 70
    1
  9
$ANGBASE
 50
0
  9
$ANGDIR
 70
    0
  9
$PDMODE
 70
   34
  9
$PDSIZE
 40
0
  9
$PLINEWID
 40
0
  9
$COORDS
 70
    2
  9
$SPLFRAME
 70
    0
  9
$SPLINETYPE
 70
    2
  9
$SPLINESEGS
 70
    8
  9
$ATTDIA
 70
    1
  9
$ATTREQ
 70
    1
  9
$HANDLING
 70
    1
  9
$HANDSEED
  5
20000
  9
$SURFTAB1
 70
    6
  9
$SURFTAB2
 70
    6
  9
$SURFTYPE
 70
    6
  9
$SURFU
 70
    6
  9
$SURFV
 70
    6
  9
$UCSNAME
  2

  9
$UCSORG
 10
0
 20
0
 30
0
  9
$UCSXDIR
 10
1
 20
0
 30
0
  9
$UCSYDIR
 10
0
 20
1
 30
0
  9
$PUCSNAME
  2

  9
$PUCSORG
 10
0
 20
0
 30
0
  9
$PUCSXDIR
 10
1
 20
0
 30
0
  9
$PUCSYDIR
 10
0
 20
1
 30
0
  9
$USERI1
 70
    0
  9
$USERI2
 70
    0
  9
$USERI3
 70
    0
  9
$USERI4
 70
    0
  9
$USERI5
 70
    0
  9
$USERR1
 40
0
  9
$USERR2
 40
0
  9
$USERR3
 40
0
  9
$USERR4
 40
0
  9
$USERR5
 40
0
  9
$WORLDVIEW
 70
    1
  9
$SHADEDGE
 70
    3
  9
$SHADEDIF
 70
   70
  9
$TILEMODE
 70
    1
  9
$MAXACTVP
 70
   64
  9
$PLIMCHECK
 70
    0
  9
$PEXTMIN
 10
0
 20
0
 30
0
  9
$PEXTMAX
 10
0
 20
0
 30
0
  9
$GRIDMODE
 70
    1
  9
$SNAPSTYLE
 70
    0
  9
$PLIMMIN
 10
0
 20
0
  9
$PLIMMAX
 10
297
 20
210
  9
$UNITMODE
 70
    0
  9
$VISRETAIN
 70
    1
  9
$PLINEGEN
 70
    0
  9
$PSLTSCALE
 70
    1
  0
ENDSEC
  0
SECTION
  2
TABLES
  0
TABLE
  2
VPORT
 70
    1
  0
VPORT
  2
*ACTIVE
 70
    0
 10
0
 20
0
 11
1
 21
1
 12
247.463199596543
 22
131.4718358690609
 13
0
 23
0
 14
10
 24
10
 15
10
 25
10
 16
0
 26
0
 36
1
 17
0
 27
0
 37
0
 40
355.8265045875949
 41
1.881462799495586
 42
50
 43
0
 44
0
 50
0
 51
0
 71
    0
 72
  100
 73
    1
 74
    3
 75
    0
 76
    1
 77
    0
 78
    0
  0
ENDTAB
  0
TABLE
  2
LTYPE
 70
    4
  0
LTYPE
  2
BYBLOCK
 70
    0
  3

 72
   65
 73
    0
 40
0
  0
LTYPE
  2
BYLAYER
 70
    0
  3

 72
   65
 73
    0
 40
0
  0
LTYPE
  2
CONTINUOUS
 70
    0
  3
Solid line
 72
   65
 73
    0
 40
0
  0
LTYPE
  2
DOT
 70
    0
  3
Dot . . . . . . . . . . . . . . . . . . . . . .
 72
   65
 73
    2
 40
6.35
 49
0
 49
-6.35
  0
LTYPE
  2
DOTTINY
 70
    0
  3
Dot (.15x) .....................................
 72
   65
 73
    2
 40
0.9525
 49
0
 49
-0.9525
  0
LTYPE
  2
DOT2
 70
    0
  3
Dot (.5x) .....................................
 72
   65
 73
    2
 40
3.175
 49
0
 49
-3.175
  0
LTYPE
  2
DOTX2
 70
    0
  3
Dot (2x) .  .  .  .  .  .  .  .  .  .  .  .  .
 72
   65
 73
    2
 40
12.7
 49
0
 49
-12.7
  0
LTYPE
  2
DASHED
 70
    0
  3
Dashed _ _ _ _ _ _ _ _ _ _ _ _ _ _ _ _ _
 72
   65
 73
    2
 40
19.05
 49
12.7
 49
-6.35
  0
LTYPE
  2
DASHEDTINY
 70
    0
  3
Dashed (.15x) _ _ _ _ _ _ _ _ _ _ _ _ _ _ _ _ _
 72
   65
 73
    2
 40
2.8575
 49
1.905
 49
-0.9525
  0
LTYPE
  2
DASHED2
 70
    0
  3
Dashed (.5x) _ _ _ _ _ _ _ _ _ _ _ _ _ _ _ _ _
 72
   65
 73
    2
 40
9.524999999999999
 49
6.35
 49
-3.175
  0
LTYPE
  2
DASHEDX2
 70
    0
  3
Dashed (2x) ____  ____  ____  ____  ____  ___
 72
   65
 73
    2
 40
38.09999999999999
 49
25.4
 49
-12.7
  0
LTYPE
  2
DASHDOT
 70
    0
  3
Dash dot __ . __ . __ . __ . __ . __ . __ . __
 72
   65
 73
    4
 40
25.4
 49
12.7
 49
-6.35
 49
0
 49
-6.35
  0
LTYPE
  2
DASHDOTTINY
 70
    0
  3
Dash dot (.15x) _._._._._._._._._._._._._._._.
 72
   65
 73
    4
 40
3.81
 49
1.905
 49
-0.9525
 49
0
 49
-0.9525
  0
LTYPE
  2
DASHDOT2
 70
    0
  3
Dash dot (.5x) _._._._._._._._._._._._._._._.
 72
   65
 73
    4
 40
12.7
 49
6.35
 49
-3.175
 49
0
 49
-3.175
  0
LTYPE
  2
DASHDOTX2
 70
    0
  3
Dash dot (2x) ____  .  ____  .  ____  .  ___
 72
   65
 73
    4
 40
50.8
 49
25.4
 49
-12.7
 49
0
 49
-12.7
  0
LTYPE
  2
DIVIDE
 70
    0
  3
Divide ____ . . ____ . . ____ . . ____ . . ____
 72
   65
 73
    6
 40
31.75
 49
12.7
 49
-6.35
 49
0
 49
-6.35
 49
0
 49
-6.35
  0
LTYPE
  2
DIVIDETINY
 70
    0
  3
Divide (.15x) __..__..__..__..__..__..__..__.._
 72
   65
 73
    6
 40
4.7625
 49
1.905
 49
-0.9525
 49
0
 49
-0.9525
 49
0
 49
-0.9525
  0
LTYPE
  2
DIVIDE2
 70
    0
  3
Divide (.5x) __..__..__..__..__..__..__..__.._
 72
   65
 73
    6
 40
15.875
 49
6.35
 49
-3.175
 49
0
 49
-3.175
 49
0
 49
-3.175
  0
LTYPE
  2
DIVIDEX2
 70
    0
  3
Divide (2x) ________  .  .  ________  .  .  _
 72
   65
 73
    6
 40
63.5
 49
25.4
 49
-12.7
 49
0
 49
-12.7
 49
0
 49
-12.7
  0
LTYPE
  2
BORDER
 70
    0
  3
Border __ __ . __ __ . __ __ . __ __ . __ __ .
 72
   65
 73
    6
 40
44.45
 49
12.7
 49
-6.35
 49
12.7
 49
-6.35
 49
0
 49
-6.35
  0
LTYPE
  2
BORDERTINY
 70
    0
  3
Border (.15x) __.__.__.__.__.__.__.__.__.__.__.
 72
   65
 73
    6
 40
6.6675
 49
1.905
 49
-0.9525
 49
1.905
 49
-0.9525
 49
0
 49
-0.9525
  0
LTYPE
  2
BORDER2
 70
    0
  3
Border (.5x) __.__.__.__.__.__.__.__.__.__.__.
 72
   65
 73
    6
 40
22.225
 49
6.35
 49
-3.175
 49
6.35
 49
-3.175
 49
0
 49
-3.175
  0
LTYPE
  2
BORDERX2
 70
    0
  3
Border (2x) ____  ____  .  ____  ____  .  ___
 72
   65
 73
    6
 40
88.89999999999999
 49
25.4
 49
-12.7
 49
25.4
 49
-12.7
 49
0
 49
-12.7
  0
LTYPE
  2
CENTER
 70
    0
  3
Center ____ _ ____ _ ____ _ ____ _ ____ _ ____
 72
   65
 73
    4
 40
50.8
 49
31.75
 49
-6.35
 49
6.35
 49
-6.35
  0
LTYPE
  2
CENTERTINY
 70
    0
  3
Center (.15x) ___ _ ___ _ ___ _ ___ _ ___ _ ___
 72
   65
 73
    4
 40
7.619999999999999
 49
4.7625
 49
-0.9525
 49
0.9525
 49
-0.9525
  0
LTYPE
  2
CENTER2
 70
    0
  3
Center (.5x) ___ _ ___ _ ___ _ ___ _ ___ _ ___
 72
   65
 73
    4
 40
28.575
 49
19.05
 49
-3.175
 49
3.175
 49
-3.175
  0
LTYPE
  2
CENTERX2
 70
    0
  3
Center (2x) ________  __  ________  __  _____
 72
   65
 73
    4
 40
101.6
 49
63.5
 49
-12.7
 49
12.7
 49
-12.7
  0
ENDTAB
  0
TABLE
  2
LAYER
 70
    1
  0
LAYER
  2
0
 70
    1
 62
    7
  6
CONTINUOUS
1001
LibreCad
1070
    1
  0
LAYER
  2
06B_METAL_SUPPORT_TAPPED
 70
    0
 62
    1
  6
CONTINUOUS
  0
ENDTAB
  0
TABLE
  2
STYLE
 70
    3
  0
STYLE
  2
STANDARD
 70
    0
 40
0
 41
1
 50
0
 71
    0
 42
1
  3
STANDARD
  4

  0
ENDTAB
  0
TABLE
  2
VIEW
 70
    0
  0
ENDTAB
  0
TABLE
  2
UCS
 70
    0
  0
ENDTAB
  0
TABLE
  2
APPID
 70
    1
  0
APPID
  2
ACAD
 70
    0
  0
APPID
  2
LIBRECAD
 70
    0
  0
ENDTAB
  0
TABLE
  2
DIMSTYLE
 70
    1
  0
DIMSTYLE
  2
STANDARD
 70
    0
  3

  4

  5

  6

  7

 40
2.5
 41
2.5
 42
0.625
 43
0.38
 44
1.25
 45
0
 46
0
 47
0
 48
0
 49
1
140
2.5
141
0.09
142
0
143
25.4
144
1
145
0
146
1
147
0.625
 71
    0
 72
    0
 73
    0
 74
    1
 75
    0
 76
    0
 77
    0
 78
    8
170
    0
171
    2
172
    0
173
    0
174
    0
175
    0
176
    0
177
    0
178
    0
  0
ENDTAB
  0
ENDSEC
  0
SECTION
  2
BLOCKS
  0
BLOCK
  8
0
  2
$MODEL_SPACE
 70
    0
 10
0
 20
0
 30
0
  3
$MODEL_SPACE
  1

  0
ENDBLK
  8
0
  0
BLOCK
  8
0
  2
$PAPER_SPACE
 70
    0
 10
0
 20
0
 30
0
  3
$PAPER_SPACE
  1

  0
ENDBLK
  8
0
  0
ENDSEC
  0
SECTION
  2
ENTITIES
  0
TEXT
  5
31
  8
0
  6
BYLAYER
 62
  256
 10
260
 20
30
 30
0
 40
3
  1
TODO put all directional blocks in consistent orientation.
 50
0
 41
1
 51
0
  7
STANDARD
 71
    0
 11
260
 21
30
 31
0
210
0
220
0
230
1
 73
    3
  0
TEXT
  5
32
  8
0
  6
BYLAYER
 62
  256
 10
260
 20
30
 30
0
 40
3
  1
make all parts symmetric across midline into blocks, and mirror
 50
0
 41
1
 51
0
  7
STANDARD
 71
    0
 11
260
 21
25
 31
0
210
0
220
0
230
1
 73
    3
  0
CIRCLE
  5
33
  8
06B_METAL_SUPPORT_TAPPED
  6
BYLAYER
 62
  256
 10
134.0772
 20
215
 40
8
  0
LINE
  5
34
  8
06B_METAL_SUPPORT_TAPPED
  6
BYLAYER
 62
  256
 10
85.00000007178122
 20
200
 11
-9.699999999999989
 21
200
  0
ARC
  5
35
  8
06B_METAL_SUPPORT_TAPPED
  6
BYLAYER
 62
  256
 10
-9.699999999999999
 20
195
 40
5
 50
89.99999999999989
 51
180
  0
LINE
  5
36
  8
06B_METAL_SUPPORT_TAPPED
  6
BYLAYER
 62
  256
 10
259.7
 20
200
 11
165.0000000717812
 21
200
  0
ARC
  5
37
  8
06B_METAL_SUPPORT_TAPPED
  6
BYLAYER
 62
  256
 10
259.7
 20
195
 40
5
 50
0
 51
90
  0
LINE
  5
38
  8
06B_METAL_SUPPORT_TAPPED
  6
BYLAYER
 62
  256
 10
85.0000000717812
 20
200
 11
85.00000001435625
 21
219.9999999856438
  0
ARC
  5
39
  8
06B_METAL_SUPPORT_TAPPED
  6
BYLAYER
 62
  256
 10
90.00000001435623
 20
220
 40
5
 50
90
 51
180.0000001645103
  0
LINE
  5
3A
  8
06B_METAL_SUPPORT_TAPPED
  6
BYLAYER
 62
  256
 10
165.0000000143562
 20
220.0000000143563
 11
165.0000000717812
 21
200
  0
ARC
  5
3B
  8
06B_METAL_SUPPORT_TAPPED
  6
BYLAYER
 62
  256
 10
160.0000000143562
 20
220
 40
5
 50
1.645106286774572e-07
 51
90
  0
LINE
  5
3C
  8
06B_METAL_SUPPORT_TAPPED
  6
BYLAYER
 62
  256
 10
90.0000038290535
 20
225
 11
160.0000000143562
 21
225
  0
ARC
  5
3D
  8
06B_METAL_SUPPORT_TAPPED
  6
BYLAYER
 62
  256
 10
259.7
 20
2
 40
5
 50
270
 51
0
  0
ARC
  5
3E
  8
06B_METAL_SUPPORT_TAPPED
  6
BYLAYER
 62
  256
 10
-9.699999999999999
 20
1.999999999999999
 40
5
 50
180
 51
270
  0
LINE
  5
3F
  8
06B_METAL_SUPPORT_TAPPED
  6
BYLAYER
 62
  256
 10
-9.700000000000001
 20
-3.000000000000001
 11
259.7
 21
-3
  0
LINE
  5
40
  8
06B_METAL_SUPPORT_TAPPED
  6
BYLAYER
 62
  256
 10
-14.7
 20
2
 11
-14.7
 21
195
  0
LINE
  5
41
  8
06B_METAL_SUPPORT_TAPPED
  6
BYLAYER
 62
  256
 10
264.7
 20
195
 11
264.7
 21
2
  0
CIRCLE
  5
42
  8
06B_METAL_SUPPORT_TAPPED
  6
BYLAYER
 62
  256
 10
115.6365234645944
 20
116.7332608974728
 40
1.85178
  0
CIRCLE
  5
43
  8
06B_METAL_SUPPORT_TAPPED
  6
BYLAYER
 62
  256
 10
125.0120034645944
 20
116.7333541706728
 40
1.85178
  0
CIRCLE
  5
44
  8
06B_METAL_SUPPORT_TAPPED
  6
BYLAYER
 62
  256
 10
115.6505269291888
 20
71.72761506814562
 40
1.85178
  0
CIRCLE
  5
45
  8
06B_METAL_SUPPORT_TAPPED
  6
BYLAYER
 62
  256
 10
125.0260069291888
 20
71.72770834134562
 40
1.85178
  0
CIRCLE
  5
46
  8
06B_METAL_SUPPORT_TAPPED
  6
BYLAYER
 62
  256
 10
115.6645303937832
 20
26.72196923881843
 40
1.85178
  0
CIRCLE
  5
47
  8
06B_METAL_SUPPORT_TAPPED
  6
BYLAYER
 62
  256
 10
125.0400103937832
 20
26.72206251201843
 40
1.85178
  0
CIRCLE
  5
48
  8
06B_METAL_SUPPORT_TAPPED
  6
BYLAYER
 62
  256
 10
134.3437051747206
 20
139.2419131655706
 40
1.85178
  0
CIRCLE
  5
49
  8
06B_METAL_SUPPORT_TAPPED
  6
BYLAYER
 62
  256
 10
124.9682444458214
 20
139.2229036950818
 40
1.85178
  0
CIRCLE
  5
4A
  8
06B_METAL_SUPPORT_TAPPED
  6
BYLAYER
 62
  256
 10
134.4005332233104
 20
94.23152833003829
 40
1.85178
  0
CIRCLE
  5
4B
  8
06B_METAL_SUPPORT_TAPPED
  6
BYLAYER
 62
  256
 10
125.0250724944112
 20
94.2125188595495
 40
1.85178
  0
CIRCLE
  5
4C
  8
06B_METAL_SUPPORT_TAPPED
  6
BYLAYER
 62
  256
 10
134.4573612719002
 20
49.22114349450602
 40
1.85178
  0
CIRCLE
  5
4D
  8
06B_METAL_SUPPORT_TAPPED
  6
BYLAYER
 62
  256
 10
125.081900543001
 20
49.20213402401725
 40
1.85178
  0
CIRCLE
  5
4E
  8
06B_METAL_SUPPORT_TAPPED
  6
BYLAYER
 62
  256
 10
115.62252
 20
161.7389067268
 40
1.85178
  0
CIRCLE
  5
4F
  8
06B_METAL_SUPPORT_TAPPED
  6
BYLAYER
 62
  256
 10
124.998
 20
161.739
 40
1.85178
  0
CIRCLE
  5
50
  8
06B_METAL_SUPPORT_TAPPED
  6
BYLAYER
 62
  256
 10
134.2868771261308
 20
184.2522980011028
 40
1.85178
  0
CIRCLE
  5
51
  8
06B_METAL_SUPPORT_TAPPED
  6
BYLAYER
 62
  256
 10
124.9114163972316
 20
184.2332885306141
 40
1.85178
  0
CIRCLE
  5
52
  8
06B_METAL_SUPPORT_TAPPED
  6
BYLAYER
 62
  256
 10
254.9718
 20
150
 40
3.3782
  0
CIRCLE
  5
53
  8
06B_METAL_SUPPORT_TAPPED
  6
BYLAYER
 62
  256
 10
254.9718
 20
100
 40
3.3782
  0
CIRCLE
  5
54
  8
06B_METAL_SUPPORT_TAPPED
  6
BYLAYER
 62
  256
 10
254.9718
 20
50
 40
3.3782
  0
CIRCLE
  5
55
  8
06B_METAL_SUPPORT_TAPPED
  6
BYLAYER
 62
  256
 10
-4.9718
 20
150
 40
3.3782
  0
CIRCLE
  5
56
  8
06B_METAL_SUPPORT_TAPPED
  6
BYLAYER
 62
  256
 10
-4.9718
 20
100
 40
3.3782
  0
CIRCLE
  5
57
  8
06B_METAL_SUPPORT_TAPPED
  6
BYLAYER
 62
  256
 10
-4.9718
 20
50
 40
3.3782
  0
LINE
  5
58
  8
06B_METAL_SUPPORT_TAPPED
  6
BYLAYER
 62
  256
 10
98.006
 20
178.25
 11
152.006
 21
178.25
  0
LINE
  5
59
  8
06B_METAL_SUPPORT_TAPPED
  6
BYLAYER
 62
  256
 10
152.006
 20
178.25
 11
152.006
 21
169.25
  0
LINE
  5
5A
  8
06B_METAL_SUPPORT_TAPPED
  6
BYLAYER
 62
  256
 10
152.006
 20
169.25
 11
98.006
 21
169.25
  0
LINE
  5
5B
  8
06B_METAL_SUPPORT_TAPPED
  6
BYLAYER
 62
  256
 10
98.006
 20
169.25
 11
98.006
 21
178.25
  0
LINE
  5
5C
  8
06B_METAL_SUPPORT_TAPPED
  6
BYLAYER
 62
  256
 10
98.0925836027684
 20
155.7557114693859
 11
152.0925836027684
 21
155.7557114693859
  0
LINE
  5
5D
  8
06B_METAL_SUPPORT_TAPPED
  6
BYLAYER
 62
  256
 10
152.0925836027684
 20
155.7557114693859
 11
152.0925836027684
 21
146.7557114693859
  0
LINE
  5
5E
  8
06B_METAL_SUPPORT_TAPPED
  6
BYLAYER
 62
  256
 10
152.0925836027684
 20
146.7557114693859
 11
98.0925836027684
 21
146.7557114693859
  0
LINE
  5
5F
  8
06B_METAL_SUPPORT_TAPPED
  6
BYLAYER
 62
  256
 10
98.0925836027684
 20
146.7557114693859
 11
98.0925836027684
 21
155.7557114693859
  0
LINE
  5
60
  8
06B_METAL_SUPPORT_TAPPED
  6
BYLAYER
 62
  256
 10
98.1791672055368
 20
133.2614229387718
 11
152.1791672055368
 21
133.2614229387718
  0
LINE
  5
61
  8
06B_METAL_SUPPORT_TAPPED
  6
BYLAYER
 62
  256
 10
152.1791672055368
 20
133.2614229387718
 11
152.1791672055368
 21
124.2614229387718
  0
LINE
  5
62
  8
06B_METAL_SUPPORT_TAPPED
  6
BYLAYER
 62
  256
 10
152.1791672055368
 20
124.2614229387718
 11
98.1791672055368
 21
124.2614229387718
  0
LINE
  5
63
  8
06B_METAL_SUPPORT_TAPPED
  6
BYLAYER
 62
  256
 10
98.1791672055368
 20
124.2614229387718
 11
98.1791672055368
 21
133.2614229387718
  0
LINE
  5
64
  8
06B_METAL_SUPPORT_TAPPED
  6
BYLAYER
 62
  256
 10
98.2657508083052
 20
110.7671344081577
 11
152.2657508083052
 21
110.7671344081577
  0
LINE
  5
65
  8
06B_METAL_SUPPORT_TAPPED
  6
BYLAYER
 62
  256
 10
152.2657508083052
 20
110.7671344081577
 11
152.2657508083052
 21
101.7671344081577
  0
LINE
  5
66
  8
06B_METAL_SUPPORT_TAPPED
  6
BYLAYER
 62
  256
 10
152.2657508083052
 20
101.7671344081577
 11
98.2657508083052
 21
101.7671344081577
  0
LINE
  5
67
  8
06B_METAL_SUPPORT_TAPPED
  6
BYLAYER
 62
  256
 10
98.2657508083052
 20
101.7671344081577
 11
98.2657508083052
 21
110.7671344081577
  0
LINE
  5
68
  8
06B_METAL_SUPPORT_TAPPED
  6
BYLAYER
 62
  256
 10
98.3523344110736
 20
88.27284587754366
 11
152.3523344110736
 21
88.27284587754366
  0
LINE
  5
69
  8
06B_METAL_SUPPORT_TAPPED
  6
BYLAYER
 62
  256
 10
152.3523344110736
 20
88.27284587754366
 11
152.3523344110736
 21
79.27284587754366
  0
LINE
  5
6A
  8
06B_METAL_SUPPORT_TAPPED
  6
BYLAYER
 62
  256
 10
152.3523344110736
 20
79.27284587754366
 11
98.3523344110736
 21
79.27284587754366
  0
LINE
  5
6B
  8
06B_METAL_SUPPORT_TAPPED
  6
BYLAYER
 62
  256
 10
98.3523344110736
 20
79.27284587754366
 11
98.3523344110736
 21
88.27284587754366
  0
LINE
  5
6C
  8
06B_METAL_SUPPORT_TAPPED
  6
BYLAYER
 62
  256
 10
98.438918013842
 20
65.77855734692957
 11
152.438918013842
 21
65.77855734692957
  0
LINE
  5
6D
  8
06B_METAL_SUPPORT_TAPPED
  6
BYLAYER
 62
  256
 10
152.438918013842
 20
65.77855734692957
 11
152.438918013842
 21
56.77855734692957
  0
LINE
  5
6E
  8
06B_METAL_SUPPORT_TAPPED
  6
BYLAYER
 62
  256
 10
152.438918013842
 20
56.77855734692957
 11
98.438918013842
 21
56.77855734692957
  0
LINE
  5
6F
  8
06B_METAL_SUPPORT_TAPPED
  6
BYLAYER
 62
  256
 10
98.438918013842
 20
56.77855734692957
 11
98.438918013842
 21
65.77855734692957
  0
LINE
  5
70
  8
06B_METAL_SUPPORT_TAPPED
  6
BYLAYER
 62
  256
 10
98.5255016166104
 20
43.28426881631549
 11
152.5255016166104
 21
43.28426881631549
  0
LINE
  5
71
  8
06B_METAL_SUPPORT_TAPPED
  6
BYLAYER
 62
  256
 10
152.5255016166104
 20
43.28426881631549
 11
152.5255016166104
 21
34.28426881631549
  0
LINE
  5
72
  8
06B_METAL_SUPPORT_TAPPED
  6
BYLAYER
 62
  256
 10
152.5255016166104
 20
34.28426881631549
 11
98.5255016166104
 21
34.28426881631549
  0
LINE
  5
73
  8
06B_METAL_SUPPORT_TAPPED
  6
BYLAYER
 62
  256
 10
98.5255016166104
 20
34.28426881631549
 11
98.5255016166104
 21
43.28426881631549
  0
LINE
  5
74
  8
06B_METAL_SUPPORT_TAPPED
  6
BYLAYER
 62
  256
 10
98.6120852193788
 20
20.7899802857014
 11
152.6120852193788
 21
20.7899802857014
  0
LINE
  5
75
  8
06B_METAL_SUPPORT_TAPPED
  6
BYLAYER
 62
  256
 10
152.6120852193788
 20
20.7899802857014
 11
152.6120852193788
 21
11.7899802857014
  0
LINE
  5
76
  8
06B_METAL_SUPPORT_TAPPED
  6
BYLAYER
 62
  256
 10
152.6120852193788
 20
11.7899802857014
 11
98.6120852193788
 21
11.7899802857014
  0
LINE
  5
77
  8
06B_METAL_SUPPORT_TAPPED
  6
BYLAYER
 62
  256
 10
98.6120852193788
 20
11.7899802857014
 11
98.6120852193788
 21
20.7899802857014
  0
CIRCLE
  5
78
  8
06B_METAL_SUPPORT_TAPPED
  6
BYLAYER
 62
  256
 10
155.6
 20
162.214
 40
1.3526
  0
CIRCLE
  5
79
  8
06B_METAL_SUPPORT_TAPPED
  6
BYLAYER
 62
  256
 10
238.036
 20
135.214
 40
1.7272
  0
CIRCLE
  5
7A
  8
06B_METAL_SUPPORT_TAPPED
  6
BYLAYER
 62
  256
 10
155.600000663983
 20
117.7144999800953
 40
1.3526
  0
CIRCLE
  5
7B
  8
06B_METAL_SUPPORT_TAPPED
  6
BYLAYER
 62
  256
 10
155.600000663983
 20
72.21449910678103
 40
1.3526
  0
CIRCLE
  5
7C
  8
06B_METAL_SUPPORT_TAPPED
  6
BYLAYER
 62
  256
 10
155.600000663983
 20
27.71449970828536
 40
1.3526
  0
CIRCLE
  5
7D
  8
06B_METAL_SUPPORT_TAPPED
  6
BYLAYER
 62
  256
 10
155.600000663983
 20
5.46449982672317
 40
1.3526
  0
CIRCLE
  5
7E
  8
06B_METAL_SUPPORT_TAPPED
  6
BYLAYER
 62
  256
 10
145
 20
1.4645
 40
1.3526
  0
CIRCLE
  5
7F
  8
06B_METAL_SUPPORT_TAPPED
  6
BYLAYER
 62
  256
 10
105
 20
1.4645
 40
1.3526
  0
CIRCLE
  5
80
  8
06B_METAL_SUPPORT_TAPPED
  6
BYLAYER
 62
  256
 10
94.40000066398296
 20
5.46449982672317
 40
1.3526
  0
CIRCLE
  5
81
  8
06B_METAL_SUPPORT_TAPPED
  6
BYLAYER
 62
  256
 10
94.40000066398296
 20
49.96449922521884
 40
1.3526
  0
CIRCLE
  5
82
  8
06B_METAL_SUPPORT_TAPPED
  6
BYLAYER
 62
  256
 10
94.40000066398296
 20
95.46450009853309
 40
1.3526
  0
CIRCLE
  5
83
  8
06B_METAL_SUPPORT_TAPPED
  6
BYLAYER
 62
  256
 10
94.40000000000001
 20
139.964
 40
1.3526
  0
CIRCLE
  5
84
  8
06B_METAL_SUPPORT_TAPPED
  6
BYLAYER
 62
  256
 10
94.40000000000001
 20
184.215
 40
1.3526
  0
CIRCLE
  5
85
  8
06B_METAL_SUPPORT_TAPPED
  6
BYLAYER
 62
  256
 10
105
 20
195
 40
1.3526
  0
CIRCLE
  5
86
  8
06B_METAL_SUPPORT_TAPPED
  6
BYLAYER
 62
  256
 10
145
 20
195
 40
1.3526
  0
CIRCLE
  5
87
  8
06B_METAL_SUPPORT_TAPPED
  6
BYLAYER
 62
  256
 10
170
 20
184.215
 40
1.7272
  0
CIRCLE
  5
88
  8
06B_METAL_SUPPORT_TAPPED
  6
BYLAYER
 62
  256
 10
170
 20
162.214
 40
1.7272
  0
CIRCLE
  5
89
  8
06B_METAL_SUPPORT_TAPPED
  6
BYLAYER
 62
  256
 10
170
 20
139.964
 40
1.7272
  0
CIRCLE
  5
8A
  8
06B_METAL_SUPPORT_TAPPED
  6
BYLAYER
 62
  256
 10
170
 20
117.714
 40
1.7272
  0
CIRCLE
  5
8B
  8
06B_METAL_SUPPORT_TAPPED
  6
BYLAYER
 62
  256
 10
196.285
 20
146.714
 40
1.7272
  0
CIRCLE
  5
8C
  8
06B_METAL_SUPPORT_TAPPED
  6
BYLAYER
 62
  256
 10
196.285
 20
133.214
 40
1.7272
  0
CIRCLE
  5
8D
  8
06B_METAL_SUPPORT_TAPPED
  6
BYLAYER
 62
  256
 10
238.035
 20
184.214
 40
1.7272
  0
CIRCLE
  5
8E
  8
06B_METAL_SUPPORT_TAPPED
  6
BYLAYER
 62
  256
 10
170
 20
95.4645
 40
1.7272
  0
CIRCLE
  5
8F
  8
06B_METAL_SUPPORT_TAPPED
  6
BYLAYER
 62
  256
 10
170
 20
72.2145
 40
1.7272
  0
CIRCLE
  5
90
  8
06B_METAL_SUPPORT_TAPPED
  6
BYLAYER
 62
  256
 10
170
 20
49.9645
 40
1.7272
  0
CIRCLE
  5
91
  8
06B_METAL_SUPPORT_TAPPED
  6
BYLAYER
 62
  256
 10
170
 20
27.7145
 40
1.7272
  0
CIRCLE
  5
92
  8
06B_METAL_SUPPORT_TAPPED
  6
BYLAYER
 62
  256
 10
170
 20
5.4645
 40
1.7272
  0
CIRCLE
  5
93
  8
06B_METAL_SUPPORT_TAPPED
  6
BYLAYER
 62
  256
 10
196.285
 20
43.2145
 40
1.7272
  0
CIRCLE
  5
94
  8
06B_METAL_SUPPORT_TAPPED
  6
BYLAYER
 62
  256
 10
196.285
 20
56.7145
 40
1.7272
  0
CIRCLE
  5
95
  8
06B_METAL_SUPPORT_TAPPED
  6
BYLAYER
 62
  256
 10
238.035
 20
5.46447
 40
1.7272
  0
CIRCLE
  5
96
  8
06B_METAL_SUPPORT_TAPPED
  6
BYLAYER
 62
  256
 10
238.036
 20
54.7855
 40
1.7272
  0
CIRCLE
  5
97
  8
06B_METAL_SUPPORT_TAPPED
  6
BYLAYER
 62
  256
 10
228.285
 20
88.2145
 40
1.7272
  0
CIRCLE
  5
98
  8
06B_METAL_SUPPORT_TAPPED
  6
BYLAYER
 62
  256
 10
228.285
 20
101.714
 40
1.7272
  0
CIRCLE
  5
99
  8
06B_METAL_SUPPORT_TAPPED
  6
BYLAYER
 62
  256
 10
212.285
 20
94.9645
 40
1.7272
  0
CIRCLE
  5
9A
  8
06B_METAL_SUPPORT_TAPPED
  6
BYLAYER
 62
  256
 10
80
 20
184.215
 40
1.7272
  0
CIRCLE
  5
9B
  8
06B_METAL_SUPPORT_TAPPED
  6
BYLAYER
 62
  256
 10
80
 20
162.214
 40
1.7272
  0
CIRCLE
  5
9C
  8
06B_METAL_SUPPORT_TAPPED
  6
BYLAYER
 62
  256
 10
80
 20
139.964
 40
1.7272
  0
CIRCLE
  5
9D
  8
06B_METAL_SUPPORT_TAPPED
  6
BYLAYER
 62
  256
 10
80
 20
117.714
 40
1.7272
  0
CIRCLE
  5
9E
  8
06B_METAL_SUPPORT_TAPPED
  6
BYLAYER
 62
  256
 10
80
 20
95.4645
 40
1.7272
  0
CIRCLE
  5
9F
  8
06B_METAL_SUPPORT_TAPPED
  6
BYLAYER
 62
  256
 10
53.7145
 20
146.714
 40
1.7272
  0
CIRCLE
  5
A0
  8
06B_METAL_SUPPORT_TAPPED
  6
BYLAYER
 62
  256
 10
53.7145
 20
133.214
 40
1.7272
  0
CIRCLE
  5
A1
  8
06B_METAL_SUPPORT_TAPPED
  6
BYLAYER
 62
  256
 10
37.7145
 20
94.9645
 40
1.7272
  0
CIRCLE
  5
A2
  8
06B_METAL_SUPPORT_TAPPED
  6
BYLAYER
 62
  256
 10
21.7145
 20
101.714
 40
1.7272
  0
CIRCLE
  5
A3
  8
06B_METAL_SUPPORT_TAPPED
  6
BYLAYER
 62
  256
 10
21.7145
 20
88.2145
 40
1.7272
  0
CIRCLE
  5
A4
  8
06B_METAL_SUPPORT_TAPPED
  6
BYLAYER
 62
  256
 10
11.9645
 20
135.214
 40
1.7272
  0
CIRCLE
  5
A5
  8
06B_METAL_SUPPORT_TAPPED
  6
BYLAYER
 62
  256
 10
11.9645
 20
184.214
 40
1.7272
  0
CIRCLE
  5
A6
  8
06B_METAL_SUPPORT_TAPPED
  6
BYLAYER
 62
  256
 10
80
 20
5.4645
 40
1.7272
  0
CIRCLE
  5
A7
  8
06B_METAL_SUPPORT_TAPPED
  6
BYLAYER
 62
  256
 10
80
 20
27.7145
 40
1.7272
  0
CIRCLE
  5
A8
  8
06B_METAL_SUPPORT_TAPPED
  6
BYLAYER
 62
  256
 10
80
 20
49.9645
 40
1.7272
  0
CIRCLE
  5
A9
  8
06B_METAL_SUPPORT_TAPPED
  6
BYLAYER
 62
  256
 10
80
 20
72.2145
 40
1.7272
  0
CIRCLE
  5
AA
  8
06B_METAL_SUPPORT_TAPPED
  6
BYLAYER
 62
  256
 10
53.7145
 20
56.7145
 40
1.7272
  0
CIRCLE
  5
AB
  8
06B_METAL_SUPPORT_TAPPED
  6
BYLAYER
 62
  256
 10
53.7145
 20
43.2145
 40
1.7272
  0
CIRCLE
  5
AC
  8
06B_METAL_SUPPORT_TAPPED
  6
BYLAYER
 62
  256
 10
11.9645
 20
54.7855
 40
1.7272
  0
CIRCLE
  5
AD
  8
06B_METAL_SUPPORT_TAPPED
  6
BYLAYER
 62
  256
 10
11.9645
 20
5.46447
 40
1.7272
  0
CIRCLE
  5
AE
  8
06B_METAL_SUPPORT_TAPPED
  6
BYLAYER
 62
  256
 10
150.25
 20
210
 40
1.7272
  0
CIRCLE
  5
AF
  8
06B_METAL_SUPPORT_TAPPED
  6
BYLAYER
 62
  256
 10
150.25
 20
220
 40
1.7272
  0
CIRCLE
  5
B0
  8
06B_METAL_SUPPORT_TAPPED
  6
BYLAYER
 62
  256
 10
99.75
 20
220
 40
1.7272
  0
CIRCLE
  5
B1
  8
06B_METAL_SUPPORT_TAPPED
  6
BYLAYER
 62
  256
 10
99.75
 20
210
 40
1.7272
  0
LINE
  5
B2
  8
06B_METAL_SUPPORT_TAPPED
  6
BYLAYER
 62
  256
 10
128.6887963675474
 20
121.5611628974746
 11
147.9390034645944
 21
121.5611628974746
  0
ARC
  5
B3
  8
06B_METAL_SUPPORT_TAPPED
  6
BYLAYER
 62
  256
 10
147.9390034645944
 20
120.5611628974746
 40
1
 50
360
 51
90
  0
LINE
  5
B4
  8
06B_METAL_SUPPORT_TAPPED
  6
BYLAYER
 62
  256
 10
148.9390034645944
 20
120.5611628974746
 11
148.9390034645944
 21
119.7486628974746
  0
ARC
  5
B5
  8
06B_METAL_SUPPORT_TAPPED
  6
BYLAYER
 62
  256
 10
147.9390034645944
 20
119.7486628974746
 40
1
 50
270
 51
360
  0
LINE
  5
B6
  8
06B_METAL_SUPPORT_TAPPED
  6
BYLAYER
 62
  256
 10
147.9390034645944
 20
118.7486628974746
 11
128.6887963675474
 21
118.7486628974746
  0
ARC
  5
B7
  8
06B_METAL_SUPPORT_TAPPED
  6
BYLAYER
 62
  256
 10
128.6887963675474
 20
119.7486628974746
 40
1.000000000000007
 50
180.0000000000004
 51
270.0000000000004
  0
LINE
  5
B8
  8
06B_METAL_SUPPORT_TAPPED
  6
BYLAYER
 62
  256
 10
127.6887963675474
 20
119.7486628974746
 11
127.6887963675474
 21
120.5611628974746
  0
ARC
  5
B9
  8
06B_METAL_SUPPORT_TAPPED
  6
BYLAYER
 62
  256
 10
127.6887963675474
 20
120.5611628974746
 40
0
 50
0
 51
0
  0
ARC
  5
BA
  8
06B_METAL_SUPPORT_TAPPED
  6
BYLAYER
 62
  256
 10
127.6887963675474
 20
120.5611628974746
 40
0
 50
0
 51
0
  0
ARC
  5
BB
  8
06B_METAL_SUPPORT_TAPPED
  6
BYLAYER
 62
  256
 10
128.6887963675474
 20
120.5611628974746
 40
1
 50
90
 51
180
  0
LINE
  5
BC
  8
06B_METAL_SUPPORT_TAPPED
  6
BYLAYER
 62
  256
 10
107.8640328690622
 20
117.2373333222997
 11
97.86403286906216
 21
117.2373333222997
  0
ARC
  5
BD
  8
06B_METAL_SUPPORT_TAPPED
  6
BYLAYER
 62
  256
 10
97.86403286906216
 20
118.8373333222997
 40
1.599999999999994
 50
90
 51
270
  0
LINE
  5
BE
  8
06B_METAL_SUPPORT_TAPPED
  6
BYLAYER
 62
  256
 10
97.86403286906216
 20
120.4373333222997
 11
107.8640328690622
 21
120.4373333222997
  0
ARC
  5
BF
  8
06B_METAL_SUPPORT_TAPPED
  6
BYLAYER
 62
  256
 10
107.8640328690622
 20
118.8373333222997
 40
1.599999999999994
 50
270
 51
90
  0
LINE
  5
C0
  8
06B_METAL_SUPPORT_TAPPED
  6
BYLAYER
 62
  256
 10
128.7027998321418
 20
76.55551706814742
 11
147.9530069291888
 21
76.55551706814742
  0
ARC
  5
C1
  8
06B_METAL_SUPPORT_TAPPED
  6
BYLAYER
 62
  256
 10
147.9530069291888
 20
75.55551706814742
 40
1
 50
360
 51
90
  0
LINE
  5
C2
  8
06B_METAL_SUPPORT_TAPPED
  6
BYLAYER
 62
  256
 10
148.9530069291888
 20
75.55551706814742
 11
148.9530069291888
 21
74.74301706814742
  0
ARC
  5
C3
  8
06B_METAL_SUPPORT_TAPPED
  6
BYLAYER
 62
  256
 10
147.9530069291888
 20
74.74301706814742
 40
1
 50
270
 51
360
  0
LINE
  5
C4
  8
06B_METAL_SUPPORT_TAPPED
  6
BYLAYER
 62
  256
 10
147.9530069291888
 20
73.74301706814742
 11
128.7027998321418
 21
73.74301706814742
  0
ARC
  5
C5
  8
06B_METAL_SUPPORT_TAPPED
  6
BYLAYER
 62
  256
 10
128.7027998321418
 20
74.74301706814744
 40
1.000000000000007
 50
180.0000000000004
 51
270.0000000000004
  0
LINE
  5
C6
  8
06B_METAL_SUPPORT_TAPPED
  6
BYLAYER
 62
  256
 10
127.7027998321418
 20
74.74301706814742
 11
127.7027998321418
 21
75.55551706814742
  0
ARC
  5
C7
  8
06B_METAL_SUPPORT_TAPPED
  6
BYLAYER
 62
  256
 10
127.7027998321418
 20
75.55551706814742
 40
0
 50
0
 51
0
  0
ARC
  5
C8
  8
06B_METAL_SUPPORT_TAPPED
  6
BYLAYER
 62
  256
 10
127.7027998321418
 20
75.55551706814742
 40
0
 50
0
 51
0
  0
ARC
  5
C9
  8
06B_METAL_SUPPORT_TAPPED
  6
BYLAYER
 62
  256
 10
128.7027998321418
 20
75.55551706814742
 40
1
 50
90
 51
180
  0
LINE
  5
CA
  8
06B_METAL_SUPPORT_TAPPED
  6
BYLAYER
 62
  256
 10
107.8780363336566
 20
72.2316874929725
 11
97.87803633365655
 21
72.2316874929725
  0
ARC
  5
CB
  8
06B_METAL_SUPPORT_TAPPED
  6
BYLAYER
 62
  256
 10
97.87803633365655
 20
73.83168749297249
 40
1.599999999999994
 50
90
 51
270
  0
LINE
  5
CC
  8
06B_METAL_SUPPORT_TAPPED
  6
BYLAYER
 62
  256
 10
97.87803633365655
 20
75.43168749297249
 11
107.8780363336566
 21
75.43168749297249
  0
ARC
  5
CD
  8
06B_METAL_SUPPORT_TAPPED
  6
BYLAYER
 62
  256
 10
107.8780363336566
 20
73.83168749297249
 40
1.599999999999994
 50
270
 51
90
  0
LINE
  5
CE
  8
06B_METAL_SUPPORT_TAPPED
  6
BYLAYER
 62
  256
 10
128.7168032967362
 20
31.54987123882023
 11
147.9670103937832
 21
31.54987123882023
  0
ARC
  5
CF
  8
06B_METAL_SUPPORT_TAPPED
  6
BYLAYER
 62
  256
 10
147.9670103937832
 20
30.54987123882023
 40
1
 50
360
 51
90
  0
LINE
  5
D0
  8
06B_METAL_SUPPORT_TAPPED
  6
BYLAYER
 62
  256
 10
148.9670103937832
 20
30.54987123882023
 11
148.9670103937832
 21
29.73737123882023
  0
ARC
  5
D1
  8
06B_METAL_SUPPORT_TAPPED
  6
BYLAYER
 62
  256
 10
147.9670103937832
 20
29.73737123882023
 40
1
 50
270
 51
360
  0
LINE
  5
D2
  8
06B_METAL_SUPPORT_TAPPED
  6
BYLAYER
 62
  256
 10
147.9670103937832
 20
28.73737123882023
 11
128.7168032967362
 21
28.73737123882023
  0
ARC
  5
D3
  8
06B_METAL_SUPPORT_TAPPED
  6
BYLAYER
 62
  256
 10
128.7168032967362
 20
29.73737123882024
 40
1.000000000000007
 50
180.0000000000004
 51
270.0000000000004
  0
LINE
  5
D4
  8
06B_METAL_SUPPORT_TAPPED
  6
BYLAYER
 62
  256
 10
127.7168032967362
 20
29.73737123882023
 11
127.7168032967362
 21
30.54987123882023
  0
ARC
  5
D5
  8
06B_METAL_SUPPORT_TAPPED
  6
BYLAYER
 62
  256
 10
127.7168032967362
 20
30.54987123882023
 40
0
 50
0
 51
0
  0
ARC
  5
D6
  8
06B_METAL_SUPPORT_TAPPED
  6
BYLAYER
 62
  256
 10
127.7168032967362
 20
30.54987123882023
 40
0
 50
0
 51
0
  0
ARC
  5
D7
  8
06B_METAL_SUPPORT_TAPPED
  6
BYLAYER
 62
  256
 10
128.7168032967362
 20
30.54987123882023
 40
1
 50
90
 51
180
  0
LINE
  5
D8
  8
06B_METAL_SUPPORT_TAPPED
  6
BYLAYER
 62
  256
 10
107.892039798251
 20
27.22604166364531
 11
97.89203979825096
 21
27.22604166364531
  0
ARC
  5
D9
  8
06B_METAL_SUPPORT_TAPPED
  6
BYLAYER
 62
  256
 10
97.89203979825096
 20
28.8260416636453
 40
1.599999999999994
 50
90
 51
270
  0
LINE
  5
DA
  8
06B_METAL_SUPPORT_TAPPED
  6
BYLAYER
 62
  256
 10
97.89203979825096
 20
30.4260416636453
 11
107.892039798251
 21
30.4260416636453
  0
ARC
  5
DB
  8
06B_METAL_SUPPORT_TAPPED
  6
BYLAYER
 62
  256
 10
107.892039798251
 20
28.8260416636453
 40
1.599999999999994
 50
270
 51
90
  0
LINE
  5
DC
  8
06B_METAL_SUPPORT_TAPPED
  6
BYLAYER
 62
  256
 10
121.2816224101579
 20
144.0432108554139
 11
102.0314552717166
 21
144.0039881416538
  0
ARC
  5
DD
  8
06B_METAL_SUPPORT_TAPPED
  6
BYLAYER
 62
  256
 10
102.0334927933683
 20
143.0039902174032
 40
1
 50
90.1167414720848
 51
180.1167414720848
  0
LINE
  5
DE
  8
06B_METAL_SUPPORT_TAPPED
  6
BYLAYER
 62
  256
 10
101.0334948691177
 20
143.0019526957515
 11
101.0351503554597
 21
142.1894543822979
  0
ARC
  5
DF
  8
06B_METAL_SUPPORT_TAPPED
  6
BYLAYER
 62
  256
 10
102.0351482797103
 20
142.1914919039496
 40
1
 50
180.1167414720848
 51
270.1167414720848
  0
LINE
  5
E0
  8
06B_METAL_SUPPORT_TAPPED
  6
BYLAYER
 62
  256
 10
102.037185801362
 20
141.191493979699
 11
121.2873529398033
 21
141.2307166934591
  0
ARC
  5
E1
  8
06B_METAL_SUPPORT_TAPPED
  6
BYLAYER
 62
  256
 10
121.2853154181516
 20
142.2307146177097
 40
1.000000000000007
 50
270.1167414720844
 51
0.1167414720843948
  0
LINE
  5
E2
  8
06B_METAL_SUPPORT_TAPPED
  6
BYLAYER
 62
  256
 10
122.2853133424022
 20
142.2327521393615
 11
122.2836578560602
 21
143.0452504528151
  0
ARC
  5
E3
  8
06B_METAL_SUPPORT_TAPPED
  6
BYLAYER
 62
  256
 10
122.2836578560602
 20
143.0452504528151
 40
0
 50
180.1167414720848
 51
180.1167414720848
  0
ARC
  5
E4
  8
06B_METAL_SUPPORT_TAPPED
  6
BYLAYER
 62
  256
 10
122.2836578560602
 20
143.0452504528151
 40
0
 50
180.1167414720848
 51
180.1167414720848
  0
ARC
  5
E5
  8
06B_METAL_SUPPORT_TAPPED
  6
BYLAYER
 62
  256
 10
121.2836599318096
 20
143.0432129311633
 40
1
 50
0.1167414720848019
 51
90.1167414720848
  0
LINE
  5
E6
  8
06B_METAL_SUPPORT_TAPPED
  6
BYLAYER
 62
  256
 10
142.1151525780306
 20
139.7618211619455
 11
152.1151318205367
 21
139.7821963784626
  0
ARC
  5
E7
  8
06B_METAL_SUPPORT_TAPPED
  6
BYLAYER
 62
  256
 10
152.1118717858939
 20
141.3821930572636
 40
1.599999999999994
 50
270.1167414720848
 51
90.1167414720848
  0
LINE
  5
E8
  8
06B_METAL_SUPPORT_TAPPED
  6
BYLAYER
 62
  256
 10
152.1086117512512
 20
142.9821897360646
 11
142.1086325087452
 21
142.9618145195475
  0
ARC
  5
E9
  8
06B_METAL_SUPPORT_TAPPED
  6
BYLAYER
 62
  256
 10
142.1118925433879
 20
141.3618178407465
 40
1.599999999999994
 50
90.1167414720848
 51
270.1167414720848
  0
LINE
  5
EA
  8
06B_METAL_SUPPORT_TAPPED
  6
BYLAYER
 62
  256
 10
121.3384504587477
 20
99.03282601988165
 11
102.0882833203064
 21
98.99360330612154
  0
ARC
  5
EB
  8
06B_METAL_SUPPORT_TAPPED
  6
BYLAYER
 62
  256
 10
102.0903208419581
 20
97.99360538187094
 40
1
 50
90.1167414720848
 51
180.1167414720848
  0
LINE
  5
EC
  8
06B_METAL_SUPPORT_TAPPED
  6
BYLAYER
 62
  256
 10
101.0903229177075
 20
97.99156786021922
 11
101.0919784040495
 21
97.1790695467656
  0
ARC
  5
ED
  8
06B_METAL_SUPPORT_TAPPED
  6
BYLAYER
 62
  256
 10
102.0919763283001
 20
97.18110706841732
 40
1
 50
180.1167414720848
 51
270.1167414720848
  0
LINE
  5
EE
  8
06B_METAL_SUPPORT_TAPPED
  6
BYLAYER
 62
  256
 10
102.0940138499518
 20
96.18110914416671
 11
121.3441809883931
 21
96.22033185792682
  0
ARC
  5
EF
  8
06B_METAL_SUPPORT_TAPPED
  6
BYLAYER
 62
  256
 10
121.3421434667414
 20
97.22032978217744
 40
1.000000000000007
 50
270.1167414720844
 51
0.1167414720843948
  0
LINE
  5
F0
  8
06B_METAL_SUPPORT_TAPPED
  6
BYLAYER
 62
  256
 10
122.342141390992
 20
97.22236730382913
 11
122.34048590465
 21
98.03486561728275
  0
ARC
  5
F1
  8
06B_METAL_SUPPORT_TAPPED
  6
BYLAYER
 62
  256
 10
122.34048590465
 20
98.03486561728275
 40
0
 50
180.1167414720848
 51
180.1167414720848
  0
ARC
  5
F2
  8
06B_METAL_SUPPORT_TAPPED
  6
BYLAYER
 62
  256
 10
122.34048590465
 20
98.03486561728275
 40
0
 50
180.1167414720848
 51
180.1167414720848
  0
ARC
  5
F3
  8
06B_METAL_SUPPORT_TAPPED
  6
BYLAYER
 62
  256
 10
121.3404879803994
 20
98.03282809563105
 40
1
 50
0.1167414720848019
 51
90.1167414720848
  0
LINE
  5
F4
  8
06B_METAL_SUPPORT_TAPPED
  6
BYLAYER
 62
  256
 10
142.1719806266204
 20
94.75143632641323
 11
152.1719598691265
 21
94.77181154293032
  0
ARC
  5
F5
  8
06B_METAL_SUPPORT_TAPPED
  6
BYLAYER
 62
  256
 10
152.1686998344837
 20
96.37180822173129
 40
1.599999999999994
 50
270.1167414720848
 51
90.1167414720848
  0
LINE
  5
F6
  8
06B_METAL_SUPPORT_TAPPED
  6
BYLAYER
 62
  256
 10
152.165439799841
 20
97.97180490053225
 11
142.165460557335
 21
97.95142968401515
  0
ARC
  5
F7
  8
06B_METAL_SUPPORT_TAPPED
  6
BYLAYER
 62
  256
 10
142.1687205919777
 20
96.35143300521419
 40
1.599999999999994
 50
90.1167414720848
 51
270.1167414720848
  0
LINE
  5
F8
  8
06B_METAL_SUPPORT_TAPPED
  6
BYLAYER
 62
  256
 10
121.3952785073375
 20
54.0224411843494
 11
102.1451113688962
 21
53.98321847058928
  0
ARC
  5
F9
  8
06B_METAL_SUPPORT_TAPPED
  6
BYLAYER
 62
  256
 10
102.1471488905479
 20
52.98322054633867
 40
1
 50
90.1167414720848
 51
180.1167414720848
  0
LINE
  5
FA
  8
06B_METAL_SUPPORT_TAPPED
  6
BYLAYER
 62
  256
 10
101.1471509662973
 20
52.98118302468696
 11
101.1488064526393
 21
52.16868471123335
  0
ARC
  5
FB
  8
06B_METAL_SUPPORT_TAPPED
  6
BYLAYER
 62
  256
 10
102.1488043768899
 20
52.17072223288505
 40
1
 50
180.1167414720848
 51
270.1167414720848
  0
LINE
  5
FC
  8
06B_METAL_SUPPORT_TAPPED
  6
BYLAYER
 62
  256
 10
102.1508418985416
 20
51.17072430863445
 11
121.4010090369829
 21
51.20994702239457
  0
ARC
  5
FD
  8
06B_METAL_SUPPORT_TAPPED
  6
BYLAYER
 62
  256
 10
121.3989715153312
 20
52.20994494664518
 40
1.000000000000007
 50
270.1167414720844
 51
0.1167414720843948
  0
LINE
  5
FE
  8
06B_METAL_SUPPORT_TAPPED
  6
BYLAYER
 62
  256
 10
122.3989694395818
 20
52.21198246829688
 11
122.3973139532398
 21
53.0244807817505
  0
ARC
  5
FF
  8
06B_METAL_SUPPORT_TAPPED
  6
BYLAYER
 62
  256
 10
122.3973139532398
 20
53.0244807817505
 40
0
 50
180.1167414720848
 51
180.1167414720848
  0
ARC
  5
100
  8
06B_METAL_SUPPORT_TAPPED
  6
BYLAYER
 62
  256
 10
122.3973139532398
 20
53.0244807817505
 40
0
 50
180.1167414720848
 51
180.1167414720848
  0
ARC
  5
101
  8
06B_METAL_SUPPORT_TAPPED
  6
BYLAYER
 62
  256
 10
121.3973160289892
 20
53.02244326009879
 40
1
 50
0.1167414720848019
 51
90.1167414720848
  0
LINE
  5
102
  8
06B_METAL_SUPPORT_TAPPED
  6
BYLAYER
 62
  256
 10
142.2288086752102
 20
49.74105149088097
 11
152.2287879177163
 21
49.76142670739806
  0
ARC
  5
103
  8
06B_METAL_SUPPORT_TAPPED
  6
BYLAYER
 62
  256
 10
152.2255278830735
 20
51.36142338619902
 40
1.599999999999994
 50
270.1167414720848
 51
90.1167414720848
  0
LINE
  5
104
  8
06B_METAL_SUPPORT_TAPPED
  6
BYLAYER
 62
  256
 10
152.2222678484308
 20
52.96142006499998
 11
142.2222886059247
 21
52.9410448484829
  0
ARC
  5
105
  8
06B_METAL_SUPPORT_TAPPED
  6
BYLAYER
 62
  256
 10
142.2255486405675
 20
51.34104816968193
 40
1.599999999999994
 50
90.1167414720848
 51
270.1167414720848
  0
LINE
  5
106
  8
06B_METAL_SUPPORT_TAPPED
  6
BYLAYER
 62
  256
 10
128.674792902953
 20
166.5668087268018
 11
147.925
 21
166.5668087268018
  0
ARC
  5
107
  8
06B_METAL_SUPPORT_TAPPED
  6
BYLAYER
 62
  256
 10
147.925
 20
165.5668087268018
 40
1
 50
360
 51
90
  0
LINE
  5
108
  8
06B_METAL_SUPPORT_TAPPED
  6
BYLAYER
 62
  256
 10
148.925
 20
165.5668087268018
 11
148.925
 21
164.7543087268018
  0
ARC
  5
109
  8
06B_METAL_SUPPORT_TAPPED
  6
BYLAYER
 62
  256
 10
147.925
 20
164.7543087268018
 40
1
 50
270
 51
360
  0
LINE
  5
10A
  8
06B_METAL_SUPPORT_TAPPED
  6
BYLAYER
 62
  256
 10
147.925
 20
163.7543087268018
 11
128.674792902953
 21
163.7543087268018
  0
ARC
  5
10B
  8
06B_METAL_SUPPORT_TAPPED
  6
BYLAYER
 62
  256
 10
128.674792902953
 20
164.7543087268018
 40
1.000000000000007
 50
180.0000000000004
 51
270.0000000000004
  0
LINE
  5
10C
  8
06B_METAL_SUPPORT_TAPPED
  6
BYLAYER
 62
  256
 10
127.674792902953
 20
164.7543087268018
 11
127.674792902953
 21
165.5668087268018
  0
ARC
  5
10D
  8
06B_METAL_SUPPORT_TAPPED
  6
BYLAYER
 62
  256
 10
127.674792902953
 20
165.5668087268018
 40
0
 50
0
 51
0
  0
ARC
  5
10E
  8
06B_METAL_SUPPORT_TAPPED
  6
BYLAYER
 62
  256
 10
127.674792902953
 20
165.5668087268018
 40
0
 50
0
 51
0
  0
ARC
  5
10F
  8
06B_METAL_SUPPORT_TAPPED
  6
BYLAYER
 62
  256
 10
128.674792902953
 20
165.5668087268018
 40
1
 50
90
 51
180
  0
LINE
  5
110
  8
06B_METAL_SUPPORT_TAPPED
  6
BYLAYER
 62
  256
 10
107.8500294044678
 20
162.2429791516269
 11
97.85002940446776
 21
162.2429791516269
  0
ARC
  5
111
  8
06B_METAL_SUPPORT_TAPPED
  6
BYLAYER
 62
  256
 10
97.85002940446776
 20
163.8429791516269
 40
1.599999999999994
 50
90
 51
270
  0
LINE
  5
112
  8
06B_METAL_SUPPORT_TAPPED
  6
BYLAYER
 62
  256
 10
97.85002940446776
 20
165.4429791516269
 11
107.8500294044678
 21
165.4429791516269
  0
ARC
  5
113
  8
06B_METAL_SUPPORT_TAPPED
  6
BYLAYER
 62
  256
 10
107.8500294044678
 20
163.8429791516269
 40
1.599999999999994
 50
270
 51
90
  0
LINE
  5
114
  8
06B_METAL_SUPPORT_TAPPED
  6
BYLAYER
 62
  256
 10
121.2247943615681
 20
189.0535956909462
 11
101.9746272231268
 21
189.0143729771861
  0
ARC
  5
115
  8
06B_METAL_SUPPORT_TAPPED
  6
BYLAYER
 62
  256
 10
101.9766647447785
 20
188.0143750529355
 40
1
 50
90.1167414720848
 51
180.1167414720848
  0
LINE
  5
116
  8
06B_METAL_SUPPORT_TAPPED
  6
BYLAYER
 62
  256
 10
100.9766668205279
 20
188.0123375312838
 11
100.9783223068699
 21
187.1998392178302
  0
ARC
  5
117
  8
06B_METAL_SUPPORT_TAPPED
  6
BYLAYER
 62
  256
 10
101.9783202311205
 20
187.2018767394819
 40
1
 50
180.1167414720848
 51
270.1167414720848
  0
LINE
  5
118
  8
06B_METAL_SUPPORT_TAPPED
  6
BYLAYER
 62
  256
 10
101.9803577527722
 20
186.2018788152313
 11
121.2305248912135
 21
186.2411015289914
  0
ARC
  5
119
  8
06B_METAL_SUPPORT_TAPPED
  6
BYLAYER
 62
  256
 10
121.2284873695618
 20
187.241099453242
 40
1.000000000000007
 50
270.1167414720844
 51
0.1167414720843948
  0
LINE
  5
11A
  8
06B_METAL_SUPPORT_TAPPED
  6
BYLAYER
 62
  256
 10
122.2284852938124
 20
187.2431369748937
 11
122.2268298074704
 21
188.0556352883473
  0
ARC
  5
11B
  8
06B_METAL_SUPPORT_TAPPED
  6
BYLAYER
 62
  256
 10
122.2268298074704
 20
188.0556352883473
 40
0
 50
180.1167414720848
 51
180.1167414720848
  0
ARC
  5
11C
  8
06B_METAL_SUPPORT_TAPPED
  6
BYLAYER
 62
  256
 10
122.2268298074704
 20
188.0556352883473
 40
0
 50
180.1167414720848
 51
180.1167414720848
  0
ARC
  5
11D
  8
06B_METAL_SUPPORT_TAPPED
  6
BYLAYER
 62
  256
 10
121.2268318832198
 20
188.0535977666956
 40
1
 50
0.1167414720848019
 51
90.1167414720848
  0
LINE
  5
11E
  8
06B_METAL_SUPPORT_TAPPED
  6
BYLAYER
 62
  256
 10
142.0583245294408
 20
184.7722059974778
 11
152.0583037719469
 21
184.7925812139949
  0
ARC
  5
11F
  8
06B_METAL_SUPPORT_TAPPED
  6
BYLAYER
 62
  256
 10
152.0550437373041
 20
186.3925778927959
 40
1.599999999999994
 50
270.1167414720848
 51
90.1167414720848
  0
LINE
  5
120
  8
06B_METAL_SUPPORT_TAPPED
  6
BYLAYER
 62
  256
 10
152.0517837026614
 20
187.9925745715968
 11
142.0518044601554
 21
187.9721993550797
  0
ARC
  5
121
  8
06B_METAL_SUPPORT_TAPPED
  6
BYLAYER
 62
  256
 10
142.0550644947981
 20
186.3722026762788
 40
1.599999999999994
 50
90.1167414720848
 51
270.1167414720848
  0
ENDSEC
  0
EOF
