M48
;DRILL file {KiCad (2017-11-10 revision d8f4e35)-HEAD} date Wed Dec  6 14:31:12 2017
;FORMAT={-:-/ absolute / inch / decimal}
FMAT,2
INCH,TZ
T1C0.016
T2C0.031
T3C0.039
T4C0.040
T5C0.043
T6C0.047
T7C0.059
T8C0.120
T9C0.126
%
G90
G05
M72
T1
X1.9023Y-6.901
X1.9358Y-5.8197
X2.0548Y-3.4266
X2.0743Y-3.737
X2.0791Y-4.4325
X2.1054Y-3.4063
X2.141Y-3.622
X2.1739Y-4.587
X2.1841Y-5.1743
X2.2189Y-6.4177
X2.2405Y-7.3213
X2.2456Y-7.095
X2.3549Y-4.9351
X2.3575Y-7.4458
X2.3601Y-2.2481
X2.3771Y-2.0073
X2.4097Y-4.861
X2.415Y-6.6237
X2.4545Y-3.9418
X2.4716Y-3.1909
X2.5722Y-4.605
X2.6565Y-5.6478
X2.6788Y-2.6944
X2.7043Y-5.3794
X2.7068Y-5.3125
X2.714Y-7.3213
X2.7369Y-5.6886
X2.7707Y-1.747
X2.8217Y-6.113
X2.8229Y-4.8032
X2.8391Y-5.4227
X2.8397Y-3.4719
X2.8398Y-2.8272
X2.8887Y-4.879
X2.8999Y-5.6626
X2.9525Y-7.1214
X2.9781Y-4.5122
X3.2163Y-5.4615
X3.2697Y-4.3049
X3.2702Y-5.1402
X3.3186Y-4.5704
X3.352Y-1.3074
X3.3673Y-2.7583
X3.3913Y-3.7696
X3.399Y-5.2743
X3.5068Y-4.1177
X3.5617Y-3.9019
X3.562Y-5.0837
X3.5629Y-3.8099
X3.5746Y-4.585
X3.5928Y-5.8191
X3.6038Y-6.5001
X3.6261Y-7.2084
X3.6411Y-7.1421
X3.6436Y-6.8598
X3.6977Y-5.9456
X3.7543Y-5.9407
X3.7745Y-5.0785
X3.8407Y-3.898
X3.8426Y-2.4919
X3.8542Y-5.2857
X3.8605Y-6.8647
X3.881Y-4.0051
X3.9672Y-4.6909
X3.9794Y-4.1366
X4.0058Y-4.2476
X4.0475Y-5.6782
X4.1449Y-2.4474
X4.1952Y-1.3054
X4.216Y-5.0734
X4.2748Y-5.7575
X4.2751Y-5.3117
X4.3139Y-5.4164
X4.379Y-4.9485
X4.3978Y-7.2784
X4.4342Y-5.3595
X4.4372Y-6.3635
X4.4615Y-6.0118
X4.5179Y-6.1311
X4.5287Y-4.4556
X4.5695Y-6.2502
X4.5719Y-3.7488
X4.582Y-6.5188
X4.5866Y-4.0158
X4.6715Y-6.1253
X4.6962Y-7.0722
X4.8604Y-7.0269
X4.8885Y-4.8379
X5.1534Y-5.3081
X5.1705Y-7.3849
X5.3348Y-6.1257
X5.554Y-4.1218
X5.6135Y-4.7007
X5.6989Y-4.1251
X5.6999Y-4.9749
T2
X3.5709Y-2.8071
X3.5709Y-2.9055
X4.9845Y-3.7068
X4.9845Y-4.0068
X2.7393Y-3.6758
X2.7393Y-3.7742
X3.7677Y-2.9833
X3.7677Y-3.0833
X3.7677Y-3.1833
X3.7677Y-3.2833
X3.7677Y-3.3833
X3.7677Y-3.4833
X3.7677Y-3.5833
X3.7677Y-3.6833
X4.0677Y-2.9833
X4.0677Y-3.0833
X4.0677Y-3.1833
X4.0677Y-3.2833
X4.0677Y-3.3833
X4.0677Y-3.4833
X4.0677Y-3.5833
X4.0677Y-3.6833
X3.0787Y-3.4459
X3.1772Y-3.4459
X3.3069Y-6.6762
X3.3069Y-6.9762
X4.2746Y-4.5984
X4.2746Y-4.7953
X5.1866Y-6.3006
X5.4866Y-6.3006
X2.9843Y-2.4291
X2.9843Y-2.5276
X3.8504Y-1.1768
X3.8504Y-1.4768
X3.9504Y-1.1768
X3.9504Y-1.4768
X4.0504Y-1.1768
X4.0504Y-1.4768
X4.1504Y-1.1768
X4.1504Y-1.4768
X3.0177Y-2.9026
X3.0177Y-3.001
X3.5574Y-5.7591
X3.8574Y-5.7591
X4.439Y-4.1813
X4.439Y-4.2813
X4.439Y-4.3813
X4.439Y-4.4813
X4.439Y-4.5813
X4.439Y-4.6813
X4.439Y-4.7813
X4.439Y-4.8813
X4.739Y-4.1813
X4.739Y-4.2813
X4.739Y-4.3813
X4.739Y-4.4813
X4.739Y-4.5813
X4.739Y-4.6813
X4.739Y-4.7813
X4.739Y-4.8813
X3.6181Y-1.6063
X3.7165Y-1.6063
X5.4695Y-4.1222
X5.7695Y-4.1222
X5.1032Y-3.1716
X5.1032Y-3.4716
X4.0376Y-4.0226
X4.3376Y-4.0226
X5.1931Y-5.7706
X5.4931Y-5.7706
X3.6417Y-3.4695
X3.6417Y-3.7695
X3.5562Y-5.2098
X3.8562Y-5.2098
X2.939Y-2.7953
X3.0374Y-2.7953
X3.1781Y-4.1427
X3.1781Y-4.2411
X3.9728Y-5.1141
X3.9728Y-5.4141
X3.952Y-6.3441
X4.252Y-6.3441
X3.4223Y-6.8869
X3.7223Y-6.8869
X5.4501Y-4.648
X5.7501Y-4.648
X5.1073Y-4.2317
X5.1073Y-4.5317
X4.848Y-6.4239
X4.848Y-6.7239
X4.9698Y-4.7602
X4.9698Y-5.0602
X2.8583Y-0.8937
X2.8583Y-0.9921
X2.7392Y-3.1093
X3.0392Y-3.1093
X4.9752Y-3.1704
X4.9752Y-3.4704
X5.387Y-6.9574
X5.387Y-7.2574
X4.3138Y-4.8813
X4.3138Y-4.9797
X3.2163Y-4.6528
X3.2163Y-4.8497
X2.8927Y-6.8829
X3.1927Y-6.8829
X5.3952Y-6.4227
X5.3952Y-6.7227
X5.4629Y-3.5907
X5.7629Y-3.5907
X3.2539Y-4.94
X3.2539Y-5.0384
X3.6417Y-3.0581
X3.6417Y-3.3581
X3.9492Y-6.8952
X4.2492Y-6.8952
X4.8539Y-5.3463
X4.8539Y-5.6463
X3.3821Y-4.238
X3.3821Y-4.338
X3.3821Y-4.438
X3.3821Y-4.538
X3.3821Y-4.638
X3.3821Y-4.738
X3.3821Y-4.838
X3.3821Y-4.938
X3.6821Y-4.238
X3.6821Y-4.338
X3.6821Y-4.438
X3.6821Y-4.538
X3.6821Y-4.638
X3.6821Y-4.738
X3.6821Y-4.838
X3.6821Y-4.938
X4.2323Y-3.062
X4.2323Y-3.2589
X2.3792Y-5.1004
X2.3792Y-5.4004
X4.724Y-5.3431
X4.724Y-5.6431
X5.1105Y-3.708
X5.1105Y-4.008
X3.5318Y-2.1974
X3.5318Y-2.3943
X5.6545Y-4.2285
X5.6545Y-4.5285
X2.3613Y-6.8672
X2.6613Y-6.8672
X4.2756Y-4.3179
X4.2756Y-4.5148
X3.2096Y-4.3671
X3.2096Y-4.564
X5.1925Y-5.2309
X5.4925Y-5.2309
X2.3633Y-6.194
X2.6633Y-6.194
X3.0787Y-3.5711
X3.0787Y-3.8711
X3.1787Y-3.5711
X3.1787Y-3.8711
X3.2787Y-3.5711
X3.2787Y-3.8711
X3.3787Y-3.5711
X3.3787Y-3.8711
X3.4252Y-1.0472
X3.7252Y-1.0472
X2.9449Y-3.5711
X2.9449Y-3.8711
X2.7451Y-4.2411
X2.7451Y-4.3411
X2.7451Y-4.4411
X2.7451Y-4.5411
X2.7451Y-4.6411
X2.7451Y-4.7411
X2.7451Y-4.8411
X2.7451Y-4.9411
X3.0451Y-4.2411
X3.0451Y-4.3411
X3.0451Y-4.4411
X3.0451Y-4.5411
X3.0451Y-4.6411
X3.0451Y-4.7411
X3.0451Y-4.8411
X3.0451Y-4.9411
X4.4508Y-4.0217
X4.7508Y-4.0217
X3.0273Y-5.2004
X3.3273Y-5.2004
X2.4895Y-5.1957
X2.7895Y-5.1957
X2.8935Y-6.3317
X3.1935Y-6.3317
X4.7181Y-6.4227
X4.7181Y-6.7227
X1.8553Y-7.1459
X1.8553Y-7.2459
X4.8447Y-5.886
X4.8447Y-6.186
X2.9764Y-2.0197
X2.9764Y-2.1181
X5.6504Y-3.1724
X5.6504Y-3.4724
X5.3939Y-5.8868
X5.3939Y-6.1868
X3.622Y-1.7236
X3.622Y-2.0236
X3.4192Y-6.3417
X3.7192Y-6.3417
X3.8575Y-0.9134
X4.1575Y-0.9134
X3.Y-0.9134
X3.3Y-0.9134
X3.4243Y-1.1797
X3.4243Y-1.4797
X3.5243Y-1.1797
X3.5243Y-1.4797
X3.6243Y-1.1797
X3.6243Y-1.4797
X3.7243Y-1.1797
X3.7243Y-1.4797
X3.444Y-5.1067
X3.444Y-5.4067
X4.2362Y-4.1329
X4.2362Y-4.2313
X2.4331Y-0.9134
X2.4331Y-1.0134
X2.4331Y-1.1134
X2.4331Y-1.2134
X2.4331Y-1.3134
X2.4331Y-1.4134
X2.4331Y-1.5134
X2.4331Y-1.6134
X2.7331Y-0.9134
X2.7331Y-1.0134
X2.7331Y-1.1134
X2.7331Y-1.2134
X2.7331Y-1.3134
X2.7331Y-1.4134
X2.7331Y-1.5134
X2.7331Y-1.6134
X4.0709Y-1.7236
X4.0709Y-2.0236
X4.1929Y-2.8848
X4.1929Y-2.9833
X4.8397Y-6.9586
X4.8397Y-7.2586
X2.9429Y-3.2766
X3.1398Y-3.2766
X3.007Y-1.1797
X3.007Y-1.4797
X3.107Y-1.1797
X3.107Y-1.4797
X3.207Y-1.1797
X3.207Y-1.4797
X3.307Y-1.1797
X3.307Y-1.4797
X3.937Y-1.5819
X3.937Y-1.8819
X3.9531Y-6.2141
X4.2531Y-6.2141
X3.2087Y-1.6063
X3.3071Y-1.6063
X5.647Y-4.7621
X5.647Y-5.0621
X2.9091Y-5.1051
X2.9091Y-5.4051
X2.3159Y-2.8429
X2.3159Y-2.9429
X2.3159Y-3.0429
X2.3159Y-3.1429
X2.3159Y-3.2429
X2.3159Y-3.3429
X2.3159Y-3.4429
X2.3159Y-3.5429
X2.6159Y-2.8429
X2.6159Y-2.9429
X2.6159Y-3.0429
X2.6159Y-3.1429
X2.6159Y-3.2429
X2.6159Y-3.3429
X2.6159Y-3.4429
X2.6159Y-3.5429
X3.1437Y-2.8091
X3.1437Y-2.9091
X3.1437Y-3.0091
X3.1437Y-3.1091
X3.4437Y-2.8091
X3.4437Y-2.9091
X3.4437Y-3.0091
X3.4437Y-3.1091
X2.7735Y-6.6704
X2.7735Y-6.9704
X5.0997Y-4.7613
X5.0997Y-5.0613
X4.7098Y-6.9555
X4.7098Y-7.2555
X3.4223Y-6.2117
X3.7223Y-6.2117
X5.4051Y-5.3451
X5.4051Y-5.6451
X3.4882Y-1.5898
X3.4882Y-1.8898
X3.0284Y-5.7515
X3.3284Y-5.7515
X5.1862Y-6.8374
X5.4862Y-6.8374
X5.6558Y-3.7068
X5.6558Y-4.0068
X3.811Y-4.2347
X3.811Y-4.3347
X3.811Y-4.4347
X3.811Y-4.5347
X3.811Y-4.6347
X3.811Y-4.7347
X3.811Y-4.8347
X3.811Y-4.9347
X4.111Y-4.2347
X4.111Y-4.3347
X4.111Y-4.4347
X4.111Y-4.5347
X4.111Y-4.6347
X4.111Y-4.7347
X4.111Y-4.8347
X4.111Y-4.9347
X2.5504Y-1.9197
X2.5504Y-2.0197
X2.5504Y-2.1197
X2.5504Y-2.2197
X2.5504Y-2.3197
X2.5504Y-2.4197
X2.5504Y-2.5197
X2.8504Y-1.9197
X2.8504Y-2.0197
X2.8504Y-2.1197
X2.8504Y-2.2197
X2.8504Y-2.3197
X2.8504Y-2.4197
X2.8504Y-2.5197
X3.315Y-1.7157
X3.315Y-2.0157
X3.1417Y-2.0315
X3.1417Y-2.2283
X3.5562Y-5.8909
X3.8562Y-5.8909
X3.Y-1.0472
X3.3Y-1.0472
X3.8345Y-6.692
X3.8345Y-6.992
X3.0273Y-5.8815
X3.3273Y-5.8815
X4.0512Y-1.6063
X4.1496Y-1.6063
X4.0889Y-5.2133
X4.3889Y-5.2133
X2.4926Y-5.743
X2.7926Y-5.743
X4.0861Y-5.7645
X4.3861Y-5.7645
X4.9774Y-4.2325
X4.9774Y-4.5325
X2.8947Y-6.2018
X3.1947Y-6.2018
X3.8583Y-1.0394
X4.1583Y-1.0394
X2.7332Y-2.8429
X2.7332Y-2.9414
X5.4516Y-3.0582
X5.7516Y-3.0582
X2.874Y-1.2047
X2.874Y-1.5047
X2.4934Y-5.8729
X2.7934Y-5.8729
X3.5059Y-3.5112
X3.5059Y-3.6112
X3.5059Y-3.7112
X4.7148Y-5.8848
X4.7148Y-6.1848
X4.3654Y-6.6866
X4.3654Y-6.9866
X4.1929Y-3.3455
X4.1929Y-3.6455
X4.0869Y-5.8964
X4.3869Y-5.8964
X2.3141Y-3.6837
X2.3141Y-3.7837
X2.3141Y-3.8837
X2.3141Y-3.9837
X2.3141Y-4.0837
X2.3141Y-4.1837
X2.3141Y-4.2837
X2.3141Y-4.3837
X2.6141Y-3.6837
X2.6141Y-3.7837
X2.6141Y-3.8837
X2.6141Y-3.9837
X2.6141Y-4.0837
X2.6141Y-4.1837
X2.6141Y-4.2837
X2.6141Y-4.3837
X3.4244Y-0.9134
X3.7244Y-0.9134
X2.3601Y-6.322
X2.6601Y-6.322
T3
X5.2755Y-4.8055
X5.3755Y-4.8055
X5.4755Y-4.8055
X2.5328Y-5.3689
X2.5328Y-5.4689
X2.5328Y-5.5689
X2.6187Y-6.4946
X2.6187Y-6.5946
X2.6187Y-6.6946
X3.0687Y-5.3765
X3.0687Y-5.4765
X3.0687Y-5.5765
X5.0189Y-5.9286
X5.1189Y-5.9286
X5.2189Y-5.9286
X4.1307Y-5.388
X4.1307Y-5.488
X4.1307Y-5.588
X5.0226Y-6.4661
X5.1226Y-6.4661
X5.2226Y-6.4661
X5.0289Y-5.3893
X5.1289Y-5.3893
X5.2289Y-5.3893
X3.1493Y-6.5071
X3.1493Y-6.6071
X3.1493Y-6.7071
X5.2766Y-3.2146
X5.3766Y-3.2146
X5.4766Y-3.2146
X5.2799Y-4.2739
X5.3799Y-4.2739
X5.4799Y-4.2739
X5.0131Y-7.0008
X5.1131Y-7.0008
X5.2131Y-7.0008
X2.0398Y-5.3689
X2.0398Y-5.478
X2.0398Y-5.587
X2.0398Y-5.6961
X2.0398Y-5.8051
X2.0398Y-5.9142
X2.0398Y-6.0232
X2.0398Y-6.1323
X2.0398Y-6.2413
X2.0398Y-6.3504
X2.0398Y-6.4594
X2.0398Y-6.5685
X2.1516Y-5.3144
X2.1516Y-5.4234
X2.1516Y-5.5325
X2.1516Y-5.6415
X2.1516Y-5.7506
X2.1516Y-5.8596
X2.1516Y-5.9687
X2.1516Y-6.0778
X2.1516Y-6.1868
X2.1516Y-6.2959
X2.1516Y-6.4049
X2.1516Y-6.514
X2.1516Y-6.623
X3.5984Y-5.3844
X3.5984Y-5.4844
X3.5984Y-5.5844
X5.2828Y-3.7494
X5.3828Y-3.7494
X5.4828Y-3.7494
X4.207Y-6.5218
X4.207Y-6.6218
X4.207Y-6.7218
X3.6813Y-6.5139
X3.6813Y-6.6139
X3.6813Y-6.7139
T4
X3.7243Y-2.6624
X3.8243Y-2.6624
X3.9243Y-2.6624
X4.0243Y-2.6624
X4.1243Y-2.6624
X4.2243Y-2.6624
X2.8243Y-2.6624
X2.9243Y-2.6624
X3.0243Y-2.6624
X3.1243Y-2.6624
X3.2243Y-2.6624
X3.3243Y-2.6624
X3.4243Y-2.6624
X3.5243Y-2.6624
X2.4643Y-0.7624
X2.5643Y-0.7624
X2.6643Y-0.7624
X2.7643Y-0.7624
X2.8643Y-0.7624
X2.9643Y-0.7624
X3.0643Y-0.7624
X3.1643Y-0.7624
X3.2643Y-0.7624
X3.3643Y-0.7624
X3.5243Y-0.7624
X3.6243Y-0.7624
X3.7243Y-0.7624
X3.8243Y-0.7624
X3.9243Y-0.7624
X4.0243Y-0.7624
X4.1243Y-0.7624
X4.2243Y-0.7624
T5
X2.7774Y-6.1913
X2.7774Y-6.4913
X3.442Y-5.5898
X3.442Y-5.8898
X2.9111Y-5.5803
X2.9111Y-5.8803
X4.7167Y-5.2326
X5.0167Y-5.2326
X4.7088Y-6.8402
X5.0088Y-6.8402
X3.8365Y-6.2109
X3.8365Y-6.5109
X4.714Y-5.7706
X5.014Y-5.7706
X3.3069Y-6.201
X3.3069Y-6.501
X4.9844Y-4.1222
X5.2844Y-4.1222
X3.974Y-5.5982
X3.974Y-5.8982
X2.3871Y-5.5737
X2.3871Y-5.8737
X4.7104Y-6.3035
X5.0104Y-6.3035
X4.9743Y-3.0599
X5.2743Y-3.0599
X4.969Y-4.648
X5.269Y-4.648
X4.3654Y-6.2114
X4.3654Y-6.5114
X4.9837Y-3.5946
X5.2837Y-3.5946
T6
X3.4862Y-3.3593
X3.3169Y-4.0207
X3.7224Y-2.8012
X3.1535Y-4.0187
X3.2972Y-3.314
T7
X2.0531Y-7.2441
X2.9193Y-7.2441
T8
X4.3243Y-1.3624
X4.3243Y-2.4624
X2.3243Y-0.7624
X2.2743Y-2.6624
T9
X2.0957Y-5.0415
X2.0957Y-6.8959
T0
M30
