%TF.GenerationSoftware,KiCad,Pcbnew,(2017-11-10 revision d8f4e35)-HEAD*%
%TF.CreationDate,2017-12-06T14:47:03-08:00*%
%TF.ProjectId,ceiling_pcb,6365696C696E675F7063622E6B696361,0.1*%
%TF.SameCoordinates,Original*%
%TF.FileFunction,Copper,L1,Top,Signal*%
%TF.FilePolarity,Positive*%
%FSLAX46Y46*%
G04 Gerber Fmt 4.6, Leading zero omitted, Abs format (unit mm)*
G04 Created by KiCad (PCBNEW (2017-11-10 revision d8f4e35)-HEAD) date Wed Dec  6 14:47:03 2017*
%MOMM*%
%LPD*%
G01*
G04 APERTURE LIST*
%TA.AperFunction,NonConductor*%
%ADD10C,0.300000*%
%TD*%
%TA.AperFunction,NonConductor*%
%ADD11C,0.200000*%
%TD*%
%TA.AperFunction,NonConductor*%
%ADD12C,0.001000*%
%TD*%
%TA.AperFunction,SMDPad,CuDef*%
%ADD13R,1.940000X6.000000*%
%TD*%
%TA.AperFunction,Conductor*%
%ADD14C,0.000001*%
%TD*%
%TA.AperFunction,Conductor*%
%ADD15C,0.100000*%
%TD*%
%TA.AperFunction,Conductor*%
%ADD16C,0.250000*%
%TD*%
%TA.AperFunction,Conductor*%
%ADD17C,0.400000*%
%TD*%
%TA.AperFunction,Conductor*%
%ADD18C,0.254000*%
%TD*%
G04 APERTURE END LIST*
D10*
X100387142Y-16258571D02*
X100744285Y-17258571D01*
X101101428Y-16258571D01*
X101958571Y-15758571D02*
X102101428Y-15758571D01*
X102244285Y-15830000D01*
X102315714Y-15901428D01*
X102387142Y-16044285D01*
X102458571Y-16330000D01*
X102458571Y-16687142D01*
X102387142Y-16972857D01*
X102315714Y-17115714D01*
X102244285Y-17187142D01*
X102101428Y-17258571D01*
X101958571Y-17258571D01*
X101815714Y-17187142D01*
X101744285Y-17115714D01*
X101672857Y-16972857D01*
X101601428Y-16687142D01*
X101601428Y-16330000D01*
X101672857Y-16044285D01*
X101744285Y-15901428D01*
X101815714Y-15830000D01*
X101958571Y-15758571D01*
X103101428Y-17115714D02*
X103172857Y-17187142D01*
X103101428Y-17258571D01*
X103030000Y-17187142D01*
X103101428Y-17115714D01*
X103101428Y-17258571D01*
X104601428Y-17258571D02*
X103744285Y-17258571D01*
X104172857Y-17258571D02*
X104172857Y-15758571D01*
X104030000Y-15972857D01*
X103887142Y-16115714D01*
X103744285Y-16187142D01*
D11*
X138625238Y-15032380D02*
X138625238Y-14032380D01*
X138625238Y-14508571D02*
X139196666Y-14508571D01*
X139196666Y-15032380D02*
X139196666Y-14032380D01*
X139815714Y-15032380D02*
X139720476Y-14984761D01*
X139672857Y-14937142D01*
X139625238Y-14841904D01*
X139625238Y-14556190D01*
X139672857Y-14460952D01*
X139720476Y-14413333D01*
X139815714Y-14365714D01*
X139958571Y-14365714D01*
X140053809Y-14413333D01*
X140101428Y-14460952D01*
X140149047Y-14556190D01*
X140149047Y-14841904D01*
X140101428Y-14937142D01*
X140053809Y-14984761D01*
X139958571Y-15032380D01*
X139815714Y-15032380D01*
X140577619Y-14365714D02*
X140577619Y-15032380D01*
X140577619Y-14460952D02*
X140625238Y-14413333D01*
X140720476Y-14365714D01*
X140863333Y-14365714D01*
X140958571Y-14413333D01*
X141006190Y-14508571D01*
X141006190Y-15032380D01*
X141910952Y-14365714D02*
X141910952Y-15175238D01*
X141863333Y-15270476D01*
X141815714Y-15318095D01*
X141720476Y-15365714D01*
X141577619Y-15365714D01*
X141482380Y-15318095D01*
X141910952Y-14984761D02*
X141815714Y-15032380D01*
X141625238Y-15032380D01*
X141530000Y-14984761D01*
X141482380Y-14937142D01*
X141434761Y-14841904D01*
X141434761Y-14556190D01*
X141482380Y-14460952D01*
X141530000Y-14413333D01*
X141625238Y-14365714D01*
X141815714Y-14365714D01*
X141910952Y-14413333D01*
X143291904Y-15032380D02*
X143196666Y-14984761D01*
X143149047Y-14889523D01*
X143149047Y-14032380D01*
X144101428Y-15032380D02*
X144101428Y-14508571D01*
X144053809Y-14413333D01*
X143958571Y-14365714D01*
X143768095Y-14365714D01*
X143672857Y-14413333D01*
X144101428Y-14984761D02*
X144006190Y-15032380D01*
X143768095Y-15032380D01*
X143672857Y-14984761D01*
X143625238Y-14889523D01*
X143625238Y-14794285D01*
X143672857Y-14699047D01*
X143768095Y-14651428D01*
X144006190Y-14651428D01*
X144101428Y-14603809D01*
X144577619Y-15032380D02*
X144577619Y-14032380D01*
X144577619Y-14413333D02*
X144672857Y-14365714D01*
X144863333Y-14365714D01*
X144958571Y-14413333D01*
X145006190Y-14460952D01*
X145053809Y-14556190D01*
X145053809Y-14841904D01*
X145006190Y-14937142D01*
X144958571Y-14984761D01*
X144863333Y-15032380D01*
X144672857Y-15032380D01*
X144577619Y-14984761D01*
X146863333Y-14556190D02*
X146815714Y-14508571D01*
X146720476Y-14460952D01*
X146625238Y-14460952D01*
X146530000Y-14508571D01*
X146482380Y-14556190D01*
X146434761Y-14651428D01*
X146434761Y-14746666D01*
X146482380Y-14841904D01*
X146530000Y-14889523D01*
X146625238Y-14937142D01*
X146720476Y-14937142D01*
X146815714Y-14889523D01*
X146863333Y-14841904D01*
X146863333Y-14460952D02*
X146863333Y-14841904D01*
X146910952Y-14889523D01*
X146958571Y-14889523D01*
X147053809Y-14841904D01*
X147101428Y-14746666D01*
X147101428Y-14508571D01*
X147006190Y-14365714D01*
X146863333Y-14270476D01*
X146672857Y-14222857D01*
X146482380Y-14270476D01*
X146339523Y-14365714D01*
X146244285Y-14508571D01*
X146196666Y-14699047D01*
X146244285Y-14889523D01*
X146339523Y-15032380D01*
X146482380Y-15127619D01*
X146672857Y-15175238D01*
X146863333Y-15127619D01*
X147006190Y-15032380D01*
X148863333Y-14937142D02*
X148815714Y-14984761D01*
X148672857Y-15032380D01*
X148577619Y-15032380D01*
X148434761Y-14984761D01*
X148339523Y-14889523D01*
X148291904Y-14794285D01*
X148244285Y-14603809D01*
X148244285Y-14460952D01*
X148291904Y-14270476D01*
X148339523Y-14175238D01*
X148434761Y-14080000D01*
X148577619Y-14032380D01*
X148672857Y-14032380D01*
X148815714Y-14080000D01*
X148863333Y-14127619D01*
X149720476Y-15032380D02*
X149720476Y-14508571D01*
X149672857Y-14413333D01*
X149577619Y-14365714D01*
X149387142Y-14365714D01*
X149291904Y-14413333D01*
X149720476Y-14984761D02*
X149625238Y-15032380D01*
X149387142Y-15032380D01*
X149291904Y-14984761D01*
X149244285Y-14889523D01*
X149244285Y-14794285D01*
X149291904Y-14699047D01*
X149387142Y-14651428D01*
X149625238Y-14651428D01*
X149720476Y-14603809D01*
X150339523Y-15032380D02*
X150244285Y-14984761D01*
X150196666Y-14889523D01*
X150196666Y-14032380D01*
X150577619Y-14365714D02*
X150958571Y-14365714D01*
X150720476Y-14032380D02*
X150720476Y-14889523D01*
X150768095Y-14984761D01*
X150863333Y-15032380D01*
X150958571Y-15032380D01*
X151672857Y-14984761D02*
X151577619Y-15032380D01*
X151387142Y-15032380D01*
X151291904Y-14984761D01*
X151244285Y-14889523D01*
X151244285Y-14508571D01*
X151291904Y-14413333D01*
X151387142Y-14365714D01*
X151577619Y-14365714D01*
X151672857Y-14413333D01*
X151720476Y-14508571D01*
X151720476Y-14603809D01*
X151244285Y-14699047D01*
X152577619Y-14984761D02*
X152482380Y-15032380D01*
X152291904Y-15032380D01*
X152196666Y-14984761D01*
X152149047Y-14937142D01*
X152101428Y-14841904D01*
X152101428Y-14556190D01*
X152149047Y-14460952D01*
X152196666Y-14413333D01*
X152291904Y-14365714D01*
X152482380Y-14365714D01*
X152577619Y-14413333D01*
X153006190Y-15032380D02*
X153006190Y-14032380D01*
X153434761Y-15032380D02*
X153434761Y-14508571D01*
X153387142Y-14413333D01*
X153291904Y-14365714D01*
X153149047Y-14365714D01*
X153053809Y-14413333D01*
X153006190Y-14460952D01*
D12*
X155000000Y-11025000D02*
X155000000Y-219000000D01*
X95000000Y-219000000D02*
X95000000Y-11025000D01*
X155000000Y-11025000D02*
X95000000Y-11025000D01*
X95000000Y-219000000D02*
X155000000Y-219000000D01*
X126459000Y-200279810D02*
G75*
G03X126459000Y-200279810I-1500000J0D01*
G01*
X126459000Y-187245800D02*
G75*
G03X126459000Y-187245800I-1500000J0D01*
G01*
X126465000Y-177779700D02*
G75*
G03X126465000Y-177779700I-1500000J0D01*
G01*
X126465000Y-164745700D02*
G75*
G03X126465000Y-164745700I-1500000J0D01*
G01*
X126471000Y-155279600D02*
G75*
G03X126471000Y-155279600I-1500000J0D01*
G01*
X126471000Y-142245600D02*
G75*
G03X126471000Y-142245600I-1500000J0D01*
G01*
X126477000Y-132779600D02*
G75*
G03X126477000Y-132779600I-1500000J0D01*
G01*
X126477000Y-119745500D02*
G75*
G03X126477000Y-119745500I-1500000J0D01*
G01*
X126483000Y-110279500D02*
G75*
G03X126483000Y-110279500I-1500000J0D01*
G01*
X126483000Y-97245200D02*
G75*
G03X126483000Y-97245200I-1500000J0D01*
G01*
X126489000Y-74745200D02*
G75*
G03X126489000Y-74745200I-1500000J0D01*
G01*
X126489000Y-87779200D02*
G75*
G03X126489000Y-87779200I-1500000J0D01*
G01*
X126495000Y-65279200D02*
G75*
G03X126495000Y-65279200I-1500000J0D01*
G01*
X126495000Y-52245200D02*
G75*
G03X126495000Y-52245200I-1500000J0D01*
G01*
X126501000Y-42779200D02*
G75*
G03X126501000Y-42779200I-1500000J0D01*
G01*
X126501000Y-29745200D02*
G75*
G03X126501000Y-29745200I-1500000J0D01*
G01*
D13*
%TO.P,J1,1*%
%TO.N,/F9*%
X135160000Y-213750000D03*
%TO.P,J1,2*%
%TO.N,/F11*%
X132620000Y-213750000D03*
%TO.P,J1,3*%
%TO.N,/F13*%
X130080000Y-213750000D03*
%TO.P,J1,4*%
%TO.N,/F15*%
X127540000Y-213750000D03*
%TO.P,J1,5*%
%TO.N,/HV*%
X125000000Y-213750000D03*
%TO.P,J1,6*%
%TO.N,/F16*%
X122460000Y-213750000D03*
%TO.P,J1,7*%
%TO.N,/F14*%
X119920000Y-213750000D03*
%TO.P,J1,8*%
%TO.N,/F12*%
X117380000Y-213750000D03*
%TO.P,J1,9*%
%TO.N,/F10*%
X114840000Y-213750000D03*
%TD*%
%TO.P,J2,9*%
%TO.N,/F8*%
X114840000Y-16385800D03*
%TO.P,J2,8*%
%TO.N,/F6*%
X117380000Y-16385800D03*
%TO.P,J2,7*%
%TO.N,/F4*%
X119920000Y-16385800D03*
%TO.P,J2,6*%
%TO.N,/F2*%
X122460000Y-16385800D03*
%TO.P,J2,5*%
%TO.N,/HV*%
X125000000Y-16385800D03*
%TO.P,J2,4*%
%TO.N,/F1*%
X127540000Y-16385800D03*
%TO.P,J2,3*%
%TO.N,/F3*%
X130080000Y-16385800D03*
%TO.P,J2,2*%
%TO.N,/F5*%
X132620000Y-16385800D03*
%TO.P,J2,1*%
%TO.N,/F7*%
X135160000Y-16385800D03*
%TD*%
D14*
%TO.N,/HV*%
%TO.C,J3*%
X125000000Y-197450000D03*
D15*
G36*
X150000000Y-189950000D02*
X125200000Y-189950000D01*
X125200000Y-191550000D01*
X150000000Y-191550000D01*
X150000000Y-191950000D01*
X125200000Y-191950000D01*
X125200000Y-193550000D01*
X150000000Y-193550000D01*
X150000000Y-193950000D01*
X125200000Y-193950000D01*
X125200000Y-195550000D01*
X150000000Y-195550000D01*
X150000000Y-195950000D01*
X125200000Y-195950000D01*
X125200000Y-197550000D01*
X150000000Y-197550000D01*
X150000000Y-197950000D01*
X100000000Y-197950000D01*
X100000000Y-197550000D01*
X124800000Y-197550000D01*
X124800000Y-195950000D01*
X100000000Y-195950000D01*
X100000000Y-195550000D01*
X124800000Y-195550000D01*
X124800000Y-193950000D01*
X100000000Y-193950000D01*
X100000000Y-193550000D01*
X124800000Y-193550000D01*
X124800000Y-191950000D01*
X100000000Y-191950000D01*
X100000000Y-191550000D01*
X124800000Y-191550000D01*
X124800000Y-189950000D01*
X100000000Y-189950000D01*
X100000000Y-189550000D01*
X150000000Y-189550000D01*
X150000000Y-189950000D01*
X150000000Y-189950000D01*
G37*
D14*
%TO.N,/F15*%
X150500000Y-189750000D03*
D15*
G36*
X151000000Y-196950000D02*
X125800000Y-196950000D01*
X125800000Y-196550000D01*
X150600000Y-196550000D01*
X150600000Y-194950000D01*
X125800000Y-194950000D01*
X125800000Y-194550000D01*
X150600000Y-194550000D01*
X150600000Y-192950000D01*
X125800000Y-192950000D01*
X125800000Y-192550000D01*
X150600000Y-192550000D01*
X150600000Y-190950000D01*
X125800000Y-190950000D01*
X125800000Y-190550000D01*
X150600000Y-190550000D01*
X150600000Y-188950000D01*
X151000000Y-188950000D01*
X151000000Y-196950000D01*
X151000000Y-196950000D01*
G37*
D14*
%TO.N,/F16*%
X99500000Y-189750000D03*
D15*
G36*
X99400000Y-190550000D02*
X124200000Y-190550000D01*
X124200000Y-190950000D01*
X99400000Y-190950000D01*
X99400000Y-192550000D01*
X124200000Y-192550000D01*
X124200000Y-192950000D01*
X99400000Y-192950000D01*
X99400000Y-194550000D01*
X124200000Y-194550000D01*
X124200000Y-194950000D01*
X99400000Y-194950000D01*
X99400000Y-196550000D01*
X124200000Y-196550000D01*
X124200000Y-196950000D01*
X99000000Y-196950000D01*
X99000000Y-188950000D01*
X99400000Y-188950000D01*
X99400000Y-190550000D01*
X99400000Y-190550000D01*
G37*
%TD*%
D14*
%TO.N,/HV*%
%TO.C,J4*%
X125000000Y-174969400D03*
D15*
G36*
X150000000Y-167469400D02*
X125200000Y-167469400D01*
X125200000Y-169069400D01*
X150000000Y-169069400D01*
X150000000Y-169469400D01*
X125200000Y-169469400D01*
X125200000Y-171069400D01*
X150000000Y-171069400D01*
X150000000Y-171469400D01*
X125200000Y-171469400D01*
X125200000Y-173069400D01*
X150000000Y-173069400D01*
X150000000Y-173469400D01*
X125200000Y-173469400D01*
X125200000Y-175069400D01*
X150000000Y-175069400D01*
X150000000Y-175469400D01*
X100000000Y-175469400D01*
X100000000Y-175069400D01*
X124800000Y-175069400D01*
X124800000Y-173469400D01*
X100000000Y-173469400D01*
X100000000Y-173069400D01*
X124800000Y-173069400D01*
X124800000Y-171469400D01*
X100000000Y-171469400D01*
X100000000Y-171069400D01*
X124800000Y-171069400D01*
X124800000Y-169469400D01*
X100000000Y-169469400D01*
X100000000Y-169069400D01*
X124800000Y-169069400D01*
X124800000Y-167469400D01*
X100000000Y-167469400D01*
X100000000Y-167069400D01*
X150000000Y-167069400D01*
X150000000Y-167469400D01*
X150000000Y-167469400D01*
G37*
D14*
%TO.N,/F13*%
X150500000Y-167269400D03*
D15*
G36*
X151000000Y-174469400D02*
X125800000Y-174469400D01*
X125800000Y-174069400D01*
X150600000Y-174069400D01*
X150600000Y-172469400D01*
X125800000Y-172469400D01*
X125800000Y-172069400D01*
X150600000Y-172069400D01*
X150600000Y-170469400D01*
X125800000Y-170469400D01*
X125800000Y-170069400D01*
X150600000Y-170069400D01*
X150600000Y-168469400D01*
X125800000Y-168469400D01*
X125800000Y-168069400D01*
X150600000Y-168069400D01*
X150600000Y-166469400D01*
X151000000Y-166469400D01*
X151000000Y-174469400D01*
X151000000Y-174469400D01*
G37*
D14*
%TO.N,/F14*%
X99500000Y-167269400D03*
D15*
G36*
X99400000Y-168069400D02*
X124200000Y-168069400D01*
X124200000Y-168469400D01*
X99400000Y-168469400D01*
X99400000Y-170069400D01*
X124200000Y-170069400D01*
X124200000Y-170469400D01*
X99400000Y-170469400D01*
X99400000Y-172069400D01*
X124200000Y-172069400D01*
X124200000Y-172469400D01*
X99400000Y-172469400D01*
X99400000Y-174069400D01*
X124200000Y-174069400D01*
X124200000Y-174469400D01*
X99000000Y-174469400D01*
X99000000Y-166469400D01*
X99400000Y-166469400D01*
X99400000Y-168069400D01*
X99400000Y-168069400D01*
G37*
%TD*%
D14*
%TO.N,/F12*%
%TO.C,J5*%
X99500000Y-144788800D03*
D15*
G36*
X99400000Y-145588800D02*
X124200000Y-145588800D01*
X124200000Y-145988800D01*
X99400000Y-145988800D01*
X99400000Y-147588800D01*
X124200000Y-147588800D01*
X124200000Y-147988800D01*
X99400000Y-147988800D01*
X99400000Y-149588800D01*
X124200000Y-149588800D01*
X124200000Y-149988800D01*
X99400000Y-149988800D01*
X99400000Y-151588800D01*
X124200000Y-151588800D01*
X124200000Y-151988800D01*
X99000000Y-151988800D01*
X99000000Y-143988800D01*
X99400000Y-143988800D01*
X99400000Y-145588800D01*
X99400000Y-145588800D01*
G37*
D14*
%TO.N,/F11*%
X150500000Y-144788800D03*
D15*
G36*
X151000000Y-151988800D02*
X125800000Y-151988800D01*
X125800000Y-151588800D01*
X150600000Y-151588800D01*
X150600000Y-149988800D01*
X125800000Y-149988800D01*
X125800000Y-149588800D01*
X150600000Y-149588800D01*
X150600000Y-147988800D01*
X125800000Y-147988800D01*
X125800000Y-147588800D01*
X150600000Y-147588800D01*
X150600000Y-145988800D01*
X125800000Y-145988800D01*
X125800000Y-145588800D01*
X150600000Y-145588800D01*
X150600000Y-143988800D01*
X151000000Y-143988800D01*
X151000000Y-151988800D01*
X151000000Y-151988800D01*
G37*
D14*
%TO.N,/HV*%
X125000000Y-152488800D03*
D15*
G36*
X150000000Y-144988800D02*
X125200000Y-144988800D01*
X125200000Y-146588800D01*
X150000000Y-146588800D01*
X150000000Y-146988800D01*
X125200000Y-146988800D01*
X125200000Y-148588800D01*
X150000000Y-148588800D01*
X150000000Y-148988800D01*
X125200000Y-148988800D01*
X125200000Y-150588800D01*
X150000000Y-150588800D01*
X150000000Y-150988800D01*
X125200000Y-150988800D01*
X125200000Y-152588800D01*
X150000000Y-152588800D01*
X150000000Y-152988800D01*
X100000000Y-152988800D01*
X100000000Y-152588800D01*
X124800000Y-152588800D01*
X124800000Y-150988800D01*
X100000000Y-150988800D01*
X100000000Y-150588800D01*
X124800000Y-150588800D01*
X124800000Y-148988800D01*
X100000000Y-148988800D01*
X100000000Y-148588800D01*
X124800000Y-148588800D01*
X124800000Y-146988800D01*
X100000000Y-146988800D01*
X100000000Y-146588800D01*
X124800000Y-146588800D01*
X124800000Y-144988800D01*
X100000000Y-144988800D01*
X100000000Y-144588800D01*
X150000000Y-144588800D01*
X150000000Y-144988800D01*
X150000000Y-144988800D01*
G37*
%TD*%
D14*
%TO.N,/F10*%
%TO.C,J6*%
X99500000Y-122308200D03*
D15*
G36*
X99400000Y-123108200D02*
X124200000Y-123108200D01*
X124200000Y-123508200D01*
X99400000Y-123508200D01*
X99400000Y-125108200D01*
X124200000Y-125108200D01*
X124200000Y-125508200D01*
X99400000Y-125508200D01*
X99400000Y-127108200D01*
X124200000Y-127108200D01*
X124200000Y-127508200D01*
X99400000Y-127508200D01*
X99400000Y-129108200D01*
X124200000Y-129108200D01*
X124200000Y-129508200D01*
X99000000Y-129508200D01*
X99000000Y-121508200D01*
X99400000Y-121508200D01*
X99400000Y-123108200D01*
X99400000Y-123108200D01*
G37*
D14*
%TO.N,/F9*%
X150500000Y-122308200D03*
D15*
G36*
X151000000Y-129508200D02*
X125800000Y-129508200D01*
X125800000Y-129108200D01*
X150600000Y-129108200D01*
X150600000Y-127508200D01*
X125800000Y-127508200D01*
X125800000Y-127108200D01*
X150600000Y-127108200D01*
X150600000Y-125508200D01*
X125800000Y-125508200D01*
X125800000Y-125108200D01*
X150600000Y-125108200D01*
X150600000Y-123508200D01*
X125800000Y-123508200D01*
X125800000Y-123108200D01*
X150600000Y-123108200D01*
X150600000Y-121508200D01*
X151000000Y-121508200D01*
X151000000Y-129508200D01*
X151000000Y-129508200D01*
G37*
D14*
%TO.N,/HV*%
X125000000Y-130008200D03*
D15*
G36*
X150000000Y-122508200D02*
X125200000Y-122508200D01*
X125200000Y-124108200D01*
X150000000Y-124108200D01*
X150000000Y-124508200D01*
X125200000Y-124508200D01*
X125200000Y-126108200D01*
X150000000Y-126108200D01*
X150000000Y-126508200D01*
X125200000Y-126508200D01*
X125200000Y-128108200D01*
X150000000Y-128108200D01*
X150000000Y-128508200D01*
X125200000Y-128508200D01*
X125200000Y-130108200D01*
X150000000Y-130108200D01*
X150000000Y-130508200D01*
X100000000Y-130508200D01*
X100000000Y-130108200D01*
X124800000Y-130108200D01*
X124800000Y-128508200D01*
X100000000Y-128508200D01*
X100000000Y-128108200D01*
X124800000Y-128108200D01*
X124800000Y-126508200D01*
X100000000Y-126508200D01*
X100000000Y-126108200D01*
X124800000Y-126108200D01*
X124800000Y-124508200D01*
X100000000Y-124508200D01*
X100000000Y-124108200D01*
X124800000Y-124108200D01*
X124800000Y-122508200D01*
X100000000Y-122508200D01*
X100000000Y-122108200D01*
X150000000Y-122108200D01*
X150000000Y-122508200D01*
X150000000Y-122508200D01*
G37*
%TD*%
D14*
%TO.N,/HV*%
%TO.C,J7*%
X125000000Y-107527600D03*
D15*
G36*
X150000000Y-100027600D02*
X125200000Y-100027600D01*
X125200000Y-101627600D01*
X150000000Y-101627600D01*
X150000000Y-102027600D01*
X125200000Y-102027600D01*
X125200000Y-103627600D01*
X150000000Y-103627600D01*
X150000000Y-104027600D01*
X125200000Y-104027600D01*
X125200000Y-105627600D01*
X150000000Y-105627600D01*
X150000000Y-106027600D01*
X125200000Y-106027600D01*
X125200000Y-107627600D01*
X150000000Y-107627600D01*
X150000000Y-108027600D01*
X100000000Y-108027600D01*
X100000000Y-107627600D01*
X124800000Y-107627600D01*
X124800000Y-106027600D01*
X100000000Y-106027600D01*
X100000000Y-105627600D01*
X124800000Y-105627600D01*
X124800000Y-104027600D01*
X100000000Y-104027600D01*
X100000000Y-103627600D01*
X124800000Y-103627600D01*
X124800000Y-102027600D01*
X100000000Y-102027600D01*
X100000000Y-101627600D01*
X124800000Y-101627600D01*
X124800000Y-100027600D01*
X100000000Y-100027600D01*
X100000000Y-99627600D01*
X150000000Y-99627600D01*
X150000000Y-100027600D01*
X150000000Y-100027600D01*
G37*
D14*
%TO.N,/F7*%
X150500000Y-99827600D03*
D15*
G36*
X151000000Y-107027600D02*
X125800000Y-107027600D01*
X125800000Y-106627600D01*
X150600000Y-106627600D01*
X150600000Y-105027600D01*
X125800000Y-105027600D01*
X125800000Y-104627600D01*
X150600000Y-104627600D01*
X150600000Y-103027600D01*
X125800000Y-103027600D01*
X125800000Y-102627600D01*
X150600000Y-102627600D01*
X150600000Y-101027600D01*
X125800000Y-101027600D01*
X125800000Y-100627600D01*
X150600000Y-100627600D01*
X150600000Y-99027600D01*
X151000000Y-99027600D01*
X151000000Y-107027600D01*
X151000000Y-107027600D01*
G37*
D14*
%TO.N,/F8*%
X99500000Y-99827600D03*
D15*
G36*
X99400000Y-100627600D02*
X124200000Y-100627600D01*
X124200000Y-101027600D01*
X99400000Y-101027600D01*
X99400000Y-102627600D01*
X124200000Y-102627600D01*
X124200000Y-103027600D01*
X99400000Y-103027600D01*
X99400000Y-104627600D01*
X124200000Y-104627600D01*
X124200000Y-105027600D01*
X99400000Y-105027600D01*
X99400000Y-106627600D01*
X124200000Y-106627600D01*
X124200000Y-107027600D01*
X99000000Y-107027600D01*
X99000000Y-99027600D01*
X99400000Y-99027600D01*
X99400000Y-100627600D01*
X99400000Y-100627600D01*
G37*
%TD*%
D14*
%TO.N,/F6*%
%TO.C,J8*%
X99500000Y-77347000D03*
D15*
G36*
X99400000Y-78147000D02*
X124200000Y-78147000D01*
X124200000Y-78547000D01*
X99400000Y-78547000D01*
X99400000Y-80147000D01*
X124200000Y-80147000D01*
X124200000Y-80547000D01*
X99400000Y-80547000D01*
X99400000Y-82147000D01*
X124200000Y-82147000D01*
X124200000Y-82547000D01*
X99400000Y-82547000D01*
X99400000Y-84147000D01*
X124200000Y-84147000D01*
X124200000Y-84547000D01*
X99000000Y-84547000D01*
X99000000Y-76547000D01*
X99400000Y-76547000D01*
X99400000Y-78147000D01*
X99400000Y-78147000D01*
G37*
D14*
%TO.N,/F5*%
X150500000Y-77347000D03*
D15*
G36*
X151000000Y-84547000D02*
X125800000Y-84547000D01*
X125800000Y-84147000D01*
X150600000Y-84147000D01*
X150600000Y-82547000D01*
X125800000Y-82547000D01*
X125800000Y-82147000D01*
X150600000Y-82147000D01*
X150600000Y-80547000D01*
X125800000Y-80547000D01*
X125800000Y-80147000D01*
X150600000Y-80147000D01*
X150600000Y-78547000D01*
X125800000Y-78547000D01*
X125800000Y-78147000D01*
X150600000Y-78147000D01*
X150600000Y-76547000D01*
X151000000Y-76547000D01*
X151000000Y-84547000D01*
X151000000Y-84547000D01*
G37*
D14*
%TO.N,/HV*%
X125000000Y-85047000D03*
D15*
G36*
X150000000Y-77547000D02*
X125200000Y-77547000D01*
X125200000Y-79147000D01*
X150000000Y-79147000D01*
X150000000Y-79547000D01*
X125200000Y-79547000D01*
X125200000Y-81147000D01*
X150000000Y-81147000D01*
X150000000Y-81547000D01*
X125200000Y-81547000D01*
X125200000Y-83147000D01*
X150000000Y-83147000D01*
X150000000Y-83547000D01*
X125200000Y-83547000D01*
X125200000Y-85147000D01*
X150000000Y-85147000D01*
X150000000Y-85547000D01*
X100000000Y-85547000D01*
X100000000Y-85147000D01*
X124800000Y-85147000D01*
X124800000Y-83547000D01*
X100000000Y-83547000D01*
X100000000Y-83147000D01*
X124800000Y-83147000D01*
X124800000Y-81547000D01*
X100000000Y-81547000D01*
X100000000Y-81147000D01*
X124800000Y-81147000D01*
X124800000Y-79547000D01*
X100000000Y-79547000D01*
X100000000Y-79147000D01*
X124800000Y-79147000D01*
X124800000Y-77547000D01*
X100000000Y-77547000D01*
X100000000Y-77147000D01*
X150000000Y-77147000D01*
X150000000Y-77547000D01*
X150000000Y-77547000D01*
G37*
%TD*%
D14*
%TO.N,/HV*%
%TO.C,J9*%
X125000000Y-62566400D03*
D15*
G36*
X150000000Y-55066400D02*
X125200000Y-55066400D01*
X125200000Y-56666400D01*
X150000000Y-56666400D01*
X150000000Y-57066400D01*
X125200000Y-57066400D01*
X125200000Y-58666400D01*
X150000000Y-58666400D01*
X150000000Y-59066400D01*
X125200000Y-59066400D01*
X125200000Y-60666400D01*
X150000000Y-60666400D01*
X150000000Y-61066400D01*
X125200000Y-61066400D01*
X125200000Y-62666400D01*
X150000000Y-62666400D01*
X150000000Y-63066400D01*
X100000000Y-63066400D01*
X100000000Y-62666400D01*
X124800000Y-62666400D01*
X124800000Y-61066400D01*
X100000000Y-61066400D01*
X100000000Y-60666400D01*
X124800000Y-60666400D01*
X124800000Y-59066400D01*
X100000000Y-59066400D01*
X100000000Y-58666400D01*
X124800000Y-58666400D01*
X124800000Y-57066400D01*
X100000000Y-57066400D01*
X100000000Y-56666400D01*
X124800000Y-56666400D01*
X124800000Y-55066400D01*
X100000000Y-55066400D01*
X100000000Y-54666400D01*
X150000000Y-54666400D01*
X150000000Y-55066400D01*
X150000000Y-55066400D01*
G37*
D14*
%TO.N,/F3*%
X150500000Y-54866400D03*
D15*
G36*
X151000000Y-62066400D02*
X125800000Y-62066400D01*
X125800000Y-61666400D01*
X150600000Y-61666400D01*
X150600000Y-60066400D01*
X125800000Y-60066400D01*
X125800000Y-59666400D01*
X150600000Y-59666400D01*
X150600000Y-58066400D01*
X125800000Y-58066400D01*
X125800000Y-57666400D01*
X150600000Y-57666400D01*
X150600000Y-56066400D01*
X125800000Y-56066400D01*
X125800000Y-55666400D01*
X150600000Y-55666400D01*
X150600000Y-54066400D01*
X151000000Y-54066400D01*
X151000000Y-62066400D01*
X151000000Y-62066400D01*
G37*
D14*
%TO.N,/F4*%
X99500000Y-54866400D03*
D15*
G36*
X99400000Y-55666400D02*
X124200000Y-55666400D01*
X124200000Y-56066400D01*
X99400000Y-56066400D01*
X99400000Y-57666400D01*
X124200000Y-57666400D01*
X124200000Y-58066400D01*
X99400000Y-58066400D01*
X99400000Y-59666400D01*
X124200000Y-59666400D01*
X124200000Y-60066400D01*
X99400000Y-60066400D01*
X99400000Y-61666400D01*
X124200000Y-61666400D01*
X124200000Y-62066400D01*
X99000000Y-62066400D01*
X99000000Y-54066400D01*
X99400000Y-54066400D01*
X99400000Y-55666400D01*
X99400000Y-55666400D01*
G37*
%TD*%
D14*
%TO.N,/F2*%
%TO.C,J10*%
X99500000Y-32385800D03*
D15*
G36*
X99400000Y-33185800D02*
X124200000Y-33185800D01*
X124200000Y-33585800D01*
X99400000Y-33585800D01*
X99400000Y-35185800D01*
X124200000Y-35185800D01*
X124200000Y-35585800D01*
X99400000Y-35585800D01*
X99400000Y-37185800D01*
X124200000Y-37185800D01*
X124200000Y-37585800D01*
X99400000Y-37585800D01*
X99400000Y-39185800D01*
X124200000Y-39185800D01*
X124200000Y-39585800D01*
X99000000Y-39585800D01*
X99000000Y-31585800D01*
X99400000Y-31585800D01*
X99400000Y-33185800D01*
X99400000Y-33185800D01*
G37*
D14*
%TO.N,/F1*%
X150500000Y-32385800D03*
D15*
G36*
X151000000Y-39585800D02*
X125800000Y-39585800D01*
X125800000Y-39185800D01*
X150600000Y-39185800D01*
X150600000Y-37585800D01*
X125800000Y-37585800D01*
X125800000Y-37185800D01*
X150600000Y-37185800D01*
X150600000Y-35585800D01*
X125800000Y-35585800D01*
X125800000Y-35185800D01*
X150600000Y-35185800D01*
X150600000Y-33585800D01*
X125800000Y-33585800D01*
X125800000Y-33185800D01*
X150600000Y-33185800D01*
X150600000Y-31585800D01*
X151000000Y-31585800D01*
X151000000Y-39585800D01*
X151000000Y-39585800D01*
G37*
D14*
%TO.N,/HV*%
X125000000Y-40085800D03*
D15*
G36*
X150000000Y-32585800D02*
X125200000Y-32585800D01*
X125200000Y-34185800D01*
X150000000Y-34185800D01*
X150000000Y-34585800D01*
X125200000Y-34585800D01*
X125200000Y-36185800D01*
X150000000Y-36185800D01*
X150000000Y-36585800D01*
X125200000Y-36585800D01*
X125200000Y-38185800D01*
X150000000Y-38185800D01*
X150000000Y-38585800D01*
X125200000Y-38585800D01*
X125200000Y-40185800D01*
X150000000Y-40185800D01*
X150000000Y-40585800D01*
X100000000Y-40585800D01*
X100000000Y-40185800D01*
X124800000Y-40185800D01*
X124800000Y-38585800D01*
X100000000Y-38585800D01*
X100000000Y-38185800D01*
X124800000Y-38185800D01*
X124800000Y-36585800D01*
X100000000Y-36585800D01*
X100000000Y-36185800D01*
X124800000Y-36185800D01*
X124800000Y-34585800D01*
X100000000Y-34585800D01*
X100000000Y-34185800D01*
X124800000Y-34185800D01*
X124800000Y-32585800D01*
X100000000Y-32585800D01*
X100000000Y-32185800D01*
X150000000Y-32185800D01*
X150000000Y-32585800D01*
X150000000Y-32585800D01*
G37*
%TD*%
D16*
%TO.N,/F8*%
X96574970Y-96724970D02*
X96574970Y-30581318D01*
X96574970Y-30581318D02*
X110770488Y-16385800D01*
X110770488Y-16385800D02*
X114840000Y-16385800D01*
%TO.N,/F6*%
X117380000Y-23785800D02*
X117380000Y-16385800D01*
X98597613Y-29760770D02*
X114655030Y-29760770D01*
X117380000Y-27035800D02*
X117380000Y-23785800D01*
X97424980Y-30933403D02*
X98597613Y-29760770D01*
X114655030Y-29760770D02*
X117380000Y-27035800D01*
X97424980Y-74974980D02*
X97424980Y-30933403D01*
%TO.N,/F4*%
X119920000Y-23785800D02*
X119920000Y-16385800D01*
X116345020Y-30610780D02*
X119920000Y-27035800D01*
X98949698Y-30610780D02*
X116345020Y-30610780D01*
X98274990Y-31285488D02*
X98949698Y-30610780D01*
X98274990Y-53424990D02*
X98274990Y-31285488D01*
X119920000Y-27035800D02*
X119920000Y-23785800D01*
%TO.N,/F2*%
X122460000Y-23785800D02*
X122460000Y-16385800D01*
X122460000Y-23785800D02*
X122460000Y-27666840D01*
X122460000Y-27666840D02*
X118666050Y-31460790D01*
X118666050Y-31460790D02*
X99699688Y-31460790D01*
X99699688Y-31460790D02*
X99180000Y-31980478D01*
D17*
%TO.N,/HV*%
X125000000Y-206354801D02*
X125000000Y-213750000D01*
X125000000Y-23785800D02*
X125000000Y-16385800D01*
X125769999Y-27425801D02*
X125240001Y-27425801D01*
X125240001Y-27425801D02*
X125000000Y-27185800D01*
X125000000Y-27185800D02*
X125000000Y-23785800D01*
X126930000Y-28080000D02*
X126435801Y-27585801D01*
X126435801Y-27585801D02*
X125929999Y-27585801D01*
X125929999Y-27585801D02*
X125769999Y-27425801D01*
X127030000Y-28080000D02*
X126930000Y-28080000D01*
X122380000Y-29055000D02*
X122380000Y-32280000D01*
X123005000Y-28430000D02*
X122380000Y-29055000D01*
X123855000Y-27580000D02*
X123005000Y-28430000D01*
X125000000Y-23785800D02*
X125000000Y-26435000D01*
X128030000Y-29080000D02*
X127030000Y-28080000D01*
D16*
%TO.N,/F1*%
X127540000Y-23785800D02*
X127540000Y-16385800D01*
X150830000Y-31780000D02*
X150510790Y-31460790D01*
X150510790Y-31460790D02*
X131964990Y-31460790D01*
X127540000Y-27035800D02*
X127540000Y-23785800D01*
X131964990Y-31460790D02*
X127540000Y-27035800D01*
%TO.N,/F3*%
X151050302Y-30610780D02*
X133654980Y-30610780D01*
X151725010Y-31285488D02*
X151050302Y-30610780D01*
X133654980Y-30610780D02*
X130080000Y-27035800D01*
X151725010Y-53130000D02*
X151725010Y-31285488D01*
X130080000Y-27035800D02*
X130080000Y-20280000D01*
X130080000Y-20280000D02*
X130080000Y-16385800D01*
%TO.N,/F5*%
X132620000Y-23785800D02*
X132620000Y-16385800D01*
X135344970Y-29760770D02*
X132620000Y-27035800D01*
X152575020Y-30933403D02*
X151402387Y-29760770D01*
X151402387Y-29760770D02*
X135344970Y-29760770D01*
X152575020Y-75034980D02*
X152575020Y-30933403D01*
X132620000Y-27035800D02*
X132620000Y-23785800D01*
%TO.N,/F7*%
X153425030Y-96684970D02*
X153425030Y-30581318D01*
X153425030Y-30581318D02*
X139229512Y-16385800D01*
X139229512Y-16385800D02*
X135160000Y-16385800D01*
%TO.N,/F9*%
X135160000Y-206110000D02*
X135160000Y-204324801D01*
X135160000Y-206354801D02*
X135160000Y-206110000D01*
X135160000Y-206110000D02*
X135160000Y-213750000D01*
X152510000Y-130960000D02*
X152410000Y-130860000D01*
X153425030Y-131875030D02*
X152510000Y-130960000D01*
X152510000Y-130960000D02*
X152510000Y-116230000D01*
X153425030Y-131875030D02*
X153425030Y-116145030D01*
X152410000Y-130860000D02*
X151700000Y-130150000D01*
X151700000Y-130150000D02*
X150730000Y-129180000D01*
X151700000Y-130150000D02*
X151700000Y-116300000D01*
X135160000Y-204324801D02*
X138259761Y-201225040D01*
X151356567Y-201225039D02*
X153425030Y-199156577D01*
X153425030Y-199156577D02*
X153425030Y-131875030D01*
X138259761Y-201225040D02*
X151356567Y-201225039D01*
%TO.N,/F11*%
X132620000Y-206354801D02*
X132620000Y-213750000D01*
X152575020Y-153425020D02*
X152575020Y-132990000D01*
X151820000Y-152670000D02*
X150730000Y-151580000D01*
X152575020Y-153425020D02*
X151820000Y-152670000D01*
X151820000Y-152670000D02*
X151820000Y-132020000D01*
X151004481Y-200375030D02*
X152575020Y-198804492D01*
X135349771Y-200375030D02*
X151004481Y-200375030D01*
X132620000Y-203104801D02*
X135349771Y-200375030D01*
X132620000Y-206354801D02*
X132620000Y-203104801D01*
X152575020Y-198804492D02*
X152575020Y-153425020D01*
%TO.N,/F13*%
X130080000Y-206354801D02*
X130080000Y-213750000D01*
X151725010Y-175075010D02*
X151725010Y-154880000D01*
X151725010Y-175075010D02*
X150830000Y-174180000D01*
X150652397Y-199525020D02*
X151725010Y-198452407D01*
X133659781Y-199525020D02*
X150652397Y-199525020D01*
X151725010Y-198452407D02*
X151725010Y-175075010D01*
X130080000Y-203104801D02*
X133659781Y-199525020D01*
X130080000Y-206354801D02*
X130080000Y-203104801D01*
%TO.N,/F15*%
X127540000Y-206210000D02*
X127540000Y-203619799D01*
X127540000Y-206354801D02*
X127540000Y-206210000D01*
X127540000Y-206210000D02*
X127540000Y-213750000D01*
X150830000Y-198145322D02*
X150830000Y-196680000D01*
X127540000Y-203619799D02*
X132484789Y-198675010D01*
X132484789Y-198675010D02*
X150300312Y-198675010D01*
X150300312Y-198675010D02*
X150830000Y-198145322D01*
%TO.N,/HV*%
X128030000Y-165080000D02*
X127030000Y-166080000D01*
D17*
X127030000Y-166580000D02*
X127030000Y-166080000D01*
X126530000Y-167080000D02*
X127030000Y-166580000D01*
X126030000Y-167080000D02*
X126530000Y-167080000D01*
X125365878Y-152915878D02*
X125365878Y-152686066D01*
X125530000Y-153080000D02*
X125365878Y-152915878D01*
X127530000Y-153080000D02*
X125530000Y-153080000D01*
X128030000Y-153580000D02*
X127530000Y-153080000D01*
X125030000Y-152350188D02*
X125030000Y-152244122D01*
X125365878Y-152686066D02*
X125030000Y-152350188D01*
D16*
X128030000Y-153580000D02*
X128030000Y-158080000D01*
X128030000Y-143580000D02*
X127530000Y-144080000D01*
D17*
X127030000Y-144580000D02*
X127530000Y-144080000D01*
D16*
X127030000Y-144580000D02*
X126790000Y-144820000D01*
D17*
X125030000Y-144820000D02*
X125437412Y-144820000D01*
X125437412Y-144820000D02*
X125677412Y-144580000D01*
X125677412Y-144580000D02*
X127030000Y-144580000D01*
X127530000Y-132080000D02*
X128030000Y-132580000D01*
X128030000Y-131580000D02*
X127530000Y-132080000D01*
X128030000Y-132580000D02*
X128801790Y-132580000D01*
X127030000Y-130580000D02*
X128030000Y-131580000D01*
X128801790Y-132580000D02*
X126530000Y-130308210D01*
X126530000Y-130308210D02*
X126030000Y-130308210D01*
D16*
X125183210Y-130233210D02*
X126030000Y-130308210D01*
X127030000Y-130580000D02*
X127530000Y-131080000D01*
X121030000Y-118912878D02*
X122697122Y-120580000D01*
X122697122Y-120580000D02*
X125030000Y-122912878D01*
D17*
X124030000Y-122080000D02*
X122697122Y-120747122D01*
X122697122Y-120747122D02*
X122697122Y-120580000D01*
D16*
X124197122Y-122080000D02*
X123197122Y-121080000D01*
X124880020Y-122762898D02*
X124197122Y-122080000D01*
D17*
X124197122Y-122080000D02*
X124030000Y-122080000D01*
X124277610Y-107827610D02*
X124531378Y-107827610D01*
X124531378Y-107827610D02*
X124778988Y-107580000D01*
X123030000Y-108580000D02*
X123782390Y-107827610D01*
X123782390Y-107827610D02*
X124277610Y-107827610D01*
D16*
X123030000Y-109080000D02*
X121030000Y-111080000D01*
X123197122Y-108912878D02*
X123030000Y-109080000D01*
D17*
X123030000Y-109080000D02*
X123030000Y-108580000D01*
D16*
X128030000Y-97080000D02*
X127030000Y-98080000D01*
D17*
X127030000Y-98580000D02*
X127030000Y-98080000D01*
X126030000Y-99580000D02*
X127030000Y-98580000D01*
D16*
X125030000Y-99580000D02*
X125030000Y-107222922D01*
D17*
X125030000Y-99580000D02*
X126030000Y-99580000D01*
D16*
X127030000Y-86580000D02*
X128030000Y-87580000D01*
D17*
X126530000Y-85580000D02*
X127030000Y-86080000D01*
X127030000Y-86080000D02*
X127030000Y-86580000D01*
X125530000Y-85580000D02*
X126530000Y-85580000D01*
X126030000Y-77080000D02*
X126530000Y-77080000D01*
X126530000Y-77080000D02*
X127530000Y-76080000D01*
X127530000Y-76080000D02*
X127030000Y-76080000D01*
D16*
X128030000Y-75080000D02*
X127030000Y-76080000D01*
D17*
X127530000Y-40580000D02*
X128530000Y-41580000D01*
X125662812Y-40580000D02*
X127530000Y-40580000D01*
X125393622Y-40310810D02*
X125662812Y-40580000D01*
X125260810Y-40310810D02*
X125393622Y-40310810D01*
X128530000Y-52580000D02*
X126530000Y-54580000D01*
X128530000Y-41580000D02*
X128530000Y-52580000D01*
D16*
X125530000Y-63080000D02*
X127030000Y-63080000D01*
D17*
X128030000Y-64080000D02*
X127030000Y-63080000D01*
D16*
X128030000Y-64080000D02*
X128030000Y-75080000D01*
X125530000Y-63080000D02*
X126530000Y-63080000D01*
X125030000Y-63080000D02*
X125530000Y-63080000D01*
X125030000Y-107222922D02*
X124500312Y-107752610D01*
X123197122Y-108247122D02*
X123197122Y-108912878D01*
X123030000Y-108080000D02*
X123197122Y-108247122D01*
X123357390Y-107752610D02*
X123030000Y-108080000D01*
X125030000Y-122912878D02*
X125030000Y-130080000D01*
X127530000Y-131080000D02*
X128030000Y-131080000D01*
X124500312Y-107752610D02*
X123357390Y-107752610D01*
X125030000Y-130080000D02*
X125183210Y-130233210D01*
X121030000Y-111080000D02*
X121030000Y-118912878D01*
X126030000Y-77080000D02*
X125030000Y-77080000D01*
X125030000Y-85080000D02*
X125530000Y-85580000D01*
X126790000Y-144820000D02*
X125030000Y-144820000D01*
X125030000Y-77080000D02*
X125030000Y-85080000D01*
X128030000Y-87580000D02*
X128030000Y-97080000D01*
X128030000Y-131080000D02*
X128030000Y-143580000D01*
X122530000Y-201580000D02*
X123530000Y-202580000D01*
X123530000Y-202580000D02*
X124625199Y-202580000D01*
X124625199Y-202580000D02*
X125000000Y-202954801D01*
D17*
X122530000Y-201580000D02*
X122030000Y-201080000D01*
X123030000Y-202080000D02*
X122530000Y-201580000D01*
D16*
X126030000Y-162080000D02*
X128030000Y-162080000D01*
X125030000Y-167080000D02*
X125030000Y-175080000D01*
X125030000Y-161080000D02*
X126030000Y-162080000D01*
X125030000Y-144580000D02*
X125030000Y-152244122D01*
X128030000Y-158080000D02*
X125030000Y-161080000D01*
X125030000Y-175080000D02*
X125144410Y-175194410D01*
X128030000Y-162080000D02*
X128030000Y-165080000D01*
X126030000Y-167080000D02*
X125030000Y-167080000D01*
D17*
X125030000Y-54580000D02*
X126530000Y-54580000D01*
X126530000Y-54580000D02*
X126280000Y-54830000D01*
D16*
X125030000Y-54830000D02*
X125030000Y-63080000D01*
X125030000Y-54580000D02*
X125030000Y-54830000D01*
D17*
X126280000Y-54830000D02*
X125030000Y-54830000D01*
X121530000Y-188080000D02*
X122710010Y-189260010D01*
X121530000Y-177330000D02*
X121530000Y-188080000D01*
X123590590Y-175269410D02*
X121530000Y-177330000D01*
X125219410Y-175269410D02*
X123590590Y-175269410D01*
X122710010Y-189260010D02*
X123030000Y-189580000D01*
X128280000Y-187580000D02*
X128280000Y-177444410D01*
X126105000Y-175269410D02*
X125219410Y-175269410D01*
X128280000Y-177444410D02*
X126105000Y-175269410D01*
X125219410Y-175269410D02*
X125144410Y-175194410D01*
X126280000Y-189580000D02*
X128280000Y-187580000D01*
X125244678Y-189580000D02*
X126280000Y-189580000D01*
D16*
X125494678Y-189830000D02*
X125244678Y-189580000D01*
X125030000Y-189830000D02*
X125494678Y-189830000D01*
X125030000Y-190294678D02*
X125030000Y-189830000D01*
X125030000Y-193580000D02*
X125030000Y-190294678D01*
X125030000Y-198080000D02*
X125030000Y-193580000D01*
X125030000Y-63080000D02*
X125030000Y-62080000D01*
X125000000Y-32110000D02*
X125000000Y-40050000D01*
X125030000Y-32080000D02*
X125000000Y-32110000D01*
X128030000Y-32080000D02*
X125030000Y-32080000D01*
X125260810Y-40310810D02*
X128030000Y-40310810D01*
X125000000Y-40050000D02*
X125260810Y-40310810D01*
X127030000Y-175194410D02*
X125144410Y-175194410D01*
X125030000Y-122762898D02*
X124880020Y-122762898D01*
X125074990Y-122807888D02*
X125030000Y-122762898D01*
X125030000Y-122852878D02*
X125074990Y-122852878D01*
X125074990Y-122852878D02*
X125074990Y-122807888D01*
D17*
X123689980Y-198080000D02*
X125030000Y-198080000D01*
X123359990Y-197750010D02*
X123689980Y-198080000D01*
X122030000Y-199080000D02*
X123359990Y-197750010D01*
X122030000Y-201080000D02*
X122030000Y-199080000D01*
X125000000Y-206354801D02*
X125000000Y-202954801D01*
X128030000Y-29080000D02*
X128030000Y-32080000D01*
D16*
%TO.N,/F10*%
X96574970Y-132080000D02*
X96574970Y-199156577D01*
X96574970Y-199156577D02*
X111168394Y-213750000D01*
X111168394Y-213750000D02*
X114840000Y-213750000D01*
%TO.N,/F12*%
X117380000Y-206190000D02*
X117380000Y-203104801D01*
X117380000Y-206354801D02*
X117380000Y-206190000D01*
X117380000Y-206190000D02*
X117380000Y-213750000D01*
%TO.N,/F14*%
X119920000Y-206354801D02*
X119920000Y-213750000D01*
%TO.N,/F16*%
X122460000Y-206354801D02*
X122460000Y-213750000D01*
X99230000Y-198205322D02*
X99230000Y-196580000D01*
X122460000Y-206354801D02*
X122460000Y-203619799D01*
X122460000Y-203619799D02*
X117515211Y-198675010D01*
X99699688Y-198675010D02*
X99230000Y-198205322D01*
X117515211Y-198675010D02*
X99699688Y-198675010D01*
%TO.N,/F14*%
X98274990Y-175135010D02*
X98274990Y-153737104D01*
X98274990Y-175135010D02*
X99230000Y-174180000D01*
X99347603Y-199525020D02*
X98274990Y-198452407D01*
X116340219Y-199525020D02*
X99347603Y-199525020D01*
X119920000Y-203104801D02*
X116340219Y-199525020D01*
X119920000Y-206354801D02*
X119920000Y-203104801D01*
X98274990Y-198452407D02*
X98274990Y-175135010D01*
%TO.N,/F12*%
X98340000Y-152470000D02*
X99230000Y-151580000D01*
X98340000Y-152470000D02*
X98340000Y-131620000D01*
X97424980Y-153385020D02*
X98340000Y-152470000D01*
X97424980Y-153385020D02*
X97424980Y-133490000D01*
X114650229Y-200375030D02*
X98995518Y-200375030D01*
X117380000Y-203104801D02*
X114650229Y-200375030D01*
X98995518Y-200375030D02*
X97424980Y-198804492D01*
X97424980Y-198804492D02*
X97424980Y-153385020D01*
%TO.N,/F10*%
X98370000Y-130040000D02*
X99230000Y-129180000D01*
X97430000Y-130980000D02*
X98370000Y-130040000D01*
X98370000Y-130040000D02*
X98370000Y-121540000D01*
X97430000Y-130980000D02*
X97430000Y-121550000D01*
X96574970Y-131835030D02*
X97430000Y-130980000D01*
X96574970Y-132080000D02*
X96574970Y-131835030D01*
X96574970Y-132080000D02*
X96574970Y-121524970D01*
%TO.N,/F8*%
X98370000Y-98520000D02*
X99130000Y-99280000D01*
X97420000Y-97570000D02*
X98370000Y-98520000D01*
X98370000Y-98520000D02*
X98370000Y-118960000D01*
X96574970Y-96724970D02*
X97420000Y-97570000D01*
X97420000Y-97570000D02*
X97420000Y-117650000D01*
X96574970Y-96724970D02*
X96574970Y-120435030D01*
%TO.N,/F6*%
X98390000Y-75940000D02*
X99230000Y-76780000D01*
X97424980Y-74974980D02*
X98390000Y-75940000D01*
X98390000Y-75940000D02*
X98390000Y-95780000D01*
X97424980Y-74974980D02*
X97424980Y-95614980D01*
X97424980Y-74974980D02*
X97424980Y-66066118D01*
%TO.N,/F4*%
X98274990Y-53424990D02*
X98274990Y-74224990D01*
X98274990Y-53424990D02*
X99230000Y-54380000D01*
%TO.N,/F7*%
X152490000Y-97620000D02*
X151590000Y-98520000D01*
X153425030Y-96684970D02*
X152490000Y-97620000D01*
X152490000Y-97620000D02*
X152490000Y-114220000D01*
X151590000Y-98520000D02*
X150830000Y-99280000D01*
X151590000Y-98520000D02*
X151590000Y-114270000D01*
X153425030Y-96684970D02*
X153425030Y-114045030D01*
%TO.N,/F5*%
X151670000Y-75940000D02*
X150830000Y-76780000D01*
X151670000Y-75940000D02*
X151670000Y-94820000D01*
X152575020Y-75034980D02*
X151670000Y-75940000D01*
X152575020Y-75034980D02*
X152575020Y-95520000D01*
%TO.N,/F3*%
X151725010Y-53130000D02*
X151725010Y-53284990D01*
X151725010Y-53130000D02*
X151725010Y-74160000D01*
X151725010Y-53284990D02*
X150930000Y-54080000D01*
%TD*%
D18*
%TO.N,/HV*%
G36*
X123383920Y-198704730D02*
X122901058Y-199427383D01*
X122731500Y-200279810D01*
X122901058Y-201132237D01*
X123383920Y-201854890D01*
X124106573Y-202337752D01*
X124959000Y-202507310D01*
X125811427Y-202337752D01*
X126534080Y-201854890D01*
X127016942Y-201132237D01*
X127186500Y-200279810D01*
X127016942Y-199427383D01*
X126534080Y-198704730D01*
X126513895Y-198691243D01*
X131263646Y-198691243D01*
X126937545Y-203017344D01*
X126752855Y-203293753D01*
X126688000Y-203619799D01*
X126688000Y-210008758D01*
X126570000Y-210008758D01*
X126286339Y-210065182D01*
X126167592Y-210144526D01*
X126096309Y-210115000D01*
X125285750Y-210115000D01*
X125127000Y-210273750D01*
X125127000Y-210953000D01*
X124873000Y-210953000D01*
X124873000Y-210273750D01*
X124714250Y-210115000D01*
X123903691Y-210115000D01*
X123832408Y-210144526D01*
X123713661Y-210065182D01*
X123430000Y-210008758D01*
X123312000Y-210008758D01*
X123312000Y-203619799D01*
X123247145Y-203293753D01*
X123062455Y-203017344D01*
X118736354Y-198691243D01*
X123404105Y-198691243D01*
X123383920Y-198704730D01*
X123383920Y-198704730D01*
G37*
X123383920Y-198704730D02*
X122901058Y-199427383D01*
X122731500Y-200279810D01*
X122901058Y-201132237D01*
X123383920Y-201854890D01*
X124106573Y-202337752D01*
X124959000Y-202507310D01*
X125811427Y-202337752D01*
X126534080Y-201854890D01*
X127016942Y-201132237D01*
X127186500Y-200279810D01*
X127016942Y-199427383D01*
X126534080Y-198704730D01*
X126513895Y-198691243D01*
X131263646Y-198691243D01*
X126937545Y-203017344D01*
X126752855Y-203293753D01*
X126688000Y-203619799D01*
X126688000Y-210008758D01*
X126570000Y-210008758D01*
X126286339Y-210065182D01*
X126167592Y-210144526D01*
X126096309Y-210115000D01*
X125285750Y-210115000D01*
X125127000Y-210273750D01*
X125127000Y-210953000D01*
X124873000Y-210953000D01*
X124873000Y-210273750D01*
X124714250Y-210115000D01*
X123903691Y-210115000D01*
X123832408Y-210144526D01*
X123713661Y-210065182D01*
X123430000Y-210008758D01*
X123312000Y-210008758D01*
X123312000Y-203619799D01*
X123247145Y-203293753D01*
X123062455Y-203017344D01*
X118736354Y-198691243D01*
X123404105Y-198691243D01*
X123383920Y-198704730D01*
G36*
X122907058Y-176927273D02*
X122737500Y-177779700D01*
X122907058Y-178632127D01*
X123389920Y-179354780D01*
X124112573Y-179837642D01*
X124965000Y-180007200D01*
X125817427Y-179837642D01*
X126540080Y-179354780D01*
X127022942Y-178632127D01*
X127192500Y-177779700D01*
X127022942Y-176927273D01*
X126544104Y-176210643D01*
X149903000Y-176210643D01*
X149903000Y-188727576D01*
X149886852Y-188808757D01*
X126542180Y-188808757D01*
X127016942Y-188098227D01*
X127186500Y-187245800D01*
X127016942Y-186393373D01*
X126534080Y-185670720D01*
X125811427Y-185187858D01*
X124959000Y-185018300D01*
X124106573Y-185187858D01*
X123383920Y-185670720D01*
X122901058Y-186393373D01*
X122731500Y-187245800D01*
X122901058Y-188098227D01*
X123375820Y-188808757D01*
X100157000Y-188808757D01*
X100157000Y-176210643D01*
X123385896Y-176210643D01*
X122907058Y-176927273D01*
X122907058Y-176927273D01*
G37*
X122907058Y-176927273D02*
X122737500Y-177779700D01*
X122907058Y-178632127D01*
X123389920Y-179354780D01*
X124112573Y-179837642D01*
X124965000Y-180007200D01*
X125817427Y-179837642D01*
X126540080Y-179354780D01*
X127022942Y-178632127D01*
X127192500Y-177779700D01*
X127022942Y-176927273D01*
X126544104Y-176210643D01*
X149903000Y-176210643D01*
X149903000Y-188727576D01*
X149886852Y-188808757D01*
X126542180Y-188808757D01*
X127016942Y-188098227D01*
X127186500Y-187245800D01*
X127016942Y-186393373D01*
X126534080Y-185670720D01*
X125811427Y-185187858D01*
X124959000Y-185018300D01*
X124106573Y-185187858D01*
X123383920Y-185670720D01*
X122901058Y-186393373D01*
X122731500Y-187245800D01*
X122901058Y-188098227D01*
X123375820Y-188808757D01*
X100157000Y-188808757D01*
X100157000Y-176210643D01*
X123385896Y-176210643D01*
X122907058Y-176927273D01*
G36*
X122913058Y-154427173D02*
X122743500Y-155279600D01*
X122913058Y-156132027D01*
X123395920Y-156854680D01*
X124118573Y-157337542D01*
X124971000Y-157507100D01*
X125823427Y-157337542D01*
X126546080Y-156854680D01*
X127028942Y-156132027D01*
X127198500Y-155279600D01*
X127028942Y-154427173D01*
X126563134Y-153730043D01*
X149903000Y-153730043D01*
X149903000Y-166246976D01*
X149886852Y-166328157D01*
X126529040Y-166328157D01*
X126540080Y-166320780D01*
X127022942Y-165598127D01*
X127192500Y-164745700D01*
X127022942Y-163893273D01*
X126540080Y-163170620D01*
X125817427Y-162687758D01*
X124965000Y-162518200D01*
X124112573Y-162687758D01*
X123389920Y-163170620D01*
X122907058Y-163893273D01*
X122737500Y-164745700D01*
X122907058Y-165598127D01*
X123389920Y-166320780D01*
X123400960Y-166328157D01*
X100157000Y-166328157D01*
X100157000Y-153730043D01*
X123378866Y-153730043D01*
X122913058Y-154427173D01*
X122913058Y-154427173D01*
G37*
X122913058Y-154427173D02*
X122743500Y-155279600D01*
X122913058Y-156132027D01*
X123395920Y-156854680D01*
X124118573Y-157337542D01*
X124971000Y-157507100D01*
X125823427Y-157337542D01*
X126546080Y-156854680D01*
X127028942Y-156132027D01*
X127198500Y-155279600D01*
X127028942Y-154427173D01*
X126563134Y-153730043D01*
X149903000Y-153730043D01*
X149903000Y-166246976D01*
X149886852Y-166328157D01*
X126529040Y-166328157D01*
X126540080Y-166320780D01*
X127022942Y-165598127D01*
X127192500Y-164745700D01*
X127022942Y-163893273D01*
X126540080Y-163170620D01*
X125817427Y-162687758D01*
X124965000Y-162518200D01*
X124112573Y-162687758D01*
X123389920Y-163170620D01*
X122907058Y-163893273D01*
X122737500Y-164745700D01*
X122907058Y-165598127D01*
X123389920Y-166320780D01*
X123400960Y-166328157D01*
X100157000Y-166328157D01*
X100157000Y-153730043D01*
X123378866Y-153730043D01*
X122913058Y-154427173D01*
G36*
X122919058Y-131927173D02*
X122749500Y-132779600D01*
X122919058Y-133632027D01*
X123401920Y-134354680D01*
X124124573Y-134837542D01*
X124977000Y-135007100D01*
X125829427Y-134837542D01*
X126552080Y-134354680D01*
X127034942Y-133632027D01*
X127204500Y-132779600D01*
X127034942Y-131927173D01*
X126582097Y-131249443D01*
X149903000Y-131249443D01*
X149903000Y-143766376D01*
X149886852Y-143847557D01*
X126505856Y-143847557D01*
X126546080Y-143820680D01*
X127028942Y-143098027D01*
X127198500Y-142245600D01*
X127028942Y-141393173D01*
X126546080Y-140670520D01*
X125823427Y-140187658D01*
X124971000Y-140018100D01*
X124118573Y-140187658D01*
X123395920Y-140670520D01*
X122913058Y-141393173D01*
X122743500Y-142245600D01*
X122913058Y-143098027D01*
X123395920Y-143820680D01*
X123436144Y-143847557D01*
X100157000Y-143847557D01*
X100157000Y-131249443D01*
X123371903Y-131249443D01*
X122919058Y-131927173D01*
X122919058Y-131927173D01*
G37*
X122919058Y-131927173D02*
X122749500Y-132779600D01*
X122919058Y-133632027D01*
X123401920Y-134354680D01*
X124124573Y-134837542D01*
X124977000Y-135007100D01*
X125829427Y-134837542D01*
X126552080Y-134354680D01*
X127034942Y-133632027D01*
X127204500Y-132779600D01*
X127034942Y-131927173D01*
X126582097Y-131249443D01*
X149903000Y-131249443D01*
X149903000Y-143766376D01*
X149886852Y-143847557D01*
X126505856Y-143847557D01*
X126546080Y-143820680D01*
X127028942Y-143098027D01*
X127198500Y-142245600D01*
X127028942Y-141393173D01*
X126546080Y-140670520D01*
X125823427Y-140187658D01*
X124971000Y-140018100D01*
X124118573Y-140187658D01*
X123395920Y-140670520D01*
X122913058Y-141393173D01*
X122743500Y-142245600D01*
X122913058Y-143098027D01*
X123395920Y-143820680D01*
X123436144Y-143847557D01*
X100157000Y-143847557D01*
X100157000Y-131249443D01*
X123371903Y-131249443D01*
X122919058Y-131927173D01*
G36*
X122925058Y-109427073D02*
X122755500Y-110279500D01*
X122925058Y-111131927D01*
X123407920Y-111854580D01*
X124130573Y-112337442D01*
X124983000Y-112507000D01*
X125835427Y-112337442D01*
X126558080Y-111854580D01*
X127040942Y-111131927D01*
X127210500Y-110279500D01*
X127040942Y-109427073D01*
X126601126Y-108768843D01*
X149903000Y-108768843D01*
X149903000Y-121285776D01*
X149886852Y-121366957D01*
X126482672Y-121366957D01*
X126552080Y-121320580D01*
X127034942Y-120597927D01*
X127204500Y-119745500D01*
X127034942Y-118893073D01*
X126552080Y-118170420D01*
X125829427Y-117687558D01*
X124977000Y-117518000D01*
X124124573Y-117687558D01*
X123401920Y-118170420D01*
X122919058Y-118893073D01*
X122749500Y-119745500D01*
X122919058Y-120597927D01*
X123401920Y-121320580D01*
X123471328Y-121366957D01*
X100157000Y-121366957D01*
X100157000Y-108768843D01*
X123364874Y-108768843D01*
X122925058Y-109427073D01*
X122925058Y-109427073D01*
G37*
X122925058Y-109427073D02*
X122755500Y-110279500D01*
X122925058Y-111131927D01*
X123407920Y-111854580D01*
X124130573Y-112337442D01*
X124983000Y-112507000D01*
X125835427Y-112337442D01*
X126558080Y-111854580D01*
X127040942Y-111131927D01*
X127210500Y-110279500D01*
X127040942Y-109427073D01*
X126601126Y-108768843D01*
X149903000Y-108768843D01*
X149903000Y-121285776D01*
X149886852Y-121366957D01*
X126482672Y-121366957D01*
X126552080Y-121320580D01*
X127034942Y-120597927D01*
X127204500Y-119745500D01*
X127034942Y-118893073D01*
X126552080Y-118170420D01*
X125829427Y-117687558D01*
X124977000Y-117518000D01*
X124124573Y-117687558D01*
X123401920Y-118170420D01*
X122919058Y-118893073D01*
X122749500Y-119745500D01*
X122919058Y-120597927D01*
X123401920Y-121320580D01*
X123471328Y-121366957D01*
X100157000Y-121366957D01*
X100157000Y-108768843D01*
X123364874Y-108768843D01*
X122925058Y-109427073D01*
G36*
X122931058Y-86926773D02*
X122761500Y-87779200D01*
X122931058Y-88631627D01*
X123413920Y-89354280D01*
X124136573Y-89837142D01*
X124989000Y-90006700D01*
X125841427Y-89837142D01*
X126564080Y-89354280D01*
X127046942Y-88631627D01*
X127216500Y-87779200D01*
X127046942Y-86926773D01*
X126620289Y-86288243D01*
X149903000Y-86288243D01*
X149903000Y-98805176D01*
X149886852Y-98886357D01*
X126459189Y-98886357D01*
X126558080Y-98820280D01*
X127040942Y-98097627D01*
X127210500Y-97245200D01*
X127040942Y-96392773D01*
X126558080Y-95670120D01*
X125835427Y-95187258D01*
X124983000Y-95017700D01*
X124130573Y-95187258D01*
X123407920Y-95670120D01*
X122925058Y-96392773D01*
X122755500Y-97245200D01*
X122925058Y-98097627D01*
X123407920Y-98820280D01*
X123506811Y-98886357D01*
X100157000Y-98886357D01*
X100157000Y-86288243D01*
X123357711Y-86288243D01*
X122931058Y-86926773D01*
X122931058Y-86926773D01*
G37*
X122931058Y-86926773D02*
X122761500Y-87779200D01*
X122931058Y-88631627D01*
X123413920Y-89354280D01*
X124136573Y-89837142D01*
X124989000Y-90006700D01*
X125841427Y-89837142D01*
X126564080Y-89354280D01*
X127046942Y-88631627D01*
X127216500Y-87779200D01*
X127046942Y-86926773D01*
X126620289Y-86288243D01*
X149903000Y-86288243D01*
X149903000Y-98805176D01*
X149886852Y-98886357D01*
X126459189Y-98886357D01*
X126558080Y-98820280D01*
X127040942Y-98097627D01*
X127210500Y-97245200D01*
X127040942Y-96392773D01*
X126558080Y-95670120D01*
X125835427Y-95187258D01*
X124983000Y-95017700D01*
X124130573Y-95187258D01*
X123407920Y-95670120D01*
X122925058Y-96392773D01*
X122755500Y-97245200D01*
X122925058Y-98097627D01*
X123407920Y-98820280D01*
X123506811Y-98886357D01*
X100157000Y-98886357D01*
X100157000Y-86288243D01*
X123357711Y-86288243D01*
X122931058Y-86926773D01*
G36*
X122937058Y-64426773D02*
X122767500Y-65279200D01*
X122937058Y-66131627D01*
X123419920Y-66854280D01*
X124142573Y-67337142D01*
X124995000Y-67506700D01*
X125847427Y-67337142D01*
X126570080Y-66854280D01*
X127052942Y-66131627D01*
X127222500Y-65279200D01*
X127052942Y-64426773D01*
X126639252Y-63807643D01*
X149903000Y-63807643D01*
X149903000Y-76324576D01*
X149886852Y-76405757D01*
X126436155Y-76405757D01*
X126564080Y-76320280D01*
X127046942Y-75597627D01*
X127216500Y-74745200D01*
X127046942Y-73892773D01*
X126564080Y-73170120D01*
X125841427Y-72687258D01*
X124989000Y-72517700D01*
X124136573Y-72687258D01*
X123413920Y-73170120D01*
X122931058Y-73892773D01*
X122761500Y-74745200D01*
X122931058Y-75597627D01*
X123413920Y-76320280D01*
X123541845Y-76405757D01*
X100157000Y-76405757D01*
X100157000Y-63807643D01*
X123350748Y-63807643D01*
X122937058Y-64426773D01*
X122937058Y-64426773D01*
G37*
X122937058Y-64426773D02*
X122767500Y-65279200D01*
X122937058Y-66131627D01*
X123419920Y-66854280D01*
X124142573Y-67337142D01*
X124995000Y-67506700D01*
X125847427Y-67337142D01*
X126570080Y-66854280D01*
X127052942Y-66131627D01*
X127222500Y-65279200D01*
X127052942Y-64426773D01*
X126639252Y-63807643D01*
X149903000Y-63807643D01*
X149903000Y-76324576D01*
X149886852Y-76405757D01*
X126436155Y-76405757D01*
X126564080Y-76320280D01*
X127046942Y-75597627D01*
X127216500Y-74745200D01*
X127046942Y-73892773D01*
X126564080Y-73170120D01*
X125841427Y-72687258D01*
X124989000Y-72517700D01*
X124136573Y-72687258D01*
X123413920Y-73170120D01*
X122931058Y-73892773D01*
X122761500Y-74745200D01*
X122931058Y-75597627D01*
X123413920Y-76320280D01*
X123541845Y-76405757D01*
X100157000Y-76405757D01*
X100157000Y-63807643D01*
X123350748Y-63807643D01*
X122937058Y-64426773D01*
G36*
X122943058Y-41926773D02*
X122773500Y-42779200D01*
X122943058Y-43631627D01*
X123425920Y-44354280D01*
X124148573Y-44837142D01*
X125001000Y-45006700D01*
X125853427Y-44837142D01*
X126576080Y-44354280D01*
X127058942Y-43631627D01*
X127228500Y-42779200D01*
X127058942Y-41926773D01*
X126658215Y-41327043D01*
X149903000Y-41327043D01*
X149903000Y-53843976D01*
X149886852Y-53925157D01*
X126413121Y-53925157D01*
X126570080Y-53820280D01*
X127052942Y-53097627D01*
X127222500Y-52245200D01*
X127052942Y-51392773D01*
X126570080Y-50670120D01*
X125847427Y-50187258D01*
X124995000Y-50017700D01*
X124142573Y-50187258D01*
X123419920Y-50670120D01*
X122937058Y-51392773D01*
X122767500Y-52245200D01*
X122937058Y-53097627D01*
X123419920Y-53820280D01*
X123576879Y-53925157D01*
X100157000Y-53925157D01*
X100157000Y-41327043D01*
X123343785Y-41327043D01*
X122943058Y-41926773D01*
X122943058Y-41926773D01*
G37*
X122943058Y-41926773D02*
X122773500Y-42779200D01*
X122943058Y-43631627D01*
X123425920Y-44354280D01*
X124148573Y-44837142D01*
X125001000Y-45006700D01*
X125853427Y-44837142D01*
X126576080Y-44354280D01*
X127058942Y-43631627D01*
X127228500Y-42779200D01*
X127058942Y-41926773D01*
X126658215Y-41327043D01*
X149903000Y-41327043D01*
X149903000Y-53843976D01*
X149886852Y-53925157D01*
X126413121Y-53925157D01*
X126570080Y-53820280D01*
X127052942Y-53097627D01*
X127222500Y-52245200D01*
X127052942Y-51392773D01*
X126570080Y-50670120D01*
X125847427Y-50187258D01*
X124995000Y-50017700D01*
X124142573Y-50187258D01*
X123419920Y-50670120D01*
X122937058Y-51392773D01*
X122767500Y-52245200D01*
X122937058Y-53097627D01*
X123419920Y-53820280D01*
X123576879Y-53925157D01*
X100157000Y-53925157D01*
X100157000Y-41327043D01*
X123343785Y-41327043D01*
X122943058Y-41926773D01*
G36*
X125127000Y-19862050D02*
X125285750Y-20020800D01*
X126096309Y-20020800D01*
X126167592Y-19991274D01*
X126286339Y-20070618D01*
X126570000Y-20127042D01*
X126688000Y-20127042D01*
X126688000Y-27035800D01*
X126752855Y-27361846D01*
X126937545Y-27638255D01*
X130743847Y-31444557D01*
X126390087Y-31444557D01*
X126576080Y-31320280D01*
X127058942Y-30597627D01*
X127228500Y-29745200D01*
X127058942Y-28892773D01*
X126576080Y-28170120D01*
X125853427Y-27687258D01*
X125001000Y-27517700D01*
X124148573Y-27687258D01*
X123425920Y-28170120D01*
X122943058Y-28892773D01*
X122773500Y-29745200D01*
X122943058Y-30597627D01*
X123425920Y-31320280D01*
X123611913Y-31444557D01*
X119887193Y-31444557D01*
X123062455Y-28269295D01*
X123247145Y-27992886D01*
X123312000Y-27666840D01*
X123312000Y-20127042D01*
X123430000Y-20127042D01*
X123713661Y-20070618D01*
X123832408Y-19991274D01*
X123903691Y-20020800D01*
X124714250Y-20020800D01*
X124873000Y-19862050D01*
X124873000Y-19207000D01*
X125127000Y-19207000D01*
X125127000Y-19862050D01*
X125127000Y-19862050D01*
G37*
X125127000Y-19862050D02*
X125285750Y-20020800D01*
X126096309Y-20020800D01*
X126167592Y-19991274D01*
X126286339Y-20070618D01*
X126570000Y-20127042D01*
X126688000Y-20127042D01*
X126688000Y-27035800D01*
X126752855Y-27361846D01*
X126937545Y-27638255D01*
X130743847Y-31444557D01*
X126390087Y-31444557D01*
X126576080Y-31320280D01*
X127058942Y-30597627D01*
X127228500Y-29745200D01*
X127058942Y-28892773D01*
X126576080Y-28170120D01*
X125853427Y-27687258D01*
X125001000Y-27517700D01*
X124148573Y-27687258D01*
X123425920Y-28170120D01*
X122943058Y-28892773D01*
X122773500Y-29745200D01*
X122943058Y-30597627D01*
X123425920Y-31320280D01*
X123611913Y-31444557D01*
X119887193Y-31444557D01*
X123062455Y-28269295D01*
X123247145Y-27992886D01*
X123312000Y-27666840D01*
X123312000Y-20127042D01*
X123430000Y-20127042D01*
X123713661Y-20070618D01*
X123832408Y-19991274D01*
X123903691Y-20020800D01*
X124714250Y-20020800D01*
X124873000Y-19862050D01*
X124873000Y-19207000D01*
X125127000Y-19207000D01*
X125127000Y-19862050D01*
%TD*%
M02*
