G04 This is an RS-274x file exported by *
G04 gerbv version 2.6.0 *
G04 More information is available about gerbv at *
G04 http://gerbv.gpleda.org/ *
G04 --End of header info--*
%MOIN*%
%FSLAX34Y34*%
%IPPOS*%
G04 --Define apertures--*
%ADD10C,0.0000*%
%ADD11C,0.0600*%
%ADD12C,0.1575*%
%ADD13C,0.0630*%
%ADD14R,0.0630X0.0630*%
%ADD15C,0.0591*%
%ADD16C,0.0315*%
%ADD17C,0.0098*%
G04 --Start main section--*
G54D10*
G01X0055951Y-027656D02*
G75*
G02X0055948Y-026396I-000001J0000630D01*
G01X0059885Y-026388D02*
G75*
G02X0059888Y-027648I0000001J-000630D01*
G01X0055928Y-009935D02*
G01X0059865Y-009927D01*
G01X0055926Y-008675D02*
G01X0059863Y-008667D01*
G01X0055928Y-009935D02*
G75*
G02X0055926Y-008675I-000001J0000630D01*
G01X0034449Y-089963D02*
G01X0034449Y-002562D01*
G01X0063976Y-089963D02*
G01X0034449Y-089963D01*
G01X0063976Y-002562D02*
G01X0063976Y-089963D01*
G01X0034449Y-002562D02*
G01X0063976Y-002562D01*
G01X0042477Y-071965D02*
G01X0038540Y-071966D01*
G01X0042476Y-070705D02*
G01X0038539Y-070707D01*
G01X0042476Y-070705D02*
G75*
G02X0042477Y-071965I0000000J-000630D01*
G01X0055973Y-045376D02*
G75*
G02X0055971Y-044116I-000001J0000630D01*
G01X0059908Y-044108D02*
G75*
G02X0059910Y-045368I0000001J-000630D01*
G01X0055951Y-027656D02*
G01X0059888Y-027648D01*
G01X0055948Y-026396D02*
G01X0059885Y-026388D01*
G01X0042460Y-017548D02*
G01X0038523Y-017550D01*
G01X0042460Y-017548D02*
G75*
G02X0042461Y-018808I0000000J-000630D01*
G01X0038524Y-018810D02*
G75*
G02X0038523Y-017550I0000000J0000630D01*
G01X0055996Y-063097D02*
G01X0059933Y-063089D01*
G01X0055993Y-061837D02*
G01X0059930Y-061829D01*
G01X0059863Y-008667D02*
G75*
G02X0059865Y-009927I0000001J-000630D01*
G01X0055996Y-063097D02*
G75*
G02X0055993Y-061837I-000001J0000630D01*
G01X0059930Y-061829D02*
G75*
G02X0059933Y-063089I0000001J-000630D01*
G01X0055973Y-045376D02*
G01X0059910Y-045368D01*
G01X0055971Y-044116D02*
G01X0059908Y-044108D01*
G01X0042466Y-036527D02*
G01X0038529Y-036529D01*
G01X0042465Y-035267D02*
G01X0038528Y-035269D01*
G01X0042465Y-035267D02*
G75*
G02X0042466Y-036527I0000000J-000630D01*
G01X0038529Y-036529D02*
G75*
G02X0038528Y-035269I0000000J0000630D01*
G01X0042461Y-018808D02*
G01X0038524Y-018810D01*
G01X0038540Y-071966D02*
G75*
G02X0038539Y-070707I0000000J0000630D01*
G01X0042472Y-054246D02*
G01X0038535Y-054248D01*
G01X0042471Y-052986D02*
G01X0038534Y-052988D01*
G01X0042471Y-052986D02*
G75*
G02X0042472Y-054246I0000000J-000630D01*
G01X0038535Y-054248D02*
G75*
G02X0038534Y-052988I0000000J0000630D01*
G54D11*
G01X0049223Y-054441D03*
G01X0049217Y-036722D03*
G01X0049223Y-045588D03*
G01X0049245Y-063309D03*
G01X0049212Y-019003D03*
G01X0049200Y-027868D03*
G01X0049228Y-072160D03*
G01X0049178Y-010147D03*
G01X0037165Y-045096D03*
G01X0037165Y-063009D03*
G01X0037165Y-080529D03*
G01X0061260Y-018816D03*
G01X0061260Y-036336D03*
G01X0061260Y-054249D03*
G01X0061260Y-071769D03*
G01X0061260Y-080529D03*
G01X0037165Y-010154D03*
G01X0037165Y-027576D03*
G01X0041339Y-082103D03*
G01X0057087Y-082103D03*
G01X0041339Y-005908D03*
G01X0057087Y-005908D03*
G01X0045532Y-054443D03*
G01X0045526Y-036724D03*
G01X0052936Y-063301D03*
G01X0045521Y-019005D03*
G01X0052891Y-027860D03*
G01X0052914Y-045581D03*
G01X0045537Y-072161D03*
G01X0052869Y-010140D03*
G54D12*
G01X0039961Y-086249D03*
G01X0058504Y-086249D03*
G54D13*
G01X0043234Y-086808D03*
G01X0044325Y-086808D03*
G01X0045415Y-086808D03*
G01X0046506Y-086808D03*
G01X0047596Y-086808D03*
G01X0048687Y-086808D03*
G01X0049778Y-086808D03*
G01X0050868Y-086808D03*
G01X0051959Y-086808D03*
G01X0053049Y-086808D03*
G01X0054140Y-086808D03*
G01X0055230Y-086808D03*
G01X0042689Y-085690D03*
G01X0043780Y-085690D03*
G01X0044870Y-085690D03*
G01X0045961Y-085690D03*
G01X0047051Y-085690D03*
G01X0048142Y-085690D03*
G01X0049232Y-085690D03*
G01X0050323Y-085690D03*
G01X0051413Y-085690D03*
G01X0052504Y-085690D03*
G01X0053594Y-085690D03*
G01X0054685Y-085690D03*
G54D14*
G01X0055776Y-085690D03*
G54D15*
G01X0045232Y-006451D03*
G01X0046232Y-006451D03*
G01X0047232Y-006451D03*
G01X0048232Y-006451D03*
G01X0049232Y-006451D03*
G01X0050232Y-006451D03*
G01X0051232Y-006451D03*
G01X0052232Y-006451D03*
G01X0053232Y-006451D03*
G01X0054232Y-006451D03*
G01X0054232Y-084154D03*
G01X0053232Y-084154D03*
G01X0052232Y-084154D03*
G01X0051232Y-084154D03*
G01X0050232Y-084154D03*
G01X0049232Y-084154D03*
G01X0048232Y-084154D03*
G01X0047232Y-084154D03*
G01X0046232Y-084154D03*
G01X0045232Y-084154D03*
G54D16*
G01X0062038Y-087097D03*
G01X0060096Y-084998D03*
G01X0060169Y-039283D03*
G01X0062217Y-012512D03*
G01X0053752Y-088703D03*
G01X0060209Y-030425D03*
G01X0061193Y-012551D03*
G01X0060681Y-021094D03*
G01X0060750Y-011488D03*
G01X0062547Y-081921D03*
G01X0060307Y-012748D03*
G01X0037098Y-012157D03*
G01X0037925Y-039283D03*
G01X0038240Y-030386D03*
G01X0038183Y-012021D03*
G01X0041626Y-086134D03*
G01X0035967Y-021567D03*
G01X0038201Y-021567D03*
G01X0037925Y-012787D03*
G01X0041429Y-084333D03*
G01X0044264Y-081764D03*
G01X0041469Y-079393D03*
G01X0038240Y-048142D03*
G01X0037973Y-078937D03*
G01X0043762Y-079953D03*
G01X0038240Y-057000D03*
G01X0037954Y-078292D03*
G01X0038319Y-065898D03*
G01X0038358Y-074717D03*
G01X0038489Y-078157D03*
G01X0060051Y-048142D03*
G01X0061661Y-078191D03*
G01X0055320Y-084552D03*
G01X0055642Y-083329D03*
G01X0060091Y-057000D03*
G01X0061112Y-078144D03*
G01X0060051Y-065898D03*
G01X0060562Y-078104D03*
G01X0059776Y-083860D03*
G01X0059618Y-082630D03*
G01X0060012Y-074717D03*
G01X0060011Y-078084D03*
G54D17*
G01X0063457Y-042571D02*
G01X0063457Y-085678D01*
G01X0063457Y-085678D02*
G01X0062038Y-087097D01*
G01X0060169Y-039283D02*
G01X0063457Y-042571D01*
G01X0055474Y-083772D02*
G01X0054450Y-084795D01*
G01X0060096Y-084998D02*
G01X0058325Y-084998D01*
G01X0058325Y-084998D02*
G01X0057098Y-083772D01*
G01X0053713Y-084795D02*
G01X0053594Y-084913D01*
G01X0057098Y-083772D02*
G01X0055474Y-083772D01*
G01X0054450Y-084795D02*
G01X0053713Y-084795D01*
G01X0053594Y-084913D02*
G01X0053594Y-085690D01*
G01X0062217Y-012512D02*
G01X0062787Y-013083D01*
G01X0062787Y-013083D02*
G01X0062787Y-036665D01*
G01X0062787Y-036665D02*
G01X0060169Y-039283D01*
G01X0059146Y-088703D02*
G01X0053752Y-088703D01*
G01X0059726Y-039496D02*
G01X0063122Y-042892D01*
G01X0063122Y-042892D02*
G01X0063122Y-085386D01*
G01X0059215Y-088703D02*
G01X0059146Y-088703D01*
G01X0060209Y-030425D02*
G01X0059726Y-030907D01*
G01X0059726Y-030907D02*
G01X0059726Y-039496D01*
G01X0063122Y-085386D02*
G01X0060209Y-088299D01*
G01X0060209Y-088299D02*
G01X0059619Y-088299D01*
G01X0059619Y-088299D02*
G01X0059215Y-088703D01*
G01X0059215Y-088703D02*
G01X0059146Y-088703D01*
G01X0062453Y-028181D02*
G01X0060209Y-030425D01*
G01X0062453Y-018142D02*
G01X0062453Y-028181D01*
G01X0061193Y-016882D02*
G01X0062453Y-018142D01*
G01X0061193Y-012551D02*
G01X0061193Y-016882D01*
G01X0059224Y-030307D02*
G01X0059067Y-030465D01*
G01X0059264Y-030268D02*
G01X0059224Y-030307D01*
G01X0060602Y-029559D02*
G01X0060419Y-029559D01*
G01X0060419Y-029559D02*
G01X0059671Y-030307D01*
G01X0059671Y-030307D02*
G01X0059224Y-030307D01*
G01X0062118Y-028042D02*
G01X0060602Y-029559D01*
G01X0062118Y-021606D02*
G01X0062118Y-028042D01*
G01X0061606Y-021094D02*
G01X0062118Y-021606D01*
G01X0060681Y-021094D02*
G01X0061606Y-021094D01*
G01X0060720Y-015740D02*
G01X0060720Y-017551D01*
G01X0060681Y-020150D02*
G01X0060681Y-021094D01*
G01X0060720Y-017551D02*
G01X0060012Y-018260D01*
G01X0060750Y-011488D02*
G01X0060750Y-015711D01*
G01X0060012Y-019480D02*
G01X0060681Y-020150D01*
G01X0060750Y-015711D02*
G01X0060720Y-015740D01*
G01X0060012Y-018260D02*
G01X0060012Y-019480D01*
G01X0062547Y-081552D02*
G01X0062547Y-081921D01*
G01X0059067Y-030465D02*
G01X0059067Y-039310D01*
G01X0059067Y-039310D02*
G01X0062787Y-043030D01*
G01X0062787Y-081312D02*
G01X0062547Y-081552D01*
G01X0062787Y-043030D02*
G01X0062787Y-081312D01*
G01X0061783Y-022276D02*
G01X0061783Y-027904D01*
G01X0058673Y-030583D02*
G01X0058673Y-039389D01*
G01X0061390Y-021882D02*
G01X0061783Y-022276D01*
G01X0060813Y-021882D02*
G01X0061390Y-021882D01*
G01X0059677Y-016528D02*
G01X0059677Y-020746D01*
G01X0060307Y-015898D02*
G01X0059677Y-016528D01*
G01X0058673Y-030504D02*
G01X0058673Y-030583D01*
G01X0058673Y-030385D02*
G01X0058673Y-030583D01*
G01X0061783Y-027904D02*
G01X0061154Y-027904D01*
G01X0060307Y-012748D02*
G01X0060307Y-015898D01*
G01X0061154Y-027904D02*
G01X0058673Y-030385D01*
G01X0059677Y-020746D02*
G01X0060813Y-021882D01*
G01X0060378Y-041094D02*
G01X0060378Y-043114D01*
G01X0060378Y-043114D02*
G01X0062453Y-045189D01*
G01X0058673Y-039389D02*
G01X0060378Y-041094D01*
G01X0051959Y-087253D02*
G01X0052965Y-088260D01*
G01X0062453Y-081173D02*
G01X0062453Y-045228D01*
G01X0062104Y-085341D02*
G01X0062104Y-081522D01*
G01X0062104Y-081522D02*
G01X0062453Y-081173D01*
G01X0052965Y-088260D02*
G01X0059185Y-088260D01*
G01X0059185Y-088260D02*
G01X0062104Y-085341D01*
G01X0051959Y-086808D02*
G01X0051959Y-087253D01*
G01X0035819Y-064146D02*
G01X0036154Y-064481D01*
G01X0036665Y-048142D02*
G01X0036665Y-060779D01*
G01X0035819Y-061625D02*
G01X0035819Y-064146D01*
G01X0036665Y-060779D02*
G01X0035819Y-061625D01*
G01X0038476Y-046331D02*
G01X0036665Y-048142D01*
G01X0038476Y-044283D02*
G01X0038476Y-046331D01*
G01X0037925Y-043732D02*
G01X0038476Y-044283D01*
G01X0035858Y-083005D02*
G01X0036743Y-083890D01*
G01X0037925Y-039283D02*
G01X0037925Y-043732D01*
G01X0041862Y-083890D02*
G01X0041980Y-084008D01*
G01X0036154Y-079204D02*
G01X0035858Y-079499D01*
G01X0041980Y-084008D02*
G01X0042089Y-084116D01*
G01X0036154Y-064481D02*
G01X0036154Y-079204D01*
G01X0035858Y-079499D02*
G01X0035858Y-083005D01*
G01X0036743Y-083890D02*
G01X0041862Y-083890D01*
G01X0041862Y-083890D02*
G01X0041980Y-084008D01*
G01X0037197Y-029303D02*
G01X0037197Y-036587D01*
G01X0036114Y-028220D02*
G01X0037197Y-029303D01*
G01X0042089Y-084116D02*
G01X0042089Y-085031D01*
G01X0042089Y-084982D02*
G01X0042089Y-085031D01*
G01X0042089Y-085031D02*
G01X0042089Y-086551D01*
G01X0042089Y-086551D02*
G01X0042946Y-087408D01*
G01X0042946Y-087408D02*
G01X0043724Y-087408D01*
G01X0043724Y-087408D02*
G01X0044010Y-087123D01*
G01X0044010Y-087123D02*
G01X0044325Y-086808D01*
G01X0036744Y-025780D02*
G01X0036114Y-026410D01*
G01X0036744Y-012289D02*
G01X0036744Y-025780D01*
G01X0036876Y-012157D02*
G01X0036744Y-012289D01*
G01X0037098Y-012157D02*
G01X0036876Y-012157D01*
G01X0037197Y-036587D02*
G01X0037925Y-037316D01*
G01X0036114Y-026410D02*
G01X0036114Y-028220D01*
G01X0037925Y-037316D02*
G01X0037925Y-039283D01*
G01X0042001Y-083555D02*
G01X0036882Y-083555D01*
G01X0036882Y-083555D02*
G01X0036193Y-082866D01*
G01X0036193Y-079638D02*
G01X0036193Y-082866D01*
G01X0036488Y-079343D02*
G01X0036193Y-079638D01*
G01X0036154Y-064008D02*
G01X0036488Y-064343D01*
G01X0036488Y-064343D02*
G01X0036488Y-079343D01*
G01X0036154Y-061764D02*
G01X0036154Y-064008D01*
G01X0037039Y-060878D02*
G01X0036154Y-061764D01*
G01X0038811Y-046469D02*
G01X0037039Y-048241D01*
G01X0037039Y-048241D02*
G01X0037039Y-060878D01*
G01X0037531Y-036449D02*
G01X0037531Y-031094D01*
G01X0038811Y-046469D02*
G01X0038811Y-044145D01*
G01X0038368Y-037285D02*
G01X0037531Y-036449D01*
G01X0037531Y-031094D02*
G01X0038240Y-030386D01*
G01X0038368Y-043702D02*
G01X0038368Y-037285D01*
G01X0038811Y-044145D02*
G01X0038368Y-043702D01*
G01X0042688Y-084598D02*
G01X0042688Y-084242D01*
G01X0043780Y-085690D02*
G01X0042688Y-084598D01*
G01X0042688Y-084242D02*
G01X0042001Y-083555D01*
G01X0038240Y-026803D02*
G01X0038240Y-030386D01*
G01X0037079Y-025642D02*
G01X0038240Y-026803D01*
G01X0038183Y-012021D02*
G01X0038036Y-012021D01*
G01X0038036Y-012021D02*
G01X0037079Y-012978D01*
G01X0037079Y-012978D02*
G01X0037079Y-025642D01*
G01X0040595Y-087322D02*
G01X0041626Y-086291D01*
G01X0041626Y-086291D02*
G01X0041626Y-086134D01*
G01X0035150Y-061348D02*
G01X0035150Y-083243D01*
G01X0039229Y-087322D02*
G01X0040595Y-087322D01*
G01X0035150Y-083243D02*
G01X0039229Y-087322D01*
G01X0035444Y-061053D02*
G01X0035444Y-061053D01*
G01X0035444Y-061053D02*
G01X0035150Y-061348D01*
G01X0035967Y-021567D02*
G01X0035444Y-022089D01*
G01X0035444Y-022089D02*
G01X0035444Y-061053D01*
G01X0037413Y-017433D02*
G01X0037413Y-020780D01*
G01X0037413Y-020780D02*
G01X0038201Y-021567D01*
G01X0037925Y-016921D02*
G01X0037413Y-017433D01*
G01X0037925Y-012787D02*
G01X0037925Y-016921D01*
G01X0035780Y-028359D02*
G01X0036862Y-029442D01*
G01X0035780Y-026272D02*
G01X0035780Y-028359D01*
G01X0036409Y-025642D02*
G01X0035780Y-026272D01*
G01X0036981Y-011579D02*
G01X0036409Y-012150D01*
G01X0036862Y-043496D02*
G01X0035917Y-044441D01*
G01X0036713Y-084333D02*
G01X0041206Y-084333D01*
G01X0036409Y-012150D02*
G01X0036409Y-025642D01*
G01X0048232Y-006451D02*
G01X0047652Y-005870D01*
G01X0035524Y-079361D02*
G01X0035524Y-083143D01*
G01X0036862Y-029442D02*
G01X0036862Y-043496D01*
G01X0037970Y-011579D02*
G01X0036981Y-011579D01*
G01X0047652Y-005870D02*
G01X0043678Y-005870D01*
G01X0035524Y-083143D02*
G01X0036713Y-084333D01*
G01X0043678Y-005870D02*
G01X0037970Y-011579D01*
G01X0035917Y-044441D02*
G01X0035917Y-061053D01*
G01X0035917Y-061053D02*
G01X0035484Y-061487D01*
G01X0035484Y-061487D02*
G01X0035484Y-064285D01*
G01X0035484Y-064285D02*
G01X0035819Y-064620D01*
G01X0041206Y-084333D02*
G01X0041429Y-084333D01*
G01X0035819Y-064620D02*
G01X0035819Y-079065D01*
G01X0035819Y-079065D02*
G01X0035524Y-079361D01*
G01X0036823Y-067826D02*
G01X0036823Y-078442D01*
G01X0036823Y-078442D02*
G01X0037773Y-079393D01*
G01X0037773Y-079393D02*
G01X0041469Y-079393D01*
G01X0037541Y-064430D02*
G01X0037541Y-067107D01*
G01X0037541Y-067107D02*
G01X0036823Y-067826D01*
G01X0038201Y-063614D02*
G01X0038201Y-063771D01*
G01X0038201Y-063771D02*
G01X0037541Y-064430D01*
G01X0037374Y-054520D02*
G01X0037374Y-049008D01*
G01X0037374Y-049008D02*
G01X0038240Y-048142D01*
G01X0037728Y-054874D02*
G01X0037374Y-054520D01*
G01X0037728Y-059244D02*
G01X0037728Y-054874D01*
G01X0038201Y-063614D02*
G01X0038201Y-059717D01*
G01X0038201Y-059717D02*
G01X0037728Y-059244D01*
G01X0037157Y-077969D02*
G01X0037157Y-078151D01*
G01X0037157Y-078151D02*
G01X0037944Y-078937D01*
G01X0037944Y-078937D02*
G01X0037973Y-078937D01*
G01X0044051Y-082207D02*
G01X0043762Y-081917D01*
G01X0043762Y-081917D02*
G01X0043762Y-079953D01*
G01X0044285Y-082207D02*
G01X0044051Y-082207D01*
G01X0046232Y-084154D02*
G01X0044285Y-082207D01*
G01X0037157Y-077969D02*
G01X0037157Y-067965D01*
G01X0038634Y-057394D02*
G01X0038240Y-057000D01*
G01X0037157Y-067965D02*
G01X0037876Y-067246D01*
G01X0037876Y-067246D02*
G01X0037876Y-064569D01*
G01X0037876Y-064569D02*
G01X0038634Y-063811D01*
G01X0038634Y-063811D02*
G01X0038634Y-057394D01*
G01X0037954Y-078292D02*
G01X0037492Y-077830D01*
G01X0037492Y-077830D02*
G01X0037492Y-070937D01*
G01X0037492Y-070937D02*
G01X0038319Y-070110D01*
G01X0038319Y-070110D02*
G01X0038319Y-065898D01*
G01X0038489Y-078157D02*
G01X0038489Y-074847D01*
G01X0038489Y-074847D02*
G01X0038358Y-074717D01*
G01X0061449Y-056311D02*
G01X0060051Y-054913D01*
G01X0060051Y-054913D02*
G01X0060051Y-048142D01*
G01X0060268Y-072354D02*
G01X0060268Y-067021D01*
G01X0061449Y-065839D02*
G01X0061449Y-056311D01*
G01X0060268Y-067021D02*
G01X0061449Y-065839D01*
G01X0061661Y-073748D02*
G01X0060268Y-072354D01*
G01X0061661Y-078191D02*
G01X0061661Y-073748D01*
G01X0055320Y-084552D02*
G01X0054685Y-085187D01*
G01X0054685Y-085187D02*
G01X0054685Y-085690D01*
G01X0052232Y-084154D02*
G01X0053057Y-083329D01*
G01X0053057Y-083329D02*
G01X0055642Y-083329D01*
G01X0061114Y-065701D02*
G01X0061114Y-058024D01*
G01X0061114Y-058024D02*
G01X0060091Y-057000D01*
G01X0059933Y-066882D02*
G01X0061114Y-065701D01*
G01X0060897Y-073632D02*
G01X0059933Y-072668D01*
G01X0059933Y-072668D02*
G01X0059933Y-066882D01*
G01X0061112Y-078144D02*
G01X0061112Y-073847D01*
G01X0061112Y-073847D02*
G01X0060897Y-073632D01*
G01X0051232Y-084154D02*
G01X0052500Y-082886D01*
G01X0052500Y-082886D02*
G01X0055976Y-082886D01*
G01X0055976Y-082886D02*
G01X0056508Y-083417D01*
G01X0056508Y-083417D02*
G01X0060839Y-083417D01*
G01X0055545Y-087123D02*
G01X0055230Y-086808D01*
G01X0060839Y-083417D02*
G01X0061547Y-084126D01*
G01X0061547Y-084126D02*
G01X0061547Y-085267D01*
G01X0061547Y-085267D02*
G01X0059158Y-087657D01*
G01X0059158Y-087657D02*
G01X0056079Y-087657D01*
G01X0056079Y-087657D02*
G01X0055545Y-087123D01*
G01X0059461Y-066488D02*
G01X0060051Y-065898D01*
G01X0059461Y-072669D02*
G01X0059461Y-066488D01*
G01X0060562Y-073771D02*
G01X0059461Y-072669D01*
G01X0060562Y-078104D02*
G01X0060562Y-073771D01*
G01X0059019Y-087322D02*
G01X0060539Y-085801D01*
G01X0057821Y-087322D02*
G01X0059019Y-087322D01*
G01X0056189Y-085690D02*
G01X0057821Y-087322D01*
G01X0055776Y-085690D02*
G01X0056189Y-085690D01*
G01X0060539Y-085801D02*
G01X0060539Y-084624D01*
G01X0060539Y-084624D02*
G01X0059776Y-083860D01*
G01X0057925Y-080780D02*
G01X0059618Y-082472D01*
G01X0059618Y-082472D02*
G01X0059618Y-082630D01*
G01X0056508Y-080780D02*
G01X0057925Y-080780D01*
G01X0054736Y-082551D02*
G01X0056508Y-080780D01*
G01X0050232Y-084154D02*
G01X0051835Y-082551D01*
G01X0051835Y-082551D02*
G01X0054736Y-082551D01*
G01X0060011Y-078084D02*
G01X0060011Y-074717D01*
G01X0060011Y-074717D02*
G01X0060012Y-074717D01*
M02*
