G04 This is an RS-274x file exported by *
G04 gerbv version 2.6.0 *
G04 More information is available about gerbv at *
G04 http://gerbv.gpleda.org/ *
G04 --End of header info--*
%MOIN*%
%FSLAX34Y34*%
%IPPOS*%
G04 --Define apertures--*
%ADD10C,0.0039*%
%ADD11C,0.0118*%
%ADD12C,0.0000*%
%ADD13C,0.0600*%
%ADD14C,0.1575*%
%ADD15C,0.0630*%
%ADD16R,0.0630X0.0630*%
%ADD17C,0.0591*%
%ADD18C,0.0000*%
%ADD19C,0.0315*%
%ADD20C,0.0098*%
%ADD21C,0.0157*%
G04 --Start main section--*
G54D10*
G01X0044927Y-004508D02*
G01X0044927Y-004700D01*
G01X0044927Y-004700D02*
G01X0044916Y-004722D01*
G01X0044916Y-004722D02*
G01X0044905Y-004733D01*
G01X0044905Y-004733D02*
G01X0044882Y-004745D01*
G01X0044882Y-004745D02*
G01X0044849Y-004745D01*
G01X0044849Y-004745D02*
G01X0044826Y-004733D01*
G01X0044927Y-004655D02*
G01X0044905Y-004666D01*
G01X0044905Y-004666D02*
G01X0044860Y-004666D01*
G01X0044860Y-004666D02*
G01X0044837Y-004655D01*
G01X0044837Y-004655D02*
G01X0044826Y-004643D01*
G01X0044826Y-004643D02*
G01X0044815Y-004621D01*
G01X0044815Y-004621D02*
G01X0044815Y-004553D01*
G01X0044815Y-004553D02*
G01X0044826Y-004531D01*
G01X0044826Y-004531D02*
G01X0044837Y-004520D01*
G01X0044837Y-004520D02*
G01X0044860Y-004508D01*
G01X0044860Y-004508D02*
G01X0044905Y-004508D01*
G01X0044905Y-004508D02*
G01X0044927Y-004520D01*
G01X0045040Y-004666D02*
G01X0045040Y-004508D01*
G01X0045040Y-004430D02*
G01X0045029Y-004441D01*
G01X0045029Y-004441D02*
G01X0045040Y-004452D01*
G01X0045040Y-004452D02*
G01X0045051Y-004441D01*
G01X0045051Y-004441D02*
G01X0045040Y-004430D01*
G01X0045040Y-004430D02*
G01X0045040Y-004452D01*
G01X0045119Y-004508D02*
G01X0045209Y-004508D01*
G01X0045152Y-004430D02*
G01X0045152Y-004632D01*
G01X0045152Y-004632D02*
G01X0045164Y-004655D01*
G01X0045164Y-004655D02*
G01X0045186Y-004666D01*
G01X0045186Y-004666D02*
G01X0045209Y-004666D01*
G01X0045287Y-004666D02*
G01X0045287Y-004430D01*
G01X0045389Y-004666D02*
G01X0045389Y-004542D01*
G01X0045389Y-004542D02*
G01X0045377Y-004520D01*
G01X0045377Y-004520D02*
G01X0045355Y-004508D01*
G01X0045355Y-004508D02*
G01X0045321Y-004508D01*
G01X0045321Y-004508D02*
G01X0045299Y-004520D01*
G01X0045299Y-004520D02*
G01X0045287Y-004531D01*
G01X0045602Y-004508D02*
G01X0045602Y-004666D01*
G01X0045501Y-004508D02*
G01X0045501Y-004632D01*
G01X0045501Y-004632D02*
G01X0045512Y-004655D01*
G01X0045512Y-004655D02*
G01X0045535Y-004666D01*
G01X0045535Y-004666D02*
G01X0045569Y-004666D01*
G01X0045569Y-004666D02*
G01X0045591Y-004655D01*
G01X0045591Y-004655D02*
G01X0045602Y-004643D01*
G01X0045715Y-004666D02*
G01X0045715Y-004430D01*
G01X0045715Y-004520D02*
G01X0045737Y-004508D01*
G01X0045737Y-004508D02*
G01X0045782Y-004508D01*
G01X0045782Y-004508D02*
G01X0045805Y-004520D01*
G01X0045805Y-004520D02*
G01X0045816Y-004531D01*
G01X0045816Y-004531D02*
G01X0045827Y-004553D01*
G01X0045827Y-004553D02*
G01X0045827Y-004621D01*
G01X0045827Y-004621D02*
G01X0045816Y-004643D01*
G01X0045816Y-004643D02*
G01X0045805Y-004655D01*
G01X0045805Y-004655D02*
G01X0045782Y-004666D01*
G01X0045782Y-004666D02*
G01X0045737Y-004666D01*
G01X0045737Y-004666D02*
G01X0045715Y-004655D01*
G01X0045929Y-004643D02*
G01X0045940Y-004655D01*
G01X0045940Y-004655D02*
G01X0045929Y-004666D01*
G01X0045929Y-004666D02*
G01X0045917Y-004655D01*
G01X0045917Y-004655D02*
G01X0045929Y-004643D01*
G01X0045929Y-004643D02*
G01X0045929Y-004666D01*
G01X0046142Y-004655D02*
G01X0046120Y-004666D01*
G01X0046120Y-004666D02*
G01X0046075Y-004666D01*
G01X0046075Y-004666D02*
G01X0046052Y-004655D01*
G01X0046052Y-004655D02*
G01X0046041Y-004643D01*
G01X0046041Y-004643D02*
G01X0046030Y-004621D01*
G01X0046030Y-004621D02*
G01X0046030Y-004553D01*
G01X0046030Y-004553D02*
G01X0046041Y-004531D01*
G01X0046041Y-004531D02*
G01X0046052Y-004520D01*
G01X0046052Y-004520D02*
G01X0046075Y-004508D01*
G01X0046075Y-004508D02*
G01X0046120Y-004508D01*
G01X0046120Y-004508D02*
G01X0046142Y-004520D01*
G01X0046277Y-004666D02*
G01X0046255Y-004655D01*
G01X0046255Y-004655D02*
G01X0046244Y-004643D01*
G01X0046244Y-004643D02*
G01X0046232Y-004621D01*
G01X0046232Y-004621D02*
G01X0046232Y-004553D01*
G01X0046232Y-004553D02*
G01X0046244Y-004531D01*
G01X0046244Y-004531D02*
G01X0046255Y-004520D01*
G01X0046255Y-004520D02*
G01X0046277Y-004508D01*
G01X0046277Y-004508D02*
G01X0046311Y-004508D01*
G01X0046311Y-004508D02*
G01X0046334Y-004520D01*
G01X0046334Y-004520D02*
G01X0046345Y-004531D01*
G01X0046345Y-004531D02*
G01X0046356Y-004553D01*
G01X0046356Y-004553D02*
G01X0046356Y-004621D01*
G01X0046356Y-004621D02*
G01X0046345Y-004643D01*
G01X0046345Y-004643D02*
G01X0046334Y-004655D01*
G01X0046334Y-004655D02*
G01X0046311Y-004666D01*
G01X0046311Y-004666D02*
G01X0046277Y-004666D01*
G01X0046457Y-004666D02*
G01X0046457Y-004508D01*
G01X0046457Y-004531D02*
G01X0046469Y-004520D01*
G01X0046469Y-004520D02*
G01X0046491Y-004508D01*
G01X0046491Y-004508D02*
G01X0046525Y-004508D01*
G01X0046525Y-004508D02*
G01X0046547Y-004520D01*
G01X0046547Y-004520D02*
G01X0046558Y-004542D01*
G01X0046558Y-004542D02*
G01X0046558Y-004666D01*
G01X0046558Y-004542D02*
G01X0046570Y-004520D01*
G01X0046570Y-004520D02*
G01X0046592Y-004508D01*
G01X0046592Y-004508D02*
G01X0046626Y-004508D01*
G01X0046626Y-004508D02*
G01X0046648Y-004520D01*
G01X0046648Y-004520D02*
G01X0046660Y-004542D01*
G01X0046660Y-004542D02*
G01X0046660Y-004666D01*
G01X0046941Y-004418D02*
G01X0046738Y-004722D01*
G01X0046986Y-004508D02*
G01X0047076Y-004508D01*
G01X0047020Y-004430D02*
G01X0047020Y-004632D01*
G01X0047020Y-004632D02*
G01X0047031Y-004655D01*
G01X0047031Y-004655D02*
G01X0047053Y-004666D01*
G01X0047053Y-004666D02*
G01X0047076Y-004666D01*
G01X0047188Y-004666D02*
G01X0047166Y-004655D01*
G01X0047166Y-004655D02*
G01X0047155Y-004643D01*
G01X0047155Y-004643D02*
G01X0047143Y-004621D01*
G01X0047143Y-004621D02*
G01X0047143Y-004553D01*
G01X0047143Y-004553D02*
G01X0047155Y-004531D01*
G01X0047155Y-004531D02*
G01X0047166Y-004520D01*
G01X0047166Y-004520D02*
G01X0047188Y-004508D01*
G01X0047188Y-004508D02*
G01X0047222Y-004508D01*
G01X0047222Y-004508D02*
G01X0047245Y-004520D01*
G01X0047245Y-004520D02*
G01X0047256Y-004531D01*
G01X0047256Y-004531D02*
G01X0047267Y-004553D01*
G01X0047267Y-004553D02*
G01X0047267Y-004621D01*
G01X0047267Y-004621D02*
G01X0047256Y-004643D01*
G01X0047256Y-004643D02*
G01X0047245Y-004655D01*
G01X0047245Y-004655D02*
G01X0047222Y-004666D01*
G01X0047222Y-004666D02*
G01X0047188Y-004666D01*
G01X0047368Y-004666D02*
G01X0047368Y-004508D01*
G01X0047368Y-004531D02*
G01X0047380Y-004520D01*
G01X0047380Y-004520D02*
G01X0047402Y-004508D01*
G01X0047402Y-004508D02*
G01X0047436Y-004508D01*
G01X0047436Y-004508D02*
G01X0047458Y-004520D01*
G01X0047458Y-004520D02*
G01X0047470Y-004542D01*
G01X0047470Y-004542D02*
G01X0047470Y-004666D01*
G01X0047470Y-004542D02*
G01X0047481Y-004520D01*
G01X0047481Y-004520D02*
G01X0047503Y-004508D01*
G01X0047503Y-004508D02*
G01X0047537Y-004508D01*
G01X0047537Y-004508D02*
G01X0047560Y-004520D01*
G01X0047560Y-004520D02*
G01X0047571Y-004542D01*
G01X0047571Y-004542D02*
G01X0047571Y-004666D01*
G01X0047683Y-004576D02*
G01X0047863Y-004576D01*
G01X0047942Y-004508D02*
G01X0048032Y-004508D01*
G01X0047976Y-004666D02*
G01X0047976Y-004463D01*
G01X0047976Y-004463D02*
G01X0047987Y-004441D01*
G01X0047987Y-004441D02*
G01X0048010Y-004430D01*
G01X0048010Y-004430D02*
G01X0048032Y-004430D01*
G01X0048111Y-004576D02*
G01X0048291Y-004576D01*
G01X0048437Y-004666D02*
G01X0048415Y-004655D01*
G01X0048415Y-004655D02*
G01X0048403Y-004643D01*
G01X0048403Y-004643D02*
G01X0048392Y-004621D01*
G01X0048392Y-004621D02*
G01X0048392Y-004553D01*
G01X0048392Y-004553D02*
G01X0048403Y-004531D01*
G01X0048403Y-004531D02*
G01X0048415Y-004520D01*
G01X0048415Y-004520D02*
G01X0048437Y-004508D01*
G01X0048437Y-004508D02*
G01X0048471Y-004508D01*
G01X0048471Y-004508D02*
G01X0048493Y-004520D01*
G01X0048493Y-004520D02*
G01X0048504Y-004531D01*
G01X0048504Y-004531D02*
G01X0048516Y-004553D01*
G01X0048516Y-004553D02*
G01X0048516Y-004621D01*
G01X0048516Y-004621D02*
G01X0048504Y-004643D01*
G01X0048504Y-004643D02*
G01X0048493Y-004655D01*
G01X0048493Y-004655D02*
G01X0048471Y-004666D01*
G01X0048471Y-004666D02*
G01X0048437Y-004666D01*
G01X0048718Y-004655D02*
G01X0048696Y-004666D01*
G01X0048696Y-004666D02*
G01X0048651Y-004666D01*
G01X0048651Y-004666D02*
G01X0048628Y-004655D01*
G01X0048628Y-004655D02*
G01X0048617Y-004643D01*
G01X0048617Y-004643D02*
G01X0048606Y-004621D01*
G01X0048606Y-004621D02*
G01X0048606Y-004553D01*
G01X0048606Y-004553D02*
G01X0048617Y-004531D01*
G01X0048617Y-004531D02*
G01X0048628Y-004520D01*
G01X0048628Y-004520D02*
G01X0048651Y-004508D01*
G01X0048651Y-004508D02*
G01X0048696Y-004508D01*
G01X0048696Y-004508D02*
G01X0048718Y-004520D01*
G01X0048853Y-004666D02*
G01X0048831Y-004655D01*
G01X0048831Y-004655D02*
G01X0048819Y-004643D01*
G01X0048819Y-004643D02*
G01X0048808Y-004621D01*
G01X0048808Y-004621D02*
G01X0048808Y-004553D01*
G01X0048808Y-004553D02*
G01X0048819Y-004531D01*
G01X0048819Y-004531D02*
G01X0048831Y-004520D01*
G01X0048831Y-004520D02*
G01X0048853Y-004508D01*
G01X0048853Y-004508D02*
G01X0048887Y-004508D01*
G01X0048887Y-004508D02*
G01X0048909Y-004520D01*
G01X0048909Y-004520D02*
G01X0048921Y-004531D01*
G01X0048921Y-004531D02*
G01X0048932Y-004553D01*
G01X0048932Y-004553D02*
G01X0048932Y-004621D01*
G01X0048932Y-004621D02*
G01X0048921Y-004643D01*
G01X0048921Y-004643D02*
G01X0048909Y-004655D01*
G01X0048909Y-004655D02*
G01X0048887Y-004666D01*
G01X0048887Y-004666D02*
G01X0048853Y-004666D01*
G01X0049033Y-004508D02*
G01X0049033Y-004666D01*
G01X0049033Y-004531D02*
G01X0049044Y-004520D01*
G01X0049044Y-004520D02*
G01X0049067Y-004508D01*
G01X0049067Y-004508D02*
G01X0049101Y-004508D01*
G01X0049101Y-004508D02*
G01X0049123Y-004520D01*
G01X0049123Y-004520D02*
G01X0049134Y-004542D01*
G01X0049134Y-004542D02*
G01X0049134Y-004666D01*
G01X0049247Y-004508D02*
G01X0049247Y-004666D01*
G01X0049247Y-004531D02*
G01X0049258Y-004520D01*
G01X0049258Y-004520D02*
G01X0049281Y-004508D01*
G01X0049281Y-004508D02*
G01X0049314Y-004508D01*
G01X0049314Y-004508D02*
G01X0049337Y-004520D01*
G01X0049337Y-004520D02*
G01X0049348Y-004542D01*
G01X0049348Y-004542D02*
G01X0049348Y-004666D01*
G01X0049551Y-004655D02*
G01X0049528Y-004666D01*
G01X0049528Y-004666D02*
G01X0049483Y-004666D01*
G01X0049483Y-004666D02*
G01X0049461Y-004655D01*
G01X0049461Y-004655D02*
G01X0049449Y-004632D01*
G01X0049449Y-004632D02*
G01X0049449Y-004542D01*
G01X0049449Y-004542D02*
G01X0049461Y-004520D01*
G01X0049461Y-004520D02*
G01X0049483Y-004508D01*
G01X0049483Y-004508D02*
G01X0049528Y-004508D01*
G01X0049528Y-004508D02*
G01X0049551Y-004520D01*
G01X0049551Y-004520D02*
G01X0049562Y-004542D01*
G01X0049562Y-004542D02*
G01X0049562Y-004565D01*
G01X0049562Y-004565D02*
G01X0049449Y-004587D01*
G01X0049697Y-004666D02*
G01X0049674Y-004655D01*
G01X0049674Y-004655D02*
G01X0049663Y-004632D01*
G01X0049663Y-004632D02*
G01X0049663Y-004430D01*
G01X0049821Y-004666D02*
G01X0049798Y-004655D01*
G01X0049798Y-004655D02*
G01X0049787Y-004632D01*
G01X0049787Y-004632D02*
G01X0049787Y-004430D01*
G01X0050079Y-004418D02*
G01X0049877Y-004722D01*
G01X0050259Y-004655D02*
G01X0050237Y-004666D01*
G01X0050237Y-004666D02*
G01X0050192Y-004666D01*
G01X0050192Y-004666D02*
G01X0050169Y-004655D01*
G01X0050169Y-004655D02*
G01X0050158Y-004643D01*
G01X0050158Y-004643D02*
G01X0050147Y-004621D01*
G01X0050147Y-004621D02*
G01X0050147Y-004553D01*
G01X0050147Y-004553D02*
G01X0050158Y-004531D01*
G01X0050158Y-004531D02*
G01X0050169Y-004520D01*
G01X0050169Y-004520D02*
G01X0050192Y-004508D01*
G01X0050192Y-004508D02*
G01X0050237Y-004508D01*
G01X0050237Y-004508D02*
G01X0050259Y-004520D01*
G01X0050361Y-004666D02*
G01X0050361Y-004430D01*
G01X0050462Y-004666D02*
G01X0050462Y-004542D01*
G01X0050462Y-004542D02*
G01X0050451Y-004520D01*
G01X0050451Y-004520D02*
G01X0050428Y-004508D01*
G01X0050428Y-004508D02*
G01X0050394Y-004508D01*
G01X0050394Y-004508D02*
G01X0050372Y-004520D01*
G01X0050372Y-004520D02*
G01X0050361Y-004531D01*
G01X0050608Y-004666D02*
G01X0050585Y-004655D01*
G01X0050585Y-004655D02*
G01X0050574Y-004643D01*
G01X0050574Y-004643D02*
G01X0050563Y-004621D01*
G01X0050563Y-004621D02*
G01X0050563Y-004553D01*
G01X0050563Y-004553D02*
G01X0050574Y-004531D01*
G01X0050574Y-004531D02*
G01X0050585Y-004520D01*
G01X0050585Y-004520D02*
G01X0050608Y-004508D01*
G01X0050608Y-004508D02*
G01X0050642Y-004508D01*
G01X0050642Y-004508D02*
G01X0050664Y-004520D01*
G01X0050664Y-004520D02*
G01X0050675Y-004531D01*
G01X0050675Y-004531D02*
G01X0050687Y-004553D01*
G01X0050687Y-004553D02*
G01X0050687Y-004621D01*
G01X0050687Y-004621D02*
G01X0050675Y-004643D01*
G01X0050675Y-004643D02*
G01X0050664Y-004655D01*
G01X0050664Y-004655D02*
G01X0050642Y-004666D01*
G01X0050642Y-004666D02*
G01X0050608Y-004666D01*
G01X0050788Y-004666D02*
G01X0050788Y-004508D01*
G01X0050788Y-004430D02*
G01X0050777Y-004441D01*
G01X0050777Y-004441D02*
G01X0050788Y-004452D01*
G01X0050788Y-004452D02*
G01X0050799Y-004441D01*
G01X0050799Y-004441D02*
G01X0050788Y-004430D01*
G01X0050788Y-004430D02*
G01X0050788Y-004452D01*
G01X0051002Y-004655D02*
G01X0050979Y-004666D01*
G01X0050979Y-004666D02*
G01X0050934Y-004666D01*
G01X0050934Y-004666D02*
G01X0050912Y-004655D01*
G01X0050912Y-004655D02*
G01X0050900Y-004643D01*
G01X0050900Y-004643D02*
G01X0050889Y-004621D01*
G01X0050889Y-004621D02*
G01X0050889Y-004553D01*
G01X0050889Y-004553D02*
G01X0050900Y-004531D01*
G01X0050900Y-004531D02*
G01X0050912Y-004520D01*
G01X0050912Y-004520D02*
G01X0050934Y-004508D01*
G01X0050934Y-004508D02*
G01X0050979Y-004508D01*
G01X0050979Y-004508D02*
G01X0051002Y-004520D01*
G01X0051193Y-004655D02*
G01X0051170Y-004666D01*
G01X0051170Y-004666D02*
G01X0051125Y-004666D01*
G01X0051125Y-004666D02*
G01X0051103Y-004655D01*
G01X0051103Y-004655D02*
G01X0051092Y-004632D01*
G01X0051092Y-004632D02*
G01X0051092Y-004542D01*
G01X0051092Y-004542D02*
G01X0051103Y-004520D01*
G01X0051103Y-004520D02*
G01X0051125Y-004508D01*
G01X0051125Y-004508D02*
G01X0051170Y-004508D01*
G01X0051170Y-004508D02*
G01X0051193Y-004520D01*
G01X0051193Y-004520D02*
G01X0051204Y-004542D01*
G01X0051204Y-004542D02*
G01X0051204Y-004565D01*
G01X0051204Y-004565D02*
G01X0051092Y-004587D01*
G01X0051632Y-004553D02*
G01X0051620Y-004542D01*
G01X0051620Y-004542D02*
G01X0051598Y-004531D01*
G01X0051598Y-004531D02*
G01X0051575Y-004531D01*
G01X0051575Y-004531D02*
G01X0051553Y-004542D01*
G01X0051553Y-004542D02*
G01X0051542Y-004553D01*
G01X0051542Y-004553D02*
G01X0051530Y-004576D01*
G01X0051530Y-004576D02*
G01X0051530Y-004598D01*
G01X0051530Y-004598D02*
G01X0051542Y-004621D01*
G01X0051542Y-004621D02*
G01X0051553Y-004632D01*
G01X0051553Y-004632D02*
G01X0051575Y-004643D01*
G01X0051575Y-004643D02*
G01X0051598Y-004643D01*
G01X0051598Y-004643D02*
G01X0051620Y-004632D01*
G01X0051620Y-004632D02*
G01X0051632Y-004621D01*
G01X0051632Y-004531D02*
G01X0051632Y-004621D01*
G01X0051632Y-004621D02*
G01X0051643Y-004632D01*
G01X0051643Y-004632D02*
G01X0051654Y-004632D01*
G01X0051654Y-004632D02*
G01X0051677Y-004621D01*
G01X0051677Y-004621D02*
G01X0051688Y-004598D01*
G01X0051688Y-004598D02*
G01X0051688Y-004542D01*
G01X0051688Y-004542D02*
G01X0051665Y-004508D01*
G01X0051665Y-004508D02*
G01X0051632Y-004486D01*
G01X0051632Y-004486D02*
G01X0051587Y-004475D01*
G01X0051587Y-004475D02*
G01X0051542Y-004486D01*
G01X0051542Y-004486D02*
G01X0051508Y-004508D01*
G01X0051508Y-004508D02*
G01X0051485Y-004542D01*
G01X0051485Y-004542D02*
G01X0051474Y-004587D01*
G01X0051474Y-004587D02*
G01X0051485Y-004632D01*
G01X0051485Y-004632D02*
G01X0051508Y-004666D01*
G01X0051508Y-004666D02*
G01X0051542Y-004688D01*
G01X0051542Y-004688D02*
G01X0051587Y-004700D01*
G01X0051587Y-004700D02*
G01X0051632Y-004688D01*
G01X0051632Y-004688D02*
G01X0051665Y-004666D01*
G01X0052093Y-004666D02*
G01X0051958Y-004666D01*
G01X0052025Y-004666D02*
G01X0052025Y-004430D01*
G01X0052025Y-004430D02*
G01X0052003Y-004463D01*
G01X0052003Y-004463D02*
G01X0051980Y-004486D01*
G01X0051980Y-004486D02*
G01X0051958Y-004497D01*
G01X0052295Y-004655D02*
G01X0052273Y-004666D01*
G01X0052273Y-004666D02*
G01X0052228Y-004666D01*
G01X0052228Y-004666D02*
G01X0052205Y-004655D01*
G01X0052205Y-004655D02*
G01X0052194Y-004643D01*
G01X0052194Y-004643D02*
G01X0052183Y-004621D01*
G01X0052183Y-004621D02*
G01X0052183Y-004553D01*
G01X0052183Y-004553D02*
G01X0052194Y-004531D01*
G01X0052194Y-004531D02*
G01X0052205Y-004520D01*
G01X0052205Y-004520D02*
G01X0052228Y-004508D01*
G01X0052228Y-004508D02*
G01X0052273Y-004508D01*
G01X0052273Y-004508D02*
G01X0052295Y-004520D01*
G01X0052430Y-004531D02*
G01X0052408Y-004520D01*
G01X0052408Y-004520D02*
G01X0052397Y-004508D01*
G01X0052397Y-004508D02*
G01X0052385Y-004486D01*
G01X0052385Y-004486D02*
G01X0052385Y-004475D01*
G01X0052385Y-004475D02*
G01X0052397Y-004452D01*
G01X0052397Y-004452D02*
G01X0052408Y-004441D01*
G01X0052408Y-004441D02*
G01X0052430Y-004430D01*
G01X0052430Y-004430D02*
G01X0052475Y-004430D01*
G01X0052475Y-004430D02*
G01X0052498Y-004441D01*
G01X0052498Y-004441D02*
G01X0052509Y-004452D01*
G01X0052509Y-004452D02*
G01X0052520Y-004475D01*
G01X0052520Y-004475D02*
G01X0052520Y-004486D01*
G01X0052520Y-004486D02*
G01X0052509Y-004508D01*
G01X0052509Y-004508D02*
G01X0052498Y-004520D01*
G01X0052498Y-004520D02*
G01X0052475Y-004531D01*
G01X0052475Y-004531D02*
G01X0052430Y-004531D01*
G01X0052430Y-004531D02*
G01X0052408Y-004542D01*
G01X0052408Y-004542D02*
G01X0052397Y-004553D01*
G01X0052397Y-004553D02*
G01X0052385Y-004576D01*
G01X0052385Y-004576D02*
G01X0052385Y-004621D01*
G01X0052385Y-004621D02*
G01X0052397Y-004643D01*
G01X0052397Y-004643D02*
G01X0052408Y-004655D01*
G01X0052408Y-004655D02*
G01X0052430Y-004666D01*
G01X0052430Y-004666D02*
G01X0052475Y-004666D01*
G01X0052475Y-004666D02*
G01X0052498Y-004655D01*
G01X0052498Y-004655D02*
G01X0052509Y-004643D01*
G01X0052509Y-004643D02*
G01X0052520Y-004621D01*
G01X0052520Y-004621D02*
G01X0052520Y-004576D01*
G01X0052520Y-004576D02*
G01X0052509Y-004553D01*
G01X0052509Y-004553D02*
G01X0052498Y-004542D01*
G01X0052498Y-004542D02*
G01X0052475Y-004531D01*
G01X0052734Y-004430D02*
G01X0052621Y-004430D01*
G01X0052621Y-004430D02*
G01X0052610Y-004542D01*
G01X0052610Y-004542D02*
G01X0052621Y-004531D01*
G01X0052621Y-004531D02*
G01X0052644Y-004520D01*
G01X0052644Y-004520D02*
G01X0052700Y-004520D01*
G01X0052700Y-004520D02*
G01X0052723Y-004531D01*
G01X0052723Y-004531D02*
G01X0052734Y-004542D01*
G01X0052734Y-004542D02*
G01X0052745Y-004565D01*
G01X0052745Y-004565D02*
G01X0052745Y-004621D01*
G01X0052745Y-004621D02*
G01X0052734Y-004643D01*
G01X0052734Y-004643D02*
G01X0052723Y-004655D01*
G01X0052723Y-004655D02*
G01X0052700Y-004666D01*
G01X0052700Y-004666D02*
G01X0052644Y-004666D01*
G01X0052644Y-004666D02*
G01X0052621Y-004655D01*
G01X0052621Y-004655D02*
G01X0052610Y-004643D01*
G01X0052970Y-004666D02*
G01X0052835Y-004666D01*
G01X0052903Y-004666D02*
G01X0052903Y-004430D01*
G01X0052903Y-004430D02*
G01X0052880Y-004463D01*
G01X0052880Y-004463D02*
G01X0052858Y-004486D01*
G01X0052858Y-004486D02*
G01X0052835Y-004497D01*
G01X0053184Y-004430D02*
G01X0053071Y-004430D01*
G01X0053071Y-004430D02*
G01X0053060Y-004542D01*
G01X0053060Y-004542D02*
G01X0053071Y-004531D01*
G01X0053071Y-004531D02*
G01X0053094Y-004520D01*
G01X0053094Y-004520D02*
G01X0053150Y-004520D01*
G01X0053150Y-004520D02*
G01X0053173Y-004531D01*
G01X0053173Y-004531D02*
G01X0053184Y-004542D01*
G01X0053184Y-004542D02*
G01X0053195Y-004565D01*
G01X0053195Y-004565D02*
G01X0053195Y-004621D01*
G01X0053195Y-004621D02*
G01X0053184Y-004643D01*
G01X0053184Y-004643D02*
G01X0053173Y-004655D01*
G01X0053173Y-004655D02*
G01X0053150Y-004666D01*
G01X0053150Y-004666D02*
G01X0053094Y-004666D01*
G01X0053094Y-004666D02*
G01X0053071Y-004655D01*
G01X0053071Y-004655D02*
G01X0053060Y-004643D01*
G01X0053398Y-004666D02*
G01X0053398Y-004430D01*
G01X0053398Y-004655D02*
G01X0053375Y-004666D01*
G01X0053375Y-004666D02*
G01X0053330Y-004666D01*
G01X0053330Y-004666D02*
G01X0053308Y-004655D01*
G01X0053308Y-004655D02*
G01X0053296Y-004643D01*
G01X0053296Y-004643D02*
G01X0053285Y-004621D01*
G01X0053285Y-004621D02*
G01X0053285Y-004553D01*
G01X0053285Y-004553D02*
G01X0053296Y-004531D01*
G01X0053296Y-004531D02*
G01X0053308Y-004520D01*
G01X0053308Y-004520D02*
G01X0053330Y-004508D01*
G01X0053330Y-004508D02*
G01X0053375Y-004508D01*
G01X0053375Y-004508D02*
G01X0053398Y-004520D01*
G01X0053611Y-004508D02*
G01X0053611Y-004666D01*
G01X0053555Y-004418D02*
G01X0053499Y-004587D01*
G01X0053499Y-004587D02*
G01X0053645Y-004587D01*
G54D11*
G01X0056255Y-003645D02*
G01X0056395Y-004039D01*
G01X0056395Y-004039D02*
G01X0056536Y-003645D01*
G01X0056873Y-003448D02*
G01X0056930Y-003448D01*
G01X0056930Y-003448D02*
G01X0056986Y-003476D01*
G01X0056986Y-003476D02*
G01X0057014Y-003504D01*
G01X0057014Y-003504D02*
G01X0057042Y-003561D01*
G01X0057042Y-003561D02*
G01X0057070Y-003673D01*
G01X0057070Y-003673D02*
G01X0057070Y-003814D01*
G01X0057070Y-003814D02*
G01X0057042Y-003926D01*
G01X0057042Y-003926D02*
G01X0057014Y-003983D01*
G01X0057014Y-003983D02*
G01X0056986Y-004011D01*
G01X0056986Y-004011D02*
G01X0056930Y-004039D01*
G01X0056930Y-004039D02*
G01X0056873Y-004039D01*
G01X0056873Y-004039D02*
G01X0056817Y-004011D01*
G01X0056817Y-004011D02*
G01X0056789Y-003983D01*
G01X0056789Y-003983D02*
G01X0056761Y-003926D01*
G01X0056761Y-003926D02*
G01X0056733Y-003814D01*
G01X0056733Y-003814D02*
G01X0056733Y-003673D01*
G01X0056733Y-003673D02*
G01X0056761Y-003561D01*
G01X0056761Y-003561D02*
G01X0056789Y-003504D01*
G01X0056789Y-003504D02*
G01X0056817Y-003476D01*
G01X0056817Y-003476D02*
G01X0056873Y-003448D01*
G01X0057323Y-003983D02*
G01X0057352Y-004011D01*
G01X0057352Y-004011D02*
G01X0057323Y-004039D01*
G01X0057323Y-004039D02*
G01X0057295Y-004011D01*
G01X0057295Y-004011D02*
G01X0057323Y-003983D01*
G01X0057323Y-003983D02*
G01X0057323Y-004039D01*
G01X0057914Y-004039D02*
G01X0057576Y-004039D01*
G01X0057745Y-004039D02*
G01X0057745Y-003448D01*
G01X0057745Y-003448D02*
G01X0057689Y-003533D01*
G01X0057689Y-003533D02*
G01X0057633Y-003589D01*
G01X0057633Y-003589D02*
G01X0057576Y-003617D01*
G01X0044852Y-004039D02*
G01X0044852Y-003448D01*
G01X0044852Y-003729D02*
G01X0045189Y-003729D01*
G01X0045189Y-004039D02*
G01X0045189Y-003448D01*
G01X0045555Y-004039D02*
G01X0045498Y-004011D01*
G01X0045498Y-004011D02*
G01X0045470Y-003983D01*
G01X0045470Y-003983D02*
G01X0045442Y-003926D01*
G01X0045442Y-003926D02*
G01X0045442Y-003758D01*
G01X0045442Y-003758D02*
G01X0045470Y-003701D01*
G01X0045470Y-003701D02*
G01X0045498Y-003673D01*
G01X0045498Y-003673D02*
G01X0045555Y-003645D01*
G01X0045555Y-003645D02*
G01X0045639Y-003645D01*
G01X0045639Y-003645D02*
G01X0045695Y-003673D01*
G01X0045695Y-003673D02*
G01X0045723Y-003701D01*
G01X0045723Y-003701D02*
G01X0045751Y-003758D01*
G01X0045751Y-003758D02*
G01X0045751Y-003926D01*
G01X0045751Y-003926D02*
G01X0045723Y-003983D01*
G01X0045723Y-003983D02*
G01X0045695Y-004011D01*
G01X0045695Y-004011D02*
G01X0045639Y-004039D01*
G01X0045639Y-004039D02*
G01X0045555Y-004039D01*
G01X0046004Y-003645D02*
G01X0046004Y-004039D01*
G01X0046004Y-003701D02*
G01X0046033Y-003673D01*
G01X0046033Y-003673D02*
G01X0046089Y-003645D01*
G01X0046089Y-003645D02*
G01X0046173Y-003645D01*
G01X0046173Y-003645D02*
G01X0046229Y-003673D01*
G01X0046229Y-003673D02*
G01X0046258Y-003729D01*
G01X0046258Y-003729D02*
G01X0046258Y-004039D01*
G01X0046792Y-003645D02*
G01X0046792Y-004123D01*
G01X0046792Y-004123D02*
G01X0046764Y-004179D01*
G01X0046764Y-004179D02*
G01X0046736Y-004208D01*
G01X0046736Y-004208D02*
G01X0046679Y-004236D01*
G01X0046679Y-004236D02*
G01X0046595Y-004236D01*
G01X0046595Y-004236D02*
G01X0046539Y-004208D01*
G01X0046792Y-004011D02*
G01X0046736Y-004039D01*
G01X0046736Y-004039D02*
G01X0046623Y-004039D01*
G01X0046623Y-004039D02*
G01X0046567Y-004011D01*
G01X0046567Y-004011D02*
G01X0046539Y-003983D01*
G01X0046539Y-003983D02*
G01X0046511Y-003926D01*
G01X0046511Y-003926D02*
G01X0046511Y-003758D01*
G01X0046511Y-003758D02*
G01X0046539Y-003701D01*
G01X0046539Y-003701D02*
G01X0046567Y-003673D01*
G01X0046567Y-003673D02*
G01X0046623Y-003645D01*
G01X0046623Y-003645D02*
G01X0046736Y-003645D01*
G01X0046736Y-003645D02*
G01X0046792Y-003673D01*
G01X0047607Y-004039D02*
G01X0047551Y-004011D01*
G01X0047551Y-004011D02*
G01X0047523Y-003954D01*
G01X0047523Y-003954D02*
G01X0047523Y-003448D01*
G01X0048085Y-004039D02*
G01X0048085Y-003729D01*
G01X0048085Y-003729D02*
G01X0048057Y-003673D01*
G01X0048057Y-003673D02*
G01X0048001Y-003645D01*
G01X0048001Y-003645D02*
G01X0047889Y-003645D01*
G01X0047889Y-003645D02*
G01X0047832Y-003673D01*
G01X0048085Y-004011D02*
G01X0048029Y-004039D01*
G01X0048029Y-004039D02*
G01X0047889Y-004039D01*
G01X0047889Y-004039D02*
G01X0047832Y-004011D01*
G01X0047832Y-004011D02*
G01X0047804Y-003954D01*
G01X0047804Y-003954D02*
G01X0047804Y-003898D01*
G01X0047804Y-003898D02*
G01X0047832Y-003842D01*
G01X0047832Y-003842D02*
G01X0047889Y-003814D01*
G01X0047889Y-003814D02*
G01X0048029Y-003814D01*
G01X0048029Y-003814D02*
G01X0048085Y-003786D01*
G01X0048367Y-004039D02*
G01X0048367Y-003448D01*
G01X0048367Y-003673D02*
G01X0048423Y-003645D01*
G01X0048423Y-003645D02*
G01X0048535Y-003645D01*
G01X0048535Y-003645D02*
G01X0048592Y-003673D01*
G01X0048592Y-003673D02*
G01X0048620Y-003701D01*
G01X0048620Y-003701D02*
G01X0048648Y-003758D01*
G01X0048648Y-003758D02*
G01X0048648Y-003926D01*
G01X0048648Y-003926D02*
G01X0048620Y-003983D01*
G01X0048620Y-003983D02*
G01X0048592Y-004011D01*
G01X0048592Y-004011D02*
G01X0048535Y-004039D01*
G01X0048535Y-004039D02*
G01X0048423Y-004039D01*
G01X0048423Y-004039D02*
G01X0048367Y-004011D01*
G01X0049717Y-003758D02*
G01X0049688Y-003729D01*
G01X0049688Y-003729D02*
G01X0049632Y-003701D01*
G01X0049632Y-003701D02*
G01X0049576Y-003701D01*
G01X0049576Y-003701D02*
G01X0049520Y-003729D01*
G01X0049520Y-003729D02*
G01X0049492Y-003758D01*
G01X0049492Y-003758D02*
G01X0049463Y-003814D01*
G01X0049463Y-003814D02*
G01X0049463Y-003870D01*
G01X0049463Y-003870D02*
G01X0049492Y-003926D01*
G01X0049492Y-003926D02*
G01X0049520Y-003954D01*
G01X0049520Y-003954D02*
G01X0049576Y-003983D01*
G01X0049576Y-003983D02*
G01X0049632Y-003983D01*
G01X0049632Y-003983D02*
G01X0049688Y-003954D01*
G01X0049688Y-003954D02*
G01X0049717Y-003926D01*
G01X0049717Y-003701D02*
G01X0049717Y-003926D01*
G01X0049717Y-003926D02*
G01X0049745Y-003954D01*
G01X0049745Y-003954D02*
G01X0049773Y-003954D01*
G01X0049773Y-003954D02*
G01X0049829Y-003926D01*
G01X0049829Y-003926D02*
G01X0049857Y-003870D01*
G01X0049857Y-003870D02*
G01X0049857Y-003729D01*
G01X0049857Y-003729D02*
G01X0049801Y-003645D01*
G01X0049801Y-003645D02*
G01X0049717Y-003589D01*
G01X0049717Y-003589D02*
G01X0049604Y-003561D01*
G01X0049604Y-003561D02*
G01X0049492Y-003589D01*
G01X0049492Y-003589D02*
G01X0049407Y-003645D01*
G01X0049407Y-003645D02*
G01X0049351Y-003729D01*
G01X0049351Y-003729D02*
G01X0049323Y-003842D01*
G01X0049323Y-003842D02*
G01X0049351Y-003954D01*
G01X0049351Y-003954D02*
G01X0049407Y-004039D01*
G01X0049407Y-004039D02*
G01X0049492Y-004095D01*
G01X0049492Y-004095D02*
G01X0049604Y-004123D01*
G01X0049604Y-004123D02*
G01X0049717Y-004095D01*
G01X0049717Y-004095D02*
G01X0049801Y-004039D01*
G01X0050898Y-003983D02*
G01X0050870Y-004011D01*
G01X0050870Y-004011D02*
G01X0050785Y-004039D01*
G01X0050785Y-004039D02*
G01X0050729Y-004039D01*
G01X0050729Y-004039D02*
G01X0050645Y-004011D01*
G01X0050645Y-004011D02*
G01X0050588Y-003954D01*
G01X0050588Y-003954D02*
G01X0050560Y-003898D01*
G01X0050560Y-003898D02*
G01X0050532Y-003786D01*
G01X0050532Y-003786D02*
G01X0050532Y-003701D01*
G01X0050532Y-003701D02*
G01X0050560Y-003589D01*
G01X0050560Y-003589D02*
G01X0050588Y-003533D01*
G01X0050588Y-003533D02*
G01X0050645Y-003476D01*
G01X0050645Y-003476D02*
G01X0050729Y-003448D01*
G01X0050729Y-003448D02*
G01X0050785Y-003448D01*
G01X0050785Y-003448D02*
G01X0050870Y-003476D01*
G01X0050870Y-003476D02*
G01X0050898Y-003504D01*
G01X0051404Y-004039D02*
G01X0051404Y-003729D01*
G01X0051404Y-003729D02*
G01X0051376Y-003673D01*
G01X0051376Y-003673D02*
G01X0051319Y-003645D01*
G01X0051319Y-003645D02*
G01X0051207Y-003645D01*
G01X0051207Y-003645D02*
G01X0051151Y-003673D01*
G01X0051404Y-004011D02*
G01X0051348Y-004039D01*
G01X0051348Y-004039D02*
G01X0051207Y-004039D01*
G01X0051207Y-004039D02*
G01X0051151Y-004011D01*
G01X0051151Y-004011D02*
G01X0051123Y-003954D01*
G01X0051123Y-003954D02*
G01X0051123Y-003898D01*
G01X0051123Y-003898D02*
G01X0051151Y-003842D01*
G01X0051151Y-003842D02*
G01X0051207Y-003814D01*
G01X0051207Y-003814D02*
G01X0051348Y-003814D01*
G01X0051348Y-003814D02*
G01X0051404Y-003786D01*
G01X0051769Y-004039D02*
G01X0051713Y-004011D01*
G01X0051713Y-004011D02*
G01X0051685Y-003954D01*
G01X0051685Y-003954D02*
G01X0051685Y-003448D01*
G01X0051910Y-003645D02*
G01X0052135Y-003645D01*
G01X0051994Y-003448D02*
G01X0051994Y-003954D01*
G01X0051994Y-003954D02*
G01X0052022Y-004011D01*
G01X0052022Y-004011D02*
G01X0052079Y-004039D01*
G01X0052079Y-004039D02*
G01X0052135Y-004039D01*
G01X0052557Y-004011D02*
G01X0052501Y-004039D01*
G01X0052501Y-004039D02*
G01X0052388Y-004039D01*
G01X0052388Y-004039D02*
G01X0052332Y-004011D01*
G01X0052332Y-004011D02*
G01X0052304Y-003954D01*
G01X0052304Y-003954D02*
G01X0052304Y-003729D01*
G01X0052304Y-003729D02*
G01X0052332Y-003673D01*
G01X0052332Y-003673D02*
G01X0052388Y-003645D01*
G01X0052388Y-003645D02*
G01X0052501Y-003645D01*
G01X0052501Y-003645D02*
G01X0052557Y-003673D01*
G01X0052557Y-003673D02*
G01X0052585Y-003729D01*
G01X0052585Y-003729D02*
G01X0052585Y-003786D01*
G01X0052585Y-003786D02*
G01X0052304Y-003842D01*
G01X0053091Y-004011D02*
G01X0053035Y-004039D01*
G01X0053035Y-004039D02*
G01X0052922Y-004039D01*
G01X0052922Y-004039D02*
G01X0052866Y-004011D01*
G01X0052866Y-004011D02*
G01X0052838Y-003983D01*
G01X0052838Y-003983D02*
G01X0052810Y-003926D01*
G01X0052810Y-003926D02*
G01X0052810Y-003758D01*
G01X0052810Y-003758D02*
G01X0052838Y-003701D01*
G01X0052838Y-003701D02*
G01X0052866Y-003673D01*
G01X0052866Y-003673D02*
G01X0052922Y-003645D01*
G01X0052922Y-003645D02*
G01X0053035Y-003645D01*
G01X0053035Y-003645D02*
G01X0053091Y-003673D01*
G01X0053344Y-004039D02*
G01X0053344Y-003448D01*
G01X0053597Y-004039D02*
G01X0053597Y-003729D01*
G01X0053597Y-003729D02*
G01X0053569Y-003673D01*
G01X0053569Y-003673D02*
G01X0053513Y-003645D01*
G01X0053513Y-003645D02*
G01X0053429Y-003645D01*
G01X0053429Y-003645D02*
G01X0053372Y-003673D01*
G01X0053372Y-003673D02*
G01X0053344Y-003701D01*
G54D12*
G01X0055951Y-027656D02*
G75*
G02X0055948Y-026396I-000001J0000630D01*
G01X0059885Y-026388D02*
G75*
G02X0059888Y-027648I0000001J-000630D01*
G01X0055928Y-009935D02*
G01X0059865Y-009927D01*
G01X0055926Y-008675D02*
G01X0059863Y-008667D01*
G01X0055928Y-009935D02*
G75*
G02X0055926Y-008675I-000001J0000630D01*
G01X0034449Y-089963D02*
G01X0034449Y-002562D01*
G01X0063976Y-089963D02*
G01X0034449Y-089963D01*
G01X0063976Y-002562D02*
G01X0063976Y-089963D01*
G01X0034449Y-002562D02*
G01X0063976Y-002562D01*
G01X0042477Y-071965D02*
G01X0038540Y-071966D01*
G01X0042476Y-070705D02*
G01X0038539Y-070707D01*
G01X0042476Y-070705D02*
G75*
G02X0042477Y-071965I0000000J-000630D01*
G01X0055973Y-045376D02*
G75*
G02X0055971Y-044116I-000001J0000630D01*
G01X0059908Y-044108D02*
G75*
G02X0059910Y-045368I0000001J-000630D01*
G01X0055951Y-027656D02*
G01X0059888Y-027648D01*
G01X0055948Y-026396D02*
G01X0059885Y-026388D01*
G01X0042460Y-017548D02*
G01X0038523Y-017550D01*
G01X0042460Y-017548D02*
G75*
G02X0042461Y-018808I0000000J-000630D01*
G01X0038524Y-018810D02*
G75*
G02X0038523Y-017550I0000000J0000630D01*
G01X0055996Y-063097D02*
G01X0059933Y-063089D01*
G01X0055993Y-061837D02*
G01X0059930Y-061829D01*
G01X0059863Y-008667D02*
G75*
G02X0059865Y-009927I0000001J-000630D01*
G01X0055996Y-063097D02*
G75*
G02X0055993Y-061837I-000001J0000630D01*
G01X0059930Y-061829D02*
G75*
G02X0059933Y-063089I0000001J-000630D01*
G01X0055973Y-045376D02*
G01X0059910Y-045368D01*
G01X0055971Y-044116D02*
G01X0059908Y-044108D01*
G01X0042466Y-036527D02*
G01X0038529Y-036529D01*
G01X0042465Y-035267D02*
G01X0038528Y-035269D01*
G01X0042465Y-035267D02*
G75*
G02X0042466Y-036527I0000000J-000630D01*
G01X0038529Y-036529D02*
G75*
G02X0038528Y-035269I0000000J0000630D01*
G01X0042461Y-018808D02*
G01X0038524Y-018810D01*
G01X0038540Y-071966D02*
G75*
G02X0038539Y-070707I0000000J0000630D01*
G01X0042472Y-054246D02*
G01X0038535Y-054248D01*
G01X0042471Y-052986D02*
G01X0038534Y-052988D01*
G01X0042471Y-052986D02*
G75*
G02X0042472Y-054246I0000000J-000630D01*
G01X0038535Y-054248D02*
G75*
G02X0038534Y-052988I0000000J0000630D01*
G54D13*
G01X0049223Y-054441D03*
G01X0049217Y-036722D03*
G01X0049223Y-045588D03*
G01X0049245Y-063309D03*
G01X0049212Y-019003D03*
G01X0049200Y-027868D03*
G01X0049228Y-072160D03*
G01X0049178Y-010147D03*
G01X0037165Y-045096D03*
G01X0037165Y-063009D03*
G01X0037165Y-080529D03*
G01X0061260Y-018816D03*
G01X0061260Y-036336D03*
G01X0061260Y-054249D03*
G01X0061260Y-071769D03*
G01X0061260Y-080529D03*
G01X0037165Y-010154D03*
G01X0037165Y-027576D03*
G01X0041339Y-082103D03*
G01X0057087Y-082103D03*
G01X0041339Y-005908D03*
G01X0057087Y-005908D03*
G01X0045532Y-054443D03*
G01X0045526Y-036724D03*
G01X0052936Y-063301D03*
G01X0045521Y-019005D03*
G01X0052891Y-027860D03*
G01X0052914Y-045581D03*
G01X0045537Y-072161D03*
G01X0052869Y-010140D03*
G54D14*
G01X0039961Y-086249D03*
G01X0058504Y-086249D03*
G54D15*
G01X0043234Y-086808D03*
G01X0044325Y-086808D03*
G01X0045415Y-086808D03*
G01X0046506Y-086808D03*
G01X0047596Y-086808D03*
G01X0048687Y-086808D03*
G01X0049778Y-086808D03*
G01X0050868Y-086808D03*
G01X0051959Y-086808D03*
G01X0053049Y-086808D03*
G01X0054140Y-086808D03*
G01X0055230Y-086808D03*
G01X0042689Y-085690D03*
G01X0043780Y-085690D03*
G01X0044870Y-085690D03*
G01X0045961Y-085690D03*
G01X0047051Y-085690D03*
G01X0048142Y-085690D03*
G01X0049232Y-085690D03*
G01X0050323Y-085690D03*
G01X0051413Y-085690D03*
G01X0052504Y-085690D03*
G01X0053594Y-085690D03*
G01X0054685Y-085690D03*
G54D16*
G01X0055776Y-085690D03*
G54D17*
G01X0045232Y-006451D03*
G01X0046232Y-006451D03*
G01X0047232Y-006451D03*
G01X0048232Y-006451D03*
G01X0049232Y-006451D03*
G01X0050232Y-006451D03*
G01X0051232Y-006451D03*
G01X0052232Y-006451D03*
G01X0053232Y-006451D03*
G01X0054232Y-006451D03*
G01X0054232Y-084154D03*
G01X0053232Y-084154D03*
G01X0052232Y-084154D03*
G01X0051232Y-084154D03*
G01X0050232Y-084154D03*
G01X0049232Y-084154D03*
G01X0048232Y-084154D03*
G01X0047232Y-084154D03*
G01X0046232Y-084154D03*
G01X0045232Y-084154D03*
G54D18*
G01X0038858Y-074685D03*
G54D10*
G36*
G01X0048898Y-077559D02*
G01X0048740Y-077559D01*
G01X0048740Y-074764D01*
G01X0048110Y-074764D01*
G01X0048110Y-077559D01*
G01X0047953Y-077559D01*
G01X0047953Y-074764D01*
G01X0047323Y-074764D01*
G01X0047323Y-077559D01*
G01X0047165Y-077559D01*
G01X0047165Y-074764D01*
G01X0046535Y-074764D01*
G01X0046535Y-077559D01*
G01X0046378Y-077559D01*
G01X0046378Y-074764D01*
G01X0045748Y-074764D01*
G01X0045748Y-077559D01*
G01X0045591Y-077559D01*
G01X0045591Y-074764D01*
G01X0044961Y-074764D01*
G01X0044961Y-077559D01*
G01X0044803Y-077559D01*
G01X0044803Y-074764D01*
G01X0044173Y-074764D01*
G01X0044173Y-077559D01*
G01X0044016Y-077559D01*
G01X0044016Y-074764D01*
G01X0043386Y-074764D01*
G01X0043386Y-077559D01*
G01X0043228Y-077559D01*
G01X0043228Y-074764D01*
G01X0042598Y-074764D01*
G01X0042598Y-077559D01*
G01X0042441Y-077559D01*
G01X0042441Y-074764D01*
G01X0041811Y-074764D01*
G01X0041811Y-077559D01*
G01X0041654Y-077559D01*
G01X0041654Y-074764D01*
G01X0041024Y-074764D01*
G01X0041024Y-077559D01*
G01X0040866Y-077559D01*
G01X0040866Y-074764D01*
G01X0040236Y-074764D01*
G01X0040236Y-077559D01*
G01X0040079Y-077559D01*
G01X0040079Y-074764D01*
G01X0039449Y-074764D01*
G01X0039449Y-077559D01*
G01X0039291Y-077559D01*
G01X0039291Y-074764D01*
G01X0038661Y-074764D01*
G01X0038661Y-074606D01*
G01X0048898Y-074606D01*
G01X0048898Y-077559D01*
G01X0048898Y-077559D01*
G37*
G54D18*
G01X0059567Y-074685D03*
G54D10*
G36*
G01X0059764Y-074764D02*
G01X0059134Y-074764D01*
G01X0059134Y-077559D01*
G01X0058976Y-077559D01*
G01X0058976Y-074764D01*
G01X0058346Y-074764D01*
G01X0058346Y-077559D01*
G01X0058189Y-077559D01*
G01X0058189Y-074764D01*
G01X0057559Y-074764D01*
G01X0057559Y-077559D01*
G01X0057402Y-077559D01*
G01X0057402Y-074764D01*
G01X0056772Y-074764D01*
G01X0056772Y-077559D01*
G01X0056614Y-077559D01*
G01X0056614Y-074764D01*
G01X0055984Y-074764D01*
G01X0055984Y-077559D01*
G01X0055827Y-077559D01*
G01X0055827Y-074764D01*
G01X0055197Y-074764D01*
G01X0055197Y-077559D01*
G01X0055039Y-077559D01*
G01X0055039Y-074764D01*
G01X0054409Y-074764D01*
G01X0054409Y-077559D01*
G01X0054252Y-077559D01*
G01X0054252Y-074764D01*
G01X0053622Y-074764D01*
G01X0053622Y-077559D01*
G01X0053465Y-077559D01*
G01X0053465Y-074764D01*
G01X0052835Y-074764D01*
G01X0052835Y-077559D01*
G01X0052677Y-077559D01*
G01X0052677Y-074764D01*
G01X0052047Y-074764D01*
G01X0052047Y-077559D01*
G01X0051890Y-077559D01*
G01X0051890Y-074764D01*
G01X0051260Y-074764D01*
G01X0051260Y-077559D01*
G01X0051102Y-077559D01*
G01X0051102Y-074764D01*
G01X0050472Y-074764D01*
G01X0050472Y-077559D01*
G01X0050315Y-077559D01*
G01X0050315Y-074764D01*
G01X0049685Y-074764D01*
G01X0049685Y-077559D01*
G01X0049528Y-077559D01*
G01X0049528Y-074606D01*
G01X0059764Y-074606D01*
G01X0059764Y-074764D01*
G01X0059764Y-074764D01*
G37*
G54D18*
G01X0049213Y-077756D03*
G54D10*
G36*
G01X0049291Y-077795D02*
G01X0049921Y-077795D01*
G01X0049921Y-075000D01*
G01X0050079Y-075000D01*
G01X0050079Y-077795D01*
G01X0050709Y-077795D01*
G01X0050709Y-075000D01*
G01X0050866Y-075000D01*
G01X0050866Y-077795D01*
G01X0051496Y-077795D01*
G01X0051496Y-075000D01*
G01X0051654Y-075000D01*
G01X0051654Y-077795D01*
G01X0052283Y-077795D01*
G01X0052283Y-075000D01*
G01X0052441Y-075000D01*
G01X0052441Y-077795D01*
G01X0053071Y-077795D01*
G01X0053071Y-075000D01*
G01X0053228Y-075000D01*
G01X0053228Y-077795D01*
G01X0053858Y-077795D01*
G01X0053858Y-075000D01*
G01X0054016Y-075000D01*
G01X0054016Y-077795D01*
G01X0054646Y-077795D01*
G01X0054646Y-075000D01*
G01X0054803Y-075000D01*
G01X0054803Y-077795D01*
G01X0055433Y-077795D01*
G01X0055433Y-075000D01*
G01X0055591Y-075000D01*
G01X0055591Y-077795D01*
G01X0056220Y-077795D01*
G01X0056220Y-075000D01*
G01X0056378Y-075000D01*
G01X0056378Y-077795D01*
G01X0057008Y-077795D01*
G01X0057008Y-075000D01*
G01X0057165Y-075000D01*
G01X0057165Y-077795D01*
G01X0057795Y-077795D01*
G01X0057795Y-075000D01*
G01X0057953Y-075000D01*
G01X0057953Y-077795D01*
G01X0058583Y-077795D01*
G01X0058583Y-075000D01*
G01X0058740Y-075000D01*
G01X0058740Y-077795D01*
G01X0059370Y-077795D01*
G01X0059370Y-075000D01*
G01X0059528Y-075000D01*
G01X0059528Y-077953D01*
G01X0038898Y-077953D01*
G01X0038898Y-075000D01*
G01X0039055Y-075000D01*
G01X0039055Y-077795D01*
G01X0039685Y-077795D01*
G01X0039685Y-075000D01*
G01X0039843Y-075000D01*
G01X0039843Y-077795D01*
G01X0040472Y-077795D01*
G01X0040472Y-075000D01*
G01X0040630Y-075000D01*
G01X0040630Y-077795D01*
G01X0041260Y-077795D01*
G01X0041260Y-075000D01*
G01X0041417Y-075000D01*
G01X0041417Y-077795D01*
G01X0042047Y-077795D01*
G01X0042047Y-075000D01*
G01X0042205Y-075000D01*
G01X0042205Y-077795D01*
G01X0042835Y-077795D01*
G01X0042835Y-075000D01*
G01X0042992Y-075000D01*
G01X0042992Y-077795D01*
G01X0043622Y-077795D01*
G01X0043622Y-075000D01*
G01X0043780Y-075000D01*
G01X0043780Y-077795D01*
G01X0044409Y-077795D01*
G01X0044409Y-075000D01*
G01X0044567Y-075000D01*
G01X0044567Y-077795D01*
G01X0045197Y-077795D01*
G01X0045197Y-075000D01*
G01X0045354Y-075000D01*
G01X0045354Y-077795D01*
G01X0045984Y-077795D01*
G01X0045984Y-075000D01*
G01X0046142Y-075000D01*
G01X0046142Y-077795D01*
G01X0046772Y-077795D01*
G01X0046772Y-075000D01*
G01X0046929Y-075000D01*
G01X0046929Y-077795D01*
G01X0047559Y-077795D01*
G01X0047559Y-075000D01*
G01X0047717Y-075000D01*
G01X0047717Y-077795D01*
G01X0048346Y-077795D01*
G01X0048346Y-075000D01*
G01X0048504Y-075000D01*
G01X0048504Y-077795D01*
G01X0049134Y-077795D01*
G01X0049134Y-074606D01*
G01X0049291Y-074606D01*
G01X0049291Y-077795D01*
G01X0049291Y-077795D01*
G37*
G54D18*
G01X0049213Y-068905D03*
G54D10*
G36*
G01X0049291Y-068945D02*
G01X0049921Y-068945D01*
G01X0049921Y-066149D01*
G01X0050079Y-066149D01*
G01X0050079Y-068945D01*
G01X0050709Y-068945D01*
G01X0050709Y-066149D01*
G01X0050866Y-066149D01*
G01X0050866Y-068945D01*
G01X0051496Y-068945D01*
G01X0051496Y-066149D01*
G01X0051654Y-066149D01*
G01X0051654Y-068945D01*
G01X0052283Y-068945D01*
G01X0052283Y-066149D01*
G01X0052441Y-066149D01*
G01X0052441Y-068945D01*
G01X0053071Y-068945D01*
G01X0053071Y-066149D01*
G01X0053228Y-066149D01*
G01X0053228Y-068945D01*
G01X0053858Y-068945D01*
G01X0053858Y-066149D01*
G01X0054016Y-066149D01*
G01X0054016Y-068945D01*
G01X0054646Y-068945D01*
G01X0054646Y-066149D01*
G01X0054803Y-066149D01*
G01X0054803Y-068945D01*
G01X0055433Y-068945D01*
G01X0055433Y-066149D01*
G01X0055591Y-066149D01*
G01X0055591Y-068945D01*
G01X0056220Y-068945D01*
G01X0056220Y-066149D01*
G01X0056378Y-066149D01*
G01X0056378Y-068945D01*
G01X0057008Y-068945D01*
G01X0057008Y-066149D01*
G01X0057165Y-066149D01*
G01X0057165Y-068945D01*
G01X0057795Y-068945D01*
G01X0057795Y-066149D01*
G01X0057953Y-066149D01*
G01X0057953Y-068945D01*
G01X0058583Y-068945D01*
G01X0058583Y-066149D01*
G01X0058740Y-066149D01*
G01X0058740Y-068945D01*
G01X0059370Y-068945D01*
G01X0059370Y-066149D01*
G01X0059528Y-066149D01*
G01X0059528Y-069102D01*
G01X0038898Y-069102D01*
G01X0038898Y-066149D01*
G01X0039055Y-066149D01*
G01X0039055Y-068945D01*
G01X0039685Y-068945D01*
G01X0039685Y-066149D01*
G01X0039843Y-066149D01*
G01X0039843Y-068945D01*
G01X0040472Y-068945D01*
G01X0040472Y-066149D01*
G01X0040630Y-066149D01*
G01X0040630Y-068945D01*
G01X0041260Y-068945D01*
G01X0041260Y-066149D01*
G01X0041417Y-066149D01*
G01X0041417Y-068945D01*
G01X0042047Y-068945D01*
G01X0042047Y-066149D01*
G01X0042205Y-066149D01*
G01X0042205Y-068945D01*
G01X0042835Y-068945D01*
G01X0042835Y-066149D01*
G01X0042992Y-066149D01*
G01X0042992Y-068945D01*
G01X0043622Y-068945D01*
G01X0043622Y-066149D01*
G01X0043780Y-066149D01*
G01X0043780Y-068945D01*
G01X0044409Y-068945D01*
G01X0044409Y-066149D01*
G01X0044567Y-066149D01*
G01X0044567Y-068945D01*
G01X0045197Y-068945D01*
G01X0045197Y-066149D01*
G01X0045354Y-066149D01*
G01X0045354Y-068945D01*
G01X0045984Y-068945D01*
G01X0045984Y-066149D01*
G01X0046142Y-066149D01*
G01X0046142Y-068945D01*
G01X0046772Y-068945D01*
G01X0046772Y-066149D01*
G01X0046929Y-066149D01*
G01X0046929Y-068945D01*
G01X0047559Y-068945D01*
G01X0047559Y-066149D01*
G01X0047717Y-066149D01*
G01X0047717Y-068945D01*
G01X0048346Y-068945D01*
G01X0048346Y-066149D01*
G01X0048504Y-066149D01*
G01X0048504Y-068945D01*
G01X0049134Y-068945D01*
G01X0049134Y-065756D01*
G01X0049291Y-065756D01*
G01X0049291Y-068945D01*
G01X0049291Y-068945D01*
G37*
G54D18*
G01X0059567Y-065834D03*
G54D10*
G36*
G01X0059764Y-065913D02*
G01X0059134Y-065913D01*
G01X0059134Y-068708D01*
G01X0058976Y-068708D01*
G01X0058976Y-065913D01*
G01X0058346Y-065913D01*
G01X0058346Y-068708D01*
G01X0058189Y-068708D01*
G01X0058189Y-065913D01*
G01X0057559Y-065913D01*
G01X0057559Y-068708D01*
G01X0057402Y-068708D01*
G01X0057402Y-065913D01*
G01X0056772Y-065913D01*
G01X0056772Y-068708D01*
G01X0056614Y-068708D01*
G01X0056614Y-065913D01*
G01X0055984Y-065913D01*
G01X0055984Y-068708D01*
G01X0055827Y-068708D01*
G01X0055827Y-065913D01*
G01X0055197Y-065913D01*
G01X0055197Y-068708D01*
G01X0055039Y-068708D01*
G01X0055039Y-065913D01*
G01X0054409Y-065913D01*
G01X0054409Y-068708D01*
G01X0054252Y-068708D01*
G01X0054252Y-065913D01*
G01X0053622Y-065913D01*
G01X0053622Y-068708D01*
G01X0053465Y-068708D01*
G01X0053465Y-065913D01*
G01X0052835Y-065913D01*
G01X0052835Y-068708D01*
G01X0052677Y-068708D01*
G01X0052677Y-065913D01*
G01X0052047Y-065913D01*
G01X0052047Y-068708D01*
G01X0051890Y-068708D01*
G01X0051890Y-065913D01*
G01X0051260Y-065913D01*
G01X0051260Y-068708D01*
G01X0051102Y-068708D01*
G01X0051102Y-065913D01*
G01X0050472Y-065913D01*
G01X0050472Y-068708D01*
G01X0050315Y-068708D01*
G01X0050315Y-065913D01*
G01X0049685Y-065913D01*
G01X0049685Y-068708D01*
G01X0049528Y-068708D01*
G01X0049528Y-065756D01*
G01X0059764Y-065756D01*
G01X0059764Y-065913D01*
G01X0059764Y-065913D01*
G37*
G54D18*
G01X0038858Y-065834D03*
G54D10*
G36*
G01X0048898Y-068708D02*
G01X0048740Y-068708D01*
G01X0048740Y-065913D01*
G01X0048110Y-065913D01*
G01X0048110Y-068708D01*
G01X0047953Y-068708D01*
G01X0047953Y-065913D01*
G01X0047323Y-065913D01*
G01X0047323Y-068708D01*
G01X0047165Y-068708D01*
G01X0047165Y-065913D01*
G01X0046535Y-065913D01*
G01X0046535Y-068708D01*
G01X0046378Y-068708D01*
G01X0046378Y-065913D01*
G01X0045748Y-065913D01*
G01X0045748Y-068708D01*
G01X0045591Y-068708D01*
G01X0045591Y-065913D01*
G01X0044961Y-065913D01*
G01X0044961Y-068708D01*
G01X0044803Y-068708D01*
G01X0044803Y-065913D01*
G01X0044173Y-065913D01*
G01X0044173Y-068708D01*
G01X0044016Y-068708D01*
G01X0044016Y-065913D01*
G01X0043386Y-065913D01*
G01X0043386Y-068708D01*
G01X0043228Y-068708D01*
G01X0043228Y-065913D01*
G01X0042598Y-065913D01*
G01X0042598Y-068708D01*
G01X0042441Y-068708D01*
G01X0042441Y-065913D01*
G01X0041811Y-065913D01*
G01X0041811Y-068708D01*
G01X0041654Y-068708D01*
G01X0041654Y-065913D01*
G01X0041024Y-065913D01*
G01X0041024Y-068708D01*
G01X0040866Y-068708D01*
G01X0040866Y-065913D01*
G01X0040236Y-065913D01*
G01X0040236Y-068708D01*
G01X0040079Y-068708D01*
G01X0040079Y-065913D01*
G01X0039449Y-065913D01*
G01X0039449Y-068708D01*
G01X0039291Y-068708D01*
G01X0039291Y-065913D01*
G01X0038661Y-065913D01*
G01X0038661Y-065756D01*
G01X0048898Y-065756D01*
G01X0048898Y-068708D01*
G01X0048898Y-068708D01*
G37*
G54D18*
G01X0038858Y-056984D03*
G54D10*
G36*
G01X0048898Y-059858D02*
G01X0048740Y-059858D01*
G01X0048740Y-057063D01*
G01X0048110Y-057063D01*
G01X0048110Y-059858D01*
G01X0047953Y-059858D01*
G01X0047953Y-057063D01*
G01X0047323Y-057063D01*
G01X0047323Y-059858D01*
G01X0047165Y-059858D01*
G01X0047165Y-057063D01*
G01X0046535Y-057063D01*
G01X0046535Y-059858D01*
G01X0046378Y-059858D01*
G01X0046378Y-057063D01*
G01X0045748Y-057063D01*
G01X0045748Y-059858D01*
G01X0045591Y-059858D01*
G01X0045591Y-057063D01*
G01X0044961Y-057063D01*
G01X0044961Y-059858D01*
G01X0044803Y-059858D01*
G01X0044803Y-057063D01*
G01X0044173Y-057063D01*
G01X0044173Y-059858D01*
G01X0044016Y-059858D01*
G01X0044016Y-057063D01*
G01X0043386Y-057063D01*
G01X0043386Y-059858D01*
G01X0043228Y-059858D01*
G01X0043228Y-057063D01*
G01X0042598Y-057063D01*
G01X0042598Y-059858D01*
G01X0042441Y-059858D01*
G01X0042441Y-057063D01*
G01X0041811Y-057063D01*
G01X0041811Y-059858D01*
G01X0041654Y-059858D01*
G01X0041654Y-057063D01*
G01X0041024Y-057063D01*
G01X0041024Y-059858D01*
G01X0040866Y-059858D01*
G01X0040866Y-057063D01*
G01X0040236Y-057063D01*
G01X0040236Y-059858D01*
G01X0040079Y-059858D01*
G01X0040079Y-057063D01*
G01X0039449Y-057063D01*
G01X0039449Y-059858D01*
G01X0039291Y-059858D01*
G01X0039291Y-057063D01*
G01X0038661Y-057063D01*
G01X0038661Y-056905D01*
G01X0048898Y-056905D01*
G01X0048898Y-059858D01*
G01X0048898Y-059858D01*
G37*
G54D18*
G01X0059567Y-056984D03*
G54D10*
G36*
G01X0059764Y-057063D02*
G01X0059134Y-057063D01*
G01X0059134Y-059858D01*
G01X0058976Y-059858D01*
G01X0058976Y-057063D01*
G01X0058346Y-057063D01*
G01X0058346Y-059858D01*
G01X0058189Y-059858D01*
G01X0058189Y-057063D01*
G01X0057559Y-057063D01*
G01X0057559Y-059858D01*
G01X0057402Y-059858D01*
G01X0057402Y-057063D01*
G01X0056772Y-057063D01*
G01X0056772Y-059858D01*
G01X0056614Y-059858D01*
G01X0056614Y-057063D01*
G01X0055984Y-057063D01*
G01X0055984Y-059858D01*
G01X0055827Y-059858D01*
G01X0055827Y-057063D01*
G01X0055197Y-057063D01*
G01X0055197Y-059858D01*
G01X0055039Y-059858D01*
G01X0055039Y-057063D01*
G01X0054409Y-057063D01*
G01X0054409Y-059858D01*
G01X0054252Y-059858D01*
G01X0054252Y-057063D01*
G01X0053622Y-057063D01*
G01X0053622Y-059858D01*
G01X0053465Y-059858D01*
G01X0053465Y-057063D01*
G01X0052835Y-057063D01*
G01X0052835Y-059858D01*
G01X0052677Y-059858D01*
G01X0052677Y-057063D01*
G01X0052047Y-057063D01*
G01X0052047Y-059858D01*
G01X0051890Y-059858D01*
G01X0051890Y-057063D01*
G01X0051260Y-057063D01*
G01X0051260Y-059858D01*
G01X0051102Y-059858D01*
G01X0051102Y-057063D01*
G01X0050472Y-057063D01*
G01X0050472Y-059858D01*
G01X0050315Y-059858D01*
G01X0050315Y-057063D01*
G01X0049685Y-057063D01*
G01X0049685Y-059858D01*
G01X0049528Y-059858D01*
G01X0049528Y-056905D01*
G01X0059764Y-056905D01*
G01X0059764Y-057063D01*
G01X0059764Y-057063D01*
G37*
G54D18*
G01X0049213Y-060055D03*
G54D10*
G36*
G01X0049291Y-060094D02*
G01X0049921Y-060094D01*
G01X0049921Y-057299D01*
G01X0050079Y-057299D01*
G01X0050079Y-060094D01*
G01X0050709Y-060094D01*
G01X0050709Y-057299D01*
G01X0050866Y-057299D01*
G01X0050866Y-060094D01*
G01X0051496Y-060094D01*
G01X0051496Y-057299D01*
G01X0051654Y-057299D01*
G01X0051654Y-060094D01*
G01X0052283Y-060094D01*
G01X0052283Y-057299D01*
G01X0052441Y-057299D01*
G01X0052441Y-060094D01*
G01X0053071Y-060094D01*
G01X0053071Y-057299D01*
G01X0053228Y-057299D01*
G01X0053228Y-060094D01*
G01X0053858Y-060094D01*
G01X0053858Y-057299D01*
G01X0054016Y-057299D01*
G01X0054016Y-060094D01*
G01X0054646Y-060094D01*
G01X0054646Y-057299D01*
G01X0054803Y-057299D01*
G01X0054803Y-060094D01*
G01X0055433Y-060094D01*
G01X0055433Y-057299D01*
G01X0055591Y-057299D01*
G01X0055591Y-060094D01*
G01X0056220Y-060094D01*
G01X0056220Y-057299D01*
G01X0056378Y-057299D01*
G01X0056378Y-060094D01*
G01X0057008Y-060094D01*
G01X0057008Y-057299D01*
G01X0057165Y-057299D01*
G01X0057165Y-060094D01*
G01X0057795Y-060094D01*
G01X0057795Y-057299D01*
G01X0057953Y-057299D01*
G01X0057953Y-060094D01*
G01X0058583Y-060094D01*
G01X0058583Y-057299D01*
G01X0058740Y-057299D01*
G01X0058740Y-060094D01*
G01X0059370Y-060094D01*
G01X0059370Y-057299D01*
G01X0059528Y-057299D01*
G01X0059528Y-060251D01*
G01X0038898Y-060251D01*
G01X0038898Y-057299D01*
G01X0039055Y-057299D01*
G01X0039055Y-060094D01*
G01X0039685Y-060094D01*
G01X0039685Y-057299D01*
G01X0039843Y-057299D01*
G01X0039843Y-060094D01*
G01X0040472Y-060094D01*
G01X0040472Y-057299D01*
G01X0040630Y-057299D01*
G01X0040630Y-060094D01*
G01X0041260Y-060094D01*
G01X0041260Y-057299D01*
G01X0041417Y-057299D01*
G01X0041417Y-060094D01*
G01X0042047Y-060094D01*
G01X0042047Y-057299D01*
G01X0042205Y-057299D01*
G01X0042205Y-060094D01*
G01X0042835Y-060094D01*
G01X0042835Y-057299D01*
G01X0042992Y-057299D01*
G01X0042992Y-060094D01*
G01X0043622Y-060094D01*
G01X0043622Y-057299D01*
G01X0043780Y-057299D01*
G01X0043780Y-060094D01*
G01X0044409Y-060094D01*
G01X0044409Y-057299D01*
G01X0044567Y-057299D01*
G01X0044567Y-060094D01*
G01X0045197Y-060094D01*
G01X0045197Y-057299D01*
G01X0045354Y-057299D01*
G01X0045354Y-060094D01*
G01X0045984Y-060094D01*
G01X0045984Y-057299D01*
G01X0046142Y-057299D01*
G01X0046142Y-060094D01*
G01X0046772Y-060094D01*
G01X0046772Y-057299D01*
G01X0046929Y-057299D01*
G01X0046929Y-060094D01*
G01X0047559Y-060094D01*
G01X0047559Y-057299D01*
G01X0047717Y-057299D01*
G01X0047717Y-060094D01*
G01X0048346Y-060094D01*
G01X0048346Y-057299D01*
G01X0048504Y-057299D01*
G01X0048504Y-060094D01*
G01X0049134Y-060094D01*
G01X0049134Y-056905D01*
G01X0049291Y-056905D01*
G01X0049291Y-060094D01*
G01X0049291Y-060094D01*
G37*
G54D18*
G01X0049213Y-051204D03*
G54D10*
G36*
G01X0049291Y-051243D02*
G01X0049921Y-051243D01*
G01X0049921Y-048448D01*
G01X0050079Y-048448D01*
G01X0050079Y-051243D01*
G01X0050709Y-051243D01*
G01X0050709Y-048448D01*
G01X0050866Y-048448D01*
G01X0050866Y-051243D01*
G01X0051496Y-051243D01*
G01X0051496Y-048448D01*
G01X0051654Y-048448D01*
G01X0051654Y-051243D01*
G01X0052283Y-051243D01*
G01X0052283Y-048448D01*
G01X0052441Y-048448D01*
G01X0052441Y-051243D01*
G01X0053071Y-051243D01*
G01X0053071Y-048448D01*
G01X0053228Y-048448D01*
G01X0053228Y-051243D01*
G01X0053858Y-051243D01*
G01X0053858Y-048448D01*
G01X0054016Y-048448D01*
G01X0054016Y-051243D01*
G01X0054646Y-051243D01*
G01X0054646Y-048448D01*
G01X0054803Y-048448D01*
G01X0054803Y-051243D01*
G01X0055433Y-051243D01*
G01X0055433Y-048448D01*
G01X0055591Y-048448D01*
G01X0055591Y-051243D01*
G01X0056220Y-051243D01*
G01X0056220Y-048448D01*
G01X0056378Y-048448D01*
G01X0056378Y-051243D01*
G01X0057008Y-051243D01*
G01X0057008Y-048448D01*
G01X0057165Y-048448D01*
G01X0057165Y-051243D01*
G01X0057795Y-051243D01*
G01X0057795Y-048448D01*
G01X0057953Y-048448D01*
G01X0057953Y-051243D01*
G01X0058583Y-051243D01*
G01X0058583Y-048448D01*
G01X0058740Y-048448D01*
G01X0058740Y-051243D01*
G01X0059370Y-051243D01*
G01X0059370Y-048448D01*
G01X0059528Y-048448D01*
G01X0059528Y-051401D01*
G01X0038898Y-051401D01*
G01X0038898Y-048448D01*
G01X0039055Y-048448D01*
G01X0039055Y-051243D01*
G01X0039685Y-051243D01*
G01X0039685Y-048448D01*
G01X0039843Y-048448D01*
G01X0039843Y-051243D01*
G01X0040472Y-051243D01*
G01X0040472Y-048448D01*
G01X0040630Y-048448D01*
G01X0040630Y-051243D01*
G01X0041260Y-051243D01*
G01X0041260Y-048448D01*
G01X0041417Y-048448D01*
G01X0041417Y-051243D01*
G01X0042047Y-051243D01*
G01X0042047Y-048448D01*
G01X0042205Y-048448D01*
G01X0042205Y-051243D01*
G01X0042835Y-051243D01*
G01X0042835Y-048448D01*
G01X0042992Y-048448D01*
G01X0042992Y-051243D01*
G01X0043622Y-051243D01*
G01X0043622Y-048448D01*
G01X0043780Y-048448D01*
G01X0043780Y-051243D01*
G01X0044409Y-051243D01*
G01X0044409Y-048448D01*
G01X0044567Y-048448D01*
G01X0044567Y-051243D01*
G01X0045197Y-051243D01*
G01X0045197Y-048448D01*
G01X0045354Y-048448D01*
G01X0045354Y-051243D01*
G01X0045984Y-051243D01*
G01X0045984Y-048448D01*
G01X0046142Y-048448D01*
G01X0046142Y-051243D01*
G01X0046772Y-051243D01*
G01X0046772Y-048448D01*
G01X0046929Y-048448D01*
G01X0046929Y-051243D01*
G01X0047559Y-051243D01*
G01X0047559Y-048448D01*
G01X0047717Y-048448D01*
G01X0047717Y-051243D01*
G01X0048346Y-051243D01*
G01X0048346Y-048448D01*
G01X0048504Y-048448D01*
G01X0048504Y-051243D01*
G01X0049134Y-051243D01*
G01X0049134Y-048054D01*
G01X0049291Y-048054D01*
G01X0049291Y-051243D01*
G01X0049291Y-051243D01*
G37*
G54D18*
G01X0059567Y-048133D03*
G54D10*
G36*
G01X0059764Y-048212D02*
G01X0059134Y-048212D01*
G01X0059134Y-051007D01*
G01X0058976Y-051007D01*
G01X0058976Y-048212D01*
G01X0058346Y-048212D01*
G01X0058346Y-051007D01*
G01X0058189Y-051007D01*
G01X0058189Y-048212D01*
G01X0057559Y-048212D01*
G01X0057559Y-051007D01*
G01X0057402Y-051007D01*
G01X0057402Y-048212D01*
G01X0056772Y-048212D01*
G01X0056772Y-051007D01*
G01X0056614Y-051007D01*
G01X0056614Y-048212D01*
G01X0055984Y-048212D01*
G01X0055984Y-051007D01*
G01X0055827Y-051007D01*
G01X0055827Y-048212D01*
G01X0055197Y-048212D01*
G01X0055197Y-051007D01*
G01X0055039Y-051007D01*
G01X0055039Y-048212D01*
G01X0054409Y-048212D01*
G01X0054409Y-051007D01*
G01X0054252Y-051007D01*
G01X0054252Y-048212D01*
G01X0053622Y-048212D01*
G01X0053622Y-051007D01*
G01X0053465Y-051007D01*
G01X0053465Y-048212D01*
G01X0052835Y-048212D01*
G01X0052835Y-051007D01*
G01X0052677Y-051007D01*
G01X0052677Y-048212D01*
G01X0052047Y-048212D01*
G01X0052047Y-051007D01*
G01X0051890Y-051007D01*
G01X0051890Y-048212D01*
G01X0051260Y-048212D01*
G01X0051260Y-051007D01*
G01X0051102Y-051007D01*
G01X0051102Y-048212D01*
G01X0050472Y-048212D01*
G01X0050472Y-051007D01*
G01X0050315Y-051007D01*
G01X0050315Y-048212D01*
G01X0049685Y-048212D01*
G01X0049685Y-051007D01*
G01X0049528Y-051007D01*
G01X0049528Y-048054D01*
G01X0059764Y-048054D01*
G01X0059764Y-048212D01*
G01X0059764Y-048212D01*
G37*
G54D18*
G01X0038858Y-048133D03*
G54D10*
G36*
G01X0048898Y-051007D02*
G01X0048740Y-051007D01*
G01X0048740Y-048212D01*
G01X0048110Y-048212D01*
G01X0048110Y-051007D01*
G01X0047953Y-051007D01*
G01X0047953Y-048212D01*
G01X0047323Y-048212D01*
G01X0047323Y-051007D01*
G01X0047165Y-051007D01*
G01X0047165Y-048212D01*
G01X0046535Y-048212D01*
G01X0046535Y-051007D01*
G01X0046378Y-051007D01*
G01X0046378Y-048212D01*
G01X0045748Y-048212D01*
G01X0045748Y-051007D01*
G01X0045591Y-051007D01*
G01X0045591Y-048212D01*
G01X0044961Y-048212D01*
G01X0044961Y-051007D01*
G01X0044803Y-051007D01*
G01X0044803Y-048212D01*
G01X0044173Y-048212D01*
G01X0044173Y-051007D01*
G01X0044016Y-051007D01*
G01X0044016Y-048212D01*
G01X0043386Y-048212D01*
G01X0043386Y-051007D01*
G01X0043228Y-051007D01*
G01X0043228Y-048212D01*
G01X0042598Y-048212D01*
G01X0042598Y-051007D01*
G01X0042441Y-051007D01*
G01X0042441Y-048212D01*
G01X0041811Y-048212D01*
G01X0041811Y-051007D01*
G01X0041654Y-051007D01*
G01X0041654Y-048212D01*
G01X0041024Y-048212D01*
G01X0041024Y-051007D01*
G01X0040866Y-051007D01*
G01X0040866Y-048212D01*
G01X0040236Y-048212D01*
G01X0040236Y-051007D01*
G01X0040079Y-051007D01*
G01X0040079Y-048212D01*
G01X0039449Y-048212D01*
G01X0039449Y-051007D01*
G01X0039291Y-051007D01*
G01X0039291Y-048212D01*
G01X0038661Y-048212D01*
G01X0038661Y-048054D01*
G01X0048898Y-048054D01*
G01X0048898Y-051007D01*
G01X0048898Y-051007D01*
G37*
G54D18*
G01X0038858Y-039283D03*
G54D10*
G36*
G01X0048898Y-042157D02*
G01X0048740Y-042157D01*
G01X0048740Y-039361D01*
G01X0048110Y-039361D01*
G01X0048110Y-042157D01*
G01X0047953Y-042157D01*
G01X0047953Y-039361D01*
G01X0047323Y-039361D01*
G01X0047323Y-042157D01*
G01X0047165Y-042157D01*
G01X0047165Y-039361D01*
G01X0046535Y-039361D01*
G01X0046535Y-042157D01*
G01X0046378Y-042157D01*
G01X0046378Y-039361D01*
G01X0045748Y-039361D01*
G01X0045748Y-042157D01*
G01X0045591Y-042157D01*
G01X0045591Y-039361D01*
G01X0044961Y-039361D01*
G01X0044961Y-042157D01*
G01X0044803Y-042157D01*
G01X0044803Y-039361D01*
G01X0044173Y-039361D01*
G01X0044173Y-042157D01*
G01X0044016Y-042157D01*
G01X0044016Y-039361D01*
G01X0043386Y-039361D01*
G01X0043386Y-042157D01*
G01X0043228Y-042157D01*
G01X0043228Y-039361D01*
G01X0042598Y-039361D01*
G01X0042598Y-042157D01*
G01X0042441Y-042157D01*
G01X0042441Y-039361D01*
G01X0041811Y-039361D01*
G01X0041811Y-042157D01*
G01X0041654Y-042157D01*
G01X0041654Y-039361D01*
G01X0041024Y-039361D01*
G01X0041024Y-042157D01*
G01X0040866Y-042157D01*
G01X0040866Y-039361D01*
G01X0040236Y-039361D01*
G01X0040236Y-042157D01*
G01X0040079Y-042157D01*
G01X0040079Y-039361D01*
G01X0039449Y-039361D01*
G01X0039449Y-042157D01*
G01X0039291Y-042157D01*
G01X0039291Y-039361D01*
G01X0038661Y-039361D01*
G01X0038661Y-039204D01*
G01X0048898Y-039204D01*
G01X0048898Y-042157D01*
G01X0048898Y-042157D01*
G37*
G54D18*
G01X0059567Y-039283D03*
G54D10*
G36*
G01X0059764Y-039361D02*
G01X0059134Y-039361D01*
G01X0059134Y-042157D01*
G01X0058976Y-042157D01*
G01X0058976Y-039361D01*
G01X0058346Y-039361D01*
G01X0058346Y-042157D01*
G01X0058189Y-042157D01*
G01X0058189Y-039361D01*
G01X0057559Y-039361D01*
G01X0057559Y-042157D01*
G01X0057402Y-042157D01*
G01X0057402Y-039361D01*
G01X0056772Y-039361D01*
G01X0056772Y-042157D01*
G01X0056614Y-042157D01*
G01X0056614Y-039361D01*
G01X0055984Y-039361D01*
G01X0055984Y-042157D01*
G01X0055827Y-042157D01*
G01X0055827Y-039361D01*
G01X0055197Y-039361D01*
G01X0055197Y-042157D01*
G01X0055039Y-042157D01*
G01X0055039Y-039361D01*
G01X0054409Y-039361D01*
G01X0054409Y-042157D01*
G01X0054252Y-042157D01*
G01X0054252Y-039361D01*
G01X0053622Y-039361D01*
G01X0053622Y-042157D01*
G01X0053465Y-042157D01*
G01X0053465Y-039361D01*
G01X0052835Y-039361D01*
G01X0052835Y-042157D01*
G01X0052677Y-042157D01*
G01X0052677Y-039361D01*
G01X0052047Y-039361D01*
G01X0052047Y-042157D01*
G01X0051890Y-042157D01*
G01X0051890Y-039361D01*
G01X0051260Y-039361D01*
G01X0051260Y-042157D01*
G01X0051102Y-042157D01*
G01X0051102Y-039361D01*
G01X0050472Y-039361D01*
G01X0050472Y-042157D01*
G01X0050315Y-042157D01*
G01X0050315Y-039361D01*
G01X0049685Y-039361D01*
G01X0049685Y-042157D01*
G01X0049528Y-042157D01*
G01X0049528Y-039204D01*
G01X0059764Y-039204D01*
G01X0059764Y-039361D01*
G01X0059764Y-039361D01*
G37*
G54D18*
G01X0049213Y-042353D03*
G54D10*
G36*
G01X0049291Y-042393D02*
G01X0049921Y-042393D01*
G01X0049921Y-039597D01*
G01X0050079Y-039597D01*
G01X0050079Y-042393D01*
G01X0050709Y-042393D01*
G01X0050709Y-039597D01*
G01X0050866Y-039597D01*
G01X0050866Y-042393D01*
G01X0051496Y-042393D01*
G01X0051496Y-039597D01*
G01X0051654Y-039597D01*
G01X0051654Y-042393D01*
G01X0052283Y-042393D01*
G01X0052283Y-039597D01*
G01X0052441Y-039597D01*
G01X0052441Y-042393D01*
G01X0053071Y-042393D01*
G01X0053071Y-039597D01*
G01X0053228Y-039597D01*
G01X0053228Y-042393D01*
G01X0053858Y-042393D01*
G01X0053858Y-039597D01*
G01X0054016Y-039597D01*
G01X0054016Y-042393D01*
G01X0054646Y-042393D01*
G01X0054646Y-039597D01*
G01X0054803Y-039597D01*
G01X0054803Y-042393D01*
G01X0055433Y-042393D01*
G01X0055433Y-039597D01*
G01X0055591Y-039597D01*
G01X0055591Y-042393D01*
G01X0056220Y-042393D01*
G01X0056220Y-039597D01*
G01X0056378Y-039597D01*
G01X0056378Y-042393D01*
G01X0057008Y-042393D01*
G01X0057008Y-039597D01*
G01X0057165Y-039597D01*
G01X0057165Y-042393D01*
G01X0057795Y-042393D01*
G01X0057795Y-039597D01*
G01X0057953Y-039597D01*
G01X0057953Y-042393D01*
G01X0058583Y-042393D01*
G01X0058583Y-039597D01*
G01X0058740Y-039597D01*
G01X0058740Y-042393D01*
G01X0059370Y-042393D01*
G01X0059370Y-039597D01*
G01X0059528Y-039597D01*
G01X0059528Y-042550D01*
G01X0038898Y-042550D01*
G01X0038898Y-039597D01*
G01X0039055Y-039597D01*
G01X0039055Y-042393D01*
G01X0039685Y-042393D01*
G01X0039685Y-039597D01*
G01X0039843Y-039597D01*
G01X0039843Y-042393D01*
G01X0040472Y-042393D01*
G01X0040472Y-039597D01*
G01X0040630Y-039597D01*
G01X0040630Y-042393D01*
G01X0041260Y-042393D01*
G01X0041260Y-039597D01*
G01X0041417Y-039597D01*
G01X0041417Y-042393D01*
G01X0042047Y-042393D01*
G01X0042047Y-039597D01*
G01X0042205Y-039597D01*
G01X0042205Y-042393D01*
G01X0042835Y-042393D01*
G01X0042835Y-039597D01*
G01X0042992Y-039597D01*
G01X0042992Y-042393D01*
G01X0043622Y-042393D01*
G01X0043622Y-039597D01*
G01X0043780Y-039597D01*
G01X0043780Y-042393D01*
G01X0044409Y-042393D01*
G01X0044409Y-039597D01*
G01X0044567Y-039597D01*
G01X0044567Y-042393D01*
G01X0045197Y-042393D01*
G01X0045197Y-039597D01*
G01X0045354Y-039597D01*
G01X0045354Y-042393D01*
G01X0045984Y-042393D01*
G01X0045984Y-039597D01*
G01X0046142Y-039597D01*
G01X0046142Y-042393D01*
G01X0046772Y-042393D01*
G01X0046772Y-039597D01*
G01X0046929Y-039597D01*
G01X0046929Y-042393D01*
G01X0047559Y-042393D01*
G01X0047559Y-039597D01*
G01X0047717Y-039597D01*
G01X0047717Y-042393D01*
G01X0048346Y-042393D01*
G01X0048346Y-039597D01*
G01X0048504Y-039597D01*
G01X0048504Y-042393D01*
G01X0049134Y-042393D01*
G01X0049134Y-039204D01*
G01X0049291Y-039204D01*
G01X0049291Y-042393D01*
G01X0049291Y-042393D01*
G37*
G54D18*
G01X0038858Y-030432D03*
G54D10*
G36*
G01X0048898Y-033306D02*
G01X0048740Y-033306D01*
G01X0048740Y-030511D01*
G01X0048110Y-030511D01*
G01X0048110Y-033306D01*
G01X0047953Y-033306D01*
G01X0047953Y-030511D01*
G01X0047323Y-030511D01*
G01X0047323Y-033306D01*
G01X0047165Y-033306D01*
G01X0047165Y-030511D01*
G01X0046535Y-030511D01*
G01X0046535Y-033306D01*
G01X0046378Y-033306D01*
G01X0046378Y-030511D01*
G01X0045748Y-030511D01*
G01X0045748Y-033306D01*
G01X0045591Y-033306D01*
G01X0045591Y-030511D01*
G01X0044961Y-030511D01*
G01X0044961Y-033306D01*
G01X0044803Y-033306D01*
G01X0044803Y-030511D01*
G01X0044173Y-030511D01*
G01X0044173Y-033306D01*
G01X0044016Y-033306D01*
G01X0044016Y-030511D01*
G01X0043386Y-030511D01*
G01X0043386Y-033306D01*
G01X0043228Y-033306D01*
G01X0043228Y-030511D01*
G01X0042598Y-030511D01*
G01X0042598Y-033306D01*
G01X0042441Y-033306D01*
G01X0042441Y-030511D01*
G01X0041811Y-030511D01*
G01X0041811Y-033306D01*
G01X0041654Y-033306D01*
G01X0041654Y-030511D01*
G01X0041024Y-030511D01*
G01X0041024Y-033306D01*
G01X0040866Y-033306D01*
G01X0040866Y-030511D01*
G01X0040236Y-030511D01*
G01X0040236Y-033306D01*
G01X0040079Y-033306D01*
G01X0040079Y-030511D01*
G01X0039449Y-030511D01*
G01X0039449Y-033306D01*
G01X0039291Y-033306D01*
G01X0039291Y-030511D01*
G01X0038661Y-030511D01*
G01X0038661Y-030353D01*
G01X0048898Y-030353D01*
G01X0048898Y-033306D01*
G01X0048898Y-033306D01*
G37*
G54D18*
G01X0059567Y-030432D03*
G54D10*
G36*
G01X0059764Y-030511D02*
G01X0059134Y-030511D01*
G01X0059134Y-033306D01*
G01X0058976Y-033306D01*
G01X0058976Y-030511D01*
G01X0058346Y-030511D01*
G01X0058346Y-033306D01*
G01X0058189Y-033306D01*
G01X0058189Y-030511D01*
G01X0057559Y-030511D01*
G01X0057559Y-033306D01*
G01X0057402Y-033306D01*
G01X0057402Y-030511D01*
G01X0056772Y-030511D01*
G01X0056772Y-033306D01*
G01X0056614Y-033306D01*
G01X0056614Y-030511D01*
G01X0055984Y-030511D01*
G01X0055984Y-033306D01*
G01X0055827Y-033306D01*
G01X0055827Y-030511D01*
G01X0055197Y-030511D01*
G01X0055197Y-033306D01*
G01X0055039Y-033306D01*
G01X0055039Y-030511D01*
G01X0054409Y-030511D01*
G01X0054409Y-033306D01*
G01X0054252Y-033306D01*
G01X0054252Y-030511D01*
G01X0053622Y-030511D01*
G01X0053622Y-033306D01*
G01X0053465Y-033306D01*
G01X0053465Y-030511D01*
G01X0052835Y-030511D01*
G01X0052835Y-033306D01*
G01X0052677Y-033306D01*
G01X0052677Y-030511D01*
G01X0052047Y-030511D01*
G01X0052047Y-033306D01*
G01X0051890Y-033306D01*
G01X0051890Y-030511D01*
G01X0051260Y-030511D01*
G01X0051260Y-033306D01*
G01X0051102Y-033306D01*
G01X0051102Y-030511D01*
G01X0050472Y-030511D01*
G01X0050472Y-033306D01*
G01X0050315Y-033306D01*
G01X0050315Y-030511D01*
G01X0049685Y-030511D01*
G01X0049685Y-033306D01*
G01X0049528Y-033306D01*
G01X0049528Y-030353D01*
G01X0059764Y-030353D01*
G01X0059764Y-030511D01*
G01X0059764Y-030511D01*
G37*
G54D18*
G01X0049213Y-033503D03*
G54D10*
G36*
G01X0049291Y-033542D02*
G01X0049921Y-033542D01*
G01X0049921Y-030747D01*
G01X0050079Y-030747D01*
G01X0050079Y-033542D01*
G01X0050709Y-033542D01*
G01X0050709Y-030747D01*
G01X0050866Y-030747D01*
G01X0050866Y-033542D01*
G01X0051496Y-033542D01*
G01X0051496Y-030747D01*
G01X0051654Y-030747D01*
G01X0051654Y-033542D01*
G01X0052283Y-033542D01*
G01X0052283Y-030747D01*
G01X0052441Y-030747D01*
G01X0052441Y-033542D01*
G01X0053071Y-033542D01*
G01X0053071Y-030747D01*
G01X0053228Y-030747D01*
G01X0053228Y-033542D01*
G01X0053858Y-033542D01*
G01X0053858Y-030747D01*
G01X0054016Y-030747D01*
G01X0054016Y-033542D01*
G01X0054646Y-033542D01*
G01X0054646Y-030747D01*
G01X0054803Y-030747D01*
G01X0054803Y-033542D01*
G01X0055433Y-033542D01*
G01X0055433Y-030747D01*
G01X0055591Y-030747D01*
G01X0055591Y-033542D01*
G01X0056220Y-033542D01*
G01X0056220Y-030747D01*
G01X0056378Y-030747D01*
G01X0056378Y-033542D01*
G01X0057008Y-033542D01*
G01X0057008Y-030747D01*
G01X0057165Y-030747D01*
G01X0057165Y-033542D01*
G01X0057795Y-033542D01*
G01X0057795Y-030747D01*
G01X0057953Y-030747D01*
G01X0057953Y-033542D01*
G01X0058583Y-033542D01*
G01X0058583Y-030747D01*
G01X0058740Y-030747D01*
G01X0058740Y-033542D01*
G01X0059370Y-033542D01*
G01X0059370Y-030747D01*
G01X0059528Y-030747D01*
G01X0059528Y-033700D01*
G01X0038898Y-033700D01*
G01X0038898Y-030747D01*
G01X0039055Y-030747D01*
G01X0039055Y-033542D01*
G01X0039685Y-033542D01*
G01X0039685Y-030747D01*
G01X0039843Y-030747D01*
G01X0039843Y-033542D01*
G01X0040472Y-033542D01*
G01X0040472Y-030747D01*
G01X0040630Y-030747D01*
G01X0040630Y-033542D01*
G01X0041260Y-033542D01*
G01X0041260Y-030747D01*
G01X0041417Y-030747D01*
G01X0041417Y-033542D01*
G01X0042047Y-033542D01*
G01X0042047Y-030747D01*
G01X0042205Y-030747D01*
G01X0042205Y-033542D01*
G01X0042835Y-033542D01*
G01X0042835Y-030747D01*
G01X0042992Y-030747D01*
G01X0042992Y-033542D01*
G01X0043622Y-033542D01*
G01X0043622Y-030747D01*
G01X0043780Y-030747D01*
G01X0043780Y-033542D01*
G01X0044409Y-033542D01*
G01X0044409Y-030747D01*
G01X0044567Y-030747D01*
G01X0044567Y-033542D01*
G01X0045197Y-033542D01*
G01X0045197Y-030747D01*
G01X0045354Y-030747D01*
G01X0045354Y-033542D01*
G01X0045984Y-033542D01*
G01X0045984Y-030747D01*
G01X0046142Y-030747D01*
G01X0046142Y-033542D01*
G01X0046772Y-033542D01*
G01X0046772Y-030747D01*
G01X0046929Y-030747D01*
G01X0046929Y-033542D01*
G01X0047559Y-033542D01*
G01X0047559Y-030747D01*
G01X0047717Y-030747D01*
G01X0047717Y-033542D01*
G01X0048346Y-033542D01*
G01X0048346Y-030747D01*
G01X0048504Y-030747D01*
G01X0048504Y-033542D01*
G01X0049134Y-033542D01*
G01X0049134Y-030353D01*
G01X0049291Y-030353D01*
G01X0049291Y-033542D01*
G01X0049291Y-033542D01*
G37*
G54D18*
G01X0049213Y-024652D03*
G54D10*
G36*
G01X0049291Y-024691D02*
G01X0049921Y-024691D01*
G01X0049921Y-021896D01*
G01X0050079Y-021896D01*
G01X0050079Y-024691D01*
G01X0050709Y-024691D01*
G01X0050709Y-021896D01*
G01X0050866Y-021896D01*
G01X0050866Y-024691D01*
G01X0051496Y-024691D01*
G01X0051496Y-021896D01*
G01X0051654Y-021896D01*
G01X0051654Y-024691D01*
G01X0052283Y-024691D01*
G01X0052283Y-021896D01*
G01X0052441Y-021896D01*
G01X0052441Y-024691D01*
G01X0053071Y-024691D01*
G01X0053071Y-021896D01*
G01X0053228Y-021896D01*
G01X0053228Y-024691D01*
G01X0053858Y-024691D01*
G01X0053858Y-021896D01*
G01X0054016Y-021896D01*
G01X0054016Y-024691D01*
G01X0054646Y-024691D01*
G01X0054646Y-021896D01*
G01X0054803Y-021896D01*
G01X0054803Y-024691D01*
G01X0055433Y-024691D01*
G01X0055433Y-021896D01*
G01X0055591Y-021896D01*
G01X0055591Y-024691D01*
G01X0056220Y-024691D01*
G01X0056220Y-021896D01*
G01X0056378Y-021896D01*
G01X0056378Y-024691D01*
G01X0057008Y-024691D01*
G01X0057008Y-021896D01*
G01X0057165Y-021896D01*
G01X0057165Y-024691D01*
G01X0057795Y-024691D01*
G01X0057795Y-021896D01*
G01X0057953Y-021896D01*
G01X0057953Y-024691D01*
G01X0058583Y-024691D01*
G01X0058583Y-021896D01*
G01X0058740Y-021896D01*
G01X0058740Y-024691D01*
G01X0059370Y-024691D01*
G01X0059370Y-021896D01*
G01X0059528Y-021896D01*
G01X0059528Y-024849D01*
G01X0038898Y-024849D01*
G01X0038898Y-021896D01*
G01X0039055Y-021896D01*
G01X0039055Y-024691D01*
G01X0039685Y-024691D01*
G01X0039685Y-021896D01*
G01X0039843Y-021896D01*
G01X0039843Y-024691D01*
G01X0040472Y-024691D01*
G01X0040472Y-021896D01*
G01X0040630Y-021896D01*
G01X0040630Y-024691D01*
G01X0041260Y-024691D01*
G01X0041260Y-021896D01*
G01X0041417Y-021896D01*
G01X0041417Y-024691D01*
G01X0042047Y-024691D01*
G01X0042047Y-021896D01*
G01X0042205Y-021896D01*
G01X0042205Y-024691D01*
G01X0042835Y-024691D01*
G01X0042835Y-021896D01*
G01X0042992Y-021896D01*
G01X0042992Y-024691D01*
G01X0043622Y-024691D01*
G01X0043622Y-021896D01*
G01X0043780Y-021896D01*
G01X0043780Y-024691D01*
G01X0044409Y-024691D01*
G01X0044409Y-021896D01*
G01X0044567Y-021896D01*
G01X0044567Y-024691D01*
G01X0045197Y-024691D01*
G01X0045197Y-021896D01*
G01X0045354Y-021896D01*
G01X0045354Y-024691D01*
G01X0045984Y-024691D01*
G01X0045984Y-021896D01*
G01X0046142Y-021896D01*
G01X0046142Y-024691D01*
G01X0046772Y-024691D01*
G01X0046772Y-021896D01*
G01X0046929Y-021896D01*
G01X0046929Y-024691D01*
G01X0047559Y-024691D01*
G01X0047559Y-021896D01*
G01X0047717Y-021896D01*
G01X0047717Y-024691D01*
G01X0048346Y-024691D01*
G01X0048346Y-021896D01*
G01X0048504Y-021896D01*
G01X0048504Y-024691D01*
G01X0049134Y-024691D01*
G01X0049134Y-021503D01*
G01X0049291Y-021503D01*
G01X0049291Y-024691D01*
G01X0049291Y-024691D01*
G37*
G54D18*
G01X0059567Y-021581D03*
G54D10*
G36*
G01X0059764Y-021660D02*
G01X0059134Y-021660D01*
G01X0059134Y-024455D01*
G01X0058976Y-024455D01*
G01X0058976Y-021660D01*
G01X0058346Y-021660D01*
G01X0058346Y-024455D01*
G01X0058189Y-024455D01*
G01X0058189Y-021660D01*
G01X0057559Y-021660D01*
G01X0057559Y-024455D01*
G01X0057402Y-024455D01*
G01X0057402Y-021660D01*
G01X0056772Y-021660D01*
G01X0056772Y-024455D01*
G01X0056614Y-024455D01*
G01X0056614Y-021660D01*
G01X0055984Y-021660D01*
G01X0055984Y-024455D01*
G01X0055827Y-024455D01*
G01X0055827Y-021660D01*
G01X0055197Y-021660D01*
G01X0055197Y-024455D01*
G01X0055039Y-024455D01*
G01X0055039Y-021660D01*
G01X0054409Y-021660D01*
G01X0054409Y-024455D01*
G01X0054252Y-024455D01*
G01X0054252Y-021660D01*
G01X0053622Y-021660D01*
G01X0053622Y-024455D01*
G01X0053465Y-024455D01*
G01X0053465Y-021660D01*
G01X0052835Y-021660D01*
G01X0052835Y-024455D01*
G01X0052677Y-024455D01*
G01X0052677Y-021660D01*
G01X0052047Y-021660D01*
G01X0052047Y-024455D01*
G01X0051890Y-024455D01*
G01X0051890Y-021660D01*
G01X0051260Y-021660D01*
G01X0051260Y-024455D01*
G01X0051102Y-024455D01*
G01X0051102Y-021660D01*
G01X0050472Y-021660D01*
G01X0050472Y-024455D01*
G01X0050315Y-024455D01*
G01X0050315Y-021660D01*
G01X0049685Y-021660D01*
G01X0049685Y-024455D01*
G01X0049528Y-024455D01*
G01X0049528Y-021503D01*
G01X0059764Y-021503D01*
G01X0059764Y-021660D01*
G01X0059764Y-021660D01*
G37*
G54D18*
G01X0038858Y-021581D03*
G54D10*
G36*
G01X0048898Y-024455D02*
G01X0048740Y-024455D01*
G01X0048740Y-021660D01*
G01X0048110Y-021660D01*
G01X0048110Y-024455D01*
G01X0047953Y-024455D01*
G01X0047953Y-021660D01*
G01X0047323Y-021660D01*
G01X0047323Y-024455D01*
G01X0047165Y-024455D01*
G01X0047165Y-021660D01*
G01X0046535Y-021660D01*
G01X0046535Y-024455D01*
G01X0046378Y-024455D01*
G01X0046378Y-021660D01*
G01X0045748Y-021660D01*
G01X0045748Y-024455D01*
G01X0045591Y-024455D01*
G01X0045591Y-021660D01*
G01X0044961Y-021660D01*
G01X0044961Y-024455D01*
G01X0044803Y-024455D01*
G01X0044803Y-021660D01*
G01X0044173Y-021660D01*
G01X0044173Y-024455D01*
G01X0044016Y-024455D01*
G01X0044016Y-021660D01*
G01X0043386Y-021660D01*
G01X0043386Y-024455D01*
G01X0043228Y-024455D01*
G01X0043228Y-021660D01*
G01X0042598Y-021660D01*
G01X0042598Y-024455D01*
G01X0042441Y-024455D01*
G01X0042441Y-021660D01*
G01X0041811Y-021660D01*
G01X0041811Y-024455D01*
G01X0041654Y-024455D01*
G01X0041654Y-021660D01*
G01X0041024Y-021660D01*
G01X0041024Y-024455D01*
G01X0040866Y-024455D01*
G01X0040866Y-021660D01*
G01X0040236Y-021660D01*
G01X0040236Y-024455D01*
G01X0040079Y-024455D01*
G01X0040079Y-021660D01*
G01X0039449Y-021660D01*
G01X0039449Y-024455D01*
G01X0039291Y-024455D01*
G01X0039291Y-021660D01*
G01X0038661Y-021660D01*
G01X0038661Y-021503D01*
G01X0048898Y-021503D01*
G01X0048898Y-024455D01*
G01X0048898Y-024455D01*
G37*
G54D18*
G01X0049213Y-015801D03*
G54D10*
G36*
G01X0049291Y-015841D02*
G01X0049921Y-015841D01*
G01X0049921Y-013046D01*
G01X0050079Y-013046D01*
G01X0050079Y-015841D01*
G01X0050709Y-015841D01*
G01X0050709Y-013046D01*
G01X0050866Y-013046D01*
G01X0050866Y-015841D01*
G01X0051496Y-015841D01*
G01X0051496Y-013046D01*
G01X0051654Y-013046D01*
G01X0051654Y-015841D01*
G01X0052283Y-015841D01*
G01X0052283Y-013046D01*
G01X0052441Y-013046D01*
G01X0052441Y-015841D01*
G01X0053071Y-015841D01*
G01X0053071Y-013046D01*
G01X0053228Y-013046D01*
G01X0053228Y-015841D01*
G01X0053858Y-015841D01*
G01X0053858Y-013046D01*
G01X0054016Y-013046D01*
G01X0054016Y-015841D01*
G01X0054646Y-015841D01*
G01X0054646Y-013046D01*
G01X0054803Y-013046D01*
G01X0054803Y-015841D01*
G01X0055433Y-015841D01*
G01X0055433Y-013046D01*
G01X0055591Y-013046D01*
G01X0055591Y-015841D01*
G01X0056220Y-015841D01*
G01X0056220Y-013046D01*
G01X0056378Y-013046D01*
G01X0056378Y-015841D01*
G01X0057008Y-015841D01*
G01X0057008Y-013046D01*
G01X0057165Y-013046D01*
G01X0057165Y-015841D01*
G01X0057795Y-015841D01*
G01X0057795Y-013046D01*
G01X0057953Y-013046D01*
G01X0057953Y-015841D01*
G01X0058583Y-015841D01*
G01X0058583Y-013046D01*
G01X0058740Y-013046D01*
G01X0058740Y-015841D01*
G01X0059370Y-015841D01*
G01X0059370Y-013046D01*
G01X0059528Y-013046D01*
G01X0059528Y-015998D01*
G01X0038898Y-015998D01*
G01X0038898Y-013046D01*
G01X0039055Y-013046D01*
G01X0039055Y-015841D01*
G01X0039685Y-015841D01*
G01X0039685Y-013046D01*
G01X0039843Y-013046D01*
G01X0039843Y-015841D01*
G01X0040472Y-015841D01*
G01X0040472Y-013046D01*
G01X0040630Y-013046D01*
G01X0040630Y-015841D01*
G01X0041260Y-015841D01*
G01X0041260Y-013046D01*
G01X0041417Y-013046D01*
G01X0041417Y-015841D01*
G01X0042047Y-015841D01*
G01X0042047Y-013046D01*
G01X0042205Y-013046D01*
G01X0042205Y-015841D01*
G01X0042835Y-015841D01*
G01X0042835Y-013046D01*
G01X0042992Y-013046D01*
G01X0042992Y-015841D01*
G01X0043622Y-015841D01*
G01X0043622Y-013046D01*
G01X0043780Y-013046D01*
G01X0043780Y-015841D01*
G01X0044409Y-015841D01*
G01X0044409Y-013046D01*
G01X0044567Y-013046D01*
G01X0044567Y-015841D01*
G01X0045197Y-015841D01*
G01X0045197Y-013046D01*
G01X0045354Y-013046D01*
G01X0045354Y-015841D01*
G01X0045984Y-015841D01*
G01X0045984Y-013046D01*
G01X0046142Y-013046D01*
G01X0046142Y-015841D01*
G01X0046772Y-015841D01*
G01X0046772Y-013046D01*
G01X0046929Y-013046D01*
G01X0046929Y-015841D01*
G01X0047559Y-015841D01*
G01X0047559Y-013046D01*
G01X0047717Y-013046D01*
G01X0047717Y-015841D01*
G01X0048346Y-015841D01*
G01X0048346Y-013046D01*
G01X0048504Y-013046D01*
G01X0048504Y-015841D01*
G01X0049134Y-015841D01*
G01X0049134Y-012652D01*
G01X0049291Y-012652D01*
G01X0049291Y-015841D01*
G01X0049291Y-015841D01*
G37*
G54D18*
G01X0059567Y-012731D03*
G54D10*
G36*
G01X0059764Y-012809D02*
G01X0059134Y-012809D01*
G01X0059134Y-015605D01*
G01X0058976Y-015605D01*
G01X0058976Y-012809D01*
G01X0058346Y-012809D01*
G01X0058346Y-015605D01*
G01X0058189Y-015605D01*
G01X0058189Y-012809D01*
G01X0057559Y-012809D01*
G01X0057559Y-015605D01*
G01X0057402Y-015605D01*
G01X0057402Y-012809D01*
G01X0056772Y-012809D01*
G01X0056772Y-015605D01*
G01X0056614Y-015605D01*
G01X0056614Y-012809D01*
G01X0055984Y-012809D01*
G01X0055984Y-015605D01*
G01X0055827Y-015605D01*
G01X0055827Y-012809D01*
G01X0055197Y-012809D01*
G01X0055197Y-015605D01*
G01X0055039Y-015605D01*
G01X0055039Y-012809D01*
G01X0054409Y-012809D01*
G01X0054409Y-015605D01*
G01X0054252Y-015605D01*
G01X0054252Y-012809D01*
G01X0053622Y-012809D01*
G01X0053622Y-015605D01*
G01X0053465Y-015605D01*
G01X0053465Y-012809D01*
G01X0052835Y-012809D01*
G01X0052835Y-015605D01*
G01X0052677Y-015605D01*
G01X0052677Y-012809D01*
G01X0052047Y-012809D01*
G01X0052047Y-015605D01*
G01X0051890Y-015605D01*
G01X0051890Y-012809D01*
G01X0051260Y-012809D01*
G01X0051260Y-015605D01*
G01X0051102Y-015605D01*
G01X0051102Y-012809D01*
G01X0050472Y-012809D01*
G01X0050472Y-015605D01*
G01X0050315Y-015605D01*
G01X0050315Y-012809D01*
G01X0049685Y-012809D01*
G01X0049685Y-015605D01*
G01X0049528Y-015605D01*
G01X0049528Y-012652D01*
G01X0059764Y-012652D01*
G01X0059764Y-012809D01*
G01X0059764Y-012809D01*
G37*
G54D18*
G01X0038858Y-012731D03*
G54D10*
G36*
G01X0048898Y-015605D02*
G01X0048740Y-015605D01*
G01X0048740Y-012809D01*
G01X0048110Y-012809D01*
G01X0048110Y-015605D01*
G01X0047953Y-015605D01*
G01X0047953Y-012809D01*
G01X0047323Y-012809D01*
G01X0047323Y-015605D01*
G01X0047165Y-015605D01*
G01X0047165Y-012809D01*
G01X0046535Y-012809D01*
G01X0046535Y-015605D01*
G01X0046378Y-015605D01*
G01X0046378Y-012809D01*
G01X0045748Y-012809D01*
G01X0045748Y-015605D01*
G01X0045591Y-015605D01*
G01X0045591Y-012809D01*
G01X0044961Y-012809D01*
G01X0044961Y-015605D01*
G01X0044803Y-015605D01*
G01X0044803Y-012809D01*
G01X0044173Y-012809D01*
G01X0044173Y-015605D01*
G01X0044016Y-015605D01*
G01X0044016Y-012809D01*
G01X0043386Y-012809D01*
G01X0043386Y-015605D01*
G01X0043228Y-015605D01*
G01X0043228Y-012809D01*
G01X0042598Y-012809D01*
G01X0042598Y-015605D01*
G01X0042441Y-015605D01*
G01X0042441Y-012809D01*
G01X0041811Y-012809D01*
G01X0041811Y-015605D01*
G01X0041654Y-015605D01*
G01X0041654Y-012809D01*
G01X0041024Y-012809D01*
G01X0041024Y-015605D01*
G01X0040866Y-015605D01*
G01X0040866Y-012809D01*
G01X0040236Y-012809D01*
G01X0040236Y-015605D01*
G01X0040079Y-015605D01*
G01X0040079Y-012809D01*
G01X0039449Y-012809D01*
G01X0039449Y-015605D01*
G01X0039291Y-015605D01*
G01X0039291Y-012809D01*
G01X0038661Y-012809D01*
G01X0038661Y-012652D01*
G01X0048898Y-012652D01*
G01X0048898Y-015605D01*
G01X0048898Y-015605D01*
G37*
G54D19*
G01X0062038Y-087097D03*
G01X0060096Y-084998D03*
G01X0060169Y-039283D03*
G01X0062217Y-012512D03*
G01X0053752Y-088703D03*
G01X0060209Y-030425D03*
G01X0061193Y-012551D03*
G01X0060681Y-021094D03*
G01X0060750Y-011488D03*
G01X0062547Y-081921D03*
G01X0060307Y-012748D03*
G01X0037098Y-012157D03*
G01X0037925Y-039283D03*
G01X0038240Y-030386D03*
G01X0038183Y-012021D03*
G01X0041626Y-086134D03*
G01X0035967Y-021567D03*
G01X0038201Y-021567D03*
G01X0037925Y-012787D03*
G01X0041429Y-084333D03*
G01X0044264Y-081764D03*
G01X0041469Y-079393D03*
G01X0038240Y-048142D03*
G01X0037973Y-078937D03*
G01X0043762Y-079953D03*
G01X0038240Y-057000D03*
G01X0037954Y-078292D03*
G01X0038319Y-065898D03*
G01X0038358Y-074717D03*
G01X0038489Y-078157D03*
G01X0060051Y-048142D03*
G01X0061661Y-078191D03*
G01X0055320Y-084552D03*
G01X0055642Y-083329D03*
G01X0060091Y-057000D03*
G01X0061112Y-078144D03*
G01X0060051Y-065898D03*
G01X0060562Y-078104D03*
G01X0059776Y-083860D03*
G01X0059618Y-082630D03*
G01X0060012Y-074717D03*
G01X0060011Y-078084D03*
G54D20*
G01X0062038Y-087097D02*
G01X0060096Y-085156D01*
G01X0060096Y-085156D02*
G01X0060096Y-084998D01*
G01X0060218Y-084998D02*
G01X0060096Y-084998D01*
G01X0059947Y-039283D02*
G01X0059579Y-039283D01*
G01X0060169Y-039283D02*
G01X0059947Y-039283D01*
G01X0060249Y-007354D02*
G01X0062217Y-009322D01*
G01X0062217Y-009322D02*
G01X0062217Y-012512D01*
G01X0054136Y-007354D02*
G01X0060249Y-007354D01*
G01X0053232Y-006451D02*
G01X0054136Y-007354D01*
G01X0053043Y-087787D02*
G01X0053049Y-087781D01*
G01X0053049Y-087781D02*
G01X0053049Y-086808D01*
G01X0053594Y-088339D02*
G01X0053043Y-087787D01*
G01X0053752Y-088703D02*
G01X0053594Y-088545D01*
G01X0053594Y-088545D02*
G01X0053594Y-088339D01*
G01X0059986Y-030425D02*
G01X0059579Y-030425D01*
G01X0060209Y-030425D02*
G01X0059986Y-030425D01*
G01X0060110Y-007689D02*
G01X0061193Y-008772D01*
G01X0061193Y-008772D02*
G01X0061193Y-012551D01*
G01X0052232Y-006451D02*
G01X0053470Y-007689D01*
G01X0053470Y-007689D02*
G01X0060110Y-007689D01*
G01X0060051Y-021055D02*
G01X0060642Y-021055D01*
G01X0060642Y-021055D02*
G01X0060681Y-021094D01*
G01X0060799Y-011370D02*
G01X0060799Y-011439D01*
G01X0060799Y-011439D02*
G01X0060750Y-011488D01*
G01X0055524Y-010465D02*
G01X0059894Y-010465D01*
G01X0059894Y-010465D02*
G01X0060799Y-011370D01*
G01X0052819Y-085375D02*
G01X0052504Y-085690D01*
G01X0062547Y-081921D02*
G01X0059379Y-085090D01*
G01X0059379Y-085090D02*
G01X0053104Y-085090D01*
G01X0053104Y-085090D02*
G01X0052819Y-085375D01*
G01X0059579Y-021544D02*
G01X0059669Y-021634D01*
G01X0060051Y-021055D02*
G01X0059828Y-021055D01*
G01X0059828Y-021055D02*
G01X0059579Y-021305D01*
G01X0059579Y-021305D02*
G01X0059579Y-021544D01*
G01X0054894Y-009835D02*
G01X0055524Y-010465D01*
G01X0054894Y-008614D02*
G01X0054894Y-009835D01*
G01X0054303Y-008024D02*
G01X0054894Y-008614D01*
G01X0051823Y-008024D02*
G01X0054303Y-008024D01*
G01X0051232Y-007433D02*
G01X0051823Y-008024D01*
G01X0051232Y-006451D02*
G01X0051232Y-007433D01*
G01X0059626Y-012740D02*
G01X0060299Y-012740D01*
G01X0060299Y-012740D02*
G01X0060307Y-012748D01*
G01X0051284Y-012366D02*
G01X0055406Y-012366D01*
G01X0055406Y-012366D02*
G01X0059252Y-012366D01*
G01X0059252Y-012366D02*
G01X0059626Y-012740D01*
G01X0050406Y-011488D02*
G01X0051284Y-012366D01*
G01X0050406Y-007042D02*
G01X0050406Y-011488D01*
G01X0050232Y-006451D02*
G01X0050232Y-006869D01*
G01X0050232Y-006869D02*
G01X0050406Y-007042D01*
G54D21*
G01X0049815Y-074047D02*
G01X0049641Y-074047D01*
G01X0049641Y-074047D02*
G01X0049213Y-074476D01*
G01X0049213Y-074476D02*
G01X0049213Y-074476D01*
G01X0050799Y-073063D02*
G01X0049815Y-074047D01*
G01X0050799Y-071488D02*
G01X0050799Y-073063D01*
G01X0049242Y-069931D02*
G01X0050799Y-071488D01*
G01X0049242Y-069323D02*
G01X0049242Y-069419D01*
G01X0049242Y-069031D02*
G01X0049242Y-069323D01*
G01X0049242Y-069323D02*
G01X0049242Y-069931D01*
G01X0047650Y-062433D02*
G01X0047650Y-064205D01*
G01X0047650Y-064205D02*
G01X0048886Y-065441D01*
G01X0049224Y-060858D02*
G01X0047650Y-062433D01*
G01X0049224Y-060185D02*
G01X0049224Y-060858D01*
G01X0048886Y-065441D02*
G01X0049126Y-065441D01*
G01X0049126Y-065441D02*
G01X0049224Y-065539D01*
G01X0049224Y-065539D02*
G01X0049224Y-065655D01*
G01X0050012Y-052984D02*
G01X0050799Y-053772D01*
G01X0049618Y-052984D02*
G01X0050012Y-052984D01*
G01X0049201Y-052567D02*
G01X0049618Y-052984D01*
G01X0049201Y-051354D02*
G01X0049201Y-052567D01*
G01X0050799Y-053772D02*
G01X0050799Y-054953D01*
G01X0050799Y-054953D02*
G01X0049224Y-056528D01*
G01X0049224Y-056528D02*
G01X0049224Y-056669D01*
G01X0049182Y-074445D02*
G01X0049232Y-074445D01*
G01X0049232Y-074457D02*
G01X0049193Y-074457D01*
G01X0049193Y-074457D02*
G01X0049213Y-074476D01*
G01X0049224Y-042374D02*
G01X0049224Y-043535D01*
G01X0049028Y-047739D02*
G01X0049224Y-047936D01*
G01X0049224Y-043535D02*
G01X0047846Y-044913D01*
G01X0047846Y-044913D02*
G01X0047846Y-046882D01*
G01X0047846Y-046882D02*
G01X0048704Y-047739D01*
G01X0048704Y-047739D02*
G01X0049028Y-047739D01*
G01X0049224Y-047936D02*
G01X0049224Y-047945D01*
G01X0050799Y-036843D02*
G01X0049213Y-038429D01*
G01X0049213Y-038429D02*
G01X0049213Y-039073D01*
G01X0050799Y-036252D02*
G01X0050799Y-036843D01*
G01X0049224Y-034677D02*
G01X0050799Y-036252D01*
G01X0049224Y-033575D02*
G01X0049224Y-034677D01*
G01X0047650Y-027000D02*
G01X0047650Y-028660D01*
G01X0047650Y-028660D02*
G01X0049082Y-030092D01*
G01X0049185Y-025465D02*
G01X0047650Y-027000D01*
G01X0049185Y-024854D02*
G01X0049185Y-025465D01*
G01X0049213Y-021313D02*
G01X0049234Y-021291D01*
G01X0049234Y-021291D02*
G01X0049352Y-021173D01*
G01X0050799Y-018142D02*
G01X0050799Y-019726D01*
G01X0050799Y-019726D02*
G01X0049234Y-021291D01*
G01X0049185Y-016528D02*
G01X0050799Y-018142D01*
G01X0049185Y-015858D02*
G01X0049185Y-016528D01*
G01X0047846Y-009480D02*
G01X0049232Y-008094D01*
G01X0049232Y-008094D02*
G01X0049232Y-006451D01*
G01X0047846Y-010858D02*
G01X0047846Y-009480D01*
G01X0049028Y-012040D02*
G01X0047846Y-010858D01*
G01X0049126Y-012435D02*
G01X0049028Y-012337D01*
G01X0049028Y-012337D02*
G01X0049028Y-012040D01*
G01X0049213Y-074563D02*
G01X0049213Y-074598D01*
G01X0049213Y-074476D02*
G01X0049213Y-074563D01*
G01X0049213Y-074476D02*
G01X0049213Y-074476D01*
G54D20*
G01X0049232Y-074567D02*
G01X0049232Y-074457D01*
G54D21*
G01X0049232Y-074457D02*
G01X0049232Y-074445D01*
G54D20*
G01X0049242Y-069031D02*
G01X0049242Y-068868D01*
G54D21*
G01X0049213Y-065665D02*
G01X0049213Y-065740D01*
G01X0049224Y-065655D02*
G01X0049223Y-065655D01*
G01X0049223Y-065655D02*
G01X0049213Y-065665D01*
G54D20*
G01X0049224Y-060185D02*
G01X0049224Y-059953D01*
G54D21*
G01X0049224Y-056763D02*
G01X0049213Y-056775D01*
G01X0049224Y-056669D02*
G01X0049224Y-056763D01*
G54D20*
G01X0049224Y-059953D02*
G01X0049224Y-056669D01*
G54D21*
G01X0049213Y-056775D02*
G01X0049213Y-056902D01*
G01X0049213Y-047924D02*
G01X0049213Y-048047D01*
G01X0049213Y-047924D02*
G01X0049099Y-047810D01*
G01X0049213Y-047933D02*
G01X0049213Y-047924D01*
G01X0049213Y-039126D02*
G01X0049213Y-039181D01*
G01X0049224Y-039103D02*
G01X0049224Y-039114D01*
G01X0049224Y-039114D02*
G01X0049213Y-039126D01*
G01X0049224Y-038858D02*
G01X0049224Y-039062D01*
G54D20*
G01X0049213Y-039073D02*
G01X0049224Y-042374D01*
G54D21*
G01X0049224Y-039103D02*
G01X0049224Y-039062D01*
G01X0049224Y-039062D02*
G01X0049213Y-039073D01*
G01X0049213Y-021484D02*
G01X0049213Y-021313D01*
G54D20*
G01X0049224Y-024559D02*
G01X0049213Y-021484D01*
G01X0049213Y-021484D02*
G01X0049224Y-023831D01*
G01X0049224Y-023831D02*
G01X0049185Y-023870D01*
G01X0049185Y-023870D02*
G01X0049185Y-024854D01*
G01X0049240Y-024741D02*
G01X0049240Y-024697D01*
G01X0049240Y-024697D02*
G01X0049240Y-024574D01*
G01X0049185Y-024751D02*
G01X0049240Y-024697D01*
G01X0049185Y-024854D02*
G01X0049185Y-024751D01*
G01X0049185Y-024854D02*
G01X0049183Y-024852D01*
G01X0049183Y-024797D02*
G01X0049224Y-024756D01*
G01X0049183Y-024852D02*
G01X0049183Y-024797D01*
G01X0049185Y-024795D02*
G01X0049185Y-024854D01*
G01X0049224Y-024756D02*
G01X0049224Y-024559D01*
G01X0049185Y-024795D02*
G01X0049240Y-024741D01*
G01X0049240Y-024574D02*
G01X0049224Y-024559D01*
G54D21*
G01X0049185Y-024795D02*
G01X0049224Y-024756D01*
G54D20*
G01X0049224Y-015740D02*
G01X0049213Y-012650D01*
G54D21*
G01X0049126Y-012413D02*
G01X0049126Y-012435D01*
G01X0049213Y-012521D02*
G01X0049213Y-012650D01*
G01X0049126Y-012435D02*
G01X0049213Y-012521D01*
G01X0049213Y-012521D02*
G01X0049213Y-012521D01*
G54D20*
G01X0049224Y-042374D02*
G01X0049224Y-042531D01*
G01X0049242Y-033593D02*
G01X0049213Y-030331D01*
G54D21*
G01X0049082Y-030092D02*
G01X0049213Y-030223D01*
G01X0049213Y-030223D02*
G01X0049213Y-030331D01*
G01X0049213Y-030223D02*
G01X0049213Y-030223D01*
G54D20*
G01X0049185Y-015858D02*
G01X0049185Y-015780D01*
G01X0049185Y-015780D02*
G01X0049224Y-015740D01*
G01X0049303Y-033654D02*
G01X0049242Y-033593D01*
G01X0049224Y-033575D02*
G01X0049303Y-033654D01*
G01X0049185Y-033535D02*
G01X0049224Y-033575D01*
G01X0049224Y-047945D02*
G01X0049224Y-051016D01*
G01X0049224Y-051213D02*
G01X0049224Y-051016D01*
G01X0049224Y-051016D02*
G01X0049185Y-050976D01*
G01X0049343Y-051331D02*
G01X0049224Y-051213D01*
G01X0049224Y-068850D02*
G01X0049224Y-065655D01*
G01X0049242Y-068868D02*
G01X0049224Y-068850D01*
G01X0049232Y-077709D02*
G01X0049232Y-074567D01*
G54D21*
G01X0049232Y-077984D02*
G01X0049232Y-077709D01*
G54D20*
G01X0049232Y-077984D02*
G01X0049232Y-078142D01*
G54D21*
G01X0049232Y-084154D02*
G01X0049232Y-077984D01*
G54D20*
G01X0049232Y-077709D02*
G01X0049232Y-077205D01*
G01X0049232Y-077205D02*
G01X0049224Y-077197D01*
G54D21*
G01X0049213Y-077690D02*
G01X0049232Y-077709D01*
G01X0049232Y-084154D02*
G01X0049232Y-085690D01*
G54D20*
G01X0042529Y-006451D02*
G01X0042529Y-006727D01*
G01X0042529Y-006727D02*
G01X0037098Y-012157D01*
G01X0038909Y-039283D02*
G01X0038949Y-039244D01*
G01X0037925Y-039283D02*
G01X0038909Y-039283D01*
G01X0045232Y-006451D02*
G01X0042529Y-006451D01*
G01X0038502Y-030425D02*
G01X0038816Y-030425D01*
G01X0038240Y-030386D02*
G01X0038463Y-030386D01*
G01X0038463Y-030386D02*
G01X0038502Y-030425D01*
G01X0040986Y-011697D02*
G01X0038360Y-011697D01*
G01X0038360Y-011697D02*
G01X0038183Y-011874D01*
G01X0038183Y-011874D02*
G01X0038183Y-012021D01*
G01X0046232Y-006451D02*
G01X0040986Y-011697D01*
G01X0041626Y-086134D02*
G01X0041626Y-086370D01*
G01X0041626Y-086370D02*
G01X0042064Y-086808D01*
G01X0038201Y-021567D02*
G01X0035967Y-021567D01*
G01X0042064Y-086808D02*
G01X0043234Y-086808D01*
G01X0038870Y-021567D02*
G01X0038909Y-021606D01*
G01X0038201Y-021567D02*
G01X0038870Y-021567D01*
G01X0038799Y-012032D02*
G01X0038043Y-012787D01*
G01X0038043Y-012787D02*
G01X0037925Y-012787D01*
G01X0047232Y-006451D02*
G01X0041652Y-012032D01*
G01X0041652Y-012032D02*
G01X0038799Y-012032D01*
G01X0041429Y-084333D02*
G01X0042256Y-085159D01*
G01X0042256Y-085159D02*
G01X0042256Y-085257D01*
G01X0043004Y-081921D02*
G01X0042965Y-081961D01*
G01X0042965Y-081961D02*
G01X0042531Y-082394D01*
G01X0044264Y-081764D02*
G01X0043161Y-081764D01*
G01X0043161Y-081764D02*
G01X0042965Y-081961D01*
G01X0042256Y-083535D02*
G01X0042256Y-085257D01*
G01X0042256Y-085257D02*
G01X0042689Y-085690D01*
G01X0042531Y-083260D02*
G01X0042256Y-083535D01*
G01X0042531Y-082394D02*
G01X0042531Y-083260D01*
G01X0039173Y-012366D02*
G01X0038811Y-012728D01*
G01X0048232Y-007520D02*
G01X0043386Y-012366D01*
G01X0043386Y-012366D02*
G01X0039173Y-012366D01*
G01X0048232Y-006451D02*
G01X0048232Y-007520D01*
G01X0045209Y-080189D02*
G01X0044373Y-079393D01*
G01X0044373Y-079393D02*
G01X0041469Y-079393D01*
G01X0045232Y-080213D02*
G01X0045209Y-080189D01*
G01X0045232Y-084154D02*
G01X0045232Y-080213D01*
G01X0038796Y-048146D02*
G01X0038816Y-048127D01*
G01X0038791Y-048142D02*
G01X0038796Y-048146D01*
G01X0038240Y-048142D02*
G01X0038791Y-048142D01*
G01X0045232Y-084154D02*
G01X0044870Y-084516D01*
G01X0044870Y-084516D02*
G01X0044870Y-085690D01*
G01X0044442Y-078950D02*
G01X0038161Y-078950D01*
G01X0038149Y-078937D02*
G01X0038161Y-078950D01*
G01X0038161Y-078950D02*
G01X0037985Y-078950D01*
G01X0037973Y-078937D02*
G01X0038149Y-078937D01*
G01X0043762Y-079953D02*
G01X0040720Y-079953D01*
G01X0045100Y-087123D02*
G01X0045415Y-086808D01*
G01X0040720Y-079953D02*
G01X0039756Y-080917D01*
G01X0039756Y-080917D02*
G01X0039756Y-084186D01*
G01X0044815Y-087408D02*
G01X0045100Y-087123D01*
G01X0039756Y-084186D02*
G01X0041094Y-085524D01*
G01X0041094Y-085524D02*
G01X0041094Y-086312D01*
G01X0042191Y-087408D02*
G01X0044815Y-087408D01*
G01X0041094Y-086312D02*
G01X0042191Y-087408D01*
G01X0046232Y-080702D02*
G01X0045371Y-079841D01*
G01X0045371Y-079841D02*
G01X0045333Y-079841D01*
G01X0045333Y-079841D02*
G01X0044442Y-078950D01*
G01X0038831Y-056961D02*
G01X0038851Y-056942D01*
G01X0038793Y-057000D02*
G01X0038831Y-056961D01*
G01X0038240Y-057000D02*
G01X0038793Y-057000D01*
G01X0046232Y-083736D02*
G01X0046232Y-080702D01*
G01X0046232Y-084154D02*
G01X0046232Y-083736D01*
G01X0047232Y-084154D02*
G01X0047232Y-081291D01*
G01X0047232Y-081291D02*
G01X0047232Y-081229D01*
G01X0047232Y-081291D02*
G01X0047232Y-081229D01*
G01X0047232Y-081229D02*
G01X0044618Y-078615D01*
G01X0044618Y-078615D02*
G01X0038277Y-078615D01*
G01X0038277Y-078615D02*
G01X0037954Y-078292D01*
G01X0038752Y-065898D02*
G01X0038870Y-065780D01*
G01X0038319Y-065898D02*
G01X0038752Y-065898D01*
G01X0047232Y-084154D02*
G01X0045961Y-085425D01*
G01X0045961Y-085425D02*
G01X0045961Y-085690D01*
G01X0038489Y-078157D02*
G01X0038090Y-077758D01*
G01X0038090Y-077758D02*
G01X0036433Y-077758D01*
G01X0036433Y-077758D02*
G01X0036104Y-078087D01*
G01X0036104Y-078087D02*
G01X0036104Y-083981D01*
G01X0045571Y-087743D02*
G01X0046191Y-087123D01*
G01X0036104Y-083981D02*
G01X0039867Y-087743D01*
G01X0039867Y-087743D02*
G01X0045571Y-087743D01*
G01X0046191Y-087123D02*
G01X0046506Y-086808D01*
G01X0038358Y-074717D02*
G01X0038752Y-074717D01*
G01X0038779Y-078238D02*
G01X0038570Y-078238D01*
G01X0038570Y-078238D02*
G01X0038489Y-078157D01*
G01X0044715Y-078238D02*
G01X0038779Y-078238D01*
G01X0048161Y-081685D02*
G01X0044715Y-078238D01*
G01X0048161Y-083665D02*
G01X0048161Y-081685D01*
G01X0048232Y-084154D02*
G01X0048232Y-083736D01*
G01X0048232Y-083736D02*
G01X0048161Y-083665D01*
G01X0062990Y-086800D02*
G01X0062250Y-087540D01*
G01X0062990Y-081392D02*
G01X0062990Y-086800D01*
G01X0060840Y-079242D02*
G01X0062990Y-081392D01*
G01X0060553Y-079242D02*
G01X0060840Y-079242D01*
G01X0062250Y-087540D02*
G01X0054871Y-087540D01*
G01X0054871Y-087540D02*
G01X0054455Y-087123D01*
G01X0054455Y-087123D02*
G01X0054140Y-086808D01*
G01X0059828Y-048142D02*
G01X0059539Y-048142D01*
G01X0060051Y-048142D02*
G01X0059828Y-048142D01*
G01X0061180Y-078614D02*
G01X0061298Y-078614D01*
G01X0061298Y-078614D02*
G01X0061661Y-078251D01*
G01X0061661Y-078251D02*
G01X0061661Y-078191D01*
G01X0053951Y-079242D02*
G01X0060553Y-079242D01*
G01X0060553Y-079242D02*
G01X0061180Y-078614D01*
G01X0053232Y-080116D02*
G01X0053232Y-079961D01*
G01X0053232Y-079961D02*
G01X0053951Y-079242D01*
G01X0053232Y-084154D02*
G01X0053232Y-080116D01*
G01X0055642Y-083329D02*
G01X0055642Y-084230D01*
G01X0055642Y-084230D02*
G01X0055320Y-084552D01*
G01X0059672Y-057039D02*
G01X0059625Y-056993D01*
G01X0060091Y-057000D02*
G01X0059868Y-057000D01*
G01X0059868Y-057000D02*
G01X0059828Y-057039D01*
G01X0059828Y-057039D02*
G01X0059672Y-057039D01*
G01X0052807Y-078907D02*
G01X0060414Y-078907D01*
G01X0060414Y-078907D02*
G01X0061112Y-078210D01*
G01X0061112Y-078210D02*
G01X0061112Y-078144D01*
G01X0052232Y-079482D02*
G01X0052807Y-078907D01*
G01X0052232Y-084154D02*
G01X0052232Y-079482D01*
G01X0059750Y-065819D02*
G01X0059539Y-065819D01*
G01X0060051Y-065898D02*
G01X0059828Y-065898D01*
G01X0059828Y-065898D02*
G01X0059750Y-065819D01*
G01X0051980Y-078573D02*
G01X0060178Y-078573D01*
G01X0060178Y-078573D02*
G01X0060562Y-078188D01*
G01X0060562Y-078188D02*
G01X0060562Y-078104D01*
G01X0051232Y-079321D02*
G01X0051980Y-078573D01*
G01X0051232Y-084154D02*
G01X0051232Y-079321D01*
G01X0059618Y-083654D02*
G01X0059776Y-083811D01*
G01X0059776Y-083811D02*
G01X0059776Y-083860D01*
G01X0059618Y-082630D02*
G01X0059618Y-083654D01*
G01X0059750Y-074677D02*
G01X0059579Y-074677D01*
G01X0060012Y-074717D02*
G01X0059789Y-074717D01*
G01X0059789Y-074717D02*
G01X0059750Y-074677D01*
G01X0059646Y-078238D02*
G01X0059857Y-078238D01*
G01X0059857Y-078238D02*
G01X0060011Y-078084D01*
G01X0050232Y-079278D02*
G01X0051272Y-078238D01*
G01X0051272Y-078238D02*
G01X0059646Y-078238D01*
G01X0050232Y-084154D02*
G01X0050232Y-079278D01*
M02*
