M48
INCH,TZ
T10C0.068
T11C0.073
T12C0.079
T13C0.165
%
T10
X061260Y-71769
X061260Y-36336
X061260Y-18816
X037165Y-80529
X037165Y-10154
X037165Y-63009
X037165Y-27576
X037165Y-45096
X061260Y-54249
X061260Y-80529
T11
X049223Y-45588
X049178Y-10147
X049212Y-19003
X049245Y-63309
X049217Y-36722
X049228Y-72160
X049223Y-54441
X049200Y-27868
T12
X057087Y-82103
X041339Y-82103
X041339Y-05908
X057087Y-05908
T13
X045532Y-54443
X045526Y-36724
X045521Y-19005
X045537Y-72161
X052936Y-63301
X052891Y-27860
X052914Y-45581
X052869Y-10140
M30

