%TF.GenerationSoftware,KiCad,Pcbnew,(2017-11-10 revision d8f4e35)-HEAD*%
%TF.CreationDate,2017-12-06T14:17:32-08:00*%
%TF.ProjectId,ceiling_pcb,6365696C696E675F7063622E6B696361,0.1*%
%TF.SameCoordinates,Original*%
%TF.FileFunction,Profile,NP*%
%FSLAX46Y46*%
G04 Gerber Fmt 4.6, Leading zero omitted, Abs format (unit mm)*
G04 Created by KiCad (PCBNEW (2017-11-10 revision d8f4e35)-HEAD) date Wed Dec  6 14:17:32 2017*
%MOMM*%
%LPD*%
G01*
G04 APERTURE LIST*
%ADD10C,0.001000*%
G04 APERTURE END LIST*
D10*
X155000000Y-11025000D02*
X155000000Y-219000000D01*
X95000000Y-219000000D02*
X95000000Y-11025000D01*
X155000000Y-11025000D02*
X95000000Y-11025000D01*
X95000000Y-219000000D02*
X155000000Y-219000000D01*
X126459000Y-200279810D02*
G75*
G03X126459000Y-200279810I-1500000J0D01*
G01*
X126459000Y-187245800D02*
G75*
G03X126459000Y-187245800I-1500000J0D01*
G01*
X126465000Y-177779700D02*
G75*
G03X126465000Y-177779700I-1500000J0D01*
G01*
X126465000Y-164745700D02*
G75*
G03X126465000Y-164745700I-1500000J0D01*
G01*
X126471000Y-155279600D02*
G75*
G03X126471000Y-155279600I-1500000J0D01*
G01*
X126471000Y-142245600D02*
G75*
G03X126471000Y-142245600I-1500000J0D01*
G01*
X126477000Y-132779600D02*
G75*
G03X126477000Y-132779600I-1500000J0D01*
G01*
X126477000Y-119745500D02*
G75*
G03X126477000Y-119745500I-1500000J0D01*
G01*
X126483000Y-110279500D02*
G75*
G03X126483000Y-110279500I-1500000J0D01*
G01*
X126483000Y-97245200D02*
G75*
G03X126483000Y-97245200I-1500000J0D01*
G01*
X126489000Y-74745200D02*
G75*
G03X126489000Y-74745200I-1500000J0D01*
G01*
X126489000Y-87779200D02*
G75*
G03X126489000Y-87779200I-1500000J0D01*
G01*
X126495000Y-65279200D02*
G75*
G03X126495000Y-65279200I-1500000J0D01*
G01*
X126495000Y-52245200D02*
G75*
G03X126495000Y-52245200I-1500000J0D01*
G01*
X126501000Y-42779200D02*
G75*
G03X126501000Y-42779200I-1500000J0D01*
G01*
X126501000Y-29745200D02*
G75*
G03X126501000Y-29745200I-1500000J0D01*
G01*
M02*
