%TF.GenerationSoftware,KiCad,Pcbnew,(2017-11-10 revision d8f4e35)-HEAD*%
%TF.CreationDate,2017-12-06T16:30:03-08:00*%
%TF.ProjectId,shield_pcb,736869656C645F7063622E6B69636164,0.1*%
%TF.SameCoordinates,Original*%
%TF.FileFunction,Soldermask,Bot*%
%TF.FilePolarity,Negative*%
%FSLAX46Y46*%
G04 Gerber Fmt 4.6, Leading zero omitted, Abs format (unit mm)*
G04 Created by KiCad (PCBNEW (2017-11-10 revision d8f4e35)-HEAD) date Wed Dec  6 16:30:03 2017*
%MOMM*%
%LPD*%
G01*
G04 APERTURE LIST*
%ADD10C,0.150000*%
%ADD11O,1.727200X2.032000*%
%ADD12R,1.600000X1.600000*%
%ADD13O,1.600000X1.600000*%
%ADD14C,1.600000*%
%ADD15C,3.500120*%
%ADD16C,4.064000*%
%ADD17O,4.000000X2.500000*%
%ADD18C,4.000000*%
%ADD19O,2.200000X2.200000*%
%ADD20R,2.200000X2.200000*%
%ADD21R,1.800000X1.800000*%
%ADD22O,1.800000X1.800000*%
%ADD23C,1.500000*%
G04 APERTURE END LIST*
D10*
X54414214Y-123000000D02*
G75*
G03X54414214Y-123000000I-1414214J0D01*
G01*
X121414214Y-76000000D02*
G75*
G03X121414214Y-76000000I-1414214J0D01*
G01*
X146414214Y-185000000D02*
G75*
G03X146414214Y-185000000I-1414214J0D01*
G01*
X150000000Y-71800000D02*
X150000000Y-190200000D01*
X112600000Y-71800000D02*
X150000000Y-71800000D01*
X44000000Y-190200000D02*
X44000000Y-16800000D01*
X112600000Y-71800000D02*
X112600000Y-16800000D01*
X112600000Y-16800000D02*
X44000000Y-16800000D01*
X44000000Y-190200000D02*
X150000000Y-190200000D01*
D11*
%TO.C,P4*%
X89518000Y-19365000D03*
X92058000Y-19365000D03*
X94598000Y-19365000D03*
X97138000Y-19365000D03*
X99678000Y-19365000D03*
X102218000Y-19365000D03*
X104758000Y-19365000D03*
X107298000Y-19365000D03*
%TD*%
D12*
%TO.C,U11*%
X61800000Y-23200000D03*
D13*
X69420000Y-40980000D03*
X61800000Y-25740000D03*
X69420000Y-38440000D03*
X61800000Y-28280000D03*
X69420000Y-35900000D03*
X61800000Y-30820000D03*
X69420000Y-33360000D03*
X61800000Y-33360000D03*
X69420000Y-30820000D03*
X61800000Y-35900000D03*
X69420000Y-28280000D03*
X61800000Y-38440000D03*
X69420000Y-25740000D03*
X61800000Y-40980000D03*
X69420000Y-23200000D03*
%TD*%
D12*
%TO.C,C13*%
X108600000Y-109675000D03*
D14*
X108600000Y-114675000D03*
%TD*%
D12*
%TO.C,U6*%
X120371000Y-123984000D03*
D13*
X112751000Y-106204000D03*
X120371000Y-121444000D03*
X112751000Y-108744000D03*
X120371000Y-118904000D03*
X112751000Y-111284000D03*
X120371000Y-116364000D03*
X112751000Y-113824000D03*
X120371000Y-113824000D03*
X112751000Y-116364000D03*
X120371000Y-111284000D03*
X112751000Y-118904000D03*
X120371000Y-108744000D03*
X112751000Y-121444000D03*
X120371000Y-106204000D03*
X112751000Y-123984000D03*
%TD*%
D15*
%TO.C,J8*%
X88550000Y-85325000D03*
%TD*%
D14*
%TO.C,C14*%
X81525000Y-115925000D03*
D12*
X81525000Y-110925000D03*
%TD*%
%TO.C,U13*%
X94598000Y-29965000D03*
D13*
X86978000Y-37585000D03*
X92058000Y-29965000D03*
X89518000Y-37585000D03*
X89518000Y-29965000D03*
X92058000Y-37585000D03*
X86978000Y-29965000D03*
X94598000Y-37585000D03*
%TD*%
D14*
%TO.C,C24*%
X91900000Y-40800000D03*
X94400000Y-40800000D03*
%TD*%
D11*
%TO.C,P1*%
X71738000Y-67625000D03*
X74278000Y-67625000D03*
X76818000Y-67625000D03*
X79358000Y-67625000D03*
X81898000Y-67625000D03*
X84438000Y-67625000D03*
X86978000Y-67625000D03*
X89518000Y-67625000D03*
%TD*%
%TO.C,P2*%
X94598000Y-67625000D03*
X97138000Y-67625000D03*
X99678000Y-67625000D03*
X102218000Y-67625000D03*
X104758000Y-67625000D03*
X107298000Y-67625000D03*
%TD*%
%TO.C,P3*%
X62594000Y-19365000D03*
X65134000Y-19365000D03*
X67674000Y-19365000D03*
X70214000Y-19365000D03*
X72754000Y-19365000D03*
X75294000Y-19365000D03*
X77834000Y-19365000D03*
X80374000Y-19365000D03*
X82914000Y-19365000D03*
X85454000Y-19365000D03*
%TD*%
D16*
%TO.C,P5*%
X57768000Y-67625000D03*
%TD*%
%TO.C,P6*%
X109838000Y-62545000D03*
%TD*%
%TO.C,P7*%
X59038000Y-19365000D03*
%TD*%
%TO.C,P8*%
X109838000Y-34605000D03*
%TD*%
D17*
%TO.C,F1*%
X74150000Y-184000000D03*
X52150000Y-184000000D03*
%TD*%
D14*
%TO.C,C1*%
X79800000Y-56600000D03*
X79800000Y-51600000D03*
%TD*%
%TO.C,C2*%
X75800000Y-61700000D03*
X75800000Y-64200000D03*
%TD*%
%TO.C,C3*%
X75600000Y-53800000D03*
X75600000Y-51300000D03*
%TD*%
%TO.C,C4*%
X89708000Y-55815000D03*
X89708000Y-60815000D03*
%TD*%
D13*
%TO.C,PS1*%
X64780000Y-64000000D03*
X72400000Y-48760000D03*
X64780000Y-61460000D03*
X72400000Y-51300000D03*
X64780000Y-58920000D03*
X72400000Y-53840000D03*
X64780000Y-56380000D03*
X72400000Y-56380000D03*
X64780000Y-53840000D03*
X72400000Y-58920000D03*
X64780000Y-51300000D03*
X72400000Y-61460000D03*
X64780000Y-48760000D03*
D12*
X72400000Y-64000000D03*
%TD*%
D14*
%TO.C,C23*%
X105400000Y-40800000D03*
X102900000Y-40800000D03*
%TD*%
%TO.C,C25*%
X81500000Y-40800000D03*
X84000000Y-40800000D03*
%TD*%
D13*
%TO.C,U9*%
X66443000Y-72210600D03*
X58823000Y-89990600D03*
X66443000Y-74750600D03*
X58823000Y-87450600D03*
X66443000Y-77290600D03*
X58823000Y-84910600D03*
X66443000Y-79830600D03*
X58823000Y-82370600D03*
X66443000Y-82370600D03*
X58823000Y-79830600D03*
X66443000Y-84910600D03*
X58823000Y-77290600D03*
X66443000Y-87450600D03*
X58823000Y-74750600D03*
X66443000Y-89990600D03*
D12*
X58823000Y-72210600D03*
%TD*%
%TO.C,U10*%
X58778200Y-93564800D03*
D13*
X66398200Y-111344800D03*
X58778200Y-96104800D03*
X66398200Y-108804800D03*
X58778200Y-98644800D03*
X66398200Y-106264800D03*
X58778200Y-101184800D03*
X66398200Y-103724800D03*
X58778200Y-103724800D03*
X66398200Y-101184800D03*
X58778200Y-106264800D03*
X66398200Y-98644800D03*
X58778200Y-108804800D03*
X66398200Y-96104800D03*
X58778200Y-111344800D03*
X66398200Y-93564800D03*
%TD*%
D12*
%TO.C,U12*%
X105420000Y-29890000D03*
D13*
X97800000Y-37510000D03*
X102880000Y-29890000D03*
X100340000Y-37510000D03*
X100340000Y-29890000D03*
X102880000Y-37510000D03*
X97800000Y-29890000D03*
X105420000Y-37510000D03*
%TD*%
D12*
%TO.C,U14*%
X83998000Y-29965000D03*
D13*
X76378000Y-37585000D03*
X81458000Y-29965000D03*
X78918000Y-37585000D03*
X78918000Y-29965000D03*
X81458000Y-37585000D03*
X76378000Y-29965000D03*
X83998000Y-37585000D03*
%TD*%
D18*
%TO.C,J1*%
X53230000Y-175155000D03*
X53230000Y-128055000D03*
D14*
X51810000Y-136370000D03*
X51810000Y-139140000D03*
X51810000Y-141910000D03*
X51810000Y-144680000D03*
X51810000Y-147450000D03*
X51810000Y-150220000D03*
X51810000Y-152990000D03*
X51810000Y-155760000D03*
X51810000Y-158530000D03*
X51810000Y-161300000D03*
X51810000Y-164070000D03*
X51810000Y-166840000D03*
X54650000Y-134985000D03*
X54650000Y-137755000D03*
X54650000Y-140525000D03*
X54650000Y-143295000D03*
X54650000Y-146065000D03*
X54650000Y-148835000D03*
X54650000Y-151605000D03*
X54650000Y-154375000D03*
X54650000Y-157145000D03*
X54650000Y-159915000D03*
X54650000Y-162685000D03*
X54650000Y-165455000D03*
D12*
X54650000Y-168225000D03*
%TD*%
D14*
%TO.C,C5*%
X106500000Y-73275000D03*
X106500000Y-75775000D03*
%TD*%
%TO.C,C6*%
X107500000Y-82775000D03*
D12*
X107500000Y-77775000D03*
%TD*%
D14*
%TO.C,C7*%
X109571000Y-123984000D03*
X109571000Y-126484000D03*
%TD*%
%TO.C,C8*%
X82650000Y-125475000D03*
X82650000Y-127975000D03*
%TD*%
%TO.C,C9*%
X107600000Y-104975000D03*
X107600000Y-107475000D03*
%TD*%
%TO.C,C10*%
X80725000Y-105225000D03*
X80725000Y-107725000D03*
%TD*%
D12*
%TO.C,C11*%
X108575000Y-121800000D03*
D14*
X108575000Y-116800000D03*
%TD*%
%TO.C,C12*%
X81694200Y-118182000D03*
D12*
X81694200Y-123182000D03*
%TD*%
D14*
%TO.C,C15*%
X78200000Y-87525000D03*
X80700000Y-87525000D03*
%TD*%
D12*
%TO.C,C16*%
X79750000Y-83225000D03*
D14*
X74750000Y-83225000D03*
%TD*%
%TO.C,C17*%
X76650000Y-76225000D03*
X76650000Y-73725000D03*
%TD*%
%TO.C,C18*%
X77150000Y-71000000D03*
X74650000Y-71000000D03*
%TD*%
%TO.C,C19*%
X90700000Y-73800000D03*
X90700000Y-71300000D03*
%TD*%
%TO.C,C20*%
X69423000Y-72210600D03*
X69423000Y-74710600D03*
%TD*%
%TO.C,C21*%
X69578200Y-95864800D03*
X69578200Y-93364800D03*
%TD*%
%TO.C,C22*%
X72600000Y-25200000D03*
X72600000Y-22700000D03*
%TD*%
D19*
%TO.C,D1*%
X73942400Y-149359000D03*
D20*
X73942400Y-141739000D03*
%TD*%
%TO.C,D3*%
X100940000Y-142194000D03*
D19*
X100940000Y-149814000D03*
%TD*%
%TO.C,D5*%
X97446900Y-157758000D03*
D20*
X97446900Y-165378000D03*
%TD*%
D19*
%TO.C,D7*%
X70546900Y-157258000D03*
D20*
X70546900Y-164878000D03*
%TD*%
D19*
%TO.C,D9*%
X119735000Y-146574000D03*
D20*
X127355000Y-146574000D03*
%TD*%
%TO.C,D11*%
X133833000Y-118058000D03*
D19*
X126213000Y-118058000D03*
%TD*%
%TO.C,D13*%
X87427500Y-149600000D03*
D20*
X87427500Y-141980000D03*
%TD*%
D19*
%TO.C,D15*%
X110880000Y-157769000D03*
D20*
X110880000Y-165389000D03*
%TD*%
%TO.C,D17*%
X83995700Y-165125000D03*
D19*
X83995700Y-157505000D03*
%TD*%
D20*
%TO.C,D19*%
X127424000Y-132908000D03*
D19*
X119804000Y-132908000D03*
%TD*%
D20*
%TO.C,D21*%
X127264000Y-160109000D03*
D19*
X119644000Y-160109000D03*
%TD*%
%TO.C,D23*%
X126346000Y-77721600D03*
D20*
X133966000Y-77721600D03*
%TD*%
%TO.C,D25*%
X134225000Y-104705000D03*
D19*
X126605000Y-104705000D03*
%TD*%
D20*
%TO.C,D27*%
X60632300Y-141571000D03*
D19*
X60632300Y-149191000D03*
%TD*%
D20*
%TO.C,D29*%
X134207000Y-91302700D03*
D19*
X126587000Y-91302700D03*
%TD*%
D20*
%TO.C,D31*%
X127224000Y-173741000D03*
D19*
X119604000Y-173741000D03*
%TD*%
D21*
%TO.C,Q1*%
X77944900Y-136564000D03*
D22*
X77944900Y-139104000D03*
X77944900Y-141644000D03*
%TD*%
%TO.C,Q2*%
X104920000Y-141934000D03*
X104920000Y-139394000D03*
D21*
X104920000Y-136854000D03*
%TD*%
%TO.C,Q3*%
X93504400Y-170533000D03*
D22*
X93504400Y-167993000D03*
X93504400Y-165453000D03*
%TD*%
%TO.C,Q4*%
X66514400Y-164963000D03*
X66514400Y-167503000D03*
D21*
X66514400Y-170043000D03*
%TD*%
D22*
%TO.C,Q5*%
X127480000Y-150586000D03*
X130020000Y-150586000D03*
D21*
X132560000Y-150586000D03*
%TD*%
D22*
%TO.C,Q6*%
X133998000Y-122060000D03*
X136538000Y-122060000D03*
D21*
X139078000Y-122060000D03*
%TD*%
%TO.C,Q7*%
X91400000Y-136765000D03*
D22*
X91400000Y-139305000D03*
X91400000Y-141845000D03*
%TD*%
%TO.C,Q8*%
X106858000Y-165654000D03*
X106858000Y-168194000D03*
D21*
X106858000Y-170734000D03*
%TD*%
%TO.C,Q9*%
X79993200Y-170360000D03*
D22*
X79993200Y-167820000D03*
X79993200Y-165280000D03*
%TD*%
D21*
%TO.C,Q10*%
X132814000Y-136888000D03*
D22*
X130274000Y-136888000D03*
X127734000Y-136888000D03*
%TD*%
D21*
%TO.C,Q11*%
X132654000Y-164239000D03*
D22*
X130114000Y-164239000D03*
X127574000Y-164239000D03*
%TD*%
%TO.C,Q12*%
X134026000Y-81651600D03*
X136566000Y-81651600D03*
D21*
X139106000Y-81651600D03*
%TD*%
D22*
%TO.C,Q13*%
X134110000Y-108557000D03*
X136650000Y-108557000D03*
D21*
X139190000Y-108557000D03*
%TD*%
%TO.C,Q14*%
X64332300Y-136371000D03*
D22*
X64332300Y-138911000D03*
X64332300Y-141451000D03*
%TD*%
%TO.C,Q15*%
X134182000Y-95235200D03*
X136722000Y-95235200D03*
D21*
X139262000Y-95235200D03*
%TD*%
D22*
%TO.C,Q16*%
X127334000Y-177821000D03*
X129874000Y-177821000D03*
D21*
X132414000Y-177821000D03*
%TD*%
D14*
%TO.C,R1*%
X92500000Y-88125000D03*
D13*
X92500000Y-95745000D03*
%TD*%
%TO.C,R2*%
X106500000Y-92595000D03*
D14*
X106500000Y-84975000D03*
%TD*%
%TO.C,R4*%
X92500000Y-77675000D03*
D13*
X92500000Y-85295000D03*
%TD*%
D14*
%TO.C,R5*%
X113050000Y-102150000D03*
D13*
X120670000Y-102150000D03*
%TD*%
%TO.C,R6*%
X102555000Y-102175000D03*
D14*
X110175000Y-102175000D03*
%TD*%
%TO.C,R7*%
X74800000Y-98325000D03*
D13*
X74800000Y-90705000D03*
%TD*%
D14*
%TO.C,R8*%
X69575000Y-78975000D03*
D13*
X77195000Y-78975000D03*
%TD*%
D14*
%TO.C,R9*%
X73892400Y-137289000D03*
D13*
X73892400Y-129669000D03*
%TD*%
%TO.C,R10*%
X84512400Y-132089000D03*
D14*
X76892400Y-132089000D03*
%TD*%
%TO.C,R11*%
X76892400Y-149389000D03*
D13*
X84512400Y-149389000D03*
%TD*%
%TO.C,R12*%
X76922400Y-146089000D03*
D14*
X84542400Y-146089000D03*
%TD*%
D13*
%TO.C,R13*%
X100908000Y-129899000D03*
D14*
X100908000Y-137519000D03*
%TD*%
D13*
%TO.C,R14*%
X111478000Y-132419000D03*
D14*
X103858000Y-132419000D03*
%TD*%
D13*
%TO.C,R15*%
X111428000Y-149769000D03*
D14*
X103808000Y-149769000D03*
%TD*%
%TO.C,R16*%
X111408000Y-146419000D03*
D13*
X103788000Y-146419000D03*
%TD*%
D14*
%TO.C,R17*%
X97396900Y-169978000D03*
D13*
X97396900Y-177598000D03*
%TD*%
%TO.C,R18*%
X86926900Y-174928000D03*
D14*
X94546900Y-174928000D03*
%TD*%
%TO.C,R19*%
X94546900Y-157778000D03*
D13*
X86926900Y-157778000D03*
%TD*%
%TO.C,R20*%
X94466900Y-161078000D03*
D14*
X86846900Y-161078000D03*
%TD*%
D13*
%TO.C,R21*%
X70446900Y-177048000D03*
D14*
X70446900Y-169428000D03*
%TD*%
%TO.C,R22*%
X67596900Y-174428000D03*
D13*
X59976900Y-174428000D03*
%TD*%
D14*
%TO.C,R23*%
X67646900Y-157328000D03*
D13*
X60026900Y-157328000D03*
%TD*%
%TO.C,R24*%
X67566900Y-160578000D03*
D14*
X59946900Y-160578000D03*
%TD*%
%TO.C,R25*%
X131905000Y-146574000D03*
D13*
X139525000Y-146574000D03*
%TD*%
%TO.C,R26*%
X137005000Y-157144000D03*
D14*
X137005000Y-149524000D03*
%TD*%
%TO.C,R27*%
X119755000Y-149474000D03*
D13*
X119755000Y-157094000D03*
%TD*%
D14*
%TO.C,R28*%
X123055000Y-157124000D03*
D13*
X123055000Y-149504000D03*
%TD*%
%TO.C,R29*%
X146053000Y-118058000D03*
D14*
X138433000Y-118058000D03*
%TD*%
%TO.C,R30*%
X143433000Y-120958000D03*
D13*
X143433000Y-128578000D03*
%TD*%
D14*
%TO.C,R31*%
X126233000Y-120908000D03*
D13*
X126233000Y-128528000D03*
%TD*%
%TO.C,R32*%
X129533000Y-120938000D03*
D14*
X129533000Y-128558000D03*
%TD*%
D13*
%TO.C,R33*%
X87477500Y-129710000D03*
D14*
X87477500Y-137330000D03*
%TD*%
%TO.C,R34*%
X90327500Y-132330000D03*
D13*
X97947500Y-132330000D03*
%TD*%
D14*
%TO.C,R35*%
X90327500Y-149630000D03*
D13*
X97947500Y-149630000D03*
%TD*%
%TO.C,R36*%
X90357500Y-146280000D03*
D14*
X97977500Y-146280000D03*
%TD*%
D13*
%TO.C,R37*%
X110880000Y-177459000D03*
D14*
X110880000Y-169839000D03*
%TD*%
%TO.C,R38*%
X107930000Y-175139000D03*
D13*
X100310000Y-175139000D03*
%TD*%
D14*
%TO.C,R39*%
X108030000Y-157839000D03*
D13*
X100410000Y-157839000D03*
%TD*%
D14*
%TO.C,R40*%
X100380000Y-161139000D03*
D13*
X108000000Y-161139000D03*
%TD*%
%TO.C,R41*%
X83995700Y-177195000D03*
D14*
X83995700Y-169575000D03*
%TD*%
%TO.C,R42*%
X81095700Y-174825000D03*
D13*
X73475700Y-174825000D03*
%TD*%
%TO.C,R43*%
X73525700Y-157525000D03*
D14*
X81145700Y-157525000D03*
%TD*%
%TO.C,R44*%
X73495700Y-160825000D03*
D13*
X81115700Y-160825000D03*
%TD*%
%TO.C,R45*%
X139509000Y-132865000D03*
D14*
X131889000Y-132865000D03*
%TD*%
%TO.C,R46*%
X137289000Y-135765000D03*
D13*
X137289000Y-143385000D03*
%TD*%
%TO.C,R47*%
X119989000Y-143335000D03*
D14*
X119989000Y-135715000D03*
%TD*%
D13*
%TO.C,R48*%
X123289000Y-135795000D03*
D14*
X123289000Y-143415000D03*
%TD*%
%TO.C,R49*%
X131739000Y-160036000D03*
D13*
X139359000Y-160036000D03*
%TD*%
D14*
%TO.C,R50*%
X137039000Y-163136000D03*
D13*
X137039000Y-170756000D03*
%TD*%
D14*
%TO.C,R51*%
X119839000Y-163136000D03*
D13*
X119839000Y-170756000D03*
%TD*%
%TO.C,R52*%
X123139000Y-163166000D03*
D14*
X123139000Y-170786000D03*
%TD*%
D13*
%TO.C,R53*%
X146091000Y-77679100D03*
D14*
X138471000Y-77679100D03*
%TD*%
%TO.C,R54*%
X143521000Y-80579100D03*
D13*
X143521000Y-88199100D03*
%TD*%
D14*
%TO.C,R55*%
X126371000Y-80529100D03*
D13*
X126371000Y-88149100D03*
%TD*%
%TO.C,R56*%
X129621000Y-80559100D03*
D14*
X129621000Y-88179100D03*
%TD*%
%TO.C,R57*%
X138925000Y-104705000D03*
D13*
X146545000Y-104705000D03*
%TD*%
%TO.C,R58*%
X143625000Y-115025000D03*
D14*
X143625000Y-107405000D03*
%TD*%
D13*
%TO.C,R59*%
X126425000Y-115125000D03*
D14*
X126425000Y-107505000D03*
%TD*%
%TO.C,R60*%
X129725000Y-115105000D03*
D13*
X129725000Y-107485000D03*
%TD*%
D14*
%TO.C,R61*%
X60432300Y-137171000D03*
D13*
X60432300Y-129551000D03*
%TD*%
%TO.C,R62*%
X70852300Y-131971000D03*
D14*
X63232300Y-131971000D03*
%TD*%
%TO.C,R63*%
X63332300Y-149171000D03*
D13*
X70952300Y-149171000D03*
%TD*%
%TO.C,R64*%
X63312300Y-145871000D03*
D14*
X70932300Y-145871000D03*
%TD*%
D13*
%TO.C,R65*%
X146377000Y-91202700D03*
D14*
X138757000Y-91202700D03*
%TD*%
%TO.C,R66*%
X143657000Y-94152700D03*
D13*
X143657000Y-101772700D03*
%TD*%
D14*
%TO.C,R67*%
X126607000Y-94152700D03*
D13*
X126607000Y-101772700D03*
%TD*%
%TO.C,R68*%
X129807000Y-94183000D03*
D14*
X129807000Y-101803000D03*
%TD*%
%TO.C,R69*%
X131729000Y-173669000D03*
D13*
X139349000Y-173669000D03*
%TD*%
%TO.C,R70*%
X136829000Y-184339000D03*
D14*
X136829000Y-176719000D03*
%TD*%
D13*
%TO.C,R71*%
X119629000Y-184289000D03*
D14*
X119629000Y-176669000D03*
%TD*%
%TO.C,R72*%
X122929000Y-184369000D03*
D13*
X122929000Y-176749000D03*
%TD*%
%TO.C,R79*%
X97980000Y-23200000D03*
D14*
X105600000Y-23200000D03*
%TD*%
%TO.C,R80*%
X98000000Y-26400000D03*
D13*
X105620000Y-26400000D03*
%TD*%
D14*
%TO.C,R81*%
X103400000Y-51400000D03*
D13*
X103400000Y-43780000D03*
%TD*%
%TO.C,R82*%
X100000000Y-40180000D03*
D14*
X100000000Y-47800000D03*
%TD*%
D13*
%TO.C,R83*%
X86980000Y-23200000D03*
D14*
X94600000Y-23200000D03*
%TD*%
%TO.C,R84*%
X87000000Y-26600000D03*
D13*
X94620000Y-26600000D03*
%TD*%
D14*
%TO.C,R85*%
X92000000Y-51400000D03*
D13*
X92000000Y-43780000D03*
%TD*%
%TO.C,R86*%
X88600000Y-40380000D03*
D14*
X88600000Y-48000000D03*
%TD*%
D13*
%TO.C,R87*%
X83820000Y-23200000D03*
D14*
X76200000Y-23200000D03*
%TD*%
%TO.C,R88*%
X76200000Y-26600000D03*
D13*
X83820000Y-26600000D03*
%TD*%
D14*
%TO.C,R89*%
X84200000Y-51200000D03*
D13*
X84200000Y-43580000D03*
%TD*%
%TO.C,R90*%
X73000000Y-38220000D03*
D14*
X73000000Y-30600000D03*
%TD*%
D13*
%TO.C,U2*%
X103320000Y-75775000D03*
X95700000Y-93555000D03*
X103320000Y-78315000D03*
X95700000Y-91015000D03*
X103320000Y-80855000D03*
X95700000Y-88475000D03*
X103320000Y-83395000D03*
X95700000Y-85935000D03*
X103320000Y-85935000D03*
X95700000Y-83395000D03*
X103320000Y-88475000D03*
X95700000Y-80855000D03*
X103320000Y-91015000D03*
X95700000Y-78315000D03*
X103320000Y-93555000D03*
D12*
X95700000Y-75775000D03*
%TD*%
D13*
%TO.C,U3*%
X77345000Y-107725000D03*
X69725000Y-125505000D03*
X77345000Y-110265000D03*
X69725000Y-122965000D03*
X77345000Y-112805000D03*
X69725000Y-120425000D03*
X77345000Y-115345000D03*
X69725000Y-117885000D03*
X77345000Y-117885000D03*
X69725000Y-115345000D03*
X77345000Y-120425000D03*
X69725000Y-112805000D03*
X77345000Y-122965000D03*
X69725000Y-110265000D03*
X77345000Y-125505000D03*
D12*
X69725000Y-107725000D03*
%TD*%
D13*
%TO.C,U4*%
X85905000Y-125425000D03*
X93525000Y-107645000D03*
X85905000Y-122885000D03*
X93525000Y-110185000D03*
X85905000Y-120345000D03*
X93525000Y-112725000D03*
X85905000Y-117805000D03*
X93525000Y-115265000D03*
X85905000Y-115265000D03*
X93525000Y-117805000D03*
X85905000Y-112725000D03*
X93525000Y-120345000D03*
X85905000Y-110185000D03*
X93525000Y-122885000D03*
X85905000Y-107645000D03*
D12*
X93525000Y-125425000D03*
%TD*%
%TO.C,U5*%
X96800000Y-107562000D03*
D13*
X104420000Y-125342000D03*
X96800000Y-110102000D03*
X104420000Y-122802000D03*
X96800000Y-112642000D03*
X104420000Y-120262000D03*
X96800000Y-115182000D03*
X104420000Y-117722000D03*
X96800000Y-117722000D03*
X104420000Y-115182000D03*
X96800000Y-120262000D03*
X104420000Y-112642000D03*
X96800000Y-122802000D03*
X104420000Y-110102000D03*
X96800000Y-125342000D03*
X104420000Y-107562000D03*
%TD*%
D12*
%TO.C,U7*%
X78200000Y-98325000D03*
D13*
X85820000Y-90705000D03*
X80740000Y-98325000D03*
X83280000Y-90705000D03*
X83280000Y-98325000D03*
X80740000Y-90705000D03*
X85820000Y-98325000D03*
X78200000Y-90705000D03*
%TD*%
%TO.C,U8*%
X87470000Y-71350000D03*
X79850000Y-78970000D03*
X87470000Y-73890000D03*
X79850000Y-76430000D03*
X87470000Y-76430000D03*
X79850000Y-73890000D03*
X87470000Y-78970000D03*
D12*
X79850000Y-71350000D03*
%TD*%
D15*
%TO.C,J4*%
X80100000Y-102075000D03*
%TD*%
%TO.C,J7*%
X84250000Y-102125000D03*
%TD*%
%TO.C,J10*%
X83750000Y-84175000D03*
%TD*%
%TO.C,J11*%
X94550000Y-71150000D03*
%TD*%
D23*
%TO.C,J9*%
X89050000Y-94265000D03*
X89050000Y-91725000D03*
X89050000Y-89185000D03*
%TD*%
%TO.C,J2*%
X47125000Y-181505000D03*
X47125000Y-184045000D03*
%TD*%
M02*
