G04 #@! TF.GenerationSoftware,KiCad,Pcbnew,(2017-11-10 revision d8f4e35)-HEAD*
G04 #@! TF.CreationDate,2017-12-12T16:38:04-08:00*
G04 #@! TF.ProjectId,shield_pcb,736869656C645F7063622E6B69636164,0.1*
G04 #@! TF.SameCoordinates,Original*
G04 #@! TF.FileFunction,Soldermask,Bot*
G04 #@! TF.FilePolarity,Negative*
%FSLAX46Y46*%
G04 Gerber Fmt 4.6, Leading zero omitted, Abs format (unit mm)*
G04 Created by KiCad (PCBNEW (2017-11-10 revision d8f4e35)-HEAD) date Tue Dec 12 16:38:04 2017*
%MOMM*%
%LPD*%
G01*
G04 APERTURE LIST*
%ADD10C,0.150000*%
%ADD11C,2.200000*%
%ADD12O,1.727200X2.032000*%
%ADD13R,1.600000X1.600000*%
%ADD14O,1.600000X1.600000*%
%ADD15C,1.600000*%
%ADD16C,3.500120*%
%ADD17C,4.064000*%
%ADD18O,4.000000X2.500000*%
%ADD19C,4.000000*%
%ADD20O,2.200000X2.200000*%
%ADD21R,2.200000X2.200000*%
%ADD22R,1.800000X1.800000*%
%ADD23O,1.800000X1.800000*%
%ADD24C,1.500000*%
G04 APERTURE END LIST*
D10*
X150000000Y-71800000D02*
X150000000Y-190200000D01*
X112600000Y-71800000D02*
X150000000Y-71800000D01*
X44000000Y-190200000D02*
X44000000Y-16800000D01*
X112600000Y-71800000D02*
X112600000Y-16800000D01*
X112600000Y-16800000D02*
X44000000Y-16800000D01*
X44000000Y-190200000D02*
X150000000Y-190200000D01*
D11*
X120000000Y-76000000D03*
X145000000Y-185000000D03*
X53000000Y-121000000D03*
D12*
X89518000Y-19365000D03*
X92058000Y-19365000D03*
X94598000Y-19365000D03*
X97138000Y-19365000D03*
X99678000Y-19365000D03*
X102218000Y-19365000D03*
X104758000Y-19365000D03*
X107298000Y-19365000D03*
D13*
X61800000Y-23200000D03*
D14*
X69420000Y-40980000D03*
X61800000Y-25740000D03*
X69420000Y-38440000D03*
X61800000Y-28280000D03*
X69420000Y-35900000D03*
X61800000Y-30820000D03*
X69420000Y-33360000D03*
X61800000Y-33360000D03*
X69420000Y-30820000D03*
X61800000Y-35900000D03*
X69420000Y-28280000D03*
X61800000Y-38440000D03*
X69420000Y-25740000D03*
X61800000Y-40980000D03*
X69420000Y-23200000D03*
D13*
X108600000Y-109675000D03*
D15*
X108600000Y-114675000D03*
D13*
X120371000Y-123984000D03*
D14*
X112751000Y-106204000D03*
X120371000Y-121444000D03*
X112751000Y-108744000D03*
X120371000Y-118904000D03*
X112751000Y-111284000D03*
X120371000Y-116364000D03*
X112751000Y-113824000D03*
X120371000Y-113824000D03*
X112751000Y-116364000D03*
X120371000Y-111284000D03*
X112751000Y-118904000D03*
X120371000Y-108744000D03*
X112751000Y-121444000D03*
X120371000Y-106204000D03*
X112751000Y-123984000D03*
D16*
X88550000Y-85325000D03*
D15*
X81525000Y-115925000D03*
D13*
X81525000Y-110925000D03*
X94598000Y-29965000D03*
D14*
X86978000Y-37585000D03*
X92058000Y-29965000D03*
X89518000Y-37585000D03*
X89518000Y-29965000D03*
X92058000Y-37585000D03*
X86978000Y-29965000D03*
X94598000Y-37585000D03*
D15*
X91900000Y-40800000D03*
X94400000Y-40800000D03*
D12*
X71738000Y-67625000D03*
X74278000Y-67625000D03*
X76818000Y-67625000D03*
X79358000Y-67625000D03*
X81898000Y-67625000D03*
X84438000Y-67625000D03*
X86978000Y-67625000D03*
X89518000Y-67625000D03*
X94598000Y-67625000D03*
X97138000Y-67625000D03*
X99678000Y-67625000D03*
X102218000Y-67625000D03*
X104758000Y-67625000D03*
X107298000Y-67625000D03*
X62594000Y-19365000D03*
X65134000Y-19365000D03*
X67674000Y-19365000D03*
X70214000Y-19365000D03*
X72754000Y-19365000D03*
X75294000Y-19365000D03*
X77834000Y-19365000D03*
X80374000Y-19365000D03*
X82914000Y-19365000D03*
X85454000Y-19365000D03*
D17*
X57768000Y-67625000D03*
X109838000Y-62545000D03*
X59038000Y-19365000D03*
X109838000Y-34605000D03*
D18*
X74150000Y-184000000D03*
X52150000Y-184000000D03*
D15*
X79800000Y-56600000D03*
X79800000Y-51600000D03*
X75800000Y-61700000D03*
X75800000Y-64200000D03*
X75600000Y-53800000D03*
X75600000Y-51300000D03*
X89708000Y-55815000D03*
X89708000Y-60815000D03*
D14*
X64780000Y-64000000D03*
X72400000Y-48760000D03*
X64780000Y-61460000D03*
X72400000Y-51300000D03*
X64780000Y-58920000D03*
X72400000Y-53840000D03*
X64780000Y-56380000D03*
X72400000Y-56380000D03*
X64780000Y-53840000D03*
X72400000Y-58920000D03*
X64780000Y-51300000D03*
X72400000Y-61460000D03*
X64780000Y-48760000D03*
D13*
X72400000Y-64000000D03*
D15*
X105400000Y-40800000D03*
X102900000Y-40800000D03*
X81500000Y-40800000D03*
X84000000Y-40800000D03*
D14*
X66443000Y-72210600D03*
X58823000Y-89990600D03*
X66443000Y-74750600D03*
X58823000Y-87450600D03*
X66443000Y-77290600D03*
X58823000Y-84910600D03*
X66443000Y-79830600D03*
X58823000Y-82370600D03*
X66443000Y-82370600D03*
X58823000Y-79830600D03*
X66443000Y-84910600D03*
X58823000Y-77290600D03*
X66443000Y-87450600D03*
X58823000Y-74750600D03*
X66443000Y-89990600D03*
D13*
X58823000Y-72210600D03*
X58778200Y-93564800D03*
D14*
X66398200Y-111344800D03*
X58778200Y-96104800D03*
X66398200Y-108804800D03*
X58778200Y-98644800D03*
X66398200Y-106264800D03*
X58778200Y-101184800D03*
X66398200Y-103724800D03*
X58778200Y-103724800D03*
X66398200Y-101184800D03*
X58778200Y-106264800D03*
X66398200Y-98644800D03*
X58778200Y-108804800D03*
X66398200Y-96104800D03*
X58778200Y-111344800D03*
X66398200Y-93564800D03*
D13*
X105420000Y-29890000D03*
D14*
X97800000Y-37510000D03*
X102880000Y-29890000D03*
X100340000Y-37510000D03*
X100340000Y-29890000D03*
X102880000Y-37510000D03*
X97800000Y-29890000D03*
X105420000Y-37510000D03*
D13*
X83998000Y-29965000D03*
D14*
X76378000Y-37585000D03*
X81458000Y-29965000D03*
X78918000Y-37585000D03*
X78918000Y-29965000D03*
X81458000Y-37585000D03*
X76378000Y-29965000D03*
X83998000Y-37585000D03*
D19*
X53230000Y-175155000D03*
X53230000Y-128055000D03*
D15*
X51810000Y-136370000D03*
X51810000Y-139140000D03*
X51810000Y-141910000D03*
X51810000Y-144680000D03*
X51810000Y-147450000D03*
X51810000Y-150220000D03*
X51810000Y-152990000D03*
X51810000Y-155760000D03*
X51810000Y-158530000D03*
X51810000Y-161300000D03*
X51810000Y-164070000D03*
X51810000Y-166840000D03*
X54650000Y-134985000D03*
X54650000Y-137755000D03*
X54650000Y-140525000D03*
X54650000Y-143295000D03*
X54650000Y-146065000D03*
X54650000Y-148835000D03*
X54650000Y-151605000D03*
X54650000Y-154375000D03*
X54650000Y-157145000D03*
X54650000Y-159915000D03*
X54650000Y-162685000D03*
X54650000Y-165455000D03*
D13*
X54650000Y-168225000D03*
D15*
X106500000Y-73275000D03*
X106500000Y-75775000D03*
X107500000Y-82775000D03*
D13*
X107500000Y-77775000D03*
D15*
X109571000Y-123984000D03*
X109571000Y-126484000D03*
X82650000Y-125475000D03*
X82650000Y-127975000D03*
X107600000Y-104975000D03*
X107600000Y-107475000D03*
X80725000Y-105225000D03*
X80725000Y-107725000D03*
D13*
X108575000Y-121800000D03*
D15*
X108575000Y-116800000D03*
X81694200Y-118182000D03*
D13*
X81694200Y-123182000D03*
D15*
X78200000Y-87525000D03*
X80700000Y-87525000D03*
D13*
X79750000Y-83225000D03*
D15*
X74750000Y-83225000D03*
X76650000Y-76225000D03*
X76650000Y-73725000D03*
X77150000Y-71000000D03*
X74650000Y-71000000D03*
X90700000Y-73800000D03*
X90700000Y-71300000D03*
X69423000Y-72210600D03*
X69423000Y-74710600D03*
X69578200Y-95864800D03*
X69578200Y-93364800D03*
X72600000Y-25200000D03*
X72600000Y-22700000D03*
D20*
X73942400Y-149359000D03*
D21*
X73942400Y-141739000D03*
X100940000Y-142194000D03*
D20*
X100940000Y-149814000D03*
X97446900Y-157758000D03*
D21*
X97446900Y-165378000D03*
D20*
X70546900Y-157258000D03*
D21*
X70546900Y-164878000D03*
D20*
X119735000Y-146574000D03*
D21*
X127355000Y-146574000D03*
X133833000Y-118058000D03*
D20*
X126213000Y-118058000D03*
X87427500Y-149600000D03*
D21*
X87427500Y-141980000D03*
D20*
X110880000Y-157769000D03*
D21*
X110880000Y-165389000D03*
X83995700Y-165125000D03*
D20*
X83995700Y-157505000D03*
D21*
X127424000Y-132908000D03*
D20*
X119804000Y-132908000D03*
D21*
X127264000Y-160109000D03*
D20*
X119644000Y-160109000D03*
X126346000Y-77721600D03*
D21*
X133966000Y-77721600D03*
X134225000Y-104705000D03*
D20*
X126605000Y-104705000D03*
D21*
X60632300Y-141571000D03*
D20*
X60632300Y-149191000D03*
D21*
X134207000Y-91302700D03*
D20*
X126587000Y-91302700D03*
D21*
X127224000Y-173741000D03*
D20*
X119604000Y-173741000D03*
D22*
X77944900Y-136564000D03*
D23*
X77944900Y-139104000D03*
X77944900Y-141644000D03*
X104920000Y-141934000D03*
X104920000Y-139394000D03*
D22*
X104920000Y-136854000D03*
X93504400Y-170533000D03*
D23*
X93504400Y-167993000D03*
X93504400Y-165453000D03*
X66514400Y-164963000D03*
X66514400Y-167503000D03*
D22*
X66514400Y-170043000D03*
D23*
X127480000Y-150586000D03*
X130020000Y-150586000D03*
D22*
X132560000Y-150586000D03*
D23*
X133998000Y-122060000D03*
X136538000Y-122060000D03*
D22*
X139078000Y-122060000D03*
X91400000Y-136765000D03*
D23*
X91400000Y-139305000D03*
X91400000Y-141845000D03*
X106858000Y-165654000D03*
X106858000Y-168194000D03*
D22*
X106858000Y-170734000D03*
X79993200Y-170360000D03*
D23*
X79993200Y-167820000D03*
X79993200Y-165280000D03*
D22*
X132814000Y-136888000D03*
D23*
X130274000Y-136888000D03*
X127734000Y-136888000D03*
D22*
X132654000Y-164239000D03*
D23*
X130114000Y-164239000D03*
X127574000Y-164239000D03*
X134026000Y-81651600D03*
X136566000Y-81651600D03*
D22*
X139106000Y-81651600D03*
D23*
X134110000Y-108557000D03*
X136650000Y-108557000D03*
D22*
X139190000Y-108557000D03*
X64332300Y-136371000D03*
D23*
X64332300Y-138911000D03*
X64332300Y-141451000D03*
X134182000Y-95235200D03*
X136722000Y-95235200D03*
D22*
X139262000Y-95235200D03*
D23*
X127334000Y-177821000D03*
X129874000Y-177821000D03*
D22*
X132414000Y-177821000D03*
D15*
X92500000Y-88125000D03*
D14*
X92500000Y-95745000D03*
X106500000Y-92595000D03*
D15*
X106500000Y-84975000D03*
X92500000Y-77675000D03*
D14*
X92500000Y-85295000D03*
D15*
X113050000Y-102150000D03*
D14*
X120670000Y-102150000D03*
X102555000Y-102175000D03*
D15*
X110175000Y-102175000D03*
X74800000Y-98325000D03*
D14*
X74800000Y-90705000D03*
D15*
X69575000Y-78975000D03*
D14*
X77195000Y-78975000D03*
D15*
X73892400Y-137289000D03*
D14*
X73892400Y-129669000D03*
X84512400Y-132089000D03*
D15*
X76892400Y-132089000D03*
X76892400Y-149389000D03*
D14*
X84512400Y-149389000D03*
X76922400Y-146089000D03*
D15*
X84542400Y-146089000D03*
D14*
X100908000Y-129899000D03*
D15*
X100908000Y-137519000D03*
D14*
X111478000Y-132419000D03*
D15*
X103858000Y-132419000D03*
D14*
X111428000Y-149769000D03*
D15*
X103808000Y-149769000D03*
X111408000Y-146419000D03*
D14*
X103788000Y-146419000D03*
D15*
X97396900Y-169978000D03*
D14*
X97396900Y-177598000D03*
X86926900Y-174928000D03*
D15*
X94546900Y-174928000D03*
X94546900Y-157778000D03*
D14*
X86926900Y-157778000D03*
X94466900Y-161078000D03*
D15*
X86846900Y-161078000D03*
D14*
X70446900Y-177048000D03*
D15*
X70446900Y-169428000D03*
X67596900Y-174428000D03*
D14*
X59976900Y-174428000D03*
D15*
X67646900Y-157328000D03*
D14*
X60026900Y-157328000D03*
X67566900Y-160578000D03*
D15*
X59946900Y-160578000D03*
X131905000Y-146574000D03*
D14*
X139525000Y-146574000D03*
X137005000Y-157144000D03*
D15*
X137005000Y-149524000D03*
X119755000Y-149474000D03*
D14*
X119755000Y-157094000D03*
D15*
X123055000Y-157124000D03*
D14*
X123055000Y-149504000D03*
X146053000Y-118058000D03*
D15*
X138433000Y-118058000D03*
X143433000Y-120958000D03*
D14*
X143433000Y-128578000D03*
D15*
X126233000Y-120908000D03*
D14*
X126233000Y-128528000D03*
X129533000Y-120938000D03*
D15*
X129533000Y-128558000D03*
D14*
X87477500Y-129710000D03*
D15*
X87477500Y-137330000D03*
X90327500Y-132330000D03*
D14*
X97947500Y-132330000D03*
D15*
X90327500Y-149630000D03*
D14*
X97947500Y-149630000D03*
X90357500Y-146280000D03*
D15*
X97977500Y-146280000D03*
D14*
X110880000Y-177459000D03*
D15*
X110880000Y-169839000D03*
X107930000Y-175139000D03*
D14*
X100310000Y-175139000D03*
D15*
X108030000Y-157839000D03*
D14*
X100410000Y-157839000D03*
D15*
X100380000Y-161139000D03*
D14*
X108000000Y-161139000D03*
X83995700Y-177195000D03*
D15*
X83995700Y-169575000D03*
X81095700Y-174825000D03*
D14*
X73475700Y-174825000D03*
X73525700Y-157525000D03*
D15*
X81145700Y-157525000D03*
X73495700Y-160825000D03*
D14*
X81115700Y-160825000D03*
X139509000Y-132865000D03*
D15*
X131889000Y-132865000D03*
X137289000Y-135765000D03*
D14*
X137289000Y-143385000D03*
X119989000Y-143335000D03*
D15*
X119989000Y-135715000D03*
D14*
X123289000Y-135795000D03*
D15*
X123289000Y-143415000D03*
X131739000Y-160036000D03*
D14*
X139359000Y-160036000D03*
D15*
X137039000Y-163136000D03*
D14*
X137039000Y-170756000D03*
D15*
X119839000Y-163136000D03*
D14*
X119839000Y-170756000D03*
X123139000Y-163166000D03*
D15*
X123139000Y-170786000D03*
D14*
X146091000Y-77679100D03*
D15*
X138471000Y-77679100D03*
X143521000Y-80579100D03*
D14*
X143521000Y-88199100D03*
D15*
X126371000Y-80529100D03*
D14*
X126371000Y-88149100D03*
X129621000Y-80559100D03*
D15*
X129621000Y-88179100D03*
X138925000Y-104705000D03*
D14*
X146545000Y-104705000D03*
X143625000Y-115025000D03*
D15*
X143625000Y-107405000D03*
D14*
X126425000Y-115125000D03*
D15*
X126425000Y-107505000D03*
X129725000Y-115105000D03*
D14*
X129725000Y-107485000D03*
D15*
X60432300Y-137171000D03*
D14*
X60432300Y-129551000D03*
X70852300Y-131971000D03*
D15*
X63232300Y-131971000D03*
X63332300Y-149171000D03*
D14*
X70952300Y-149171000D03*
X63312300Y-145871000D03*
D15*
X70932300Y-145871000D03*
D14*
X146377000Y-91202700D03*
D15*
X138757000Y-91202700D03*
X143657000Y-94152700D03*
D14*
X143657000Y-101772700D03*
D15*
X126607000Y-94152700D03*
D14*
X126607000Y-101772700D03*
X129807000Y-94183000D03*
D15*
X129807000Y-101803000D03*
X131729000Y-173669000D03*
D14*
X139349000Y-173669000D03*
X136829000Y-184339000D03*
D15*
X136829000Y-176719000D03*
D14*
X119629000Y-184289000D03*
D15*
X119629000Y-176669000D03*
X122929000Y-184369000D03*
D14*
X122929000Y-176749000D03*
X97980000Y-23200000D03*
D15*
X105600000Y-23200000D03*
X98000000Y-26400000D03*
D14*
X105620000Y-26400000D03*
D15*
X103400000Y-51400000D03*
D14*
X103400000Y-43780000D03*
X100000000Y-40180000D03*
D15*
X100000000Y-47800000D03*
D14*
X86980000Y-23200000D03*
D15*
X94600000Y-23200000D03*
X87000000Y-26600000D03*
D14*
X94620000Y-26600000D03*
D15*
X92000000Y-51400000D03*
D14*
X92000000Y-43780000D03*
X88600000Y-40380000D03*
D15*
X88600000Y-48000000D03*
D14*
X83820000Y-23200000D03*
D15*
X76200000Y-23200000D03*
X76200000Y-26600000D03*
D14*
X83820000Y-26600000D03*
D15*
X84200000Y-51200000D03*
D14*
X84200000Y-43580000D03*
X73000000Y-38220000D03*
D15*
X73000000Y-30600000D03*
D14*
X103320000Y-75775000D03*
X95700000Y-93555000D03*
X103320000Y-78315000D03*
X95700000Y-91015000D03*
X103320000Y-80855000D03*
X95700000Y-88475000D03*
X103320000Y-83395000D03*
X95700000Y-85935000D03*
X103320000Y-85935000D03*
X95700000Y-83395000D03*
X103320000Y-88475000D03*
X95700000Y-80855000D03*
X103320000Y-91015000D03*
X95700000Y-78315000D03*
X103320000Y-93555000D03*
D13*
X95700000Y-75775000D03*
D14*
X77345000Y-107725000D03*
X69725000Y-125505000D03*
X77345000Y-110265000D03*
X69725000Y-122965000D03*
X77345000Y-112805000D03*
X69725000Y-120425000D03*
X77345000Y-115345000D03*
X69725000Y-117885000D03*
X77345000Y-117885000D03*
X69725000Y-115345000D03*
X77345000Y-120425000D03*
X69725000Y-112805000D03*
X77345000Y-122965000D03*
X69725000Y-110265000D03*
X77345000Y-125505000D03*
D13*
X69725000Y-107725000D03*
D14*
X85905000Y-125425000D03*
X93525000Y-107645000D03*
X85905000Y-122885000D03*
X93525000Y-110185000D03*
X85905000Y-120345000D03*
X93525000Y-112725000D03*
X85905000Y-117805000D03*
X93525000Y-115265000D03*
X85905000Y-115265000D03*
X93525000Y-117805000D03*
X85905000Y-112725000D03*
X93525000Y-120345000D03*
X85905000Y-110185000D03*
X93525000Y-122885000D03*
X85905000Y-107645000D03*
D13*
X93525000Y-125425000D03*
X96800000Y-107562000D03*
D14*
X104420000Y-125342000D03*
X96800000Y-110102000D03*
X104420000Y-122802000D03*
X96800000Y-112642000D03*
X104420000Y-120262000D03*
X96800000Y-115182000D03*
X104420000Y-117722000D03*
X96800000Y-117722000D03*
X104420000Y-115182000D03*
X96800000Y-120262000D03*
X104420000Y-112642000D03*
X96800000Y-122802000D03*
X104420000Y-110102000D03*
X96800000Y-125342000D03*
X104420000Y-107562000D03*
D13*
X78200000Y-98325000D03*
D14*
X85820000Y-90705000D03*
X80740000Y-98325000D03*
X83280000Y-90705000D03*
X83280000Y-98325000D03*
X80740000Y-90705000D03*
X85820000Y-98325000D03*
X78200000Y-90705000D03*
X87470000Y-71350000D03*
X79850000Y-78970000D03*
X87470000Y-73890000D03*
X79850000Y-76430000D03*
X87470000Y-76430000D03*
X79850000Y-73890000D03*
X87470000Y-78970000D03*
D13*
X79850000Y-71350000D03*
D16*
X80100000Y-102075000D03*
X84250000Y-102125000D03*
X83750000Y-84175000D03*
X94550000Y-71150000D03*
D24*
X89050000Y-94265000D03*
X89050000Y-91725000D03*
X89050000Y-89185000D03*
X47125000Y-181505000D03*
X47125000Y-184045000D03*
M02*
