%TF.GenerationSoftware,KiCad,Pcbnew,(2017-11-10 revision d8f4e35)-HEAD*%
%TF.CreationDate,2017-12-06T14:53:18-08:00*%
%TF.ProjectId,floor_pcb,666C6F6F725F7063622E6B696361645F,0.1*%
%TF.SameCoordinates,Original*%
%TF.FileFunction,Copper,L1,Top,Signal*%
%TF.FilePolarity,Positive*%
%FSLAX46Y46*%
G04 Gerber Fmt 4.6, Leading zero omitted, Abs format (unit mm)*
G04 Created by KiCad (PCBNEW (2017-11-10 revision d8f4e35)-HEAD) date Wed Dec  6 14:53:18 2017*
%MOMM*%
%LPD*%
G01*
G04 APERTURE LIST*
%TA.AperFunction,NonConductor*%
%ADD10C,0.001000*%
%TD*%
%TA.AperFunction,ComponentPad*%
%ADD11C,4.000000*%
%TD*%
%TA.AperFunction,ComponentPad*%
%ADD12C,1.600000*%
%TD*%
%TA.AperFunction,ComponentPad*%
%ADD13R,1.600000X1.600000*%
%TD*%
%TA.AperFunction,ComponentPad*%
%ADD14C,1.500000*%
%TD*%
%TA.AperFunction,Conductor*%
%ADD15C,0.000001*%
%TD*%
%TA.AperFunction,Conductor*%
%ADD16C,0.100000*%
%TD*%
%TA.AperFunction,ViaPad*%
%ADD17C,0.800000*%
%TD*%
%TA.AperFunction,Conductor*%
%ADD18C,0.250000*%
%TD*%
%TA.AperFunction,Conductor*%
%ADD19C,0.400000*%
%TD*%
%TA.AperFunction,Conductor*%
%ADD20C,0.254000*%
%TD*%
G04 APERTURE END LIST*
D10*
X142115153Y-70245379D02*
G75*
G02X142108633Y-67045385I-3260J1599997D01*
G01*
X152108612Y-67025010D02*
G75*
G02X152115132Y-70225004I3260J-1599997D01*
G01*
X142057908Y-25235283D02*
X152057887Y-25214907D01*
X142051388Y-22035289D02*
X152051367Y-22014914D01*
X126762780Y-25774200D02*
G75*
G03X126762780Y-25774200I-1851780J0D01*
G01*
X138486470Y-25755190D02*
G75*
G03X138486470Y-25755190I-4200000J0D01*
G01*
X142057908Y-25235283D02*
G75*
G02X142051388Y-22035289I-3260J1599997D01*
G01*
X87500000Y-228507200D02*
X87500000Y-6507200D01*
X162500000Y-228507200D02*
X87500000Y-228507200D01*
X162500000Y-6507200D02*
X162500000Y-228507200D01*
X87500000Y-6507200D02*
X162500000Y-6507200D01*
X107891787Y-182789837D02*
X97891788Y-182794898D01*
X107890167Y-179589837D02*
X97890169Y-179594898D01*
X126891790Y-183285137D02*
G75*
G03X126891790Y-183285137I-1851780J0D01*
G01*
X119864522Y-183289976D02*
G75*
G03X119864522Y-183289976I-4200000J0D01*
G01*
X107890167Y-179589837D02*
G75*
G02X107891787Y-182789837I810J-1600000D01*
G01*
X138600959Y-115775383D02*
G75*
G03X138600959Y-115775383I-4200000J0D01*
G01*
X142172397Y-115255474D02*
G75*
G02X142165877Y-112055482I-3260J1599996D01*
G01*
X152165856Y-112035106D02*
G75*
G02X152172376Y-115235100I3260J-1599997D01*
G01*
X142115153Y-70245379D02*
X152115132Y-70225004D01*
X142108633Y-67045385D02*
X152108612Y-67025010D01*
X126820024Y-70784296D02*
G75*
G03X126820024Y-70784296I-1851780J0D01*
G01*
X138543714Y-70765287D02*
G75*
G03X138543714Y-70765287I-4200000J0D01*
G01*
X107848157Y-44572900D02*
X97848158Y-44577961D01*
X126849780Y-48268200D02*
G75*
G03X126849780Y-48268200I-1851780J0D01*
G01*
X119822512Y-48273038D02*
G75*
G03X119822512Y-48273038I-4200000J0D01*
G01*
X107848157Y-44572900D02*
G75*
G02X107849777Y-47772900I810J-1600000D01*
G01*
X97849778Y-47777961D02*
G75*
G02X97848158Y-44577961I-810J1600000D01*
G01*
X142229641Y-160265571D02*
X152229621Y-160245196D01*
X142223121Y-157065578D02*
X152223101Y-157045203D01*
X152051367Y-22014915D02*
G75*
G02X152057887Y-25214907I3260J-1599996D01*
G01*
X147000000Y-15007200D02*
G75*
G03X147000000Y-15007200I-2000000J0D01*
G01*
X107000000Y-15007200D02*
G75*
G03X107000000Y-15007200I-2000000J0D01*
G01*
X147000000Y-208542700D02*
G75*
G03X147000000Y-208542700I-2000000J0D01*
G01*
X107000000Y-208542700D02*
G75*
G03X107000000Y-208542700I-2000000J0D01*
G01*
X96114500Y-70043200D02*
G75*
G03X96114500Y-70043200I-1714500J0D01*
G01*
X96114500Y-25792200D02*
G75*
G03X96114500Y-25792200I-1714500J0D01*
G01*
X126934513Y-160804489D02*
G75*
G03X126934513Y-160804489I-1851780J0D01*
G01*
X138658203Y-160785479D02*
G75*
G03X138658203Y-160785479I-4200000J0D01*
G01*
X142229641Y-160265572D02*
G75*
G02X142223121Y-157065578I-3260J1599997D01*
G01*
X152223101Y-157045204D02*
G75*
G02X152229621Y-160245196I3260J-1599996D01*
G01*
X142172397Y-115255475D02*
X152172376Y-115235100D01*
X142165877Y-112055482D02*
X152165856Y-112035107D01*
X126877269Y-115794393D02*
G75*
G03X126877269Y-115794393I-1851780J0D01*
G01*
X157314501Y-204542700D02*
G75*
G03X157314501Y-204542700I-1714500J0D01*
G01*
X157314501Y-182292700D02*
G75*
G03X157314501Y-182292700I-1714500J0D01*
G01*
X157314501Y-137792701D02*
G75*
G03X157314501Y-137792701I-1714500J0D01*
G01*
X157314501Y-92292700D02*
G75*
G03X157314501Y-92292700I-1714500J0D01*
G01*
X157314501Y-47792701D02*
G75*
G03X157314501Y-47792701I-1714500J0D01*
G01*
X96114501Y-204542700D02*
G75*
G03X96114501Y-204542700I-1714500J0D01*
G01*
X96114501Y-160042701D02*
G75*
G03X96114501Y-160042701I-1714500J0D01*
G01*
X107863780Y-92778545D02*
X97863781Y-92783606D01*
X107862160Y-89578546D02*
X97862162Y-89583607D01*
X126863783Y-93273846D02*
G75*
G03X126863783Y-93273846I-1851780J0D01*
G01*
X119836515Y-93278684D02*
G75*
G03X119836515Y-93278684I-4200000J0D01*
G01*
X107862160Y-89578547D02*
G75*
G02X107863780Y-92778545I810J-1599999D01*
G01*
X97863782Y-92783607D02*
G75*
G02X97862162Y-89583607I-810J1600000D01*
G01*
X107849777Y-47772900D02*
X97849778Y-47777961D01*
X97891787Y-182794898D02*
G75*
G02X97890169Y-179594898I-809J1600000D01*
G01*
X107877783Y-137784191D02*
X97877785Y-137789252D01*
X107876164Y-134584192D02*
X97876165Y-134589253D01*
X126877787Y-138279492D02*
G75*
G03X126877787Y-138279492I-1851780J0D01*
G01*
X119850519Y-138284330D02*
G75*
G03X119850519Y-138284330I-4200000J0D01*
G01*
X107876165Y-134584191D02*
G75*
G02X107877783Y-137784191I809J-1600000D01*
G01*
X97877785Y-137789251D02*
G75*
G02X97876165Y-134589253I-810J1599999D01*
G01*
X96114501Y-114542700D02*
G75*
G03X96114501Y-114542700I-1714500J0D01*
G01*
D11*
%TO.P,J3,0*%
%TO.N,N/C*%
X101500000Y-219072501D03*
X148600000Y-219072501D03*
D12*
%TO.P,J3,25*%
%TO.N,/F3*%
X109815000Y-220492501D03*
%TO.P,J3,24*%
%TO.N,/F7*%
X112585000Y-220492501D03*
%TO.P,J3,23*%
%TO.N,/F11*%
X115355000Y-220492501D03*
%TO.P,J3,22*%
%TO.N,/F15*%
X118125000Y-220492501D03*
%TO.P,J3,21*%
%TO.N,Net-(J3-Pad21)*%
X120895000Y-220492501D03*
%TO.P,J3,20*%
%TO.N,Net-(J3-Pad20)*%
X123665000Y-220492501D03*
%TO.P,J3,19*%
%TO.N,Net-(J3-Pad19)*%
X126435000Y-220492501D03*
%TO.P,J3,18*%
%TO.N,Net-(J3-Pad18)*%
X129205000Y-220492501D03*
%TO.P,J3,17*%
%TO.N,/F2*%
X131975000Y-220492501D03*
%TO.P,J3,16*%
%TO.N,/F6*%
X134745000Y-220492501D03*
%TO.P,J3,15*%
%TO.N,/F10*%
X137515000Y-220492501D03*
%TO.P,J3,14*%
%TO.N,/F14*%
X140285000Y-220492501D03*
%TO.P,J3,13*%
%TO.N,/F1*%
X108430000Y-217652501D03*
%TO.P,J3,12*%
%TO.N,/F5*%
X111200000Y-217652501D03*
%TO.P,J3,11*%
%TO.N,/F9*%
X113970000Y-217652501D03*
%TO.P,J3,10*%
%TO.N,/F13*%
X116740000Y-217652501D03*
%TO.P,J3,9*%
%TO.N,Net-(J3-Pad9)*%
X119510000Y-217652501D03*
%TO.P,J3,8*%
%TO.N,Net-(J3-Pad8)*%
X122280000Y-217652501D03*
%TO.P,J3,7*%
%TO.N,/HV*%
X125050000Y-217652501D03*
%TO.P,J3,6*%
%TO.N,Net-(J3-Pad6)*%
X127820000Y-217652501D03*
%TO.P,J3,5*%
%TO.N,Net-(J3-Pad5)*%
X130590000Y-217652501D03*
%TO.P,J3,4*%
%TO.N,/F4*%
X133360000Y-217652501D03*
%TO.P,J3,3*%
%TO.N,/F8*%
X136130000Y-217652501D03*
%TO.P,J3,2*%
%TO.N,/F12*%
X138900000Y-217652501D03*
D13*
%TO.P,J3,1*%
%TO.N,/F16*%
X141670000Y-217652501D03*
%TD*%
D14*
%TO.P,J2,1*%
%TO.N,/F7*%
X114890000Y-16385800D03*
%TO.P,J2,2*%
%TO.N,/F5*%
X117430000Y-16385800D03*
%TO.P,J2,3*%
%TO.N,/F3*%
X119970000Y-16385800D03*
%TO.P,J2,4*%
%TO.N,/F1*%
X122510000Y-16385800D03*
%TO.P,J2,5*%
%TO.N,/HV*%
X125050000Y-16385800D03*
%TO.P,J2,6*%
%TO.N,/F2*%
X127590000Y-16385800D03*
%TO.P,J2,7*%
%TO.N,/F4*%
X130130000Y-16385800D03*
%TO.P,J2,8*%
%TO.N,/F6*%
X132670000Y-16385800D03*
%TO.P,J2,9*%
%TO.N,/F8*%
X135210000Y-16385800D03*
%TO.P,J2,10*%
%TO.N,Net-(J2-Pad10)*%
X137750000Y-16385800D03*
%TD*%
%TO.P,J1,10*%
%TO.N,Net-(J1-Pad10)*%
X137750000Y-213750000D03*
%TO.P,J1,9*%
%TO.N,/F10*%
X135210000Y-213750000D03*
%TO.P,J1,8*%
%TO.N,/F12*%
X132670000Y-213750000D03*
%TO.P,J1,7*%
%TO.N,/F14*%
X130130000Y-213750000D03*
%TO.P,J1,6*%
%TO.N,/F16*%
X127590000Y-213750000D03*
%TO.P,J1,5*%
%TO.N,/HV*%
X125050000Y-213750000D03*
%TO.P,J1,4*%
%TO.N,/F15*%
X122510000Y-213750000D03*
%TO.P,J1,3*%
%TO.N,/F13*%
X119970000Y-213750000D03*
%TO.P,J1,2*%
%TO.N,/F11*%
X117430000Y-213750000D03*
%TO.P,J1,1*%
%TO.N,/F9*%
X114890000Y-213750000D03*
%TD*%
D15*
%TO.N,/F15*%
%TO.C,J4*%
X98700000Y-189700000D03*
D16*
G36*
X124200000Y-197000000D02*
X123800000Y-197000000D01*
X123800000Y-189900000D01*
X122200000Y-189900000D01*
X122200000Y-197000000D01*
X121800000Y-197000000D01*
X121800000Y-189900000D01*
X120200000Y-189900000D01*
X120200000Y-197000000D01*
X119800000Y-197000000D01*
X119800000Y-189900000D01*
X118200000Y-189900000D01*
X118200000Y-197000000D01*
X117800000Y-197000000D01*
X117800000Y-189900000D01*
X116200000Y-189900000D01*
X116200000Y-197000000D01*
X115800000Y-197000000D01*
X115800000Y-189900000D01*
X114200000Y-189900000D01*
X114200000Y-197000000D01*
X113800000Y-197000000D01*
X113800000Y-189900000D01*
X112200000Y-189900000D01*
X112200000Y-197000000D01*
X111800000Y-197000000D01*
X111800000Y-189900000D01*
X110200000Y-189900000D01*
X110200000Y-197000000D01*
X109800000Y-197000000D01*
X109800000Y-189900000D01*
X108200000Y-189900000D01*
X108200000Y-197000000D01*
X107800000Y-197000000D01*
X107800000Y-189900000D01*
X106200000Y-189900000D01*
X106200000Y-197000000D01*
X105800000Y-197000000D01*
X105800000Y-189900000D01*
X104200000Y-189900000D01*
X104200000Y-197000000D01*
X103800000Y-197000000D01*
X103800000Y-189900000D01*
X102200000Y-189900000D01*
X102200000Y-197000000D01*
X101800000Y-197000000D01*
X101800000Y-189900000D01*
X100200000Y-189900000D01*
X100200000Y-197000000D01*
X99800000Y-197000000D01*
X99800000Y-189900000D01*
X98200000Y-189900000D01*
X98200000Y-189500000D01*
X124200000Y-189500000D01*
X124200000Y-197000000D01*
X124200000Y-197000000D01*
G37*
D15*
%TO.N,/F16*%
X151300000Y-189700000D03*
D16*
G36*
X151800000Y-189900000D02*
X150200000Y-189900000D01*
X150200000Y-197000000D01*
X149800000Y-197000000D01*
X149800000Y-189900000D01*
X148200000Y-189900000D01*
X148200000Y-197000000D01*
X147800000Y-197000000D01*
X147800000Y-189900000D01*
X146200000Y-189900000D01*
X146200000Y-197000000D01*
X145800000Y-197000000D01*
X145800000Y-189900000D01*
X144200000Y-189900000D01*
X144200000Y-197000000D01*
X143800000Y-197000000D01*
X143800000Y-189900000D01*
X142200000Y-189900000D01*
X142200000Y-197000000D01*
X141800000Y-197000000D01*
X141800000Y-189900000D01*
X140200000Y-189900000D01*
X140200000Y-197000000D01*
X139800000Y-197000000D01*
X139800000Y-189900000D01*
X138200000Y-189900000D01*
X138200000Y-197000000D01*
X137800000Y-197000000D01*
X137800000Y-189900000D01*
X136200000Y-189900000D01*
X136200000Y-197000000D01*
X135800000Y-197000000D01*
X135800000Y-189900000D01*
X134200000Y-189900000D01*
X134200000Y-197000000D01*
X133800000Y-197000000D01*
X133800000Y-189900000D01*
X132200000Y-189900000D01*
X132200000Y-197000000D01*
X131800000Y-197000000D01*
X131800000Y-189900000D01*
X130200000Y-189900000D01*
X130200000Y-197000000D01*
X129800000Y-197000000D01*
X129800000Y-189900000D01*
X128200000Y-189900000D01*
X128200000Y-197000000D01*
X127800000Y-197000000D01*
X127800000Y-189900000D01*
X126200000Y-189900000D01*
X126200000Y-197000000D01*
X125800000Y-197000000D01*
X125800000Y-189500000D01*
X151800000Y-189500000D01*
X151800000Y-189900000D01*
X151800000Y-189900000D01*
G37*
D15*
%TO.N,/HV*%
X125000000Y-197500000D03*
D16*
G36*
X125200000Y-197600000D02*
X126800000Y-197600000D01*
X126800000Y-190500000D01*
X127200000Y-190500000D01*
X127200000Y-197600000D01*
X128800000Y-197600000D01*
X128800000Y-190500000D01*
X129200000Y-190500000D01*
X129200000Y-197600000D01*
X130800000Y-197600000D01*
X130800000Y-190500000D01*
X131200000Y-190500000D01*
X131200000Y-197600000D01*
X132800000Y-197600000D01*
X132800000Y-190500000D01*
X133200000Y-190500000D01*
X133200000Y-197600000D01*
X134800000Y-197600000D01*
X134800000Y-190500000D01*
X135200000Y-190500000D01*
X135200000Y-197600000D01*
X136800000Y-197600000D01*
X136800000Y-190500000D01*
X137200000Y-190500000D01*
X137200000Y-197600000D01*
X138800000Y-197600000D01*
X138800000Y-190500000D01*
X139200000Y-190500000D01*
X139200000Y-197600000D01*
X140800000Y-197600000D01*
X140800000Y-190500000D01*
X141200000Y-190500000D01*
X141200000Y-197600000D01*
X142800000Y-197600000D01*
X142800000Y-190500000D01*
X143200000Y-190500000D01*
X143200000Y-197600000D01*
X144800000Y-197600000D01*
X144800000Y-190500000D01*
X145200000Y-190500000D01*
X145200000Y-197600000D01*
X146800000Y-197600000D01*
X146800000Y-190500000D01*
X147200000Y-190500000D01*
X147200000Y-197600000D01*
X148800000Y-197600000D01*
X148800000Y-190500000D01*
X149200000Y-190500000D01*
X149200000Y-197600000D01*
X150800000Y-197600000D01*
X150800000Y-190500000D01*
X151200000Y-190500000D01*
X151200000Y-198000000D01*
X98800000Y-198000000D01*
X98800000Y-190500000D01*
X99200000Y-190500000D01*
X99200000Y-197600000D01*
X100800000Y-197600000D01*
X100800000Y-190500000D01*
X101200000Y-190500000D01*
X101200000Y-197600000D01*
X102800000Y-197600000D01*
X102800000Y-190500000D01*
X103200000Y-190500000D01*
X103200000Y-197600000D01*
X104800000Y-197600000D01*
X104800000Y-190500000D01*
X105200000Y-190500000D01*
X105200000Y-197600000D01*
X106800000Y-197600000D01*
X106800000Y-190500000D01*
X107200000Y-190500000D01*
X107200000Y-197600000D01*
X108800000Y-197600000D01*
X108800000Y-190500000D01*
X109200000Y-190500000D01*
X109200000Y-197600000D01*
X110800000Y-197600000D01*
X110800000Y-190500000D01*
X111200000Y-190500000D01*
X111200000Y-197600000D01*
X112800000Y-197600000D01*
X112800000Y-190500000D01*
X113200000Y-190500000D01*
X113200000Y-197600000D01*
X114800000Y-197600000D01*
X114800000Y-190500000D01*
X115200000Y-190500000D01*
X115200000Y-197600000D01*
X116800000Y-197600000D01*
X116800000Y-190500000D01*
X117200000Y-190500000D01*
X117200000Y-197600000D01*
X118800000Y-197600000D01*
X118800000Y-190500000D01*
X119200000Y-190500000D01*
X119200000Y-197600000D01*
X120800000Y-197600000D01*
X120800000Y-190500000D01*
X121200000Y-190500000D01*
X121200000Y-197600000D01*
X122800000Y-197600000D01*
X122800000Y-190500000D01*
X123200000Y-190500000D01*
X123200000Y-197600000D01*
X124800000Y-197600000D01*
X124800000Y-189500000D01*
X125200000Y-189500000D01*
X125200000Y-197600000D01*
X125200000Y-197600000D01*
G37*
%TD*%
D15*
%TO.N,/HV*%
%TO.C,J5*%
X125000000Y-175019400D03*
D16*
G36*
X125200000Y-175119400D02*
X126800000Y-175119400D01*
X126800000Y-168019400D01*
X127200000Y-168019400D01*
X127200000Y-175119400D01*
X128800000Y-175119400D01*
X128800000Y-168019400D01*
X129200000Y-168019400D01*
X129200000Y-175119400D01*
X130800000Y-175119400D01*
X130800000Y-168019400D01*
X131200000Y-168019400D01*
X131200000Y-175119400D01*
X132800000Y-175119400D01*
X132800000Y-168019400D01*
X133200000Y-168019400D01*
X133200000Y-175119400D01*
X134800000Y-175119400D01*
X134800000Y-168019400D01*
X135200000Y-168019400D01*
X135200000Y-175119400D01*
X136800000Y-175119400D01*
X136800000Y-168019400D01*
X137200000Y-168019400D01*
X137200000Y-175119400D01*
X138800000Y-175119400D01*
X138800000Y-168019400D01*
X139200000Y-168019400D01*
X139200000Y-175119400D01*
X140800000Y-175119400D01*
X140800000Y-168019400D01*
X141200000Y-168019400D01*
X141200000Y-175119400D01*
X142800000Y-175119400D01*
X142800000Y-168019400D01*
X143200000Y-168019400D01*
X143200000Y-175119400D01*
X144800000Y-175119400D01*
X144800000Y-168019400D01*
X145200000Y-168019400D01*
X145200000Y-175119400D01*
X146800000Y-175119400D01*
X146800000Y-168019400D01*
X147200000Y-168019400D01*
X147200000Y-175119400D01*
X148800000Y-175119400D01*
X148800000Y-168019400D01*
X149200000Y-168019400D01*
X149200000Y-175119400D01*
X150800000Y-175119400D01*
X150800000Y-168019400D01*
X151200000Y-168019400D01*
X151200000Y-175519400D01*
X98800000Y-175519400D01*
X98800000Y-168019400D01*
X99200000Y-168019400D01*
X99200000Y-175119400D01*
X100800000Y-175119400D01*
X100800000Y-168019400D01*
X101200000Y-168019400D01*
X101200000Y-175119400D01*
X102800000Y-175119400D01*
X102800000Y-168019400D01*
X103200000Y-168019400D01*
X103200000Y-175119400D01*
X104800000Y-175119400D01*
X104800000Y-168019400D01*
X105200000Y-168019400D01*
X105200000Y-175119400D01*
X106800000Y-175119400D01*
X106800000Y-168019400D01*
X107200000Y-168019400D01*
X107200000Y-175119400D01*
X108800000Y-175119400D01*
X108800000Y-168019400D01*
X109200000Y-168019400D01*
X109200000Y-175119400D01*
X110800000Y-175119400D01*
X110800000Y-168019400D01*
X111200000Y-168019400D01*
X111200000Y-175119400D01*
X112800000Y-175119400D01*
X112800000Y-168019400D01*
X113200000Y-168019400D01*
X113200000Y-175119400D01*
X114800000Y-175119400D01*
X114800000Y-168019400D01*
X115200000Y-168019400D01*
X115200000Y-175119400D01*
X116800000Y-175119400D01*
X116800000Y-168019400D01*
X117200000Y-168019400D01*
X117200000Y-175119400D01*
X118800000Y-175119400D01*
X118800000Y-168019400D01*
X119200000Y-168019400D01*
X119200000Y-175119400D01*
X120800000Y-175119400D01*
X120800000Y-168019400D01*
X121200000Y-168019400D01*
X121200000Y-175119400D01*
X122800000Y-175119400D01*
X122800000Y-168019400D01*
X123200000Y-168019400D01*
X123200000Y-175119400D01*
X124800000Y-175119400D01*
X124800000Y-167019400D01*
X125200000Y-167019400D01*
X125200000Y-175119400D01*
X125200000Y-175119400D01*
G37*
D15*
%TO.N,/F14*%
X151300000Y-167219400D03*
D16*
G36*
X151800000Y-167419400D02*
X150200000Y-167419400D01*
X150200000Y-174519400D01*
X149800000Y-174519400D01*
X149800000Y-167419400D01*
X148200000Y-167419400D01*
X148200000Y-174519400D01*
X147800000Y-174519400D01*
X147800000Y-167419400D01*
X146200000Y-167419400D01*
X146200000Y-174519400D01*
X145800000Y-174519400D01*
X145800000Y-167419400D01*
X144200000Y-167419400D01*
X144200000Y-174519400D01*
X143800000Y-174519400D01*
X143800000Y-167419400D01*
X142200000Y-167419400D01*
X142200000Y-174519400D01*
X141800000Y-174519400D01*
X141800000Y-167419400D01*
X140200000Y-167419400D01*
X140200000Y-174519400D01*
X139800000Y-174519400D01*
X139800000Y-167419400D01*
X138200000Y-167419400D01*
X138200000Y-174519400D01*
X137800000Y-174519400D01*
X137800000Y-167419400D01*
X136200000Y-167419400D01*
X136200000Y-174519400D01*
X135800000Y-174519400D01*
X135800000Y-167419400D01*
X134200000Y-167419400D01*
X134200000Y-174519400D01*
X133800000Y-174519400D01*
X133800000Y-167419400D01*
X132200000Y-167419400D01*
X132200000Y-174519400D01*
X131800000Y-174519400D01*
X131800000Y-167419400D01*
X130200000Y-167419400D01*
X130200000Y-174519400D01*
X129800000Y-174519400D01*
X129800000Y-167419400D01*
X128200000Y-167419400D01*
X128200000Y-174519400D01*
X127800000Y-174519400D01*
X127800000Y-167419400D01*
X126200000Y-167419400D01*
X126200000Y-174519400D01*
X125800000Y-174519400D01*
X125800000Y-167019400D01*
X151800000Y-167019400D01*
X151800000Y-167419400D01*
X151800000Y-167419400D01*
G37*
D15*
%TO.N,/F13*%
X98700000Y-167219400D03*
D16*
G36*
X124200000Y-174519400D02*
X123800000Y-174519400D01*
X123800000Y-167419400D01*
X122200000Y-167419400D01*
X122200000Y-174519400D01*
X121800000Y-174519400D01*
X121800000Y-167419400D01*
X120200000Y-167419400D01*
X120200000Y-174519400D01*
X119800000Y-174519400D01*
X119800000Y-167419400D01*
X118200000Y-167419400D01*
X118200000Y-174519400D01*
X117800000Y-174519400D01*
X117800000Y-167419400D01*
X116200000Y-167419400D01*
X116200000Y-174519400D01*
X115800000Y-174519400D01*
X115800000Y-167419400D01*
X114200000Y-167419400D01*
X114200000Y-174519400D01*
X113800000Y-174519400D01*
X113800000Y-167419400D01*
X112200000Y-167419400D01*
X112200000Y-174519400D01*
X111800000Y-174519400D01*
X111800000Y-167419400D01*
X110200000Y-167419400D01*
X110200000Y-174519400D01*
X109800000Y-174519400D01*
X109800000Y-167419400D01*
X108200000Y-167419400D01*
X108200000Y-174519400D01*
X107800000Y-174519400D01*
X107800000Y-167419400D01*
X106200000Y-167419400D01*
X106200000Y-174519400D01*
X105800000Y-174519400D01*
X105800000Y-167419400D01*
X104200000Y-167419400D01*
X104200000Y-174519400D01*
X103800000Y-174519400D01*
X103800000Y-167419400D01*
X102200000Y-167419400D01*
X102200000Y-174519400D01*
X101800000Y-174519400D01*
X101800000Y-167419400D01*
X100200000Y-167419400D01*
X100200000Y-174519400D01*
X99800000Y-174519400D01*
X99800000Y-167419400D01*
X98200000Y-167419400D01*
X98200000Y-167019400D01*
X124200000Y-167019400D01*
X124200000Y-174519400D01*
X124200000Y-174519400D01*
G37*
%TD*%
D15*
%TO.N,/F11*%
%TO.C,J6*%
X98700000Y-144738800D03*
D16*
G36*
X124200000Y-152038800D02*
X123800000Y-152038800D01*
X123800000Y-144938800D01*
X122200000Y-144938800D01*
X122200000Y-152038800D01*
X121800000Y-152038800D01*
X121800000Y-144938800D01*
X120200000Y-144938800D01*
X120200000Y-152038800D01*
X119800000Y-152038800D01*
X119800000Y-144938800D01*
X118200000Y-144938800D01*
X118200000Y-152038800D01*
X117800000Y-152038800D01*
X117800000Y-144938800D01*
X116200000Y-144938800D01*
X116200000Y-152038800D01*
X115800000Y-152038800D01*
X115800000Y-144938800D01*
X114200000Y-144938800D01*
X114200000Y-152038800D01*
X113800000Y-152038800D01*
X113800000Y-144938800D01*
X112200000Y-144938800D01*
X112200000Y-152038800D01*
X111800000Y-152038800D01*
X111800000Y-144938800D01*
X110200000Y-144938800D01*
X110200000Y-152038800D01*
X109800000Y-152038800D01*
X109800000Y-144938800D01*
X108200000Y-144938800D01*
X108200000Y-152038800D01*
X107800000Y-152038800D01*
X107800000Y-144938800D01*
X106200000Y-144938800D01*
X106200000Y-152038800D01*
X105800000Y-152038800D01*
X105800000Y-144938800D01*
X104200000Y-144938800D01*
X104200000Y-152038800D01*
X103800000Y-152038800D01*
X103800000Y-144938800D01*
X102200000Y-144938800D01*
X102200000Y-152038800D01*
X101800000Y-152038800D01*
X101800000Y-144938800D01*
X100200000Y-144938800D01*
X100200000Y-152038800D01*
X99800000Y-152038800D01*
X99800000Y-144938800D01*
X98200000Y-144938800D01*
X98200000Y-144538800D01*
X124200000Y-144538800D01*
X124200000Y-152038800D01*
X124200000Y-152038800D01*
G37*
D15*
%TO.N,/F12*%
X151300000Y-144738800D03*
D16*
G36*
X151800000Y-144938800D02*
X150200000Y-144938800D01*
X150200000Y-152038800D01*
X149800000Y-152038800D01*
X149800000Y-144938800D01*
X148200000Y-144938800D01*
X148200000Y-152038800D01*
X147800000Y-152038800D01*
X147800000Y-144938800D01*
X146200000Y-144938800D01*
X146200000Y-152038800D01*
X145800000Y-152038800D01*
X145800000Y-144938800D01*
X144200000Y-144938800D01*
X144200000Y-152038800D01*
X143800000Y-152038800D01*
X143800000Y-144938800D01*
X142200000Y-144938800D01*
X142200000Y-152038800D01*
X141800000Y-152038800D01*
X141800000Y-144938800D01*
X140200000Y-144938800D01*
X140200000Y-152038800D01*
X139800000Y-152038800D01*
X139800000Y-144938800D01*
X138200000Y-144938800D01*
X138200000Y-152038800D01*
X137800000Y-152038800D01*
X137800000Y-144938800D01*
X136200000Y-144938800D01*
X136200000Y-152038800D01*
X135800000Y-152038800D01*
X135800000Y-144938800D01*
X134200000Y-144938800D01*
X134200000Y-152038800D01*
X133800000Y-152038800D01*
X133800000Y-144938800D01*
X132200000Y-144938800D01*
X132200000Y-152038800D01*
X131800000Y-152038800D01*
X131800000Y-144938800D01*
X130200000Y-144938800D01*
X130200000Y-152038800D01*
X129800000Y-152038800D01*
X129800000Y-144938800D01*
X128200000Y-144938800D01*
X128200000Y-152038800D01*
X127800000Y-152038800D01*
X127800000Y-144938800D01*
X126200000Y-144938800D01*
X126200000Y-152038800D01*
X125800000Y-152038800D01*
X125800000Y-144538800D01*
X151800000Y-144538800D01*
X151800000Y-144938800D01*
X151800000Y-144938800D01*
G37*
D15*
%TO.N,/HV*%
X125000000Y-152538800D03*
D16*
G36*
X125200000Y-152638800D02*
X126800000Y-152638800D01*
X126800000Y-145538800D01*
X127200000Y-145538800D01*
X127200000Y-152638800D01*
X128800000Y-152638800D01*
X128800000Y-145538800D01*
X129200000Y-145538800D01*
X129200000Y-152638800D01*
X130800000Y-152638800D01*
X130800000Y-145538800D01*
X131200000Y-145538800D01*
X131200000Y-152638800D01*
X132800000Y-152638800D01*
X132800000Y-145538800D01*
X133200000Y-145538800D01*
X133200000Y-152638800D01*
X134800000Y-152638800D01*
X134800000Y-145538800D01*
X135200000Y-145538800D01*
X135200000Y-152638800D01*
X136800000Y-152638800D01*
X136800000Y-145538800D01*
X137200000Y-145538800D01*
X137200000Y-152638800D01*
X138800000Y-152638800D01*
X138800000Y-145538800D01*
X139200000Y-145538800D01*
X139200000Y-152638800D01*
X140800000Y-152638800D01*
X140800000Y-145538800D01*
X141200000Y-145538800D01*
X141200000Y-152638800D01*
X142800000Y-152638800D01*
X142800000Y-145538800D01*
X143200000Y-145538800D01*
X143200000Y-152638800D01*
X144800000Y-152638800D01*
X144800000Y-145538800D01*
X145200000Y-145538800D01*
X145200000Y-152638800D01*
X146800000Y-152638800D01*
X146800000Y-145538800D01*
X147200000Y-145538800D01*
X147200000Y-152638800D01*
X148800000Y-152638800D01*
X148800000Y-145538800D01*
X149200000Y-145538800D01*
X149200000Y-152638800D01*
X150800000Y-152638800D01*
X150800000Y-145538800D01*
X151200000Y-145538800D01*
X151200000Y-153038800D01*
X98800000Y-153038800D01*
X98800000Y-145538800D01*
X99200000Y-145538800D01*
X99200000Y-152638800D01*
X100800000Y-152638800D01*
X100800000Y-145538800D01*
X101200000Y-145538800D01*
X101200000Y-152638800D01*
X102800000Y-152638800D01*
X102800000Y-145538800D01*
X103200000Y-145538800D01*
X103200000Y-152638800D01*
X104800000Y-152638800D01*
X104800000Y-145538800D01*
X105200000Y-145538800D01*
X105200000Y-152638800D01*
X106800000Y-152638800D01*
X106800000Y-145538800D01*
X107200000Y-145538800D01*
X107200000Y-152638800D01*
X108800000Y-152638800D01*
X108800000Y-145538800D01*
X109200000Y-145538800D01*
X109200000Y-152638800D01*
X110800000Y-152638800D01*
X110800000Y-145538800D01*
X111200000Y-145538800D01*
X111200000Y-152638800D01*
X112800000Y-152638800D01*
X112800000Y-145538800D01*
X113200000Y-145538800D01*
X113200000Y-152638800D01*
X114800000Y-152638800D01*
X114800000Y-145538800D01*
X115200000Y-145538800D01*
X115200000Y-152638800D01*
X116800000Y-152638800D01*
X116800000Y-145538800D01*
X117200000Y-145538800D01*
X117200000Y-152638800D01*
X118800000Y-152638800D01*
X118800000Y-145538800D01*
X119200000Y-145538800D01*
X119200000Y-152638800D01*
X120800000Y-152638800D01*
X120800000Y-145538800D01*
X121200000Y-145538800D01*
X121200000Y-152638800D01*
X122800000Y-152638800D01*
X122800000Y-145538800D01*
X123200000Y-145538800D01*
X123200000Y-152638800D01*
X124800000Y-152638800D01*
X124800000Y-144538800D01*
X125200000Y-144538800D01*
X125200000Y-152638800D01*
X125200000Y-152638800D01*
G37*
%TD*%
D15*
%TO.N,/HV*%
%TO.C,J7*%
X125000000Y-130058200D03*
D16*
G36*
X125200000Y-130158200D02*
X126800000Y-130158200D01*
X126800000Y-123058200D01*
X127200000Y-123058200D01*
X127200000Y-130158200D01*
X128800000Y-130158200D01*
X128800000Y-123058200D01*
X129200000Y-123058200D01*
X129200000Y-130158200D01*
X130800000Y-130158200D01*
X130800000Y-123058200D01*
X131200000Y-123058200D01*
X131200000Y-130158200D01*
X132800000Y-130158200D01*
X132800000Y-123058200D01*
X133200000Y-123058200D01*
X133200000Y-130158200D01*
X134800000Y-130158200D01*
X134800000Y-123058200D01*
X135200000Y-123058200D01*
X135200000Y-130158200D01*
X136800000Y-130158200D01*
X136800000Y-123058200D01*
X137200000Y-123058200D01*
X137200000Y-130158200D01*
X138800000Y-130158200D01*
X138800000Y-123058200D01*
X139200000Y-123058200D01*
X139200000Y-130158200D01*
X140800000Y-130158200D01*
X140800000Y-123058200D01*
X141200000Y-123058200D01*
X141200000Y-130158200D01*
X142800000Y-130158200D01*
X142800000Y-123058200D01*
X143200000Y-123058200D01*
X143200000Y-130158200D01*
X144800000Y-130158200D01*
X144800000Y-123058200D01*
X145200000Y-123058200D01*
X145200000Y-130158200D01*
X146800000Y-130158200D01*
X146800000Y-123058200D01*
X147200000Y-123058200D01*
X147200000Y-130158200D01*
X148800000Y-130158200D01*
X148800000Y-123058200D01*
X149200000Y-123058200D01*
X149200000Y-130158200D01*
X150800000Y-130158200D01*
X150800000Y-123058200D01*
X151200000Y-123058200D01*
X151200000Y-130558200D01*
X98800000Y-130558200D01*
X98800000Y-123058200D01*
X99200000Y-123058200D01*
X99200000Y-130158200D01*
X100800000Y-130158200D01*
X100800000Y-123058200D01*
X101200000Y-123058200D01*
X101200000Y-130158200D01*
X102800000Y-130158200D01*
X102800000Y-123058200D01*
X103200000Y-123058200D01*
X103200000Y-130158200D01*
X104800000Y-130158200D01*
X104800000Y-123058200D01*
X105200000Y-123058200D01*
X105200000Y-130158200D01*
X106800000Y-130158200D01*
X106800000Y-123058200D01*
X107200000Y-123058200D01*
X107200000Y-130158200D01*
X108800000Y-130158200D01*
X108800000Y-123058200D01*
X109200000Y-123058200D01*
X109200000Y-130158200D01*
X110800000Y-130158200D01*
X110800000Y-123058200D01*
X111200000Y-123058200D01*
X111200000Y-130158200D01*
X112800000Y-130158200D01*
X112800000Y-123058200D01*
X113200000Y-123058200D01*
X113200000Y-130158200D01*
X114800000Y-130158200D01*
X114800000Y-123058200D01*
X115200000Y-123058200D01*
X115200000Y-130158200D01*
X116800000Y-130158200D01*
X116800000Y-123058200D01*
X117200000Y-123058200D01*
X117200000Y-130158200D01*
X118800000Y-130158200D01*
X118800000Y-123058200D01*
X119200000Y-123058200D01*
X119200000Y-130158200D01*
X120800000Y-130158200D01*
X120800000Y-123058200D01*
X121200000Y-123058200D01*
X121200000Y-130158200D01*
X122800000Y-130158200D01*
X122800000Y-123058200D01*
X123200000Y-123058200D01*
X123200000Y-130158200D01*
X124800000Y-130158200D01*
X124800000Y-122058200D01*
X125200000Y-122058200D01*
X125200000Y-130158200D01*
X125200000Y-130158200D01*
G37*
D15*
%TO.N,/F10*%
X151300000Y-122258200D03*
D16*
G36*
X151800000Y-122458200D02*
X150200000Y-122458200D01*
X150200000Y-129558200D01*
X149800000Y-129558200D01*
X149800000Y-122458200D01*
X148200000Y-122458200D01*
X148200000Y-129558200D01*
X147800000Y-129558200D01*
X147800000Y-122458200D01*
X146200000Y-122458200D01*
X146200000Y-129558200D01*
X145800000Y-129558200D01*
X145800000Y-122458200D01*
X144200000Y-122458200D01*
X144200000Y-129558200D01*
X143800000Y-129558200D01*
X143800000Y-122458200D01*
X142200000Y-122458200D01*
X142200000Y-129558200D01*
X141800000Y-129558200D01*
X141800000Y-122458200D01*
X140200000Y-122458200D01*
X140200000Y-129558200D01*
X139800000Y-129558200D01*
X139800000Y-122458200D01*
X138200000Y-122458200D01*
X138200000Y-129558200D01*
X137800000Y-129558200D01*
X137800000Y-122458200D01*
X136200000Y-122458200D01*
X136200000Y-129558200D01*
X135800000Y-129558200D01*
X135800000Y-122458200D01*
X134200000Y-122458200D01*
X134200000Y-129558200D01*
X133800000Y-129558200D01*
X133800000Y-122458200D01*
X132200000Y-122458200D01*
X132200000Y-129558200D01*
X131800000Y-129558200D01*
X131800000Y-122458200D01*
X130200000Y-122458200D01*
X130200000Y-129558200D01*
X129800000Y-129558200D01*
X129800000Y-122458200D01*
X128200000Y-122458200D01*
X128200000Y-129558200D01*
X127800000Y-129558200D01*
X127800000Y-122458200D01*
X126200000Y-122458200D01*
X126200000Y-129558200D01*
X125800000Y-129558200D01*
X125800000Y-122058200D01*
X151800000Y-122058200D01*
X151800000Y-122458200D01*
X151800000Y-122458200D01*
G37*
D15*
%TO.N,/F9*%
X98700000Y-122258200D03*
D16*
G36*
X124200000Y-129558200D02*
X123800000Y-129558200D01*
X123800000Y-122458200D01*
X122200000Y-122458200D01*
X122200000Y-129558200D01*
X121800000Y-129558200D01*
X121800000Y-122458200D01*
X120200000Y-122458200D01*
X120200000Y-129558200D01*
X119800000Y-129558200D01*
X119800000Y-122458200D01*
X118200000Y-122458200D01*
X118200000Y-129558200D01*
X117800000Y-129558200D01*
X117800000Y-122458200D01*
X116200000Y-122458200D01*
X116200000Y-129558200D01*
X115800000Y-129558200D01*
X115800000Y-122458200D01*
X114200000Y-122458200D01*
X114200000Y-129558200D01*
X113800000Y-129558200D01*
X113800000Y-122458200D01*
X112200000Y-122458200D01*
X112200000Y-129558200D01*
X111800000Y-129558200D01*
X111800000Y-122458200D01*
X110200000Y-122458200D01*
X110200000Y-129558200D01*
X109800000Y-129558200D01*
X109800000Y-122458200D01*
X108200000Y-122458200D01*
X108200000Y-129558200D01*
X107800000Y-129558200D01*
X107800000Y-122458200D01*
X106200000Y-122458200D01*
X106200000Y-129558200D01*
X105800000Y-129558200D01*
X105800000Y-122458200D01*
X104200000Y-122458200D01*
X104200000Y-129558200D01*
X103800000Y-129558200D01*
X103800000Y-122458200D01*
X102200000Y-122458200D01*
X102200000Y-129558200D01*
X101800000Y-129558200D01*
X101800000Y-122458200D01*
X100200000Y-122458200D01*
X100200000Y-129558200D01*
X99800000Y-129558200D01*
X99800000Y-122458200D01*
X98200000Y-122458200D01*
X98200000Y-122058200D01*
X124200000Y-122058200D01*
X124200000Y-129558200D01*
X124200000Y-129558200D01*
G37*
%TD*%
D15*
%TO.N,/F7*%
%TO.C,J8*%
X98700000Y-99777600D03*
D16*
G36*
X124200000Y-107077600D02*
X123800000Y-107077600D01*
X123800000Y-99977600D01*
X122200000Y-99977600D01*
X122200000Y-107077600D01*
X121800000Y-107077600D01*
X121800000Y-99977600D01*
X120200000Y-99977600D01*
X120200000Y-107077600D01*
X119800000Y-107077600D01*
X119800000Y-99977600D01*
X118200000Y-99977600D01*
X118200000Y-107077600D01*
X117800000Y-107077600D01*
X117800000Y-99977600D01*
X116200000Y-99977600D01*
X116200000Y-107077600D01*
X115800000Y-107077600D01*
X115800000Y-99977600D01*
X114200000Y-99977600D01*
X114200000Y-107077600D01*
X113800000Y-107077600D01*
X113800000Y-99977600D01*
X112200000Y-99977600D01*
X112200000Y-107077600D01*
X111800000Y-107077600D01*
X111800000Y-99977600D01*
X110200000Y-99977600D01*
X110200000Y-107077600D01*
X109800000Y-107077600D01*
X109800000Y-99977600D01*
X108200000Y-99977600D01*
X108200000Y-107077600D01*
X107800000Y-107077600D01*
X107800000Y-99977600D01*
X106200000Y-99977600D01*
X106200000Y-107077600D01*
X105800000Y-107077600D01*
X105800000Y-99977600D01*
X104200000Y-99977600D01*
X104200000Y-107077600D01*
X103800000Y-107077600D01*
X103800000Y-99977600D01*
X102200000Y-99977600D01*
X102200000Y-107077600D01*
X101800000Y-107077600D01*
X101800000Y-99977600D01*
X100200000Y-99977600D01*
X100200000Y-107077600D01*
X99800000Y-107077600D01*
X99800000Y-99977600D01*
X98200000Y-99977600D01*
X98200000Y-99577600D01*
X124200000Y-99577600D01*
X124200000Y-107077600D01*
X124200000Y-107077600D01*
G37*
D15*
%TO.N,/F8*%
X151300000Y-99777600D03*
D16*
G36*
X151800000Y-99977600D02*
X150200000Y-99977600D01*
X150200000Y-107077600D01*
X149800000Y-107077600D01*
X149800000Y-99977600D01*
X148200000Y-99977600D01*
X148200000Y-107077600D01*
X147800000Y-107077600D01*
X147800000Y-99977600D01*
X146200000Y-99977600D01*
X146200000Y-107077600D01*
X145800000Y-107077600D01*
X145800000Y-99977600D01*
X144200000Y-99977600D01*
X144200000Y-107077600D01*
X143800000Y-107077600D01*
X143800000Y-99977600D01*
X142200000Y-99977600D01*
X142200000Y-107077600D01*
X141800000Y-107077600D01*
X141800000Y-99977600D01*
X140200000Y-99977600D01*
X140200000Y-107077600D01*
X139800000Y-107077600D01*
X139800000Y-99977600D01*
X138200000Y-99977600D01*
X138200000Y-107077600D01*
X137800000Y-107077600D01*
X137800000Y-99977600D01*
X136200000Y-99977600D01*
X136200000Y-107077600D01*
X135800000Y-107077600D01*
X135800000Y-99977600D01*
X134200000Y-99977600D01*
X134200000Y-107077600D01*
X133800000Y-107077600D01*
X133800000Y-99977600D01*
X132200000Y-99977600D01*
X132200000Y-107077600D01*
X131800000Y-107077600D01*
X131800000Y-99977600D01*
X130200000Y-99977600D01*
X130200000Y-107077600D01*
X129800000Y-107077600D01*
X129800000Y-99977600D01*
X128200000Y-99977600D01*
X128200000Y-107077600D01*
X127800000Y-107077600D01*
X127800000Y-99977600D01*
X126200000Y-99977600D01*
X126200000Y-107077600D01*
X125800000Y-107077600D01*
X125800000Y-99577600D01*
X151800000Y-99577600D01*
X151800000Y-99977600D01*
X151800000Y-99977600D01*
G37*
D15*
%TO.N,/HV*%
X125000000Y-107577600D03*
D16*
G36*
X125200000Y-107677600D02*
X126800000Y-107677600D01*
X126800000Y-100577600D01*
X127200000Y-100577600D01*
X127200000Y-107677600D01*
X128800000Y-107677600D01*
X128800000Y-100577600D01*
X129200000Y-100577600D01*
X129200000Y-107677600D01*
X130800000Y-107677600D01*
X130800000Y-100577600D01*
X131200000Y-100577600D01*
X131200000Y-107677600D01*
X132800000Y-107677600D01*
X132800000Y-100577600D01*
X133200000Y-100577600D01*
X133200000Y-107677600D01*
X134800000Y-107677600D01*
X134800000Y-100577600D01*
X135200000Y-100577600D01*
X135200000Y-107677600D01*
X136800000Y-107677600D01*
X136800000Y-100577600D01*
X137200000Y-100577600D01*
X137200000Y-107677600D01*
X138800000Y-107677600D01*
X138800000Y-100577600D01*
X139200000Y-100577600D01*
X139200000Y-107677600D01*
X140800000Y-107677600D01*
X140800000Y-100577600D01*
X141200000Y-100577600D01*
X141200000Y-107677600D01*
X142800000Y-107677600D01*
X142800000Y-100577600D01*
X143200000Y-100577600D01*
X143200000Y-107677600D01*
X144800000Y-107677600D01*
X144800000Y-100577600D01*
X145200000Y-100577600D01*
X145200000Y-107677600D01*
X146800000Y-107677600D01*
X146800000Y-100577600D01*
X147200000Y-100577600D01*
X147200000Y-107677600D01*
X148800000Y-107677600D01*
X148800000Y-100577600D01*
X149200000Y-100577600D01*
X149200000Y-107677600D01*
X150800000Y-107677600D01*
X150800000Y-100577600D01*
X151200000Y-100577600D01*
X151200000Y-108077600D01*
X98800000Y-108077600D01*
X98800000Y-100577600D01*
X99200000Y-100577600D01*
X99200000Y-107677600D01*
X100800000Y-107677600D01*
X100800000Y-100577600D01*
X101200000Y-100577600D01*
X101200000Y-107677600D01*
X102800000Y-107677600D01*
X102800000Y-100577600D01*
X103200000Y-100577600D01*
X103200000Y-107677600D01*
X104800000Y-107677600D01*
X104800000Y-100577600D01*
X105200000Y-100577600D01*
X105200000Y-107677600D01*
X106800000Y-107677600D01*
X106800000Y-100577600D01*
X107200000Y-100577600D01*
X107200000Y-107677600D01*
X108800000Y-107677600D01*
X108800000Y-100577600D01*
X109200000Y-100577600D01*
X109200000Y-107677600D01*
X110800000Y-107677600D01*
X110800000Y-100577600D01*
X111200000Y-100577600D01*
X111200000Y-107677600D01*
X112800000Y-107677600D01*
X112800000Y-100577600D01*
X113200000Y-100577600D01*
X113200000Y-107677600D01*
X114800000Y-107677600D01*
X114800000Y-100577600D01*
X115200000Y-100577600D01*
X115200000Y-107677600D01*
X116800000Y-107677600D01*
X116800000Y-100577600D01*
X117200000Y-100577600D01*
X117200000Y-107677600D01*
X118800000Y-107677600D01*
X118800000Y-100577600D01*
X119200000Y-100577600D01*
X119200000Y-107677600D01*
X120800000Y-107677600D01*
X120800000Y-100577600D01*
X121200000Y-100577600D01*
X121200000Y-107677600D01*
X122800000Y-107677600D01*
X122800000Y-100577600D01*
X123200000Y-100577600D01*
X123200000Y-107677600D01*
X124800000Y-107677600D01*
X124800000Y-99577600D01*
X125200000Y-99577600D01*
X125200000Y-107677600D01*
X125200000Y-107677600D01*
G37*
%TD*%
D15*
%TO.N,/F5*%
%TO.C,J9*%
X98700000Y-77297000D03*
D16*
G36*
X124200000Y-84597000D02*
X123800000Y-84597000D01*
X123800000Y-77497000D01*
X122200000Y-77497000D01*
X122200000Y-84597000D01*
X121800000Y-84597000D01*
X121800000Y-77497000D01*
X120200000Y-77497000D01*
X120200000Y-84597000D01*
X119800000Y-84597000D01*
X119800000Y-77497000D01*
X118200000Y-77497000D01*
X118200000Y-84597000D01*
X117800000Y-84597000D01*
X117800000Y-77497000D01*
X116200000Y-77497000D01*
X116200000Y-84597000D01*
X115800000Y-84597000D01*
X115800000Y-77497000D01*
X114200000Y-77497000D01*
X114200000Y-84597000D01*
X113800000Y-84597000D01*
X113800000Y-77497000D01*
X112200000Y-77497000D01*
X112200000Y-84597000D01*
X111800000Y-84597000D01*
X111800000Y-77497000D01*
X110200000Y-77497000D01*
X110200000Y-84597000D01*
X109800000Y-84597000D01*
X109800000Y-77497000D01*
X108200000Y-77497000D01*
X108200000Y-84597000D01*
X107800000Y-84597000D01*
X107800000Y-77497000D01*
X106200000Y-77497000D01*
X106200000Y-84597000D01*
X105800000Y-84597000D01*
X105800000Y-77497000D01*
X104200000Y-77497000D01*
X104200000Y-84597000D01*
X103800000Y-84597000D01*
X103800000Y-77497000D01*
X102200000Y-77497000D01*
X102200000Y-84597000D01*
X101800000Y-84597000D01*
X101800000Y-77497000D01*
X100200000Y-77497000D01*
X100200000Y-84597000D01*
X99800000Y-84597000D01*
X99800000Y-77497000D01*
X98200000Y-77497000D01*
X98200000Y-77097000D01*
X124200000Y-77097000D01*
X124200000Y-84597000D01*
X124200000Y-84597000D01*
G37*
D15*
%TO.N,/F6*%
X151300000Y-77297000D03*
D16*
G36*
X151800000Y-77497000D02*
X150200000Y-77497000D01*
X150200000Y-84597000D01*
X149800000Y-84597000D01*
X149800000Y-77497000D01*
X148200000Y-77497000D01*
X148200000Y-84597000D01*
X147800000Y-84597000D01*
X147800000Y-77497000D01*
X146200000Y-77497000D01*
X146200000Y-84597000D01*
X145800000Y-84597000D01*
X145800000Y-77497000D01*
X144200000Y-77497000D01*
X144200000Y-84597000D01*
X143800000Y-84597000D01*
X143800000Y-77497000D01*
X142200000Y-77497000D01*
X142200000Y-84597000D01*
X141800000Y-84597000D01*
X141800000Y-77497000D01*
X140200000Y-77497000D01*
X140200000Y-84597000D01*
X139800000Y-84597000D01*
X139800000Y-77497000D01*
X138200000Y-77497000D01*
X138200000Y-84597000D01*
X137800000Y-84597000D01*
X137800000Y-77497000D01*
X136200000Y-77497000D01*
X136200000Y-84597000D01*
X135800000Y-84597000D01*
X135800000Y-77497000D01*
X134200000Y-77497000D01*
X134200000Y-84597000D01*
X133800000Y-84597000D01*
X133800000Y-77497000D01*
X132200000Y-77497000D01*
X132200000Y-84597000D01*
X131800000Y-84597000D01*
X131800000Y-77497000D01*
X130200000Y-77497000D01*
X130200000Y-84597000D01*
X129800000Y-84597000D01*
X129800000Y-77497000D01*
X128200000Y-77497000D01*
X128200000Y-84597000D01*
X127800000Y-84597000D01*
X127800000Y-77497000D01*
X126200000Y-77497000D01*
X126200000Y-84597000D01*
X125800000Y-84597000D01*
X125800000Y-77097000D01*
X151800000Y-77097000D01*
X151800000Y-77497000D01*
X151800000Y-77497000D01*
G37*
D15*
%TO.N,/HV*%
X125000000Y-85097000D03*
D16*
G36*
X125200000Y-85197000D02*
X126800000Y-85197000D01*
X126800000Y-78097000D01*
X127200000Y-78097000D01*
X127200000Y-85197000D01*
X128800000Y-85197000D01*
X128800000Y-78097000D01*
X129200000Y-78097000D01*
X129200000Y-85197000D01*
X130800000Y-85197000D01*
X130800000Y-78097000D01*
X131200000Y-78097000D01*
X131200000Y-85197000D01*
X132800000Y-85197000D01*
X132800000Y-78097000D01*
X133200000Y-78097000D01*
X133200000Y-85197000D01*
X134800000Y-85197000D01*
X134800000Y-78097000D01*
X135200000Y-78097000D01*
X135200000Y-85197000D01*
X136800000Y-85197000D01*
X136800000Y-78097000D01*
X137200000Y-78097000D01*
X137200000Y-85197000D01*
X138800000Y-85197000D01*
X138800000Y-78097000D01*
X139200000Y-78097000D01*
X139200000Y-85197000D01*
X140800000Y-85197000D01*
X140800000Y-78097000D01*
X141200000Y-78097000D01*
X141200000Y-85197000D01*
X142800000Y-85197000D01*
X142800000Y-78097000D01*
X143200000Y-78097000D01*
X143200000Y-85197000D01*
X144800000Y-85197000D01*
X144800000Y-78097000D01*
X145200000Y-78097000D01*
X145200000Y-85197000D01*
X146800000Y-85197000D01*
X146800000Y-78097000D01*
X147200000Y-78097000D01*
X147200000Y-85197000D01*
X148800000Y-85197000D01*
X148800000Y-78097000D01*
X149200000Y-78097000D01*
X149200000Y-85197000D01*
X150800000Y-85197000D01*
X150800000Y-78097000D01*
X151200000Y-78097000D01*
X151200000Y-85597000D01*
X98800000Y-85597000D01*
X98800000Y-78097000D01*
X99200000Y-78097000D01*
X99200000Y-85197000D01*
X100800000Y-85197000D01*
X100800000Y-78097000D01*
X101200000Y-78097000D01*
X101200000Y-85197000D01*
X102800000Y-85197000D01*
X102800000Y-78097000D01*
X103200000Y-78097000D01*
X103200000Y-85197000D01*
X104800000Y-85197000D01*
X104800000Y-78097000D01*
X105200000Y-78097000D01*
X105200000Y-85197000D01*
X106800000Y-85197000D01*
X106800000Y-78097000D01*
X107200000Y-78097000D01*
X107200000Y-85197000D01*
X108800000Y-85197000D01*
X108800000Y-78097000D01*
X109200000Y-78097000D01*
X109200000Y-85197000D01*
X110800000Y-85197000D01*
X110800000Y-78097000D01*
X111200000Y-78097000D01*
X111200000Y-85197000D01*
X112800000Y-85197000D01*
X112800000Y-78097000D01*
X113200000Y-78097000D01*
X113200000Y-85197000D01*
X114800000Y-85197000D01*
X114800000Y-78097000D01*
X115200000Y-78097000D01*
X115200000Y-85197000D01*
X116800000Y-85197000D01*
X116800000Y-78097000D01*
X117200000Y-78097000D01*
X117200000Y-85197000D01*
X118800000Y-85197000D01*
X118800000Y-78097000D01*
X119200000Y-78097000D01*
X119200000Y-85197000D01*
X120800000Y-85197000D01*
X120800000Y-78097000D01*
X121200000Y-78097000D01*
X121200000Y-85197000D01*
X122800000Y-85197000D01*
X122800000Y-78097000D01*
X123200000Y-78097000D01*
X123200000Y-85197000D01*
X124800000Y-85197000D01*
X124800000Y-77097000D01*
X125200000Y-77097000D01*
X125200000Y-85197000D01*
X125200000Y-85197000D01*
G37*
%TD*%
D15*
%TO.N,/HV*%
%TO.C,J10*%
X125000000Y-62616400D03*
D16*
G36*
X125200000Y-62716400D02*
X126800000Y-62716400D01*
X126800000Y-55616400D01*
X127200000Y-55616400D01*
X127200000Y-62716400D01*
X128800000Y-62716400D01*
X128800000Y-55616400D01*
X129200000Y-55616400D01*
X129200000Y-62716400D01*
X130800000Y-62716400D01*
X130800000Y-55616400D01*
X131200000Y-55616400D01*
X131200000Y-62716400D01*
X132800000Y-62716400D01*
X132800000Y-55616400D01*
X133200000Y-55616400D01*
X133200000Y-62716400D01*
X134800000Y-62716400D01*
X134800000Y-55616400D01*
X135200000Y-55616400D01*
X135200000Y-62716400D01*
X136800000Y-62716400D01*
X136800000Y-55616400D01*
X137200000Y-55616400D01*
X137200000Y-62716400D01*
X138800000Y-62716400D01*
X138800000Y-55616400D01*
X139200000Y-55616400D01*
X139200000Y-62716400D01*
X140800000Y-62716400D01*
X140800000Y-55616400D01*
X141200000Y-55616400D01*
X141200000Y-62716400D01*
X142800000Y-62716400D01*
X142800000Y-55616400D01*
X143200000Y-55616400D01*
X143200000Y-62716400D01*
X144800000Y-62716400D01*
X144800000Y-55616400D01*
X145200000Y-55616400D01*
X145200000Y-62716400D01*
X146800000Y-62716400D01*
X146800000Y-55616400D01*
X147200000Y-55616400D01*
X147200000Y-62716400D01*
X148800000Y-62716400D01*
X148800000Y-55616400D01*
X149200000Y-55616400D01*
X149200000Y-62716400D01*
X150800000Y-62716400D01*
X150800000Y-55616400D01*
X151200000Y-55616400D01*
X151200000Y-63116400D01*
X98800000Y-63116400D01*
X98800000Y-55616400D01*
X99200000Y-55616400D01*
X99200000Y-62716400D01*
X100800000Y-62716400D01*
X100800000Y-55616400D01*
X101200000Y-55616400D01*
X101200000Y-62716400D01*
X102800000Y-62716400D01*
X102800000Y-55616400D01*
X103200000Y-55616400D01*
X103200000Y-62716400D01*
X104800000Y-62716400D01*
X104800000Y-55616400D01*
X105200000Y-55616400D01*
X105200000Y-62716400D01*
X106800000Y-62716400D01*
X106800000Y-55616400D01*
X107200000Y-55616400D01*
X107200000Y-62716400D01*
X108800000Y-62716400D01*
X108800000Y-55616400D01*
X109200000Y-55616400D01*
X109200000Y-62716400D01*
X110800000Y-62716400D01*
X110800000Y-55616400D01*
X111200000Y-55616400D01*
X111200000Y-62716400D01*
X112800000Y-62716400D01*
X112800000Y-55616400D01*
X113200000Y-55616400D01*
X113200000Y-62716400D01*
X114800000Y-62716400D01*
X114800000Y-55616400D01*
X115200000Y-55616400D01*
X115200000Y-62716400D01*
X116800000Y-62716400D01*
X116800000Y-55616400D01*
X117200000Y-55616400D01*
X117200000Y-62716400D01*
X118800000Y-62716400D01*
X118800000Y-55616400D01*
X119200000Y-55616400D01*
X119200000Y-62716400D01*
X120800000Y-62716400D01*
X120800000Y-55616400D01*
X121200000Y-55616400D01*
X121200000Y-62716400D01*
X122800000Y-62716400D01*
X122800000Y-55616400D01*
X123200000Y-55616400D01*
X123200000Y-62716400D01*
X124800000Y-62716400D01*
X124800000Y-54616400D01*
X125200000Y-54616400D01*
X125200000Y-62716400D01*
X125200000Y-62716400D01*
G37*
D15*
%TO.N,/F4*%
X151300000Y-54816400D03*
D16*
G36*
X151800000Y-55016400D02*
X150200000Y-55016400D01*
X150200000Y-62116400D01*
X149800000Y-62116400D01*
X149800000Y-55016400D01*
X148200000Y-55016400D01*
X148200000Y-62116400D01*
X147800000Y-62116400D01*
X147800000Y-55016400D01*
X146200000Y-55016400D01*
X146200000Y-62116400D01*
X145800000Y-62116400D01*
X145800000Y-55016400D01*
X144200000Y-55016400D01*
X144200000Y-62116400D01*
X143800000Y-62116400D01*
X143800000Y-55016400D01*
X142200000Y-55016400D01*
X142200000Y-62116400D01*
X141800000Y-62116400D01*
X141800000Y-55016400D01*
X140200000Y-55016400D01*
X140200000Y-62116400D01*
X139800000Y-62116400D01*
X139800000Y-55016400D01*
X138200000Y-55016400D01*
X138200000Y-62116400D01*
X137800000Y-62116400D01*
X137800000Y-55016400D01*
X136200000Y-55016400D01*
X136200000Y-62116400D01*
X135800000Y-62116400D01*
X135800000Y-55016400D01*
X134200000Y-55016400D01*
X134200000Y-62116400D01*
X133800000Y-62116400D01*
X133800000Y-55016400D01*
X132200000Y-55016400D01*
X132200000Y-62116400D01*
X131800000Y-62116400D01*
X131800000Y-55016400D01*
X130200000Y-55016400D01*
X130200000Y-62116400D01*
X129800000Y-62116400D01*
X129800000Y-55016400D01*
X128200000Y-55016400D01*
X128200000Y-62116400D01*
X127800000Y-62116400D01*
X127800000Y-55016400D01*
X126200000Y-55016400D01*
X126200000Y-62116400D01*
X125800000Y-62116400D01*
X125800000Y-54616400D01*
X151800000Y-54616400D01*
X151800000Y-55016400D01*
X151800000Y-55016400D01*
G37*
D15*
%TO.N,/F3*%
X98700000Y-54816400D03*
D16*
G36*
X124200000Y-62116400D02*
X123800000Y-62116400D01*
X123800000Y-55016400D01*
X122200000Y-55016400D01*
X122200000Y-62116400D01*
X121800000Y-62116400D01*
X121800000Y-55016400D01*
X120200000Y-55016400D01*
X120200000Y-62116400D01*
X119800000Y-62116400D01*
X119800000Y-55016400D01*
X118200000Y-55016400D01*
X118200000Y-62116400D01*
X117800000Y-62116400D01*
X117800000Y-55016400D01*
X116200000Y-55016400D01*
X116200000Y-62116400D01*
X115800000Y-62116400D01*
X115800000Y-55016400D01*
X114200000Y-55016400D01*
X114200000Y-62116400D01*
X113800000Y-62116400D01*
X113800000Y-55016400D01*
X112200000Y-55016400D01*
X112200000Y-62116400D01*
X111800000Y-62116400D01*
X111800000Y-55016400D01*
X110200000Y-55016400D01*
X110200000Y-62116400D01*
X109800000Y-62116400D01*
X109800000Y-55016400D01*
X108200000Y-55016400D01*
X108200000Y-62116400D01*
X107800000Y-62116400D01*
X107800000Y-55016400D01*
X106200000Y-55016400D01*
X106200000Y-62116400D01*
X105800000Y-62116400D01*
X105800000Y-55016400D01*
X104200000Y-55016400D01*
X104200000Y-62116400D01*
X103800000Y-62116400D01*
X103800000Y-55016400D01*
X102200000Y-55016400D01*
X102200000Y-62116400D01*
X101800000Y-62116400D01*
X101800000Y-55016400D01*
X100200000Y-55016400D01*
X100200000Y-62116400D01*
X99800000Y-62116400D01*
X99800000Y-55016400D01*
X98200000Y-55016400D01*
X98200000Y-54616400D01*
X124200000Y-54616400D01*
X124200000Y-62116400D01*
X124200000Y-62116400D01*
G37*
%TD*%
D15*
%TO.N,/HV*%
%TO.C,J11*%
X125000000Y-40135800D03*
D16*
G36*
X125200000Y-40235800D02*
X126800000Y-40235800D01*
X126800000Y-33135800D01*
X127200000Y-33135800D01*
X127200000Y-40235800D01*
X128800000Y-40235800D01*
X128800000Y-33135800D01*
X129200000Y-33135800D01*
X129200000Y-40235800D01*
X130800000Y-40235800D01*
X130800000Y-33135800D01*
X131200000Y-33135800D01*
X131200000Y-40235800D01*
X132800000Y-40235800D01*
X132800000Y-33135800D01*
X133200000Y-33135800D01*
X133200000Y-40235800D01*
X134800000Y-40235800D01*
X134800000Y-33135800D01*
X135200000Y-33135800D01*
X135200000Y-40235800D01*
X136800000Y-40235800D01*
X136800000Y-33135800D01*
X137200000Y-33135800D01*
X137200000Y-40235800D01*
X138800000Y-40235800D01*
X138800000Y-33135800D01*
X139200000Y-33135800D01*
X139200000Y-40235800D01*
X140800000Y-40235800D01*
X140800000Y-33135800D01*
X141200000Y-33135800D01*
X141200000Y-40235800D01*
X142800000Y-40235800D01*
X142800000Y-33135800D01*
X143200000Y-33135800D01*
X143200000Y-40235800D01*
X144800000Y-40235800D01*
X144800000Y-33135800D01*
X145200000Y-33135800D01*
X145200000Y-40235800D01*
X146800000Y-40235800D01*
X146800000Y-33135800D01*
X147200000Y-33135800D01*
X147200000Y-40235800D01*
X148800000Y-40235800D01*
X148800000Y-33135800D01*
X149200000Y-33135800D01*
X149200000Y-40235800D01*
X150800000Y-40235800D01*
X150800000Y-33135800D01*
X151200000Y-33135800D01*
X151200000Y-40635800D01*
X98800000Y-40635800D01*
X98800000Y-33135800D01*
X99200000Y-33135800D01*
X99200000Y-40235800D01*
X100800000Y-40235800D01*
X100800000Y-33135800D01*
X101200000Y-33135800D01*
X101200000Y-40235800D01*
X102800000Y-40235800D01*
X102800000Y-33135800D01*
X103200000Y-33135800D01*
X103200000Y-40235800D01*
X104800000Y-40235800D01*
X104800000Y-33135800D01*
X105200000Y-33135800D01*
X105200000Y-40235800D01*
X106800000Y-40235800D01*
X106800000Y-33135800D01*
X107200000Y-33135800D01*
X107200000Y-40235800D01*
X108800000Y-40235800D01*
X108800000Y-33135800D01*
X109200000Y-33135800D01*
X109200000Y-40235800D01*
X110800000Y-40235800D01*
X110800000Y-33135800D01*
X111200000Y-33135800D01*
X111200000Y-40235800D01*
X112800000Y-40235800D01*
X112800000Y-33135800D01*
X113200000Y-33135800D01*
X113200000Y-40235800D01*
X114800000Y-40235800D01*
X114800000Y-33135800D01*
X115200000Y-33135800D01*
X115200000Y-40235800D01*
X116800000Y-40235800D01*
X116800000Y-33135800D01*
X117200000Y-33135800D01*
X117200000Y-40235800D01*
X118800000Y-40235800D01*
X118800000Y-33135800D01*
X119200000Y-33135800D01*
X119200000Y-40235800D01*
X120800000Y-40235800D01*
X120800000Y-33135800D01*
X121200000Y-33135800D01*
X121200000Y-40235800D01*
X122800000Y-40235800D01*
X122800000Y-33135800D01*
X123200000Y-33135800D01*
X123200000Y-40235800D01*
X124800000Y-40235800D01*
X124800000Y-32135800D01*
X125200000Y-32135800D01*
X125200000Y-40235800D01*
X125200000Y-40235800D01*
G37*
D15*
%TO.N,/F2*%
X151300000Y-32335800D03*
D16*
G36*
X151800000Y-32535800D02*
X150200000Y-32535800D01*
X150200000Y-39635800D01*
X149800000Y-39635800D01*
X149800000Y-32535800D01*
X148200000Y-32535800D01*
X148200000Y-39635800D01*
X147800000Y-39635800D01*
X147800000Y-32535800D01*
X146200000Y-32535800D01*
X146200000Y-39635800D01*
X145800000Y-39635800D01*
X145800000Y-32535800D01*
X144200000Y-32535800D01*
X144200000Y-39635800D01*
X143800000Y-39635800D01*
X143800000Y-32535800D01*
X142200000Y-32535800D01*
X142200000Y-39635800D01*
X141800000Y-39635800D01*
X141800000Y-32535800D01*
X140200000Y-32535800D01*
X140200000Y-39635800D01*
X139800000Y-39635800D01*
X139800000Y-32535800D01*
X138200000Y-32535800D01*
X138200000Y-39635800D01*
X137800000Y-39635800D01*
X137800000Y-32535800D01*
X136200000Y-32535800D01*
X136200000Y-39635800D01*
X135800000Y-39635800D01*
X135800000Y-32535800D01*
X134200000Y-32535800D01*
X134200000Y-39635800D01*
X133800000Y-39635800D01*
X133800000Y-32535800D01*
X132200000Y-32535800D01*
X132200000Y-39635800D01*
X131800000Y-39635800D01*
X131800000Y-32535800D01*
X130200000Y-32535800D01*
X130200000Y-39635800D01*
X129800000Y-39635800D01*
X129800000Y-32535800D01*
X128200000Y-32535800D01*
X128200000Y-39635800D01*
X127800000Y-39635800D01*
X127800000Y-32535800D01*
X126200000Y-32535800D01*
X126200000Y-39635800D01*
X125800000Y-39635800D01*
X125800000Y-32135800D01*
X151800000Y-32135800D01*
X151800000Y-32535800D01*
X151800000Y-32535800D01*
G37*
D15*
%TO.N,/F1*%
X98700000Y-32335800D03*
D16*
G36*
X124200000Y-39635800D02*
X123800000Y-39635800D01*
X123800000Y-32535800D01*
X122200000Y-32535800D01*
X122200000Y-39635800D01*
X121800000Y-39635800D01*
X121800000Y-32535800D01*
X120200000Y-32535800D01*
X120200000Y-39635800D01*
X119800000Y-39635800D01*
X119800000Y-32535800D01*
X118200000Y-32535800D01*
X118200000Y-39635800D01*
X117800000Y-39635800D01*
X117800000Y-32535800D01*
X116200000Y-32535800D01*
X116200000Y-39635800D01*
X115800000Y-39635800D01*
X115800000Y-32535800D01*
X114200000Y-32535800D01*
X114200000Y-39635800D01*
X113800000Y-39635800D01*
X113800000Y-32535800D01*
X112200000Y-32535800D01*
X112200000Y-39635800D01*
X111800000Y-39635800D01*
X111800000Y-32535800D01*
X110200000Y-32535800D01*
X110200000Y-39635800D01*
X109800000Y-39635800D01*
X109800000Y-32535800D01*
X108200000Y-32535800D01*
X108200000Y-39635800D01*
X107800000Y-39635800D01*
X107800000Y-32535800D01*
X106200000Y-32535800D01*
X106200000Y-39635800D01*
X105800000Y-39635800D01*
X105800000Y-32535800D01*
X104200000Y-32535800D01*
X104200000Y-39635800D01*
X103800000Y-39635800D01*
X103800000Y-32535800D01*
X102200000Y-32535800D01*
X102200000Y-39635800D01*
X101800000Y-39635800D01*
X101800000Y-32535800D01*
X100200000Y-32535800D01*
X100200000Y-39635800D01*
X99800000Y-39635800D01*
X99800000Y-32535800D01*
X98200000Y-32535800D01*
X98200000Y-32135800D01*
X124200000Y-32135800D01*
X124200000Y-39635800D01*
X124200000Y-39635800D01*
G37*
%TD*%
D17*
%TO.N,/F8*%
X157575496Y-221225496D03*
X152645016Y-215895016D03*
X152830000Y-99780000D03*
X158030000Y-31780000D03*
%TO.N,/F6*%
X136530000Y-225305000D03*
X152930000Y-77280000D03*
X155430000Y-31880000D03*
%TO.N,/F4*%
X154130000Y-53580000D03*
X154305000Y-29180000D03*
X158869040Y-208080000D03*
%TO.N,/F2*%
X153180000Y-32380000D03*
%TO.N,/F7*%
X94230000Y-30880000D03*
X96330000Y-99780000D03*
%TO.N,/F5*%
X97130000Y-77180000D03*
X96984504Y-30534504D03*
%TO.N,/F3*%
X112530000Y-205180000D03*
X97030000Y-54780000D03*
X96330000Y-32480000D03*
%TO.N,/F1*%
X105230000Y-214205000D03*
X112430000Y-207680000D03*
%TO.N,/F9*%
X92830000Y-198880000D03*
X97130000Y-122280000D03*
%TO.N,/F11*%
X111155000Y-203080000D03*
X94580272Y-198629727D03*
X97130000Y-144780000D03*
%TO.N,/F13*%
X96404175Y-198862638D03*
X97330000Y-167380000D03*
%TO.N,/F15*%
X97430000Y-189780000D03*
X97761210Y-198518456D03*
%TO.N,/F10*%
X152530000Y-122280000D03*
X156619039Y-198604314D03*
%TO.N,/F12*%
X140511997Y-214761997D03*
X141330000Y-211655000D03*
X152630000Y-144780000D03*
X155223964Y-198486959D03*
%TO.N,/F14*%
X152530000Y-167380000D03*
X153827786Y-198383554D03*
%TO.N,/F16*%
X151830000Y-213005000D03*
X151430000Y-209880000D03*
X152430000Y-189780000D03*
X152428708Y-198332698D03*
%TD*%
D18*
%TO.N,/F8*%
X157575496Y-221225496D02*
X152645016Y-216295016D01*
X152645016Y-216295016D02*
X152645016Y-215895016D01*
X152954024Y-215895016D02*
X152645016Y-215895016D01*
X152264315Y-99780000D02*
X151330000Y-99780000D01*
X152830000Y-99780000D02*
X152264315Y-99780000D01*
X153032075Y-18679980D02*
X158030000Y-23677905D01*
X158030000Y-23677905D02*
X158030000Y-31780000D01*
X137504180Y-18679980D02*
X153032075Y-18679980D01*
X135210000Y-16385800D02*
X137504180Y-18679980D01*
%TO.N,/F6*%
X134730000Y-222980000D02*
X134745000Y-222965000D01*
X134745000Y-222965000D02*
X134745000Y-220492501D01*
X136130001Y-224380001D02*
X134730000Y-222980000D01*
X136530000Y-225305000D02*
X136130001Y-224905001D01*
X136130001Y-224905001D02*
X136130001Y-224380001D01*
X152364315Y-77280000D02*
X151330000Y-77280000D01*
X152930000Y-77280000D02*
X152364315Y-77280000D01*
X152679990Y-19529990D02*
X155430000Y-22280000D01*
X155430000Y-22280000D02*
X155430000Y-31880000D01*
X132670000Y-16385800D02*
X135814190Y-19529990D01*
X135814190Y-19529990D02*
X152679990Y-19529990D01*
%TO.N,/F4*%
X152530000Y-53480000D02*
X154030000Y-53480000D01*
X154030000Y-53480000D02*
X154130000Y-53580000D01*
X154430000Y-28880000D02*
X154430000Y-29055000D01*
X154430000Y-29055000D02*
X154305000Y-29180000D01*
X141030000Y-26580000D02*
X152130000Y-26580000D01*
X152130000Y-26580000D02*
X154430000Y-28880000D01*
X134159999Y-216852502D02*
X133360000Y-217652501D01*
X158869040Y-208080000D02*
X150821540Y-216127500D01*
X150821540Y-216127500D02*
X134885001Y-216127500D01*
X134885001Y-216127500D02*
X134159999Y-216852502D01*
X151330000Y-54721078D02*
X151559461Y-54950539D01*
X152530000Y-53480000D02*
X151964315Y-53480000D01*
X151964315Y-53480000D02*
X151330000Y-54114315D01*
X151330000Y-54114315D02*
X151330000Y-54721078D01*
X139430000Y-24980000D02*
X141030000Y-26580000D01*
X139430000Y-21880000D02*
X139430000Y-24980000D01*
X137930000Y-20380000D02*
X139430000Y-21880000D01*
X131630000Y-20380000D02*
X137930000Y-20380000D01*
X130130000Y-18880000D02*
X131630000Y-20380000D01*
X130130000Y-16385800D02*
X130130000Y-18880000D01*
%TO.N,/F2*%
X151449761Y-32360239D02*
X153160239Y-32360239D01*
X153160239Y-32360239D02*
X153180000Y-32380000D01*
X130260790Y-31410790D02*
X140730000Y-31410790D01*
X140730000Y-31410790D02*
X150500312Y-31410790D01*
X150500312Y-31410790D02*
X151449761Y-32360239D01*
X128030000Y-29180000D02*
X130260790Y-31410790D01*
X128030000Y-17886460D02*
X128030000Y-29180000D01*
X127590000Y-16385800D02*
X127590000Y-17446460D01*
X127590000Y-17446460D02*
X128030000Y-17886460D01*
D19*
%TO.N,/HV*%
X125000010Y-189390000D02*
X125000010Y-189480000D01*
X125000010Y-189168622D02*
X125000010Y-189390000D01*
X125000010Y-189168622D02*
X125000000Y-189168612D01*
X125050000Y-189120000D02*
X124951388Y-189120000D01*
X124951388Y-189120000D02*
X125000010Y-189168622D01*
X124791388Y-188960000D02*
X124921388Y-189090000D01*
X124921388Y-189090000D02*
X125050000Y-189090000D01*
D18*
X125050000Y-189120000D02*
X125050000Y-188860000D01*
X125050000Y-189400000D02*
X125050000Y-189120000D01*
D19*
X125050000Y-189120000D02*
X125050000Y-189090000D01*
D18*
X125074990Y-175340000D02*
X125074990Y-174924990D01*
D19*
X125074990Y-175340000D02*
X125074990Y-176324990D01*
X125000010Y-166789990D02*
X125000010Y-166980000D01*
X125030000Y-166764078D02*
X125025922Y-166764078D01*
X125025922Y-166764078D02*
X125000010Y-166789990D01*
X125030000Y-166764078D02*
X125030000Y-166470000D01*
D18*
X125030000Y-152870000D02*
X125030000Y-152280000D01*
X125030000Y-154080000D02*
X125030000Y-152870000D01*
D19*
X125030000Y-152870000D02*
X125030000Y-153690000D01*
X125030000Y-144177412D02*
X125000010Y-144207402D01*
X125030000Y-143940000D02*
X125030000Y-144177412D01*
D18*
X125030000Y-152280000D02*
X125030000Y-143940000D01*
X125030000Y-143940000D02*
X125030000Y-143480000D01*
D19*
X125000010Y-144207402D02*
X125000010Y-144530000D01*
X124970000Y-130870000D02*
X125580000Y-131480000D01*
X124970000Y-130440000D02*
X124970000Y-130870000D01*
X125330000Y-130800000D02*
X124970000Y-130440000D01*
X125330000Y-130880000D02*
X125330000Y-130800000D01*
X125000010Y-121726822D02*
X125000010Y-122040000D01*
X125000010Y-121726822D02*
X124711594Y-121438406D01*
X125030000Y-121780000D02*
X125000010Y-121750010D01*
X125000010Y-121750010D02*
X125000010Y-121726822D01*
X125000010Y-99379990D02*
X125000010Y-99520000D01*
X125030000Y-99322278D02*
X125030000Y-99350000D01*
X125030000Y-99350000D02*
X125000010Y-99379990D01*
X125030000Y-98700000D02*
X125030000Y-99216212D01*
D18*
X125000000Y-99246212D02*
X125030000Y-107630000D01*
D19*
X125030000Y-99322278D02*
X125030000Y-99216212D01*
X125030000Y-99216212D02*
X125000000Y-99246212D01*
X125000000Y-54570000D02*
X125000000Y-54135000D01*
X125000000Y-54135000D02*
X125355000Y-53780000D01*
D18*
X125030000Y-62380000D02*
X125000000Y-54570000D01*
X125000000Y-54570000D02*
X125030000Y-60530000D01*
X125030000Y-60530000D02*
X124930000Y-60630000D01*
X124930000Y-60630000D02*
X124930000Y-63130000D01*
X125355000Y-53780000D02*
X130430000Y-48961078D01*
X130430000Y-48961078D02*
X130430000Y-45780000D01*
X130430000Y-45780000D02*
X126080000Y-41430000D01*
X125068590Y-62841410D02*
X125068590Y-62730000D01*
X125068590Y-62730000D02*
X125068590Y-62418590D01*
X124930000Y-62868590D02*
X125068590Y-62730000D01*
X124930000Y-63130000D02*
X124930000Y-62868590D01*
X124930000Y-63130000D02*
X124925010Y-63125010D01*
X124925010Y-62984990D02*
X125030000Y-62880000D01*
X124925010Y-63125010D02*
X124925010Y-62984990D01*
X124930000Y-62980000D02*
X124930000Y-63130000D01*
X125030000Y-62880000D02*
X125030000Y-62380000D01*
X124930000Y-62980000D02*
X125068590Y-62841410D01*
X125068590Y-62418590D02*
X125030000Y-62380000D01*
D19*
X124930000Y-62980000D02*
X125030000Y-62880000D01*
D18*
X119830000Y-68080000D02*
X123980000Y-63930000D01*
D19*
X124930000Y-63130000D02*
X124130000Y-63930000D01*
X124130000Y-63930000D02*
X123980000Y-63930000D01*
X124930000Y-40280000D02*
X126080000Y-41430000D01*
D18*
X125030000Y-39980000D02*
X124999990Y-32130000D01*
X124780000Y-31530000D02*
X120430000Y-27180000D01*
D19*
X124780000Y-31530000D02*
X124780000Y-31584412D01*
X124999990Y-31804422D02*
X124999990Y-32130000D01*
X124780000Y-31584412D02*
X125000000Y-31804412D01*
X125000000Y-31804412D02*
X124999990Y-31804422D01*
X125030000Y-108030000D02*
X150378988Y-108030000D01*
D18*
X125030000Y-108030000D02*
X125030000Y-110380000D01*
X125030000Y-107630000D02*
X125030000Y-108030000D01*
D19*
X125030000Y-108980000D02*
X124880000Y-109130000D01*
X125030000Y-107630000D02*
X125030000Y-108980000D01*
D18*
X126040000Y-86290000D02*
X129630000Y-89880000D01*
D19*
X126040000Y-86290000D02*
X125230000Y-85480000D01*
D18*
X125030000Y-85280000D02*
X126040000Y-86290000D01*
X125074990Y-85324990D02*
X124999990Y-77040000D01*
D19*
X124668302Y-76433914D02*
X125000000Y-76765612D01*
D18*
X124668302Y-76390000D02*
X119830000Y-71551698D01*
D19*
X124999990Y-76765622D02*
X124999990Y-77040000D01*
X124668302Y-76390000D02*
X124668302Y-76433914D01*
X125000000Y-76765612D02*
X124999990Y-76765622D01*
D18*
X124930000Y-40280000D02*
X124930000Y-40080000D01*
X124130000Y-17305800D02*
X125050000Y-16385800D01*
X124930000Y-40080000D02*
X125030000Y-39980000D01*
X120430000Y-27180000D02*
X120430000Y-23280000D01*
X124130000Y-21780000D02*
X124130000Y-17305800D01*
X125230000Y-85480000D02*
X125074990Y-85324990D01*
X119830000Y-71551698D02*
X119830000Y-68080000D01*
X120430000Y-23280000D02*
X121930000Y-21780000D01*
X121930000Y-21780000D02*
X124130000Y-21780000D01*
X125230000Y-85480000D02*
X125430000Y-85680000D01*
X125030000Y-85280000D02*
X125230000Y-85480000D01*
X124930000Y-85180000D02*
X125030000Y-85280000D01*
X129630000Y-94722278D02*
X125030000Y-99322278D01*
X129630000Y-89880000D02*
X129630000Y-94722278D01*
X125030000Y-110380000D02*
X119330000Y-116080000D01*
X119330000Y-116080000D02*
X125030000Y-121780000D01*
X125030000Y-121780000D02*
X125030000Y-129580000D01*
X125030000Y-130080000D02*
X125030000Y-129580000D01*
X125030000Y-129580000D02*
X124930000Y-129480000D01*
X125330000Y-130380000D02*
X125030000Y-130080000D01*
X129230000Y-134780000D02*
X125330000Y-130880000D01*
X125330000Y-130880000D02*
X125330000Y-130380000D01*
X129230000Y-139280000D02*
X129230000Y-134780000D01*
X125030000Y-143480000D02*
X129230000Y-139280000D01*
X119930000Y-159180000D02*
X125030000Y-154080000D01*
X119930000Y-161664078D02*
X119930000Y-159180000D01*
X125030000Y-174880000D02*
X125030000Y-166764078D01*
X125030000Y-166764078D02*
X119930000Y-161664078D01*
X125074990Y-174924990D02*
X125030000Y-174880000D01*
X129030000Y-180280000D02*
X125074990Y-176324990D01*
X129030000Y-184880000D02*
X129030000Y-180280000D01*
X125050000Y-188860000D02*
X129030000Y-184880000D01*
X125050000Y-197381388D02*
X125050000Y-189400000D01*
D19*
X125050000Y-198080000D02*
X125050000Y-197381388D01*
D18*
X125050000Y-198080000D02*
X125050000Y-198480000D01*
D19*
X125050000Y-213750000D02*
X125050000Y-198080000D01*
D18*
X125050000Y-197381388D02*
X125050000Y-196100000D01*
X125050000Y-196100000D02*
X125030000Y-196080000D01*
D19*
X124999990Y-197331378D02*
X125050000Y-197381388D01*
X125050000Y-213750000D02*
X125050000Y-217652501D01*
D18*
%TO.N,/F7*%
X108024200Y-16385800D02*
X108024200Y-17085800D01*
X108024200Y-17085800D02*
X94230000Y-30880000D01*
X98830000Y-99780000D02*
X98930000Y-99680000D01*
X96330000Y-99780000D02*
X98830000Y-99780000D01*
X114890000Y-16385800D02*
X108024200Y-16385800D01*
%TO.N,/F5*%
X97795685Y-77280000D02*
X98591678Y-77280000D01*
X97130000Y-77180000D02*
X97695685Y-77180000D01*
X97695685Y-77180000D02*
X97795685Y-77280000D01*
X104105030Y-29710770D02*
X97434228Y-29710770D01*
X97434228Y-29710770D02*
X96984504Y-30160494D01*
X96984504Y-30160494D02*
X96984504Y-30534504D01*
X117430000Y-16385800D02*
X104105030Y-29710770D01*
%TO.N,/F3*%
X105230000Y-218880000D02*
X106842501Y-220492501D01*
X106842501Y-220492501D02*
X109815000Y-220492501D01*
X105230000Y-216880000D02*
X105230000Y-218880000D01*
X101830000Y-213480000D02*
X105230000Y-216880000D01*
X101830000Y-205880000D02*
X101830000Y-213480000D01*
X102530000Y-205180000D02*
X101830000Y-205880000D01*
X112530000Y-205180000D02*
X102530000Y-205180000D01*
X98730000Y-54780000D02*
X98830000Y-54880000D01*
X97030000Y-54780000D02*
X98730000Y-54780000D01*
X98549220Y-30560780D02*
X96630000Y-32480000D01*
X96630000Y-32480000D02*
X96330000Y-32480000D01*
X119970000Y-16385800D02*
X105795020Y-30560780D01*
X105795020Y-30560780D02*
X98549220Y-30560780D01*
%TO.N,/F1*%
X105230000Y-214205000D02*
X107330000Y-216305000D01*
X107330000Y-216305000D02*
X107330000Y-216552501D01*
X109230000Y-208080000D02*
X109130000Y-208180000D01*
X109130000Y-208180000D02*
X108030000Y-209280000D01*
X112430000Y-207680000D02*
X109630000Y-207680000D01*
X109630000Y-207680000D02*
X109130000Y-208180000D01*
X107330000Y-212180000D02*
X107330000Y-216552501D01*
X107330000Y-216552501D02*
X108430000Y-217652501D01*
X108030000Y-211480000D02*
X107330000Y-212180000D01*
X108030000Y-209280000D02*
X108030000Y-211480000D01*
X99499688Y-31410790D02*
X98580239Y-32330239D01*
X122510000Y-19100000D02*
X110199210Y-31410790D01*
X110199210Y-31410790D02*
X99499688Y-31410790D01*
X122510000Y-16385800D02*
X122510000Y-19100000D01*
%TO.N,/F9*%
X95732114Y-201382114D02*
X93230000Y-198880000D01*
X93230000Y-198880000D02*
X92830000Y-198880000D01*
X114794186Y-203646280D02*
X112530020Y-201382114D01*
X112530020Y-201382114D02*
X95732114Y-201382114D01*
X114890000Y-213750000D02*
X114890000Y-203742094D01*
X114890000Y-203742094D02*
X114794186Y-203646280D01*
X98541439Y-122291439D02*
X98591439Y-122241439D01*
X98530000Y-122280000D02*
X98541439Y-122291439D01*
X97130000Y-122280000D02*
X98530000Y-122280000D01*
X114890000Y-213750000D02*
X113970000Y-214670000D01*
X113970000Y-214670000D02*
X113970000Y-217652501D01*
%TO.N,/F11*%
X111155000Y-203080000D02*
X103427905Y-203080000D01*
X114555001Y-221292500D02*
X115355000Y-220492501D01*
X103427905Y-203080000D02*
X100979990Y-205527915D01*
X100979990Y-205527915D02*
X100979990Y-213832085D01*
X113829999Y-222017502D02*
X114555001Y-221292500D01*
X100979990Y-213832085D02*
X104379990Y-217232085D01*
X104379990Y-217232085D02*
X104379990Y-219232085D01*
X107165407Y-222017502D02*
X113829999Y-222017502D01*
X104379990Y-219232085D02*
X107165407Y-222017502D01*
X112882104Y-200532104D02*
X96482649Y-200532104D01*
X96482649Y-200532104D02*
X94580272Y-198629727D01*
X117430000Y-204984188D02*
X115242084Y-202796272D01*
X115242084Y-202796272D02*
X115146272Y-202796272D01*
X115146272Y-202796272D02*
X112882104Y-200532104D01*
X98631739Y-144681739D02*
X98681739Y-144631739D01*
X98533478Y-144780000D02*
X98631739Y-144681739D01*
X97130000Y-144780000D02*
X98533478Y-144780000D01*
X117430000Y-212689340D02*
X117430000Y-204984188D01*
X117430000Y-213750000D02*
X117430000Y-212689340D01*
%TO.N,/F13*%
X119970000Y-213750000D02*
X119970000Y-206480000D01*
X119970000Y-206480000D02*
X119970000Y-206322094D01*
X119970000Y-206480000D02*
X119970000Y-206322093D01*
X119970000Y-206322093D02*
X113330001Y-199682094D01*
X113330001Y-199682094D02*
X97223631Y-199682094D01*
X97223631Y-199682094D02*
X96404175Y-198862638D01*
X98430000Y-167380000D02*
X98730000Y-167080000D01*
X97330000Y-167380000D02*
X98430000Y-167380000D01*
X119970000Y-213750000D02*
X116740000Y-216980000D01*
X116740000Y-216980000D02*
X116740000Y-217652501D01*
%TO.N,/F15*%
X97761210Y-198518456D02*
X96747480Y-197504726D01*
X96747480Y-197504726D02*
X92540272Y-197504726D01*
X92540272Y-197504726D02*
X91704999Y-198339999D01*
X91704999Y-198339999D02*
X91704999Y-213310502D01*
X115749989Y-222867512D02*
X117325001Y-221292500D01*
X91704999Y-213310502D02*
X101262009Y-222867512D01*
X101262009Y-222867512D02*
X115749989Y-222867512D01*
X117325001Y-221292500D02*
X118125000Y-220492501D01*
X97430000Y-189780000D02*
X98430000Y-189780000D01*
X98499688Y-198725010D02*
X97967764Y-198725010D01*
X97967764Y-198725010D02*
X97761210Y-198518456D01*
X113575010Y-198725010D02*
X98499688Y-198725010D01*
X122330000Y-207480000D02*
X113575010Y-198725010D01*
X122330000Y-212509340D02*
X122330000Y-207480000D01*
X122510000Y-213750000D02*
X122510000Y-212689340D01*
X122510000Y-212689340D02*
X122330000Y-212509340D01*
%TO.N,/F10*%
X153803397Y-201275040D02*
X159994041Y-207465684D01*
X159994041Y-207465684D02*
X159994041Y-220471953D01*
X159994041Y-220471953D02*
X158115497Y-222350497D01*
X158115497Y-222350497D02*
X139372996Y-222350497D01*
X139372996Y-222350497D02*
X138314999Y-221292500D01*
X138314999Y-221292500D02*
X137515000Y-220492501D01*
X151964315Y-122280000D02*
X151230000Y-122280000D01*
X152530000Y-122280000D02*
X151964315Y-122280000D01*
X155398437Y-199680000D02*
X155695925Y-199680000D01*
X155695925Y-199680000D02*
X156619039Y-198756886D01*
X156619039Y-198756886D02*
X156619039Y-198604314D01*
X137034960Y-201275040D02*
X153803397Y-201275040D01*
X153803397Y-201275040D02*
X155398437Y-199680000D01*
X135210000Y-203495040D02*
X135210000Y-203100000D01*
X135210000Y-203100000D02*
X137034960Y-201275040D01*
X135210000Y-213750000D02*
X135210000Y-203495040D01*
%TO.N,/F12*%
X141330000Y-211655000D02*
X141330000Y-213943994D01*
X141330000Y-213943994D02*
X140511997Y-214761997D01*
X151566522Y-144880000D02*
X151448261Y-144761739D01*
X152630000Y-144780000D02*
X152064315Y-144780000D01*
X152064315Y-144780000D02*
X151964315Y-144880000D01*
X151964315Y-144880000D02*
X151566522Y-144880000D01*
X134130000Y-200425030D02*
X153451312Y-200425030D01*
X153451312Y-200425030D02*
X155223964Y-198652378D01*
X155223964Y-198652378D02*
X155223964Y-198486959D01*
X132670000Y-201885030D02*
X134130000Y-200425030D01*
X132670000Y-213750000D02*
X132670000Y-201885030D01*
%TO.N,/F14*%
X151764315Y-167180000D02*
X151230000Y-167180000D01*
X152530000Y-167380000D02*
X151964315Y-167380000D01*
X151964315Y-167380000D02*
X151764315Y-167180000D01*
X132030000Y-199575020D02*
X152851388Y-199575020D01*
X152851388Y-199575020D02*
X153827786Y-198598622D01*
X153827786Y-198598622D02*
X153827786Y-198383554D01*
X130130000Y-201475020D02*
X132030000Y-199575020D01*
X130130000Y-213750000D02*
X130130000Y-201475020D01*
%TO.N,/F16*%
X151430000Y-212480000D02*
X151830000Y-212880000D01*
X151830000Y-212880000D02*
X151830000Y-213005000D01*
X151430000Y-209880000D02*
X151430000Y-212480000D01*
X151764315Y-189680000D02*
X151330000Y-189680000D01*
X152430000Y-189780000D02*
X151864315Y-189780000D01*
X151864315Y-189780000D02*
X151764315Y-189680000D01*
X151500312Y-198725010D02*
X152036396Y-198725010D01*
X152036396Y-198725010D02*
X152428708Y-198332698D01*
X127590000Y-201365010D02*
X130230000Y-198725010D01*
X130230000Y-198725010D02*
X151500312Y-198725010D01*
X127590000Y-213750000D02*
X127590000Y-201365010D01*
%TD*%
D20*
%TO.N,/HV*%
G36*
X126987545Y-200762555D02*
X126802855Y-201038964D01*
X126738000Y-201365010D01*
X126738000Y-212513541D01*
X126338591Y-212912254D01*
X126276876Y-213060880D01*
X126262460Y-213026077D01*
X126021517Y-212958088D01*
X125229605Y-213750000D01*
X126021517Y-214541912D01*
X126262460Y-214473923D01*
X126275668Y-214436811D01*
X126337130Y-214585560D01*
X126752254Y-215001409D01*
X127294918Y-215226743D01*
X127882505Y-215227256D01*
X128425560Y-215002870D01*
X128841409Y-214587746D01*
X128859766Y-214543537D01*
X128877130Y-214585560D01*
X129292254Y-215001409D01*
X129834918Y-215226743D01*
X130422505Y-215227256D01*
X130965560Y-215002870D01*
X131381409Y-214587746D01*
X131399766Y-214543537D01*
X131417130Y-214585560D01*
X131832254Y-215001409D01*
X132374918Y-215226743D01*
X132962505Y-215227256D01*
X133505560Y-215002870D01*
X133921409Y-214587746D01*
X133939766Y-214543537D01*
X133957130Y-214585560D01*
X134372254Y-215001409D01*
X134914918Y-215226743D01*
X135502505Y-215227256D01*
X136045560Y-215002870D01*
X136461409Y-214587746D01*
X136479766Y-214543537D01*
X136497130Y-214585560D01*
X136912254Y-215001409D01*
X137454918Y-215226743D01*
X138042505Y-215227256D01*
X138585560Y-215002870D01*
X139001409Y-214587746D01*
X139226743Y-214045082D01*
X139227256Y-213457495D01*
X139002870Y-212914440D01*
X138587746Y-212498591D01*
X138045082Y-212273257D01*
X137457495Y-212272744D01*
X136914440Y-212497130D01*
X136498591Y-212912254D01*
X136480234Y-212956463D01*
X136462870Y-212914440D01*
X136062000Y-212512870D01*
X136062000Y-208542700D01*
X142272500Y-208542700D01*
X142480119Y-209586469D01*
X143071366Y-210471334D01*
X143956231Y-211062581D01*
X145000000Y-211270200D01*
X146043769Y-211062581D01*
X146928634Y-210471334D01*
X147519881Y-209586469D01*
X147727500Y-208542700D01*
X147519881Y-207498931D01*
X146928634Y-206614066D01*
X146043769Y-206022819D01*
X145000000Y-205815200D01*
X143956231Y-206022819D01*
X143071366Y-206614066D01*
X142480119Y-207498931D01*
X142272500Y-208542700D01*
X136062000Y-208542700D01*
X136062000Y-203452910D01*
X137387870Y-202127040D01*
X150903000Y-202127040D01*
X150903000Y-208878336D01*
X150792440Y-208924019D01*
X150475133Y-209240772D01*
X150303196Y-209654842D01*
X150302805Y-210103191D01*
X150474019Y-210517560D01*
X150578000Y-210621723D01*
X150578000Y-212480000D01*
X150642855Y-212806046D01*
X150703095Y-212896201D01*
X150702805Y-213228191D01*
X150874019Y-213642560D01*
X150903000Y-213671592D01*
X150903000Y-214841130D01*
X150468630Y-215275500D01*
X141519070Y-215275500D01*
X141638801Y-214987155D01*
X141638929Y-214839975D01*
X141932455Y-214546449D01*
X142117145Y-214270040D01*
X142182000Y-213943994D01*
X142182000Y-212396915D01*
X142284867Y-212294228D01*
X142456804Y-211880158D01*
X142457195Y-211431809D01*
X142285981Y-211017440D01*
X141969228Y-210700133D01*
X141555158Y-210528196D01*
X141106809Y-210527805D01*
X140692440Y-210699019D01*
X140375133Y-211015772D01*
X140203196Y-211429842D01*
X140202805Y-211878191D01*
X140374019Y-212292560D01*
X140478000Y-212396723D01*
X140478000Y-213591084D01*
X140434155Y-213634929D01*
X140288806Y-213634802D01*
X139874437Y-213806016D01*
X139557130Y-214122769D01*
X139385193Y-214536839D01*
X139384802Y-214985188D01*
X139504757Y-215275500D01*
X134885001Y-215275500D01*
X134558955Y-215340355D01*
X134282546Y-215525045D01*
X133676910Y-216130681D01*
X133665072Y-216125766D01*
X133057593Y-216125236D01*
X132496154Y-216357218D01*
X132066227Y-216786395D01*
X131975064Y-217005941D01*
X131885283Y-216788655D01*
X131456106Y-216358728D01*
X130895072Y-216125766D01*
X130287593Y-216125236D01*
X129726154Y-216357218D01*
X129296227Y-216786395D01*
X129205064Y-217005941D01*
X129115283Y-216788655D01*
X128686106Y-216358728D01*
X128125072Y-216125766D01*
X127517593Y-216125236D01*
X126956154Y-216357218D01*
X126526227Y-216786395D01*
X126391663Y-217110461D01*
X126303864Y-216898496D01*
X126057745Y-216824362D01*
X125229605Y-217652501D01*
X126057745Y-218480640D01*
X126303864Y-218406506D01*
X126385494Y-218179402D01*
X126524717Y-218516347D01*
X126953894Y-218946274D01*
X127514928Y-219179236D01*
X128122407Y-219179766D01*
X128683846Y-218947784D01*
X129113773Y-218518607D01*
X129204936Y-218299061D01*
X129294717Y-218516347D01*
X129723894Y-218946274D01*
X130284928Y-219179236D01*
X130892407Y-219179766D01*
X131453846Y-218947784D01*
X131883773Y-218518607D01*
X131974936Y-218299061D01*
X132064717Y-218516347D01*
X132493894Y-218946274D01*
X133054928Y-219179236D01*
X133662407Y-219179766D01*
X134223846Y-218947784D01*
X134653773Y-218518607D01*
X134744936Y-218299061D01*
X134834717Y-218516347D01*
X135263894Y-218946274D01*
X135824928Y-219179236D01*
X136432407Y-219179766D01*
X136993846Y-218947784D01*
X137423773Y-218518607D01*
X137514936Y-218299061D01*
X137604717Y-218516347D01*
X138033894Y-218946274D01*
X138594928Y-219179236D01*
X139202407Y-219179766D01*
X139763846Y-218947784D01*
X140150500Y-218561805D01*
X140185182Y-218736162D01*
X140338452Y-218965546D01*
X139982593Y-218965236D01*
X139421154Y-219197218D01*
X138991227Y-219626395D01*
X138900064Y-219845941D01*
X138810283Y-219628655D01*
X138381106Y-219198728D01*
X137820072Y-218965766D01*
X137212593Y-218965236D01*
X136651154Y-219197218D01*
X136221227Y-219626395D01*
X136130064Y-219845941D01*
X136040283Y-219628655D01*
X135611106Y-219198728D01*
X135050072Y-218965766D01*
X134442593Y-218965236D01*
X133881154Y-219197218D01*
X133451227Y-219626395D01*
X133360064Y-219845941D01*
X133270283Y-219628655D01*
X132841106Y-219198728D01*
X132280072Y-218965766D01*
X131672593Y-218965236D01*
X131111154Y-219197218D01*
X130681227Y-219626395D01*
X130590064Y-219845941D01*
X130500283Y-219628655D01*
X130071106Y-219198728D01*
X129510072Y-218965766D01*
X128902593Y-218965236D01*
X128341154Y-219197218D01*
X127911227Y-219626395D01*
X127820064Y-219845941D01*
X127730283Y-219628655D01*
X127301106Y-219198728D01*
X126740072Y-218965766D01*
X126132593Y-218965236D01*
X125571154Y-219197218D01*
X125141227Y-219626395D01*
X125050064Y-219845941D01*
X124960283Y-219628655D01*
X124531106Y-219198728D01*
X123970072Y-218965766D01*
X123362593Y-218965236D01*
X122801154Y-219197218D01*
X122371227Y-219626395D01*
X122280064Y-219845941D01*
X122190283Y-219628655D01*
X121761106Y-219198728D01*
X121200072Y-218965766D01*
X120592593Y-218965236D01*
X120031154Y-219197218D01*
X119601227Y-219626395D01*
X119510064Y-219845941D01*
X119420283Y-219628655D01*
X118991106Y-219198728D01*
X118430072Y-218965766D01*
X117822593Y-218965236D01*
X117261154Y-219197218D01*
X116831227Y-219626395D01*
X116740064Y-219845941D01*
X116650283Y-219628655D01*
X116221106Y-219198728D01*
X115660072Y-218965766D01*
X115052593Y-218965236D01*
X114491154Y-219197218D01*
X114061227Y-219626395D01*
X113970064Y-219845941D01*
X113880283Y-219628655D01*
X113451106Y-219198728D01*
X112890072Y-218965766D01*
X112282593Y-218965236D01*
X111721154Y-219197218D01*
X111291227Y-219626395D01*
X111200064Y-219845941D01*
X111110283Y-219628655D01*
X110681106Y-219198728D01*
X110120072Y-218965766D01*
X109512593Y-218965236D01*
X108951154Y-219197218D01*
X108521227Y-219626395D01*
X108515370Y-219640501D01*
X107195411Y-219640501D01*
X106082000Y-218527090D01*
X106082000Y-216880000D01*
X106017145Y-216553954D01*
X105832455Y-216277545D01*
X104802832Y-215247922D01*
X105004842Y-215331804D01*
X105152022Y-215331932D01*
X106504174Y-216684084D01*
X106542855Y-216878547D01*
X106727545Y-217154956D01*
X106908180Y-217335591D01*
X106903265Y-217347429D01*
X106902735Y-217954908D01*
X107134717Y-218516347D01*
X107563894Y-218946274D01*
X108124928Y-219179236D01*
X108732407Y-219179766D01*
X109293846Y-218947784D01*
X109723773Y-218518607D01*
X109814936Y-218299061D01*
X109904717Y-218516347D01*
X110333894Y-218946274D01*
X110894928Y-219179236D01*
X111502407Y-219179766D01*
X112063846Y-218947784D01*
X112493773Y-218518607D01*
X112584936Y-218299061D01*
X112674717Y-218516347D01*
X113103894Y-218946274D01*
X113664928Y-219179236D01*
X114272407Y-219179766D01*
X114833846Y-218947784D01*
X115263773Y-218518607D01*
X115354936Y-218299061D01*
X115444717Y-218516347D01*
X115873894Y-218946274D01*
X116434928Y-219179236D01*
X117042407Y-219179766D01*
X117603846Y-218947784D01*
X118033773Y-218518607D01*
X118124936Y-218299061D01*
X118214717Y-218516347D01*
X118643894Y-218946274D01*
X119204928Y-219179236D01*
X119812407Y-219179766D01*
X120373846Y-218947784D01*
X120803773Y-218518607D01*
X120894936Y-218299061D01*
X120984717Y-218516347D01*
X121413894Y-218946274D01*
X121974928Y-219179236D01*
X122582407Y-219179766D01*
X123143846Y-218947784D01*
X123431886Y-218660246D01*
X124221861Y-218660246D01*
X124295995Y-218906365D01*
X124833223Y-219099466D01*
X125403454Y-219072279D01*
X125804005Y-218906365D01*
X125878139Y-218660246D01*
X125050000Y-217832106D01*
X124221861Y-218660246D01*
X123431886Y-218660246D01*
X123573773Y-218518607D01*
X123708337Y-218194541D01*
X123796136Y-218406506D01*
X124042255Y-218480640D01*
X124870395Y-217652501D01*
X124042255Y-216824362D01*
X123796136Y-216898496D01*
X123714506Y-217125600D01*
X123575283Y-216788655D01*
X123431636Y-216644756D01*
X124221861Y-216644756D01*
X125050000Y-217472896D01*
X125878139Y-216644756D01*
X125804005Y-216398637D01*
X125266777Y-216205536D01*
X124696546Y-216232723D01*
X124295995Y-216398637D01*
X124221861Y-216644756D01*
X123431636Y-216644756D01*
X123146106Y-216358728D01*
X122585072Y-216125766D01*
X121977593Y-216125236D01*
X121416154Y-216357218D01*
X120986227Y-216786395D01*
X120895064Y-217005941D01*
X120805283Y-216788655D01*
X120376106Y-216358728D01*
X119815072Y-216125766D01*
X119207593Y-216125236D01*
X118646154Y-216357218D01*
X118216227Y-216786395D01*
X118125064Y-217005941D01*
X118064805Y-216860105D01*
X119698147Y-215226763D01*
X120262505Y-215227256D01*
X120805560Y-215002870D01*
X121221409Y-214587746D01*
X121239766Y-214543537D01*
X121257130Y-214585560D01*
X121672254Y-215001409D01*
X122214918Y-215226743D01*
X122802505Y-215227256D01*
X123345560Y-215002870D01*
X123627404Y-214721517D01*
X124258088Y-214721517D01*
X124326077Y-214962460D01*
X124845171Y-215147201D01*
X125395448Y-215119230D01*
X125773923Y-214962460D01*
X125841912Y-214721517D01*
X125050000Y-213929605D01*
X124258088Y-214721517D01*
X123627404Y-214721517D01*
X123761409Y-214587746D01*
X123823124Y-214439120D01*
X123837540Y-214473923D01*
X124078483Y-214541912D01*
X124870395Y-213750000D01*
X124078483Y-212958088D01*
X123837540Y-213026077D01*
X123824332Y-213063189D01*
X123762870Y-212914440D01*
X123627151Y-212778483D01*
X124258088Y-212778483D01*
X125050000Y-213570395D01*
X125841912Y-212778483D01*
X125773923Y-212537540D01*
X125254829Y-212352799D01*
X124704552Y-212380770D01*
X124326077Y-212537540D01*
X124258088Y-212778483D01*
X123627151Y-212778483D01*
X123347746Y-212498591D01*
X123321925Y-212487869D01*
X123297145Y-212363293D01*
X123182000Y-212190966D01*
X123182000Y-207480000D01*
X123117145Y-207153954D01*
X122932455Y-206877545D01*
X114796153Y-198741243D01*
X129008857Y-198741243D01*
X126987545Y-200762555D01*
X126987545Y-200762555D01*
G37*
X126987545Y-200762555D02*
X126802855Y-201038964D01*
X126738000Y-201365010D01*
X126738000Y-212513541D01*
X126338591Y-212912254D01*
X126276876Y-213060880D01*
X126262460Y-213026077D01*
X126021517Y-212958088D01*
X125229605Y-213750000D01*
X126021517Y-214541912D01*
X126262460Y-214473923D01*
X126275668Y-214436811D01*
X126337130Y-214585560D01*
X126752254Y-215001409D01*
X127294918Y-215226743D01*
X127882505Y-215227256D01*
X128425560Y-215002870D01*
X128841409Y-214587746D01*
X128859766Y-214543537D01*
X128877130Y-214585560D01*
X129292254Y-215001409D01*
X129834918Y-215226743D01*
X130422505Y-215227256D01*
X130965560Y-215002870D01*
X131381409Y-214587746D01*
X131399766Y-214543537D01*
X131417130Y-214585560D01*
X131832254Y-215001409D01*
X132374918Y-215226743D01*
X132962505Y-215227256D01*
X133505560Y-215002870D01*
X133921409Y-214587746D01*
X133939766Y-214543537D01*
X133957130Y-214585560D01*
X134372254Y-215001409D01*
X134914918Y-215226743D01*
X135502505Y-215227256D01*
X136045560Y-215002870D01*
X136461409Y-214587746D01*
X136479766Y-214543537D01*
X136497130Y-214585560D01*
X136912254Y-215001409D01*
X137454918Y-215226743D01*
X138042505Y-215227256D01*
X138585560Y-215002870D01*
X139001409Y-214587746D01*
X139226743Y-214045082D01*
X139227256Y-213457495D01*
X139002870Y-212914440D01*
X138587746Y-212498591D01*
X138045082Y-212273257D01*
X137457495Y-212272744D01*
X136914440Y-212497130D01*
X136498591Y-212912254D01*
X136480234Y-212956463D01*
X136462870Y-212914440D01*
X136062000Y-212512870D01*
X136062000Y-208542700D01*
X142272500Y-208542700D01*
X142480119Y-209586469D01*
X143071366Y-210471334D01*
X143956231Y-211062581D01*
X145000000Y-211270200D01*
X146043769Y-211062581D01*
X146928634Y-210471334D01*
X147519881Y-209586469D01*
X147727500Y-208542700D01*
X147519881Y-207498931D01*
X146928634Y-206614066D01*
X146043769Y-206022819D01*
X145000000Y-205815200D01*
X143956231Y-206022819D01*
X143071366Y-206614066D01*
X142480119Y-207498931D01*
X142272500Y-208542700D01*
X136062000Y-208542700D01*
X136062000Y-203452910D01*
X137387870Y-202127040D01*
X150903000Y-202127040D01*
X150903000Y-208878336D01*
X150792440Y-208924019D01*
X150475133Y-209240772D01*
X150303196Y-209654842D01*
X150302805Y-210103191D01*
X150474019Y-210517560D01*
X150578000Y-210621723D01*
X150578000Y-212480000D01*
X150642855Y-212806046D01*
X150703095Y-212896201D01*
X150702805Y-213228191D01*
X150874019Y-213642560D01*
X150903000Y-213671592D01*
X150903000Y-214841130D01*
X150468630Y-215275500D01*
X141519070Y-215275500D01*
X141638801Y-214987155D01*
X141638929Y-214839975D01*
X141932455Y-214546449D01*
X142117145Y-214270040D01*
X142182000Y-213943994D01*
X142182000Y-212396915D01*
X142284867Y-212294228D01*
X142456804Y-211880158D01*
X142457195Y-211431809D01*
X142285981Y-211017440D01*
X141969228Y-210700133D01*
X141555158Y-210528196D01*
X141106809Y-210527805D01*
X140692440Y-210699019D01*
X140375133Y-211015772D01*
X140203196Y-211429842D01*
X140202805Y-211878191D01*
X140374019Y-212292560D01*
X140478000Y-212396723D01*
X140478000Y-213591084D01*
X140434155Y-213634929D01*
X140288806Y-213634802D01*
X139874437Y-213806016D01*
X139557130Y-214122769D01*
X139385193Y-214536839D01*
X139384802Y-214985188D01*
X139504757Y-215275500D01*
X134885001Y-215275500D01*
X134558955Y-215340355D01*
X134282546Y-215525045D01*
X133676910Y-216130681D01*
X133665072Y-216125766D01*
X133057593Y-216125236D01*
X132496154Y-216357218D01*
X132066227Y-216786395D01*
X131975064Y-217005941D01*
X131885283Y-216788655D01*
X131456106Y-216358728D01*
X130895072Y-216125766D01*
X130287593Y-216125236D01*
X129726154Y-216357218D01*
X129296227Y-216786395D01*
X129205064Y-217005941D01*
X129115283Y-216788655D01*
X128686106Y-216358728D01*
X128125072Y-216125766D01*
X127517593Y-216125236D01*
X126956154Y-216357218D01*
X126526227Y-216786395D01*
X126391663Y-217110461D01*
X126303864Y-216898496D01*
X126057745Y-216824362D01*
X125229605Y-217652501D01*
X126057745Y-218480640D01*
X126303864Y-218406506D01*
X126385494Y-218179402D01*
X126524717Y-218516347D01*
X126953894Y-218946274D01*
X127514928Y-219179236D01*
X128122407Y-219179766D01*
X128683846Y-218947784D01*
X129113773Y-218518607D01*
X129204936Y-218299061D01*
X129294717Y-218516347D01*
X129723894Y-218946274D01*
X130284928Y-219179236D01*
X130892407Y-219179766D01*
X131453846Y-218947784D01*
X131883773Y-218518607D01*
X131974936Y-218299061D01*
X132064717Y-218516347D01*
X132493894Y-218946274D01*
X133054928Y-219179236D01*
X133662407Y-219179766D01*
X134223846Y-218947784D01*
X134653773Y-218518607D01*
X134744936Y-218299061D01*
X134834717Y-218516347D01*
X135263894Y-218946274D01*
X135824928Y-219179236D01*
X136432407Y-219179766D01*
X136993846Y-218947784D01*
X137423773Y-218518607D01*
X137514936Y-218299061D01*
X137604717Y-218516347D01*
X138033894Y-218946274D01*
X138594928Y-219179236D01*
X139202407Y-219179766D01*
X139763846Y-218947784D01*
X140150500Y-218561805D01*
X140185182Y-218736162D01*
X140338452Y-218965546D01*
X139982593Y-218965236D01*
X139421154Y-219197218D01*
X138991227Y-219626395D01*
X138900064Y-219845941D01*
X138810283Y-219628655D01*
X138381106Y-219198728D01*
X137820072Y-218965766D01*
X137212593Y-218965236D01*
X136651154Y-219197218D01*
X136221227Y-219626395D01*
X136130064Y-219845941D01*
X136040283Y-219628655D01*
X135611106Y-219198728D01*
X135050072Y-218965766D01*
X134442593Y-218965236D01*
X133881154Y-219197218D01*
X133451227Y-219626395D01*
X133360064Y-219845941D01*
X133270283Y-219628655D01*
X132841106Y-219198728D01*
X132280072Y-218965766D01*
X131672593Y-218965236D01*
X131111154Y-219197218D01*
X130681227Y-219626395D01*
X130590064Y-219845941D01*
X130500283Y-219628655D01*
X130071106Y-219198728D01*
X129510072Y-218965766D01*
X128902593Y-218965236D01*
X128341154Y-219197218D01*
X127911227Y-219626395D01*
X127820064Y-219845941D01*
X127730283Y-219628655D01*
X127301106Y-219198728D01*
X126740072Y-218965766D01*
X126132593Y-218965236D01*
X125571154Y-219197218D01*
X125141227Y-219626395D01*
X125050064Y-219845941D01*
X124960283Y-219628655D01*
X124531106Y-219198728D01*
X123970072Y-218965766D01*
X123362593Y-218965236D01*
X122801154Y-219197218D01*
X122371227Y-219626395D01*
X122280064Y-219845941D01*
X122190283Y-219628655D01*
X121761106Y-219198728D01*
X121200072Y-218965766D01*
X120592593Y-218965236D01*
X120031154Y-219197218D01*
X119601227Y-219626395D01*
X119510064Y-219845941D01*
X119420283Y-219628655D01*
X118991106Y-219198728D01*
X118430072Y-218965766D01*
X117822593Y-218965236D01*
X117261154Y-219197218D01*
X116831227Y-219626395D01*
X116740064Y-219845941D01*
X116650283Y-219628655D01*
X116221106Y-219198728D01*
X115660072Y-218965766D01*
X115052593Y-218965236D01*
X114491154Y-219197218D01*
X114061227Y-219626395D01*
X113970064Y-219845941D01*
X113880283Y-219628655D01*
X113451106Y-219198728D01*
X112890072Y-218965766D01*
X112282593Y-218965236D01*
X111721154Y-219197218D01*
X111291227Y-219626395D01*
X111200064Y-219845941D01*
X111110283Y-219628655D01*
X110681106Y-219198728D01*
X110120072Y-218965766D01*
X109512593Y-218965236D01*
X108951154Y-219197218D01*
X108521227Y-219626395D01*
X108515370Y-219640501D01*
X107195411Y-219640501D01*
X106082000Y-218527090D01*
X106082000Y-216880000D01*
X106017145Y-216553954D01*
X105832455Y-216277545D01*
X104802832Y-215247922D01*
X105004842Y-215331804D01*
X105152022Y-215331932D01*
X106504174Y-216684084D01*
X106542855Y-216878547D01*
X106727545Y-217154956D01*
X106908180Y-217335591D01*
X106903265Y-217347429D01*
X106902735Y-217954908D01*
X107134717Y-218516347D01*
X107563894Y-218946274D01*
X108124928Y-219179236D01*
X108732407Y-219179766D01*
X109293846Y-218947784D01*
X109723773Y-218518607D01*
X109814936Y-218299061D01*
X109904717Y-218516347D01*
X110333894Y-218946274D01*
X110894928Y-219179236D01*
X111502407Y-219179766D01*
X112063846Y-218947784D01*
X112493773Y-218518607D01*
X112584936Y-218299061D01*
X112674717Y-218516347D01*
X113103894Y-218946274D01*
X113664928Y-219179236D01*
X114272407Y-219179766D01*
X114833846Y-218947784D01*
X115263773Y-218518607D01*
X115354936Y-218299061D01*
X115444717Y-218516347D01*
X115873894Y-218946274D01*
X116434928Y-219179236D01*
X117042407Y-219179766D01*
X117603846Y-218947784D01*
X118033773Y-218518607D01*
X118124936Y-218299061D01*
X118214717Y-218516347D01*
X118643894Y-218946274D01*
X119204928Y-219179236D01*
X119812407Y-219179766D01*
X120373846Y-218947784D01*
X120803773Y-218518607D01*
X120894936Y-218299061D01*
X120984717Y-218516347D01*
X121413894Y-218946274D01*
X121974928Y-219179236D01*
X122582407Y-219179766D01*
X123143846Y-218947784D01*
X123431886Y-218660246D01*
X124221861Y-218660246D01*
X124295995Y-218906365D01*
X124833223Y-219099466D01*
X125403454Y-219072279D01*
X125804005Y-218906365D01*
X125878139Y-218660246D01*
X125050000Y-217832106D01*
X124221861Y-218660246D01*
X123431886Y-218660246D01*
X123573773Y-218518607D01*
X123708337Y-218194541D01*
X123796136Y-218406506D01*
X124042255Y-218480640D01*
X124870395Y-217652501D01*
X124042255Y-216824362D01*
X123796136Y-216898496D01*
X123714506Y-217125600D01*
X123575283Y-216788655D01*
X123431636Y-216644756D01*
X124221861Y-216644756D01*
X125050000Y-217472896D01*
X125878139Y-216644756D01*
X125804005Y-216398637D01*
X125266777Y-216205536D01*
X124696546Y-216232723D01*
X124295995Y-216398637D01*
X124221861Y-216644756D01*
X123431636Y-216644756D01*
X123146106Y-216358728D01*
X122585072Y-216125766D01*
X121977593Y-216125236D01*
X121416154Y-216357218D01*
X120986227Y-216786395D01*
X120895064Y-217005941D01*
X120805283Y-216788655D01*
X120376106Y-216358728D01*
X119815072Y-216125766D01*
X119207593Y-216125236D01*
X118646154Y-216357218D01*
X118216227Y-216786395D01*
X118125064Y-217005941D01*
X118064805Y-216860105D01*
X119698147Y-215226763D01*
X120262505Y-215227256D01*
X120805560Y-215002870D01*
X121221409Y-214587746D01*
X121239766Y-214543537D01*
X121257130Y-214585560D01*
X121672254Y-215001409D01*
X122214918Y-215226743D01*
X122802505Y-215227256D01*
X123345560Y-215002870D01*
X123627404Y-214721517D01*
X124258088Y-214721517D01*
X124326077Y-214962460D01*
X124845171Y-215147201D01*
X125395448Y-215119230D01*
X125773923Y-214962460D01*
X125841912Y-214721517D01*
X125050000Y-213929605D01*
X124258088Y-214721517D01*
X123627404Y-214721517D01*
X123761409Y-214587746D01*
X123823124Y-214439120D01*
X123837540Y-214473923D01*
X124078483Y-214541912D01*
X124870395Y-213750000D01*
X124078483Y-212958088D01*
X123837540Y-213026077D01*
X123824332Y-213063189D01*
X123762870Y-212914440D01*
X123627151Y-212778483D01*
X124258088Y-212778483D01*
X125050000Y-213570395D01*
X125841912Y-212778483D01*
X125773923Y-212537540D01*
X125254829Y-212352799D01*
X124704552Y-212380770D01*
X124326077Y-212537540D01*
X124258088Y-212778483D01*
X123627151Y-212778483D01*
X123347746Y-212498591D01*
X123321925Y-212487869D01*
X123297145Y-212363293D01*
X123182000Y-212190966D01*
X123182000Y-207480000D01*
X123117145Y-207153954D01*
X122932455Y-206877545D01*
X114796153Y-198741243D01*
X129008857Y-198741243D01*
X126987545Y-200762555D01*
G36*
X150903000Y-188758757D02*
X125800000Y-188758757D01*
X125516339Y-188815181D01*
X125500000Y-188826098D01*
X125483661Y-188815181D01*
X125200000Y-188758757D01*
X124800000Y-188758757D01*
X124516339Y-188815181D01*
X124500000Y-188826098D01*
X124483661Y-188815181D01*
X124200000Y-188758757D01*
X99157000Y-188758757D01*
X99157000Y-183521758D01*
X107892155Y-183517337D01*
X107962425Y-183503322D01*
X108034077Y-183503286D01*
X108646308Y-183381183D01*
X108866187Y-183289976D01*
X110737022Y-183289976D01*
X111112106Y-185175649D01*
X112180253Y-186774245D01*
X113778849Y-187842392D01*
X115664522Y-188217476D01*
X117550195Y-187842392D01*
X119148791Y-186774245D01*
X120216938Y-185175649D01*
X120592022Y-183289976D01*
X120591060Y-183285137D01*
X122460730Y-183285137D01*
X122657066Y-184272185D01*
X123216184Y-185108963D01*
X124052962Y-185668081D01*
X125040010Y-185864417D01*
X126027058Y-185668081D01*
X126863836Y-185108963D01*
X127422954Y-184272185D01*
X127619290Y-183285137D01*
X127422954Y-182298089D01*
X126863836Y-181461311D01*
X126027058Y-180902193D01*
X125040010Y-180705857D01*
X124052962Y-180902193D01*
X123216184Y-181461311D01*
X122657066Y-182298089D01*
X122460730Y-183285137D01*
X120591060Y-183285137D01*
X120216938Y-181404303D01*
X119148791Y-179805707D01*
X117550195Y-178737560D01*
X115664522Y-178362476D01*
X113778849Y-178737560D01*
X112180253Y-179805707D01*
X111112106Y-181404303D01*
X110737022Y-183289976D01*
X108866187Y-183289976D01*
X108908502Y-183272424D01*
X109427404Y-182925325D01*
X109427405Y-182925324D01*
X109628020Y-182724506D01*
X109974593Y-182205252D01*
X110078398Y-181954285D01*
X110083087Y-181942949D01*
X110204570Y-181330594D01*
X110204426Y-181046738D01*
X110204426Y-181046737D01*
X110082323Y-180434505D01*
X110035696Y-180322098D01*
X109973564Y-180172312D01*
X109626465Y-179653410D01*
X109542724Y-179569754D01*
X109425646Y-179452794D01*
X108906393Y-179106221D01*
X108658169Y-179003551D01*
X108644089Y-178997727D01*
X108031734Y-178876244D01*
X107960082Y-178876280D01*
X107889799Y-178862337D01*
X99157000Y-178866757D01*
X99157000Y-176260643D01*
X150903000Y-176260643D01*
X150903000Y-188758757D01*
X150903000Y-188758757D01*
G37*
X150903000Y-188758757D02*
X125800000Y-188758757D01*
X125516339Y-188815181D01*
X125500000Y-188826098D01*
X125483661Y-188815181D01*
X125200000Y-188758757D01*
X124800000Y-188758757D01*
X124516339Y-188815181D01*
X124500000Y-188826098D01*
X124483661Y-188815181D01*
X124200000Y-188758757D01*
X99157000Y-188758757D01*
X99157000Y-183521758D01*
X107892155Y-183517337D01*
X107962425Y-183503322D01*
X108034077Y-183503286D01*
X108646308Y-183381183D01*
X108866187Y-183289976D01*
X110737022Y-183289976D01*
X111112106Y-185175649D01*
X112180253Y-186774245D01*
X113778849Y-187842392D01*
X115664522Y-188217476D01*
X117550195Y-187842392D01*
X119148791Y-186774245D01*
X120216938Y-185175649D01*
X120592022Y-183289976D01*
X120591060Y-183285137D01*
X122460730Y-183285137D01*
X122657066Y-184272185D01*
X123216184Y-185108963D01*
X124052962Y-185668081D01*
X125040010Y-185864417D01*
X126027058Y-185668081D01*
X126863836Y-185108963D01*
X127422954Y-184272185D01*
X127619290Y-183285137D01*
X127422954Y-182298089D01*
X126863836Y-181461311D01*
X126027058Y-180902193D01*
X125040010Y-180705857D01*
X124052962Y-180902193D01*
X123216184Y-181461311D01*
X122657066Y-182298089D01*
X122460730Y-183285137D01*
X120591060Y-183285137D01*
X120216938Y-181404303D01*
X119148791Y-179805707D01*
X117550195Y-178737560D01*
X115664522Y-178362476D01*
X113778849Y-178737560D01*
X112180253Y-179805707D01*
X111112106Y-181404303D01*
X110737022Y-183289976D01*
X108866187Y-183289976D01*
X108908502Y-183272424D01*
X109427404Y-182925325D01*
X109427405Y-182925324D01*
X109628020Y-182724506D01*
X109974593Y-182205252D01*
X110078398Y-181954285D01*
X110083087Y-181942949D01*
X110204570Y-181330594D01*
X110204426Y-181046738D01*
X110204426Y-181046737D01*
X110082323Y-180434505D01*
X110035696Y-180322098D01*
X109973564Y-180172312D01*
X109626465Y-179653410D01*
X109542724Y-179569754D01*
X109425646Y-179452794D01*
X108906393Y-179106221D01*
X108658169Y-179003551D01*
X108644089Y-178997727D01*
X108031734Y-178876244D01*
X107960082Y-178876280D01*
X107889799Y-178862337D01*
X99157000Y-178866757D01*
X99157000Y-176260643D01*
X150903000Y-176260643D01*
X150903000Y-188758757D01*
G36*
X150903000Y-156320392D02*
X142221639Y-156338080D01*
X142151396Y-156352201D01*
X142079739Y-156352347D01*
X141467695Y-156475387D01*
X141314096Y-156539377D01*
X141205668Y-156584548D01*
X140687298Y-156932441D01*
X140597737Y-157022368D01*
X140486990Y-157133567D01*
X140141212Y-157653352D01*
X140115101Y-157716756D01*
X140033120Y-157915820D01*
X139912575Y-158528361D01*
X139913153Y-158812217D01*
X140036193Y-159424261D01*
X140083608Y-159538073D01*
X140145354Y-159686288D01*
X140493247Y-160204657D01*
X140493248Y-160204658D01*
X140694374Y-160404966D01*
X141214158Y-160750744D01*
X141298502Y-160785479D01*
X141476627Y-160858836D01*
X142089167Y-160979381D01*
X142160825Y-160979235D01*
X142231123Y-160993069D01*
X150903000Y-160975400D01*
X150903000Y-166278157D01*
X125800000Y-166278157D01*
X125516339Y-166334581D01*
X125500000Y-166345498D01*
X125483661Y-166334581D01*
X125200000Y-166278157D01*
X124800000Y-166278157D01*
X124516339Y-166334581D01*
X124500000Y-166345498D01*
X124483661Y-166334581D01*
X124200000Y-166278157D01*
X99157000Y-166278157D01*
X99157000Y-160804489D01*
X122503453Y-160804489D01*
X122699789Y-161791537D01*
X123258907Y-162628315D01*
X124095685Y-163187433D01*
X125082733Y-163383769D01*
X126069781Y-163187433D01*
X126906559Y-162628315D01*
X127465677Y-161791537D01*
X127662013Y-160804489D01*
X127658232Y-160785479D01*
X129530703Y-160785479D01*
X129905787Y-162671152D01*
X130973934Y-164269748D01*
X132572530Y-165337895D01*
X134458203Y-165712979D01*
X136343876Y-165337895D01*
X137942472Y-164269748D01*
X139010619Y-162671152D01*
X139385703Y-160785479D01*
X139010619Y-158899806D01*
X137942472Y-157301210D01*
X136343876Y-156233063D01*
X134458203Y-155857979D01*
X132572530Y-156233063D01*
X130973934Y-157301210D01*
X129905787Y-158899806D01*
X129530703Y-160785479D01*
X127658232Y-160785479D01*
X127465677Y-159817441D01*
X126906559Y-158980663D01*
X126069781Y-158421545D01*
X125082733Y-158225209D01*
X124095685Y-158421545D01*
X123258907Y-158980663D01*
X122699789Y-159817441D01*
X122503453Y-160804489D01*
X99157000Y-160804489D01*
X99157000Y-153780043D01*
X150903000Y-153780043D01*
X150903000Y-156320392D01*
X150903000Y-156320392D01*
G37*
X150903000Y-156320392D02*
X142221639Y-156338080D01*
X142151396Y-156352201D01*
X142079739Y-156352347D01*
X141467695Y-156475387D01*
X141314096Y-156539377D01*
X141205668Y-156584548D01*
X140687298Y-156932441D01*
X140597737Y-157022368D01*
X140486990Y-157133567D01*
X140141212Y-157653352D01*
X140115101Y-157716756D01*
X140033120Y-157915820D01*
X139912575Y-158528361D01*
X139913153Y-158812217D01*
X140036193Y-159424261D01*
X140083608Y-159538073D01*
X140145354Y-159686288D01*
X140493247Y-160204657D01*
X140493248Y-160204658D01*
X140694374Y-160404966D01*
X141214158Y-160750744D01*
X141298502Y-160785479D01*
X141476627Y-160858836D01*
X142089167Y-160979381D01*
X142160825Y-160979235D01*
X142231123Y-160993069D01*
X150903000Y-160975400D01*
X150903000Y-166278157D01*
X125800000Y-166278157D01*
X125516339Y-166334581D01*
X125500000Y-166345498D01*
X125483661Y-166334581D01*
X125200000Y-166278157D01*
X124800000Y-166278157D01*
X124516339Y-166334581D01*
X124500000Y-166345498D01*
X124483661Y-166334581D01*
X124200000Y-166278157D01*
X99157000Y-166278157D01*
X99157000Y-160804489D01*
X122503453Y-160804489D01*
X122699789Y-161791537D01*
X123258907Y-162628315D01*
X124095685Y-163187433D01*
X125082733Y-163383769D01*
X126069781Y-163187433D01*
X126906559Y-162628315D01*
X127465677Y-161791537D01*
X127662013Y-160804489D01*
X127658232Y-160785479D01*
X129530703Y-160785479D01*
X129905787Y-162671152D01*
X130973934Y-164269748D01*
X132572530Y-165337895D01*
X134458203Y-165712979D01*
X136343876Y-165337895D01*
X137942472Y-164269748D01*
X139010619Y-162671152D01*
X139385703Y-160785479D01*
X139010619Y-158899806D01*
X137942472Y-157301210D01*
X136343876Y-156233063D01*
X134458203Y-155857979D01*
X132572530Y-156233063D01*
X130973934Y-157301210D01*
X129905787Y-158899806D01*
X129530703Y-160785479D01*
X127658232Y-160785479D01*
X127465677Y-159817441D01*
X126906559Y-158980663D01*
X126069781Y-158421545D01*
X125082733Y-158225209D01*
X124095685Y-158421545D01*
X123258907Y-158980663D01*
X122699789Y-159817441D01*
X122503453Y-160804489D01*
X99157000Y-160804489D01*
X99157000Y-153780043D01*
X150903000Y-153780043D01*
X150903000Y-156320392D01*
G36*
X150903000Y-143797557D02*
X125800000Y-143797557D01*
X125516339Y-143853981D01*
X125500000Y-143864898D01*
X125483661Y-143853981D01*
X125200000Y-143797557D01*
X124800000Y-143797557D01*
X124516339Y-143853981D01*
X124500000Y-143864898D01*
X124483661Y-143853981D01*
X124200000Y-143797557D01*
X99157000Y-143797557D01*
X99157000Y-138516105D01*
X107878151Y-138511691D01*
X107948418Y-138497677D01*
X108020072Y-138497641D01*
X108632303Y-138375539D01*
X108852186Y-138284330D01*
X110723019Y-138284330D01*
X111098103Y-140170003D01*
X112166250Y-141768599D01*
X113764846Y-142836746D01*
X115650519Y-143211830D01*
X117536192Y-142836746D01*
X119134788Y-141768599D01*
X120202935Y-140170003D01*
X120578019Y-138284330D01*
X120577057Y-138279492D01*
X122446727Y-138279492D01*
X122643063Y-139266540D01*
X123202181Y-140103318D01*
X124038959Y-140662436D01*
X125026007Y-140858772D01*
X126013055Y-140662436D01*
X126849833Y-140103318D01*
X127408951Y-139266540D01*
X127605287Y-138279492D01*
X127408951Y-137292444D01*
X126849833Y-136455666D01*
X126013055Y-135896548D01*
X125026007Y-135700212D01*
X124038959Y-135896548D01*
X123202181Y-136455666D01*
X122643063Y-137292444D01*
X122446727Y-138279492D01*
X120577057Y-138279492D01*
X120202935Y-136398657D01*
X119134788Y-134800061D01*
X117536192Y-133731914D01*
X115650519Y-133356830D01*
X113764846Y-133731914D01*
X112166250Y-134800061D01*
X111098103Y-136398657D01*
X110723019Y-138284330D01*
X108852186Y-138284330D01*
X108894498Y-138266779D01*
X109413400Y-137919680D01*
X109614015Y-137718861D01*
X109960589Y-137199609D01*
X110013891Y-137070741D01*
X110069084Y-136937304D01*
X110190567Y-136324949D01*
X110190423Y-136041093D01*
X110068322Y-135428861D01*
X109959562Y-135166667D01*
X109612463Y-134647765D01*
X109512104Y-134547508D01*
X109411644Y-134447149D01*
X108892391Y-134100576D01*
X108630087Y-133992081D01*
X108017732Y-133870598D01*
X107946074Y-133870634D01*
X107875796Y-133856692D01*
X99157000Y-133861105D01*
X99157000Y-131299443D01*
X150903000Y-131299443D01*
X150903000Y-143797557D01*
X150903000Y-143797557D01*
G37*
X150903000Y-143797557D02*
X125800000Y-143797557D01*
X125516339Y-143853981D01*
X125500000Y-143864898D01*
X125483661Y-143853981D01*
X125200000Y-143797557D01*
X124800000Y-143797557D01*
X124516339Y-143853981D01*
X124500000Y-143864898D01*
X124483661Y-143853981D01*
X124200000Y-143797557D01*
X99157000Y-143797557D01*
X99157000Y-138516105D01*
X107878151Y-138511691D01*
X107948418Y-138497677D01*
X108020072Y-138497641D01*
X108632303Y-138375539D01*
X108852186Y-138284330D01*
X110723019Y-138284330D01*
X111098103Y-140170003D01*
X112166250Y-141768599D01*
X113764846Y-142836746D01*
X115650519Y-143211830D01*
X117536192Y-142836746D01*
X119134788Y-141768599D01*
X120202935Y-140170003D01*
X120578019Y-138284330D01*
X120577057Y-138279492D01*
X122446727Y-138279492D01*
X122643063Y-139266540D01*
X123202181Y-140103318D01*
X124038959Y-140662436D01*
X125026007Y-140858772D01*
X126013055Y-140662436D01*
X126849833Y-140103318D01*
X127408951Y-139266540D01*
X127605287Y-138279492D01*
X127408951Y-137292444D01*
X126849833Y-136455666D01*
X126013055Y-135896548D01*
X125026007Y-135700212D01*
X124038959Y-135896548D01*
X123202181Y-136455666D01*
X122643063Y-137292444D01*
X122446727Y-138279492D01*
X120577057Y-138279492D01*
X120202935Y-136398657D01*
X119134788Y-134800061D01*
X117536192Y-133731914D01*
X115650519Y-133356830D01*
X113764846Y-133731914D01*
X112166250Y-134800061D01*
X111098103Y-136398657D01*
X110723019Y-138284330D01*
X108852186Y-138284330D01*
X108894498Y-138266779D01*
X109413400Y-137919680D01*
X109614015Y-137718861D01*
X109960589Y-137199609D01*
X110013891Y-137070741D01*
X110069084Y-136937304D01*
X110190567Y-136324949D01*
X110190423Y-136041093D01*
X110068322Y-135428861D01*
X109959562Y-135166667D01*
X109612463Y-134647765D01*
X109512104Y-134547508D01*
X109411644Y-134447149D01*
X108892391Y-134100576D01*
X108630087Y-133992081D01*
X108017732Y-133870598D01*
X107946074Y-133870634D01*
X107875796Y-133856692D01*
X99157000Y-133861105D01*
X99157000Y-131299443D01*
X150903000Y-131299443D01*
X150903000Y-143797557D01*
G36*
X150903000Y-111310179D02*
X142164395Y-111327984D01*
X142094152Y-111342105D01*
X142022495Y-111342251D01*
X141410451Y-111465291D01*
X141152377Y-111572806D01*
X141148424Y-111574453D01*
X140630055Y-111922346D01*
X140429748Y-112123471D01*
X140083970Y-112643254D01*
X139975877Y-112905723D01*
X139855332Y-113518264D01*
X139855910Y-113802120D01*
X139978950Y-114414164D01*
X140069298Y-114631031D01*
X140088112Y-114676191D01*
X140436004Y-115194560D01*
X140610390Y-115368236D01*
X140637130Y-115394867D01*
X141156913Y-115740645D01*
X141419383Y-115848738D01*
X142031923Y-115969283D01*
X142103571Y-115969137D01*
X142173879Y-115982973D01*
X150903000Y-115965187D01*
X150903000Y-121316957D01*
X125800000Y-121316957D01*
X125516339Y-121373381D01*
X125500000Y-121384298D01*
X125483661Y-121373381D01*
X125200000Y-121316957D01*
X124800000Y-121316957D01*
X124516339Y-121373381D01*
X124500000Y-121384298D01*
X124483661Y-121373381D01*
X124200000Y-121316957D01*
X99157000Y-121316957D01*
X99157000Y-115794393D01*
X122446209Y-115794393D01*
X122642545Y-116781441D01*
X123201663Y-117618219D01*
X124038441Y-118177337D01*
X125025489Y-118373673D01*
X126012537Y-118177337D01*
X126849315Y-117618219D01*
X127408433Y-116781441D01*
X127604769Y-115794393D01*
X127600988Y-115775383D01*
X129473459Y-115775383D01*
X129848543Y-117661056D01*
X130916690Y-119259652D01*
X132515286Y-120327799D01*
X134400959Y-120702883D01*
X136286632Y-120327799D01*
X137885228Y-119259652D01*
X138953375Y-117661056D01*
X139328459Y-115775383D01*
X138953375Y-113889710D01*
X137885228Y-112291114D01*
X136286632Y-111222967D01*
X134400959Y-110847883D01*
X132515286Y-111222967D01*
X130916690Y-112291114D01*
X129848543Y-113889710D01*
X129473459Y-115775383D01*
X127600988Y-115775383D01*
X127408433Y-114807345D01*
X126849315Y-113970567D01*
X126012537Y-113411449D01*
X125025489Y-113215113D01*
X124038441Y-113411449D01*
X123201663Y-113970567D01*
X122642545Y-114807345D01*
X122446209Y-115794393D01*
X99157000Y-115794393D01*
X99157000Y-108818843D01*
X150903000Y-108818843D01*
X150903000Y-111310179D01*
X150903000Y-111310179D01*
G37*
X150903000Y-111310179D02*
X142164395Y-111327984D01*
X142094152Y-111342105D01*
X142022495Y-111342251D01*
X141410451Y-111465291D01*
X141152377Y-111572806D01*
X141148424Y-111574453D01*
X140630055Y-111922346D01*
X140429748Y-112123471D01*
X140083970Y-112643254D01*
X139975877Y-112905723D01*
X139855332Y-113518264D01*
X139855910Y-113802120D01*
X139978950Y-114414164D01*
X140069298Y-114631031D01*
X140088112Y-114676191D01*
X140436004Y-115194560D01*
X140610390Y-115368236D01*
X140637130Y-115394867D01*
X141156913Y-115740645D01*
X141419383Y-115848738D01*
X142031923Y-115969283D01*
X142103571Y-115969137D01*
X142173879Y-115982973D01*
X150903000Y-115965187D01*
X150903000Y-121316957D01*
X125800000Y-121316957D01*
X125516339Y-121373381D01*
X125500000Y-121384298D01*
X125483661Y-121373381D01*
X125200000Y-121316957D01*
X124800000Y-121316957D01*
X124516339Y-121373381D01*
X124500000Y-121384298D01*
X124483661Y-121373381D01*
X124200000Y-121316957D01*
X99157000Y-121316957D01*
X99157000Y-115794393D01*
X122446209Y-115794393D01*
X122642545Y-116781441D01*
X123201663Y-117618219D01*
X124038441Y-118177337D01*
X125025489Y-118373673D01*
X126012537Y-118177337D01*
X126849315Y-117618219D01*
X127408433Y-116781441D01*
X127604769Y-115794393D01*
X127600988Y-115775383D01*
X129473459Y-115775383D01*
X129848543Y-117661056D01*
X130916690Y-119259652D01*
X132515286Y-120327799D01*
X134400959Y-120702883D01*
X136286632Y-120327799D01*
X137885228Y-119259652D01*
X138953375Y-117661056D01*
X139328459Y-115775383D01*
X138953375Y-113889710D01*
X137885228Y-112291114D01*
X136286632Y-111222967D01*
X134400959Y-110847883D01*
X132515286Y-111222967D01*
X130916690Y-112291114D01*
X129848543Y-113889710D01*
X129473459Y-115775383D01*
X127600988Y-115775383D01*
X127408433Y-114807345D01*
X126849315Y-113970567D01*
X126012537Y-113411449D01*
X125025489Y-113215113D01*
X124038441Y-113411449D01*
X123201663Y-113970567D01*
X122642545Y-114807345D01*
X122446209Y-115794393D01*
X99157000Y-115794393D01*
X99157000Y-108818843D01*
X150903000Y-108818843D01*
X150903000Y-111310179D01*
G36*
X150903000Y-98836357D02*
X125800000Y-98836357D01*
X125516339Y-98892781D01*
X125500000Y-98903698D01*
X125483661Y-98892781D01*
X125200000Y-98836357D01*
X124800000Y-98836357D01*
X124516339Y-98892781D01*
X124500000Y-98903698D01*
X124483661Y-98892781D01*
X124200000Y-98836357D01*
X99157000Y-98836357D01*
X99157000Y-93510452D01*
X107864148Y-93506045D01*
X107934418Y-93492030D01*
X108006070Y-93491994D01*
X108618301Y-93369891D01*
X108695173Y-93338004D01*
X108838180Y-93278684D01*
X110709015Y-93278684D01*
X111084099Y-95164357D01*
X112152246Y-96762953D01*
X113750842Y-97831100D01*
X115636515Y-98206184D01*
X117522188Y-97831100D01*
X119120784Y-96762953D01*
X120188931Y-95164357D01*
X120564015Y-93278684D01*
X120563053Y-93273846D01*
X122432723Y-93273846D01*
X122629059Y-94260894D01*
X123188177Y-95097672D01*
X124024955Y-95656790D01*
X125012003Y-95853126D01*
X125999051Y-95656790D01*
X126835829Y-95097672D01*
X127394947Y-94260894D01*
X127591283Y-93273846D01*
X127394947Y-92286798D01*
X126835829Y-91450020D01*
X125999051Y-90890902D01*
X125012003Y-90694566D01*
X124024955Y-90890902D01*
X123188177Y-91450020D01*
X122629059Y-92286798D01*
X122432723Y-93273846D01*
X120563053Y-93273846D01*
X120188931Y-91393011D01*
X119120784Y-89794415D01*
X117522188Y-88726268D01*
X115636515Y-88351184D01*
X113750842Y-88726268D01*
X112152246Y-89794415D01*
X111084099Y-91393011D01*
X110709015Y-93278684D01*
X108838180Y-93278684D01*
X108880494Y-93261132D01*
X109399396Y-92914033D01*
X109535114Y-92778177D01*
X109600012Y-92713214D01*
X109946585Y-92193962D01*
X110055079Y-91931658D01*
X110176562Y-91319303D01*
X110176418Y-91035447D01*
X110176418Y-91035446D01*
X110054315Y-90423215D01*
X109982683Y-90250527D01*
X109945556Y-90161022D01*
X109598457Y-89642120D01*
X109498098Y-89541863D01*
X109397638Y-89441504D01*
X108878386Y-89094931D01*
X108616082Y-88986437D01*
X108003727Y-88864954D01*
X107932080Y-88864990D01*
X107861792Y-88851046D01*
X99157000Y-88855451D01*
X99157000Y-86338243D01*
X150903000Y-86338243D01*
X150903000Y-98836357D01*
X150903000Y-98836357D01*
G37*
X150903000Y-98836357D02*
X125800000Y-98836357D01*
X125516339Y-98892781D01*
X125500000Y-98903698D01*
X125483661Y-98892781D01*
X125200000Y-98836357D01*
X124800000Y-98836357D01*
X124516339Y-98892781D01*
X124500000Y-98903698D01*
X124483661Y-98892781D01*
X124200000Y-98836357D01*
X99157000Y-98836357D01*
X99157000Y-93510452D01*
X107864148Y-93506045D01*
X107934418Y-93492030D01*
X108006070Y-93491994D01*
X108618301Y-93369891D01*
X108695173Y-93338004D01*
X108838180Y-93278684D01*
X110709015Y-93278684D01*
X111084099Y-95164357D01*
X112152246Y-96762953D01*
X113750842Y-97831100D01*
X115636515Y-98206184D01*
X117522188Y-97831100D01*
X119120784Y-96762953D01*
X120188931Y-95164357D01*
X120564015Y-93278684D01*
X120563053Y-93273846D01*
X122432723Y-93273846D01*
X122629059Y-94260894D01*
X123188177Y-95097672D01*
X124024955Y-95656790D01*
X125012003Y-95853126D01*
X125999051Y-95656790D01*
X126835829Y-95097672D01*
X127394947Y-94260894D01*
X127591283Y-93273846D01*
X127394947Y-92286798D01*
X126835829Y-91450020D01*
X125999051Y-90890902D01*
X125012003Y-90694566D01*
X124024955Y-90890902D01*
X123188177Y-91450020D01*
X122629059Y-92286798D01*
X122432723Y-93273846D01*
X120563053Y-93273846D01*
X120188931Y-91393011D01*
X119120784Y-89794415D01*
X117522188Y-88726268D01*
X115636515Y-88351184D01*
X113750842Y-88726268D01*
X112152246Y-89794415D01*
X111084099Y-91393011D01*
X110709015Y-93278684D01*
X108838180Y-93278684D01*
X108880494Y-93261132D01*
X109399396Y-92914033D01*
X109535114Y-92778177D01*
X109600012Y-92713214D01*
X109946585Y-92193962D01*
X110055079Y-91931658D01*
X110176562Y-91319303D01*
X110176418Y-91035447D01*
X110176418Y-91035446D01*
X110054315Y-90423215D01*
X109982683Y-90250527D01*
X109945556Y-90161022D01*
X109598457Y-89642120D01*
X109498098Y-89541863D01*
X109397638Y-89441504D01*
X108878386Y-89094931D01*
X108616082Y-88986437D01*
X108003727Y-88864954D01*
X107932080Y-88864990D01*
X107861792Y-88851046D01*
X99157000Y-88855451D01*
X99157000Y-86338243D01*
X150903000Y-86338243D01*
X150903000Y-98836357D01*
G36*
X150903000Y-66299965D02*
X142107151Y-66317887D01*
X142036908Y-66332008D01*
X141965251Y-66332154D01*
X141353207Y-66455194D01*
X141199608Y-66519184D01*
X141091180Y-66564355D01*
X140572810Y-66912248D01*
X140483250Y-67002174D01*
X140372502Y-67113374D01*
X140026724Y-67633159D01*
X140000613Y-67696563D01*
X139918632Y-67895627D01*
X139798087Y-68508168D01*
X139798665Y-68792024D01*
X139921705Y-69404068D01*
X139969635Y-69519117D01*
X140030866Y-69666095D01*
X140378759Y-70184464D01*
X140378760Y-70184465D01*
X140579886Y-70384773D01*
X141099670Y-70730551D01*
X141230174Y-70784296D01*
X141362139Y-70838643D01*
X141974679Y-70959188D01*
X142046332Y-70959042D01*
X142116635Y-70972877D01*
X150903000Y-70954975D01*
X150903000Y-76355757D01*
X125800000Y-76355757D01*
X125516339Y-76412181D01*
X125500000Y-76423098D01*
X125483661Y-76412181D01*
X125200000Y-76355757D01*
X124800000Y-76355757D01*
X124516339Y-76412181D01*
X124500000Y-76423098D01*
X124483661Y-76412181D01*
X124200000Y-76355757D01*
X99157000Y-76355757D01*
X99157000Y-70784296D01*
X122388964Y-70784296D01*
X122585300Y-71771344D01*
X123144418Y-72608122D01*
X123981196Y-73167240D01*
X124968244Y-73363576D01*
X125955292Y-73167240D01*
X126792070Y-72608122D01*
X127351188Y-71771344D01*
X127547524Y-70784296D01*
X127543743Y-70765287D01*
X129416214Y-70765287D01*
X129791298Y-72650960D01*
X130859445Y-74249556D01*
X132458041Y-75317703D01*
X134343714Y-75692787D01*
X136229387Y-75317703D01*
X137827983Y-74249556D01*
X138896130Y-72650960D01*
X139271214Y-70765287D01*
X138896130Y-68879614D01*
X137827983Y-67281018D01*
X136229387Y-66212871D01*
X134343714Y-65837787D01*
X132458041Y-66212871D01*
X130859445Y-67281018D01*
X129791298Y-68879614D01*
X129416214Y-70765287D01*
X127543743Y-70765287D01*
X127351188Y-69797248D01*
X126792070Y-68960470D01*
X125955292Y-68401352D01*
X124968244Y-68205016D01*
X123981196Y-68401352D01*
X123144418Y-68960470D01*
X122585300Y-69797248D01*
X122388964Y-70784296D01*
X99157000Y-70784296D01*
X99157000Y-63857643D01*
X150903000Y-63857643D01*
X150903000Y-66299965D01*
X150903000Y-66299965D01*
G37*
X150903000Y-66299965D02*
X142107151Y-66317887D01*
X142036908Y-66332008D01*
X141965251Y-66332154D01*
X141353207Y-66455194D01*
X141199608Y-66519184D01*
X141091180Y-66564355D01*
X140572810Y-66912248D01*
X140483250Y-67002174D01*
X140372502Y-67113374D01*
X140026724Y-67633159D01*
X140000613Y-67696563D01*
X139918632Y-67895627D01*
X139798087Y-68508168D01*
X139798665Y-68792024D01*
X139921705Y-69404068D01*
X139969635Y-69519117D01*
X140030866Y-69666095D01*
X140378759Y-70184464D01*
X140378760Y-70184465D01*
X140579886Y-70384773D01*
X141099670Y-70730551D01*
X141230174Y-70784296D01*
X141362139Y-70838643D01*
X141974679Y-70959188D01*
X142046332Y-70959042D01*
X142116635Y-70972877D01*
X150903000Y-70954975D01*
X150903000Y-76355757D01*
X125800000Y-76355757D01*
X125516339Y-76412181D01*
X125500000Y-76423098D01*
X125483661Y-76412181D01*
X125200000Y-76355757D01*
X124800000Y-76355757D01*
X124516339Y-76412181D01*
X124500000Y-76423098D01*
X124483661Y-76412181D01*
X124200000Y-76355757D01*
X99157000Y-76355757D01*
X99157000Y-70784296D01*
X122388964Y-70784296D01*
X122585300Y-71771344D01*
X123144418Y-72608122D01*
X123981196Y-73167240D01*
X124968244Y-73363576D01*
X125955292Y-73167240D01*
X126792070Y-72608122D01*
X127351188Y-71771344D01*
X127547524Y-70784296D01*
X127543743Y-70765287D01*
X129416214Y-70765287D01*
X129791298Y-72650960D01*
X130859445Y-74249556D01*
X132458041Y-75317703D01*
X134343714Y-75692787D01*
X136229387Y-75317703D01*
X137827983Y-74249556D01*
X138896130Y-72650960D01*
X139271214Y-70765287D01*
X138896130Y-68879614D01*
X137827983Y-67281018D01*
X136229387Y-66212871D01*
X134343714Y-65837787D01*
X132458041Y-66212871D01*
X130859445Y-67281018D01*
X129791298Y-68879614D01*
X129416214Y-70765287D01*
X127543743Y-70765287D01*
X127351188Y-69797248D01*
X126792070Y-68960470D01*
X125955292Y-68401352D01*
X124968244Y-68205016D01*
X123981196Y-68401352D01*
X123144418Y-68960470D01*
X122585300Y-69797248D01*
X122388964Y-70784296D01*
X99157000Y-70784296D01*
X99157000Y-63857643D01*
X150903000Y-63857643D01*
X150903000Y-66299965D01*
G36*
X150903000Y-53336405D02*
X150727545Y-53511860D01*
X150542855Y-53788269D01*
X150525572Y-53875157D01*
X125800000Y-53875157D01*
X125516339Y-53931581D01*
X125500000Y-53942498D01*
X125483661Y-53931581D01*
X125200000Y-53875157D01*
X124800000Y-53875157D01*
X124516339Y-53931581D01*
X124500000Y-53942498D01*
X124483661Y-53931581D01*
X124200000Y-53875157D01*
X99157000Y-53875157D01*
X99157000Y-48504800D01*
X107850145Y-48500400D01*
X107920415Y-48486385D01*
X107992067Y-48486349D01*
X108604298Y-48364246D01*
X108824180Y-48273038D01*
X110695012Y-48273038D01*
X111070096Y-50158711D01*
X112138243Y-51757307D01*
X113736839Y-52825454D01*
X115622512Y-53200538D01*
X117508185Y-52825454D01*
X119106781Y-51757307D01*
X120174928Y-50158711D01*
X120550012Y-48273038D01*
X120549050Y-48268200D01*
X122418720Y-48268200D01*
X122615056Y-49255248D01*
X123174174Y-50092026D01*
X124010952Y-50651144D01*
X124998000Y-50847480D01*
X125985048Y-50651144D01*
X126821826Y-50092026D01*
X127380944Y-49255248D01*
X127577280Y-48268200D01*
X127380944Y-47281152D01*
X126821826Y-46444374D01*
X125985048Y-45885256D01*
X124998000Y-45688920D01*
X124010952Y-45885256D01*
X123174174Y-46444374D01*
X122615056Y-47281152D01*
X122418720Y-48268200D01*
X120549050Y-48268200D01*
X120174928Y-46387365D01*
X119106781Y-44788769D01*
X117508185Y-43720622D01*
X115622512Y-43345538D01*
X113736839Y-43720622D01*
X112138243Y-44788769D01*
X111070096Y-46387365D01*
X110695012Y-48273038D01*
X108824180Y-48273038D01*
X108866492Y-48255487D01*
X109385394Y-47908388D01*
X109385395Y-47908387D01*
X109586010Y-47707569D01*
X109932583Y-47188315D01*
X110036388Y-46937348D01*
X110041077Y-46926012D01*
X110162560Y-46313657D01*
X110162416Y-46029801D01*
X110162416Y-46029800D01*
X110040313Y-45417568D01*
X109993810Y-45305461D01*
X109931554Y-45155375D01*
X109584455Y-44636473D01*
X109500714Y-44552817D01*
X109383636Y-44435857D01*
X108864383Y-44089284D01*
X108678828Y-44012535D01*
X108602079Y-43980790D01*
X107989724Y-43859307D01*
X107918072Y-43859343D01*
X107847789Y-43845400D01*
X99157000Y-43849798D01*
X99157000Y-41377043D01*
X150903000Y-41377043D01*
X150903000Y-53336405D01*
X150903000Y-53336405D01*
G37*
X150903000Y-53336405D02*
X150727545Y-53511860D01*
X150542855Y-53788269D01*
X150525572Y-53875157D01*
X125800000Y-53875157D01*
X125516339Y-53931581D01*
X125500000Y-53942498D01*
X125483661Y-53931581D01*
X125200000Y-53875157D01*
X124800000Y-53875157D01*
X124516339Y-53931581D01*
X124500000Y-53942498D01*
X124483661Y-53931581D01*
X124200000Y-53875157D01*
X99157000Y-53875157D01*
X99157000Y-48504800D01*
X107850145Y-48500400D01*
X107920415Y-48486385D01*
X107992067Y-48486349D01*
X108604298Y-48364246D01*
X108824180Y-48273038D01*
X110695012Y-48273038D01*
X111070096Y-50158711D01*
X112138243Y-51757307D01*
X113736839Y-52825454D01*
X115622512Y-53200538D01*
X117508185Y-52825454D01*
X119106781Y-51757307D01*
X120174928Y-50158711D01*
X120550012Y-48273038D01*
X120549050Y-48268200D01*
X122418720Y-48268200D01*
X122615056Y-49255248D01*
X123174174Y-50092026D01*
X124010952Y-50651144D01*
X124998000Y-50847480D01*
X125985048Y-50651144D01*
X126821826Y-50092026D01*
X127380944Y-49255248D01*
X127577280Y-48268200D01*
X127380944Y-47281152D01*
X126821826Y-46444374D01*
X125985048Y-45885256D01*
X124998000Y-45688920D01*
X124010952Y-45885256D01*
X123174174Y-46444374D01*
X122615056Y-47281152D01*
X122418720Y-48268200D01*
X120549050Y-48268200D01*
X120174928Y-46387365D01*
X119106781Y-44788769D01*
X117508185Y-43720622D01*
X115622512Y-43345538D01*
X113736839Y-43720622D01*
X112138243Y-44788769D01*
X111070096Y-46387365D01*
X110695012Y-48273038D01*
X108824180Y-48273038D01*
X108866492Y-48255487D01*
X109385394Y-47908388D01*
X109385395Y-47908387D01*
X109586010Y-47707569D01*
X109932583Y-47188315D01*
X110036388Y-46937348D01*
X110041077Y-46926012D01*
X110162560Y-46313657D01*
X110162416Y-46029801D01*
X110162416Y-46029800D01*
X110040313Y-45417568D01*
X109993810Y-45305461D01*
X109931554Y-45155375D01*
X109584455Y-44636473D01*
X109500714Y-44552817D01*
X109383636Y-44435857D01*
X108864383Y-44089284D01*
X108678828Y-44012535D01*
X108602079Y-43980790D01*
X107989724Y-43859307D01*
X107918072Y-43859343D01*
X107847789Y-43845400D01*
X99157000Y-43849798D01*
X99157000Y-41377043D01*
X150903000Y-41377043D01*
X150903000Y-53336405D01*
G36*
X150903000Y-17827980D02*
X138127395Y-17827980D01*
X138585560Y-17638670D01*
X139001409Y-17223546D01*
X139226743Y-16680882D01*
X139227256Y-16093295D01*
X139002870Y-15550240D01*
X138587746Y-15134391D01*
X138281437Y-15007200D01*
X142272500Y-15007200D01*
X142480119Y-16050969D01*
X143071366Y-16935834D01*
X143956231Y-17527081D01*
X145000000Y-17734700D01*
X146043769Y-17527081D01*
X146928634Y-16935834D01*
X147519881Y-16050969D01*
X147727500Y-15007200D01*
X147519881Y-13963431D01*
X146928634Y-13078566D01*
X146043769Y-12487319D01*
X145000000Y-12279700D01*
X143956231Y-12487319D01*
X143071366Y-13078566D01*
X142480119Y-13963431D01*
X142272500Y-15007200D01*
X138281437Y-15007200D01*
X138045082Y-14909057D01*
X137457495Y-14908544D01*
X136914440Y-15132930D01*
X136498591Y-15548054D01*
X136480234Y-15592263D01*
X136462870Y-15550240D01*
X136047746Y-15134391D01*
X135505082Y-14909057D01*
X134917495Y-14908544D01*
X134374440Y-15132930D01*
X133958591Y-15548054D01*
X133940234Y-15592263D01*
X133922870Y-15550240D01*
X133507746Y-15134391D01*
X132965082Y-14909057D01*
X132377495Y-14908544D01*
X131834440Y-15132930D01*
X131418591Y-15548054D01*
X131400234Y-15592263D01*
X131382870Y-15550240D01*
X130967746Y-15134391D01*
X130425082Y-14909057D01*
X129837495Y-14908544D01*
X129294440Y-15132930D01*
X128878591Y-15548054D01*
X128860234Y-15592263D01*
X128842870Y-15550240D01*
X128427746Y-15134391D01*
X127885082Y-14909057D01*
X127297495Y-14908544D01*
X126754440Y-15132930D01*
X126338591Y-15548054D01*
X126276876Y-15696680D01*
X126262460Y-15661877D01*
X126021517Y-15593888D01*
X125229605Y-16385800D01*
X126021517Y-17177712D01*
X126262460Y-17109723D01*
X126275668Y-17072611D01*
X126337130Y-17221360D01*
X126752254Y-17637209D01*
X126778075Y-17647931D01*
X126802855Y-17772506D01*
X126987545Y-18048915D01*
X127178000Y-18239370D01*
X127178000Y-24613630D01*
X126734826Y-23950374D01*
X125898048Y-23391256D01*
X124911000Y-23194920D01*
X123923952Y-23391256D01*
X123087174Y-23950374D01*
X122528056Y-24787152D01*
X122331720Y-25774200D01*
X122528056Y-26761248D01*
X123087174Y-27598026D01*
X123923952Y-28157144D01*
X124911000Y-28353480D01*
X125898048Y-28157144D01*
X126734826Y-27598026D01*
X127178000Y-26934770D01*
X127178000Y-29180000D01*
X127242855Y-29506046D01*
X127427545Y-29782455D01*
X129039647Y-31394557D01*
X125800000Y-31394557D01*
X125516339Y-31450981D01*
X125500000Y-31461898D01*
X125483661Y-31450981D01*
X125200000Y-31394557D01*
X124800000Y-31394557D01*
X124516339Y-31450981D01*
X124500000Y-31461898D01*
X124483661Y-31450981D01*
X124200000Y-31394557D01*
X111420353Y-31394557D01*
X123112455Y-19702455D01*
X123297145Y-19426046D01*
X123362000Y-19100000D01*
X123362000Y-17622259D01*
X123627404Y-17357317D01*
X124258088Y-17357317D01*
X124326077Y-17598260D01*
X124845171Y-17783001D01*
X125395448Y-17755030D01*
X125773923Y-17598260D01*
X125841912Y-17357317D01*
X125050000Y-16565405D01*
X124258088Y-17357317D01*
X123627404Y-17357317D01*
X123761409Y-17223546D01*
X123823124Y-17074920D01*
X123837540Y-17109723D01*
X124078483Y-17177712D01*
X124870395Y-16385800D01*
X124078483Y-15593888D01*
X123837540Y-15661877D01*
X123824332Y-15698989D01*
X123762870Y-15550240D01*
X123627151Y-15414283D01*
X124258088Y-15414283D01*
X125050000Y-16206195D01*
X125841912Y-15414283D01*
X125773923Y-15173340D01*
X125254829Y-14988599D01*
X124704552Y-15016570D01*
X124326077Y-15173340D01*
X124258088Y-15414283D01*
X123627151Y-15414283D01*
X123347746Y-15134391D01*
X122805082Y-14909057D01*
X122217495Y-14908544D01*
X121674440Y-15132930D01*
X121258591Y-15548054D01*
X121240234Y-15592263D01*
X121222870Y-15550240D01*
X120807746Y-15134391D01*
X120265082Y-14909057D01*
X119677495Y-14908544D01*
X119134440Y-15132930D01*
X118718591Y-15548054D01*
X118700234Y-15592263D01*
X118682870Y-15550240D01*
X118267746Y-15134391D01*
X117725082Y-14909057D01*
X117137495Y-14908544D01*
X116594440Y-15132930D01*
X116178591Y-15548054D01*
X116160234Y-15592263D01*
X116142870Y-15550240D01*
X115727746Y-15134391D01*
X115185082Y-14909057D01*
X114597495Y-14908544D01*
X114054440Y-15132930D01*
X113652870Y-15533800D01*
X108024200Y-15533800D01*
X107698154Y-15598655D01*
X107596317Y-15666700D01*
X107727500Y-15007200D01*
X107519881Y-13963431D01*
X106928634Y-13078566D01*
X106043769Y-12487319D01*
X105000000Y-12279700D01*
X103956231Y-12487319D01*
X103071366Y-13078566D01*
X102480119Y-13963431D01*
X102272500Y-15007200D01*
X102480119Y-16050969D01*
X103071366Y-16935834D01*
X103956231Y-17527081D01*
X105000000Y-17734700D01*
X106043769Y-17527081D01*
X106928634Y-16935834D01*
X107172200Y-16571311D01*
X107172200Y-16732890D01*
X99157000Y-24748090D01*
X99157000Y-8207000D01*
X150903000Y-8207000D01*
X150903000Y-17827980D01*
X150903000Y-17827980D01*
G37*
X150903000Y-17827980D02*
X138127395Y-17827980D01*
X138585560Y-17638670D01*
X139001409Y-17223546D01*
X139226743Y-16680882D01*
X139227256Y-16093295D01*
X139002870Y-15550240D01*
X138587746Y-15134391D01*
X138281437Y-15007200D01*
X142272500Y-15007200D01*
X142480119Y-16050969D01*
X143071366Y-16935834D01*
X143956231Y-17527081D01*
X145000000Y-17734700D01*
X146043769Y-17527081D01*
X146928634Y-16935834D01*
X147519881Y-16050969D01*
X147727500Y-15007200D01*
X147519881Y-13963431D01*
X146928634Y-13078566D01*
X146043769Y-12487319D01*
X145000000Y-12279700D01*
X143956231Y-12487319D01*
X143071366Y-13078566D01*
X142480119Y-13963431D01*
X142272500Y-15007200D01*
X138281437Y-15007200D01*
X138045082Y-14909057D01*
X137457495Y-14908544D01*
X136914440Y-15132930D01*
X136498591Y-15548054D01*
X136480234Y-15592263D01*
X136462870Y-15550240D01*
X136047746Y-15134391D01*
X135505082Y-14909057D01*
X134917495Y-14908544D01*
X134374440Y-15132930D01*
X133958591Y-15548054D01*
X133940234Y-15592263D01*
X133922870Y-15550240D01*
X133507746Y-15134391D01*
X132965082Y-14909057D01*
X132377495Y-14908544D01*
X131834440Y-15132930D01*
X131418591Y-15548054D01*
X131400234Y-15592263D01*
X131382870Y-15550240D01*
X130967746Y-15134391D01*
X130425082Y-14909057D01*
X129837495Y-14908544D01*
X129294440Y-15132930D01*
X128878591Y-15548054D01*
X128860234Y-15592263D01*
X128842870Y-15550240D01*
X128427746Y-15134391D01*
X127885082Y-14909057D01*
X127297495Y-14908544D01*
X126754440Y-15132930D01*
X126338591Y-15548054D01*
X126276876Y-15696680D01*
X126262460Y-15661877D01*
X126021517Y-15593888D01*
X125229605Y-16385800D01*
X126021517Y-17177712D01*
X126262460Y-17109723D01*
X126275668Y-17072611D01*
X126337130Y-17221360D01*
X126752254Y-17637209D01*
X126778075Y-17647931D01*
X126802855Y-17772506D01*
X126987545Y-18048915D01*
X127178000Y-18239370D01*
X127178000Y-24613630D01*
X126734826Y-23950374D01*
X125898048Y-23391256D01*
X124911000Y-23194920D01*
X123923952Y-23391256D01*
X123087174Y-23950374D01*
X122528056Y-24787152D01*
X122331720Y-25774200D01*
X122528056Y-26761248D01*
X123087174Y-27598026D01*
X123923952Y-28157144D01*
X124911000Y-28353480D01*
X125898048Y-28157144D01*
X126734826Y-27598026D01*
X127178000Y-26934770D01*
X127178000Y-29180000D01*
X127242855Y-29506046D01*
X127427545Y-29782455D01*
X129039647Y-31394557D01*
X125800000Y-31394557D01*
X125516339Y-31450981D01*
X125500000Y-31461898D01*
X125483661Y-31450981D01*
X125200000Y-31394557D01*
X124800000Y-31394557D01*
X124516339Y-31450981D01*
X124500000Y-31461898D01*
X124483661Y-31450981D01*
X124200000Y-31394557D01*
X111420353Y-31394557D01*
X123112455Y-19702455D01*
X123297145Y-19426046D01*
X123362000Y-19100000D01*
X123362000Y-17622259D01*
X123627404Y-17357317D01*
X124258088Y-17357317D01*
X124326077Y-17598260D01*
X124845171Y-17783001D01*
X125395448Y-17755030D01*
X125773923Y-17598260D01*
X125841912Y-17357317D01*
X125050000Y-16565405D01*
X124258088Y-17357317D01*
X123627404Y-17357317D01*
X123761409Y-17223546D01*
X123823124Y-17074920D01*
X123837540Y-17109723D01*
X124078483Y-17177712D01*
X124870395Y-16385800D01*
X124078483Y-15593888D01*
X123837540Y-15661877D01*
X123824332Y-15698989D01*
X123762870Y-15550240D01*
X123627151Y-15414283D01*
X124258088Y-15414283D01*
X125050000Y-16206195D01*
X125841912Y-15414283D01*
X125773923Y-15173340D01*
X125254829Y-14988599D01*
X124704552Y-15016570D01*
X124326077Y-15173340D01*
X124258088Y-15414283D01*
X123627151Y-15414283D01*
X123347746Y-15134391D01*
X122805082Y-14909057D01*
X122217495Y-14908544D01*
X121674440Y-15132930D01*
X121258591Y-15548054D01*
X121240234Y-15592263D01*
X121222870Y-15550240D01*
X120807746Y-15134391D01*
X120265082Y-14909057D01*
X119677495Y-14908544D01*
X119134440Y-15132930D01*
X118718591Y-15548054D01*
X118700234Y-15592263D01*
X118682870Y-15550240D01*
X118267746Y-15134391D01*
X117725082Y-14909057D01*
X117137495Y-14908544D01*
X116594440Y-15132930D01*
X116178591Y-15548054D01*
X116160234Y-15592263D01*
X116142870Y-15550240D01*
X115727746Y-15134391D01*
X115185082Y-14909057D01*
X114597495Y-14908544D01*
X114054440Y-15132930D01*
X113652870Y-15533800D01*
X108024200Y-15533800D01*
X107698154Y-15598655D01*
X107596317Y-15666700D01*
X107727500Y-15007200D01*
X107519881Y-13963431D01*
X106928634Y-13078566D01*
X106043769Y-12487319D01*
X105000000Y-12279700D01*
X103956231Y-12487319D01*
X103071366Y-13078566D01*
X102480119Y-13963431D01*
X102272500Y-15007200D01*
X102480119Y-16050969D01*
X103071366Y-16935834D01*
X103956231Y-17527081D01*
X105000000Y-17734700D01*
X106043769Y-17527081D01*
X106928634Y-16935834D01*
X107172200Y-16571311D01*
X107172200Y-16732890D01*
X99157000Y-24748090D01*
X99157000Y-8207000D01*
X150903000Y-8207000D01*
X150903000Y-17827980D01*
%TD*%
M02*
