M48
;DRILL file {KiCad (2017-11-10 revision d8f4e35)-HEAD} date Wed Dec  6 14:26:29 2017
;FORMAT={-:-/ absolute / inch / decimal}
FMAT,2
INCH,TZ
T1C0.016
T2C0.039
T3C0.126
%
G90
G05
M72
T1
X3.6547Y-7.8299
X3.7098Y-1.2157
X3.7236Y-7.8201
X3.7925Y-1.2787
X3.7925Y-3.9283
X3.7954Y-7.8292
X3.8183Y-1.2021
X3.8201Y-2.1567
X3.824Y-3.0386
X3.824Y-4.8142
X3.824Y-5.7
X3.8319Y-6.5898
X3.8358Y-7.4717
X3.8489Y-7.8157
X4.1429Y-8.4333
X4.3762Y-7.9953
X4.4264Y-8.1764
X4.4303Y-8.078
X5.3752Y-8.8703
X5.532Y-8.4552
X5.5642Y-8.3329
X5.9618Y-8.263
X5.9776Y-8.386
X6.0011Y-7.8084
X6.0012Y-7.4717
X6.0051Y-4.8142
X6.0051Y-6.5898
X6.0091Y-5.7
X6.0096Y-8.4998
X6.0169Y-3.9283
X6.0209Y-3.0425
X6.0307Y-1.2748
X6.0562Y-7.8104
X6.0681Y-2.1094
X6.075Y-1.1488
X6.1112Y-7.8144
X6.1193Y-1.2551
X6.1661Y-7.8191
X6.2038Y-8.7097
X6.2217Y-1.2512
X6.2547Y-8.1921
T2
X4.5232Y-0.6451
X4.6232Y-0.6451
X4.7232Y-0.6451
X4.8232Y-0.6451
X4.9232Y-0.6451
X5.0232Y-0.6451
X5.1232Y-0.6451
X5.2232Y-0.6451
X5.3232Y-0.6451
X5.4232Y-0.6451
X4.2689Y-8.569
X4.3234Y-8.6808
X4.378Y-8.569
X4.4325Y-8.6808
X4.487Y-8.569
X4.5415Y-8.6808
X4.5961Y-8.569
X4.6506Y-8.6808
X4.7051Y-8.569
X4.7596Y-8.6808
X4.8142Y-8.569
X4.8687Y-8.6808
X4.9232Y-8.569
X4.9778Y-8.6808
X5.0323Y-8.569
X5.0868Y-8.6808
X5.1413Y-8.569
X5.1959Y-8.6808
X5.2504Y-8.569
X5.3049Y-8.6808
X5.3594Y-8.569
X5.414Y-8.6808
X5.4685Y-8.569
X5.523Y-8.6808
X5.5776Y-8.569
X4.5232Y-8.4154
X4.6232Y-8.4154
X4.7232Y-8.4154
X4.8232Y-8.4154
X4.9232Y-8.4154
X5.0232Y-8.4154
X5.1232Y-8.4154
X5.2232Y-8.4154
X5.3232Y-8.4154
X5.4232Y-8.4154
T3
X3.9961Y-8.6249
X5.8504Y-8.6249
T0
M30
