%TF.GenerationSoftware,KiCad,Pcbnew,(2017-11-10 revision d8f4e35)-HEAD*%
%TF.CreationDate,2017-12-06T14:25:09-08:00*%
%TF.ProjectId,floor_pcb,666C6F6F725F7063622E6B696361645F,rev?*%
%TF.SameCoordinates,Original*%
%TF.FileFunction,Profile,NP*%
%FSLAX46Y46*%
G04 Gerber Fmt 4.6, Leading zero omitted, Abs format (unit mm)*
G04 Created by KiCad (PCBNEW (2017-11-10 revision d8f4e35)-HEAD) date Wed Dec  6 14:25:09 2017*
%MOMM*%
%LPD*%
G01*
G04 APERTURE LIST*
%ADD10C,0.001000*%
G04 APERTURE END LIST*
D10*
X142115153Y-70245379D02*
G75*
G02X142108633Y-67045385I-3260J1599997D01*
G01*
X152108612Y-67025010D02*
G75*
G02X152115132Y-70225004I3260J-1599997D01*
G01*
X142057908Y-25235283D02*
X152057887Y-25214907D01*
X142051388Y-22035289D02*
X152051367Y-22014914D01*
X126762780Y-25774200D02*
G75*
G03X126762780Y-25774200I-1851780J0D01*
G01*
X138486470Y-25755190D02*
G75*
G03X138486470Y-25755190I-4200000J0D01*
G01*
X142057908Y-25235283D02*
G75*
G02X142051388Y-22035289I-3260J1599997D01*
G01*
X87500000Y-228507200D02*
X87500000Y-6507200D01*
X162500000Y-228507200D02*
X87500000Y-228507200D01*
X162500000Y-6507200D02*
X162500000Y-228507200D01*
X87500000Y-6507200D02*
X162500000Y-6507200D01*
X107891787Y-182789837D02*
X97891788Y-182794898D01*
X107890167Y-179589837D02*
X97890169Y-179594898D01*
X126891790Y-183285137D02*
G75*
G03X126891790Y-183285137I-1851780J0D01*
G01*
X119864522Y-183289976D02*
G75*
G03X119864522Y-183289976I-4200000J0D01*
G01*
X107890167Y-179589837D02*
G75*
G02X107891787Y-182789837I810J-1600000D01*
G01*
X138600959Y-115775383D02*
G75*
G03X138600959Y-115775383I-4200000J0D01*
G01*
X142172397Y-115255474D02*
G75*
G02X142165877Y-112055482I-3260J1599996D01*
G01*
X152165856Y-112035106D02*
G75*
G02X152172376Y-115235100I3260J-1599997D01*
G01*
X142115153Y-70245379D02*
X152115132Y-70225004D01*
X142108633Y-67045385D02*
X152108612Y-67025010D01*
X126820024Y-70784296D02*
G75*
G03X126820024Y-70784296I-1851780J0D01*
G01*
X138543714Y-70765287D02*
G75*
G03X138543714Y-70765287I-4200000J0D01*
G01*
X107848157Y-44572900D02*
X97848158Y-44577961D01*
X126849780Y-48268200D02*
G75*
G03X126849780Y-48268200I-1851780J0D01*
G01*
X119822512Y-48273038D02*
G75*
G03X119822512Y-48273038I-4200000J0D01*
G01*
X107848157Y-44572900D02*
G75*
G02X107849777Y-47772900I810J-1600000D01*
G01*
X97849778Y-47777961D02*
G75*
G02X97848158Y-44577961I-810J1600000D01*
G01*
X142229641Y-160265571D02*
X152229621Y-160245196D01*
X142223121Y-157065578D02*
X152223101Y-157045203D01*
X152051367Y-22014915D02*
G75*
G02X152057887Y-25214907I3260J-1599996D01*
G01*
X147000000Y-15007200D02*
G75*
G03X147000000Y-15007200I-2000000J0D01*
G01*
X107000000Y-15007200D02*
G75*
G03X107000000Y-15007200I-2000000J0D01*
G01*
X147000000Y-208542700D02*
G75*
G03X147000000Y-208542700I-2000000J0D01*
G01*
X107000000Y-208542700D02*
G75*
G03X107000000Y-208542700I-2000000J0D01*
G01*
X96114500Y-70043200D02*
G75*
G03X96114500Y-70043200I-1714500J0D01*
G01*
X96114500Y-25792200D02*
G75*
G03X96114500Y-25792200I-1714500J0D01*
G01*
X126934513Y-160804489D02*
G75*
G03X126934513Y-160804489I-1851780J0D01*
G01*
X138658203Y-160785479D02*
G75*
G03X138658203Y-160785479I-4200000J0D01*
G01*
X142229641Y-160265572D02*
G75*
G02X142223121Y-157065578I-3260J1599997D01*
G01*
X152223101Y-157045204D02*
G75*
G02X152229621Y-160245196I3260J-1599996D01*
G01*
X142172397Y-115255475D02*
X152172376Y-115235100D01*
X142165877Y-112055482D02*
X152165856Y-112035107D01*
X126877269Y-115794393D02*
G75*
G03X126877269Y-115794393I-1851780J0D01*
G01*
X157314501Y-204542700D02*
G75*
G03X157314501Y-204542700I-1714500J0D01*
G01*
X157314501Y-182292700D02*
G75*
G03X157314501Y-182292700I-1714500J0D01*
G01*
X157314501Y-137792701D02*
G75*
G03X157314501Y-137792701I-1714500J0D01*
G01*
X157314501Y-92292700D02*
G75*
G03X157314501Y-92292700I-1714500J0D01*
G01*
X157314501Y-47792701D02*
G75*
G03X157314501Y-47792701I-1714500J0D01*
G01*
X96114501Y-204542700D02*
G75*
G03X96114501Y-204542700I-1714500J0D01*
G01*
X96114501Y-160042701D02*
G75*
G03X96114501Y-160042701I-1714500J0D01*
G01*
X107863780Y-92778545D02*
X97863781Y-92783606D01*
X107862160Y-89578546D02*
X97862162Y-89583607D01*
X126863783Y-93273846D02*
G75*
G03X126863783Y-93273846I-1851780J0D01*
G01*
X119836515Y-93278684D02*
G75*
G03X119836515Y-93278684I-4200000J0D01*
G01*
X107862160Y-89578547D02*
G75*
G02X107863780Y-92778545I810J-1599999D01*
G01*
X97863782Y-92783607D02*
G75*
G02X97862162Y-89583607I-810J1600000D01*
G01*
X107849777Y-47772900D02*
X97849778Y-47777961D01*
X97891787Y-182794898D02*
G75*
G02X97890169Y-179594898I-809J1600000D01*
G01*
X107877783Y-137784191D02*
X97877785Y-137789252D01*
X107876164Y-134584192D02*
X97876165Y-134589253D01*
X126877787Y-138279492D02*
G75*
G03X126877787Y-138279492I-1851780J0D01*
G01*
X119850519Y-138284330D02*
G75*
G03X119850519Y-138284330I-4200000J0D01*
G01*
X107876165Y-134584191D02*
G75*
G02X107877783Y-137784191I809J-1600000D01*
G01*
X97877785Y-137789251D02*
G75*
G02X97876165Y-134589253I-810J1599999D01*
G01*
X96114501Y-114542700D02*
G75*
G03X96114501Y-114542700I-1714500J0D01*
G01*
M02*
