%TF.GenerationSoftware,KiCad,Pcbnew,(2017-11-10 revision d8f4e35)-HEAD*%
%TF.CreationDate,2017-12-06T14:25:09-08:00*%
%TF.ProjectId,floor_pcb,666C6F6F725F7063622E6B696361645F,rev?*%
%TF.SameCoordinates,Original*%
%TF.FileFunction,Legend,Top*%
%TF.FilePolarity,Positive*%
%FSLAX46Y46*%
G04 Gerber Fmt 4.6, Leading zero omitted, Abs format (unit mm)*
G04 Created by KiCad (PCBNEW (2017-11-10 revision d8f4e35)-HEAD) date Wed Dec  6 14:25:09 2017*
%MOMM*%
%LPD*%
G01*
G04 APERTURE LIST*
%ADD10C,0.100000*%
%ADD11C,0.300000*%
%ADD12C,0.150000*%
G04 APERTURE END LIST*
D10*
X114258571Y-12451428D02*
X114258571Y-12937142D01*
X114230000Y-12994285D01*
X114201428Y-13022857D01*
X114144285Y-13051428D01*
X114058571Y-13051428D01*
X114001428Y-13022857D01*
X114258571Y-12822857D02*
X114201428Y-12851428D01*
X114087142Y-12851428D01*
X114030000Y-12822857D01*
X114001428Y-12794285D01*
X113972857Y-12737142D01*
X113972857Y-12565714D01*
X114001428Y-12508571D01*
X114030000Y-12480000D01*
X114087142Y-12451428D01*
X114201428Y-12451428D01*
X114258571Y-12480000D01*
X114544285Y-12851428D02*
X114544285Y-12451428D01*
X114544285Y-12251428D02*
X114515714Y-12280000D01*
X114544285Y-12308571D01*
X114572857Y-12280000D01*
X114544285Y-12251428D01*
X114544285Y-12308571D01*
X114744285Y-12451428D02*
X114972857Y-12451428D01*
X114830000Y-12251428D02*
X114830000Y-12765714D01*
X114858571Y-12822857D01*
X114915714Y-12851428D01*
X114972857Y-12851428D01*
X115172857Y-12851428D02*
X115172857Y-12251428D01*
X115430000Y-12851428D02*
X115430000Y-12537142D01*
X115401428Y-12480000D01*
X115344285Y-12451428D01*
X115258571Y-12451428D01*
X115201428Y-12480000D01*
X115172857Y-12508571D01*
X115972857Y-12451428D02*
X115972857Y-12851428D01*
X115715714Y-12451428D02*
X115715714Y-12765714D01*
X115744285Y-12822857D01*
X115801428Y-12851428D01*
X115887142Y-12851428D01*
X115944285Y-12822857D01*
X115972857Y-12794285D01*
X116258571Y-12851428D02*
X116258571Y-12251428D01*
X116258571Y-12480000D02*
X116315714Y-12451428D01*
X116430000Y-12451428D01*
X116487142Y-12480000D01*
X116515714Y-12508571D01*
X116544285Y-12565714D01*
X116544285Y-12737142D01*
X116515714Y-12794285D01*
X116487142Y-12822857D01*
X116430000Y-12851428D01*
X116315714Y-12851428D01*
X116258571Y-12822857D01*
X116801428Y-12794285D02*
X116830000Y-12822857D01*
X116801428Y-12851428D01*
X116772857Y-12822857D01*
X116801428Y-12794285D01*
X116801428Y-12851428D01*
X117344285Y-12822857D02*
X117287142Y-12851428D01*
X117172857Y-12851428D01*
X117115714Y-12822857D01*
X117087142Y-12794285D01*
X117058571Y-12737142D01*
X117058571Y-12565714D01*
X117087142Y-12508571D01*
X117115714Y-12480000D01*
X117172857Y-12451428D01*
X117287142Y-12451428D01*
X117344285Y-12480000D01*
X117687142Y-12851428D02*
X117630000Y-12822857D01*
X117601428Y-12794285D01*
X117572857Y-12737142D01*
X117572857Y-12565714D01*
X117601428Y-12508571D01*
X117630000Y-12480000D01*
X117687142Y-12451428D01*
X117772857Y-12451428D01*
X117830000Y-12480000D01*
X117858571Y-12508571D01*
X117887142Y-12565714D01*
X117887142Y-12737142D01*
X117858571Y-12794285D01*
X117830000Y-12822857D01*
X117772857Y-12851428D01*
X117687142Y-12851428D01*
X118144285Y-12851428D02*
X118144285Y-12451428D01*
X118144285Y-12508571D02*
X118172857Y-12480000D01*
X118230000Y-12451428D01*
X118315714Y-12451428D01*
X118372857Y-12480000D01*
X118401428Y-12537142D01*
X118401428Y-12851428D01*
X118401428Y-12537142D02*
X118430000Y-12480000D01*
X118487142Y-12451428D01*
X118572857Y-12451428D01*
X118630000Y-12480000D01*
X118658571Y-12537142D01*
X118658571Y-12851428D01*
X119372857Y-12222857D02*
X118858571Y-12994285D01*
X119487142Y-12451428D02*
X119715714Y-12451428D01*
X119572857Y-12251428D02*
X119572857Y-12765714D01*
X119601428Y-12822857D01*
X119658571Y-12851428D01*
X119715714Y-12851428D01*
X120001428Y-12851428D02*
X119944285Y-12822857D01*
X119915714Y-12794285D01*
X119887142Y-12737142D01*
X119887142Y-12565714D01*
X119915714Y-12508571D01*
X119944285Y-12480000D01*
X120001428Y-12451428D01*
X120087142Y-12451428D01*
X120144285Y-12480000D01*
X120172857Y-12508571D01*
X120201428Y-12565714D01*
X120201428Y-12737142D01*
X120172857Y-12794285D01*
X120144285Y-12822857D01*
X120087142Y-12851428D01*
X120001428Y-12851428D01*
X120458571Y-12851428D02*
X120458571Y-12451428D01*
X120458571Y-12508571D02*
X120487142Y-12480000D01*
X120544285Y-12451428D01*
X120630000Y-12451428D01*
X120687142Y-12480000D01*
X120715714Y-12537142D01*
X120715714Y-12851428D01*
X120715714Y-12537142D02*
X120744285Y-12480000D01*
X120801428Y-12451428D01*
X120887142Y-12451428D01*
X120944285Y-12480000D01*
X120972857Y-12537142D01*
X120972857Y-12851428D01*
X121258571Y-12622857D02*
X121715714Y-12622857D01*
X121915714Y-12451428D02*
X122144285Y-12451428D01*
X122001428Y-12851428D02*
X122001428Y-12337142D01*
X122030000Y-12280000D01*
X122087142Y-12251428D01*
X122144285Y-12251428D01*
X122344285Y-12622857D02*
X122801428Y-12622857D01*
X123172857Y-12851428D02*
X123115714Y-12822857D01*
X123087142Y-12794285D01*
X123058571Y-12737142D01*
X123058571Y-12565714D01*
X123087142Y-12508571D01*
X123115714Y-12480000D01*
X123172857Y-12451428D01*
X123258571Y-12451428D01*
X123315714Y-12480000D01*
X123344285Y-12508571D01*
X123372857Y-12565714D01*
X123372857Y-12737142D01*
X123344285Y-12794285D01*
X123315714Y-12822857D01*
X123258571Y-12851428D01*
X123172857Y-12851428D01*
X123887142Y-12822857D02*
X123830000Y-12851428D01*
X123715714Y-12851428D01*
X123658571Y-12822857D01*
X123630000Y-12794285D01*
X123601428Y-12737142D01*
X123601428Y-12565714D01*
X123630000Y-12508571D01*
X123658571Y-12480000D01*
X123715714Y-12451428D01*
X123830000Y-12451428D01*
X123887142Y-12480000D01*
X124230000Y-12851428D02*
X124172857Y-12822857D01*
X124144285Y-12794285D01*
X124115714Y-12737142D01*
X124115714Y-12565714D01*
X124144285Y-12508571D01*
X124172857Y-12480000D01*
X124230000Y-12451428D01*
X124315714Y-12451428D01*
X124372857Y-12480000D01*
X124401428Y-12508571D01*
X124430000Y-12565714D01*
X124430000Y-12737142D01*
X124401428Y-12794285D01*
X124372857Y-12822857D01*
X124315714Y-12851428D01*
X124230000Y-12851428D01*
X124687142Y-12451428D02*
X124687142Y-12851428D01*
X124687142Y-12508571D02*
X124715714Y-12480000D01*
X124772857Y-12451428D01*
X124858571Y-12451428D01*
X124915714Y-12480000D01*
X124944285Y-12537142D01*
X124944285Y-12851428D01*
X125230000Y-12451428D02*
X125230000Y-12851428D01*
X125230000Y-12508571D02*
X125258571Y-12480000D01*
X125315714Y-12451428D01*
X125401428Y-12451428D01*
X125458571Y-12480000D01*
X125487142Y-12537142D01*
X125487142Y-12851428D01*
X126001428Y-12822857D02*
X125944285Y-12851428D01*
X125830000Y-12851428D01*
X125772857Y-12822857D01*
X125744285Y-12765714D01*
X125744285Y-12537142D01*
X125772857Y-12480000D01*
X125830000Y-12451428D01*
X125944285Y-12451428D01*
X126001428Y-12480000D01*
X126030000Y-12537142D01*
X126030000Y-12594285D01*
X125744285Y-12651428D01*
X126372857Y-12851428D02*
X126315714Y-12822857D01*
X126287142Y-12765714D01*
X126287142Y-12251428D01*
X126687142Y-12851428D02*
X126630000Y-12822857D01*
X126601428Y-12765714D01*
X126601428Y-12251428D01*
X127344285Y-12222857D02*
X126830000Y-12994285D01*
X127801428Y-12822857D02*
X127744285Y-12851428D01*
X127630000Y-12851428D01*
X127572857Y-12822857D01*
X127544285Y-12794285D01*
X127515714Y-12737142D01*
X127515714Y-12565714D01*
X127544285Y-12508571D01*
X127572857Y-12480000D01*
X127630000Y-12451428D01*
X127744285Y-12451428D01*
X127801428Y-12480000D01*
X128058571Y-12851428D02*
X128058571Y-12251428D01*
X128315714Y-12851428D02*
X128315714Y-12537142D01*
X128287142Y-12480000D01*
X128230000Y-12451428D01*
X128144285Y-12451428D01*
X128087142Y-12480000D01*
X128058571Y-12508571D01*
X128687142Y-12851428D02*
X128630000Y-12822857D01*
X128601428Y-12794285D01*
X128572857Y-12737142D01*
X128572857Y-12565714D01*
X128601428Y-12508571D01*
X128630000Y-12480000D01*
X128687142Y-12451428D01*
X128772857Y-12451428D01*
X128830000Y-12480000D01*
X128858571Y-12508571D01*
X128887142Y-12565714D01*
X128887142Y-12737142D01*
X128858571Y-12794285D01*
X128830000Y-12822857D01*
X128772857Y-12851428D01*
X128687142Y-12851428D01*
X129144285Y-12851428D02*
X129144285Y-12451428D01*
X129144285Y-12251428D02*
X129115714Y-12280000D01*
X129144285Y-12308571D01*
X129172857Y-12280000D01*
X129144285Y-12251428D01*
X129144285Y-12308571D01*
X129687142Y-12822857D02*
X129630000Y-12851428D01*
X129515714Y-12851428D01*
X129458571Y-12822857D01*
X129430000Y-12794285D01*
X129401428Y-12737142D01*
X129401428Y-12565714D01*
X129430000Y-12508571D01*
X129458571Y-12480000D01*
X129515714Y-12451428D01*
X129630000Y-12451428D01*
X129687142Y-12480000D01*
X130172857Y-12822857D02*
X130115714Y-12851428D01*
X130001428Y-12851428D01*
X129944285Y-12822857D01*
X129915714Y-12765714D01*
X129915714Y-12537142D01*
X129944285Y-12480000D01*
X130001428Y-12451428D01*
X130115714Y-12451428D01*
X130172857Y-12480000D01*
X130201428Y-12537142D01*
X130201428Y-12594285D01*
X129915714Y-12651428D01*
X131287142Y-12565714D02*
X131258571Y-12537142D01*
X131201428Y-12508571D01*
X131144285Y-12508571D01*
X131087142Y-12537142D01*
X131058571Y-12565714D01*
X131030000Y-12622857D01*
X131030000Y-12680000D01*
X131058571Y-12737142D01*
X131087142Y-12765714D01*
X131144285Y-12794285D01*
X131201428Y-12794285D01*
X131258571Y-12765714D01*
X131287142Y-12737142D01*
X131287142Y-12508571D02*
X131287142Y-12737142D01*
X131315714Y-12765714D01*
X131344285Y-12765714D01*
X131401428Y-12737142D01*
X131430000Y-12680000D01*
X131430000Y-12537142D01*
X131372857Y-12451428D01*
X131287142Y-12394285D01*
X131172857Y-12365714D01*
X131058571Y-12394285D01*
X130972857Y-12451428D01*
X130915714Y-12537142D01*
X130887142Y-12651428D01*
X130915714Y-12765714D01*
X130972857Y-12851428D01*
X131058571Y-12908571D01*
X131172857Y-12937142D01*
X131287142Y-12908571D01*
X131372857Y-12851428D01*
X132401428Y-12851428D02*
X132401428Y-12251428D01*
X132401428Y-12822857D02*
X132344285Y-12851428D01*
X132230000Y-12851428D01*
X132172857Y-12822857D01*
X132144285Y-12794285D01*
X132115714Y-12737142D01*
X132115714Y-12565714D01*
X132144285Y-12508571D01*
X132172857Y-12480000D01*
X132230000Y-12451428D01*
X132344285Y-12451428D01*
X132401428Y-12480000D01*
X133001428Y-12851428D02*
X132658571Y-12851428D01*
X132830000Y-12851428D02*
X132830000Y-12251428D01*
X132772857Y-12337142D01*
X132715714Y-12394285D01*
X132658571Y-12422857D01*
X133515714Y-12451428D02*
X133515714Y-12851428D01*
X133372857Y-12222857D02*
X133230000Y-12651428D01*
X133601428Y-12651428D01*
X134144285Y-12851428D02*
X133801428Y-12851428D01*
X133972857Y-12851428D02*
X133972857Y-12251428D01*
X133915714Y-12337142D01*
X133858571Y-12394285D01*
X133801428Y-12422857D01*
X134630000Y-12822857D02*
X134572857Y-12851428D01*
X134458571Y-12851428D01*
X134401428Y-12822857D01*
X134372857Y-12765714D01*
X134372857Y-12537142D01*
X134401428Y-12480000D01*
X134458571Y-12451428D01*
X134572857Y-12451428D01*
X134630000Y-12480000D01*
X134658571Y-12537142D01*
X134658571Y-12594285D01*
X134372857Y-12651428D01*
X135172857Y-12822857D02*
X135115714Y-12851428D01*
X135001428Y-12851428D01*
X134944285Y-12822857D01*
X134915714Y-12794285D01*
X134887142Y-12737142D01*
X134887142Y-12565714D01*
X134915714Y-12508571D01*
X134944285Y-12480000D01*
X135001428Y-12451428D01*
X135115714Y-12451428D01*
X135172857Y-12480000D01*
X135458571Y-12851428D02*
X135572857Y-12851428D01*
X135630000Y-12822857D01*
X135658571Y-12794285D01*
X135715714Y-12708571D01*
X135744285Y-12594285D01*
X135744285Y-12365714D01*
X135715714Y-12308571D01*
X135687142Y-12280000D01*
X135630000Y-12251428D01*
X135515714Y-12251428D01*
X135458571Y-12280000D01*
X135430000Y-12308571D01*
X135401428Y-12365714D01*
X135401428Y-12508571D01*
X135430000Y-12565714D01*
X135458571Y-12594285D01*
X135515714Y-12622857D01*
X135630000Y-12622857D01*
X135687142Y-12594285D01*
X135715714Y-12565714D01*
X135744285Y-12508571D01*
X135915714Y-12451428D02*
X136144285Y-12451428D01*
X136001428Y-12851428D02*
X136001428Y-12337142D01*
X136030000Y-12280000D01*
X136087142Y-12251428D01*
X136144285Y-12251428D01*
D11*
X142887142Y-10258571D02*
X143244285Y-11258571D01*
X143601428Y-10258571D01*
X144458571Y-9758571D02*
X144601428Y-9758571D01*
X144744285Y-9830000D01*
X144815714Y-9901428D01*
X144887142Y-10044285D01*
X144958571Y-10330000D01*
X144958571Y-10687142D01*
X144887142Y-10972857D01*
X144815714Y-11115714D01*
X144744285Y-11187142D01*
X144601428Y-11258571D01*
X144458571Y-11258571D01*
X144315714Y-11187142D01*
X144244285Y-11115714D01*
X144172857Y-10972857D01*
X144101428Y-10687142D01*
X144101428Y-10330000D01*
X144172857Y-10044285D01*
X144244285Y-9901428D01*
X144315714Y-9830000D01*
X144458571Y-9758571D01*
X145601428Y-11115714D02*
X145672857Y-11187142D01*
X145601428Y-11258571D01*
X145530000Y-11187142D01*
X145601428Y-11115714D01*
X145601428Y-11258571D01*
X147101428Y-11258571D02*
X146244285Y-11258571D01*
X146672857Y-11258571D02*
X146672857Y-9758571D01*
X146530000Y-9972857D01*
X146387142Y-10115714D01*
X146244285Y-10187142D01*
X113922857Y-10258571D02*
X113922857Y-8758571D01*
X113922857Y-9472857D02*
X114780000Y-9472857D01*
X114780000Y-10258571D02*
X114780000Y-8758571D01*
X115708571Y-10258571D02*
X115565714Y-10187142D01*
X115494285Y-10115714D01*
X115422857Y-9972857D01*
X115422857Y-9544285D01*
X115494285Y-9401428D01*
X115565714Y-9330000D01*
X115708571Y-9258571D01*
X115922857Y-9258571D01*
X116065714Y-9330000D01*
X116137142Y-9401428D01*
X116208571Y-9544285D01*
X116208571Y-9972857D01*
X116137142Y-10115714D01*
X116065714Y-10187142D01*
X115922857Y-10258571D01*
X115708571Y-10258571D01*
X116851428Y-9258571D02*
X116851428Y-10258571D01*
X116851428Y-9401428D02*
X116922857Y-9330000D01*
X117065714Y-9258571D01*
X117280000Y-9258571D01*
X117422857Y-9330000D01*
X117494285Y-9472857D01*
X117494285Y-10258571D01*
X118851428Y-9258571D02*
X118851428Y-10472857D01*
X118780000Y-10615714D01*
X118708571Y-10687142D01*
X118565714Y-10758571D01*
X118351428Y-10758571D01*
X118208571Y-10687142D01*
X118851428Y-10187142D02*
X118708571Y-10258571D01*
X118422857Y-10258571D01*
X118280000Y-10187142D01*
X118208571Y-10115714D01*
X118137142Y-9972857D01*
X118137142Y-9544285D01*
X118208571Y-9401428D01*
X118280000Y-9330000D01*
X118422857Y-9258571D01*
X118708571Y-9258571D01*
X118851428Y-9330000D01*
X120922857Y-10258571D02*
X120780000Y-10187142D01*
X120708571Y-10044285D01*
X120708571Y-8758571D01*
X122137142Y-10258571D02*
X122137142Y-9472857D01*
X122065714Y-9330000D01*
X121922857Y-9258571D01*
X121637142Y-9258571D01*
X121494285Y-9330000D01*
X122137142Y-10187142D02*
X121994285Y-10258571D01*
X121637142Y-10258571D01*
X121494285Y-10187142D01*
X121422857Y-10044285D01*
X121422857Y-9901428D01*
X121494285Y-9758571D01*
X121637142Y-9687142D01*
X121994285Y-9687142D01*
X122137142Y-9615714D01*
X122851428Y-10258571D02*
X122851428Y-8758571D01*
X122851428Y-9330000D02*
X122994285Y-9258571D01*
X123280000Y-9258571D01*
X123422857Y-9330000D01*
X123494285Y-9401428D01*
X123565714Y-9544285D01*
X123565714Y-9972857D01*
X123494285Y-10115714D01*
X123422857Y-10187142D01*
X123280000Y-10258571D01*
X122994285Y-10258571D01*
X122851428Y-10187142D01*
X126280000Y-9544285D02*
X126208571Y-9472857D01*
X126065714Y-9401428D01*
X125922857Y-9401428D01*
X125780000Y-9472857D01*
X125708571Y-9544285D01*
X125637142Y-9687142D01*
X125637142Y-9830000D01*
X125708571Y-9972857D01*
X125780000Y-10044285D01*
X125922857Y-10115714D01*
X126065714Y-10115714D01*
X126208571Y-10044285D01*
X126280000Y-9972857D01*
X126280000Y-9401428D02*
X126280000Y-9972857D01*
X126351428Y-10044285D01*
X126422857Y-10044285D01*
X126565714Y-9972857D01*
X126637142Y-9830000D01*
X126637142Y-9472857D01*
X126494285Y-9258571D01*
X126280000Y-9115714D01*
X125994285Y-9044285D01*
X125708571Y-9115714D01*
X125494285Y-9258571D01*
X125351428Y-9472857D01*
X125280000Y-9758571D01*
X125351428Y-10044285D01*
X125494285Y-10258571D01*
X125708571Y-10401428D01*
X125994285Y-10472857D01*
X126280000Y-10401428D01*
X126494285Y-10258571D01*
X129280000Y-10115714D02*
X129208571Y-10187142D01*
X128994285Y-10258571D01*
X128851428Y-10258571D01*
X128637142Y-10187142D01*
X128494285Y-10044285D01*
X128422857Y-9901428D01*
X128351428Y-9615714D01*
X128351428Y-9401428D01*
X128422857Y-9115714D01*
X128494285Y-8972857D01*
X128637142Y-8830000D01*
X128851428Y-8758571D01*
X128994285Y-8758571D01*
X129208571Y-8830000D01*
X129280000Y-8901428D01*
X130565714Y-10258571D02*
X130565714Y-9472857D01*
X130494285Y-9330000D01*
X130351428Y-9258571D01*
X130065714Y-9258571D01*
X129922857Y-9330000D01*
X130565714Y-10187142D02*
X130422857Y-10258571D01*
X130065714Y-10258571D01*
X129922857Y-10187142D01*
X129851428Y-10044285D01*
X129851428Y-9901428D01*
X129922857Y-9758571D01*
X130065714Y-9687142D01*
X130422857Y-9687142D01*
X130565714Y-9615714D01*
X131494285Y-10258571D02*
X131351428Y-10187142D01*
X131280000Y-10044285D01*
X131280000Y-8758571D01*
X131851428Y-9258571D02*
X132422857Y-9258571D01*
X132065714Y-8758571D02*
X132065714Y-10044285D01*
X132137142Y-10187142D01*
X132280000Y-10258571D01*
X132422857Y-10258571D01*
X133494285Y-10187142D02*
X133351428Y-10258571D01*
X133065714Y-10258571D01*
X132922857Y-10187142D01*
X132851428Y-10044285D01*
X132851428Y-9472857D01*
X132922857Y-9330000D01*
X133065714Y-9258571D01*
X133351428Y-9258571D01*
X133494285Y-9330000D01*
X133565714Y-9472857D01*
X133565714Y-9615714D01*
X132851428Y-9758571D01*
X134851428Y-10187142D02*
X134708571Y-10258571D01*
X134422857Y-10258571D01*
X134280000Y-10187142D01*
X134208571Y-10115714D01*
X134137142Y-9972857D01*
X134137142Y-9544285D01*
X134208571Y-9401428D01*
X134280000Y-9330000D01*
X134422857Y-9258571D01*
X134708571Y-9258571D01*
X134851428Y-9330000D01*
X135494285Y-10258571D02*
X135494285Y-8758571D01*
X136137142Y-10258571D02*
X136137142Y-9472857D01*
X136065714Y-9330000D01*
X135922857Y-9258571D01*
X135708571Y-9258571D01*
X135565714Y-9330000D01*
X135494285Y-9401428D01*
D12*
%TO.C,J2*%
X113640000Y-15135800D02*
X139000000Y-15135800D01*
X139000000Y-15135800D02*
X139000000Y-17635800D01*
X139000000Y-17635800D02*
X113640000Y-17635800D01*
X113640000Y-17635800D02*
X113640000Y-15135800D01*
X116160000Y-15135800D02*
X116160000Y-17635800D01*
%TO.C,J1*%
X116160000Y-212500000D02*
X116160000Y-215000000D01*
X113640000Y-215000000D02*
X113640000Y-212500000D01*
X139000000Y-215000000D02*
X113640000Y-215000000D01*
X139000000Y-212500000D02*
X139000000Y-215000000D01*
X113640000Y-212500000D02*
X139000000Y-212500000D01*
%TO.C,J2*%
X111696666Y-15532380D02*
X111696666Y-16246666D01*
X111649047Y-16389523D01*
X111553809Y-16484761D01*
X111410952Y-16532380D01*
X111315714Y-16532380D01*
X112125238Y-15627619D02*
X112172857Y-15580000D01*
X112268095Y-15532380D01*
X112506190Y-15532380D01*
X112601428Y-15580000D01*
X112649047Y-15627619D01*
X112696666Y-15722857D01*
X112696666Y-15818095D01*
X112649047Y-15960952D01*
X112077619Y-16532380D01*
X112696666Y-16532380D01*
%TO.C,J1*%
X112186666Y-213177380D02*
X112186666Y-213891666D01*
X112139047Y-214034523D01*
X112043809Y-214129761D01*
X111900952Y-214177380D01*
X111805714Y-214177380D01*
X113186666Y-214177380D02*
X112615238Y-214177380D01*
X112900952Y-214177380D02*
X112900952Y-213177380D01*
X112805714Y-213320238D01*
X112710476Y-213415476D01*
X112615238Y-213463095D01*
%TD*%
M02*
