  0
SECTION
  2
HEADER
  9
$EXTMIN
 10
126.4984
 20
230.3984
  9
$EXTMAX
 10
376.7016
 20
432.4016
  9
$LIMMIN
 10
126.4984
 20
230.3984
  9
$LIMMAX
 10
376.7016
 20
432.4016
  0
ENDSEC
  0
SECTION
  2
TABLES
  0
TABLE
  2
LAYER
 70
    18
  0
LAYER
  2
0
 70
    64
 62
     7
  6
CONTINUOUS
  0
LAYER
  2
TOP_SILKSCREEN
 70
    64
 62
     1
  6
CONTINUOUS
  0
LAYER
  2
TOP_SOLDER_MASK
 70
    64
 62
     2
  6
CONTINUOUS
  0
LAYER
  2
DOCUMENTATION1
 70
    64
 62
     3
  6
CONTINUOUS
  0
LAYER
  2
BOTTOM_SILKSCREEN
 70
    64
 62
     4
  6
CONTINUOUS
  0
LAYER
  2
BOTTOM_SOLDER_MASK
 70
    64
 62
     5
  6
CONTINUOUS
  0
LAYER
  2
DOCUMENTATION2
 70
    64
 62
     6
  6
CONTINUOUS
  0
LAYER
  2
_BOARD
 70
    64
 62
    254
  6
CONTINUOUS
  0
LAYER
  2
_DRILL
 70
    64
 62
    251
  6
CONTINUOUS
  0
ENDTAB
  0
ENDSEC
  0
SECTION
  2
BLOCKS
  0
BLOCK
  8
0
  2
_HOLE
 70
    64
 10
0.0000
 20
0.0000
  0
CIRCLE
  8
0
 10
0.0000
 20
0.0000
 40
0.500
  0
ENDBLK
  8
0
  0
BLOCK
  8
0
  2
PAD
 70
    64
 10
0.0000
 20
0.0000
  0
POLYLINE
  8
0
 66
     1
 10
0.0000
 20
0.0000
 70
     1
 40
0.7620
 41
0.7620
  0
VERTEX
  8
0
 10
-0.3810
 20
0.0000
 40
0.7620
 41
0.7620
 42
1.000
  0
VERTEX
  8
0
 10
0.3810
 20
0.0000
 40
0.7620
 41
0.7620
 42
1.000
  0
SEQEND
  8
0
  0
ENDBLK
  8
0
  0
ENDSEC
  0
SECTION
  2
ENTITIES
  0
POLYLINE
  8
_BOARD
 66
     1
 62
     3
 10
0.0000
 20
0.0000
 70
     1
 40
0.0000
 41
0.0000
  0
VERTEX
  8
_BOARD
 10
126.6000
 20
230.5000
 40
0.0000
 41
0.0000
  0
VERTEX
  8
_BOARD
 10
376.6000
 20
230.5000
  0
VERTEX
  8
_BOARD
 10
376.6000
 20
230.5000
 40
0.0000
 41
0.0000
  0
VERTEX
  8
_BOARD
 10
376.6000
 20
432.3000
  0
VERTEX
  8
_BOARD
 10
376.6000
 20
432.3000
 40
0.0000
 41
0.0000
  0
VERTEX
  8
_BOARD
 10
126.6000
 20
432.3000
  0
VERTEX
  8
_BOARD
 10
126.6000
 20
432.3000
 40
0.0000
 41
0.0000
  0
VERTEX
  8
_BOARD
 10
126.6000
 20
230.5000
 40
0.0000
 41
0.0000
  0
VERTEX
  8
_BOARD
 10
126.6000
 20
230.5000
  0
SEQEND
  8
_BOARD
  0
POLYLINE
  8
TOP_SILKSCREEN
 66
     1
 62
    135
 10
0.0000
 20
0.0000
 70
     1
 40
0.0000
 41
0.0000
  0
VERTEX
  8
TOP_SILKSCREEN
 10
219.5508
 20
260.2144
 40
0.1016
 41
0.1016
 42
1.000
  0
VERTEX
  8
TOP_SILKSCREEN
 10
219.4492
 20
260.2144
  0
VERTEX
  8
TOP_SILKSCREEN
 10
219.5000
 20
260.2144
  0
VERTEX
  8
TOP_SILKSCREEN
 10
219.5000
 20
260.2144
 40
0.2032
 41
0.2032
 42
1.000
  0
VERTEX
  8
TOP_SILKSCREEN
 10
222.9288
 20
260.2144
  0
VERTEX
  8
TOP_SILKSCREEN
 10
222.9288
 20
260.2144
 40
0.1016
 41
0.1016
  0
VERTEX
  8
TOP_SILKSCREEN
 10
222.9796
 20
260.2144
 40
0.1016
 41
0.1016
 42
1.000
  0
VERTEX
  8
TOP_SILKSCREEN
 10
222.8780
 20
260.2144
  0
VERTEX
  8
TOP_SILKSCREEN
 10
222.8780
 20
260.2144
 40
0.1016
 41
0.1016
 42
1.000
  0
VERTEX
  8
TOP_SILKSCREEN
 10
222.9796
 20
260.2144
  0
VERTEX
  8
TOP_SILKSCREEN
 10
222.9288
 20
260.2144
  0
VERTEX
  8
TOP_SILKSCREEN
 10
222.9288
 20
260.2144
 40
0.2032
 41
0.2032
 42
1.000
  0
VERTEX
  8
TOP_SILKSCREEN
 10
219.5000
 20
260.2144
 40
0.2032
 41
0.2032
  0
VERTEX
  8
TOP_SILKSCREEN
 10
219.5000
 20
260.2144
  0
VERTEX
  8
TOP_SILKSCREEN
 10
219.5000
 20
260.2144
 40
0.1016
 41
0.1016
  0
VERTEX
  8
TOP_SILKSCREEN
 10
219.4492
 20
260.2144
 40
0.1016
 41
0.1016
 42
1.000
  0
VERTEX
  8
TOP_SILKSCREEN
 10
219.5508
 20
260.2144
  0
SEQEND
  8
TOP_SILKSCREEN
  0
POLYLINE
  8
TOP_SILKSCREEN
 66
     1
 62
    135
 10
0.0000
 20
0.0000
 70
     1
 40
0.0000
 41
0.0000
  0
VERTEX
  8
TOP_SILKSCREEN
 10
363.1719
 20
426.9999
 40
0.1016
 41
0.1016
 42
1.000
  0
VERTEX
  8
TOP_SILKSCREEN
 10
363.0703
 20
426.9999
  0
VERTEX
  8
TOP_SILKSCREEN
 10
363.1211
 20
426.9999
  0
VERTEX
  8
TOP_SILKSCREEN
 10
363.1211
 20
426.9999
 40
0.2032
 41
0.2032
 42
1.000
  0
VERTEX
  8
TOP_SILKSCREEN
 10
366.5499
 20
426.9999
  0
VERTEX
  8
TOP_SILKSCREEN
 10
366.5499
 20
426.9999
 40
0.1016
 41
0.1016
  0
VERTEX
  8
TOP_SILKSCREEN
 10
366.6007
 20
426.9999
 40
0.1016
 41
0.1016
 42
1.000
  0
VERTEX
  8
TOP_SILKSCREEN
 10
366.4991
 20
426.9999
  0
VERTEX
  8
TOP_SILKSCREEN
 10
366.4991
 20
426.9999
 40
0.1016
 41
0.1016
 42
1.000
  0
VERTEX
  8
TOP_SILKSCREEN
 10
366.6007
 20
426.9999
  0
VERTEX
  8
TOP_SILKSCREEN
 10
366.5499
 20
426.9999
  0
VERTEX
  8
TOP_SILKSCREEN
 10
366.5499
 20
426.9999
 40
0.2032
 41
0.2032
 42
1.000
  0
VERTEX
  8
TOP_SILKSCREEN
 10
363.1211
 20
426.9999
 40
0.2032
 41
0.2032
  0
VERTEX
  8
TOP_SILKSCREEN
 10
363.1211
 20
426.9999
  0
VERTEX
  8
TOP_SILKSCREEN
 10
363.1211
 20
426.9999
 40
0.1016
 41
0.1016
  0
VERTEX
  8
TOP_SILKSCREEN
 10
363.0703
 20
426.9999
 40
0.1016
 41
0.1016
 42
1.000
  0
VERTEX
  8
TOP_SILKSCREEN
 10
363.1719
 20
426.9999
  0
SEQEND
  8
TOP_SILKSCREEN
  0
POLYLINE
  8
TOP_SILKSCREEN
 66
     1
 62
    135
 10
0.0000
 20
0.0000
 70
     1
 40
0.0000
 41
0.0000
  0
VERTEX
  8
TOP_SILKSCREEN
 10
363.1718
 20
237.9644
 40
0.1016
 41
0.1016
 42
1.000
  0
VERTEX
  8
TOP_SILKSCREEN
 10
363.0702
 20
237.9644
  0
VERTEX
  8
TOP_SILKSCREEN
 10
363.1210
 20
237.9644
  0
VERTEX
  8
TOP_SILKSCREEN
 10
363.1210
 20
237.9644
 40
0.2032
 41
0.2032
 42
1.000
  0
VERTEX
  8
TOP_SILKSCREEN
 10
366.5498
 20
237.9644
  0
VERTEX
  8
TOP_SILKSCREEN
 10
366.5498
 20
237.9644
 40
0.1016
 41
0.1016
  0
VERTEX
  8
TOP_SILKSCREEN
 10
366.6006
 20
237.9644
 40
0.1016
 41
0.1016
 42
1.000
  0
VERTEX
  8
TOP_SILKSCREEN
 10
366.4990
 20
237.9644
  0
VERTEX
  8
TOP_SILKSCREEN
 10
366.4990
 20
237.9644
 40
0.1016
 41
0.1016
 42
1.000
  0
VERTEX
  8
TOP_SILKSCREEN
 10
366.6006
 20
237.9644
  0
VERTEX
  8
TOP_SILKSCREEN
 10
366.5498
 20
237.9644
  0
VERTEX
  8
TOP_SILKSCREEN
 10
366.5498
 20
237.9644
 40
0.2032
 41
0.2032
 42
1.000
  0
VERTEX
  8
TOP_SILKSCREEN
 10
363.1210
 20
237.9644
 40
0.2032
 41
0.2032
  0
VERTEX
  8
TOP_SILKSCREEN
 10
363.1210
 20
237.9644
  0
VERTEX
  8
TOP_SILKSCREEN
 10
363.1210
 20
237.9644
 40
0.1016
 41
0.1016
  0
VERTEX
  8
TOP_SILKSCREEN
 10
363.0702
 20
237.9644
 40
0.1016
 41
0.1016
 42
1.000
  0
VERTEX
  8
TOP_SILKSCREEN
 10
363.1718
 20
237.9644
  0
SEQEND
  8
TOP_SILKSCREEN
  0
POLYLINE
  8
TOP_SILKSCREEN
 66
     1
 62
    135
 10
0.0000
 20
0.0000
 70
     1
 40
0.0000
 41
0.0000
  0
VERTEX
  8
TOP_SILKSCREEN
 10
363.1718
 20
416.7144
 40
0.1016
 41
0.1016
 42
1.000
  0
VERTEX
  8
TOP_SILKSCREEN
 10
363.0702
 20
416.7144
  0
VERTEX
  8
TOP_SILKSCREEN
 10
363.1210
 20
416.7144
  0
VERTEX
  8
TOP_SILKSCREEN
 10
363.1210
 20
416.7144
 40
0.2032
 41
0.2032
 42
1.000
  0
VERTEX
  8
TOP_SILKSCREEN
 10
366.5498
 20
416.7144
  0
VERTEX
  8
TOP_SILKSCREEN
 10
366.5498
 20
416.7144
 40
0.1016
 41
0.1016
  0
VERTEX
  8
TOP_SILKSCREEN
 10
366.6006
 20
416.7144
 40
0.1016
 41
0.1016
 42
1.000
  0
VERTEX
  8
TOP_SILKSCREEN
 10
366.4990
 20
416.7144
  0
VERTEX
  8
TOP_SILKSCREEN
 10
366.4990
 20
416.7144
 40
0.1016
 41
0.1016
 42
1.000
  0
VERTEX
  8
TOP_SILKSCREEN
 10
366.6006
 20
416.7144
  0
VERTEX
  8
TOP_SILKSCREEN
 10
366.5498
 20
416.7144
  0
VERTEX
  8
TOP_SILKSCREEN
 10
366.5498
 20
416.7144
 40
0.2032
 41
0.2032
 42
1.000
  0
VERTEX
  8
TOP_SILKSCREEN
 10
363.1210
 20
416.7144
 40
0.2032
 41
0.2032
  0
VERTEX
  8
TOP_SILKSCREEN
 10
363.1210
 20
416.7144
  0
VERTEX
  8
TOP_SILKSCREEN
 10
363.1210
 20
416.7144
 40
0.1016
 41
0.1016
  0
VERTEX
  8
TOP_SILKSCREEN
 10
363.0702
 20
416.7144
 40
0.1016
 41
0.1016
 42
1.000
  0
VERTEX
  8
TOP_SILKSCREEN
 10
363.1718
 20
416.7144
  0
SEQEND
  8
TOP_SILKSCREEN
  0
POLYLINE
  8
TOP_SILKSCREEN
 66
     1
 62
    135
 10
0.0000
 20
0.0000
 70
     1
 40
0.0000
 41
0.0000
  0
VERTEX
  8
TOP_SILKSCREEN
 10
321.4218
 20
275.7144
 40
0.1016
 41
0.1016
 42
1.000
  0
VERTEX
  8
TOP_SILKSCREEN
 10
321.3202
 20
275.7144
  0
VERTEX
  8
TOP_SILKSCREEN
 10
321.3710
 20
275.7144
  0
VERTEX
  8
TOP_SILKSCREEN
 10
321.3710
 20
275.7144
 40
0.2032
 41
0.2032
 42
1.000
  0
VERTEX
  8
TOP_SILKSCREEN
 10
324.7998
 20
275.7144
  0
VERTEX
  8
TOP_SILKSCREEN
 10
324.7998
 20
275.7144
 40
0.1016
 41
0.1016
  0
VERTEX
  8
TOP_SILKSCREEN
 10
324.8506
 20
275.7144
 40
0.1016
 41
0.1016
 42
1.000
  0
VERTEX
  8
TOP_SILKSCREEN
 10
324.7490
 20
275.7144
  0
VERTEX
  8
TOP_SILKSCREEN
 10
324.7490
 20
275.7144
 40
0.1016
 41
0.1016
 42
1.000
  0
VERTEX
  8
TOP_SILKSCREEN
 10
324.8506
 20
275.7144
  0
VERTEX
  8
TOP_SILKSCREEN
 10
324.7998
 20
275.7144
  0
VERTEX
  8
TOP_SILKSCREEN
 10
324.7998
 20
275.7144
 40
0.2032
 41
0.2032
 42
1.000
  0
VERTEX
  8
TOP_SILKSCREEN
 10
321.3710
 20
275.7144
 40
0.2032
 41
0.2032
  0
VERTEX
  8
TOP_SILKSCREEN
 10
321.3710
 20
275.7144
  0
VERTEX
  8
TOP_SILKSCREEN
 10
321.3710
 20
275.7144
 40
0.1016
 41
0.1016
  0
VERTEX
  8
TOP_SILKSCREEN
 10
321.3202
 20
275.7144
 40
0.1016
 41
0.1016
 42
1.000
  0
VERTEX
  8
TOP_SILKSCREEN
 10
321.4218
 20
275.7144
  0
SEQEND
  8
TOP_SILKSCREEN
  0
POLYLINE
  8
TOP_SILKSCREEN
 66
     1
 62
    135
 10
0.0000
 20
0.0000
 70
     1
 40
0.0000
 41
0.0000
  0
VERTEX
  8
TOP_SILKSCREEN
 10
321.4218
 20
289.2144
 40
0.1016
 41
0.1016
 42
1.000
  0
VERTEX
  8
TOP_SILKSCREEN
 10
321.3202
 20
289.2144
  0
VERTEX
  8
TOP_SILKSCREEN
 10
321.3710
 20
289.2144
  0
VERTEX
  8
TOP_SILKSCREEN
 10
321.3710
 20
289.2144
 40
0.2032
 41
0.2032
 42
1.000
  0
VERTEX
  8
TOP_SILKSCREEN
 10
324.7998
 20
289.2144
  0
VERTEX
  8
TOP_SILKSCREEN
 10
324.7998
 20
289.2144
 40
0.1016
 41
0.1016
  0
VERTEX
  8
TOP_SILKSCREEN
 10
324.8506
 20
289.2144
 40
0.1016
 41
0.1016
 42
1.000
  0
VERTEX
  8
TOP_SILKSCREEN
 10
324.7490
 20
289.2144
  0
VERTEX
  8
TOP_SILKSCREEN
 10
324.7490
 20
289.2144
 40
0.1016
 41
0.1016
 42
1.000
  0
VERTEX
  8
TOP_SILKSCREEN
 10
324.8506
 20
289.2144
  0
VERTEX
  8
TOP_SILKSCREEN
 10
324.7998
 20
289.2144
  0
VERTEX
  8
TOP_SILKSCREEN
 10
324.7998
 20
289.2144
 40
0.2032
 41
0.2032
 42
1.000
  0
VERTEX
  8
TOP_SILKSCREEN
 10
321.3710
 20
289.2144
 40
0.2032
 41
0.2032
  0
VERTEX
  8
TOP_SILKSCREEN
 10
321.3710
 20
289.2144
  0
VERTEX
  8
TOP_SILKSCREEN
 10
321.3710
 20
289.2144
 40
0.1016
 41
0.1016
  0
VERTEX
  8
TOP_SILKSCREEN
 10
321.3202
 20
289.2144
 40
0.1016
 41
0.1016
 42
1.000
  0
VERTEX
  8
TOP_SILKSCREEN
 10
321.4218
 20
289.2144
  0
SEQEND
  8
TOP_SILKSCREEN
  0
POLYLINE
  8
TOP_SILKSCREEN
 66
     1
 62
    135
 10
0.0000
 20
0.0000
 70
     1
 40
0.0000
 41
0.0000
  0
VERTEX
  8
TOP_SILKSCREEN
 10
353.4218
 20
320.7144
 40
0.1016
 41
0.1016
 42
1.000
  0
VERTEX
  8
TOP_SILKSCREEN
 10
353.3202
 20
320.7144
  0
VERTEX
  8
TOP_SILKSCREEN
 10
353.3710
 20
320.7144
  0
VERTEX
  8
TOP_SILKSCREEN
 10
353.3710
 20
320.7144
 40
0.2032
 41
0.2032
 42
1.000
  0
VERTEX
  8
TOP_SILKSCREEN
 10
356.7998
 20
320.7144
  0
VERTEX
  8
TOP_SILKSCREEN
 10
356.7998
 20
320.7144
 40
0.1016
 41
0.1016
  0
VERTEX
  8
TOP_SILKSCREEN
 10
356.8506
 20
320.7144
 40
0.1016
 41
0.1016
 42
1.000
  0
VERTEX
  8
TOP_SILKSCREEN
 10
356.7490
 20
320.7144
  0
VERTEX
  8
TOP_SILKSCREEN
 10
356.7490
 20
320.7144
 40
0.1016
 41
0.1016
 42
1.000
  0
VERTEX
  8
TOP_SILKSCREEN
 10
356.8506
 20
320.7144
  0
VERTEX
  8
TOP_SILKSCREEN
 10
356.7998
 20
320.7144
  0
VERTEX
  8
TOP_SILKSCREEN
 10
356.7998
 20
320.7144
 40
0.2032
 41
0.2032
 42
1.000
  0
VERTEX
  8
TOP_SILKSCREEN
 10
353.3710
 20
320.7144
 40
0.2032
 41
0.2032
  0
VERTEX
  8
TOP_SILKSCREEN
 10
353.3710
 20
320.7144
  0
VERTEX
  8
TOP_SILKSCREEN
 10
353.3710
 20
320.7144
 40
0.1016
 41
0.1016
  0
VERTEX
  8
TOP_SILKSCREEN
 10
353.3202
 20
320.7144
 40
0.1016
 41
0.1016
 42
1.000
  0
VERTEX
  8
TOP_SILKSCREEN
 10
353.4218
 20
320.7144
  0
SEQEND
  8
TOP_SILKSCREEN
  0
POLYLINE
  8
TOP_SILKSCREEN
 66
     1
 62
    135
 10
0.0000
 20
0.0000
 70
     1
 40
0.0000
 41
0.0000
  0
VERTEX
  8
TOP_SILKSCREEN
 10
353.4218
 20
334.2144
 40
0.1016
 41
0.1016
 42
1.000
  0
VERTEX
  8
TOP_SILKSCREEN
 10
353.3202
 20
334.2144
  0
VERTEX
  8
TOP_SILKSCREEN
 10
353.3710
 20
334.2144
  0
VERTEX
  8
TOP_SILKSCREEN
 10
353.3710
 20
334.2144
 40
0.2032
 41
0.2032
 42
1.000
  0
VERTEX
  8
TOP_SILKSCREEN
 10
356.7998
 20
334.2144
  0
VERTEX
  8
TOP_SILKSCREEN
 10
356.7998
 20
334.2144
 40
0.1016
 41
0.1016
  0
VERTEX
  8
TOP_SILKSCREEN
 10
356.8506
 20
334.2144
 40
0.1016
 41
0.1016
 42
1.000
  0
VERTEX
  8
TOP_SILKSCREEN
 10
356.7490
 20
334.2144
  0
VERTEX
  8
TOP_SILKSCREEN
 10
356.7490
 20
334.2144
 40
0.1016
 41
0.1016
 42
1.000
  0
VERTEX
  8
TOP_SILKSCREEN
 10
356.8506
 20
334.2144
  0
VERTEX
  8
TOP_SILKSCREEN
 10
356.7998
 20
334.2144
  0
VERTEX
  8
TOP_SILKSCREEN
 10
356.7998
 20
334.2144
 40
0.2032
 41
0.2032
 42
1.000
  0
VERTEX
  8
TOP_SILKSCREEN
 10
353.3710
 20
334.2144
 40
0.2032
 41
0.2032
  0
VERTEX
  8
TOP_SILKSCREEN
 10
353.3710
 20
334.2144
  0
VERTEX
  8
TOP_SILKSCREEN
 10
353.3710
 20
334.2144
 40
0.1016
 41
0.1016
  0
VERTEX
  8
TOP_SILKSCREEN
 10
353.3202
 20
334.2144
 40
0.1016
 41
0.1016
 42
1.000
  0
VERTEX
  8
TOP_SILKSCREEN
 10
353.4218
 20
334.2144
  0
SEQEND
  8
TOP_SILKSCREEN
  0
POLYLINE
  8
TOP_SILKSCREEN
 66
     1
 62
    135
 10
0.0000
 20
0.0000
 70
     1
 40
0.0000
 41
0.0000
  0
VERTEX
  8
TOP_SILKSCREEN
 10
321.4218
 20
365.7144
 40
0.1016
 41
0.1016
 42
1.000
  0
VERTEX
  8
TOP_SILKSCREEN
 10
321.3202
 20
365.7144
  0
VERTEX
  8
TOP_SILKSCREEN
 10
321.3710
 20
365.7144
  0
VERTEX
  8
TOP_SILKSCREEN
 10
321.3710
 20
365.7144
 40
0.2032
 41
0.2032
 42
1.000
  0
VERTEX
  8
TOP_SILKSCREEN
 10
324.7998
 20
365.7144
  0
VERTEX
  8
TOP_SILKSCREEN
 10
324.7998
 20
365.7144
 40
0.1016
 41
0.1016
  0
VERTEX
  8
TOP_SILKSCREEN
 10
324.8506
 20
365.7144
 40
0.1016
 41
0.1016
 42
1.000
  0
VERTEX
  8
TOP_SILKSCREEN
 10
324.7490
 20
365.7144
  0
VERTEX
  8
TOP_SILKSCREEN
 10
324.7490
 20
365.7144
 40
0.1016
 41
0.1016
 42
1.000
  0
VERTEX
  8
TOP_SILKSCREEN
 10
324.8506
 20
365.7144
  0
VERTEX
  8
TOP_SILKSCREEN
 10
324.7998
 20
365.7144
  0
VERTEX
  8
TOP_SILKSCREEN
 10
324.7998
 20
365.7144
 40
0.2032
 41
0.2032
 42
1.000
  0
VERTEX
  8
TOP_SILKSCREEN
 10
321.3710
 20
365.7144
 40
0.2032
 41
0.2032
  0
VERTEX
  8
TOP_SILKSCREEN
 10
321.3710
 20
365.7144
  0
VERTEX
  8
TOP_SILKSCREEN
 10
321.3710
 20
365.7144
 40
0.1016
 41
0.1016
  0
VERTEX
  8
TOP_SILKSCREEN
 10
321.3202
 20
365.7144
 40
0.1016
 41
0.1016
 42
1.000
  0
VERTEX
  8
TOP_SILKSCREEN
 10
321.4218
 20
365.7144
  0
SEQEND
  8
TOP_SILKSCREEN
  0
POLYLINE
  8
TOP_SILKSCREEN
 66
     1
 62
    135
 10
0.0000
 20
0.0000
 70
     1
 40
0.0000
 41
0.0000
  0
VERTEX
  8
TOP_SILKSCREEN
 10
321.4218
 20
379.2144
 40
0.1016
 41
0.1016
 42
1.000
  0
VERTEX
  8
TOP_SILKSCREEN
 10
321.3202
 20
379.2144
  0
VERTEX
  8
TOP_SILKSCREEN
 10
321.3710
 20
379.2144
  0
VERTEX
  8
TOP_SILKSCREEN
 10
321.3710
 20
379.2144
 40
0.2032
 41
0.2032
 42
1.000
  0
VERTEX
  8
TOP_SILKSCREEN
 10
324.7998
 20
379.2144
  0
VERTEX
  8
TOP_SILKSCREEN
 10
324.7998
 20
379.2144
 40
0.1016
 41
0.1016
  0
VERTEX
  8
TOP_SILKSCREEN
 10
324.8506
 20
379.2144
 40
0.1016
 41
0.1016
 42
1.000
  0
VERTEX
  8
TOP_SILKSCREEN
 10
324.7490
 20
379.2144
  0
VERTEX
  8
TOP_SILKSCREEN
 10
324.7490
 20
379.2144
 40
0.1016
 41
0.1016
 42
1.000
  0
VERTEX
  8
TOP_SILKSCREEN
 10
324.8506
 20
379.2144
  0
VERTEX
  8
TOP_SILKSCREEN
 10
324.7998
 20
379.2144
  0
VERTEX
  8
TOP_SILKSCREEN
 10
324.7998
 20
379.2144
 40
0.2032
 41
0.2032
 42
1.000
  0
VERTEX
  8
TOP_SILKSCREEN
 10
321.3710
 20
379.2144
 40
0.2032
 41
0.2032
  0
VERTEX
  8
TOP_SILKSCREEN
 10
321.3710
 20
379.2144
  0
VERTEX
  8
TOP_SILKSCREEN
 10
321.3710
 20
379.2144
 40
0.1016
 41
0.1016
  0
VERTEX
  8
TOP_SILKSCREEN
 10
321.3202
 20
379.2144
 40
0.1016
 41
0.1016
 42
1.000
  0
VERTEX
  8
TOP_SILKSCREEN
 10
321.4218
 20
379.2144
  0
SEQEND
  8
TOP_SILKSCREEN
  0
POLYLINE
  8
TOP_SILKSCREEN
 66
     1
 62
    135
 10
0.0000
 20
0.0000
 70
     1
 40
0.0000
 41
0.0000
  0
VERTEX
  8
TOP_SILKSCREEN
 10
337.4218
 20
327.4644
 40
0.1016
 41
0.1016
 42
1.000
  0
VERTEX
  8
TOP_SILKSCREEN
 10
337.3202
 20
327.4644
  0
VERTEX
  8
TOP_SILKSCREEN
 10
337.3710
 20
327.4644
  0
VERTEX
  8
TOP_SILKSCREEN
 10
337.3710
 20
327.4644
 40
0.2032
 41
0.2032
 42
1.000
  0
VERTEX
  8
TOP_SILKSCREEN
 10
340.7998
 20
327.4644
  0
VERTEX
  8
TOP_SILKSCREEN
 10
340.7998
 20
327.4644
 40
0.1016
 41
0.1016
  0
VERTEX
  8
TOP_SILKSCREEN
 10
340.8506
 20
327.4644
 40
0.1016
 41
0.1016
 42
1.000
  0
VERTEX
  8
TOP_SILKSCREEN
 10
340.7490
 20
327.4644
  0
VERTEX
  8
TOP_SILKSCREEN
 10
340.7490
 20
327.4644
 40
0.1016
 41
0.1016
 42
1.000
  0
VERTEX
  8
TOP_SILKSCREEN
 10
340.8506
 20
327.4644
  0
VERTEX
  8
TOP_SILKSCREEN
 10
340.7998
 20
327.4644
  0
VERTEX
  8
TOP_SILKSCREEN
 10
340.7998
 20
327.4644
 40
0.2032
 41
0.2032
 42
1.000
  0
VERTEX
  8
TOP_SILKSCREEN
 10
337.3710
 20
327.4644
 40
0.2032
 41
0.2032
  0
VERTEX
  8
TOP_SILKSCREEN
 10
337.3710
 20
327.4644
  0
VERTEX
  8
TOP_SILKSCREEN
 10
337.3710
 20
327.4644
 40
0.1016
 41
0.1016
  0
VERTEX
  8
TOP_SILKSCREEN
 10
337.3202
 20
327.4644
 40
0.1016
 41
0.1016
 42
1.000
  0
VERTEX
  8
TOP_SILKSCREEN
 10
337.4218
 20
327.4644
  0
SEQEND
  8
TOP_SILKSCREEN
  0
POLYLINE
  8
TOP_SILKSCREEN
 66
     1
 62
    135
 10
0.0000
 20
0.0000
 70
     1
 40
0.0000
 41
0.0000
  0
VERTEX
  8
TOP_SILKSCREEN
 10
137.1008
 20
426.9999
 40
0.1016
 41
0.1016
 42
1.000
  0
VERTEX
  8
TOP_SILKSCREEN
 10
136.9992
 20
426.9999
  0
VERTEX
  8
TOP_SILKSCREEN
 10
137.0500
 20
426.9999
  0
VERTEX
  8
TOP_SILKSCREEN
 10
137.0500
 20
426.9999
 40
0.2032
 41
0.2032
 42
1.000
  0
VERTEX
  8
TOP_SILKSCREEN
 10
140.4788
 20
426.9999
  0
VERTEX
  8
TOP_SILKSCREEN
 10
140.4788
 20
426.9999
 40
0.1016
 41
0.1016
  0
VERTEX
  8
TOP_SILKSCREEN
 10
140.5296
 20
426.9999
 40
0.1016
 41
0.1016
 42
1.000
  0
VERTEX
  8
TOP_SILKSCREEN
 10
140.4280
 20
426.9999
  0
VERTEX
  8
TOP_SILKSCREEN
 10
140.4280
 20
426.9999
 40
0.1016
 41
0.1016
 42
1.000
  0
VERTEX
  8
TOP_SILKSCREEN
 10
140.5296
 20
426.9999
  0
VERTEX
  8
TOP_SILKSCREEN
 10
140.4788
 20
426.9999
  0
VERTEX
  8
TOP_SILKSCREEN
 10
140.4788
 20
426.9999
 40
0.2032
 41
0.2032
 42
1.000
  0
VERTEX
  8
TOP_SILKSCREEN
 10
137.0500
 20
426.9999
 40
0.2032
 41
0.2032
  0
VERTEX
  8
TOP_SILKSCREEN
 10
137.0500
 20
426.9999
  0
VERTEX
  8
TOP_SILKSCREEN
 10
137.0500
 20
426.9999
 40
0.1016
 41
0.1016
  0
VERTEX
  8
TOP_SILKSCREEN
 10
136.9992
 20
426.9999
 40
0.1016
 41
0.1016
 42
1.000
  0
VERTEX
  8
TOP_SILKSCREEN
 10
137.1008
 20
426.9999
  0
SEQEND
  8
TOP_SILKSCREEN
  0
POLYLINE
  8
TOP_SILKSCREEN
 66
     1
 62
    135
 10
0.0000
 20
0.0000
 70
     1
 40
0.0000
 41
0.0000
  0
VERTEX
  8
TOP_SILKSCREEN
 10
137.1009
 20
237.9644
 40
0.1016
 41
0.1016
 42
1.000
  0
VERTEX
  8
TOP_SILKSCREEN
 10
136.9993
 20
237.9644
  0
VERTEX
  8
TOP_SILKSCREEN
 10
137.0501
 20
237.9644
  0
VERTEX
  8
TOP_SILKSCREEN
 10
137.0501
 20
237.9644
 40
0.2032
 41
0.2032
 42
1.000
  0
VERTEX
  8
TOP_SILKSCREEN
 10
140.4789
 20
237.9644
  0
VERTEX
  8
TOP_SILKSCREEN
 10
140.4789
 20
237.9644
 40
0.1016
 41
0.1016
  0
VERTEX
  8
TOP_SILKSCREEN
 10
140.5297
 20
237.9644
 40
0.1016
 41
0.1016
 42
1.000
  0
VERTEX
  8
TOP_SILKSCREEN
 10
140.4281
 20
237.9644
  0
VERTEX
  8
TOP_SILKSCREEN
 10
140.4281
 20
237.9644
 40
0.1016
 41
0.1016
 42
1.000
  0
VERTEX
  8
TOP_SILKSCREEN
 10
140.5297
 20
237.9644
  0
VERTEX
  8
TOP_SILKSCREEN
 10
140.4789
 20
237.9644
  0
VERTEX
  8
TOP_SILKSCREEN
 10
140.4789
 20
237.9644
 40
0.2032
 41
0.2032
 42
1.000
  0
VERTEX
  8
TOP_SILKSCREEN
 10
137.0501
 20
237.9644
 40
0.2032
 41
0.2032
  0
VERTEX
  8
TOP_SILKSCREEN
 10
137.0501
 20
237.9644
  0
VERTEX
  8
TOP_SILKSCREEN
 10
137.0501
 20
237.9644
 40
0.1016
 41
0.1016
  0
VERTEX
  8
TOP_SILKSCREEN
 10
136.9993
 20
237.9644
 40
0.1016
 41
0.1016
 42
1.000
  0
VERTEX
  8
TOP_SILKSCREEN
 10
137.1009
 20
237.9644
  0
SEQEND
  8
TOP_SILKSCREEN
  0
POLYLINE
  8
TOP_SILKSCREEN
 66
     1
 62
    135
 10
0.0000
 20
0.0000
 70
     1
 40
0.0000
 41
0.0000
  0
VERTEX
  8
TOP_SILKSCREEN
 10
137.1009
 20
416.7144
 40
0.1016
 41
0.1016
 42
1.000
  0
VERTEX
  8
TOP_SILKSCREEN
 10
136.9993
 20
416.7144
  0
VERTEX
  8
TOP_SILKSCREEN
 10
137.0501
 20
416.7144
  0
VERTEX
  8
TOP_SILKSCREEN
 10
137.0501
 20
416.7144
 40
0.2032
 41
0.2032
 42
1.000
  0
VERTEX
  8
TOP_SILKSCREEN
 10
140.4789
 20
416.7144
  0
VERTEX
  8
TOP_SILKSCREEN
 10
140.4789
 20
416.7144
 40
0.1016
 41
0.1016
  0
VERTEX
  8
TOP_SILKSCREEN
 10
140.5297
 20
416.7144
 40
0.1016
 41
0.1016
 42
1.000
  0
VERTEX
  8
TOP_SILKSCREEN
 10
140.4281
 20
416.7144
  0
VERTEX
  8
TOP_SILKSCREEN
 10
140.4281
 20
416.7144
 40
0.1016
 41
0.1016
 42
1.000
  0
VERTEX
  8
TOP_SILKSCREEN
 10
140.5297
 20
416.7144
  0
VERTEX
  8
TOP_SILKSCREEN
 10
140.4789
 20
416.7144
  0
VERTEX
  8
TOP_SILKSCREEN
 10
140.4789
 20
416.7144
 40
0.2032
 41
0.2032
 42
1.000
  0
VERTEX
  8
TOP_SILKSCREEN
 10
137.0501
 20
416.7144
 40
0.2032
 41
0.2032
  0
VERTEX
  8
TOP_SILKSCREEN
 10
137.0501
 20
416.7144
  0
VERTEX
  8
TOP_SILKSCREEN
 10
137.0501
 20
416.7144
 40
0.1016
 41
0.1016
  0
VERTEX
  8
TOP_SILKSCREEN
 10
136.9993
 20
416.7144
 40
0.1016
 41
0.1016
 42
1.000
  0
VERTEX
  8
TOP_SILKSCREEN
 10
137.1009
 20
416.7144
  0
SEQEND
  8
TOP_SILKSCREEN
  0
POLYLINE
  8
TOP_SILKSCREEN
 66
     1
 62
    135
 10
0.0000
 20
0.0000
 70
     1
 40
0.0000
 41
0.0000
  0
VERTEX
  8
TOP_SILKSCREEN
 10
178.8509
 20
275.7144
 40
0.1016
 41
0.1016
 42
1.000
  0
VERTEX
  8
TOP_SILKSCREEN
 10
178.7493
 20
275.7144
  0
VERTEX
  8
TOP_SILKSCREEN
 10
178.8001
 20
275.7144
  0
VERTEX
  8
TOP_SILKSCREEN
 10
178.8001
 20
275.7144
 40
0.2032
 41
0.2032
 42
1.000
  0
VERTEX
  8
TOP_SILKSCREEN
 10
182.2289
 20
275.7144
  0
VERTEX
  8
TOP_SILKSCREEN
 10
182.2289
 20
275.7144
 40
0.1016
 41
0.1016
  0
VERTEX
  8
TOP_SILKSCREEN
 10
182.2797
 20
275.7144
 40
0.1016
 41
0.1016
 42
1.000
  0
VERTEX
  8
TOP_SILKSCREEN
 10
182.1781
 20
275.7144
  0
VERTEX
  8
TOP_SILKSCREEN
 10
182.1781
 20
275.7144
 40
0.1016
 41
0.1016
 42
1.000
  0
VERTEX
  8
TOP_SILKSCREEN
 10
182.2797
 20
275.7144
  0
VERTEX
  8
TOP_SILKSCREEN
 10
182.2289
 20
275.7144
  0
VERTEX
  8
TOP_SILKSCREEN
 10
182.2289
 20
275.7144
 40
0.2032
 41
0.2032
 42
1.000
  0
VERTEX
  8
TOP_SILKSCREEN
 10
178.8001
 20
275.7144
 40
0.2032
 41
0.2032
  0
VERTEX
  8
TOP_SILKSCREEN
 10
178.8001
 20
275.7144
  0
VERTEX
  8
TOP_SILKSCREEN
 10
178.8001
 20
275.7144
 40
0.1016
 41
0.1016
  0
VERTEX
  8
TOP_SILKSCREEN
 10
178.7493
 20
275.7144
 40
0.1016
 41
0.1016
 42
1.000
  0
VERTEX
  8
TOP_SILKSCREEN
 10
178.8509
 20
275.7144
  0
SEQEND
  8
TOP_SILKSCREEN
  0
POLYLINE
  8
TOP_SILKSCREEN
 66
     1
 62
    135
 10
0.0000
 20
0.0000
 70
     1
 40
0.0000
 41
0.0000
  0
VERTEX
  8
TOP_SILKSCREEN
 10
178.8509
 20
289.2144
 40
0.1016
 41
0.1016
 42
1.000
  0
VERTEX
  8
TOP_SILKSCREEN
 10
178.7493
 20
289.2144
  0
VERTEX
  8
TOP_SILKSCREEN
 10
178.8001
 20
289.2144
  0
VERTEX
  8
TOP_SILKSCREEN
 10
178.8001
 20
289.2144
 40
0.2032
 41
0.2032
 42
1.000
  0
VERTEX
  8
TOP_SILKSCREEN
 10
182.2289
 20
289.2144
  0
VERTEX
  8
TOP_SILKSCREEN
 10
182.2289
 20
289.2144
 40
0.1016
 41
0.1016
  0
VERTEX
  8
TOP_SILKSCREEN
 10
182.2797
 20
289.2144
 40
0.1016
 41
0.1016
 42
1.000
  0
VERTEX
  8
TOP_SILKSCREEN
 10
182.1781
 20
289.2144
  0
VERTEX
  8
TOP_SILKSCREEN
 10
182.1781
 20
289.2144
 40
0.1016
 41
0.1016
 42
1.000
  0
VERTEX
  8
TOP_SILKSCREEN
 10
182.2797
 20
289.2144
  0
VERTEX
  8
TOP_SILKSCREEN
 10
182.2289
 20
289.2144
  0
VERTEX
  8
TOP_SILKSCREEN
 10
182.2289
 20
289.2144
 40
0.2032
 41
0.2032
 42
1.000
  0
VERTEX
  8
TOP_SILKSCREEN
 10
178.8001
 20
289.2144
 40
0.2032
 41
0.2032
  0
VERTEX
  8
TOP_SILKSCREEN
 10
178.8001
 20
289.2144
  0
VERTEX
  8
TOP_SILKSCREEN
 10
178.8001
 20
289.2144
 40
0.1016
 41
0.1016
  0
VERTEX
  8
TOP_SILKSCREEN
 10
178.7493
 20
289.2144
 40
0.1016
 41
0.1016
 42
1.000
  0
VERTEX
  8
TOP_SILKSCREEN
 10
178.8509
 20
289.2144
  0
SEQEND
  8
TOP_SILKSCREEN
  0
POLYLINE
  8
TOP_SILKSCREEN
 66
     1
 62
    135
 10
0.0000
 20
0.0000
 70
     1
 40
0.0000
 41
0.0000
  0
VERTEX
  8
TOP_SILKSCREEN
 10
146.8509
 20
320.7144
 40
0.1016
 41
0.1016
 42
1.000
  0
VERTEX
  8
TOP_SILKSCREEN
 10
146.7493
 20
320.7144
  0
VERTEX
  8
TOP_SILKSCREEN
 10
146.8001
 20
320.7144
  0
VERTEX
  8
TOP_SILKSCREEN
 10
146.8001
 20
320.7144
 40
0.2032
 41
0.2032
 42
1.000
  0
VERTEX
  8
TOP_SILKSCREEN
 10
150.2289
 20
320.7144
  0
VERTEX
  8
TOP_SILKSCREEN
 10
150.2289
 20
320.7144
 40
0.1016
 41
0.1016
  0
VERTEX
  8
TOP_SILKSCREEN
 10
150.2797
 20
320.7144
 40
0.1016
 41
0.1016
 42
1.000
  0
VERTEX
  8
TOP_SILKSCREEN
 10
150.1781
 20
320.7144
  0
VERTEX
  8
TOP_SILKSCREEN
 10
150.1781
 20
320.7144
 40
0.1016
 41
0.1016
 42
1.000
  0
VERTEX
  8
TOP_SILKSCREEN
 10
150.2797
 20
320.7144
  0
VERTEX
  8
TOP_SILKSCREEN
 10
150.2289
 20
320.7144
  0
VERTEX
  8
TOP_SILKSCREEN
 10
150.2289
 20
320.7144
 40
0.2032
 41
0.2032
 42
1.000
  0
VERTEX
  8
TOP_SILKSCREEN
 10
146.8001
 20
320.7144
 40
0.2032
 41
0.2032
  0
VERTEX
  8
TOP_SILKSCREEN
 10
146.8001
 20
320.7144
  0
VERTEX
  8
TOP_SILKSCREEN
 10
146.8001
 20
320.7144
 40
0.1016
 41
0.1016
  0
VERTEX
  8
TOP_SILKSCREEN
 10
146.7493
 20
320.7144
 40
0.1016
 41
0.1016
 42
1.000
  0
VERTEX
  8
TOP_SILKSCREEN
 10
146.8509
 20
320.7144
  0
SEQEND
  8
TOP_SILKSCREEN
  0
POLYLINE
  8
TOP_SILKSCREEN
 66
     1
 62
    135
 10
0.0000
 20
0.0000
 70
     1
 40
0.0000
 41
0.0000
  0
VERTEX
  8
TOP_SILKSCREEN
 10
146.8509
 20
334.2144
 40
0.1016
 41
0.1016
 42
1.000
  0
VERTEX
  8
TOP_SILKSCREEN
 10
146.7493
 20
334.2144
  0
VERTEX
  8
TOP_SILKSCREEN
 10
146.8001
 20
334.2144
  0
VERTEX
  8
TOP_SILKSCREEN
 10
146.8001
 20
334.2144
 40
0.2032
 41
0.2032
 42
1.000
  0
VERTEX
  8
TOP_SILKSCREEN
 10
150.2289
 20
334.2144
  0
VERTEX
  8
TOP_SILKSCREEN
 10
150.2289
 20
334.2144
 40
0.1016
 41
0.1016
  0
VERTEX
  8
TOP_SILKSCREEN
 10
150.2797
 20
334.2144
 40
0.1016
 41
0.1016
 42
1.000
  0
VERTEX
  8
TOP_SILKSCREEN
 10
150.1781
 20
334.2144
  0
VERTEX
  8
TOP_SILKSCREEN
 10
150.1781
 20
334.2144
 40
0.1016
 41
0.1016
 42
1.000
  0
VERTEX
  8
TOP_SILKSCREEN
 10
150.2797
 20
334.2144
  0
VERTEX
  8
TOP_SILKSCREEN
 10
150.2289
 20
334.2144
  0
VERTEX
  8
TOP_SILKSCREEN
 10
150.2289
 20
334.2144
 40
0.2032
 41
0.2032
 42
1.000
  0
VERTEX
  8
TOP_SILKSCREEN
 10
146.8001
 20
334.2144
 40
0.2032
 41
0.2032
  0
VERTEX
  8
TOP_SILKSCREEN
 10
146.8001
 20
334.2144
  0
VERTEX
  8
TOP_SILKSCREEN
 10
146.8001
 20
334.2144
 40
0.1016
 41
0.1016
  0
VERTEX
  8
TOP_SILKSCREEN
 10
146.7493
 20
334.2144
 40
0.1016
 41
0.1016
 42
1.000
  0
VERTEX
  8
TOP_SILKSCREEN
 10
146.8509
 20
334.2144
  0
SEQEND
  8
TOP_SILKSCREEN
  0
POLYLINE
  8
TOP_SILKSCREEN
 66
     1
 62
    135
 10
0.0000
 20
0.0000
 70
     1
 40
0.0000
 41
0.0000
  0
VERTEX
  8
TOP_SILKSCREEN
 10
178.8509
 20
365.7144
 40
0.1016
 41
0.1016
 42
1.000
  0
VERTEX
  8
TOP_SILKSCREEN
 10
178.7493
 20
365.7144
  0
VERTEX
  8
TOP_SILKSCREEN
 10
178.8001
 20
365.7144
  0
VERTEX
  8
TOP_SILKSCREEN
 10
178.8001
 20
365.7144
 40
0.2032
 41
0.2032
 42
1.000
  0
VERTEX
  8
TOP_SILKSCREEN
 10
182.2289
 20
365.7144
  0
VERTEX
  8
TOP_SILKSCREEN
 10
182.2289
 20
365.7144
 40
0.1016
 41
0.1016
  0
VERTEX
  8
TOP_SILKSCREEN
 10
182.2797
 20
365.7144
 40
0.1016
 41
0.1016
 42
1.000
  0
VERTEX
  8
TOP_SILKSCREEN
 10
182.1781
 20
365.7144
  0
VERTEX
  8
TOP_SILKSCREEN
 10
182.1781
 20
365.7144
 40
0.1016
 41
0.1016
 42
1.000
  0
VERTEX
  8
TOP_SILKSCREEN
 10
182.2797
 20
365.7144
  0
VERTEX
  8
TOP_SILKSCREEN
 10
182.2289
 20
365.7144
  0
VERTEX
  8
TOP_SILKSCREEN
 10
182.2289
 20
365.7144
 40
0.2032
 41
0.2032
 42
1.000
  0
VERTEX
  8
TOP_SILKSCREEN
 10
178.8001
 20
365.7144
 40
0.2032
 41
0.2032
  0
VERTEX
  8
TOP_SILKSCREEN
 10
178.8001
 20
365.7144
  0
VERTEX
  8
TOP_SILKSCREEN
 10
178.8001
 20
365.7144
 40
0.1016
 41
0.1016
  0
VERTEX
  8
TOP_SILKSCREEN
 10
178.7493
 20
365.7144
 40
0.1016
 41
0.1016
 42
1.000
  0
VERTEX
  8
TOP_SILKSCREEN
 10
178.8509
 20
365.7144
  0
SEQEND
  8
TOP_SILKSCREEN
  0
POLYLINE
  8
TOP_SILKSCREEN
 66
     1
 62
    135
 10
0.0000
 20
0.0000
 70
     1
 40
0.0000
 41
0.0000
  0
VERTEX
  8
TOP_SILKSCREEN
 10
178.8509
 20
379.2144
 40
0.1016
 41
0.1016
 42
1.000
  0
VERTEX
  8
TOP_SILKSCREEN
 10
178.7493
 20
379.2144
  0
VERTEX
  8
TOP_SILKSCREEN
 10
178.8001
 20
379.2144
  0
VERTEX
  8
TOP_SILKSCREEN
 10
178.8001
 20
379.2144
 40
0.2032
 41
0.2032
 42
1.000
  0
VERTEX
  8
TOP_SILKSCREEN
 10
182.2289
 20
379.2144
  0
VERTEX
  8
TOP_SILKSCREEN
 10
182.2289
 20
379.2144
 40
0.1016
 41
0.1016
  0
VERTEX
  8
TOP_SILKSCREEN
 10
182.2797
 20
379.2144
 40
0.1016
 41
0.1016
 42
1.000
  0
VERTEX
  8
TOP_SILKSCREEN
 10
182.1781
 20
379.2144
  0
VERTEX
  8
TOP_SILKSCREEN
 10
182.1781
 20
379.2144
 40
0.1016
 41
0.1016
 42
1.000
  0
VERTEX
  8
TOP_SILKSCREEN
 10
182.2797
 20
379.2144
  0
VERTEX
  8
TOP_SILKSCREEN
 10
182.2289
 20
379.2144
  0
VERTEX
  8
TOP_SILKSCREEN
 10
182.2289
 20
379.2144
 40
0.2032
 41
0.2032
 42
1.000
  0
VERTEX
  8
TOP_SILKSCREEN
 10
178.8001
 20
379.2144
 40
0.2032
 41
0.2032
  0
VERTEX
  8
TOP_SILKSCREEN
 10
178.8001
 20
379.2144
  0
VERTEX
  8
TOP_SILKSCREEN
 10
178.8001
 20
379.2144
 40
0.1016
 41
0.1016
  0
VERTEX
  8
TOP_SILKSCREEN
 10
178.7493
 20
379.2144
 40
0.1016
 41
0.1016
 42
1.000
  0
VERTEX
  8
TOP_SILKSCREEN
 10
178.8509
 20
379.2144
  0
SEQEND
  8
TOP_SILKSCREEN
  0
POLYLINE
  8
TOP_SILKSCREEN
 66
     1
 62
    135
 10
0.0000
 20
0.0000
 70
     1
 40
0.0000
 41
0.0000
  0
VERTEX
  8
TOP_SILKSCREEN
 10
162.8509
 20
327.4644
 40
0.1016
 41
0.1016
 42
1.000
  0
VERTEX
  8
TOP_SILKSCREEN
 10
162.7493
 20
327.4644
  0
VERTEX
  8
TOP_SILKSCREEN
 10
162.8001
 20
327.4644
  0
VERTEX
  8
TOP_SILKSCREEN
 10
162.8001
 20
327.4644
 40
0.2032
 41
0.2032
 42
1.000
  0
VERTEX
  8
TOP_SILKSCREEN
 10
166.2289
 20
327.4644
  0
VERTEX
  8
TOP_SILKSCREEN
 10
166.2289
 20
327.4644
 40
0.1016
 41
0.1016
  0
VERTEX
  8
TOP_SILKSCREEN
 10
166.2797
 20
327.4644
 40
0.1016
 41
0.1016
 42
1.000
  0
VERTEX
  8
TOP_SILKSCREEN
 10
166.1781
 20
327.4644
  0
VERTEX
  8
TOP_SILKSCREEN
 10
166.1781
 20
327.4644
 40
0.1016
 41
0.1016
 42
1.000
  0
VERTEX
  8
TOP_SILKSCREEN
 10
166.2797
 20
327.4644
  0
VERTEX
  8
TOP_SILKSCREEN
 10
166.2289
 20
327.4644
  0
VERTEX
  8
TOP_SILKSCREEN
 10
166.2289
 20
327.4644
 40
0.2032
 41
0.2032
 42
1.000
  0
VERTEX
  8
TOP_SILKSCREEN
 10
162.8001
 20
327.4644
 40
0.2032
 41
0.2032
  0
VERTEX
  8
TOP_SILKSCREEN
 10
162.8001
 20
327.4644
  0
VERTEX
  8
TOP_SILKSCREEN
 10
162.8001
 20
327.4644
 40
0.1016
 41
0.1016
  0
VERTEX
  8
TOP_SILKSCREEN
 10
162.7493
 20
327.4644
 40
0.1016
 41
0.1016
 42
1.000
  0
VERTEX
  8
TOP_SILKSCREEN
 10
162.8509
 20
327.4644
  0
SEQEND
  8
TOP_SILKSCREEN
  0
POLYLINE
  8
TOP_SILKSCREEN
 66
     1
 62
    135
 10
0.0000
 20
0.0000
 70
     1
 40
0.0000
 41
0.0000
  0
VERTEX
  8
TOP_SILKSCREEN
 10
280.6220
 20
416.7145
 40
0.1016
 41
0.1016
 42
1.000
  0
VERTEX
  8
TOP_SILKSCREEN
 10
280.5204
 20
416.7145
  0
VERTEX
  8
TOP_SILKSCREEN
 10
280.5712
 20
416.7145
  0
VERTEX
  8
TOP_SILKSCREEN
 10
280.5712
 20
416.7145
 40
0.2032
 41
0.2032
 42
1.000
  0
VERTEX
  8
TOP_SILKSCREEN
 10
284.0000
 20
416.7145
  0
VERTEX
  8
TOP_SILKSCREEN
 10
284.0000
 20
416.7145
 40
0.1016
 41
0.1016
  0
VERTEX
  8
TOP_SILKSCREEN
 10
284.0508
 20
416.7145
 40
0.1016
 41
0.1016
 42
1.000
  0
VERTEX
  8
TOP_SILKSCREEN
 10
283.9492
 20
416.7145
  0
VERTEX
  8
TOP_SILKSCREEN
 10
283.9492
 20
416.7145
 40
0.1016
 41
0.1016
 42
1.000
  0
VERTEX
  8
TOP_SILKSCREEN
 10
284.0508
 20
416.7145
  0
VERTEX
  8
TOP_SILKSCREEN
 10
284.0000
 20
416.7145
  0
VERTEX
  8
TOP_SILKSCREEN
 10
284.0000
 20
416.7145
 40
0.2032
 41
0.2032
 42
1.000
  0
VERTEX
  8
TOP_SILKSCREEN
 10
280.5712
 20
416.7145
 40
0.2032
 41
0.2032
  0
VERTEX
  8
TOP_SILKSCREEN
 10
280.5712
 20
416.7145
  0
VERTEX
  8
TOP_SILKSCREEN
 10
280.5712
 20
416.7145
 40
0.1016
 41
0.1016
  0
VERTEX
  8
TOP_SILKSCREEN
 10
280.5204
 20
416.7145
 40
0.1016
 41
0.1016
 42
1.000
  0
VERTEX
  8
TOP_SILKSCREEN
 10
280.6220
 20
416.7145
  0
SEQEND
  8
TOP_SILKSCREEN
  0
POLYLINE
  8
TOP_SILKSCREEN
 66
     1
 62
    135
 10
0.0000
 20
0.0000
 70
     1
 40
0.0000
 41
0.0000
  0
VERTEX
  8
TOP_SILKSCREEN
 10
280.5508
 20
238.0000
 40
0.1016
 41
0.1016
 42
1.000
  0
VERTEX
  8
TOP_SILKSCREEN
 10
280.4492
 20
238.0000
  0
VERTEX
  8
TOP_SILKSCREEN
 10
280.5000
 20
238.0000
  0
VERTEX
  8
TOP_SILKSCREEN
 10
280.5000
 20
238.0000
 40
0.2032
 41
0.2032
 42
1.000
  0
VERTEX
  8
TOP_SILKSCREEN
 10
283.9288
 20
238.0000
  0
VERTEX
  8
TOP_SILKSCREEN
 10
283.9288
 20
238.0000
 40
0.1016
 41
0.1016
  0
VERTEX
  8
TOP_SILKSCREEN
 10
283.9796
 20
238.0000
 40
0.1016
 41
0.1016
 42
1.000
  0
VERTEX
  8
TOP_SILKSCREEN
 10
283.8780
 20
238.0000
  0
VERTEX
  8
TOP_SILKSCREEN
 10
283.8780
 20
238.0000
 40
0.1016
 41
0.1016
 42
1.000
  0
VERTEX
  8
TOP_SILKSCREEN
 10
283.9796
 20
238.0000
  0
VERTEX
  8
TOP_SILKSCREEN
 10
283.9288
 20
238.0000
  0
VERTEX
  8
TOP_SILKSCREEN
 10
283.9288
 20
238.0000
 40
0.2032
 41
0.2032
 42
1.000
  0
VERTEX
  8
TOP_SILKSCREEN
 10
280.5000
 20
238.0000
 40
0.2032
 41
0.2032
  0
VERTEX
  8
TOP_SILKSCREEN
 10
280.5000
 20
238.0000
  0
VERTEX
  8
TOP_SILKSCREEN
 10
280.5000
 20
238.0000
 40
0.1016
 41
0.1016
  0
VERTEX
  8
TOP_SILKSCREEN
 10
280.4492
 20
238.0000
 40
0.1016
 41
0.1016
 42
1.000
  0
VERTEX
  8
TOP_SILKSCREEN
 10
280.5508
 20
238.0000
  0
SEQEND
  8
TOP_SILKSCREEN
  0
POLYLINE
  8
TOP_SILKSCREEN
 66
     1
 62
    135
 10
0.0000
 20
0.0000
 70
     1
 40
0.0000
 41
0.0000
  0
VERTEX
  8
TOP_SILKSCREEN
 10
280.5508
 20
260.2144
 40
0.1016
 41
0.1016
 42
1.000
  0
VERTEX
  8
TOP_SILKSCREEN
 10
280.4492
 20
260.2144
  0
VERTEX
  8
TOP_SILKSCREEN
 10
280.5000
 20
260.2144
  0
VERTEX
  8
TOP_SILKSCREEN
 10
280.5000
 20
260.2144
 40
0.2032
 41
0.2032
 42
1.000
  0
VERTEX
  8
TOP_SILKSCREEN
 10
283.9288
 20
260.2144
  0
VERTEX
  8
TOP_SILKSCREEN
 10
283.9288
 20
260.2144
 40
0.1016
 41
0.1016
  0
VERTEX
  8
TOP_SILKSCREEN
 10
283.9796
 20
260.2144
 40
0.1016
 41
0.1016
 42
1.000
  0
VERTEX
  8
TOP_SILKSCREEN
 10
283.8780
 20
260.2144
  0
VERTEX
  8
TOP_SILKSCREEN
 10
283.8780
 20
260.2144
 40
0.1016
 41
0.1016
 42
1.000
  0
VERTEX
  8
TOP_SILKSCREEN
 10
283.9796
 20
260.2144
  0
VERTEX
  8
TOP_SILKSCREEN
 10
283.9288
 20
260.2144
  0
VERTEX
  8
TOP_SILKSCREEN
 10
283.9288
 20
260.2144
 40
0.2032
 41
0.2032
 42
1.000
  0
VERTEX
  8
TOP_SILKSCREEN
 10
280.5000
 20
260.2144
 40
0.2032
 41
0.2032
  0
VERTEX
  8
TOP_SILKSCREEN
 10
280.5000
 20
260.2144
  0
VERTEX
  8
TOP_SILKSCREEN
 10
280.5000
 20
260.2144
 40
0.1016
 41
0.1016
  0
VERTEX
  8
TOP_SILKSCREEN
 10
280.4492
 20
260.2144
 40
0.1016
 41
0.1016
 42
1.000
  0
VERTEX
  8
TOP_SILKSCREEN
 10
280.5508
 20
260.2144
  0
SEQEND
  8
TOP_SILKSCREEN
  0
POLYLINE
  8
TOP_SILKSCREEN
 66
     1
 62
    135
 10
0.0000
 20
0.0000
 70
     1
 40
0.0000
 41
0.0000
  0
VERTEX
  8
TOP_SILKSCREEN
 10
280.5508
 20
282.4644
 40
0.1016
 41
0.1016
 42
1.000
  0
VERTEX
  8
TOP_SILKSCREEN
 10
280.4492
 20
282.4644
  0
VERTEX
  8
TOP_SILKSCREEN
 10
280.5000
 20
282.4644
  0
VERTEX
  8
TOP_SILKSCREEN
 10
280.5000
 20
282.4644
 40
0.2032
 41
0.2032
 42
1.000
  0
VERTEX
  8
TOP_SILKSCREEN
 10
283.9288
 20
282.4644
  0
VERTEX
  8
TOP_SILKSCREEN
 10
283.9288
 20
282.4644
 40
0.1016
 41
0.1016
  0
VERTEX
  8
TOP_SILKSCREEN
 10
283.9796
 20
282.4644
 40
0.1016
 41
0.1016
 42
1.000
  0
VERTEX
  8
TOP_SILKSCREEN
 10
283.8780
 20
282.4644
  0
VERTEX
  8
TOP_SILKSCREEN
 10
283.8780
 20
282.4644
 40
0.1016
 41
0.1016
 42
1.000
  0
VERTEX
  8
TOP_SILKSCREEN
 10
283.9796
 20
282.4644
  0
VERTEX
  8
TOP_SILKSCREEN
 10
283.9288
 20
282.4644
  0
VERTEX
  8
TOP_SILKSCREEN
 10
283.9288
 20
282.4644
 40
0.2032
 41
0.2032
 42
1.000
  0
VERTEX
  8
TOP_SILKSCREEN
 10
280.5000
 20
282.4644
 40
0.2032
 41
0.2032
  0
VERTEX
  8
TOP_SILKSCREEN
 10
280.5000
 20
282.4644
  0
VERTEX
  8
TOP_SILKSCREEN
 10
280.5000
 20
282.4644
 40
0.1016
 41
0.1016
  0
VERTEX
  8
TOP_SILKSCREEN
 10
280.4492
 20
282.4644
 40
0.1016
 41
0.1016
 42
1.000
  0
VERTEX
  8
TOP_SILKSCREEN
 10
280.5508
 20
282.4644
  0
SEQEND
  8
TOP_SILKSCREEN
  0
POLYLINE
  8
TOP_SILKSCREEN
 66
     1
 62
    135
 10
0.0000
 20
0.0000
 70
     1
 40
0.0000
 41
0.0000
  0
VERTEX
  8
TOP_SILKSCREEN
 10
280.5508
 20
304.7144
 40
0.1016
 41
0.1016
 42
1.000
  0
VERTEX
  8
TOP_SILKSCREEN
 10
280.4492
 20
304.7144
  0
VERTEX
  8
TOP_SILKSCREEN
 10
280.5000
 20
304.7144
  0
VERTEX
  8
TOP_SILKSCREEN
 10
280.5000
 20
304.7144
 40
0.2032
 41
0.2032
 42
1.000
  0
VERTEX
  8
TOP_SILKSCREEN
 10
283.9288
 20
304.7144
  0
VERTEX
  8
TOP_SILKSCREEN
 10
283.9288
 20
304.7144
 40
0.1016
 41
0.1016
  0
VERTEX
  8
TOP_SILKSCREEN
 10
283.9796
 20
304.7144
 40
0.1016
 41
0.1016
 42
1.000
  0
VERTEX
  8
TOP_SILKSCREEN
 10
283.8780
 20
304.7144
  0
VERTEX
  8
TOP_SILKSCREEN
 10
283.8780
 20
304.7144
 40
0.1016
 41
0.1016
 42
1.000
  0
VERTEX
  8
TOP_SILKSCREEN
 10
283.9796
 20
304.7144
  0
VERTEX
  8
TOP_SILKSCREEN
 10
283.9288
 20
304.7144
  0
VERTEX
  8
TOP_SILKSCREEN
 10
283.9288
 20
304.7144
 40
0.2032
 41
0.2032
 42
1.000
  0
VERTEX
  8
TOP_SILKSCREEN
 10
280.5000
 20
304.7144
 40
0.2032
 41
0.2032
  0
VERTEX
  8
TOP_SILKSCREEN
 10
280.5000
 20
304.7144
  0
VERTEX
  8
TOP_SILKSCREEN
 10
280.5000
 20
304.7144
 40
0.1016
 41
0.1016
  0
VERTEX
  8
TOP_SILKSCREEN
 10
280.4492
 20
304.7144
 40
0.1016
 41
0.1016
 42
1.000
  0
VERTEX
  8
TOP_SILKSCREEN
 10
280.5508
 20
304.7144
  0
SEQEND
  8
TOP_SILKSCREEN
  0
POLYLINE
  8
TOP_SILKSCREEN
 66
     1
 62
    135
 10
0.0000
 20
0.0000
 70
     1
 40
0.0000
 41
0.0000
  0
VERTEX
  8
TOP_SILKSCREEN
 10
280.5508
 20
327.9645
 40
0.1016
 41
0.1016
 42
1.000
  0
VERTEX
  8
TOP_SILKSCREEN
 10
280.4492
 20
327.9645
  0
VERTEX
  8
TOP_SILKSCREEN
 10
280.5000
 20
327.9645
  0
VERTEX
  8
TOP_SILKSCREEN
 10
280.5000
 20
327.9645
 40
0.2032
 41
0.2032
 42
1.000
  0
VERTEX
  8
TOP_SILKSCREEN
 10
283.9288
 20
327.9645
  0
VERTEX
  8
TOP_SILKSCREEN
 10
283.9288
 20
327.9645
 40
0.1016
 41
0.1016
  0
VERTEX
  8
TOP_SILKSCREEN
 10
283.9796
 20
327.9645
 40
0.1016
 41
0.1016
 42
1.000
  0
VERTEX
  8
TOP_SILKSCREEN
 10
283.8780
 20
327.9645
  0
VERTEX
  8
TOP_SILKSCREEN
 10
283.8780
 20
327.9645
 40
0.1016
 41
0.1016
 42
1.000
  0
VERTEX
  8
TOP_SILKSCREEN
 10
283.9796
 20
327.9645
  0
VERTEX
  8
TOP_SILKSCREEN
 10
283.9288
 20
327.9645
  0
VERTEX
  8
TOP_SILKSCREEN
 10
283.9288
 20
327.9645
 40
0.2032
 41
0.2032
 42
1.000
  0
VERTEX
  8
TOP_SILKSCREEN
 10
280.5000
 20
327.9645
 40
0.2032
 41
0.2032
  0
VERTEX
  8
TOP_SILKSCREEN
 10
280.5000
 20
327.9645
  0
VERTEX
  8
TOP_SILKSCREEN
 10
280.5000
 20
327.9645
 40
0.1016
 41
0.1016
  0
VERTEX
  8
TOP_SILKSCREEN
 10
280.4492
 20
327.9645
 40
0.1016
 41
0.1016
 42
1.000
  0
VERTEX
  8
TOP_SILKSCREEN
 10
280.5508
 20
327.9645
  0
SEQEND
  8
TOP_SILKSCREEN
  0
POLYLINE
  8
TOP_SILKSCREEN
 66
     1
 62
    135
 10
0.0000
 20
0.0000
 70
     1
 40
0.0000
 41
0.0000
  0
VERTEX
  8
TOP_SILKSCREEN
 10
280.5508
 20
350.2145
 40
0.1016
 41
0.1016
 42
1.000
  0
VERTEX
  8
TOP_SILKSCREEN
 10
280.4492
 20
350.2145
  0
VERTEX
  8
TOP_SILKSCREEN
 10
280.5000
 20
350.2145
  0
VERTEX
  8
TOP_SILKSCREEN
 10
280.5000
 20
350.2145
 40
0.2032
 41
0.2032
 42
1.000
  0
VERTEX
  8
TOP_SILKSCREEN
 10
283.9288
 20
350.2145
  0
VERTEX
  8
TOP_SILKSCREEN
 10
283.9288
 20
350.2145
 40
0.1016
 41
0.1016
  0
VERTEX
  8
TOP_SILKSCREEN
 10
283.9796
 20
350.2145
 40
0.1016
 41
0.1016
 42
1.000
  0
VERTEX
  8
TOP_SILKSCREEN
 10
283.8780
 20
350.2145
  0
VERTEX
  8
TOP_SILKSCREEN
 10
283.8780
 20
350.2145
 40
0.1016
 41
0.1016
 42
1.000
  0
VERTEX
  8
TOP_SILKSCREEN
 10
283.9796
 20
350.2145
  0
VERTEX
  8
TOP_SILKSCREEN
 10
283.9288
 20
350.2145
  0
VERTEX
  8
TOP_SILKSCREEN
 10
283.9288
 20
350.2145
 40
0.2032
 41
0.2032
 42
1.000
  0
VERTEX
  8
TOP_SILKSCREEN
 10
280.5000
 20
350.2145
 40
0.2032
 41
0.2032
  0
VERTEX
  8
TOP_SILKSCREEN
 10
280.5000
 20
350.2145
  0
VERTEX
  8
TOP_SILKSCREEN
 10
280.5000
 20
350.2145
 40
0.1016
 41
0.1016
  0
VERTEX
  8
TOP_SILKSCREEN
 10
280.4492
 20
350.2145
 40
0.1016
 41
0.1016
 42
1.000
  0
VERTEX
  8
TOP_SILKSCREEN
 10
280.5508
 20
350.2145
  0
SEQEND
  8
TOP_SILKSCREEN
  0
POLYLINE
  8
TOP_SILKSCREEN
 66
     1
 62
    135
 10
0.0000
 20
0.0000
 70
     1
 40
0.0000
 41
0.0000
  0
VERTEX
  8
TOP_SILKSCREEN
 10
280.5508
 20
372.4644
 40
0.1016
 41
0.1016
 42
1.000
  0
VERTEX
  8
TOP_SILKSCREEN
 10
280.4492
 20
372.4644
  0
VERTEX
  8
TOP_SILKSCREEN
 10
280.5000
 20
372.4644
  0
VERTEX
  8
TOP_SILKSCREEN
 10
280.5000
 20
372.4644
 40
0.2032
 41
0.2032
 42
1.000
  0
VERTEX
  8
TOP_SILKSCREEN
 10
283.9288
 20
372.4644
  0
VERTEX
  8
TOP_SILKSCREEN
 10
283.9288
 20
372.4644
 40
0.1016
 41
0.1016
  0
VERTEX
  8
TOP_SILKSCREEN
 10
283.9796
 20
372.4644
 40
0.1016
 41
0.1016
 42
1.000
  0
VERTEX
  8
TOP_SILKSCREEN
 10
283.8780
 20
372.4644
  0
VERTEX
  8
TOP_SILKSCREEN
 10
283.8780
 20
372.4644
 40
0.1016
 41
0.1016
 42
1.000
  0
VERTEX
  8
TOP_SILKSCREEN
 10
283.9796
 20
372.4644
  0
VERTEX
  8
TOP_SILKSCREEN
 10
283.9288
 20
372.4644
  0
VERTEX
  8
TOP_SILKSCREEN
 10
283.9288
 20
372.4644
 40
0.2032
 41
0.2032
 42
1.000
  0
VERTEX
  8
TOP_SILKSCREEN
 10
280.5000
 20
372.4644
 40
0.2032
 41
0.2032
  0
VERTEX
  8
TOP_SILKSCREEN
 10
280.5000
 20
372.4644
  0
VERTEX
  8
TOP_SILKSCREEN
 10
280.5000
 20
372.4644
 40
0.1016
 41
0.1016
  0
VERTEX
  8
TOP_SILKSCREEN
 10
280.4492
 20
372.4644
 40
0.1016
 41
0.1016
 42
1.000
  0
VERTEX
  8
TOP_SILKSCREEN
 10
280.5508
 20
372.4644
  0
SEQEND
  8
TOP_SILKSCREEN
  0
POLYLINE
  8
TOP_SILKSCREEN
 66
     1
 62
    135
 10
0.0000
 20
0.0000
 70
     1
 40
0.0000
 41
0.0000
  0
VERTEX
  8
TOP_SILKSCREEN
 10
280.6220
 20
394.7144
 40
0.1016
 41
0.1016
 42
1.000
  0
VERTEX
  8
TOP_SILKSCREEN
 10
280.5204
 20
394.7144
  0
VERTEX
  8
TOP_SILKSCREEN
 10
280.5712
 20
394.7144
  0
VERTEX
  8
TOP_SILKSCREEN
 10
280.5712
 20
394.7144
 40
0.2032
 41
0.2032
 42
1.000
  0
VERTEX
  8
TOP_SILKSCREEN
 10
284.0000
 20
394.7144
  0
VERTEX
  8
TOP_SILKSCREEN
 10
284.0000
 20
394.7144
 40
0.1016
 41
0.1016
  0
VERTEX
  8
TOP_SILKSCREEN
 10
284.0508
 20
394.7144
 40
0.1016
 41
0.1016
 42
1.000
  0
VERTEX
  8
TOP_SILKSCREEN
 10
283.9492
 20
394.7144
  0
VERTEX
  8
TOP_SILKSCREEN
 10
283.9492
 20
394.7144
 40
0.1016
 41
0.1016
 42
1.000
  0
VERTEX
  8
TOP_SILKSCREEN
 10
284.0508
 20
394.7144
  0
VERTEX
  8
TOP_SILKSCREEN
 10
284.0000
 20
394.7144
  0
VERTEX
  8
TOP_SILKSCREEN
 10
284.0000
 20
394.7144
 40
0.2032
 41
0.2032
 42
1.000
  0
VERTEX
  8
TOP_SILKSCREEN
 10
280.5712
 20
394.7144
 40
0.2032
 41
0.2032
  0
VERTEX
  8
TOP_SILKSCREEN
 10
280.5712
 20
394.7144
  0
VERTEX
  8
TOP_SILKSCREEN
 10
280.5712
 20
394.7144
 40
0.1016
 41
0.1016
  0
VERTEX
  8
TOP_SILKSCREEN
 10
280.5204
 20
394.7144
 40
0.1016
 41
0.1016
 42
1.000
  0
VERTEX
  8
TOP_SILKSCREEN
 10
280.6220
 20
394.7144
  0
SEQEND
  8
TOP_SILKSCREEN
  0
POLYLINE
  8
TOP_SILKSCREEN
 66
     1
 62
    135
 10
0.0000
 20
0.0000
 70
     1
 40
0.0000
 41
0.0000
  0
VERTEX
  8
TOP_SILKSCREEN
 10
219.5508
 20
416.7145
 40
0.1016
 41
0.1016
 42
1.000
  0
VERTEX
  8
TOP_SILKSCREEN
 10
219.4492
 20
416.7145
  0
VERTEX
  8
TOP_SILKSCREEN
 10
219.5000
 20
416.7145
  0
VERTEX
  8
TOP_SILKSCREEN
 10
219.5000
 20
416.7145
 40
0.2032
 41
0.2032
 42
1.000
  0
VERTEX
  8
TOP_SILKSCREEN
 10
222.9288
 20
416.7145
  0
VERTEX
  8
TOP_SILKSCREEN
 10
222.9288
 20
416.7145
 40
0.1016
 41
0.1016
  0
VERTEX
  8
TOP_SILKSCREEN
 10
222.9796
 20
416.7145
 40
0.1016
 41
0.1016
 42
1.000
  0
VERTEX
  8
TOP_SILKSCREEN
 10
222.8780
 20
416.7145
  0
VERTEX
  8
TOP_SILKSCREEN
 10
222.8780
 20
416.7145
 40
0.1016
 41
0.1016
 42
1.000
  0
VERTEX
  8
TOP_SILKSCREEN
 10
222.9796
 20
416.7145
  0
VERTEX
  8
TOP_SILKSCREEN
 10
222.9288
 20
416.7145
  0
VERTEX
  8
TOP_SILKSCREEN
 10
222.9288
 20
416.7145
 40
0.2032
 41
0.2032
 42
1.000
  0
VERTEX
  8
TOP_SILKSCREEN
 10
219.5000
 20
416.7145
 40
0.2032
 41
0.2032
  0
VERTEX
  8
TOP_SILKSCREEN
 10
219.5000
 20
416.7145
  0
VERTEX
  8
TOP_SILKSCREEN
 10
219.5000
 20
416.7145
 40
0.1016
 41
0.1016
  0
VERTEX
  8
TOP_SILKSCREEN
 10
219.4492
 20
416.7145
 40
0.1016
 41
0.1016
 42
1.000
  0
VERTEX
  8
TOP_SILKSCREEN
 10
219.5508
 20
416.7145
  0
SEQEND
  8
TOP_SILKSCREEN
  0
POLYLINE
  8
TOP_SILKSCREEN
 66
     1
 62
    135
 10
0.0000
 20
0.0000
 70
     1
 40
0.0000
 41
0.0000
  0
VERTEX
  8
TOP_SILKSCREEN
 10
219.5508
 20
237.9645
 40
0.1016
 41
0.1016
 42
1.000
  0
VERTEX
  8
TOP_SILKSCREEN
 10
219.4492
 20
237.9645
  0
VERTEX
  8
TOP_SILKSCREEN
 10
219.5000
 20
237.9645
  0
VERTEX
  8
TOP_SILKSCREEN
 10
219.5000
 20
237.9645
 40
0.2032
 41
0.2032
 42
1.000
  0
VERTEX
  8
TOP_SILKSCREEN
 10
222.9288
 20
237.9645
  0
VERTEX
  8
TOP_SILKSCREEN
 10
222.9288
 20
237.9645
 40
0.1016
 41
0.1016
  0
VERTEX
  8
TOP_SILKSCREEN
 10
222.9796
 20
237.9645
 40
0.1016
 41
0.1016
 42
1.000
  0
VERTEX
  8
TOP_SILKSCREEN
 10
222.8780
 20
237.9645
  0
VERTEX
  8
TOP_SILKSCREEN
 10
222.8780
 20
237.9645
 40
0.1016
 41
0.1016
 42
1.000
  0
VERTEX
  8
TOP_SILKSCREEN
 10
222.9796
 20
237.9645
  0
VERTEX
  8
TOP_SILKSCREEN
 10
222.9288
 20
237.9645
  0
VERTEX
  8
TOP_SILKSCREEN
 10
222.9288
 20
237.9645
 40
0.2032
 41
0.2032
 42
1.000
  0
VERTEX
  8
TOP_SILKSCREEN
 10
219.5000
 20
237.9645
 40
0.2032
 41
0.2032
  0
VERTEX
  8
TOP_SILKSCREEN
 10
219.5000
 20
237.9645
  0
VERTEX
  8
TOP_SILKSCREEN
 10
219.5000
 20
237.9645
 40
0.1016
 41
0.1016
  0
VERTEX
  8
TOP_SILKSCREEN
 10
219.4492
 20
237.9645
 40
0.1016
 41
0.1016
 42
1.000
  0
VERTEX
  8
TOP_SILKSCREEN
 10
219.5508
 20
237.9645
  0
SEQEND
  8
TOP_SILKSCREEN
  0
POLYLINE
  8
TOP_SILKSCREEN
 66
     1
 62
    135
 10
0.0000
 20
0.0000
 70
     1
 40
0.0000
 41
0.0000
  0
VERTEX
  8
TOP_SILKSCREEN
 10
219.5508
 20
282.4644
 40
0.1016
 41
0.1016
 42
1.000
  0
VERTEX
  8
TOP_SILKSCREEN
 10
219.4492
 20
282.4644
  0
VERTEX
  8
TOP_SILKSCREEN
 10
219.5000
 20
282.4644
  0
VERTEX
  8
TOP_SILKSCREEN
 10
219.5000
 20
282.4644
 40
0.2032
 41
0.2032
 42
1.000
  0
VERTEX
  8
TOP_SILKSCREEN
 10
222.9288
 20
282.4644
  0
VERTEX
  8
TOP_SILKSCREEN
 10
222.9288
 20
282.4644
 40
0.1016
 41
0.1016
  0
VERTEX
  8
TOP_SILKSCREEN
 10
222.9796
 20
282.4644
 40
0.1016
 41
0.1016
 42
1.000
  0
VERTEX
  8
TOP_SILKSCREEN
 10
222.8780
 20
282.4644
  0
VERTEX
  8
TOP_SILKSCREEN
 10
222.8780
 20
282.4644
 40
0.1016
 41
0.1016
 42
1.000
  0
VERTEX
  8
TOP_SILKSCREEN
 10
222.9796
 20
282.4644
  0
VERTEX
  8
TOP_SILKSCREEN
 10
222.9288
 20
282.4644
  0
VERTEX
  8
TOP_SILKSCREEN
 10
222.9288
 20
282.4644
 40
0.2032
 41
0.2032
 42
1.000
  0
VERTEX
  8
TOP_SILKSCREEN
 10
219.5000
 20
282.4644
 40
0.2032
 41
0.2032
  0
VERTEX
  8
TOP_SILKSCREEN
 10
219.5000
 20
282.4644
  0
VERTEX
  8
TOP_SILKSCREEN
 10
219.5000
 20
282.4644
 40
0.1016
 41
0.1016
  0
VERTEX
  8
TOP_SILKSCREEN
 10
219.4492
 20
282.4644
 40
0.1016
 41
0.1016
 42
1.000
  0
VERTEX
  8
TOP_SILKSCREEN
 10
219.5508
 20
282.4644
  0
SEQEND
  8
TOP_SILKSCREEN
  0
POLYLINE
  8
TOP_SILKSCREEN
 66
     1
 62
    135
 10
0.0000
 20
0.0000
 70
     1
 40
0.0000
 41
0.0000
  0
VERTEX
  8
TOP_SILKSCREEN
 10
219.5508
 20
304.7144
 40
0.1016
 41
0.1016
 42
1.000
  0
VERTEX
  8
TOP_SILKSCREEN
 10
219.4492
 20
304.7144
  0
VERTEX
  8
TOP_SILKSCREEN
 10
219.5000
 20
304.7144
  0
VERTEX
  8
TOP_SILKSCREEN
 10
219.5000
 20
304.7144
 40
0.2032
 41
0.2032
 42
1.000
  0
VERTEX
  8
TOP_SILKSCREEN
 10
222.9288
 20
304.7144
  0
VERTEX
  8
TOP_SILKSCREEN
 10
222.9288
 20
304.7144
 40
0.1016
 41
0.1016
  0
VERTEX
  8
TOP_SILKSCREEN
 10
222.9796
 20
304.7144
 40
0.1016
 41
0.1016
 42
1.000
  0
VERTEX
  8
TOP_SILKSCREEN
 10
222.8780
 20
304.7144
  0
VERTEX
  8
TOP_SILKSCREEN
 10
222.8780
 20
304.7144
 40
0.1016
 41
0.1016
 42
1.000
  0
VERTEX
  8
TOP_SILKSCREEN
 10
222.9796
 20
304.7144
  0
VERTEX
  8
TOP_SILKSCREEN
 10
222.9288
 20
304.7144
  0
VERTEX
  8
TOP_SILKSCREEN
 10
222.9288
 20
304.7144
 40
0.2032
 41
0.2032
 42
1.000
  0
VERTEX
  8
TOP_SILKSCREEN
 10
219.5000
 20
304.7144
 40
0.2032
 41
0.2032
  0
VERTEX
  8
TOP_SILKSCREEN
 10
219.5000
 20
304.7144
  0
VERTEX
  8
TOP_SILKSCREEN
 10
219.5000
 20
304.7144
 40
0.1016
 41
0.1016
  0
VERTEX
  8
TOP_SILKSCREEN
 10
219.4492
 20
304.7144
 40
0.1016
 41
0.1016
 42
1.000
  0
VERTEX
  8
TOP_SILKSCREEN
 10
219.5508
 20
304.7144
  0
SEQEND
  8
TOP_SILKSCREEN
  0
POLYLINE
  8
TOP_SILKSCREEN
 66
     1
 62
    135
 10
0.0000
 20
0.0000
 70
     1
 40
0.0000
 41
0.0000
  0
VERTEX
  8
TOP_SILKSCREEN
 10
219.5508
 20
327.9645
 40
0.1016
 41
0.1016
 42
1.000
  0
VERTEX
  8
TOP_SILKSCREEN
 10
219.4492
 20
327.9645
  0
VERTEX
  8
TOP_SILKSCREEN
 10
219.5000
 20
327.9645
  0
VERTEX
  8
TOP_SILKSCREEN
 10
219.5000
 20
327.9645
 40
0.2032
 41
0.2032
 42
1.000
  0
VERTEX
  8
TOP_SILKSCREEN
 10
222.9288
 20
327.9645
  0
VERTEX
  8
TOP_SILKSCREEN
 10
222.9288
 20
327.9645
 40
0.1016
 41
0.1016
  0
VERTEX
  8
TOP_SILKSCREEN
 10
222.9796
 20
327.9645
 40
0.1016
 41
0.1016
 42
1.000
  0
VERTEX
  8
TOP_SILKSCREEN
 10
222.8780
 20
327.9645
  0
VERTEX
  8
TOP_SILKSCREEN
 10
222.8780
 20
327.9645
 40
0.1016
 41
0.1016
 42
1.000
  0
VERTEX
  8
TOP_SILKSCREEN
 10
222.9796
 20
327.9645
  0
VERTEX
  8
TOP_SILKSCREEN
 10
222.9288
 20
327.9645
  0
VERTEX
  8
TOP_SILKSCREEN
 10
222.9288
 20
327.9645
 40
0.2032
 41
0.2032
 42
1.000
  0
VERTEX
  8
TOP_SILKSCREEN
 10
219.5000
 20
327.9645
 40
0.2032
 41
0.2032
  0
VERTEX
  8
TOP_SILKSCREEN
 10
219.5000
 20
327.9645
  0
VERTEX
  8
TOP_SILKSCREEN
 10
219.5000
 20
327.9645
 40
0.1016
 41
0.1016
  0
VERTEX
  8
TOP_SILKSCREEN
 10
219.4492
 20
327.9645
 40
0.1016
 41
0.1016
 42
1.000
  0
VERTEX
  8
TOP_SILKSCREEN
 10
219.5508
 20
327.9645
  0
SEQEND
  8
TOP_SILKSCREEN
  0
POLYLINE
  8
TOP_SILKSCREEN
 66
     1
 62
    135
 10
0.0000
 20
0.0000
 70
     1
 40
0.0000
 41
0.0000
  0
VERTEX
  8
TOP_SILKSCREEN
 10
219.5508
 20
350.2145
 40
0.1016
 41
0.1016
 42
1.000
  0
VERTEX
  8
TOP_SILKSCREEN
 10
219.4492
 20
350.2145
  0
VERTEX
  8
TOP_SILKSCREEN
 10
219.5000
 20
350.2145
  0
VERTEX
  8
TOP_SILKSCREEN
 10
219.5000
 20
350.2145
 40
0.2032
 41
0.2032
 42
1.000
  0
VERTEX
  8
TOP_SILKSCREEN
 10
222.9288
 20
350.2145
  0
VERTEX
  8
TOP_SILKSCREEN
 10
222.9288
 20
350.2145
 40
0.1016
 41
0.1016
  0
VERTEX
  8
TOP_SILKSCREEN
 10
222.9796
 20
350.2145
 40
0.1016
 41
0.1016
 42
1.000
  0
VERTEX
  8
TOP_SILKSCREEN
 10
222.8780
 20
350.2145
  0
VERTEX
  8
TOP_SILKSCREEN
 10
222.8780
 20
350.2145
 40
0.1016
 41
0.1016
 42
1.000
  0
VERTEX
  8
TOP_SILKSCREEN
 10
222.9796
 20
350.2145
  0
VERTEX
  8
TOP_SILKSCREEN
 10
222.9288
 20
350.2145
  0
VERTEX
  8
TOP_SILKSCREEN
 10
222.9288
 20
350.2145
 40
0.2032
 41
0.2032
 42
1.000
  0
VERTEX
  8
TOP_SILKSCREEN
 10
219.5000
 20
350.2145
 40
0.2032
 41
0.2032
  0
VERTEX
  8
TOP_SILKSCREEN
 10
219.5000
 20
350.2145
  0
VERTEX
  8
TOP_SILKSCREEN
 10
219.5000
 20
350.2145
 40
0.1016
 41
0.1016
  0
VERTEX
  8
TOP_SILKSCREEN
 10
219.4492
 20
350.2145
 40
0.1016
 41
0.1016
 42
1.000
  0
VERTEX
  8
TOP_SILKSCREEN
 10
219.5508
 20
350.2145
  0
SEQEND
  8
TOP_SILKSCREEN
  0
POLYLINE
  8
TOP_SILKSCREEN
 66
     1
 62
    135
 10
0.0000
 20
0.0000
 70
     1
 40
0.0000
 41
0.0000
  0
VERTEX
  8
TOP_SILKSCREEN
 10
219.5508
 20
372.4644
 40
0.1016
 41
0.1016
 42
1.000
  0
VERTEX
  8
TOP_SILKSCREEN
 10
219.4492
 20
372.4644
  0
VERTEX
  8
TOP_SILKSCREEN
 10
219.5000
 20
372.4644
  0
VERTEX
  8
TOP_SILKSCREEN
 10
219.5000
 20
372.4644
 40
0.2032
 41
0.2032
 42
1.000
  0
VERTEX
  8
TOP_SILKSCREEN
 10
222.9288
 20
372.4644
  0
VERTEX
  8
TOP_SILKSCREEN
 10
222.9288
 20
372.4644
 40
0.1016
 41
0.1016
  0
VERTEX
  8
TOP_SILKSCREEN
 10
222.9796
 20
372.4644
 40
0.1016
 41
0.1016
 42
1.000
  0
VERTEX
  8
TOP_SILKSCREEN
 10
222.8780
 20
372.4644
  0
VERTEX
  8
TOP_SILKSCREEN
 10
222.8780
 20
372.4644
 40
0.1016
 41
0.1016
 42
1.000
  0
VERTEX
  8
TOP_SILKSCREEN
 10
222.9796
 20
372.4644
  0
VERTEX
  8
TOP_SILKSCREEN
 10
222.9288
 20
372.4644
  0
VERTEX
  8
TOP_SILKSCREEN
 10
222.9288
 20
372.4644
 40
0.2032
 41
0.2032
 42
1.000
  0
VERTEX
  8
TOP_SILKSCREEN
 10
219.5000
 20
372.4644
 40
0.2032
 41
0.2032
  0
VERTEX
  8
TOP_SILKSCREEN
 10
219.5000
 20
372.4644
  0
VERTEX
  8
TOP_SILKSCREEN
 10
219.5000
 20
372.4644
 40
0.1016
 41
0.1016
  0
VERTEX
  8
TOP_SILKSCREEN
 10
219.4492
 20
372.4644
 40
0.1016
 41
0.1016
 42
1.000
  0
VERTEX
  8
TOP_SILKSCREEN
 10
219.5508
 20
372.4644
  0
SEQEND
  8
TOP_SILKSCREEN
  0
POLYLINE
  8
TOP_SILKSCREEN
 66
     1
 62
    135
 10
0.0000
 20
0.0000
 70
     1
 40
0.0000
 41
0.0000
  0
VERTEX
  8
TOP_SILKSCREEN
 10
219.5508
 20
394.7144
 40
0.1016
 41
0.1016
 42
1.000
  0
VERTEX
  8
TOP_SILKSCREEN
 10
219.4492
 20
394.7144
  0
VERTEX
  8
TOP_SILKSCREEN
 10
219.5000
 20
394.7144
  0
VERTEX
  8
TOP_SILKSCREEN
 10
219.5000
 20
394.7144
 40
0.2032
 41
0.2032
 42
1.000
  0
VERTEX
  8
TOP_SILKSCREEN
 10
222.9288
 20
394.7144
  0
VERTEX
  8
TOP_SILKSCREEN
 10
222.9288
 20
394.7144
 40
0.1016
 41
0.1016
  0
VERTEX
  8
TOP_SILKSCREEN
 10
222.9796
 20
394.7144
 40
0.1016
 41
0.1016
 42
1.000
  0
VERTEX
  8
TOP_SILKSCREEN
 10
222.8780
 20
394.7144
  0
VERTEX
  8
TOP_SILKSCREEN
 10
222.8780
 20
394.7144
 40
0.1016
 41
0.1016
 42
1.000
  0
VERTEX
  8
TOP_SILKSCREEN
 10
222.9796
 20
394.7144
  0
VERTEX
  8
TOP_SILKSCREEN
 10
222.9288
 20
394.7144
  0
VERTEX
  8
TOP_SILKSCREEN
 10
222.9288
 20
394.7144
 40
0.2032
 41
0.2032
 42
1.000
  0
VERTEX
  8
TOP_SILKSCREEN
 10
219.5000
 20
394.7144
 40
0.2032
 41
0.2032
  0
VERTEX
  8
TOP_SILKSCREEN
 10
219.5000
 20
394.7144
  0
VERTEX
  8
TOP_SILKSCREEN
 10
219.5000
 20
394.7144
 40
0.1016
 41
0.1016
  0
VERTEX
  8
TOP_SILKSCREEN
 10
219.4492
 20
394.7144
 40
0.1016
 41
0.1016
 42
1.000
  0
VERTEX
  8
TOP_SILKSCREEN
 10
219.5508
 20
394.7144
  0
SEQEND
  8
TOP_SILKSCREEN
  0
POLYLINE
  8
TOP_SILKSCREEN
 66
     1
 62
    135
 10
0.0000
 20
0.0000
 70
     1
 40
0.0000
 41
0.0000
  0
VERTEX
  8
TOP_SILKSCREEN
 10
363.1719
 20
287.2855
 40
0.1016
 41
0.1016
 42
1.000
  0
VERTEX
  8
TOP_SILKSCREEN
 10
363.0703
 20
287.2855
  0
VERTEX
  8
TOP_SILKSCREEN
 10
363.1211
 20
287.2855
  0
VERTEX
  8
TOP_SILKSCREEN
 10
363.1211
 20
287.2855
 40
0.2032
 41
0.2032
 42
1.000
  0
VERTEX
  8
TOP_SILKSCREEN
 10
366.5499
 20
287.2855
  0
VERTEX
  8
TOP_SILKSCREEN
 10
366.5499
 20
287.2855
 40
0.1016
 41
0.1016
  0
VERTEX
  8
TOP_SILKSCREEN
 10
366.6007
 20
287.2855
 40
0.1016
 41
0.1016
 42
1.000
  0
VERTEX
  8
TOP_SILKSCREEN
 10
366.4991
 20
287.2855
  0
VERTEX
  8
TOP_SILKSCREEN
 10
366.4991
 20
287.2855
 40
0.1016
 41
0.1016
 42
1.000
  0
VERTEX
  8
TOP_SILKSCREEN
 10
366.6007
 20
287.2855
  0
VERTEX
  8
TOP_SILKSCREEN
 10
366.5499
 20
287.2855
  0
VERTEX
  8
TOP_SILKSCREEN
 10
366.5499
 20
287.2855
 40
0.2032
 41
0.2032
 42
1.000
  0
VERTEX
  8
TOP_SILKSCREEN
 10
363.1211
 20
287.2855
 40
0.2032
 41
0.2032
  0
VERTEX
  8
TOP_SILKSCREEN
 10
363.1211
 20
287.2855
  0
VERTEX
  8
TOP_SILKSCREEN
 10
363.1211
 20
287.2855
 40
0.1016
 41
0.1016
  0
VERTEX
  8
TOP_SILKSCREEN
 10
363.0703
 20
287.2855
 40
0.1016
 41
0.1016
 42
1.000
  0
VERTEX
  8
TOP_SILKSCREEN
 10
363.1719
 20
287.2855
  0
SEQEND
  8
TOP_SILKSCREEN
  0
POLYLINE
  8
TOP_SILKSCREEN
 66
     1
 62
    135
 10
0.0000
 20
0.0000
 70
     1
 40
0.0000
 41
0.0000
  0
VERTEX
  8
TOP_SILKSCREEN
 10
137.1008
 20
287.2855
 40
0.1016
 41
0.1016
 42
1.000
  0
VERTEX
  8
TOP_SILKSCREEN
 10
136.9992
 20
287.2855
  0
VERTEX
  8
TOP_SILKSCREEN
 10
137.0500
 20
287.2855
  0
VERTEX
  8
TOP_SILKSCREEN
 10
137.0500
 20
287.2855
 40
0.2032
 41
0.2032
 42
1.000
  0
VERTEX
  8
TOP_SILKSCREEN
 10
140.4788
 20
287.2855
  0
VERTEX
  8
TOP_SILKSCREEN
 10
140.4788
 20
287.2855
 40
0.1016
 41
0.1016
  0
VERTEX
  8
TOP_SILKSCREEN
 10
140.5296
 20
287.2855
 40
0.1016
 41
0.1016
 42
1.000
  0
VERTEX
  8
TOP_SILKSCREEN
 10
140.4280
 20
287.2855
  0
VERTEX
  8
TOP_SILKSCREEN
 10
140.4280
 20
287.2855
 40
0.1016
 41
0.1016
 42
1.000
  0
VERTEX
  8
TOP_SILKSCREEN
 10
140.5296
 20
287.2855
  0
VERTEX
  8
TOP_SILKSCREEN
 10
140.4788
 20
287.2855
  0
VERTEX
  8
TOP_SILKSCREEN
 10
140.4788
 20
287.2855
 40
0.2032
 41
0.2032
 42
1.000
  0
VERTEX
  8
TOP_SILKSCREEN
 10
137.0500
 20
287.2855
 40
0.2032
 41
0.2032
  0
VERTEX
  8
TOP_SILKSCREEN
 10
137.0500
 20
287.2855
  0
VERTEX
  8
TOP_SILKSCREEN
 10
137.0500
 20
287.2855
 40
0.1016
 41
0.1016
  0
VERTEX
  8
TOP_SILKSCREEN
 10
136.9992
 20
287.2855
 40
0.1016
 41
0.1016
 42
1.000
  0
VERTEX
  8
TOP_SILKSCREEN
 10
137.1008
 20
287.2855
  0
SEQEND
  8
TOP_SILKSCREEN
  0
POLYLINE
  8
TOP_SILKSCREEN
 66
     1
 62
    135
 10
0.0000
 20
0.0000
 70
     1
 40
0.0000
 41
0.0000
  0
VERTEX
  8
TOP_SILKSCREEN
 10
363.1719
 20
367.7144
 40
0.1016
 41
0.1016
 42
1.000
  0
VERTEX
  8
TOP_SILKSCREEN
 10
363.0703
 20
367.7144
  0
VERTEX
  8
TOP_SILKSCREEN
 10
363.1211
 20
367.7144
  0
VERTEX
  8
TOP_SILKSCREEN
 10
363.1211
 20
367.7144
 40
0.2032
 41
0.2032
 42
1.000
  0
VERTEX
  8
TOP_SILKSCREEN
 10
366.5499
 20
367.7144
  0
VERTEX
  8
TOP_SILKSCREEN
 10
366.5499
 20
367.7144
 40
0.1016
 41
0.1016
  0
VERTEX
  8
TOP_SILKSCREEN
 10
366.6007
 20
367.7144
 40
0.1016
 41
0.1016
 42
1.000
  0
VERTEX
  8
TOP_SILKSCREEN
 10
366.4991
 20
367.7144
  0
VERTEX
  8
TOP_SILKSCREEN
 10
366.4991
 20
367.7144
 40
0.1016
 41
0.1016
 42
1.000
  0
VERTEX
  8
TOP_SILKSCREEN
 10
366.6007
 20
367.7144
  0
VERTEX
  8
TOP_SILKSCREEN
 10
366.5499
 20
367.7144
  0
VERTEX
  8
TOP_SILKSCREEN
 10
366.5499
 20
367.7144
 40
0.2032
 41
0.2032
 42
1.000
  0
VERTEX
  8
TOP_SILKSCREEN
 10
363.1211
 20
367.7144
 40
0.2032
 41
0.2032
  0
VERTEX
  8
TOP_SILKSCREEN
 10
363.1211
 20
367.7144
  0
VERTEX
  8
TOP_SILKSCREEN
 10
363.1211
 20
367.7144
 40
0.1016
 41
0.1016
  0
VERTEX
  8
TOP_SILKSCREEN
 10
363.0703
 20
367.7144
 40
0.1016
 41
0.1016
 42
1.000
  0
VERTEX
  8
TOP_SILKSCREEN
 10
363.1719
 20
367.7144
  0
SEQEND
  8
TOP_SILKSCREEN
  0
POLYLINE
  8
TOP_SILKSCREEN
 66
     1
 62
    135
 10
0.0000
 20
0.0000
 70
     1
 40
0.0000
 41
0.0000
  0
VERTEX
  8
TOP_SILKSCREEN
 10
137.1008
 20
367.7144
 40
0.1016
 41
0.1016
 42
1.000
  0
VERTEX
  8
TOP_SILKSCREEN
 10
136.9992
 20
367.7144
  0
VERTEX
  8
TOP_SILKSCREEN
 10
137.0500
 20
367.7144
  0
VERTEX
  8
TOP_SILKSCREEN
 10
137.0500
 20
367.7144
 40
0.2032
 41
0.2032
 42
1.000
  0
VERTEX
  8
TOP_SILKSCREEN
 10
140.4788
 20
367.7144
  0
VERTEX
  8
TOP_SILKSCREEN
 10
140.4788
 20
367.7144
 40
0.1016
 41
0.1016
  0
VERTEX
  8
TOP_SILKSCREEN
 10
140.5296
 20
367.7144
 40
0.1016
 41
0.1016
 42
1.000
  0
VERTEX
  8
TOP_SILKSCREEN
 10
140.4280
 20
367.7144
  0
VERTEX
  8
TOP_SILKSCREEN
 10
140.4280
 20
367.7144
 40
0.1016
 41
0.1016
 42
1.000
  0
VERTEX
  8
TOP_SILKSCREEN
 10
140.5296
 20
367.7144
  0
VERTEX
  8
TOP_SILKSCREEN
 10
140.4788
 20
367.7144
  0
VERTEX
  8
TOP_SILKSCREEN
 10
140.4788
 20
367.7144
 40
0.2032
 41
0.2032
 42
1.000
  0
VERTEX
  8
TOP_SILKSCREEN
 10
137.0500
 20
367.7144
 40
0.2032
 41
0.2032
  0
VERTEX
  8
TOP_SILKSCREEN
 10
137.0500
 20
367.7144
  0
VERTEX
  8
TOP_SILKSCREEN
 10
137.0500
 20
367.7144
 40
0.1016
 41
0.1016
  0
VERTEX
  8
TOP_SILKSCREEN
 10
136.9992
 20
367.7144
 40
0.1016
 41
0.1016
 42
1.000
  0
VERTEX
  8
TOP_SILKSCREEN
 10
137.1008
 20
367.7144
  0
SEQEND
  8
TOP_SILKSCREEN
  0
INSERT
  8
TOP_SOLDER_MASK
 62
    253
  2
PAD
 10
279.0000
 20
232.5000
 41
1.083
 42
1.083
  0
INSERT
  8
BOTTOM_SOLDER_MASK
 62
    253
  2
PAD
 10
279.0000
 20
232.5000
 41
1.083
 42
1.083
  0
INSERT
  8
TOP_SOLDER_MASK
 62
    253
  2
PAD
 10
279.0000
 20
232.5000
 41
1.083
 42
1.083
  0
INSERT
  8
BOTTOM_SOLDER_MASK
 62
    253
  2
PAD
 10
279.0000
 20
232.5000
 41
1.083
 42
1.083
  0
INSERT
  8
TOP_SOLDER_MASK
 62
    253
  2
PAD
 10
253.0000
 20
232.5000
 41
1.083
 42
1.083
  0
INSERT
  8
BOTTOM_SOLDER_MASK
 62
    253
  2
PAD
 10
253.0000
 20
232.5000
 41
1.083
 42
1.083
  0
INSERT
  8
TOP_SOLDER_MASK
 62
    253
  2
PAD
 10
253.0000
 20
232.5000
 41
1.083
 42
1.083
  0
INSERT
  8
BOTTOM_SOLDER_MASK
 62
    253
  2
PAD
 10
253.0000
 20
232.5000
 41
1.083
 42
1.083
  0
INSERT
  8
TOP_SOLDER_MASK
 62
    253
  2
PAD
 10
250.5000
 20
232.5000
 41
1.083
 42
1.083
  0
INSERT
  8
BOTTOM_SOLDER_MASK
 62
    253
  2
PAD
 10
250.5000
 20
232.5000
 41
1.083
 42
1.083
  0
INSERT
  8
TOP_SOLDER_MASK
 62
    253
  2
PAD
 10
250.5000
 20
232.5000
 41
1.083
 42
1.083
  0
INSERT
  8
BOTTOM_SOLDER_MASK
 62
    253
  2
PAD
 10
250.5000
 20
232.5000
 41
1.083
 42
1.083
  0
INSERT
  8
TOP_SOLDER_MASK
 62
    253
  2
PAD
 10
224.5000
 20
232.5000
 41
1.083
 42
1.083
  0
INSERT
  8
BOTTOM_SOLDER_MASK
 62
    253
  2
PAD
 10
224.5000
 20
232.5000
 41
1.083
 42
1.083
  0
INSERT
  8
TOP_SOLDER_MASK
 62
    253
  2
PAD
 10
224.5000
 20
232.5000
 41
1.083
 42
1.083
  0
INSERT
  8
BOTTOM_SOLDER_MASK
 62
    253
  2
PAD
 10
224.5000
 20
232.5000
 41
1.083
 42
1.083
  0
INSERT
  8
TOP_SOLDER_MASK
 62
    253
  2
PAD
 10
279.0000
 20
430.5000
 41
1.083
 42
1.083
  0
INSERT
  8
BOTTOM_SOLDER_MASK
 62
    253
  2
PAD
 10
279.0000
 20
430.5000
 41
1.083
 42
1.083
  0
INSERT
  8
TOP_SOLDER_MASK
 62
    253
  2
PAD
 10
279.0000
 20
430.5000
 41
1.083
 42
1.083
  0
INSERT
  8
BOTTOM_SOLDER_MASK
 62
    253
  2
PAD
 10
279.0000
 20
430.5000
 41
1.083
 42
1.083
  0
INSERT
  8
TOP_SOLDER_MASK
 62
    253
  2
PAD
 10
253.0000
 20
430.5000
 41
1.083
 42
1.083
  0
INSERT
  8
BOTTOM_SOLDER_MASK
 62
    253
  2
PAD
 10
253.0000
 20
430.5000
 41
1.083
 42
1.083
  0
INSERT
  8
TOP_SOLDER_MASK
 62
    253
  2
PAD
 10
253.0000
 20
430.5000
 41
1.083
 42
1.083
  0
INSERT
  8
BOTTOM_SOLDER_MASK
 62
    253
  2
PAD
 10
253.0000
 20
430.5000
 41
1.083
 42
1.083
  0
INSERT
  8
TOP_SOLDER_MASK
 62
    253
  2
PAD
 10
250.5000
 20
430.5000
 41
1.083
 42
1.083
  0
INSERT
  8
BOTTOM_SOLDER_MASK
 62
    253
  2
PAD
 10
250.5000
 20
430.5000
 41
1.083
 42
1.083
  0
INSERT
  8
TOP_SOLDER_MASK
 62
    253
  2
PAD
 10
250.5000
 20
430.5000
 41
1.083
 42
1.083
  0
INSERT
  8
BOTTOM_SOLDER_MASK
 62
    253
  2
PAD
 10
250.5000
 20
430.5000
 41
1.083
 42
1.083
  0
INSERT
  8
TOP_SOLDER_MASK
 62
    253
  2
PAD
 10
224.5000
 20
430.5000
 41
1.083
 42
1.083
  0
INSERT
  8
BOTTOM_SOLDER_MASK
 62
    253
  2
PAD
 10
224.5000
 20
430.5000
 41
1.083
 42
1.083
  0
INSERT
  8
TOP_SOLDER_MASK
 62
    253
  2
PAD
 10
224.5000
 20
430.5000
 41
1.083
 42
1.083
  0
INSERT
  8
BOTTOM_SOLDER_MASK
 62
    253
  2
PAD
 10
224.5000
 20
430.5000
 41
1.083
 42
1.083
  0
INSERT
  8
_DRILL
  2
_HOLE
 10
279.0000
 20
232.5000
 41
0.8890
 42
0.8890
  0
INSERT
  8
_DRILL
  2
_HOLE
 10
253.0000
 20
232.5000
 41
0.8890
 42
0.8890
  0
INSERT
  8
_DRILL
  2
_HOLE
 10
250.5000
 20
232.5000
 41
0.8890
 42
0.8890
  0
INSERT
  8
_DRILL
  2
_HOLE
 10
224.5000
 20
232.5000
 41
0.8890
 42
0.8890
  0
INSERT
  8
_DRILL
  2
_HOLE
 10
279.0000
 20
430.5000
 41
0.8890
 42
0.8890
  0
INSERT
  8
_DRILL
  2
_HOLE
 10
253.0000
 20
430.5000
 41
0.8890
 42
0.8890
  0
INSERT
  8
_DRILL
  2
_HOLE
 10
250.5000
 20
430.5000
 41
0.8890
 42
0.8890
  0
INSERT
  8
_DRILL
  2
_HOLE
 10
224.5000
 20
430.5000
 41
0.8890
 42
0.8890
  0
ENDSEC
  0
EOF
