  0
SECTION
  2
HEADER
  9
$EXTMIN
 10
217.3984
 20
230.3984
  9
$EXTMAX
 10
286.1016
 20
432.4016
  9
$LIMMIN
 10
217.3984
 20
230.3984
  9
$LIMMAX
 10
286.1016
 20
432.4016
  0
ENDSEC
  0
SECTION
  2
TABLES
  0
TABLE
  2
LAYER
 70
    18
  0
LAYER
  2
0
 70
    64
 62
     7
  6
CONTINUOUS
  0
LAYER
  2
TOP_SILKSCREEN
 70
    64
 62
     1
  6
CONTINUOUS
  0
LAYER
  2
TOP_SOLDER_MASK
 70
    64
 62
     2
  6
CONTINUOUS
  0
LAYER
  2
DOCUMENTATION1
 70
    64
 62
     3
  6
CONTINUOUS
  0
LAYER
  2
BOTTOM_SILKSCREEN
 70
    64
 62
     4
  6
CONTINUOUS
  0
LAYER
  2
BOTTOM_SOLDER_MASK
 70
    64
 62
     5
  6
CONTINUOUS
  0
LAYER
  2
DOCUMENTATION2
 70
    64
 62
     6
  6
CONTINUOUS
  0
LAYER
  2
_BOARD
 70
    64
 62
    254
  6
CONTINUOUS
  0
LAYER
  2
_DRILL
 70
    64
 62
    251
  6
CONTINUOUS
  0
ENDTAB
  0
ENDSEC
  0
SECTION
  2
BLOCKS
  0
BLOCK
  8
0
  2
_HOLE
 70
    64
 10
0.0000
 20
0.0000
  0
CIRCLE
  8
0
 10
0.0000
 20
0.0000
 40
0.500
  0
ENDBLK
  8
0
  0
BLOCK
  8
0
  2
PAD
 70
    64
 10
0.0000
 20
0.0000
  0
POLYLINE
  8
0
 66
     1
 10
0.0000
 20
0.0000
 70
     1
 40
0.7620
 41
0.7620
  0
VERTEX
  8
0
 10
-0.3810
 20
0.0000
 40
0.7620
 41
0.7620
 42
1.000
  0
VERTEX
  8
0
 10
0.3810
 20
0.0000
 40
0.7620
 41
0.7620
 42
1.000
  0
SEQEND
  8
0
  0
ENDBLK
  8
0
  0
ENDSEC
  0
SECTION
  2
ENTITIES
  0
POLYLINE
  8
_BOARD
 66
     1
 62
     3
 10
0.0000
 20
0.0000
 70
     1
 40
0.0000
 41
0.0000
  0
VERTEX
  8
_BOARD
 10
217.5000
 20
230.5000
 40
0.0000
 41
0.0000
  0
VERTEX
  8
_BOARD
 10
286.0000
 20
230.5000
  0
VERTEX
  8
_BOARD
 10
286.0000
 20
230.5000
 40
0.0000
 41
0.0000
  0
VERTEX
  8
_BOARD
 10
286.0000
 20
432.3000
  0
VERTEX
  8
_BOARD
 10
286.0000
 20
432.3000
 40
0.0000
 41
0.0000
  0
VERTEX
  8
_BOARD
 10
217.5000
 20
432.3000
  0
VERTEX
  8
_BOARD
 10
217.5000
 20
432.3000
 40
0.0000
 41
0.0000
  0
VERTEX
  8
_BOARD
 10
217.5000
 20
230.5000
 40
0.0000
 41
0.0000
  0
VERTEX
  8
_BOARD
 10
217.5000
 20
230.5000
  0
SEQEND
  8
_BOARD
  0
POLYLINE
  8
TOP_SILKSCREEN
 66
     1
 62
    135
 10
0.0000
 20
0.0000
 70
     1
 40
0.0000
 41
0.0000
  0
VERTEX
  8
TOP_SILKSCREEN
 10
219.5508
 20
260.2144
 40
0.1016
 41
0.1016
 42
1.000
  0
VERTEX
  8
TOP_SILKSCREEN
 10
219.4492
 20
260.2144
  0
VERTEX
  8
TOP_SILKSCREEN
 10
219.5000
 20
260.2144
  0
VERTEX
  8
TOP_SILKSCREEN
 10
219.5000
 20
260.2144
 40
0.2032
 41
0.2032
 42
1.000
  0
VERTEX
  8
TOP_SILKSCREEN
 10
222.9288
 20
260.2144
  0
VERTEX
  8
TOP_SILKSCREEN
 10
222.9288
 20
260.2144
 40
0.1016
 41
0.1016
  0
VERTEX
  8
TOP_SILKSCREEN
 10
222.9796
 20
260.2144
 40
0.1016
 41
0.1016
 42
1.000
  0
VERTEX
  8
TOP_SILKSCREEN
 10
222.8780
 20
260.2144
  0
VERTEX
  8
TOP_SILKSCREEN
 10
222.8780
 20
260.2144
 40
0.1016
 41
0.1016
 42
1.000
  0
VERTEX
  8
TOP_SILKSCREEN
 10
222.9796
 20
260.2144
  0
VERTEX
  8
TOP_SILKSCREEN
 10
222.9288
 20
260.2144
  0
VERTEX
  8
TOP_SILKSCREEN
 10
222.9288
 20
260.2144
 40
0.2032
 41
0.2032
 42
1.000
  0
VERTEX
  8
TOP_SILKSCREEN
 10
219.5000
 20
260.2144
 40
0.2032
 41
0.2032
  0
VERTEX
  8
TOP_SILKSCREEN
 10
219.5000
 20
260.2144
  0
VERTEX
  8
TOP_SILKSCREEN
 10
219.5000
 20
260.2144
 40
0.1016
 41
0.1016
  0
VERTEX
  8
TOP_SILKSCREEN
 10
219.4492
 20
260.2144
 40
0.1016
 41
0.1016
 42
1.000
  0
VERTEX
  8
TOP_SILKSCREEN
 10
219.5508
 20
260.2144
  0
SEQEND
  8
TOP_SILKSCREEN
  0
POLYLINE
  8
TOP_SILKSCREEN
 66
     1
 62
    135
 10
0.0000
 20
0.0000
 70
     1
 40
0.0000
 41
0.0000
  0
VERTEX
  8
TOP_SILKSCREEN
 10
280.6220
 20
416.7145
 40
0.1016
 41
0.1016
 42
1.000
  0
VERTEX
  8
TOP_SILKSCREEN
 10
280.5204
 20
416.7145
  0
VERTEX
  8
TOP_SILKSCREEN
 10
280.5712
 20
416.7145
  0
VERTEX
  8
TOP_SILKSCREEN
 10
280.5712
 20
416.7145
 40
0.2032
 41
0.2032
 42
1.000
  0
VERTEX
  8
TOP_SILKSCREEN
 10
284.0000
 20
416.7145
  0
VERTEX
  8
TOP_SILKSCREEN
 10
284.0000
 20
416.7145
 40
0.1016
 41
0.1016
  0
VERTEX
  8
TOP_SILKSCREEN
 10
284.0508
 20
416.7145
 40
0.1016
 41
0.1016
 42
1.000
  0
VERTEX
  8
TOP_SILKSCREEN
 10
283.9492
 20
416.7145
  0
VERTEX
  8
TOP_SILKSCREEN
 10
283.9492
 20
416.7145
 40
0.1016
 41
0.1016
 42
1.000
  0
VERTEX
  8
TOP_SILKSCREEN
 10
284.0508
 20
416.7145
  0
VERTEX
  8
TOP_SILKSCREEN
 10
284.0000
 20
416.7145
  0
VERTEX
  8
TOP_SILKSCREEN
 10
284.0000
 20
416.7145
 40
0.2032
 41
0.2032
 42
1.000
  0
VERTEX
  8
TOP_SILKSCREEN
 10
280.5712
 20
416.7145
 40
0.2032
 41
0.2032
  0
VERTEX
  8
TOP_SILKSCREEN
 10
280.5712
 20
416.7145
  0
VERTEX
  8
TOP_SILKSCREEN
 10
280.5712
 20
416.7145
 40
0.1016
 41
0.1016
  0
VERTEX
  8
TOP_SILKSCREEN
 10
280.5204
 20
416.7145
 40
0.1016
 41
0.1016
 42
1.000
  0
VERTEX
  8
TOP_SILKSCREEN
 10
280.6220
 20
416.7145
  0
SEQEND
  8
TOP_SILKSCREEN
  0
POLYLINE
  8
TOP_SILKSCREEN
 66
     1
 62
    135
 10
0.0000
 20
0.0000
 70
     1
 40
0.0000
 41
0.0000
  0
VERTEX
  8
TOP_SILKSCREEN
 10
280.5508
 20
238.0000
 40
0.1016
 41
0.1016
 42
1.000
  0
VERTEX
  8
TOP_SILKSCREEN
 10
280.4492
 20
238.0000
  0
VERTEX
  8
TOP_SILKSCREEN
 10
280.5000
 20
238.0000
  0
VERTEX
  8
TOP_SILKSCREEN
 10
280.5000
 20
238.0000
 40
0.2032
 41
0.2032
 42
1.000
  0
VERTEX
  8
TOP_SILKSCREEN
 10
283.9288
 20
238.0000
  0
VERTEX
  8
TOP_SILKSCREEN
 10
283.9288
 20
238.0000
 40
0.1016
 41
0.1016
  0
VERTEX
  8
TOP_SILKSCREEN
 10
283.9796
 20
238.0000
 40
0.1016
 41
0.1016
 42
1.000
  0
VERTEX
  8
TOP_SILKSCREEN
 10
283.8780
 20
238.0000
  0
VERTEX
  8
TOP_SILKSCREEN
 10
283.8780
 20
238.0000
 40
0.1016
 41
0.1016
 42
1.000
  0
VERTEX
  8
TOP_SILKSCREEN
 10
283.9796
 20
238.0000
  0
VERTEX
  8
TOP_SILKSCREEN
 10
283.9288
 20
238.0000
  0
VERTEX
  8
TOP_SILKSCREEN
 10
283.9288
 20
238.0000
 40
0.2032
 41
0.2032
 42
1.000
  0
VERTEX
  8
TOP_SILKSCREEN
 10
280.5000
 20
238.0000
 40
0.2032
 41
0.2032
  0
VERTEX
  8
TOP_SILKSCREEN
 10
280.5000
 20
238.0000
  0
VERTEX
  8
TOP_SILKSCREEN
 10
280.5000
 20
238.0000
 40
0.1016
 41
0.1016
  0
VERTEX
  8
TOP_SILKSCREEN
 10
280.4492
 20
238.0000
 40
0.1016
 41
0.1016
 42
1.000
  0
VERTEX
  8
TOP_SILKSCREEN
 10
280.5508
 20
238.0000
  0
SEQEND
  8
TOP_SILKSCREEN
  0
POLYLINE
  8
TOP_SILKSCREEN
 66
     1
 62
    135
 10
0.0000
 20
0.0000
 70
     1
 40
0.0000
 41
0.0000
  0
VERTEX
  8
TOP_SILKSCREEN
 10
280.5508
 20
260.2144
 40
0.1016
 41
0.1016
 42
1.000
  0
VERTEX
  8
TOP_SILKSCREEN
 10
280.4492
 20
260.2144
  0
VERTEX
  8
TOP_SILKSCREEN
 10
280.5000
 20
260.2144
  0
VERTEX
  8
TOP_SILKSCREEN
 10
280.5000
 20
260.2144
 40
0.2032
 41
0.2032
 42
1.000
  0
VERTEX
  8
TOP_SILKSCREEN
 10
283.9288
 20
260.2144
  0
VERTEX
  8
TOP_SILKSCREEN
 10
283.9288
 20
260.2144
 40
0.1016
 41
0.1016
  0
VERTEX
  8
TOP_SILKSCREEN
 10
283.9796
 20
260.2144
 40
0.1016
 41
0.1016
 42
1.000
  0
VERTEX
  8
TOP_SILKSCREEN
 10
283.8780
 20
260.2144
  0
VERTEX
  8
TOP_SILKSCREEN
 10
283.8780
 20
260.2144
 40
0.1016
 41
0.1016
 42
1.000
  0
VERTEX
  8
TOP_SILKSCREEN
 10
283.9796
 20
260.2144
  0
VERTEX
  8
TOP_SILKSCREEN
 10
283.9288
 20
260.2144
  0
VERTEX
  8
TOP_SILKSCREEN
 10
283.9288
 20
260.2144
 40
0.2032
 41
0.2032
 42
1.000
  0
VERTEX
  8
TOP_SILKSCREEN
 10
280.5000
 20
260.2144
 40
0.2032
 41
0.2032
  0
VERTEX
  8
TOP_SILKSCREEN
 10
280.5000
 20
260.2144
  0
VERTEX
  8
TOP_SILKSCREEN
 10
280.5000
 20
260.2144
 40
0.1016
 41
0.1016
  0
VERTEX
  8
TOP_SILKSCREEN
 10
280.4492
 20
260.2144
 40
0.1016
 41
0.1016
 42
1.000
  0
VERTEX
  8
TOP_SILKSCREEN
 10
280.5508
 20
260.2144
  0
SEQEND
  8
TOP_SILKSCREEN
  0
POLYLINE
  8
TOP_SILKSCREEN
 66
     1
 62
    135
 10
0.0000
 20
0.0000
 70
     1
 40
0.0000
 41
0.0000
  0
VERTEX
  8
TOP_SILKSCREEN
 10
280.5508
 20
282.4644
 40
0.1016
 41
0.1016
 42
1.000
  0
VERTEX
  8
TOP_SILKSCREEN
 10
280.4492
 20
282.4644
  0
VERTEX
  8
TOP_SILKSCREEN
 10
280.5000
 20
282.4644
  0
VERTEX
  8
TOP_SILKSCREEN
 10
280.5000
 20
282.4644
 40
0.2032
 41
0.2032
 42
1.000
  0
VERTEX
  8
TOP_SILKSCREEN
 10
283.9288
 20
282.4644
  0
VERTEX
  8
TOP_SILKSCREEN
 10
283.9288
 20
282.4644
 40
0.1016
 41
0.1016
  0
VERTEX
  8
TOP_SILKSCREEN
 10
283.9796
 20
282.4644
 40
0.1016
 41
0.1016
 42
1.000
  0
VERTEX
  8
TOP_SILKSCREEN
 10
283.8780
 20
282.4644
  0
VERTEX
  8
TOP_SILKSCREEN
 10
283.8780
 20
282.4644
 40
0.1016
 41
0.1016
 42
1.000
  0
VERTEX
  8
TOP_SILKSCREEN
 10
283.9796
 20
282.4644
  0
VERTEX
  8
TOP_SILKSCREEN
 10
283.9288
 20
282.4644
  0
VERTEX
  8
TOP_SILKSCREEN
 10
283.9288
 20
282.4644
 40
0.2032
 41
0.2032
 42
1.000
  0
VERTEX
  8
TOP_SILKSCREEN
 10
280.5000
 20
282.4644
 40
0.2032
 41
0.2032
  0
VERTEX
  8
TOP_SILKSCREEN
 10
280.5000
 20
282.4644
  0
VERTEX
  8
TOP_SILKSCREEN
 10
280.5000
 20
282.4644
 40
0.1016
 41
0.1016
  0
VERTEX
  8
TOP_SILKSCREEN
 10
280.4492
 20
282.4644
 40
0.1016
 41
0.1016
 42
1.000
  0
VERTEX
  8
TOP_SILKSCREEN
 10
280.5508
 20
282.4644
  0
SEQEND
  8
TOP_SILKSCREEN
  0
POLYLINE
  8
TOP_SILKSCREEN
 66
     1
 62
    135
 10
0.0000
 20
0.0000
 70
     1
 40
0.0000
 41
0.0000
  0
VERTEX
  8
TOP_SILKSCREEN
 10
280.5508
 20
304.7144
 40
0.1016
 41
0.1016
 42
1.000
  0
VERTEX
  8
TOP_SILKSCREEN
 10
280.4492
 20
304.7144
  0
VERTEX
  8
TOP_SILKSCREEN
 10
280.5000
 20
304.7144
  0
VERTEX
  8
TOP_SILKSCREEN
 10
280.5000
 20
304.7144
 40
0.2032
 41
0.2032
 42
1.000
  0
VERTEX
  8
TOP_SILKSCREEN
 10
283.9288
 20
304.7144
  0
VERTEX
  8
TOP_SILKSCREEN
 10
283.9288
 20
304.7144
 40
0.1016
 41
0.1016
  0
VERTEX
  8
TOP_SILKSCREEN
 10
283.9796
 20
304.7144
 40
0.1016
 41
0.1016
 42
1.000
  0
VERTEX
  8
TOP_SILKSCREEN
 10
283.8780
 20
304.7144
  0
VERTEX
  8
TOP_SILKSCREEN
 10
283.8780
 20
304.7144
 40
0.1016
 41
0.1016
 42
1.000
  0
VERTEX
  8
TOP_SILKSCREEN
 10
283.9796
 20
304.7144
  0
VERTEX
  8
TOP_SILKSCREEN
 10
283.9288
 20
304.7144
  0
VERTEX
  8
TOP_SILKSCREEN
 10
283.9288
 20
304.7144
 40
0.2032
 41
0.2032
 42
1.000
  0
VERTEX
  8
TOP_SILKSCREEN
 10
280.5000
 20
304.7144
 40
0.2032
 41
0.2032
  0
VERTEX
  8
TOP_SILKSCREEN
 10
280.5000
 20
304.7144
  0
VERTEX
  8
TOP_SILKSCREEN
 10
280.5000
 20
304.7144
 40
0.1016
 41
0.1016
  0
VERTEX
  8
TOP_SILKSCREEN
 10
280.4492
 20
304.7144
 40
0.1016
 41
0.1016
 42
1.000
  0
VERTEX
  8
TOP_SILKSCREEN
 10
280.5508
 20
304.7144
  0
SEQEND
  8
TOP_SILKSCREEN
  0
POLYLINE
  8
TOP_SILKSCREEN
 66
     1
 62
    135
 10
0.0000
 20
0.0000
 70
     1
 40
0.0000
 41
0.0000
  0
VERTEX
  8
TOP_SILKSCREEN
 10
280.5508
 20
327.9645
 40
0.1016
 41
0.1016
 42
1.000
  0
VERTEX
  8
TOP_SILKSCREEN
 10
280.4492
 20
327.9645
  0
VERTEX
  8
TOP_SILKSCREEN
 10
280.5000
 20
327.9645
  0
VERTEX
  8
TOP_SILKSCREEN
 10
280.5000
 20
327.9645
 40
0.2032
 41
0.2032
 42
1.000
  0
VERTEX
  8
TOP_SILKSCREEN
 10
283.9288
 20
327.9645
  0
VERTEX
  8
TOP_SILKSCREEN
 10
283.9288
 20
327.9645
 40
0.1016
 41
0.1016
  0
VERTEX
  8
TOP_SILKSCREEN
 10
283.9796
 20
327.9645
 40
0.1016
 41
0.1016
 42
1.000
  0
VERTEX
  8
TOP_SILKSCREEN
 10
283.8780
 20
327.9645
  0
VERTEX
  8
TOP_SILKSCREEN
 10
283.8780
 20
327.9645
 40
0.1016
 41
0.1016
 42
1.000
  0
VERTEX
  8
TOP_SILKSCREEN
 10
283.9796
 20
327.9645
  0
VERTEX
  8
TOP_SILKSCREEN
 10
283.9288
 20
327.9645
  0
VERTEX
  8
TOP_SILKSCREEN
 10
283.9288
 20
327.9645
 40
0.2032
 41
0.2032
 42
1.000
  0
VERTEX
  8
TOP_SILKSCREEN
 10
280.5000
 20
327.9645
 40
0.2032
 41
0.2032
  0
VERTEX
  8
TOP_SILKSCREEN
 10
280.5000
 20
327.9645
  0
VERTEX
  8
TOP_SILKSCREEN
 10
280.5000
 20
327.9645
 40
0.1016
 41
0.1016
  0
VERTEX
  8
TOP_SILKSCREEN
 10
280.4492
 20
327.9645
 40
0.1016
 41
0.1016
 42
1.000
  0
VERTEX
  8
TOP_SILKSCREEN
 10
280.5508
 20
327.9645
  0
SEQEND
  8
TOP_SILKSCREEN
  0
POLYLINE
  8
TOP_SILKSCREEN
 66
     1
 62
    135
 10
0.0000
 20
0.0000
 70
     1
 40
0.0000
 41
0.0000
  0
VERTEX
  8
TOP_SILKSCREEN
 10
280.5508
 20
350.2145
 40
0.1016
 41
0.1016
 42
1.000
  0
VERTEX
  8
TOP_SILKSCREEN
 10
280.4492
 20
350.2145
  0
VERTEX
  8
TOP_SILKSCREEN
 10
280.5000
 20
350.2145
  0
VERTEX
  8
TOP_SILKSCREEN
 10
280.5000
 20
350.2145
 40
0.2032
 41
0.2032
 42
1.000
  0
VERTEX
  8
TOP_SILKSCREEN
 10
283.9288
 20
350.2145
  0
VERTEX
  8
TOP_SILKSCREEN
 10
283.9288
 20
350.2145
 40
0.1016
 41
0.1016
  0
VERTEX
  8
TOP_SILKSCREEN
 10
283.9796
 20
350.2145
 40
0.1016
 41
0.1016
 42
1.000
  0
VERTEX
  8
TOP_SILKSCREEN
 10
283.8780
 20
350.2145
  0
VERTEX
  8
TOP_SILKSCREEN
 10
283.8780
 20
350.2145
 40
0.1016
 41
0.1016
 42
1.000
  0
VERTEX
  8
TOP_SILKSCREEN
 10
283.9796
 20
350.2145
  0
VERTEX
  8
TOP_SILKSCREEN
 10
283.9288
 20
350.2145
  0
VERTEX
  8
TOP_SILKSCREEN
 10
283.9288
 20
350.2145
 40
0.2032
 41
0.2032
 42
1.000
  0
VERTEX
  8
TOP_SILKSCREEN
 10
280.5000
 20
350.2145
 40
0.2032
 41
0.2032
  0
VERTEX
  8
TOP_SILKSCREEN
 10
280.5000
 20
350.2145
  0
VERTEX
  8
TOP_SILKSCREEN
 10
280.5000
 20
350.2145
 40
0.1016
 41
0.1016
  0
VERTEX
  8
TOP_SILKSCREEN
 10
280.4492
 20
350.2145
 40
0.1016
 41
0.1016
 42
1.000
  0
VERTEX
  8
TOP_SILKSCREEN
 10
280.5508
 20
350.2145
  0
SEQEND
  8
TOP_SILKSCREEN
  0
POLYLINE
  8
TOP_SILKSCREEN
 66
     1
 62
    135
 10
0.0000
 20
0.0000
 70
     1
 40
0.0000
 41
0.0000
  0
VERTEX
  8
TOP_SILKSCREEN
 10
280.5508
 20
372.4644
 40
0.1016
 41
0.1016
 42
1.000
  0
VERTEX
  8
TOP_SILKSCREEN
 10
280.4492
 20
372.4644
  0
VERTEX
  8
TOP_SILKSCREEN
 10
280.5000
 20
372.4644
  0
VERTEX
  8
TOP_SILKSCREEN
 10
280.5000
 20
372.4644
 40
0.2032
 41
0.2032
 42
1.000
  0
VERTEX
  8
TOP_SILKSCREEN
 10
283.9288
 20
372.4644
  0
VERTEX
  8
TOP_SILKSCREEN
 10
283.9288
 20
372.4644
 40
0.1016
 41
0.1016
  0
VERTEX
  8
TOP_SILKSCREEN
 10
283.9796
 20
372.4644
 40
0.1016
 41
0.1016
 42
1.000
  0
VERTEX
  8
TOP_SILKSCREEN
 10
283.8780
 20
372.4644
  0
VERTEX
  8
TOP_SILKSCREEN
 10
283.8780
 20
372.4644
 40
0.1016
 41
0.1016
 42
1.000
  0
VERTEX
  8
TOP_SILKSCREEN
 10
283.9796
 20
372.4644
  0
VERTEX
  8
TOP_SILKSCREEN
 10
283.9288
 20
372.4644
  0
VERTEX
  8
TOP_SILKSCREEN
 10
283.9288
 20
372.4644
 40
0.2032
 41
0.2032
 42
1.000
  0
VERTEX
  8
TOP_SILKSCREEN
 10
280.5000
 20
372.4644
 40
0.2032
 41
0.2032
  0
VERTEX
  8
TOP_SILKSCREEN
 10
280.5000
 20
372.4644
  0
VERTEX
  8
TOP_SILKSCREEN
 10
280.5000
 20
372.4644
 40
0.1016
 41
0.1016
  0
VERTEX
  8
TOP_SILKSCREEN
 10
280.4492
 20
372.4644
 40
0.1016
 41
0.1016
 42
1.000
  0
VERTEX
  8
TOP_SILKSCREEN
 10
280.5508
 20
372.4644
  0
SEQEND
  8
TOP_SILKSCREEN
  0
POLYLINE
  8
TOP_SILKSCREEN
 66
     1
 62
    135
 10
0.0000
 20
0.0000
 70
     1
 40
0.0000
 41
0.0000
  0
VERTEX
  8
TOP_SILKSCREEN
 10
280.6220
 20
394.7144
 40
0.1016
 41
0.1016
 42
1.000
  0
VERTEX
  8
TOP_SILKSCREEN
 10
280.5204
 20
394.7144
  0
VERTEX
  8
TOP_SILKSCREEN
 10
280.5712
 20
394.7144
  0
VERTEX
  8
TOP_SILKSCREEN
 10
280.5712
 20
394.7144
 40
0.2032
 41
0.2032
 42
1.000
  0
VERTEX
  8
TOP_SILKSCREEN
 10
284.0000
 20
394.7144
  0
VERTEX
  8
TOP_SILKSCREEN
 10
284.0000
 20
394.7144
 40
0.1016
 41
0.1016
  0
VERTEX
  8
TOP_SILKSCREEN
 10
284.0508
 20
394.7144
 40
0.1016
 41
0.1016
 42
1.000
  0
VERTEX
  8
TOP_SILKSCREEN
 10
283.9492
 20
394.7144
  0
VERTEX
  8
TOP_SILKSCREEN
 10
283.9492
 20
394.7144
 40
0.1016
 41
0.1016
 42
1.000
  0
VERTEX
  8
TOP_SILKSCREEN
 10
284.0508
 20
394.7144
  0
VERTEX
  8
TOP_SILKSCREEN
 10
284.0000
 20
394.7144
  0
VERTEX
  8
TOP_SILKSCREEN
 10
284.0000
 20
394.7144
 40
0.2032
 41
0.2032
 42
1.000
  0
VERTEX
  8
TOP_SILKSCREEN
 10
280.5712
 20
394.7144
 40
0.2032
 41
0.2032
  0
VERTEX
  8
TOP_SILKSCREEN
 10
280.5712
 20
394.7144
  0
VERTEX
  8
TOP_SILKSCREEN
 10
280.5712
 20
394.7144
 40
0.1016
 41
0.1016
  0
VERTEX
  8
TOP_SILKSCREEN
 10
280.5204
 20
394.7144
 40
0.1016
 41
0.1016
 42
1.000
  0
VERTEX
  8
TOP_SILKSCREEN
 10
280.6220
 20
394.7144
  0
SEQEND
  8
TOP_SILKSCREEN
  0
POLYLINE
  8
TOP_SILKSCREEN
 66
     1
 62
    135
 10
0.0000
 20
0.0000
 70
     1
 40
0.0000
 41
0.0000
  0
VERTEX
  8
TOP_SILKSCREEN
 10
219.5508
 20
416.7145
 40
0.1016
 41
0.1016
 42
1.000
  0
VERTEX
  8
TOP_SILKSCREEN
 10
219.4492
 20
416.7145
  0
VERTEX
  8
TOP_SILKSCREEN
 10
219.5000
 20
416.7145
  0
VERTEX
  8
TOP_SILKSCREEN
 10
219.5000
 20
416.7145
 40
0.2032
 41
0.2032
 42
1.000
  0
VERTEX
  8
TOP_SILKSCREEN
 10
222.9288
 20
416.7145
  0
VERTEX
  8
TOP_SILKSCREEN
 10
222.9288
 20
416.7145
 40
0.1016
 41
0.1016
  0
VERTEX
  8
TOP_SILKSCREEN
 10
222.9796
 20
416.7145
 40
0.1016
 41
0.1016
 42
1.000
  0
VERTEX
  8
TOP_SILKSCREEN
 10
222.8780
 20
416.7145
  0
VERTEX
  8
TOP_SILKSCREEN
 10
222.8780
 20
416.7145
 40
0.1016
 41
0.1016
 42
1.000
  0
VERTEX
  8
TOP_SILKSCREEN
 10
222.9796
 20
416.7145
  0
VERTEX
  8
TOP_SILKSCREEN
 10
222.9288
 20
416.7145
  0
VERTEX
  8
TOP_SILKSCREEN
 10
222.9288
 20
416.7145
 40
0.2032
 41
0.2032
 42
1.000
  0
VERTEX
  8
TOP_SILKSCREEN
 10
219.5000
 20
416.7145
 40
0.2032
 41
0.2032
  0
VERTEX
  8
TOP_SILKSCREEN
 10
219.5000
 20
416.7145
  0
VERTEX
  8
TOP_SILKSCREEN
 10
219.5000
 20
416.7145
 40
0.1016
 41
0.1016
  0
VERTEX
  8
TOP_SILKSCREEN
 10
219.4492
 20
416.7145
 40
0.1016
 41
0.1016
 42
1.000
  0
VERTEX
  8
TOP_SILKSCREEN
 10
219.5508
 20
416.7145
  0
SEQEND
  8
TOP_SILKSCREEN
  0
POLYLINE
  8
TOP_SILKSCREEN
 66
     1
 62
    135
 10
0.0000
 20
0.0000
 70
     1
 40
0.0000
 41
0.0000
  0
VERTEX
  8
TOP_SILKSCREEN
 10
219.5508
 20
237.9645
 40
0.1016
 41
0.1016
 42
1.000
  0
VERTEX
  8
TOP_SILKSCREEN
 10
219.4492
 20
237.9645
  0
VERTEX
  8
TOP_SILKSCREEN
 10
219.5000
 20
237.9645
  0
VERTEX
  8
TOP_SILKSCREEN
 10
219.5000
 20
237.9645
 40
0.2032
 41
0.2032
 42
1.000
  0
VERTEX
  8
TOP_SILKSCREEN
 10
222.9288
 20
237.9645
  0
VERTEX
  8
TOP_SILKSCREEN
 10
222.9288
 20
237.9645
 40
0.1016
 41
0.1016
  0
VERTEX
  8
TOP_SILKSCREEN
 10
222.9796
 20
237.9645
 40
0.1016
 41
0.1016
 42
1.000
  0
VERTEX
  8
TOP_SILKSCREEN
 10
222.8780
 20
237.9645
  0
VERTEX
  8
TOP_SILKSCREEN
 10
222.8780
 20
237.9645
 40
0.1016
 41
0.1016
 42
1.000
  0
VERTEX
  8
TOP_SILKSCREEN
 10
222.9796
 20
237.9645
  0
VERTEX
  8
TOP_SILKSCREEN
 10
222.9288
 20
237.9645
  0
VERTEX
  8
TOP_SILKSCREEN
 10
222.9288
 20
237.9645
 40
0.2032
 41
0.2032
 42
1.000
  0
VERTEX
  8
TOP_SILKSCREEN
 10
219.5000
 20
237.9645
 40
0.2032
 41
0.2032
  0
VERTEX
  8
TOP_SILKSCREEN
 10
219.5000
 20
237.9645
  0
VERTEX
  8
TOP_SILKSCREEN
 10
219.5000
 20
237.9645
 40
0.1016
 41
0.1016
  0
VERTEX
  8
TOP_SILKSCREEN
 10
219.4492
 20
237.9645
 40
0.1016
 41
0.1016
 42
1.000
  0
VERTEX
  8
TOP_SILKSCREEN
 10
219.5508
 20
237.9645
  0
SEQEND
  8
TOP_SILKSCREEN
  0
POLYLINE
  8
TOP_SILKSCREEN
 66
     1
 62
    135
 10
0.0000
 20
0.0000
 70
     1
 40
0.0000
 41
0.0000
  0
VERTEX
  8
TOP_SILKSCREEN
 10
219.5508
 20
282.4644
 40
0.1016
 41
0.1016
 42
1.000
  0
VERTEX
  8
TOP_SILKSCREEN
 10
219.4492
 20
282.4644
  0
VERTEX
  8
TOP_SILKSCREEN
 10
219.5000
 20
282.4644
  0
VERTEX
  8
TOP_SILKSCREEN
 10
219.5000
 20
282.4644
 40
0.2032
 41
0.2032
 42
1.000
  0
VERTEX
  8
TOP_SILKSCREEN
 10
222.9288
 20
282.4644
  0
VERTEX
  8
TOP_SILKSCREEN
 10
222.9288
 20
282.4644
 40
0.1016
 41
0.1016
  0
VERTEX
  8
TOP_SILKSCREEN
 10
222.9796
 20
282.4644
 40
0.1016
 41
0.1016
 42
1.000
  0
VERTEX
  8
TOP_SILKSCREEN
 10
222.8780
 20
282.4644
  0
VERTEX
  8
TOP_SILKSCREEN
 10
222.8780
 20
282.4644
 40
0.1016
 41
0.1016
 42
1.000
  0
VERTEX
  8
TOP_SILKSCREEN
 10
222.9796
 20
282.4644
  0
VERTEX
  8
TOP_SILKSCREEN
 10
222.9288
 20
282.4644
  0
VERTEX
  8
TOP_SILKSCREEN
 10
222.9288
 20
282.4644
 40
0.2032
 41
0.2032
 42
1.000
  0
VERTEX
  8
TOP_SILKSCREEN
 10
219.5000
 20
282.4644
 40
0.2032
 41
0.2032
  0
VERTEX
  8
TOP_SILKSCREEN
 10
219.5000
 20
282.4644
  0
VERTEX
  8
TOP_SILKSCREEN
 10
219.5000
 20
282.4644
 40
0.1016
 41
0.1016
  0
VERTEX
  8
TOP_SILKSCREEN
 10
219.4492
 20
282.4644
 40
0.1016
 41
0.1016
 42
1.000
  0
VERTEX
  8
TOP_SILKSCREEN
 10
219.5508
 20
282.4644
  0
SEQEND
  8
TOP_SILKSCREEN
  0
POLYLINE
  8
TOP_SILKSCREEN
 66
     1
 62
    135
 10
0.0000
 20
0.0000
 70
     1
 40
0.0000
 41
0.0000
  0
VERTEX
  8
TOP_SILKSCREEN
 10
219.5508
 20
304.7144
 40
0.1016
 41
0.1016
 42
1.000
  0
VERTEX
  8
TOP_SILKSCREEN
 10
219.4492
 20
304.7144
  0
VERTEX
  8
TOP_SILKSCREEN
 10
219.5000
 20
304.7144
  0
VERTEX
  8
TOP_SILKSCREEN
 10
219.5000
 20
304.7144
 40
0.2032
 41
0.2032
 42
1.000
  0
VERTEX
  8
TOP_SILKSCREEN
 10
222.9288
 20
304.7144
  0
VERTEX
  8
TOP_SILKSCREEN
 10
222.9288
 20
304.7144
 40
0.1016
 41
0.1016
  0
VERTEX
  8
TOP_SILKSCREEN
 10
222.9796
 20
304.7144
 40
0.1016
 41
0.1016
 42
1.000
  0
VERTEX
  8
TOP_SILKSCREEN
 10
222.8780
 20
304.7144
  0
VERTEX
  8
TOP_SILKSCREEN
 10
222.8780
 20
304.7144
 40
0.1016
 41
0.1016
 42
1.000
  0
VERTEX
  8
TOP_SILKSCREEN
 10
222.9796
 20
304.7144
  0
VERTEX
  8
TOP_SILKSCREEN
 10
222.9288
 20
304.7144
  0
VERTEX
  8
TOP_SILKSCREEN
 10
222.9288
 20
304.7144
 40
0.2032
 41
0.2032
 42
1.000
  0
VERTEX
  8
TOP_SILKSCREEN
 10
219.5000
 20
304.7144
 40
0.2032
 41
0.2032
  0
VERTEX
  8
TOP_SILKSCREEN
 10
219.5000
 20
304.7144
  0
VERTEX
  8
TOP_SILKSCREEN
 10
219.5000
 20
304.7144
 40
0.1016
 41
0.1016
  0
VERTEX
  8
TOP_SILKSCREEN
 10
219.4492
 20
304.7144
 40
0.1016
 41
0.1016
 42
1.000
  0
VERTEX
  8
TOP_SILKSCREEN
 10
219.5508
 20
304.7144
  0
SEQEND
  8
TOP_SILKSCREEN
  0
POLYLINE
  8
TOP_SILKSCREEN
 66
     1
 62
    135
 10
0.0000
 20
0.0000
 70
     1
 40
0.0000
 41
0.0000
  0
VERTEX
  8
TOP_SILKSCREEN
 10
219.5508
 20
327.9645
 40
0.1016
 41
0.1016
 42
1.000
  0
VERTEX
  8
TOP_SILKSCREEN
 10
219.4492
 20
327.9645
  0
VERTEX
  8
TOP_SILKSCREEN
 10
219.5000
 20
327.9645
  0
VERTEX
  8
TOP_SILKSCREEN
 10
219.5000
 20
327.9645
 40
0.2032
 41
0.2032
 42
1.000
  0
VERTEX
  8
TOP_SILKSCREEN
 10
222.9288
 20
327.9645
  0
VERTEX
  8
TOP_SILKSCREEN
 10
222.9288
 20
327.9645
 40
0.1016
 41
0.1016
  0
VERTEX
  8
TOP_SILKSCREEN
 10
222.9796
 20
327.9645
 40
0.1016
 41
0.1016
 42
1.000
  0
VERTEX
  8
TOP_SILKSCREEN
 10
222.8780
 20
327.9645
  0
VERTEX
  8
TOP_SILKSCREEN
 10
222.8780
 20
327.9645
 40
0.1016
 41
0.1016
 42
1.000
  0
VERTEX
  8
TOP_SILKSCREEN
 10
222.9796
 20
327.9645
  0
VERTEX
  8
TOP_SILKSCREEN
 10
222.9288
 20
327.9645
  0
VERTEX
  8
TOP_SILKSCREEN
 10
222.9288
 20
327.9645
 40
0.2032
 41
0.2032
 42
1.000
  0
VERTEX
  8
TOP_SILKSCREEN
 10
219.5000
 20
327.9645
 40
0.2032
 41
0.2032
  0
VERTEX
  8
TOP_SILKSCREEN
 10
219.5000
 20
327.9645
  0
VERTEX
  8
TOP_SILKSCREEN
 10
219.5000
 20
327.9645
 40
0.1016
 41
0.1016
  0
VERTEX
  8
TOP_SILKSCREEN
 10
219.4492
 20
327.9645
 40
0.1016
 41
0.1016
 42
1.000
  0
VERTEX
  8
TOP_SILKSCREEN
 10
219.5508
 20
327.9645
  0
SEQEND
  8
TOP_SILKSCREEN
  0
POLYLINE
  8
TOP_SILKSCREEN
 66
     1
 62
    135
 10
0.0000
 20
0.0000
 70
     1
 40
0.0000
 41
0.0000
  0
VERTEX
  8
TOP_SILKSCREEN
 10
219.5508
 20
350.2145
 40
0.1016
 41
0.1016
 42
1.000
  0
VERTEX
  8
TOP_SILKSCREEN
 10
219.4492
 20
350.2145
  0
VERTEX
  8
TOP_SILKSCREEN
 10
219.5000
 20
350.2145
  0
VERTEX
  8
TOP_SILKSCREEN
 10
219.5000
 20
350.2145
 40
0.2032
 41
0.2032
 42
1.000
  0
VERTEX
  8
TOP_SILKSCREEN
 10
222.9288
 20
350.2145
  0
VERTEX
  8
TOP_SILKSCREEN
 10
222.9288
 20
350.2145
 40
0.1016
 41
0.1016
  0
VERTEX
  8
TOP_SILKSCREEN
 10
222.9796
 20
350.2145
 40
0.1016
 41
0.1016
 42
1.000
  0
VERTEX
  8
TOP_SILKSCREEN
 10
222.8780
 20
350.2145
  0
VERTEX
  8
TOP_SILKSCREEN
 10
222.8780
 20
350.2145
 40
0.1016
 41
0.1016
 42
1.000
  0
VERTEX
  8
TOP_SILKSCREEN
 10
222.9796
 20
350.2145
  0
VERTEX
  8
TOP_SILKSCREEN
 10
222.9288
 20
350.2145
  0
VERTEX
  8
TOP_SILKSCREEN
 10
222.9288
 20
350.2145
 40
0.2032
 41
0.2032
 42
1.000
  0
VERTEX
  8
TOP_SILKSCREEN
 10
219.5000
 20
350.2145
 40
0.2032
 41
0.2032
  0
VERTEX
  8
TOP_SILKSCREEN
 10
219.5000
 20
350.2145
  0
VERTEX
  8
TOP_SILKSCREEN
 10
219.5000
 20
350.2145
 40
0.1016
 41
0.1016
  0
VERTEX
  8
TOP_SILKSCREEN
 10
219.4492
 20
350.2145
 40
0.1016
 41
0.1016
 42
1.000
  0
VERTEX
  8
TOP_SILKSCREEN
 10
219.5508
 20
350.2145
  0
SEQEND
  8
TOP_SILKSCREEN
  0
POLYLINE
  8
TOP_SILKSCREEN
 66
     1
 62
    135
 10
0.0000
 20
0.0000
 70
     1
 40
0.0000
 41
0.0000
  0
VERTEX
  8
TOP_SILKSCREEN
 10
219.5508
 20
372.4644
 40
0.1016
 41
0.1016
 42
1.000
  0
VERTEX
  8
TOP_SILKSCREEN
 10
219.4492
 20
372.4644
  0
VERTEX
  8
TOP_SILKSCREEN
 10
219.5000
 20
372.4644
  0
VERTEX
  8
TOP_SILKSCREEN
 10
219.5000
 20
372.4644
 40
0.2032
 41
0.2032
 42
1.000
  0
VERTEX
  8
TOP_SILKSCREEN
 10
222.9288
 20
372.4644
  0
VERTEX
  8
TOP_SILKSCREEN
 10
222.9288
 20
372.4644
 40
0.1016
 41
0.1016
  0
VERTEX
  8
TOP_SILKSCREEN
 10
222.9796
 20
372.4644
 40
0.1016
 41
0.1016
 42
1.000
  0
VERTEX
  8
TOP_SILKSCREEN
 10
222.8780
 20
372.4644
  0
VERTEX
  8
TOP_SILKSCREEN
 10
222.8780
 20
372.4644
 40
0.1016
 41
0.1016
 42
1.000
  0
VERTEX
  8
TOP_SILKSCREEN
 10
222.9796
 20
372.4644
  0
VERTEX
  8
TOP_SILKSCREEN
 10
222.9288
 20
372.4644
  0
VERTEX
  8
TOP_SILKSCREEN
 10
222.9288
 20
372.4644
 40
0.2032
 41
0.2032
 42
1.000
  0
VERTEX
  8
TOP_SILKSCREEN
 10
219.5000
 20
372.4644
 40
0.2032
 41
0.2032
  0
VERTEX
  8
TOP_SILKSCREEN
 10
219.5000
 20
372.4644
  0
VERTEX
  8
TOP_SILKSCREEN
 10
219.5000
 20
372.4644
 40
0.1016
 41
0.1016
  0
VERTEX
  8
TOP_SILKSCREEN
 10
219.4492
 20
372.4644
 40
0.1016
 41
0.1016
 42
1.000
  0
VERTEX
  8
TOP_SILKSCREEN
 10
219.5508
 20
372.4644
  0
SEQEND
  8
TOP_SILKSCREEN
  0
POLYLINE
  8
TOP_SILKSCREEN
 66
     1
 62
    135
 10
0.0000
 20
0.0000
 70
     1
 40
0.0000
 41
0.0000
  0
VERTEX
  8
TOP_SILKSCREEN
 10
219.5508
 20
394.7144
 40
0.1016
 41
0.1016
 42
1.000
  0
VERTEX
  8
TOP_SILKSCREEN
 10
219.4492
 20
394.7144
  0
VERTEX
  8
TOP_SILKSCREEN
 10
219.5000
 20
394.7144
  0
VERTEX
  8
TOP_SILKSCREEN
 10
219.5000
 20
394.7144
 40
0.2032
 41
0.2032
 42
1.000
  0
VERTEX
  8
TOP_SILKSCREEN
 10
222.9288
 20
394.7144
  0
VERTEX
  8
TOP_SILKSCREEN
 10
222.9288
 20
394.7144
 40
0.1016
 41
0.1016
  0
VERTEX
  8
TOP_SILKSCREEN
 10
222.9796
 20
394.7144
 40
0.1016
 41
0.1016
 42
1.000
  0
VERTEX
  8
TOP_SILKSCREEN
 10
222.8780
 20
394.7144
  0
VERTEX
  8
TOP_SILKSCREEN
 10
222.8780
 20
394.7144
 40
0.1016
 41
0.1016
 42
1.000
  0
VERTEX
  8
TOP_SILKSCREEN
 10
222.9796
 20
394.7144
  0
VERTEX
  8
TOP_SILKSCREEN
 10
222.9288
 20
394.7144
  0
VERTEX
  8
TOP_SILKSCREEN
 10
222.9288
 20
394.7144
 40
0.2032
 41
0.2032
 42
1.000
  0
VERTEX
  8
TOP_SILKSCREEN
 10
219.5000
 20
394.7144
 40
0.2032
 41
0.2032
  0
VERTEX
  8
TOP_SILKSCREEN
 10
219.5000
 20
394.7144
  0
VERTEX
  8
TOP_SILKSCREEN
 10
219.5000
 20
394.7144
 40
0.1016
 41
0.1016
  0
VERTEX
  8
TOP_SILKSCREEN
 10
219.4492
 20
394.7144
 40
0.1016
 41
0.1016
 42
1.000
  0
VERTEX
  8
TOP_SILKSCREEN
 10
219.5508
 20
394.7144
  0
SEQEND
  8
TOP_SILKSCREEN
  0
INSERT
  8
TOP_SOLDER_MASK
 62
    253
  2
PAD
 10
279.0000
 20
232.5000
 41
1.083
 42
1.083
  0
INSERT
  8
BOTTOM_SOLDER_MASK
 62
    253
  2
PAD
 10
279.0000
 20
232.5000
 41
1.083
 42
1.083
  0
INSERT
  8
TOP_SOLDER_MASK
 62
    253
  2
PAD
 10
279.0000
 20
232.5000
 41
1.083
 42
1.083
  0
INSERT
  8
BOTTOM_SOLDER_MASK
 62
    253
  2
PAD
 10
279.0000
 20
232.5000
 41
1.083
 42
1.083
  0
INSERT
  8
TOP_SOLDER_MASK
 62
    253
  2
PAD
 10
253.0000
 20
232.5000
 41
1.083
 42
1.083
  0
INSERT
  8
BOTTOM_SOLDER_MASK
 62
    253
  2
PAD
 10
253.0000
 20
232.5000
 41
1.083
 42
1.083
  0
INSERT
  8
TOP_SOLDER_MASK
 62
    253
  2
PAD
 10
253.0000
 20
232.5000
 41
1.083
 42
1.083
  0
INSERT
  8
BOTTOM_SOLDER_MASK
 62
    253
  2
PAD
 10
253.0000
 20
232.5000
 41
1.083
 42
1.083
  0
INSERT
  8
TOP_SOLDER_MASK
 62
    253
  2
PAD
 10
250.5000
 20
232.5000
 41
1.083
 42
1.083
  0
INSERT
  8
BOTTOM_SOLDER_MASK
 62
    253
  2
PAD
 10
250.5000
 20
232.5000
 41
1.083
 42
1.083
  0
INSERT
  8
TOP_SOLDER_MASK
 62
    253
  2
PAD
 10
250.5000
 20
232.5000
 41
1.083
 42
1.083
  0
INSERT
  8
BOTTOM_SOLDER_MASK
 62
    253
  2
PAD
 10
250.5000
 20
232.5000
 41
1.083
 42
1.083
  0
INSERT
  8
TOP_SOLDER_MASK
 62
    253
  2
PAD
 10
224.5000
 20
232.5000
 41
1.083
 42
1.083
  0
INSERT
  8
BOTTOM_SOLDER_MASK
 62
    253
  2
PAD
 10
224.5000
 20
232.5000
 41
1.083
 42
1.083
  0
INSERT
  8
TOP_SOLDER_MASK
 62
    253
  2
PAD
 10
224.5000
 20
232.5000
 41
1.083
 42
1.083
  0
INSERT
  8
BOTTOM_SOLDER_MASK
 62
    253
  2
PAD
 10
224.5000
 20
232.5000
 41
1.083
 42
1.083
  0
INSERT
  8
TOP_SOLDER_MASK
 62
    253
  2
PAD
 10
279.0000
 20
430.5000
 41
1.083
 42
1.083
  0
INSERT
  8
BOTTOM_SOLDER_MASK
 62
    253
  2
PAD
 10
279.0000
 20
430.5000
 41
1.083
 42
1.083
  0
INSERT
  8
TOP_SOLDER_MASK
 62
    253
  2
PAD
 10
279.0000
 20
430.5000
 41
1.083
 42
1.083
  0
INSERT
  8
BOTTOM_SOLDER_MASK
 62
    253
  2
PAD
 10
279.0000
 20
430.5000
 41
1.083
 42
1.083
  0
INSERT
  8
TOP_SOLDER_MASK
 62
    253
  2
PAD
 10
253.0000
 20
430.5000
 41
1.083
 42
1.083
  0
INSERT
  8
BOTTOM_SOLDER_MASK
 62
    253
  2
PAD
 10
253.0000
 20
430.5000
 41
1.083
 42
1.083
  0
INSERT
  8
TOP_SOLDER_MASK
 62
    253
  2
PAD
 10
253.0000
 20
430.5000
 41
1.083
 42
1.083
  0
INSERT
  8
BOTTOM_SOLDER_MASK
 62
    253
  2
PAD
 10
253.0000
 20
430.5000
 41
1.083
 42
1.083
  0
INSERT
  8
TOP_SOLDER_MASK
 62
    253
  2
PAD
 10
250.5000
 20
430.5000
 41
1.083
 42
1.083
  0
INSERT
  8
BOTTOM_SOLDER_MASK
 62
    253
  2
PAD
 10
250.5000
 20
430.5000
 41
1.083
 42
1.083
  0
INSERT
  8
TOP_SOLDER_MASK
 62
    253
  2
PAD
 10
250.5000
 20
430.5000
 41
1.083
 42
1.083
  0
INSERT
  8
BOTTOM_SOLDER_MASK
 62
    253
  2
PAD
 10
250.5000
 20
430.5000
 41
1.083
 42
1.083
  0
INSERT
  8
TOP_SOLDER_MASK
 62
    253
  2
PAD
 10
224.5000
 20
430.5000
 41
1.083
 42
1.083
  0
INSERT
  8
BOTTOM_SOLDER_MASK
 62
    253
  2
PAD
 10
224.5000
 20
430.5000
 41
1.083
 42
1.083
  0
INSERT
  8
TOP_SOLDER_MASK
 62
    253
  2
PAD
 10
224.5000
 20
430.5000
 41
1.083
 42
1.083
  0
INSERT
  8
BOTTOM_SOLDER_MASK
 62
    253
  2
PAD
 10
224.5000
 20
430.5000
 41
1.083
 42
1.083
  0
INSERT
  8
_DRILL
  2
_HOLE
 10
279.0000
 20
232.5000
 41
0.8890
 42
0.8890
  0
INSERT
  8
_DRILL
  2
_HOLE
 10
253.0000
 20
232.5000
 41
0.8890
 42
0.8890
  0
INSERT
  8
_DRILL
  2
_HOLE
 10
250.5000
 20
232.5000
 41
0.8890
 42
0.8890
  0
INSERT
  8
_DRILL
  2
_HOLE
 10
224.5000
 20
232.5000
 41
0.8890
 42
0.8890
  0
INSERT
  8
_DRILL
  2
_HOLE
 10
279.0000
 20
430.5000
 41
0.8890
 42
0.8890
  0
INSERT
  8
_DRILL
  2
_HOLE
 10
253.0000
 20
430.5000
 41
0.8890
 42
0.8890
  0
INSERT
  8
_DRILL
  2
_HOLE
 10
250.5000
 20
430.5000
 41
0.8890
 42
0.8890
  0
INSERT
  8
_DRILL
  2
_HOLE
 10
224.5000
 20
430.5000
 41
0.8890
 42
0.8890
  0
ENDSEC
  0
EOF
