M48
INCH,TZ
T1C0.016
T2C0.031
T3C0.039
T4C0.040
T5C0.043
T6C0.047
T7C0.059
T8C0.120
T9C0.126
%
G90
G05
T1
X19023Y-69010
X19358Y-58197
X20548Y-34266
X20743Y-37370
X20791Y-44325
X21054Y-34063
X21410Y-36220
X21739Y-45870
X21841Y-51743
X22189Y-64177
X22405Y-73213
X22456Y-70950
X23549Y-49351
X23575Y-74458
X23601Y-22481
X23771Y-20073
X24097Y-48610
X24150Y-66237
X24545Y-39418
X24716Y-31909
X25722Y-46050
X26565Y-56478
X26788Y-26944
X27043Y-53794
X27068Y-53125
X27140Y-73213
X27369Y-56886
X27707Y-17470
X28217Y-61130
X28229Y-48032
X28391Y-54227
X28397Y-34719
X28398Y-28272
X28887Y-48790
X28999Y-56626
X29525Y-71214
X29781Y-45122
X32163Y-54615
X32697Y-43049
X32702Y-51402
X33186Y-45704
X33520Y-13074
X33673Y-27583
X33913Y-37696
X33990Y-52743
X35068Y-41177
X35617Y-39019
X35620Y-50837
X35629Y-38099
X35746Y-45850
X35928Y-58191
X36038Y-65001
X36261Y-72084
X36411Y-71421
X36436Y-68598
X36977Y-59456
X37543Y-59407
X37745Y-50785
X38407Y-38980
X38426Y-24919
X38542Y-52857
X38605Y-68647
X38810Y-40051
X39672Y-46909
X39794Y-41366
X40058Y-42476
X40475Y-56782
X41449Y-24474
X41952Y-13054
X42160Y-50734
X42748Y-57575
X42751Y-53117
X43139Y-54164
X43790Y-49485
X43978Y-72784
X44342Y-53595
X44372Y-63635
X44615Y-60118
X45179Y-61311
X45287Y-44556
X45695Y-62502
X45719Y-37488
X45820Y-65188
X45866Y-40158
X46715Y-61253
X46962Y-70722
X48604Y-70269
X48885Y-48379
X51534Y-53081
X51705Y-73849
X53348Y-61257
X55540Y-41218
X56135Y-47007
X56989Y-41251
X56999Y-49749
T2
X31417Y-20315
X31417Y-22283
X42756Y-43179
X42756Y-45148
X38345Y-66920
X38345Y-69920
X23601Y-63220
X26601Y-63220
X30000Y-10472
X33000Y-10472
X40376Y-40226
X43376Y-40226
X54516Y-30582
X57516Y-30582
X27735Y-66704
X27735Y-69704
X51866Y-63006
X54866Y-63006
X28947Y-62018
X31947Y-62018
X24934Y-58729
X27934Y-58729
X47181Y-64227
X47181Y-67227
X36417Y-34695
X36417Y-37695
X49845Y-37068
X49845Y-40068
X48480Y-64239
X48480Y-67239
X49698Y-47602
X49698Y-50602
X53870Y-69574
X53870Y-72574
X34223Y-68869
X37223Y-68869
X47148Y-58848
X47148Y-61848
X48397Y-69586
X48397Y-72586
X42323Y-30620
X42323Y-32589
X35318Y-21974
X35318Y-23943
X47240Y-53431
X47240Y-56431
X23792Y-51004
X23792Y-54004
X39728Y-51141
X39728Y-54141
X43138Y-48813
X43138Y-49797
X35562Y-58909
X38562Y-58909
X30070Y-11797
X30070Y-14797
X31070Y-11797
X31070Y-14797
X32070Y-11797
X32070Y-14797
X33070Y-11797
X33070Y-14797
X24926Y-57430
X27926Y-57430
X24895Y-51957
X27895Y-51957
X30787Y-34459
X31772Y-34459
X30284Y-57515
X33284Y-57515
X51073Y-42317
X51073Y-45317
X36220Y-17236
X36220Y-20236
X35574Y-57591
X38574Y-57591
X29429Y-32766
X31398Y-32766
X37677Y-29833
X37677Y-30833
X37677Y-31833
X37677Y-32833
X37677Y-33833
X37677Y-34833
X37677Y-35833
X37677Y-36833
X40677Y-29833
X40677Y-30833
X40677Y-31833
X40677Y-32833
X40677Y-33833
X40677Y-34833
X40677Y-35833
X40677Y-36833
X51931Y-57706
X54931Y-57706
X40889Y-52133
X43889Y-52133
X40861Y-57645
X43861Y-57645
X49774Y-42325
X49774Y-45325
X29843Y-24291
X29843Y-25276
X34252Y-10472
X37252Y-10472
X33821Y-42380
X33821Y-43380
X33821Y-44380
X33821Y-45380
X33821Y-46380
X33821Y-47380
X33821Y-48380
X33821Y-49380
X36821Y-42380
X36821Y-43380
X36821Y-44380
X36821Y-45380
X36821Y-46380
X36821Y-47380
X36821Y-48380
X36821Y-49380
X44390Y-41813
X44390Y-42813
X44390Y-43813
X44390Y-44813
X44390Y-45813
X44390Y-46813
X44390Y-47813
X44390Y-48813
X47390Y-41813
X47390Y-42813
X47390Y-43813
X47390Y-44813
X47390Y-45813
X47390Y-46813
X47390Y-47813
X47390Y-48813
X56545Y-42285
X56545Y-45285
X40512Y-16063
X41496Y-16063
X56558Y-37068
X56558Y-40068
X51925Y-52309
X54925Y-52309
X28927Y-68829
X31927Y-68829
X38583Y-10394
X41583Y-10394
X50997Y-47613
X50997Y-50613
X48539Y-53463
X48539Y-56463
X31437Y-28091
X31437Y-29091
X31437Y-30091
X31437Y-31091
X34437Y-28091
X34437Y-29091
X34437Y-30091
X34437Y-31091
X34882Y-15898
X34882Y-18898
X54501Y-46480
X57501Y-46480
X39492Y-68952
X42492Y-68952
X49752Y-31704
X49752Y-34704
X30000Y-9134
X33000Y-9134
X39520Y-63441
X42520Y-63441
X28935Y-63317
X31935Y-63317
X53939Y-58868
X53939Y-61868
X36181Y-16063
X37165Y-16063
X48447Y-58860
X48447Y-61860
X51862Y-68374
X54862Y-68374
X30273Y-52004
X33273Y-52004
X42362Y-41329
X42362Y-42313
X51032Y-31716
X51032Y-34716
X29091Y-51051
X29091Y-54051
X18553Y-71459
X18553Y-72459
X43654Y-66866
X43654Y-69866
X31781Y-41427
X31781Y-42411
X23141Y-36837
X23141Y-37837
X23141Y-38837
X23141Y-39837
X23141Y-40837
X23141Y-41837
X23141Y-42837
X23141Y-43837
X26141Y-36837
X26141Y-37837
X26141Y-38837
X26141Y-39837
X26141Y-40837
X26141Y-41837
X26141Y-42837
X26141Y-43837
X27392Y-31093
X30392Y-31093
X56504Y-31724
X56504Y-34724
X27332Y-28429
X27332Y-29414
X32087Y-16063
X33071Y-16063
X39370Y-15819
X39370Y-18819
X40869Y-58964
X43869Y-58964
X54695Y-41222
X57695Y-41222
X40709Y-17236
X40709Y-20236
X35709Y-28071
X35709Y-29055
X30787Y-35711
X30787Y-38711
X31787Y-35711
X31787Y-38711
X32787Y-35711
X32787Y-38711
X33787Y-35711
X33787Y-38711
X33069Y-66762
X33069Y-69762
X30177Y-29026
X30177Y-30010
X23613Y-68672
X26613Y-68672
X32539Y-49400
X32539Y-50384
X34440Y-51067
X34440Y-54067
X41929Y-28848
X41929Y-29833
X54051Y-53451
X54051Y-56451
X54629Y-35907
X57629Y-35907
X23159Y-28429
X23159Y-29429
X23159Y-30429
X23159Y-31429
X23159Y-32429
X23159Y-33429
X23159Y-34429
X23159Y-35429
X26159Y-28429
X26159Y-29429
X26159Y-30429
X26159Y-31429
X26159Y-32429
X26159Y-33429
X26159Y-34429
X26159Y-35429
X33150Y-17157
X33150Y-20157
X35059Y-35112
X35059Y-36112
X35059Y-37112
X42746Y-45984
X42746Y-47953
X28740Y-12047
X28740Y-15047
X28583Y-8937
X28583Y-9921
X34192Y-63417
X37192Y-63417
X29449Y-35711
X29449Y-38711
X27451Y-42411
X27451Y-43411
X27451Y-44411
X27451Y-45411
X27451Y-46411
X27451Y-47411
X27451Y-48411
X27451Y-49411
X30451Y-42411
X30451Y-43411
X30451Y-44411
X30451Y-45411
X30451Y-46411
X30451Y-47411
X30451Y-48411
X30451Y-49411
X53952Y-64227
X53952Y-67227
X51105Y-37080
X51105Y-40080
X36417Y-30581
X36417Y-33581
X38110Y-42347
X38110Y-43347
X38110Y-44347
X38110Y-45347
X38110Y-46347
X38110Y-47347
X38110Y-48347
X38110Y-49347
X41110Y-42347
X41110Y-43347
X41110Y-44347
X41110Y-45347
X41110Y-46347
X41110Y-47347
X41110Y-48347
X41110Y-49347
X34243Y-11797
X34243Y-14797
X35243Y-11797
X35243Y-14797
X36243Y-11797
X36243Y-14797
X37243Y-11797
X37243Y-14797
X24331Y-9134
X24331Y-10134
X24331Y-11134
X24331Y-12134
X24331Y-13134
X24331Y-14134
X24331Y-15134
X24331Y-16134
X27331Y-9134
X27331Y-10134
X27331Y-11134
X27331Y-12134
X27331Y-13134
X27331Y-14134
X27331Y-15134
X27331Y-16134
X32096Y-43671
X32096Y-45640
X29390Y-27953
X30374Y-27953
X34223Y-62117
X37223Y-62117
X32163Y-46528
X32163Y-48497
X44508Y-40217
X47508Y-40217
X56470Y-47621
X56470Y-50621
X39531Y-62141
X42531Y-62141
X25504Y-19197
X25504Y-20197
X25504Y-21197
X25504Y-22197
X25504Y-23197
X25504Y-24197
X25504Y-25197
X28504Y-19197
X28504Y-20197
X28504Y-21197
X28504Y-22197
X28504Y-23197
X28504Y-24197
X28504Y-25197
X34244Y-9134
X37244Y-9134
X41929Y-33455
X41929Y-36455
X38575Y-9134
X41575Y-9134
X27393Y-36758
X27393Y-37742
X38504Y-11768
X38504Y-14768
X39504Y-11768
X39504Y-14768
X40504Y-11768
X40504Y-14768
X41504Y-11768
X41504Y-14768
X35562Y-52098
X38562Y-52098
X29764Y-20197
X29764Y-21181
X47098Y-69555
X47098Y-72555
X23633Y-61940
X26633Y-61940
X30273Y-58815
X33273Y-58815
T3
X52755Y-48055
X53755Y-48055
X54755Y-48055
X50131Y-70008
X51131Y-70008
X52131Y-70008
X41307Y-53880
X41307Y-54880
X41307Y-55880
X42070Y-65218
X42070Y-66218
X42070Y-67218
X52799Y-42739
X53799Y-42739
X54799Y-42739
X20398Y-53689
X20398Y-54780
X20398Y-55870
X20398Y-56961
X20398Y-58051
X20398Y-59142
X20398Y-60232
X20398Y-61323
X20398Y-62413
X20398Y-63504
X20398Y-64594
X20398Y-65685
X21516Y-53144
X21516Y-54234
X21516Y-55325
X21516Y-56415
X21516Y-57506
X21516Y-58596
X21516Y-59687
X21516Y-60778
X21516Y-61868
X21516Y-62959
X21516Y-64049
X21516Y-65140
X21516Y-66230
X52828Y-37494
X53828Y-37494
X54828Y-37494
X50289Y-53893
X51289Y-53893
X52289Y-53893
X30687Y-53765
X30687Y-54765
X30687Y-55765
X26187Y-64946
X26187Y-65946
X26187Y-66946
X25328Y-53689
X25328Y-54689
X25328Y-55689
X31493Y-65071
X31493Y-66071
X31493Y-67071
X36813Y-65139
X36813Y-66139
X36813Y-67139
X35984Y-53844
X35984Y-54844
X35984Y-55844
X50226Y-64661
X51226Y-64661
X52226Y-64661
X52766Y-32146
X53766Y-32146
X54766Y-32146
X50189Y-59286
X51189Y-59286
X52189Y-59286
T4
X28243Y-26624
X29243Y-26624
X30243Y-26624
X31243Y-26624
X32243Y-26624
X33243Y-26624
X34243Y-26624
X35243Y-26624
X37243Y-26624
X38243Y-26624
X39243Y-26624
X40243Y-26624
X41243Y-26624
X42243Y-26624
X24643Y-7624
X25643Y-7624
X26643Y-7624
X27643Y-7624
X28643Y-7624
X29643Y-7624
X30643Y-7624
X31643Y-7624
X32643Y-7624
X33643Y-7624
X35243Y-7624
X36243Y-7624
X37243Y-7624
X38243Y-7624
X39243Y-7624
X40243Y-7624
X41243Y-7624
X42243Y-7624
T5
X49837Y-35946
X52837Y-35946
X38365Y-62109
X38365Y-65109
X49743Y-30599
X52743Y-30599
X43654Y-62114
X43654Y-65114
X39740Y-55982
X39740Y-58982
X33069Y-62010
X33069Y-65010
X34420Y-55898
X34420Y-58898
X49844Y-41222
X52844Y-41222
X47104Y-63035
X50104Y-63035
X47088Y-68402
X50088Y-68402
X49690Y-46480
X52690Y-46480
X47140Y-57706
X50140Y-57706
X23871Y-55737
X23871Y-58737
X47167Y-52326
X50167Y-52326
X29111Y-55803
X29111Y-58803
X27774Y-61913
X27774Y-64913
T6
X37224Y-28012
X33169Y-40207
X32972Y-33140
X34862Y-33593
X31535Y-40187
T7
X20531Y-72441
X29193Y-72441
T8
X43243Y-13624
X23243Y-7624
X43243Y-24624
X22743Y-26624
T9
X20957Y-50415
X20957Y-68959
T0
M30
