M48
INCH,TZ
T10C0.016
T11C0.031
T12C0.039
T13C0.040
T14C0.043
T15C0.047
T16C0.059
T17C0.120
T18C0.126
%
T10
X019023Y-69010
X019358Y-58197
X020548Y-34266
X020743Y-37370
X020791Y-44325
X021054Y-34063
X021410Y-36220
X021739Y-45870
X021841Y-51743
X022189Y-64177
X022405Y-73213
X022456Y-70950
X023549Y-49351
X023575Y-74458
X023601Y-22481
X023771Y-20073
X024097Y-48610
X024150Y-66237
X024545Y-39418
X024716Y-31909
X025722Y-46050
X026565Y-56478
X026788Y-26944
X027043Y-53794
X027068Y-53125
X027140Y-73213
X027369Y-56886
X027707Y-17470
X028217Y-61130
X028229Y-48032
X028391Y-54227
X028397Y-34719
X028398Y-28272
X028887Y-48790
X028999Y-56626
X029525Y-71214
X029781Y-45122
X032163Y-54615
X032697Y-43049
X032702Y-51402
X033186Y-45704
X033520Y-13074
X033673Y-27583
X033913Y-37696
X033990Y-52743
X035068Y-41177
X035617Y-39019
X035620Y-50837
X035629Y-38099
X035746Y-45850
X035928Y-58191
X036038Y-65001
X036261Y-72084
X036411Y-71421
X036436Y-68598
X036977Y-59456
X037543Y-59407
X037745Y-50785
X038407Y-38980
X038426Y-24919
X038542Y-52857
X038605Y-68647
X038810Y-40051
X039672Y-46909
X039794Y-41366
X040058Y-42476
X040475Y-56782
X041449Y-24474
X041952Y-13054
X042160Y-50734
X042748Y-57575
X042751Y-53117
X043139Y-54164
X043790Y-49485
X043978Y-72784
X044342Y-53595
X044372Y-63635
X044615Y-60118
X045179Y-61311
X045287Y-44556
X045695Y-62502
X045719Y-37488
X045820Y-65188
X045866Y-40158
X046715Y-61253
X046962Y-70722
X048604Y-70269
X048885Y-48379
X051534Y-53081
X051705Y-73849
X053348Y-61257
X055540Y-41218
X056135Y-47007
X056989Y-41251
X056999Y-49749
T11
X034223Y-68869
X037223Y-68869
X040861Y-57645
X043861Y-57645
X054516Y-30582
X057516Y-30582
X047181Y-64227
X047181Y-67227
X034243Y-11797
X034243Y-14797
X035243Y-11797
X035243Y-14797
X036243Y-11797
X036243Y-14797
X037243Y-11797
X037243Y-14797
X053939Y-58868
X053939Y-61868
X032087Y-16063
X033071Y-16063
X035574Y-57591
X038574Y-57591
X051073Y-42317
X051073Y-45317
X029449Y-35711
X029449Y-38711
X047098Y-69555
X047098Y-72555
X041929Y-33455
X041929Y-36455
X029091Y-51051
X029091Y-54051
X047148Y-58848
X047148Y-61848
X029390Y-27953
X030374Y-27953
X023141Y-36837
X023141Y-37837
X023141Y-38837
X023141Y-39837
X023141Y-40837
X023141Y-41837
X023141Y-42837
X023141Y-43837
X026141Y-36837
X026141Y-37837
X026141Y-38837
X026141Y-39837
X026141Y-40837
X026141Y-41837
X026141Y-42837
X026141Y-43837
X051931Y-57706
X054931Y-57706
X038504Y-11768
X038504Y-14768
X039504Y-11768
X039504Y-14768
X040504Y-11768
X040504Y-14768
X041504Y-11768
X041504Y-14768
X024331Y-09134
X024331Y-10134
X024331Y-11134
X024331Y-12134
X024331Y-13134
X024331Y-14134
X024331Y-15134
X024331Y-16134
X027331Y-09134
X027331Y-10134
X027331Y-11134
X027331Y-12134
X027331Y-13134
X027331Y-14134
X027331Y-15134
X027331Y-16134
X023601Y-63220
X026601Y-63220
X028927Y-68829
X031927Y-68829
X048480Y-64239
X048480Y-67239
X054629Y-35907
X057629Y-35907
X035318Y-21974
X035318Y-23943
X044390Y-41813
X044390Y-42813
X044390Y-43813
X044390Y-44813
X044390Y-45813
X044390Y-46813
X044390Y-47813
X044390Y-48813
X047390Y-41813
X047390Y-42813
X047390Y-43813
X047390Y-44813
X047390Y-45813
X047390Y-46813
X047390Y-47813
X047390Y-48813
X028740Y-12047
X028740Y-15047
X032163Y-46528
X032163Y-48497
X044508Y-40217
X047508Y-40217
X054051Y-53451
X054051Y-56451
X034223Y-62117
X037223Y-62117
X039531Y-62141
X042531Y-62141
X027392Y-31093
X030392Y-31093
X028935Y-63317
X031935Y-63317
X030284Y-57515
X033284Y-57515
X034244Y-09134
X037244Y-09134
X042362Y-41329
X042362Y-42313
X033069Y-66762
X033069Y-69762
X056470Y-47621
X056470Y-50621
X031417Y-20315
X031417Y-22283
X036220Y-17236
X036220Y-20236
X049698Y-47602
X049698Y-50602
X054501Y-46480
X057501Y-46480
X050997Y-47613
X050997Y-50613
X039520Y-63441
X042520Y-63441
X051925Y-52309
X054925Y-52309
X035562Y-52098
X038562Y-52098
X053952Y-64227
X053952Y-67227
X051105Y-37080
X051105Y-40080
X030787Y-34459
X031772Y-34459
X038110Y-42347
X038110Y-43347
X038110Y-44347
X038110Y-45347
X038110Y-46347
X038110Y-47347
X038110Y-48347
X038110Y-49347
X041110Y-42347
X041110Y-43347
X041110Y-44347
X041110Y-45347
X041110Y-46347
X041110Y-47347
X041110Y-48347
X041110Y-49347
X039492Y-68952
X042492Y-68952
X032096Y-43671
X032096Y-45640
X047240Y-53431
X047240Y-56431
X034192Y-63417
X037192Y-63417
X048539Y-53463
X048539Y-56463
X031781Y-41427
X031781Y-42411
X023633Y-61940
X026633Y-61940
X038345Y-66920
X038345Y-69920
X048447Y-58860
X048447Y-61860
X034440Y-51067
X034440Y-54067
X027332Y-28429
X027332Y-29414
X048397Y-69586
X048397Y-72586
X040709Y-17236
X040709Y-20236
X030070Y-11797
X030070Y-14797
X031070Y-11797
X031070Y-14797
X032070Y-11797
X032070Y-14797
X033070Y-11797
X033070Y-14797
X040869Y-58964
X043869Y-58964
X018553Y-71459
X018553Y-72459
X049752Y-31704
X049752Y-34704
X036181Y-16063
X037165Y-16063
X030000Y-09134
X033000Y-09134
X034882Y-15898
X034882Y-18898
X040889Y-52133
X043889Y-52133
X034252Y-10472
X037252Y-10472
X030177Y-29026
X030177Y-30010
X042756Y-43179
X042756Y-45148
X053870Y-69574
X053870Y-72574
X028583Y-08937
X028583Y-09921
X037677Y-29833
X037677Y-30833
X037677Y-31833
X037677Y-32833
X037677Y-33833
X037677Y-34833
X037677Y-35833
X037677Y-36833
X040677Y-29833
X040677Y-30833
X040677Y-31833
X040677Y-32833
X040677Y-33833
X040677Y-34833
X040677Y-35833
X040677Y-36833
X035709Y-28071
X035709Y-29055
X023159Y-28429
X023159Y-29429
X023159Y-30429
X023159Y-31429
X023159Y-32429
X023159Y-33429
X023159Y-34429
X023159Y-35429
X026159Y-28429
X026159Y-29429
X026159Y-30429
X026159Y-31429
X026159Y-32429
X026159Y-33429
X026159Y-34429
X026159Y-35429
X030273Y-52004
X033273Y-52004
X043654Y-66866
X043654Y-69866
X033150Y-17157
X033150Y-20157
X024926Y-57430
X027926Y-57430
X035059Y-35112
X035059Y-36112
X035059Y-37112
X038575Y-09134
X041575Y-09134
X035562Y-58909
X038562Y-58909
X049774Y-42325
X049774Y-45325
X029429Y-32766
X031398Y-32766
X023613Y-68672
X026613Y-68672
X039728Y-51141
X039728Y-54141
X056545Y-42285
X056545Y-45285
X054695Y-41222
X057695Y-41222
X025504Y-19197
X025504Y-20197
X025504Y-21197
X025504Y-22197
X025504Y-23197
X025504Y-24197
X025504Y-25197
X028504Y-19197
X028504Y-20197
X028504Y-21197
X028504Y-22197
X028504Y-23197
X028504Y-24197
X028504Y-25197
X040376Y-40226
X043376Y-40226
X027393Y-36758
X027393Y-37742
X029843Y-24291
X029843Y-25276
X023792Y-51004
X023792Y-54004
X056504Y-31724
X056504Y-34724
X051866Y-63006
X054866Y-63006
X036417Y-34695
X036417Y-37695
X051862Y-68374
X054862Y-68374
X043138Y-48813
X043138Y-49797
X029764Y-20197
X029764Y-21181
X031437Y-28091
X031437Y-29091
X031437Y-30091
X031437Y-31091
X034437Y-28091
X034437Y-29091
X034437Y-30091
X034437Y-31091
X028947Y-62018
X031947Y-62018
X036417Y-30581
X036417Y-33581
X033821Y-42380
X033821Y-43380
X033821Y-44380
X033821Y-45380
X033821Y-46380
X033821Y-47380
X033821Y-48380
X033821Y-49380
X036821Y-42380
X036821Y-43380
X036821Y-44380
X036821Y-45380
X036821Y-46380
X036821Y-47380
X036821Y-48380
X036821Y-49380
X038583Y-10394
X041583Y-10394
X049845Y-37068
X049845Y-40068
X027735Y-66704
X027735Y-69704
X027451Y-42411
X027451Y-43411
X027451Y-44411
X027451Y-45411
X027451Y-46411
X027451Y-47411
X027451Y-48411
X027451Y-49411
X030451Y-42411
X030451Y-43411
X030451Y-44411
X030451Y-45411
X030451Y-46411
X030451Y-47411
X030451Y-48411
X030451Y-49411
X056558Y-37068
X056558Y-40068
X042746Y-45984
X042746Y-47953
X030787Y-35711
X030787Y-38711
X031787Y-35711
X031787Y-38711
X032787Y-35711
X032787Y-38711
X033787Y-35711
X033787Y-38711
X030000Y-10472
X033000Y-10472
X032539Y-49400
X032539Y-50384
X041929Y-28848
X041929Y-29833
X051032Y-31716
X051032Y-34716
X042323Y-30620
X042323Y-32589
X024934Y-58729
X027934Y-58729
X040512Y-16063
X041496Y-16063
X039370Y-15819
X039370Y-18819
X024895Y-51957
X027895Y-51957
X030273Y-58815
X033273Y-58815
T12
X042070Y-65218
X042070Y-66218
X042070Y-67218
X020398Y-53689
X020398Y-54780
X020398Y-55870
X020398Y-56961
X020398Y-58051
X020398Y-59142
X020398Y-60232
X020398Y-61323
X020398Y-62413
X020398Y-63504
X020398Y-64594
X020398Y-65685
X021516Y-53144
X021516Y-54234
X021516Y-55325
X021516Y-56415
X021516Y-57506
X021516Y-58596
X021516Y-59687
X021516Y-60778
X021516Y-61868
X021516Y-62959
X021516Y-64049
X021516Y-65140
X021516Y-66230
X050131Y-70008
X051131Y-70008
X052131Y-70008
X050289Y-53893
X051289Y-53893
X052289Y-53893
X026187Y-64946
X026187Y-65946
X026187Y-66946
X025328Y-53689
X025328Y-54689
X025328Y-55689
X052755Y-48055
X053755Y-48055
X054755Y-48055
X041307Y-53880
X041307Y-54880
X041307Y-55880
X052799Y-42739
X053799Y-42739
X054799Y-42739
X052828Y-37494
X053828Y-37494
X054828Y-37494
X036813Y-65139
X036813Y-66139
X036813Y-67139
X030687Y-53765
X030687Y-54765
X030687Y-55765
X050189Y-59286
X051189Y-59286
X052189Y-59286
X031493Y-65071
X031493Y-66071
X031493Y-67071
X050226Y-64661
X051226Y-64661
X052226Y-64661
X052766Y-32146
X053766Y-32146
X054766Y-32146
X035984Y-53844
X035984Y-54844
X035984Y-55844
T13
X024643Y-07624
X025643Y-07624
X026643Y-07624
X027643Y-07624
X028643Y-07624
X029643Y-07624
X030643Y-07624
X031643Y-07624
X032643Y-07624
X033643Y-07624
X035243Y-07624
X036243Y-07624
X037243Y-07624
X038243Y-07624
X039243Y-07624
X040243Y-07624
X041243Y-07624
X042243Y-07624
X037243Y-26624
X038243Y-26624
X039243Y-26624
X040243Y-26624
X041243Y-26624
X042243Y-26624
X028243Y-26624
X029243Y-26624
X030243Y-26624
X031243Y-26624
X032243Y-26624
X033243Y-26624
X034243Y-26624
X035243Y-26624
T14
X049837Y-35946
X052837Y-35946
X034420Y-55898
X034420Y-58898
X033069Y-62010
X033069Y-65010
X023871Y-55737
X023871Y-58737
X047140Y-57706
X050140Y-57706
X047167Y-52326
X050167Y-52326
X049743Y-30599
X052743Y-30599
X039740Y-55982
X039740Y-58982
X043654Y-62114
X043654Y-65114
X029111Y-55803
X029111Y-58803
X047104Y-63035
X050104Y-63035
X047088Y-68402
X050088Y-68402
X027774Y-61913
X027774Y-64913
X049844Y-41222
X052844Y-41222
X049690Y-46480
X052690Y-46480
X038365Y-62109
X038365Y-65109
T15
X033169Y-40207
X037224Y-28012
X031535Y-40187
X032972Y-33140
X034862Y-33593
T16
X020531Y-72441
X029193Y-72441
T17
X043243Y-24624
X022743Y-26624
X043243Y-13624
X023243Y-07624
T18
X020957Y-50415
X020957Y-68959
M30

