G04 This is an RS-274x file exported by *
G04 gerbv version 2.6.0 *
G04 More information is available about gerbv at *
G04 http://gerbv.gpleda.org/ *
G04 --End of header info--*
%MOIN*%
%FSLAX34Y34*%
%IPPOS*%
G04 --Define apertures--*
%ADD10C,0.0059*%
%ADD11O,0.0680X0.0800*%
%ADD12R,0.0630X0.0630*%
%ADD13O,0.0630X0.0630*%
%ADD14C,0.0630*%
%ADD15C,0.1378*%
%ADD16C,0.1600*%
%ADD17O,0.1575X0.0984*%
%ADD18R,0.0787X0.0591*%
%ADD19R,0.0787X0.1496*%
%ADD20C,0.1575*%
%ADD21O,0.0866X0.0866*%
%ADD22R,0.0866X0.0866*%
%ADD23R,0.0709X0.0709*%
%ADD24O,0.0709X0.0709*%
%ADD25R,0.0354X0.0472*%
%ADD26R,0.0472X0.0354*%
%ADD27C,0.0591*%
G04 --Start main section--*
G54D10*
G01X0021423Y-048425D02*
G75*
G03X0021423Y-048425I-000557J0000000D01*
G01X0047801Y-029921D02*
G75*
G03X0047801Y-029921I-000557J0000000D01*
G01X0057643Y-072835D02*
G75*
G03X0057643Y-072835I-000557J0000000D01*
G01X0059055Y-028268D02*
G01X0059055Y-074882D01*
G01X0044331Y-028268D02*
G01X0059055Y-028268D01*
G01X0017323Y-074882D02*
G01X0017323Y-006614D01*
G01X0044331Y-028268D02*
G01X0044331Y-006614D01*
G01X0044331Y-006614D02*
G01X0017323Y-006614D01*
G01X0017323Y-074882D02*
G01X0059055Y-074882D01*
G54D11*
G01X0035243Y-007624D03*
G01X0036243Y-007624D03*
G01X0037243Y-007624D03*
G01X0038243Y-007624D03*
G01X0039243Y-007624D03*
G01X0040243Y-007624D03*
G01X0041243Y-007624D03*
G01X0042243Y-007624D03*
G54D12*
G01X0024331Y-009134D03*
G54D13*
G01X0027331Y-016134D03*
G01X0024331Y-010134D03*
G01X0027331Y-015134D03*
G01X0024331Y-011134D03*
G01X0027331Y-014134D03*
G01X0024331Y-012134D03*
G01X0027331Y-013134D03*
G01X0024331Y-013134D03*
G01X0027331Y-012134D03*
G01X0024331Y-014134D03*
G01X0027331Y-011134D03*
G01X0024331Y-015134D03*
G01X0027331Y-010134D03*
G01X0024331Y-016134D03*
G01X0027331Y-009134D03*
G54D12*
G01X0042756Y-043179D03*
G54D14*
G01X0042756Y-045148D03*
G54D12*
G01X0047390Y-048813D03*
G54D13*
G01X0044390Y-041813D03*
G01X0047390Y-047813D03*
G01X0044390Y-042813D03*
G01X0047390Y-046813D03*
G01X0044390Y-043813D03*
G01X0047390Y-045813D03*
G01X0044390Y-044813D03*
G01X0047390Y-044813D03*
G01X0044390Y-045813D03*
G01X0047390Y-043813D03*
G01X0044390Y-046813D03*
G01X0047390Y-042813D03*
G01X0044390Y-047813D03*
G01X0047390Y-041813D03*
G01X0044390Y-048813D03*
G54D15*
G01X0034862Y-033593D03*
G54D14*
G01X0032096Y-045640D03*
G54D12*
G01X0032096Y-043671D03*
G01X0037243Y-011797D03*
G54D13*
G01X0034243Y-014797D03*
G01X0036243Y-011797D03*
G01X0035243Y-014797D03*
G01X0035243Y-011797D03*
G01X0036243Y-014797D03*
G01X0034243Y-011797D03*
G01X0037243Y-014797D03*
G54D14*
G01X0036181Y-016063D03*
G01X0037165Y-016063D03*
G54D11*
G01X0028243Y-026624D03*
G01X0029243Y-026624D03*
G01X0030243Y-026624D03*
G01X0031243Y-026624D03*
G01X0032243Y-026624D03*
G01X0033243Y-026624D03*
G01X0034243Y-026624D03*
G01X0035243Y-026624D03*
G01X0037243Y-026624D03*
G01X0038243Y-026624D03*
G01X0039243Y-026624D03*
G01X0040243Y-026624D03*
G01X0041243Y-026624D03*
G01X0042243Y-026624D03*
G01X0024643Y-007624D03*
G01X0025643Y-007624D03*
G01X0026643Y-007624D03*
G01X0027643Y-007624D03*
G01X0028643Y-007624D03*
G01X0029643Y-007624D03*
G01X0030643Y-007624D03*
G01X0031643Y-007624D03*
G01X0032643Y-007624D03*
G01X0033643Y-007624D03*
G54D16*
G01X0022743Y-026624D03*
G01X0043243Y-024624D03*
G01X0023243Y-007624D03*
G01X0043243Y-013624D03*
G54D17*
G01X0029193Y-072441D03*
G01X0020531Y-072441D03*
G54D14*
G01X0031417Y-022283D03*
G01X0031417Y-020315D03*
G01X0029843Y-024291D03*
G01X0029843Y-025276D03*
G01X0029764Y-021181D03*
G01X0029764Y-020197D03*
G01X0035318Y-021974D03*
G01X0035318Y-023943D03*
G54D13*
G01X0025504Y-025197D03*
G01X0028504Y-019197D03*
G01X0025504Y-024197D03*
G01X0028504Y-020197D03*
G01X0025504Y-023197D03*
G01X0028504Y-021197D03*
G01X0025504Y-022197D03*
G01X0028504Y-022197D03*
G01X0025504Y-021197D03*
G01X0028504Y-023197D03*
G01X0025504Y-020197D03*
G01X0028504Y-024197D03*
G01X0025504Y-019197D03*
G54D12*
G01X0028504Y-025197D03*
G54D18*
G01X0036949Y-022559D03*
G01X0036949Y-024370D03*
G01X0036949Y-023465D03*
G54D19*
G01X0039429Y-023465D03*
G54D14*
G01X0041496Y-016063D03*
G01X0040512Y-016063D03*
G01X0032087Y-016063D03*
G01X0033071Y-016063D03*
G54D13*
G01X0026159Y-028429D03*
G01X0023159Y-035429D03*
G01X0026159Y-029429D03*
G01X0023159Y-034429D03*
G01X0026159Y-030429D03*
G01X0023159Y-033429D03*
G01X0026159Y-031429D03*
G01X0023159Y-032429D03*
G01X0026159Y-032429D03*
G01X0023159Y-031429D03*
G01X0026159Y-033429D03*
G01X0023159Y-030429D03*
G01X0026159Y-034429D03*
G01X0023159Y-029429D03*
G01X0026159Y-035429D03*
G54D12*
G01X0023159Y-028429D03*
G01X0023141Y-036837D03*
G54D13*
G01X0026141Y-043837D03*
G01X0023141Y-037837D03*
G01X0026141Y-042837D03*
G01X0023141Y-038837D03*
G01X0026141Y-041837D03*
G01X0023141Y-039837D03*
G01X0026141Y-040837D03*
G01X0023141Y-040837D03*
G01X0026141Y-039837D03*
G01X0023141Y-041837D03*
G01X0026141Y-038837D03*
G01X0023141Y-042837D03*
G01X0026141Y-037837D03*
G01X0023141Y-043837D03*
G01X0026141Y-036837D03*
G54D12*
G01X0041504Y-011768D03*
G54D13*
G01X0038504Y-014768D03*
G01X0040504Y-011768D03*
G01X0039504Y-014768D03*
G01X0039504Y-011768D03*
G01X0040504Y-014768D03*
G01X0038504Y-011768D03*
G01X0041504Y-014768D03*
G54D12*
G01X0033070Y-011797D03*
G54D13*
G01X0030070Y-014797D03*
G01X0032070Y-011797D03*
G01X0031070Y-014797D03*
G01X0031070Y-011797D03*
G01X0032070Y-014797D03*
G01X0030070Y-011797D03*
G01X0033070Y-014797D03*
G54D20*
G01X0020957Y-068959D03*
G01X0020957Y-050415D03*
G54D14*
G01X0020398Y-053689D03*
G01X0020398Y-054780D03*
G01X0020398Y-055870D03*
G01X0020398Y-056961D03*
G01X0020398Y-058051D03*
G01X0020398Y-059142D03*
G01X0020398Y-060232D03*
G01X0020398Y-061323D03*
G01X0020398Y-062413D03*
G01X0020398Y-063504D03*
G01X0020398Y-064594D03*
G01X0020398Y-065685D03*
G01X0021516Y-053144D03*
G01X0021516Y-054234D03*
G01X0021516Y-055325D03*
G01X0021516Y-056415D03*
G01X0021516Y-057506D03*
G01X0021516Y-058596D03*
G01X0021516Y-059687D03*
G01X0021516Y-060778D03*
G01X0021516Y-061868D03*
G01X0021516Y-062959D03*
G01X0021516Y-064049D03*
G01X0021516Y-065140D03*
G54D12*
G01X0021516Y-066230D03*
G54D14*
G01X0041929Y-028848D03*
G01X0041929Y-029833D03*
G01X0042323Y-032589D03*
G54D12*
G01X0042323Y-030620D03*
G54D14*
G01X0043138Y-048813D03*
G01X0043138Y-049797D03*
G01X0032539Y-049400D03*
G01X0032539Y-050384D03*
G01X0042362Y-041329D03*
G01X0042362Y-042313D03*
G01X0031781Y-041427D03*
G01X0031781Y-042411D03*
G54D12*
G01X0042746Y-047953D03*
G54D14*
G01X0042746Y-045984D03*
G01X0032163Y-046528D03*
G54D12*
G01X0032163Y-048497D03*
G54D14*
G01X0030787Y-034459D03*
G01X0031772Y-034459D03*
G54D12*
G01X0031398Y-032766D03*
G54D14*
G01X0029429Y-032766D03*
G01X0030177Y-030010D03*
G01X0030177Y-029026D03*
G01X0030374Y-027953D03*
G01X0029390Y-027953D03*
G01X0035709Y-029055D03*
G01X0035709Y-028071D03*
G01X0027332Y-028429D03*
G01X0027332Y-029414D03*
G01X0027393Y-037742D03*
G01X0027393Y-036758D03*
G01X0028583Y-009921D03*
G01X0028583Y-008937D03*
G54D21*
G01X0029111Y-058803D03*
G54D22*
G01X0029111Y-055803D03*
G01X0039740Y-055982D03*
G54D21*
G01X0039740Y-058982D03*
G01X0038365Y-062109D03*
G54D22*
G01X0038365Y-065109D03*
G54D21*
G01X0027774Y-061913D03*
G54D22*
G01X0027774Y-064913D03*
G54D21*
G01X0047140Y-057706D03*
G54D22*
G01X0050140Y-057706D03*
G01X0052690Y-046480D03*
G54D21*
G01X0049690Y-046480D03*
G01X0034420Y-058898D03*
G54D22*
G01X0034420Y-055898D03*
G54D21*
G01X0043654Y-062114D03*
G54D22*
G01X0043654Y-065114D03*
G01X0033069Y-065010D03*
G54D21*
G01X0033069Y-062010D03*
G54D22*
G01X0050167Y-052326D03*
G54D21*
G01X0047167Y-052326D03*
G54D22*
G01X0050104Y-063035D03*
G54D21*
G01X0047104Y-063035D03*
G01X0049743Y-030599D03*
G54D22*
G01X0052743Y-030599D03*
G01X0052844Y-041222D03*
G54D21*
G01X0049844Y-041222D03*
G54D22*
G01X0023871Y-055737D03*
G54D21*
G01X0023871Y-058737D03*
G54D22*
G01X0052837Y-035946D03*
G54D21*
G01X0049837Y-035946D03*
G54D22*
G01X0050088Y-068402D03*
G54D21*
G01X0047088Y-068402D03*
G54D23*
G01X0030687Y-053765D03*
G54D24*
G01X0030687Y-054765D03*
G01X0030687Y-055765D03*
G01X0041307Y-055880D03*
G01X0041307Y-054880D03*
G54D23*
G01X0041307Y-053880D03*
G01X0036813Y-067139D03*
G54D24*
G01X0036813Y-066139D03*
G01X0036813Y-065139D03*
G01X0026187Y-064946D03*
G01X0026187Y-065946D03*
G54D23*
G01X0026187Y-066946D03*
G54D24*
G01X0050189Y-059286D03*
G01X0051189Y-059286D03*
G54D23*
G01X0052189Y-059286D03*
G54D24*
G01X0052755Y-048055D03*
G01X0053755Y-048055D03*
G54D23*
G01X0054755Y-048055D03*
G01X0035984Y-053844D03*
G54D24*
G01X0035984Y-054844D03*
G01X0035984Y-055844D03*
G01X0042070Y-065218D03*
G01X0042070Y-066218D03*
G54D23*
G01X0042070Y-067218D03*
G01X0031493Y-067071D03*
G54D24*
G01X0031493Y-066071D03*
G01X0031493Y-065071D03*
G54D23*
G01X0052289Y-053893D03*
G54D24*
G01X0051289Y-053893D03*
G01X0050289Y-053893D03*
G54D23*
G01X0052226Y-064661D03*
G54D24*
G01X0051226Y-064661D03*
G01X0050226Y-064661D03*
G01X0052766Y-032146D03*
G01X0053766Y-032146D03*
G54D23*
G01X0054766Y-032146D03*
G54D24*
G01X0052799Y-042739D03*
G01X0053799Y-042739D03*
G54D23*
G01X0054799Y-042739D03*
G01X0025328Y-053689D03*
G54D24*
G01X0025328Y-054689D03*
G01X0025328Y-055689D03*
G01X0052828Y-037494D03*
G01X0053828Y-037494D03*
G54D23*
G01X0054828Y-037494D03*
G54D24*
G01X0050131Y-070008D03*
G01X0051131Y-070008D03*
G54D23*
G01X0052131Y-070008D03*
G54D14*
G01X0036417Y-034695D03*
G54D13*
G01X0036417Y-037695D03*
G01X0041929Y-036455D03*
G54D14*
G01X0041929Y-033455D03*
G01X0036417Y-030581D03*
G54D13*
G01X0036417Y-033581D03*
G54D14*
G01X0044508Y-040217D03*
G54D13*
G01X0047508Y-040217D03*
G01X0040376Y-040226D03*
G54D14*
G01X0043376Y-040226D03*
G01X0029449Y-038711D03*
G54D13*
G01X0029449Y-035711D03*
G54D14*
G01X0027392Y-031093D03*
G54D13*
G01X0030392Y-031093D03*
G54D14*
G01X0029091Y-054051D03*
G54D13*
G01X0029091Y-051051D03*
G01X0033273Y-052004D03*
G54D14*
G01X0030273Y-052004D03*
G01X0030273Y-058815D03*
G54D13*
G01X0033273Y-058815D03*
G01X0030284Y-057515D03*
G54D14*
G01X0033284Y-057515D03*
G54D13*
G01X0039728Y-051141D03*
G54D14*
G01X0039728Y-054141D03*
G54D13*
G01X0043889Y-052133D03*
G54D14*
G01X0040889Y-052133D03*
G54D13*
G01X0043869Y-058964D03*
G54D14*
G01X0040869Y-058964D03*
G01X0043861Y-057645D03*
G54D13*
G01X0040861Y-057645D03*
G54D14*
G01X0038345Y-066920D03*
G54D13*
G01X0038345Y-069920D03*
G01X0034223Y-068869D03*
G54D14*
G01X0037223Y-068869D03*
G01X0037223Y-062117D03*
G54D13*
G01X0034223Y-062117D03*
G01X0037192Y-063417D03*
G54D14*
G01X0034192Y-063417D03*
G54D13*
G01X0027735Y-069704D03*
G54D14*
G01X0027735Y-066704D03*
G01X0026613Y-068672D03*
G54D13*
G01X0023613Y-068672D03*
G54D14*
G01X0026633Y-061940D03*
G54D13*
G01X0023633Y-061940D03*
G01X0026601Y-063220D03*
G54D14*
G01X0023601Y-063220D03*
G01X0051931Y-057706D03*
G54D13*
G01X0054931Y-057706D03*
G01X0053939Y-061868D03*
G54D14*
G01X0053939Y-058868D03*
G01X0047148Y-058848D03*
G54D13*
G01X0047148Y-061848D03*
G54D14*
G01X0048447Y-061860D03*
G54D13*
G01X0048447Y-058860D03*
G01X0057501Y-046480D03*
G54D14*
G01X0054501Y-046480D03*
G01X0056470Y-047621D03*
G54D13*
G01X0056470Y-050621D03*
G54D14*
G01X0049698Y-047602D03*
G54D13*
G01X0049698Y-050602D03*
G01X0050997Y-047613D03*
G54D14*
G01X0050997Y-050613D03*
G54D13*
G01X0034440Y-051067D03*
G54D14*
G01X0034440Y-054067D03*
G01X0035562Y-052098D03*
G54D13*
G01X0038562Y-052098D03*
G54D14*
G01X0035562Y-058909D03*
G54D13*
G01X0038562Y-058909D03*
G01X0035574Y-057591D03*
G54D14*
G01X0038574Y-057591D03*
G54D13*
G01X0043654Y-069866D03*
G54D14*
G01X0043654Y-066866D03*
G01X0042492Y-068952D03*
G54D13*
G01X0039492Y-068952D03*
G54D14*
G01X0042531Y-062141D03*
G54D13*
G01X0039531Y-062141D03*
G54D14*
G01X0039520Y-063441D03*
G54D13*
G01X0042520Y-063441D03*
G01X0033069Y-069762D03*
G54D14*
G01X0033069Y-066762D03*
G01X0031927Y-068829D03*
G54D13*
G01X0028927Y-068829D03*
G01X0028947Y-062018D03*
G54D14*
G01X0031947Y-062018D03*
G01X0028935Y-063317D03*
G54D13*
G01X0031935Y-063317D03*
G01X0054925Y-052309D03*
G54D14*
G01X0051925Y-052309D03*
G01X0054051Y-053451D03*
G54D13*
G01X0054051Y-056451D03*
G01X0047240Y-056431D03*
G54D14*
G01X0047240Y-053431D03*
G54D13*
G01X0048539Y-053463D03*
G54D14*
G01X0048539Y-056463D03*
G01X0051866Y-063006D03*
G54D13*
G01X0054866Y-063006D03*
G54D14*
G01X0053952Y-064227D03*
G54D13*
G01X0053952Y-067227D03*
G54D14*
G01X0047181Y-064227D03*
G54D13*
G01X0047181Y-067227D03*
G01X0048480Y-064239D03*
G54D14*
G01X0048480Y-067239D03*
G54D13*
G01X0057516Y-030582D03*
G54D14*
G01X0054516Y-030582D03*
G01X0056504Y-031724D03*
G54D13*
G01X0056504Y-034724D03*
G54D14*
G01X0049752Y-031704D03*
G54D13*
G01X0049752Y-034704D03*
G01X0051032Y-031716D03*
G54D14*
G01X0051032Y-034716D03*
G01X0054695Y-041222D03*
G54D13*
G01X0057695Y-041222D03*
G01X0056545Y-045285D03*
G54D14*
G01X0056545Y-042285D03*
G54D13*
G01X0049774Y-045325D03*
G54D14*
G01X0049774Y-042325D03*
G01X0051073Y-045317D03*
G54D13*
G01X0051073Y-042317D03*
G54D14*
G01X0023792Y-054004D03*
G54D13*
G01X0023792Y-051004D03*
G01X0027895Y-051957D03*
G54D14*
G01X0024895Y-051957D03*
G01X0024934Y-058729D03*
G54D13*
G01X0027934Y-058729D03*
G01X0024926Y-057430D03*
G54D14*
G01X0027926Y-057430D03*
G54D13*
G01X0057629Y-035907D03*
G54D14*
G01X0054629Y-035907D03*
G01X0056558Y-037068D03*
G54D13*
G01X0056558Y-040068D03*
G54D14*
G01X0049845Y-037068D03*
G54D13*
G01X0049845Y-040068D03*
G01X0051105Y-037080D03*
G54D14*
G01X0051105Y-040080D03*
G01X0051862Y-068374D03*
G54D13*
G01X0054862Y-068374D03*
G01X0053870Y-072574D03*
G54D14*
G01X0053870Y-069574D03*
G54D13*
G01X0047098Y-072555D03*
G54D14*
G01X0047098Y-069555D03*
G01X0048397Y-072586D03*
G54D13*
G01X0048397Y-069586D03*
G01X0038575Y-009134D03*
G54D14*
G01X0041575Y-009134D03*
G01X0038583Y-010394D03*
G54D13*
G01X0041583Y-010394D03*
G54D14*
G01X0040709Y-020236D03*
G54D13*
G01X0040709Y-017236D03*
G01X0039370Y-015819D03*
G54D14*
G01X0039370Y-018819D03*
G54D13*
G01X0034244Y-009134D03*
G54D14*
G01X0037244Y-009134D03*
G01X0034252Y-010472D03*
G54D13*
G01X0037252Y-010472D03*
G54D14*
G01X0036220Y-020236D03*
G54D13*
G01X0036220Y-017236D03*
G01X0034882Y-015898D03*
G54D14*
G01X0034882Y-018898D03*
G54D13*
G01X0033000Y-009134D03*
G54D14*
G01X0030000Y-009134D03*
G01X0030000Y-010472D03*
G54D13*
G01X0033000Y-010472D03*
G54D14*
G01X0033150Y-020157D03*
G54D13*
G01X0033150Y-017157D03*
G01X0028740Y-015047D03*
G54D14*
G01X0028740Y-012047D03*
G54D13*
G01X0040677Y-029833D03*
G01X0037677Y-036833D03*
G01X0040677Y-030833D03*
G01X0037677Y-035833D03*
G01X0040677Y-031833D03*
G01X0037677Y-034833D03*
G01X0040677Y-032833D03*
G01X0037677Y-033833D03*
G01X0040677Y-033833D03*
G01X0037677Y-032833D03*
G01X0040677Y-034833D03*
G01X0037677Y-031833D03*
G01X0040677Y-035833D03*
G01X0037677Y-030833D03*
G01X0040677Y-036833D03*
G54D12*
G01X0037677Y-029833D03*
G54D13*
G01X0030451Y-042411D03*
G01X0027451Y-049411D03*
G01X0030451Y-043411D03*
G01X0027451Y-048411D03*
G01X0030451Y-044411D03*
G01X0027451Y-047411D03*
G01X0030451Y-045411D03*
G01X0027451Y-046411D03*
G01X0030451Y-046411D03*
G01X0027451Y-045411D03*
G01X0030451Y-047411D03*
G01X0027451Y-044411D03*
G01X0030451Y-048411D03*
G01X0027451Y-043411D03*
G01X0030451Y-049411D03*
G54D12*
G01X0027451Y-042411D03*
G54D13*
G01X0033821Y-049380D03*
G01X0036821Y-042380D03*
G01X0033821Y-048380D03*
G01X0036821Y-043380D03*
G01X0033821Y-047380D03*
G01X0036821Y-044380D03*
G01X0033821Y-046380D03*
G01X0036821Y-045380D03*
G01X0033821Y-045380D03*
G01X0036821Y-046380D03*
G01X0033821Y-044380D03*
G01X0036821Y-047380D03*
G01X0033821Y-043380D03*
G01X0036821Y-048380D03*
G01X0033821Y-042380D03*
G54D12*
G01X0036821Y-049380D03*
G01X0038110Y-042347D03*
G54D13*
G01X0041110Y-049347D03*
G01X0038110Y-043347D03*
G01X0041110Y-048347D03*
G01X0038110Y-044347D03*
G01X0041110Y-047347D03*
G01X0038110Y-045347D03*
G01X0041110Y-046347D03*
G01X0038110Y-046347D03*
G01X0041110Y-045347D03*
G01X0038110Y-047347D03*
G01X0041110Y-044347D03*
G01X0038110Y-048347D03*
G01X0041110Y-043347D03*
G01X0038110Y-049347D03*
G01X0041110Y-042347D03*
G54D12*
G01X0030787Y-038711D03*
G54D13*
G01X0033787Y-035711D03*
G01X0031787Y-038711D03*
G01X0032787Y-035711D03*
G01X0032787Y-038711D03*
G01X0031787Y-035711D03*
G01X0033787Y-038711D03*
G01X0030787Y-035711D03*
G01X0034437Y-028091D03*
G01X0031437Y-031091D03*
G01X0034437Y-029091D03*
G01X0031437Y-030091D03*
G01X0034437Y-030091D03*
G01X0031437Y-029091D03*
G01X0034437Y-031091D03*
G54D12*
G01X0031437Y-028091D03*
G54D25*
G01X0033383Y-059937D03*
G01X0032084Y-059937D03*
G01X0042680Y-060086D03*
G01X0043980Y-060086D03*
G01X0035392Y-061035D03*
G01X0034093Y-061035D03*
G01X0023503Y-060818D03*
G01X0024802Y-060818D03*
G54D26*
G01X0046045Y-060659D03*
G01X0046045Y-061958D03*
G01X0048596Y-049452D03*
G01X0048596Y-050751D03*
G54D25*
G01X0037393Y-060012D03*
G01X0038692Y-060012D03*
G01X0040701Y-061039D03*
G01X0039402Y-061039D03*
G01X0028817Y-060915D03*
G01X0030116Y-060915D03*
G54D26*
G01X0046137Y-056541D03*
G01X0046137Y-055242D03*
G01X0046078Y-067357D03*
G01X0046078Y-066057D03*
G01X0048650Y-034834D03*
G01X0048650Y-033535D03*
G01X0048632Y-045376D03*
G01X0048632Y-044077D03*
G54D25*
G01X0026765Y-059831D03*
G01X0028064Y-059831D03*
G54D26*
G01X0048743Y-040198D03*
G01X0048743Y-038899D03*
G01X0045996Y-071385D03*
G01X0045996Y-072685D03*
G54D15*
G01X0031535Y-040187D03*
G01X0033169Y-040207D03*
G01X0032972Y-033140D03*
G01X0037224Y-028012D03*
G54D27*
G01X0035059Y-037112D03*
G01X0035059Y-036112D03*
G01X0035059Y-035112D03*
G01X0018553Y-071459D03*
G01X0018553Y-072459D03*
M02*
