G04 #@! TF.GenerationSoftware,KiCad,Pcbnew,(2017-12-12 revision 8e764f8)-master*
G04 #@! TF.CreationDate,2017-12-14T15:12:02-08:00*
G04 #@! TF.ProjectId,floor_pcb,666C6F6F725F7063622E6B696361645F,rev?*
G04 #@! TF.SameCoordinates,Original*
G04 #@! TF.FileFunction,Copper,L1,Top,Signal*
G04 #@! TF.FilePolarity,Positive*
%FSLAX46Y46*%
G04 Gerber Fmt 4.6, Leading zero omitted, Abs format (unit mm)*
G04 Created by KiCad (PCBNEW (2017-12-12 revision 8e764f8)-master) date Thu Dec 14 15:12:02 2017*
%MOMM*%
%LPD*%
G01*
G04 APERTURE LIST*
%ADD10C,0.100000*%
%ADD11C,0.300000*%
%ADD12C,0.001000*%
%ADD13C,1.524000*%
%ADD14C,4.000000*%
%ADD15C,1.600000*%
%ADD16R,1.600000X1.600000*%
%ADD17C,1.500000*%
%ADD18C,0.000001*%
%ADD19C,0.800000*%
%ADD20C,0.250000*%
%ADD21C,0.400000*%
G04 APERTURE END LIST*
D10*
X114115714Y-11451428D02*
X114115714Y-11937142D01*
X114087142Y-11994285D01*
X114058571Y-12022857D01*
X114001428Y-12051428D01*
X113915714Y-12051428D01*
X113858571Y-12022857D01*
X114115714Y-11822857D02*
X114058571Y-11851428D01*
X113944285Y-11851428D01*
X113887142Y-11822857D01*
X113858571Y-11794285D01*
X113830000Y-11737142D01*
X113830000Y-11565714D01*
X113858571Y-11508571D01*
X113887142Y-11480000D01*
X113944285Y-11451428D01*
X114058571Y-11451428D01*
X114115714Y-11480000D01*
X114401428Y-11851428D02*
X114401428Y-11451428D01*
X114401428Y-11251428D02*
X114372857Y-11280000D01*
X114401428Y-11308571D01*
X114430000Y-11280000D01*
X114401428Y-11251428D01*
X114401428Y-11308571D01*
X114601428Y-11451428D02*
X114830000Y-11451428D01*
X114687142Y-11251428D02*
X114687142Y-11765714D01*
X114715714Y-11822857D01*
X114772857Y-11851428D01*
X114830000Y-11851428D01*
X115030000Y-11851428D02*
X115030000Y-11251428D01*
X115287142Y-11851428D02*
X115287142Y-11537142D01*
X115258571Y-11480000D01*
X115201428Y-11451428D01*
X115115714Y-11451428D01*
X115058571Y-11480000D01*
X115030000Y-11508571D01*
X115830000Y-11451428D02*
X115830000Y-11851428D01*
X115572857Y-11451428D02*
X115572857Y-11765714D01*
X115601428Y-11822857D01*
X115658571Y-11851428D01*
X115744285Y-11851428D01*
X115801428Y-11822857D01*
X115830000Y-11794285D01*
X116115714Y-11851428D02*
X116115714Y-11251428D01*
X116115714Y-11480000D02*
X116172857Y-11451428D01*
X116287142Y-11451428D01*
X116344285Y-11480000D01*
X116372857Y-11508571D01*
X116401428Y-11565714D01*
X116401428Y-11737142D01*
X116372857Y-11794285D01*
X116344285Y-11822857D01*
X116287142Y-11851428D01*
X116172857Y-11851428D01*
X116115714Y-11822857D01*
X116658571Y-11794285D02*
X116687142Y-11822857D01*
X116658571Y-11851428D01*
X116630000Y-11822857D01*
X116658571Y-11794285D01*
X116658571Y-11851428D01*
X117201428Y-11822857D02*
X117144285Y-11851428D01*
X117030000Y-11851428D01*
X116972857Y-11822857D01*
X116944285Y-11794285D01*
X116915714Y-11737142D01*
X116915714Y-11565714D01*
X116944285Y-11508571D01*
X116972857Y-11480000D01*
X117030000Y-11451428D01*
X117144285Y-11451428D01*
X117201428Y-11480000D01*
X117544285Y-11851428D02*
X117487142Y-11822857D01*
X117458571Y-11794285D01*
X117430000Y-11737142D01*
X117430000Y-11565714D01*
X117458571Y-11508571D01*
X117487142Y-11480000D01*
X117544285Y-11451428D01*
X117630000Y-11451428D01*
X117687142Y-11480000D01*
X117715714Y-11508571D01*
X117744285Y-11565714D01*
X117744285Y-11737142D01*
X117715714Y-11794285D01*
X117687142Y-11822857D01*
X117630000Y-11851428D01*
X117544285Y-11851428D01*
X118001428Y-11851428D02*
X118001428Y-11451428D01*
X118001428Y-11508571D02*
X118030000Y-11480000D01*
X118087142Y-11451428D01*
X118172857Y-11451428D01*
X118230000Y-11480000D01*
X118258571Y-11537142D01*
X118258571Y-11851428D01*
X118258571Y-11537142D02*
X118287142Y-11480000D01*
X118344285Y-11451428D01*
X118430000Y-11451428D01*
X118487142Y-11480000D01*
X118515714Y-11537142D01*
X118515714Y-11851428D01*
X119230000Y-11222857D02*
X118715714Y-11994285D01*
X119344285Y-11451428D02*
X119572857Y-11451428D01*
X119430000Y-11251428D02*
X119430000Y-11765714D01*
X119458571Y-11822857D01*
X119515714Y-11851428D01*
X119572857Y-11851428D01*
X119858571Y-11851428D02*
X119801428Y-11822857D01*
X119772857Y-11794285D01*
X119744285Y-11737142D01*
X119744285Y-11565714D01*
X119772857Y-11508571D01*
X119801428Y-11480000D01*
X119858571Y-11451428D01*
X119944285Y-11451428D01*
X120001428Y-11480000D01*
X120030000Y-11508571D01*
X120058571Y-11565714D01*
X120058571Y-11737142D01*
X120030000Y-11794285D01*
X120001428Y-11822857D01*
X119944285Y-11851428D01*
X119858571Y-11851428D01*
X120315714Y-11851428D02*
X120315714Y-11451428D01*
X120315714Y-11508571D02*
X120344285Y-11480000D01*
X120401428Y-11451428D01*
X120487142Y-11451428D01*
X120544285Y-11480000D01*
X120572857Y-11537142D01*
X120572857Y-11851428D01*
X120572857Y-11537142D02*
X120601428Y-11480000D01*
X120658571Y-11451428D01*
X120744285Y-11451428D01*
X120801428Y-11480000D01*
X120830000Y-11537142D01*
X120830000Y-11851428D01*
X121115714Y-11622857D02*
X121572857Y-11622857D01*
X121772857Y-11451428D02*
X122001428Y-11451428D01*
X121858571Y-11851428D02*
X121858571Y-11337142D01*
X121887142Y-11280000D01*
X121944285Y-11251428D01*
X122001428Y-11251428D01*
X122201428Y-11622857D02*
X122658571Y-11622857D01*
X123030000Y-11851428D02*
X122972857Y-11822857D01*
X122944285Y-11794285D01*
X122915714Y-11737142D01*
X122915714Y-11565714D01*
X122944285Y-11508571D01*
X122972857Y-11480000D01*
X123030000Y-11451428D01*
X123115714Y-11451428D01*
X123172857Y-11480000D01*
X123201428Y-11508571D01*
X123230000Y-11565714D01*
X123230000Y-11737142D01*
X123201428Y-11794285D01*
X123172857Y-11822857D01*
X123115714Y-11851428D01*
X123030000Y-11851428D01*
X123744285Y-11822857D02*
X123687142Y-11851428D01*
X123572857Y-11851428D01*
X123515714Y-11822857D01*
X123487142Y-11794285D01*
X123458571Y-11737142D01*
X123458571Y-11565714D01*
X123487142Y-11508571D01*
X123515714Y-11480000D01*
X123572857Y-11451428D01*
X123687142Y-11451428D01*
X123744285Y-11480000D01*
X124087142Y-11851428D02*
X124030000Y-11822857D01*
X124001428Y-11794285D01*
X123972857Y-11737142D01*
X123972857Y-11565714D01*
X124001428Y-11508571D01*
X124030000Y-11480000D01*
X124087142Y-11451428D01*
X124172857Y-11451428D01*
X124230000Y-11480000D01*
X124258571Y-11508571D01*
X124287142Y-11565714D01*
X124287142Y-11737142D01*
X124258571Y-11794285D01*
X124230000Y-11822857D01*
X124172857Y-11851428D01*
X124087142Y-11851428D01*
X124544285Y-11451428D02*
X124544285Y-11851428D01*
X124544285Y-11508571D02*
X124572857Y-11480000D01*
X124630000Y-11451428D01*
X124715714Y-11451428D01*
X124772857Y-11480000D01*
X124801428Y-11537142D01*
X124801428Y-11851428D01*
X125087142Y-11451428D02*
X125087142Y-11851428D01*
X125087142Y-11508571D02*
X125115714Y-11480000D01*
X125172857Y-11451428D01*
X125258571Y-11451428D01*
X125315714Y-11480000D01*
X125344285Y-11537142D01*
X125344285Y-11851428D01*
X125858571Y-11822857D02*
X125801428Y-11851428D01*
X125687142Y-11851428D01*
X125630000Y-11822857D01*
X125601428Y-11765714D01*
X125601428Y-11537142D01*
X125630000Y-11480000D01*
X125687142Y-11451428D01*
X125801428Y-11451428D01*
X125858571Y-11480000D01*
X125887142Y-11537142D01*
X125887142Y-11594285D01*
X125601428Y-11651428D01*
X126230000Y-11851428D02*
X126172857Y-11822857D01*
X126144285Y-11765714D01*
X126144285Y-11251428D01*
X126544285Y-11851428D02*
X126487142Y-11822857D01*
X126458571Y-11765714D01*
X126458571Y-11251428D01*
X127201428Y-11222857D02*
X126687142Y-11994285D01*
X127658571Y-11822857D02*
X127601428Y-11851428D01*
X127487142Y-11851428D01*
X127430000Y-11822857D01*
X127401428Y-11794285D01*
X127372857Y-11737142D01*
X127372857Y-11565714D01*
X127401428Y-11508571D01*
X127430000Y-11480000D01*
X127487142Y-11451428D01*
X127601428Y-11451428D01*
X127658571Y-11480000D01*
X127915714Y-11851428D02*
X127915714Y-11251428D01*
X128172857Y-11851428D02*
X128172857Y-11537142D01*
X128144285Y-11480000D01*
X128087142Y-11451428D01*
X128001428Y-11451428D01*
X127944285Y-11480000D01*
X127915714Y-11508571D01*
X128544285Y-11851428D02*
X128487142Y-11822857D01*
X128458571Y-11794285D01*
X128430000Y-11737142D01*
X128430000Y-11565714D01*
X128458571Y-11508571D01*
X128487142Y-11480000D01*
X128544285Y-11451428D01*
X128630000Y-11451428D01*
X128687142Y-11480000D01*
X128715714Y-11508571D01*
X128744285Y-11565714D01*
X128744285Y-11737142D01*
X128715714Y-11794285D01*
X128687142Y-11822857D01*
X128630000Y-11851428D01*
X128544285Y-11851428D01*
X129001428Y-11851428D02*
X129001428Y-11451428D01*
X129001428Y-11251428D02*
X128972857Y-11280000D01*
X129001428Y-11308571D01*
X129030000Y-11280000D01*
X129001428Y-11251428D01*
X129001428Y-11308571D01*
X129544285Y-11822857D02*
X129487142Y-11851428D01*
X129372857Y-11851428D01*
X129315714Y-11822857D01*
X129287142Y-11794285D01*
X129258571Y-11737142D01*
X129258571Y-11565714D01*
X129287142Y-11508571D01*
X129315714Y-11480000D01*
X129372857Y-11451428D01*
X129487142Y-11451428D01*
X129544285Y-11480000D01*
X130030000Y-11822857D02*
X129972857Y-11851428D01*
X129858571Y-11851428D01*
X129801428Y-11822857D01*
X129772857Y-11765714D01*
X129772857Y-11537142D01*
X129801428Y-11480000D01*
X129858571Y-11451428D01*
X129972857Y-11451428D01*
X130030000Y-11480000D01*
X130058571Y-11537142D01*
X130058571Y-11594285D01*
X129772857Y-11651428D01*
X131144285Y-11565714D02*
X131115714Y-11537142D01*
X131058571Y-11508571D01*
X131001428Y-11508571D01*
X130944285Y-11537142D01*
X130915714Y-11565714D01*
X130887142Y-11622857D01*
X130887142Y-11680000D01*
X130915714Y-11737142D01*
X130944285Y-11765714D01*
X131001428Y-11794285D01*
X131058571Y-11794285D01*
X131115714Y-11765714D01*
X131144285Y-11737142D01*
X131144285Y-11508571D02*
X131144285Y-11737142D01*
X131172857Y-11765714D01*
X131201428Y-11765714D01*
X131258571Y-11737142D01*
X131287142Y-11680000D01*
X131287142Y-11537142D01*
X131230000Y-11451428D01*
X131144285Y-11394285D01*
X131030000Y-11365714D01*
X130915714Y-11394285D01*
X130830000Y-11451428D01*
X130772857Y-11537142D01*
X130744285Y-11651428D01*
X130772857Y-11765714D01*
X130830000Y-11851428D01*
X130915714Y-11908571D01*
X131030000Y-11937142D01*
X131144285Y-11908571D01*
X131230000Y-11851428D01*
X132315714Y-11851428D02*
X131972857Y-11851428D01*
X132144285Y-11851428D02*
X132144285Y-11251428D01*
X132087142Y-11337142D01*
X132030000Y-11394285D01*
X131972857Y-11422857D01*
X132830000Y-11822857D02*
X132772857Y-11851428D01*
X132658571Y-11851428D01*
X132601428Y-11822857D01*
X132572857Y-11794285D01*
X132544285Y-11737142D01*
X132544285Y-11565714D01*
X132572857Y-11508571D01*
X132601428Y-11480000D01*
X132658571Y-11451428D01*
X132772857Y-11451428D01*
X132830000Y-11480000D01*
X133172857Y-11508571D02*
X133115714Y-11480000D01*
X133087142Y-11451428D01*
X133058571Y-11394285D01*
X133058571Y-11365714D01*
X133087142Y-11308571D01*
X133115714Y-11280000D01*
X133172857Y-11251428D01*
X133287142Y-11251428D01*
X133344285Y-11280000D01*
X133372857Y-11308571D01*
X133401428Y-11365714D01*
X133401428Y-11394285D01*
X133372857Y-11451428D01*
X133344285Y-11480000D01*
X133287142Y-11508571D01*
X133172857Y-11508571D01*
X133115714Y-11537142D01*
X133087142Y-11565714D01*
X133058571Y-11622857D01*
X133058571Y-11737142D01*
X133087142Y-11794285D01*
X133115714Y-11822857D01*
X133172857Y-11851428D01*
X133287142Y-11851428D01*
X133344285Y-11822857D01*
X133372857Y-11794285D01*
X133401428Y-11737142D01*
X133401428Y-11622857D01*
X133372857Y-11565714D01*
X133344285Y-11537142D01*
X133287142Y-11508571D01*
X133944285Y-11251428D02*
X133658571Y-11251428D01*
X133630000Y-11537142D01*
X133658571Y-11508571D01*
X133715714Y-11480000D01*
X133858571Y-11480000D01*
X133915714Y-11508571D01*
X133944285Y-11537142D01*
X133972857Y-11594285D01*
X133972857Y-11737142D01*
X133944285Y-11794285D01*
X133915714Y-11822857D01*
X133858571Y-11851428D01*
X133715714Y-11851428D01*
X133658571Y-11822857D01*
X133630000Y-11794285D01*
X134544285Y-11851428D02*
X134201428Y-11851428D01*
X134372857Y-11851428D02*
X134372857Y-11251428D01*
X134315714Y-11337142D01*
X134258571Y-11394285D01*
X134201428Y-11422857D01*
X135087142Y-11251428D02*
X134801428Y-11251428D01*
X134772857Y-11537142D01*
X134801428Y-11508571D01*
X134858571Y-11480000D01*
X135001428Y-11480000D01*
X135058571Y-11508571D01*
X135087142Y-11537142D01*
X135115714Y-11594285D01*
X135115714Y-11737142D01*
X135087142Y-11794285D01*
X135058571Y-11822857D01*
X135001428Y-11851428D01*
X134858571Y-11851428D01*
X134801428Y-11822857D01*
X134772857Y-11794285D01*
X135630000Y-11851428D02*
X135630000Y-11251428D01*
X135630000Y-11822857D02*
X135572857Y-11851428D01*
X135458571Y-11851428D01*
X135401428Y-11822857D01*
X135372857Y-11794285D01*
X135344285Y-11737142D01*
X135344285Y-11565714D01*
X135372857Y-11508571D01*
X135401428Y-11480000D01*
X135458571Y-11451428D01*
X135572857Y-11451428D01*
X135630000Y-11480000D01*
X136172857Y-11451428D02*
X136172857Y-11851428D01*
X136030000Y-11222857D02*
X135887142Y-11651428D01*
X136258571Y-11651428D01*
D11*
X142887142Y-9258571D02*
X143244285Y-10258571D01*
X143601428Y-9258571D01*
X144458571Y-8758571D02*
X144601428Y-8758571D01*
X144744285Y-8830000D01*
X144815714Y-8901428D01*
X144887142Y-9044285D01*
X144958571Y-9330000D01*
X144958571Y-9687142D01*
X144887142Y-9972857D01*
X144815714Y-10115714D01*
X144744285Y-10187142D01*
X144601428Y-10258571D01*
X144458571Y-10258571D01*
X144315714Y-10187142D01*
X144244285Y-10115714D01*
X144172857Y-9972857D01*
X144101428Y-9687142D01*
X144101428Y-9330000D01*
X144172857Y-9044285D01*
X144244285Y-8901428D01*
X144315714Y-8830000D01*
X144458571Y-8758571D01*
X145601428Y-10115714D02*
X145672857Y-10187142D01*
X145601428Y-10258571D01*
X145530000Y-10187142D01*
X145601428Y-10115714D01*
X145601428Y-10258571D01*
X147101428Y-10258571D02*
X146244285Y-10258571D01*
X146672857Y-10258571D02*
X146672857Y-8758571D01*
X146530000Y-8972857D01*
X146387142Y-9115714D01*
X146244285Y-9187142D01*
X113922857Y-10258571D02*
X113922857Y-8758571D01*
X113922857Y-9472857D02*
X114780000Y-9472857D01*
X114780000Y-10258571D02*
X114780000Y-8758571D01*
X115708571Y-10258571D02*
X115565714Y-10187142D01*
X115494285Y-10115714D01*
X115422857Y-9972857D01*
X115422857Y-9544285D01*
X115494285Y-9401428D01*
X115565714Y-9330000D01*
X115708571Y-9258571D01*
X115922857Y-9258571D01*
X116065714Y-9330000D01*
X116137142Y-9401428D01*
X116208571Y-9544285D01*
X116208571Y-9972857D01*
X116137142Y-10115714D01*
X116065714Y-10187142D01*
X115922857Y-10258571D01*
X115708571Y-10258571D01*
X116851428Y-9258571D02*
X116851428Y-10258571D01*
X116851428Y-9401428D02*
X116922857Y-9330000D01*
X117065714Y-9258571D01*
X117280000Y-9258571D01*
X117422857Y-9330000D01*
X117494285Y-9472857D01*
X117494285Y-10258571D01*
X118851428Y-9258571D02*
X118851428Y-10472857D01*
X118780000Y-10615714D01*
X118708571Y-10687142D01*
X118565714Y-10758571D01*
X118351428Y-10758571D01*
X118208571Y-10687142D01*
X118851428Y-10187142D02*
X118708571Y-10258571D01*
X118422857Y-10258571D01*
X118280000Y-10187142D01*
X118208571Y-10115714D01*
X118137142Y-9972857D01*
X118137142Y-9544285D01*
X118208571Y-9401428D01*
X118280000Y-9330000D01*
X118422857Y-9258571D01*
X118708571Y-9258571D01*
X118851428Y-9330000D01*
X120922857Y-10258571D02*
X120780000Y-10187142D01*
X120708571Y-10044285D01*
X120708571Y-8758571D01*
X122137142Y-10258571D02*
X122137142Y-9472857D01*
X122065714Y-9330000D01*
X121922857Y-9258571D01*
X121637142Y-9258571D01*
X121494285Y-9330000D01*
X122137142Y-10187142D02*
X121994285Y-10258571D01*
X121637142Y-10258571D01*
X121494285Y-10187142D01*
X121422857Y-10044285D01*
X121422857Y-9901428D01*
X121494285Y-9758571D01*
X121637142Y-9687142D01*
X121994285Y-9687142D01*
X122137142Y-9615714D01*
X122851428Y-10258571D02*
X122851428Y-8758571D01*
X122851428Y-9330000D02*
X122994285Y-9258571D01*
X123280000Y-9258571D01*
X123422857Y-9330000D01*
X123494285Y-9401428D01*
X123565714Y-9544285D01*
X123565714Y-9972857D01*
X123494285Y-10115714D01*
X123422857Y-10187142D01*
X123280000Y-10258571D01*
X122994285Y-10258571D01*
X122851428Y-10187142D01*
X126280000Y-9544285D02*
X126208571Y-9472857D01*
X126065714Y-9401428D01*
X125922857Y-9401428D01*
X125780000Y-9472857D01*
X125708571Y-9544285D01*
X125637142Y-9687142D01*
X125637142Y-9830000D01*
X125708571Y-9972857D01*
X125780000Y-10044285D01*
X125922857Y-10115714D01*
X126065714Y-10115714D01*
X126208571Y-10044285D01*
X126280000Y-9972857D01*
X126280000Y-9401428D02*
X126280000Y-9972857D01*
X126351428Y-10044285D01*
X126422857Y-10044285D01*
X126565714Y-9972857D01*
X126637142Y-9830000D01*
X126637142Y-9472857D01*
X126494285Y-9258571D01*
X126280000Y-9115714D01*
X125994285Y-9044285D01*
X125708571Y-9115714D01*
X125494285Y-9258571D01*
X125351428Y-9472857D01*
X125280000Y-9758571D01*
X125351428Y-10044285D01*
X125494285Y-10258571D01*
X125708571Y-10401428D01*
X125994285Y-10472857D01*
X126280000Y-10401428D01*
X126494285Y-10258571D01*
X129280000Y-10115714D02*
X129208571Y-10187142D01*
X128994285Y-10258571D01*
X128851428Y-10258571D01*
X128637142Y-10187142D01*
X128494285Y-10044285D01*
X128422857Y-9901428D01*
X128351428Y-9615714D01*
X128351428Y-9401428D01*
X128422857Y-9115714D01*
X128494285Y-8972857D01*
X128637142Y-8830000D01*
X128851428Y-8758571D01*
X128994285Y-8758571D01*
X129208571Y-8830000D01*
X129280000Y-8901428D01*
X130565714Y-10258571D02*
X130565714Y-9472857D01*
X130494285Y-9330000D01*
X130351428Y-9258571D01*
X130065714Y-9258571D01*
X129922857Y-9330000D01*
X130565714Y-10187142D02*
X130422857Y-10258571D01*
X130065714Y-10258571D01*
X129922857Y-10187142D01*
X129851428Y-10044285D01*
X129851428Y-9901428D01*
X129922857Y-9758571D01*
X130065714Y-9687142D01*
X130422857Y-9687142D01*
X130565714Y-9615714D01*
X131494285Y-10258571D02*
X131351428Y-10187142D01*
X131280000Y-10044285D01*
X131280000Y-8758571D01*
X131851428Y-9258571D02*
X132422857Y-9258571D01*
X132065714Y-8758571D02*
X132065714Y-10044285D01*
X132137142Y-10187142D01*
X132280000Y-10258571D01*
X132422857Y-10258571D01*
X133494285Y-10187142D02*
X133351428Y-10258571D01*
X133065714Y-10258571D01*
X132922857Y-10187142D01*
X132851428Y-10044285D01*
X132851428Y-9472857D01*
X132922857Y-9330000D01*
X133065714Y-9258571D01*
X133351428Y-9258571D01*
X133494285Y-9330000D01*
X133565714Y-9472857D01*
X133565714Y-9615714D01*
X132851428Y-9758571D01*
X134851428Y-10187142D02*
X134708571Y-10258571D01*
X134422857Y-10258571D01*
X134280000Y-10187142D01*
X134208571Y-10115714D01*
X134137142Y-9972857D01*
X134137142Y-9544285D01*
X134208571Y-9401428D01*
X134280000Y-9330000D01*
X134422857Y-9258571D01*
X134708571Y-9258571D01*
X134851428Y-9330000D01*
X135494285Y-10258571D02*
X135494285Y-8758571D01*
X136137142Y-10258571D02*
X136137142Y-9472857D01*
X136065714Y-9330000D01*
X135922857Y-9258571D01*
X135708571Y-9258571D01*
X135565714Y-9330000D01*
X135494285Y-9401428D01*
D12*
X142115153Y-70245379D02*
G75*
G02X142108633Y-67045385I-3260J1599997D01*
G01*
X152108612Y-67025010D02*
G75*
G02X152115132Y-70225004I3260J-1599997D01*
G01*
X142057908Y-25235283D02*
X152057887Y-25214907D01*
X142051388Y-22035289D02*
X152051367Y-22014914D01*
X142057908Y-25235283D02*
G75*
G02X142051388Y-22035289I-3260J1599997D01*
G01*
X87500000Y-228507200D02*
X87500000Y-6507200D01*
X162500000Y-228507200D02*
X87500000Y-228507200D01*
X162500000Y-6507200D02*
X162500000Y-228507200D01*
X87500000Y-6507200D02*
X162500000Y-6507200D01*
X107891787Y-182789837D02*
X97891788Y-182794898D01*
X107890167Y-179589837D02*
X97890169Y-179594898D01*
X107890167Y-179589837D02*
G75*
G02X107891787Y-182789837I810J-1600000D01*
G01*
X142172397Y-115255474D02*
G75*
G02X142165877Y-112055482I-3260J1599996D01*
G01*
X152165856Y-112035106D02*
G75*
G02X152172376Y-115235100I3260J-1599997D01*
G01*
X142115153Y-70245379D02*
X152115132Y-70225004D01*
X142108633Y-67045385D02*
X152108612Y-67025010D01*
X107848157Y-44572900D02*
X97848158Y-44577961D01*
X107848157Y-44572900D02*
G75*
G02X107849777Y-47772900I810J-1600000D01*
G01*
X97849778Y-47777961D02*
G75*
G02X97848158Y-44577961I-810J1600000D01*
G01*
X142229641Y-160265571D02*
X152229621Y-160245196D01*
X142223121Y-157065578D02*
X152223101Y-157045203D01*
X152051367Y-22014915D02*
G75*
G02X152057887Y-25214907I3260J-1599996D01*
G01*
X142229641Y-160265572D02*
G75*
G02X142223121Y-157065578I-3260J1599997D01*
G01*
X152223101Y-157045204D02*
G75*
G02X152229621Y-160245196I3260J-1599996D01*
G01*
X142172397Y-115255475D02*
X152172376Y-115235100D01*
X142165877Y-112055482D02*
X152165856Y-112035107D01*
X107863780Y-92778545D02*
X97863781Y-92783606D01*
X107862160Y-89578546D02*
X97862162Y-89583607D01*
X107862160Y-89578547D02*
G75*
G02X107863780Y-92778545I810J-1599999D01*
G01*
X97863782Y-92783607D02*
G75*
G02X97862162Y-89583607I-810J1600000D01*
G01*
X107849777Y-47772900D02*
X97849778Y-47777961D01*
X97891787Y-182794898D02*
G75*
G02X97890169Y-179594898I-809J1600000D01*
G01*
X107877783Y-137784191D02*
X97877785Y-137789252D01*
X107876164Y-134584192D02*
X97876165Y-134589253D01*
X107876165Y-134584191D02*
G75*
G02X107877783Y-137784191I809J-1600000D01*
G01*
X97877785Y-137789251D02*
G75*
G02X97876165Y-134589253I-810J1599999D01*
G01*
D13*
X125026007Y-138279492D03*
X125012003Y-93273846D03*
X125025489Y-115794393D03*
X125082733Y-160804489D03*
X124998000Y-48268200D03*
X124968244Y-70784296D03*
X125040010Y-183285137D03*
X124911000Y-25774200D03*
X94400001Y-114542700D03*
X94400001Y-160042701D03*
X94400001Y-204542700D03*
X155600001Y-47792701D03*
X155600001Y-92292700D03*
X155600001Y-137792701D03*
X155600001Y-182292700D03*
X155600001Y-204542700D03*
X94400000Y-25792200D03*
X94400000Y-70043200D03*
X105000000Y-208542700D03*
X145000000Y-208542700D03*
X105000000Y-15007200D03*
X145000000Y-15007200D03*
X115650519Y-138284330D03*
X115636515Y-93278684D03*
X134458203Y-160785479D03*
X115622512Y-48273038D03*
X134343714Y-70765287D03*
X134400959Y-115775383D03*
X115664522Y-183289976D03*
X134286470Y-25755190D03*
D14*
X101500000Y-219072501D03*
X148600000Y-219072501D03*
D15*
X109815000Y-220492501D03*
X112585000Y-220492501D03*
X115355000Y-220492501D03*
X118125000Y-220492501D03*
X120895000Y-220492501D03*
X123665000Y-220492501D03*
X126435000Y-220492501D03*
X129205000Y-220492501D03*
X131975000Y-220492501D03*
X134745000Y-220492501D03*
X137515000Y-220492501D03*
X140285000Y-220492501D03*
X108430000Y-217652501D03*
X111200000Y-217652501D03*
X113970000Y-217652501D03*
X116740000Y-217652501D03*
X119510000Y-217652501D03*
X122280000Y-217652501D03*
X125050000Y-217652501D03*
X127820000Y-217652501D03*
X130590000Y-217652501D03*
X133360000Y-217652501D03*
X136130000Y-217652501D03*
X138900000Y-217652501D03*
D16*
X141670000Y-217652501D03*
D17*
X114890000Y-16385800D03*
X117430000Y-16385800D03*
X119970000Y-16385800D03*
X122510000Y-16385800D03*
X125050000Y-16385800D03*
X127590000Y-16385800D03*
X130130000Y-16385800D03*
X132670000Y-16385800D03*
X135210000Y-16385800D03*
X137750000Y-16385800D03*
X137750000Y-213750000D03*
X135210000Y-213750000D03*
X132670000Y-213750000D03*
X130130000Y-213750000D03*
X127590000Y-213750000D03*
X125050000Y-213750000D03*
X122510000Y-213750000D03*
X119970000Y-213750000D03*
X117430000Y-213750000D03*
X114890000Y-213750000D03*
D18*
X98700000Y-189700000D03*
D10*
G36*
X124200000Y-197000000D02*
X123800000Y-197000000D01*
X123800000Y-189900000D01*
X122200000Y-189900000D01*
X122200000Y-197000000D01*
X121800000Y-197000000D01*
X121800000Y-189900000D01*
X120200000Y-189900000D01*
X120200000Y-197000000D01*
X119800000Y-197000000D01*
X119800000Y-189900000D01*
X118200000Y-189900000D01*
X118200000Y-197000000D01*
X117800000Y-197000000D01*
X117800000Y-189900000D01*
X116200000Y-189900000D01*
X116200000Y-197000000D01*
X115800000Y-197000000D01*
X115800000Y-189900000D01*
X114200000Y-189900000D01*
X114200000Y-197000000D01*
X113800000Y-197000000D01*
X113800000Y-189900000D01*
X112200000Y-189900000D01*
X112200000Y-197000000D01*
X111800000Y-197000000D01*
X111800000Y-189900000D01*
X110200000Y-189900000D01*
X110200000Y-197000000D01*
X109800000Y-197000000D01*
X109800000Y-189900000D01*
X108200000Y-189900000D01*
X108200000Y-197000000D01*
X107800000Y-197000000D01*
X107800000Y-189900000D01*
X106200000Y-189900000D01*
X106200000Y-197000000D01*
X105800000Y-197000000D01*
X105800000Y-189900000D01*
X104200000Y-189900000D01*
X104200000Y-197000000D01*
X103800000Y-197000000D01*
X103800000Y-189900000D01*
X102200000Y-189900000D01*
X102200000Y-197000000D01*
X101800000Y-197000000D01*
X101800000Y-189900000D01*
X100200000Y-189900000D01*
X100200000Y-197000000D01*
X99800000Y-197000000D01*
X99800000Y-189900000D01*
X98200000Y-189900000D01*
X98200000Y-189500000D01*
X124200000Y-189500000D01*
X124200000Y-197000000D01*
X124200000Y-197000000D01*
G37*
D18*
X151300000Y-189700000D03*
D10*
G36*
X151800000Y-189900000D02*
X150200000Y-189900000D01*
X150200000Y-197000000D01*
X149800000Y-197000000D01*
X149800000Y-189900000D01*
X148200000Y-189900000D01*
X148200000Y-197000000D01*
X147800000Y-197000000D01*
X147800000Y-189900000D01*
X146200000Y-189900000D01*
X146200000Y-197000000D01*
X145800000Y-197000000D01*
X145800000Y-189900000D01*
X144200000Y-189900000D01*
X144200000Y-197000000D01*
X143800000Y-197000000D01*
X143800000Y-189900000D01*
X142200000Y-189900000D01*
X142200000Y-197000000D01*
X141800000Y-197000000D01*
X141800000Y-189900000D01*
X140200000Y-189900000D01*
X140200000Y-197000000D01*
X139800000Y-197000000D01*
X139800000Y-189900000D01*
X138200000Y-189900000D01*
X138200000Y-197000000D01*
X137800000Y-197000000D01*
X137800000Y-189900000D01*
X136200000Y-189900000D01*
X136200000Y-197000000D01*
X135800000Y-197000000D01*
X135800000Y-189900000D01*
X134200000Y-189900000D01*
X134200000Y-197000000D01*
X133800000Y-197000000D01*
X133800000Y-189900000D01*
X132200000Y-189900000D01*
X132200000Y-197000000D01*
X131800000Y-197000000D01*
X131800000Y-189900000D01*
X130200000Y-189900000D01*
X130200000Y-197000000D01*
X129800000Y-197000000D01*
X129800000Y-189900000D01*
X128200000Y-189900000D01*
X128200000Y-197000000D01*
X127800000Y-197000000D01*
X127800000Y-189900000D01*
X126200000Y-189900000D01*
X126200000Y-197000000D01*
X125800000Y-197000000D01*
X125800000Y-189500000D01*
X151800000Y-189500000D01*
X151800000Y-189900000D01*
X151800000Y-189900000D01*
G37*
D18*
X125000000Y-197500000D03*
D10*
G36*
X125200000Y-197600000D02*
X126800000Y-197600000D01*
X126800000Y-190500000D01*
X127200000Y-190500000D01*
X127200000Y-197600000D01*
X128800000Y-197600000D01*
X128800000Y-190500000D01*
X129200000Y-190500000D01*
X129200000Y-197600000D01*
X130800000Y-197600000D01*
X130800000Y-190500000D01*
X131200000Y-190500000D01*
X131200000Y-197600000D01*
X132800000Y-197600000D01*
X132800000Y-190500000D01*
X133200000Y-190500000D01*
X133200000Y-197600000D01*
X134800000Y-197600000D01*
X134800000Y-190500000D01*
X135200000Y-190500000D01*
X135200000Y-197600000D01*
X136800000Y-197600000D01*
X136800000Y-190500000D01*
X137200000Y-190500000D01*
X137200000Y-197600000D01*
X138800000Y-197600000D01*
X138800000Y-190500000D01*
X139200000Y-190500000D01*
X139200000Y-197600000D01*
X140800000Y-197600000D01*
X140800000Y-190500000D01*
X141200000Y-190500000D01*
X141200000Y-197600000D01*
X142800000Y-197600000D01*
X142800000Y-190500000D01*
X143200000Y-190500000D01*
X143200000Y-197600000D01*
X144800000Y-197600000D01*
X144800000Y-190500000D01*
X145200000Y-190500000D01*
X145200000Y-197600000D01*
X146800000Y-197600000D01*
X146800000Y-190500000D01*
X147200000Y-190500000D01*
X147200000Y-197600000D01*
X148800000Y-197600000D01*
X148800000Y-190500000D01*
X149200000Y-190500000D01*
X149200000Y-197600000D01*
X150800000Y-197600000D01*
X150800000Y-190500000D01*
X151200000Y-190500000D01*
X151200000Y-198000000D01*
X98800000Y-198000000D01*
X98800000Y-190500000D01*
X99200000Y-190500000D01*
X99200000Y-197600000D01*
X100800000Y-197600000D01*
X100800000Y-190500000D01*
X101200000Y-190500000D01*
X101200000Y-197600000D01*
X102800000Y-197600000D01*
X102800000Y-190500000D01*
X103200000Y-190500000D01*
X103200000Y-197600000D01*
X104800000Y-197600000D01*
X104800000Y-190500000D01*
X105200000Y-190500000D01*
X105200000Y-197600000D01*
X106800000Y-197600000D01*
X106800000Y-190500000D01*
X107200000Y-190500000D01*
X107200000Y-197600000D01*
X108800000Y-197600000D01*
X108800000Y-190500000D01*
X109200000Y-190500000D01*
X109200000Y-197600000D01*
X110800000Y-197600000D01*
X110800000Y-190500000D01*
X111200000Y-190500000D01*
X111200000Y-197600000D01*
X112800000Y-197600000D01*
X112800000Y-190500000D01*
X113200000Y-190500000D01*
X113200000Y-197600000D01*
X114800000Y-197600000D01*
X114800000Y-190500000D01*
X115200000Y-190500000D01*
X115200000Y-197600000D01*
X116800000Y-197600000D01*
X116800000Y-190500000D01*
X117200000Y-190500000D01*
X117200000Y-197600000D01*
X118800000Y-197600000D01*
X118800000Y-190500000D01*
X119200000Y-190500000D01*
X119200000Y-197600000D01*
X120800000Y-197600000D01*
X120800000Y-190500000D01*
X121200000Y-190500000D01*
X121200000Y-197600000D01*
X122800000Y-197600000D01*
X122800000Y-190500000D01*
X123200000Y-190500000D01*
X123200000Y-197600000D01*
X124800000Y-197600000D01*
X124800000Y-189500000D01*
X125200000Y-189500000D01*
X125200000Y-197600000D01*
X125200000Y-197600000D01*
G37*
D18*
X125000000Y-175019400D03*
D10*
G36*
X125200000Y-175119400D02*
X126800000Y-175119400D01*
X126800000Y-168019400D01*
X127200000Y-168019400D01*
X127200000Y-175119400D01*
X128800000Y-175119400D01*
X128800000Y-168019400D01*
X129200000Y-168019400D01*
X129200000Y-175119400D01*
X130800000Y-175119400D01*
X130800000Y-168019400D01*
X131200000Y-168019400D01*
X131200000Y-175119400D01*
X132800000Y-175119400D01*
X132800000Y-168019400D01*
X133200000Y-168019400D01*
X133200000Y-175119400D01*
X134800000Y-175119400D01*
X134800000Y-168019400D01*
X135200000Y-168019400D01*
X135200000Y-175119400D01*
X136800000Y-175119400D01*
X136800000Y-168019400D01*
X137200000Y-168019400D01*
X137200000Y-175119400D01*
X138800000Y-175119400D01*
X138800000Y-168019400D01*
X139200000Y-168019400D01*
X139200000Y-175119400D01*
X140800000Y-175119400D01*
X140800000Y-168019400D01*
X141200000Y-168019400D01*
X141200000Y-175119400D01*
X142800000Y-175119400D01*
X142800000Y-168019400D01*
X143200000Y-168019400D01*
X143200000Y-175119400D01*
X144800000Y-175119400D01*
X144800000Y-168019400D01*
X145200000Y-168019400D01*
X145200000Y-175119400D01*
X146800000Y-175119400D01*
X146800000Y-168019400D01*
X147200000Y-168019400D01*
X147200000Y-175119400D01*
X148800000Y-175119400D01*
X148800000Y-168019400D01*
X149200000Y-168019400D01*
X149200000Y-175119400D01*
X150800000Y-175119400D01*
X150800000Y-168019400D01*
X151200000Y-168019400D01*
X151200000Y-175519400D01*
X98800000Y-175519400D01*
X98800000Y-168019400D01*
X99200000Y-168019400D01*
X99200000Y-175119400D01*
X100800000Y-175119400D01*
X100800000Y-168019400D01*
X101200000Y-168019400D01*
X101200000Y-175119400D01*
X102800000Y-175119400D01*
X102800000Y-168019400D01*
X103200000Y-168019400D01*
X103200000Y-175119400D01*
X104800000Y-175119400D01*
X104800000Y-168019400D01*
X105200000Y-168019400D01*
X105200000Y-175119400D01*
X106800000Y-175119400D01*
X106800000Y-168019400D01*
X107200000Y-168019400D01*
X107200000Y-175119400D01*
X108800000Y-175119400D01*
X108800000Y-168019400D01*
X109200000Y-168019400D01*
X109200000Y-175119400D01*
X110800000Y-175119400D01*
X110800000Y-168019400D01*
X111200000Y-168019400D01*
X111200000Y-175119400D01*
X112800000Y-175119400D01*
X112800000Y-168019400D01*
X113200000Y-168019400D01*
X113200000Y-175119400D01*
X114800000Y-175119400D01*
X114800000Y-168019400D01*
X115200000Y-168019400D01*
X115200000Y-175119400D01*
X116800000Y-175119400D01*
X116800000Y-168019400D01*
X117200000Y-168019400D01*
X117200000Y-175119400D01*
X118800000Y-175119400D01*
X118800000Y-168019400D01*
X119200000Y-168019400D01*
X119200000Y-175119400D01*
X120800000Y-175119400D01*
X120800000Y-168019400D01*
X121200000Y-168019400D01*
X121200000Y-175119400D01*
X122800000Y-175119400D01*
X122800000Y-168019400D01*
X123200000Y-168019400D01*
X123200000Y-175119400D01*
X124800000Y-175119400D01*
X124800000Y-167019400D01*
X125200000Y-167019400D01*
X125200000Y-175119400D01*
X125200000Y-175119400D01*
G37*
D18*
X151300000Y-167219400D03*
D10*
G36*
X151800000Y-167419400D02*
X150200000Y-167419400D01*
X150200000Y-174519400D01*
X149800000Y-174519400D01*
X149800000Y-167419400D01*
X148200000Y-167419400D01*
X148200000Y-174519400D01*
X147800000Y-174519400D01*
X147800000Y-167419400D01*
X146200000Y-167419400D01*
X146200000Y-174519400D01*
X145800000Y-174519400D01*
X145800000Y-167419400D01*
X144200000Y-167419400D01*
X144200000Y-174519400D01*
X143800000Y-174519400D01*
X143800000Y-167419400D01*
X142200000Y-167419400D01*
X142200000Y-174519400D01*
X141800000Y-174519400D01*
X141800000Y-167419400D01*
X140200000Y-167419400D01*
X140200000Y-174519400D01*
X139800000Y-174519400D01*
X139800000Y-167419400D01*
X138200000Y-167419400D01*
X138200000Y-174519400D01*
X137800000Y-174519400D01*
X137800000Y-167419400D01*
X136200000Y-167419400D01*
X136200000Y-174519400D01*
X135800000Y-174519400D01*
X135800000Y-167419400D01*
X134200000Y-167419400D01*
X134200000Y-174519400D01*
X133800000Y-174519400D01*
X133800000Y-167419400D01*
X132200000Y-167419400D01*
X132200000Y-174519400D01*
X131800000Y-174519400D01*
X131800000Y-167419400D01*
X130200000Y-167419400D01*
X130200000Y-174519400D01*
X129800000Y-174519400D01*
X129800000Y-167419400D01*
X128200000Y-167419400D01*
X128200000Y-174519400D01*
X127800000Y-174519400D01*
X127800000Y-167419400D01*
X126200000Y-167419400D01*
X126200000Y-174519400D01*
X125800000Y-174519400D01*
X125800000Y-167019400D01*
X151800000Y-167019400D01*
X151800000Y-167419400D01*
X151800000Y-167419400D01*
G37*
D18*
X98700000Y-167219400D03*
D10*
G36*
X124200000Y-174519400D02*
X123800000Y-174519400D01*
X123800000Y-167419400D01*
X122200000Y-167419400D01*
X122200000Y-174519400D01*
X121800000Y-174519400D01*
X121800000Y-167419400D01*
X120200000Y-167419400D01*
X120200000Y-174519400D01*
X119800000Y-174519400D01*
X119800000Y-167419400D01*
X118200000Y-167419400D01*
X118200000Y-174519400D01*
X117800000Y-174519400D01*
X117800000Y-167419400D01*
X116200000Y-167419400D01*
X116200000Y-174519400D01*
X115800000Y-174519400D01*
X115800000Y-167419400D01*
X114200000Y-167419400D01*
X114200000Y-174519400D01*
X113800000Y-174519400D01*
X113800000Y-167419400D01*
X112200000Y-167419400D01*
X112200000Y-174519400D01*
X111800000Y-174519400D01*
X111800000Y-167419400D01*
X110200000Y-167419400D01*
X110200000Y-174519400D01*
X109800000Y-174519400D01*
X109800000Y-167419400D01*
X108200000Y-167419400D01*
X108200000Y-174519400D01*
X107800000Y-174519400D01*
X107800000Y-167419400D01*
X106200000Y-167419400D01*
X106200000Y-174519400D01*
X105800000Y-174519400D01*
X105800000Y-167419400D01*
X104200000Y-167419400D01*
X104200000Y-174519400D01*
X103800000Y-174519400D01*
X103800000Y-167419400D01*
X102200000Y-167419400D01*
X102200000Y-174519400D01*
X101800000Y-174519400D01*
X101800000Y-167419400D01*
X100200000Y-167419400D01*
X100200000Y-174519400D01*
X99800000Y-174519400D01*
X99800000Y-167419400D01*
X98200000Y-167419400D01*
X98200000Y-167019400D01*
X124200000Y-167019400D01*
X124200000Y-174519400D01*
X124200000Y-174519400D01*
G37*
D18*
X98700000Y-144738800D03*
D10*
G36*
X124200000Y-152038800D02*
X123800000Y-152038800D01*
X123800000Y-144938800D01*
X122200000Y-144938800D01*
X122200000Y-152038800D01*
X121800000Y-152038800D01*
X121800000Y-144938800D01*
X120200000Y-144938800D01*
X120200000Y-152038800D01*
X119800000Y-152038800D01*
X119800000Y-144938800D01*
X118200000Y-144938800D01*
X118200000Y-152038800D01*
X117800000Y-152038800D01*
X117800000Y-144938800D01*
X116200000Y-144938800D01*
X116200000Y-152038800D01*
X115800000Y-152038800D01*
X115800000Y-144938800D01*
X114200000Y-144938800D01*
X114200000Y-152038800D01*
X113800000Y-152038800D01*
X113800000Y-144938800D01*
X112200000Y-144938800D01*
X112200000Y-152038800D01*
X111800000Y-152038800D01*
X111800000Y-144938800D01*
X110200000Y-144938800D01*
X110200000Y-152038800D01*
X109800000Y-152038800D01*
X109800000Y-144938800D01*
X108200000Y-144938800D01*
X108200000Y-152038800D01*
X107800000Y-152038800D01*
X107800000Y-144938800D01*
X106200000Y-144938800D01*
X106200000Y-152038800D01*
X105800000Y-152038800D01*
X105800000Y-144938800D01*
X104200000Y-144938800D01*
X104200000Y-152038800D01*
X103800000Y-152038800D01*
X103800000Y-144938800D01*
X102200000Y-144938800D01*
X102200000Y-152038800D01*
X101800000Y-152038800D01*
X101800000Y-144938800D01*
X100200000Y-144938800D01*
X100200000Y-152038800D01*
X99800000Y-152038800D01*
X99800000Y-144938800D01*
X98200000Y-144938800D01*
X98200000Y-144538800D01*
X124200000Y-144538800D01*
X124200000Y-152038800D01*
X124200000Y-152038800D01*
G37*
D18*
X151300000Y-144738800D03*
D10*
G36*
X151800000Y-144938800D02*
X150200000Y-144938800D01*
X150200000Y-152038800D01*
X149800000Y-152038800D01*
X149800000Y-144938800D01*
X148200000Y-144938800D01*
X148200000Y-152038800D01*
X147800000Y-152038800D01*
X147800000Y-144938800D01*
X146200000Y-144938800D01*
X146200000Y-152038800D01*
X145800000Y-152038800D01*
X145800000Y-144938800D01*
X144200000Y-144938800D01*
X144200000Y-152038800D01*
X143800000Y-152038800D01*
X143800000Y-144938800D01*
X142200000Y-144938800D01*
X142200000Y-152038800D01*
X141800000Y-152038800D01*
X141800000Y-144938800D01*
X140200000Y-144938800D01*
X140200000Y-152038800D01*
X139800000Y-152038800D01*
X139800000Y-144938800D01*
X138200000Y-144938800D01*
X138200000Y-152038800D01*
X137800000Y-152038800D01*
X137800000Y-144938800D01*
X136200000Y-144938800D01*
X136200000Y-152038800D01*
X135800000Y-152038800D01*
X135800000Y-144938800D01*
X134200000Y-144938800D01*
X134200000Y-152038800D01*
X133800000Y-152038800D01*
X133800000Y-144938800D01*
X132200000Y-144938800D01*
X132200000Y-152038800D01*
X131800000Y-152038800D01*
X131800000Y-144938800D01*
X130200000Y-144938800D01*
X130200000Y-152038800D01*
X129800000Y-152038800D01*
X129800000Y-144938800D01*
X128200000Y-144938800D01*
X128200000Y-152038800D01*
X127800000Y-152038800D01*
X127800000Y-144938800D01*
X126200000Y-144938800D01*
X126200000Y-152038800D01*
X125800000Y-152038800D01*
X125800000Y-144538800D01*
X151800000Y-144538800D01*
X151800000Y-144938800D01*
X151800000Y-144938800D01*
G37*
D18*
X125000000Y-152538800D03*
D10*
G36*
X125200000Y-152638800D02*
X126800000Y-152638800D01*
X126800000Y-145538800D01*
X127200000Y-145538800D01*
X127200000Y-152638800D01*
X128800000Y-152638800D01*
X128800000Y-145538800D01*
X129200000Y-145538800D01*
X129200000Y-152638800D01*
X130800000Y-152638800D01*
X130800000Y-145538800D01*
X131200000Y-145538800D01*
X131200000Y-152638800D01*
X132800000Y-152638800D01*
X132800000Y-145538800D01*
X133200000Y-145538800D01*
X133200000Y-152638800D01*
X134800000Y-152638800D01*
X134800000Y-145538800D01*
X135200000Y-145538800D01*
X135200000Y-152638800D01*
X136800000Y-152638800D01*
X136800000Y-145538800D01*
X137200000Y-145538800D01*
X137200000Y-152638800D01*
X138800000Y-152638800D01*
X138800000Y-145538800D01*
X139200000Y-145538800D01*
X139200000Y-152638800D01*
X140800000Y-152638800D01*
X140800000Y-145538800D01*
X141200000Y-145538800D01*
X141200000Y-152638800D01*
X142800000Y-152638800D01*
X142800000Y-145538800D01*
X143200000Y-145538800D01*
X143200000Y-152638800D01*
X144800000Y-152638800D01*
X144800000Y-145538800D01*
X145200000Y-145538800D01*
X145200000Y-152638800D01*
X146800000Y-152638800D01*
X146800000Y-145538800D01*
X147200000Y-145538800D01*
X147200000Y-152638800D01*
X148800000Y-152638800D01*
X148800000Y-145538800D01*
X149200000Y-145538800D01*
X149200000Y-152638800D01*
X150800000Y-152638800D01*
X150800000Y-145538800D01*
X151200000Y-145538800D01*
X151200000Y-153038800D01*
X98800000Y-153038800D01*
X98800000Y-145538800D01*
X99200000Y-145538800D01*
X99200000Y-152638800D01*
X100800000Y-152638800D01*
X100800000Y-145538800D01*
X101200000Y-145538800D01*
X101200000Y-152638800D01*
X102800000Y-152638800D01*
X102800000Y-145538800D01*
X103200000Y-145538800D01*
X103200000Y-152638800D01*
X104800000Y-152638800D01*
X104800000Y-145538800D01*
X105200000Y-145538800D01*
X105200000Y-152638800D01*
X106800000Y-152638800D01*
X106800000Y-145538800D01*
X107200000Y-145538800D01*
X107200000Y-152638800D01*
X108800000Y-152638800D01*
X108800000Y-145538800D01*
X109200000Y-145538800D01*
X109200000Y-152638800D01*
X110800000Y-152638800D01*
X110800000Y-145538800D01*
X111200000Y-145538800D01*
X111200000Y-152638800D01*
X112800000Y-152638800D01*
X112800000Y-145538800D01*
X113200000Y-145538800D01*
X113200000Y-152638800D01*
X114800000Y-152638800D01*
X114800000Y-145538800D01*
X115200000Y-145538800D01*
X115200000Y-152638800D01*
X116800000Y-152638800D01*
X116800000Y-145538800D01*
X117200000Y-145538800D01*
X117200000Y-152638800D01*
X118800000Y-152638800D01*
X118800000Y-145538800D01*
X119200000Y-145538800D01*
X119200000Y-152638800D01*
X120800000Y-152638800D01*
X120800000Y-145538800D01*
X121200000Y-145538800D01*
X121200000Y-152638800D01*
X122800000Y-152638800D01*
X122800000Y-145538800D01*
X123200000Y-145538800D01*
X123200000Y-152638800D01*
X124800000Y-152638800D01*
X124800000Y-144538800D01*
X125200000Y-144538800D01*
X125200000Y-152638800D01*
X125200000Y-152638800D01*
G37*
D18*
X125000000Y-130058200D03*
D10*
G36*
X125200000Y-130158200D02*
X126800000Y-130158200D01*
X126800000Y-123058200D01*
X127200000Y-123058200D01*
X127200000Y-130158200D01*
X128800000Y-130158200D01*
X128800000Y-123058200D01*
X129200000Y-123058200D01*
X129200000Y-130158200D01*
X130800000Y-130158200D01*
X130800000Y-123058200D01*
X131200000Y-123058200D01*
X131200000Y-130158200D01*
X132800000Y-130158200D01*
X132800000Y-123058200D01*
X133200000Y-123058200D01*
X133200000Y-130158200D01*
X134800000Y-130158200D01*
X134800000Y-123058200D01*
X135200000Y-123058200D01*
X135200000Y-130158200D01*
X136800000Y-130158200D01*
X136800000Y-123058200D01*
X137200000Y-123058200D01*
X137200000Y-130158200D01*
X138800000Y-130158200D01*
X138800000Y-123058200D01*
X139200000Y-123058200D01*
X139200000Y-130158200D01*
X140800000Y-130158200D01*
X140800000Y-123058200D01*
X141200000Y-123058200D01*
X141200000Y-130158200D01*
X142800000Y-130158200D01*
X142800000Y-123058200D01*
X143200000Y-123058200D01*
X143200000Y-130158200D01*
X144800000Y-130158200D01*
X144800000Y-123058200D01*
X145200000Y-123058200D01*
X145200000Y-130158200D01*
X146800000Y-130158200D01*
X146800000Y-123058200D01*
X147200000Y-123058200D01*
X147200000Y-130158200D01*
X148800000Y-130158200D01*
X148800000Y-123058200D01*
X149200000Y-123058200D01*
X149200000Y-130158200D01*
X150800000Y-130158200D01*
X150800000Y-123058200D01*
X151200000Y-123058200D01*
X151200000Y-130558200D01*
X98800000Y-130558200D01*
X98800000Y-123058200D01*
X99200000Y-123058200D01*
X99200000Y-130158200D01*
X100800000Y-130158200D01*
X100800000Y-123058200D01*
X101200000Y-123058200D01*
X101200000Y-130158200D01*
X102800000Y-130158200D01*
X102800000Y-123058200D01*
X103200000Y-123058200D01*
X103200000Y-130158200D01*
X104800000Y-130158200D01*
X104800000Y-123058200D01*
X105200000Y-123058200D01*
X105200000Y-130158200D01*
X106800000Y-130158200D01*
X106800000Y-123058200D01*
X107200000Y-123058200D01*
X107200000Y-130158200D01*
X108800000Y-130158200D01*
X108800000Y-123058200D01*
X109200000Y-123058200D01*
X109200000Y-130158200D01*
X110800000Y-130158200D01*
X110800000Y-123058200D01*
X111200000Y-123058200D01*
X111200000Y-130158200D01*
X112800000Y-130158200D01*
X112800000Y-123058200D01*
X113200000Y-123058200D01*
X113200000Y-130158200D01*
X114800000Y-130158200D01*
X114800000Y-123058200D01*
X115200000Y-123058200D01*
X115200000Y-130158200D01*
X116800000Y-130158200D01*
X116800000Y-123058200D01*
X117200000Y-123058200D01*
X117200000Y-130158200D01*
X118800000Y-130158200D01*
X118800000Y-123058200D01*
X119200000Y-123058200D01*
X119200000Y-130158200D01*
X120800000Y-130158200D01*
X120800000Y-123058200D01*
X121200000Y-123058200D01*
X121200000Y-130158200D01*
X122800000Y-130158200D01*
X122800000Y-123058200D01*
X123200000Y-123058200D01*
X123200000Y-130158200D01*
X124800000Y-130158200D01*
X124800000Y-122058200D01*
X125200000Y-122058200D01*
X125200000Y-130158200D01*
X125200000Y-130158200D01*
G37*
D18*
X151300000Y-122258200D03*
D10*
G36*
X151800000Y-122458200D02*
X150200000Y-122458200D01*
X150200000Y-129558200D01*
X149800000Y-129558200D01*
X149800000Y-122458200D01*
X148200000Y-122458200D01*
X148200000Y-129558200D01*
X147800000Y-129558200D01*
X147800000Y-122458200D01*
X146200000Y-122458200D01*
X146200000Y-129558200D01*
X145800000Y-129558200D01*
X145800000Y-122458200D01*
X144200000Y-122458200D01*
X144200000Y-129558200D01*
X143800000Y-129558200D01*
X143800000Y-122458200D01*
X142200000Y-122458200D01*
X142200000Y-129558200D01*
X141800000Y-129558200D01*
X141800000Y-122458200D01*
X140200000Y-122458200D01*
X140200000Y-129558200D01*
X139800000Y-129558200D01*
X139800000Y-122458200D01*
X138200000Y-122458200D01*
X138200000Y-129558200D01*
X137800000Y-129558200D01*
X137800000Y-122458200D01*
X136200000Y-122458200D01*
X136200000Y-129558200D01*
X135800000Y-129558200D01*
X135800000Y-122458200D01*
X134200000Y-122458200D01*
X134200000Y-129558200D01*
X133800000Y-129558200D01*
X133800000Y-122458200D01*
X132200000Y-122458200D01*
X132200000Y-129558200D01*
X131800000Y-129558200D01*
X131800000Y-122458200D01*
X130200000Y-122458200D01*
X130200000Y-129558200D01*
X129800000Y-129558200D01*
X129800000Y-122458200D01*
X128200000Y-122458200D01*
X128200000Y-129558200D01*
X127800000Y-129558200D01*
X127800000Y-122458200D01*
X126200000Y-122458200D01*
X126200000Y-129558200D01*
X125800000Y-129558200D01*
X125800000Y-122058200D01*
X151800000Y-122058200D01*
X151800000Y-122458200D01*
X151800000Y-122458200D01*
G37*
D18*
X98700000Y-122258200D03*
D10*
G36*
X124200000Y-129558200D02*
X123800000Y-129558200D01*
X123800000Y-122458200D01*
X122200000Y-122458200D01*
X122200000Y-129558200D01*
X121800000Y-129558200D01*
X121800000Y-122458200D01*
X120200000Y-122458200D01*
X120200000Y-129558200D01*
X119800000Y-129558200D01*
X119800000Y-122458200D01*
X118200000Y-122458200D01*
X118200000Y-129558200D01*
X117800000Y-129558200D01*
X117800000Y-122458200D01*
X116200000Y-122458200D01*
X116200000Y-129558200D01*
X115800000Y-129558200D01*
X115800000Y-122458200D01*
X114200000Y-122458200D01*
X114200000Y-129558200D01*
X113800000Y-129558200D01*
X113800000Y-122458200D01*
X112200000Y-122458200D01*
X112200000Y-129558200D01*
X111800000Y-129558200D01*
X111800000Y-122458200D01*
X110200000Y-122458200D01*
X110200000Y-129558200D01*
X109800000Y-129558200D01*
X109800000Y-122458200D01*
X108200000Y-122458200D01*
X108200000Y-129558200D01*
X107800000Y-129558200D01*
X107800000Y-122458200D01*
X106200000Y-122458200D01*
X106200000Y-129558200D01*
X105800000Y-129558200D01*
X105800000Y-122458200D01*
X104200000Y-122458200D01*
X104200000Y-129558200D01*
X103800000Y-129558200D01*
X103800000Y-122458200D01*
X102200000Y-122458200D01*
X102200000Y-129558200D01*
X101800000Y-129558200D01*
X101800000Y-122458200D01*
X100200000Y-122458200D01*
X100200000Y-129558200D01*
X99800000Y-129558200D01*
X99800000Y-122458200D01*
X98200000Y-122458200D01*
X98200000Y-122058200D01*
X124200000Y-122058200D01*
X124200000Y-129558200D01*
X124200000Y-129558200D01*
G37*
D18*
X98700000Y-99777600D03*
D10*
G36*
X124200000Y-107077600D02*
X123800000Y-107077600D01*
X123800000Y-99977600D01*
X122200000Y-99977600D01*
X122200000Y-107077600D01*
X121800000Y-107077600D01*
X121800000Y-99977600D01*
X120200000Y-99977600D01*
X120200000Y-107077600D01*
X119800000Y-107077600D01*
X119800000Y-99977600D01*
X118200000Y-99977600D01*
X118200000Y-107077600D01*
X117800000Y-107077600D01*
X117800000Y-99977600D01*
X116200000Y-99977600D01*
X116200000Y-107077600D01*
X115800000Y-107077600D01*
X115800000Y-99977600D01*
X114200000Y-99977600D01*
X114200000Y-107077600D01*
X113800000Y-107077600D01*
X113800000Y-99977600D01*
X112200000Y-99977600D01*
X112200000Y-107077600D01*
X111800000Y-107077600D01*
X111800000Y-99977600D01*
X110200000Y-99977600D01*
X110200000Y-107077600D01*
X109800000Y-107077600D01*
X109800000Y-99977600D01*
X108200000Y-99977600D01*
X108200000Y-107077600D01*
X107800000Y-107077600D01*
X107800000Y-99977600D01*
X106200000Y-99977600D01*
X106200000Y-107077600D01*
X105800000Y-107077600D01*
X105800000Y-99977600D01*
X104200000Y-99977600D01*
X104200000Y-107077600D01*
X103800000Y-107077600D01*
X103800000Y-99977600D01*
X102200000Y-99977600D01*
X102200000Y-107077600D01*
X101800000Y-107077600D01*
X101800000Y-99977600D01*
X100200000Y-99977600D01*
X100200000Y-107077600D01*
X99800000Y-107077600D01*
X99800000Y-99977600D01*
X98200000Y-99977600D01*
X98200000Y-99577600D01*
X124200000Y-99577600D01*
X124200000Y-107077600D01*
X124200000Y-107077600D01*
G37*
D18*
X151300000Y-99777600D03*
D10*
G36*
X151800000Y-99977600D02*
X150200000Y-99977600D01*
X150200000Y-107077600D01*
X149800000Y-107077600D01*
X149800000Y-99977600D01*
X148200000Y-99977600D01*
X148200000Y-107077600D01*
X147800000Y-107077600D01*
X147800000Y-99977600D01*
X146200000Y-99977600D01*
X146200000Y-107077600D01*
X145800000Y-107077600D01*
X145800000Y-99977600D01*
X144200000Y-99977600D01*
X144200000Y-107077600D01*
X143800000Y-107077600D01*
X143800000Y-99977600D01*
X142200000Y-99977600D01*
X142200000Y-107077600D01*
X141800000Y-107077600D01*
X141800000Y-99977600D01*
X140200000Y-99977600D01*
X140200000Y-107077600D01*
X139800000Y-107077600D01*
X139800000Y-99977600D01*
X138200000Y-99977600D01*
X138200000Y-107077600D01*
X137800000Y-107077600D01*
X137800000Y-99977600D01*
X136200000Y-99977600D01*
X136200000Y-107077600D01*
X135800000Y-107077600D01*
X135800000Y-99977600D01*
X134200000Y-99977600D01*
X134200000Y-107077600D01*
X133800000Y-107077600D01*
X133800000Y-99977600D01*
X132200000Y-99977600D01*
X132200000Y-107077600D01*
X131800000Y-107077600D01*
X131800000Y-99977600D01*
X130200000Y-99977600D01*
X130200000Y-107077600D01*
X129800000Y-107077600D01*
X129800000Y-99977600D01*
X128200000Y-99977600D01*
X128200000Y-107077600D01*
X127800000Y-107077600D01*
X127800000Y-99977600D01*
X126200000Y-99977600D01*
X126200000Y-107077600D01*
X125800000Y-107077600D01*
X125800000Y-99577600D01*
X151800000Y-99577600D01*
X151800000Y-99977600D01*
X151800000Y-99977600D01*
G37*
D18*
X125000000Y-107577600D03*
D10*
G36*
X125200000Y-107677600D02*
X126800000Y-107677600D01*
X126800000Y-100577600D01*
X127200000Y-100577600D01*
X127200000Y-107677600D01*
X128800000Y-107677600D01*
X128800000Y-100577600D01*
X129200000Y-100577600D01*
X129200000Y-107677600D01*
X130800000Y-107677600D01*
X130800000Y-100577600D01*
X131200000Y-100577600D01*
X131200000Y-107677600D01*
X132800000Y-107677600D01*
X132800000Y-100577600D01*
X133200000Y-100577600D01*
X133200000Y-107677600D01*
X134800000Y-107677600D01*
X134800000Y-100577600D01*
X135200000Y-100577600D01*
X135200000Y-107677600D01*
X136800000Y-107677600D01*
X136800000Y-100577600D01*
X137200000Y-100577600D01*
X137200000Y-107677600D01*
X138800000Y-107677600D01*
X138800000Y-100577600D01*
X139200000Y-100577600D01*
X139200000Y-107677600D01*
X140800000Y-107677600D01*
X140800000Y-100577600D01*
X141200000Y-100577600D01*
X141200000Y-107677600D01*
X142800000Y-107677600D01*
X142800000Y-100577600D01*
X143200000Y-100577600D01*
X143200000Y-107677600D01*
X144800000Y-107677600D01*
X144800000Y-100577600D01*
X145200000Y-100577600D01*
X145200000Y-107677600D01*
X146800000Y-107677600D01*
X146800000Y-100577600D01*
X147200000Y-100577600D01*
X147200000Y-107677600D01*
X148800000Y-107677600D01*
X148800000Y-100577600D01*
X149200000Y-100577600D01*
X149200000Y-107677600D01*
X150800000Y-107677600D01*
X150800000Y-100577600D01*
X151200000Y-100577600D01*
X151200000Y-108077600D01*
X98800000Y-108077600D01*
X98800000Y-100577600D01*
X99200000Y-100577600D01*
X99200000Y-107677600D01*
X100800000Y-107677600D01*
X100800000Y-100577600D01*
X101200000Y-100577600D01*
X101200000Y-107677600D01*
X102800000Y-107677600D01*
X102800000Y-100577600D01*
X103200000Y-100577600D01*
X103200000Y-107677600D01*
X104800000Y-107677600D01*
X104800000Y-100577600D01*
X105200000Y-100577600D01*
X105200000Y-107677600D01*
X106800000Y-107677600D01*
X106800000Y-100577600D01*
X107200000Y-100577600D01*
X107200000Y-107677600D01*
X108800000Y-107677600D01*
X108800000Y-100577600D01*
X109200000Y-100577600D01*
X109200000Y-107677600D01*
X110800000Y-107677600D01*
X110800000Y-100577600D01*
X111200000Y-100577600D01*
X111200000Y-107677600D01*
X112800000Y-107677600D01*
X112800000Y-100577600D01*
X113200000Y-100577600D01*
X113200000Y-107677600D01*
X114800000Y-107677600D01*
X114800000Y-100577600D01*
X115200000Y-100577600D01*
X115200000Y-107677600D01*
X116800000Y-107677600D01*
X116800000Y-100577600D01*
X117200000Y-100577600D01*
X117200000Y-107677600D01*
X118800000Y-107677600D01*
X118800000Y-100577600D01*
X119200000Y-100577600D01*
X119200000Y-107677600D01*
X120800000Y-107677600D01*
X120800000Y-100577600D01*
X121200000Y-100577600D01*
X121200000Y-107677600D01*
X122800000Y-107677600D01*
X122800000Y-100577600D01*
X123200000Y-100577600D01*
X123200000Y-107677600D01*
X124800000Y-107677600D01*
X124800000Y-99577600D01*
X125200000Y-99577600D01*
X125200000Y-107677600D01*
X125200000Y-107677600D01*
G37*
D18*
X98700000Y-77297000D03*
D10*
G36*
X124200000Y-84597000D02*
X123800000Y-84597000D01*
X123800000Y-77497000D01*
X122200000Y-77497000D01*
X122200000Y-84597000D01*
X121800000Y-84597000D01*
X121800000Y-77497000D01*
X120200000Y-77497000D01*
X120200000Y-84597000D01*
X119800000Y-84597000D01*
X119800000Y-77497000D01*
X118200000Y-77497000D01*
X118200000Y-84597000D01*
X117800000Y-84597000D01*
X117800000Y-77497000D01*
X116200000Y-77497000D01*
X116200000Y-84597000D01*
X115800000Y-84597000D01*
X115800000Y-77497000D01*
X114200000Y-77497000D01*
X114200000Y-84597000D01*
X113800000Y-84597000D01*
X113800000Y-77497000D01*
X112200000Y-77497000D01*
X112200000Y-84597000D01*
X111800000Y-84597000D01*
X111800000Y-77497000D01*
X110200000Y-77497000D01*
X110200000Y-84597000D01*
X109800000Y-84597000D01*
X109800000Y-77497000D01*
X108200000Y-77497000D01*
X108200000Y-84597000D01*
X107800000Y-84597000D01*
X107800000Y-77497000D01*
X106200000Y-77497000D01*
X106200000Y-84597000D01*
X105800000Y-84597000D01*
X105800000Y-77497000D01*
X104200000Y-77497000D01*
X104200000Y-84597000D01*
X103800000Y-84597000D01*
X103800000Y-77497000D01*
X102200000Y-77497000D01*
X102200000Y-84597000D01*
X101800000Y-84597000D01*
X101800000Y-77497000D01*
X100200000Y-77497000D01*
X100200000Y-84597000D01*
X99800000Y-84597000D01*
X99800000Y-77497000D01*
X98200000Y-77497000D01*
X98200000Y-77097000D01*
X124200000Y-77097000D01*
X124200000Y-84597000D01*
X124200000Y-84597000D01*
G37*
D18*
X151300000Y-77297000D03*
D10*
G36*
X151800000Y-77497000D02*
X150200000Y-77497000D01*
X150200000Y-84597000D01*
X149800000Y-84597000D01*
X149800000Y-77497000D01*
X148200000Y-77497000D01*
X148200000Y-84597000D01*
X147800000Y-84597000D01*
X147800000Y-77497000D01*
X146200000Y-77497000D01*
X146200000Y-84597000D01*
X145800000Y-84597000D01*
X145800000Y-77497000D01*
X144200000Y-77497000D01*
X144200000Y-84597000D01*
X143800000Y-84597000D01*
X143800000Y-77497000D01*
X142200000Y-77497000D01*
X142200000Y-84597000D01*
X141800000Y-84597000D01*
X141800000Y-77497000D01*
X140200000Y-77497000D01*
X140200000Y-84597000D01*
X139800000Y-84597000D01*
X139800000Y-77497000D01*
X138200000Y-77497000D01*
X138200000Y-84597000D01*
X137800000Y-84597000D01*
X137800000Y-77497000D01*
X136200000Y-77497000D01*
X136200000Y-84597000D01*
X135800000Y-84597000D01*
X135800000Y-77497000D01*
X134200000Y-77497000D01*
X134200000Y-84597000D01*
X133800000Y-84597000D01*
X133800000Y-77497000D01*
X132200000Y-77497000D01*
X132200000Y-84597000D01*
X131800000Y-84597000D01*
X131800000Y-77497000D01*
X130200000Y-77497000D01*
X130200000Y-84597000D01*
X129800000Y-84597000D01*
X129800000Y-77497000D01*
X128200000Y-77497000D01*
X128200000Y-84597000D01*
X127800000Y-84597000D01*
X127800000Y-77497000D01*
X126200000Y-77497000D01*
X126200000Y-84597000D01*
X125800000Y-84597000D01*
X125800000Y-77097000D01*
X151800000Y-77097000D01*
X151800000Y-77497000D01*
X151800000Y-77497000D01*
G37*
D18*
X125000000Y-85097000D03*
D10*
G36*
X125200000Y-85197000D02*
X126800000Y-85197000D01*
X126800000Y-78097000D01*
X127200000Y-78097000D01*
X127200000Y-85197000D01*
X128800000Y-85197000D01*
X128800000Y-78097000D01*
X129200000Y-78097000D01*
X129200000Y-85197000D01*
X130800000Y-85197000D01*
X130800000Y-78097000D01*
X131200000Y-78097000D01*
X131200000Y-85197000D01*
X132800000Y-85197000D01*
X132800000Y-78097000D01*
X133200000Y-78097000D01*
X133200000Y-85197000D01*
X134800000Y-85197000D01*
X134800000Y-78097000D01*
X135200000Y-78097000D01*
X135200000Y-85197000D01*
X136800000Y-85197000D01*
X136800000Y-78097000D01*
X137200000Y-78097000D01*
X137200000Y-85197000D01*
X138800000Y-85197000D01*
X138800000Y-78097000D01*
X139200000Y-78097000D01*
X139200000Y-85197000D01*
X140800000Y-85197000D01*
X140800000Y-78097000D01*
X141200000Y-78097000D01*
X141200000Y-85197000D01*
X142800000Y-85197000D01*
X142800000Y-78097000D01*
X143200000Y-78097000D01*
X143200000Y-85197000D01*
X144800000Y-85197000D01*
X144800000Y-78097000D01*
X145200000Y-78097000D01*
X145200000Y-85197000D01*
X146800000Y-85197000D01*
X146800000Y-78097000D01*
X147200000Y-78097000D01*
X147200000Y-85197000D01*
X148800000Y-85197000D01*
X148800000Y-78097000D01*
X149200000Y-78097000D01*
X149200000Y-85197000D01*
X150800000Y-85197000D01*
X150800000Y-78097000D01*
X151200000Y-78097000D01*
X151200000Y-85597000D01*
X98800000Y-85597000D01*
X98800000Y-78097000D01*
X99200000Y-78097000D01*
X99200000Y-85197000D01*
X100800000Y-85197000D01*
X100800000Y-78097000D01*
X101200000Y-78097000D01*
X101200000Y-85197000D01*
X102800000Y-85197000D01*
X102800000Y-78097000D01*
X103200000Y-78097000D01*
X103200000Y-85197000D01*
X104800000Y-85197000D01*
X104800000Y-78097000D01*
X105200000Y-78097000D01*
X105200000Y-85197000D01*
X106800000Y-85197000D01*
X106800000Y-78097000D01*
X107200000Y-78097000D01*
X107200000Y-85197000D01*
X108800000Y-85197000D01*
X108800000Y-78097000D01*
X109200000Y-78097000D01*
X109200000Y-85197000D01*
X110800000Y-85197000D01*
X110800000Y-78097000D01*
X111200000Y-78097000D01*
X111200000Y-85197000D01*
X112800000Y-85197000D01*
X112800000Y-78097000D01*
X113200000Y-78097000D01*
X113200000Y-85197000D01*
X114800000Y-85197000D01*
X114800000Y-78097000D01*
X115200000Y-78097000D01*
X115200000Y-85197000D01*
X116800000Y-85197000D01*
X116800000Y-78097000D01*
X117200000Y-78097000D01*
X117200000Y-85197000D01*
X118800000Y-85197000D01*
X118800000Y-78097000D01*
X119200000Y-78097000D01*
X119200000Y-85197000D01*
X120800000Y-85197000D01*
X120800000Y-78097000D01*
X121200000Y-78097000D01*
X121200000Y-85197000D01*
X122800000Y-85197000D01*
X122800000Y-78097000D01*
X123200000Y-78097000D01*
X123200000Y-85197000D01*
X124800000Y-85197000D01*
X124800000Y-77097000D01*
X125200000Y-77097000D01*
X125200000Y-85197000D01*
X125200000Y-85197000D01*
G37*
D18*
X125000000Y-62616400D03*
D10*
G36*
X125200000Y-62716400D02*
X126800000Y-62716400D01*
X126800000Y-55616400D01*
X127200000Y-55616400D01*
X127200000Y-62716400D01*
X128800000Y-62716400D01*
X128800000Y-55616400D01*
X129200000Y-55616400D01*
X129200000Y-62716400D01*
X130800000Y-62716400D01*
X130800000Y-55616400D01*
X131200000Y-55616400D01*
X131200000Y-62716400D01*
X132800000Y-62716400D01*
X132800000Y-55616400D01*
X133200000Y-55616400D01*
X133200000Y-62716400D01*
X134800000Y-62716400D01*
X134800000Y-55616400D01*
X135200000Y-55616400D01*
X135200000Y-62716400D01*
X136800000Y-62716400D01*
X136800000Y-55616400D01*
X137200000Y-55616400D01*
X137200000Y-62716400D01*
X138800000Y-62716400D01*
X138800000Y-55616400D01*
X139200000Y-55616400D01*
X139200000Y-62716400D01*
X140800000Y-62716400D01*
X140800000Y-55616400D01*
X141200000Y-55616400D01*
X141200000Y-62716400D01*
X142800000Y-62716400D01*
X142800000Y-55616400D01*
X143200000Y-55616400D01*
X143200000Y-62716400D01*
X144800000Y-62716400D01*
X144800000Y-55616400D01*
X145200000Y-55616400D01*
X145200000Y-62716400D01*
X146800000Y-62716400D01*
X146800000Y-55616400D01*
X147200000Y-55616400D01*
X147200000Y-62716400D01*
X148800000Y-62716400D01*
X148800000Y-55616400D01*
X149200000Y-55616400D01*
X149200000Y-62716400D01*
X150800000Y-62716400D01*
X150800000Y-55616400D01*
X151200000Y-55616400D01*
X151200000Y-63116400D01*
X98800000Y-63116400D01*
X98800000Y-55616400D01*
X99200000Y-55616400D01*
X99200000Y-62716400D01*
X100800000Y-62716400D01*
X100800000Y-55616400D01*
X101200000Y-55616400D01*
X101200000Y-62716400D01*
X102800000Y-62716400D01*
X102800000Y-55616400D01*
X103200000Y-55616400D01*
X103200000Y-62716400D01*
X104800000Y-62716400D01*
X104800000Y-55616400D01*
X105200000Y-55616400D01*
X105200000Y-62716400D01*
X106800000Y-62716400D01*
X106800000Y-55616400D01*
X107200000Y-55616400D01*
X107200000Y-62716400D01*
X108800000Y-62716400D01*
X108800000Y-55616400D01*
X109200000Y-55616400D01*
X109200000Y-62716400D01*
X110800000Y-62716400D01*
X110800000Y-55616400D01*
X111200000Y-55616400D01*
X111200000Y-62716400D01*
X112800000Y-62716400D01*
X112800000Y-55616400D01*
X113200000Y-55616400D01*
X113200000Y-62716400D01*
X114800000Y-62716400D01*
X114800000Y-55616400D01*
X115200000Y-55616400D01*
X115200000Y-62716400D01*
X116800000Y-62716400D01*
X116800000Y-55616400D01*
X117200000Y-55616400D01*
X117200000Y-62716400D01*
X118800000Y-62716400D01*
X118800000Y-55616400D01*
X119200000Y-55616400D01*
X119200000Y-62716400D01*
X120800000Y-62716400D01*
X120800000Y-55616400D01*
X121200000Y-55616400D01*
X121200000Y-62716400D01*
X122800000Y-62716400D01*
X122800000Y-55616400D01*
X123200000Y-55616400D01*
X123200000Y-62716400D01*
X124800000Y-62716400D01*
X124800000Y-54616400D01*
X125200000Y-54616400D01*
X125200000Y-62716400D01*
X125200000Y-62716400D01*
G37*
D18*
X151300000Y-54816400D03*
D10*
G36*
X151800000Y-55016400D02*
X150200000Y-55016400D01*
X150200000Y-62116400D01*
X149800000Y-62116400D01*
X149800000Y-55016400D01*
X148200000Y-55016400D01*
X148200000Y-62116400D01*
X147800000Y-62116400D01*
X147800000Y-55016400D01*
X146200000Y-55016400D01*
X146200000Y-62116400D01*
X145800000Y-62116400D01*
X145800000Y-55016400D01*
X144200000Y-55016400D01*
X144200000Y-62116400D01*
X143800000Y-62116400D01*
X143800000Y-55016400D01*
X142200000Y-55016400D01*
X142200000Y-62116400D01*
X141800000Y-62116400D01*
X141800000Y-55016400D01*
X140200000Y-55016400D01*
X140200000Y-62116400D01*
X139800000Y-62116400D01*
X139800000Y-55016400D01*
X138200000Y-55016400D01*
X138200000Y-62116400D01*
X137800000Y-62116400D01*
X137800000Y-55016400D01*
X136200000Y-55016400D01*
X136200000Y-62116400D01*
X135800000Y-62116400D01*
X135800000Y-55016400D01*
X134200000Y-55016400D01*
X134200000Y-62116400D01*
X133800000Y-62116400D01*
X133800000Y-55016400D01*
X132200000Y-55016400D01*
X132200000Y-62116400D01*
X131800000Y-62116400D01*
X131800000Y-55016400D01*
X130200000Y-55016400D01*
X130200000Y-62116400D01*
X129800000Y-62116400D01*
X129800000Y-55016400D01*
X128200000Y-55016400D01*
X128200000Y-62116400D01*
X127800000Y-62116400D01*
X127800000Y-55016400D01*
X126200000Y-55016400D01*
X126200000Y-62116400D01*
X125800000Y-62116400D01*
X125800000Y-54616400D01*
X151800000Y-54616400D01*
X151800000Y-55016400D01*
X151800000Y-55016400D01*
G37*
D18*
X98700000Y-54816400D03*
D10*
G36*
X124200000Y-62116400D02*
X123800000Y-62116400D01*
X123800000Y-55016400D01*
X122200000Y-55016400D01*
X122200000Y-62116400D01*
X121800000Y-62116400D01*
X121800000Y-55016400D01*
X120200000Y-55016400D01*
X120200000Y-62116400D01*
X119800000Y-62116400D01*
X119800000Y-55016400D01*
X118200000Y-55016400D01*
X118200000Y-62116400D01*
X117800000Y-62116400D01*
X117800000Y-55016400D01*
X116200000Y-55016400D01*
X116200000Y-62116400D01*
X115800000Y-62116400D01*
X115800000Y-55016400D01*
X114200000Y-55016400D01*
X114200000Y-62116400D01*
X113800000Y-62116400D01*
X113800000Y-55016400D01*
X112200000Y-55016400D01*
X112200000Y-62116400D01*
X111800000Y-62116400D01*
X111800000Y-55016400D01*
X110200000Y-55016400D01*
X110200000Y-62116400D01*
X109800000Y-62116400D01*
X109800000Y-55016400D01*
X108200000Y-55016400D01*
X108200000Y-62116400D01*
X107800000Y-62116400D01*
X107800000Y-55016400D01*
X106200000Y-55016400D01*
X106200000Y-62116400D01*
X105800000Y-62116400D01*
X105800000Y-55016400D01*
X104200000Y-55016400D01*
X104200000Y-62116400D01*
X103800000Y-62116400D01*
X103800000Y-55016400D01*
X102200000Y-55016400D01*
X102200000Y-62116400D01*
X101800000Y-62116400D01*
X101800000Y-55016400D01*
X100200000Y-55016400D01*
X100200000Y-62116400D01*
X99800000Y-62116400D01*
X99800000Y-55016400D01*
X98200000Y-55016400D01*
X98200000Y-54616400D01*
X124200000Y-54616400D01*
X124200000Y-62116400D01*
X124200000Y-62116400D01*
G37*
D18*
X125000000Y-40135800D03*
D10*
G36*
X125200000Y-40235800D02*
X126800000Y-40235800D01*
X126800000Y-33135800D01*
X127200000Y-33135800D01*
X127200000Y-40235800D01*
X128800000Y-40235800D01*
X128800000Y-33135800D01*
X129200000Y-33135800D01*
X129200000Y-40235800D01*
X130800000Y-40235800D01*
X130800000Y-33135800D01*
X131200000Y-33135800D01*
X131200000Y-40235800D01*
X132800000Y-40235800D01*
X132800000Y-33135800D01*
X133200000Y-33135800D01*
X133200000Y-40235800D01*
X134800000Y-40235800D01*
X134800000Y-33135800D01*
X135200000Y-33135800D01*
X135200000Y-40235800D01*
X136800000Y-40235800D01*
X136800000Y-33135800D01*
X137200000Y-33135800D01*
X137200000Y-40235800D01*
X138800000Y-40235800D01*
X138800000Y-33135800D01*
X139200000Y-33135800D01*
X139200000Y-40235800D01*
X140800000Y-40235800D01*
X140800000Y-33135800D01*
X141200000Y-33135800D01*
X141200000Y-40235800D01*
X142800000Y-40235800D01*
X142800000Y-33135800D01*
X143200000Y-33135800D01*
X143200000Y-40235800D01*
X144800000Y-40235800D01*
X144800000Y-33135800D01*
X145200000Y-33135800D01*
X145200000Y-40235800D01*
X146800000Y-40235800D01*
X146800000Y-33135800D01*
X147200000Y-33135800D01*
X147200000Y-40235800D01*
X148800000Y-40235800D01*
X148800000Y-33135800D01*
X149200000Y-33135800D01*
X149200000Y-40235800D01*
X150800000Y-40235800D01*
X150800000Y-33135800D01*
X151200000Y-33135800D01*
X151200000Y-40635800D01*
X98800000Y-40635800D01*
X98800000Y-33135800D01*
X99200000Y-33135800D01*
X99200000Y-40235800D01*
X100800000Y-40235800D01*
X100800000Y-33135800D01*
X101200000Y-33135800D01*
X101200000Y-40235800D01*
X102800000Y-40235800D01*
X102800000Y-33135800D01*
X103200000Y-33135800D01*
X103200000Y-40235800D01*
X104800000Y-40235800D01*
X104800000Y-33135800D01*
X105200000Y-33135800D01*
X105200000Y-40235800D01*
X106800000Y-40235800D01*
X106800000Y-33135800D01*
X107200000Y-33135800D01*
X107200000Y-40235800D01*
X108800000Y-40235800D01*
X108800000Y-33135800D01*
X109200000Y-33135800D01*
X109200000Y-40235800D01*
X110800000Y-40235800D01*
X110800000Y-33135800D01*
X111200000Y-33135800D01*
X111200000Y-40235800D01*
X112800000Y-40235800D01*
X112800000Y-33135800D01*
X113200000Y-33135800D01*
X113200000Y-40235800D01*
X114800000Y-40235800D01*
X114800000Y-33135800D01*
X115200000Y-33135800D01*
X115200000Y-40235800D01*
X116800000Y-40235800D01*
X116800000Y-33135800D01*
X117200000Y-33135800D01*
X117200000Y-40235800D01*
X118800000Y-40235800D01*
X118800000Y-33135800D01*
X119200000Y-33135800D01*
X119200000Y-40235800D01*
X120800000Y-40235800D01*
X120800000Y-33135800D01*
X121200000Y-33135800D01*
X121200000Y-40235800D01*
X122800000Y-40235800D01*
X122800000Y-33135800D01*
X123200000Y-33135800D01*
X123200000Y-40235800D01*
X124800000Y-40235800D01*
X124800000Y-32135800D01*
X125200000Y-32135800D01*
X125200000Y-40235800D01*
X125200000Y-40235800D01*
G37*
D18*
X151300000Y-32335800D03*
D10*
G36*
X151800000Y-32535800D02*
X150200000Y-32535800D01*
X150200000Y-39635800D01*
X149800000Y-39635800D01*
X149800000Y-32535800D01*
X148200000Y-32535800D01*
X148200000Y-39635800D01*
X147800000Y-39635800D01*
X147800000Y-32535800D01*
X146200000Y-32535800D01*
X146200000Y-39635800D01*
X145800000Y-39635800D01*
X145800000Y-32535800D01*
X144200000Y-32535800D01*
X144200000Y-39635800D01*
X143800000Y-39635800D01*
X143800000Y-32535800D01*
X142200000Y-32535800D01*
X142200000Y-39635800D01*
X141800000Y-39635800D01*
X141800000Y-32535800D01*
X140200000Y-32535800D01*
X140200000Y-39635800D01*
X139800000Y-39635800D01*
X139800000Y-32535800D01*
X138200000Y-32535800D01*
X138200000Y-39635800D01*
X137800000Y-39635800D01*
X137800000Y-32535800D01*
X136200000Y-32535800D01*
X136200000Y-39635800D01*
X135800000Y-39635800D01*
X135800000Y-32535800D01*
X134200000Y-32535800D01*
X134200000Y-39635800D01*
X133800000Y-39635800D01*
X133800000Y-32535800D01*
X132200000Y-32535800D01*
X132200000Y-39635800D01*
X131800000Y-39635800D01*
X131800000Y-32535800D01*
X130200000Y-32535800D01*
X130200000Y-39635800D01*
X129800000Y-39635800D01*
X129800000Y-32535800D01*
X128200000Y-32535800D01*
X128200000Y-39635800D01*
X127800000Y-39635800D01*
X127800000Y-32535800D01*
X126200000Y-32535800D01*
X126200000Y-39635800D01*
X125800000Y-39635800D01*
X125800000Y-32135800D01*
X151800000Y-32135800D01*
X151800000Y-32535800D01*
X151800000Y-32535800D01*
G37*
D18*
X98700000Y-32335800D03*
D10*
G36*
X124200000Y-39635800D02*
X123800000Y-39635800D01*
X123800000Y-32535800D01*
X122200000Y-32535800D01*
X122200000Y-39635800D01*
X121800000Y-39635800D01*
X121800000Y-32535800D01*
X120200000Y-32535800D01*
X120200000Y-39635800D01*
X119800000Y-39635800D01*
X119800000Y-32535800D01*
X118200000Y-32535800D01*
X118200000Y-39635800D01*
X117800000Y-39635800D01*
X117800000Y-32535800D01*
X116200000Y-32535800D01*
X116200000Y-39635800D01*
X115800000Y-39635800D01*
X115800000Y-32535800D01*
X114200000Y-32535800D01*
X114200000Y-39635800D01*
X113800000Y-39635800D01*
X113800000Y-32535800D01*
X112200000Y-32535800D01*
X112200000Y-39635800D01*
X111800000Y-39635800D01*
X111800000Y-32535800D01*
X110200000Y-32535800D01*
X110200000Y-39635800D01*
X109800000Y-39635800D01*
X109800000Y-32535800D01*
X108200000Y-32535800D01*
X108200000Y-39635800D01*
X107800000Y-39635800D01*
X107800000Y-32535800D01*
X106200000Y-32535800D01*
X106200000Y-39635800D01*
X105800000Y-39635800D01*
X105800000Y-32535800D01*
X104200000Y-32535800D01*
X104200000Y-39635800D01*
X103800000Y-39635800D01*
X103800000Y-32535800D01*
X102200000Y-32535800D01*
X102200000Y-39635800D01*
X101800000Y-39635800D01*
X101800000Y-32535800D01*
X100200000Y-32535800D01*
X100200000Y-39635800D01*
X99800000Y-39635800D01*
X99800000Y-32535800D01*
X98200000Y-32535800D01*
X98200000Y-32135800D01*
X124200000Y-32135800D01*
X124200000Y-39635800D01*
X124200000Y-39635800D01*
G37*
D19*
X157575496Y-221225496D03*
X152645016Y-215895016D03*
X152830000Y-99780000D03*
X158030000Y-31780000D03*
X136530000Y-225305000D03*
X152930000Y-77280000D03*
X155430000Y-31880000D03*
X154130000Y-53580000D03*
X154305000Y-29180000D03*
X158869040Y-208080000D03*
X153180000Y-32380000D03*
X94230000Y-30880000D03*
X96330000Y-99780000D03*
X97130000Y-77180000D03*
X96984504Y-30534504D03*
X105730000Y-218780000D03*
X91354970Y-54780000D03*
X97030000Y-54780000D03*
X96330000Y-32480000D03*
X105230000Y-214205000D03*
X112430000Y-207680000D03*
X105330000Y-201657104D03*
X97130000Y-122280000D03*
X96451809Y-200500579D03*
X111155000Y-203080000D03*
X97130000Y-144780000D03*
X96404175Y-198862638D03*
X97330000Y-167380000D03*
X97430000Y-189780000D03*
X97761210Y-198518456D03*
X152530000Y-122280000D03*
X156619039Y-198604314D03*
X140511997Y-214761997D03*
X141330000Y-211655000D03*
X152630000Y-144780000D03*
X155223964Y-198486959D03*
X152530000Y-167380000D03*
X153827786Y-198383554D03*
X151830000Y-213005000D03*
X151430000Y-209880000D03*
X152430000Y-189780000D03*
X152428708Y-198332698D03*
D20*
X157575496Y-221225496D02*
X152645016Y-216295016D01*
X152645016Y-216295016D02*
X152645016Y-215895016D01*
X152954024Y-215895016D02*
X152645016Y-215895016D01*
X152264315Y-99780000D02*
X151330000Y-99780000D01*
X152830000Y-99780000D02*
X152264315Y-99780000D01*
X153032075Y-18679980D02*
X158030000Y-23677905D01*
X158030000Y-23677905D02*
X158030000Y-31780000D01*
X137504180Y-18679980D02*
X153032075Y-18679980D01*
X135210000Y-16385800D02*
X137504180Y-18679980D01*
X134730000Y-222980000D02*
X134745000Y-222965000D01*
X134745000Y-222965000D02*
X134745000Y-220492501D01*
X136130001Y-224380001D02*
X134730000Y-222980000D01*
X136530000Y-225305000D02*
X136130001Y-224905001D01*
X136130001Y-224905001D02*
X136130001Y-224380001D01*
X152364315Y-77280000D02*
X151330000Y-77280000D01*
X152930000Y-77280000D02*
X152364315Y-77280000D01*
X152679990Y-19529990D02*
X155430000Y-22280000D01*
X155430000Y-22280000D02*
X155430000Y-31880000D01*
X132670000Y-16385800D02*
X135814190Y-19529990D01*
X135814190Y-19529990D02*
X152679990Y-19529990D01*
X152530000Y-53480000D02*
X154030000Y-53480000D01*
X154030000Y-53480000D02*
X154130000Y-53580000D01*
X154430000Y-28880000D02*
X154430000Y-29055000D01*
X154430000Y-29055000D02*
X154305000Y-29180000D01*
X141030000Y-26580000D02*
X152130000Y-26580000D01*
X152130000Y-26580000D02*
X154430000Y-28880000D01*
X134159999Y-216852502D02*
X133360000Y-217652501D01*
X158869040Y-208080000D02*
X150821540Y-216127500D01*
X150821540Y-216127500D02*
X134885001Y-216127500D01*
X134885001Y-216127500D02*
X134159999Y-216852502D01*
X151330000Y-54721078D02*
X151559461Y-54950539D01*
X152530000Y-53480000D02*
X151964315Y-53480000D01*
X151964315Y-53480000D02*
X151330000Y-54114315D01*
X151330000Y-54114315D02*
X151330000Y-54721078D01*
X139430000Y-24980000D02*
X141030000Y-26580000D01*
X139430000Y-21880000D02*
X139430000Y-24980000D01*
X137930000Y-20380000D02*
X139430000Y-21880000D01*
X131630000Y-20380000D02*
X137930000Y-20380000D01*
X130130000Y-18880000D02*
X131630000Y-20380000D01*
X130130000Y-16385800D02*
X130130000Y-18880000D01*
X151449761Y-32360239D02*
X153160239Y-32360239D01*
X153160239Y-32360239D02*
X153180000Y-32380000D01*
X130260790Y-31410790D02*
X140730000Y-31410790D01*
X140730000Y-31410790D02*
X150500312Y-31410790D01*
X150500312Y-31410790D02*
X151449761Y-32360239D01*
X128030000Y-29180000D02*
X130260790Y-31410790D01*
X128030000Y-17886460D02*
X128030000Y-29180000D01*
X127590000Y-16385800D02*
X127590000Y-17446460D01*
X127590000Y-17446460D02*
X128030000Y-17886460D01*
D21*
X126530000Y-188080000D02*
X126088612Y-188080000D01*
X126088612Y-188080000D02*
X125000010Y-189168602D01*
X125000010Y-189168602D02*
X125000010Y-189168622D01*
X129030000Y-185580000D02*
X126530000Y-188080000D01*
X129030000Y-181580000D02*
X129030000Y-185580000D01*
X125074990Y-177624990D02*
X129030000Y-181580000D01*
X125074990Y-176080000D02*
X125074990Y-176324990D01*
X125074990Y-175340000D02*
X125074990Y-176080000D01*
X125074990Y-176080000D02*
X125074990Y-177624990D01*
X121030000Y-158580000D02*
X121030000Y-163080000D01*
X121030000Y-163080000D02*
X124169390Y-166219390D01*
X125030000Y-154580000D02*
X121030000Y-158580000D01*
X125030000Y-152870000D02*
X125030000Y-154580000D01*
X124169390Y-166219390D02*
X124779390Y-166219390D01*
X124779390Y-166219390D02*
X125030000Y-166470000D01*
X125030000Y-166470000D02*
X125030000Y-166764078D01*
X127030000Y-134580000D02*
X129030000Y-136580000D01*
X126030000Y-134580000D02*
X127030000Y-134580000D01*
X124970000Y-133520000D02*
X126030000Y-134580000D01*
X124970000Y-130440000D02*
X124970000Y-133520000D01*
X129030000Y-136580000D02*
X129030000Y-139580000D01*
X129030000Y-139580000D02*
X125030000Y-143580000D01*
X125030000Y-143580000D02*
X125030000Y-143940000D01*
X124921388Y-189090000D02*
X125050000Y-189090000D01*
X125050000Y-189120000D02*
X124951388Y-189120000D01*
X124951388Y-189120000D02*
X125000010Y-189168622D01*
X125030000Y-107630000D02*
X125030000Y-110580000D01*
X124531378Y-121258190D02*
X125030000Y-121756812D01*
X125030000Y-110580000D02*
X121530000Y-114080000D01*
X121530000Y-114080000D02*
X121530000Y-119080000D01*
X121530000Y-119080000D02*
X123708190Y-121258190D01*
X123708190Y-121258190D02*
X124531378Y-121258190D01*
X125030000Y-121756812D02*
X125030000Y-121780000D01*
X129030000Y-93580000D02*
X125000000Y-97610000D01*
X125000000Y-97610000D02*
X125000000Y-99246212D01*
X129030000Y-92080000D02*
X129030000Y-93580000D01*
X125030000Y-88080000D02*
X129030000Y-92080000D01*
X125030000Y-85280000D02*
X125030000Y-88080000D01*
X121030000Y-68580000D02*
X121030000Y-72795612D01*
X121030000Y-72795612D02*
X124668302Y-76433914D01*
X124930000Y-64680000D02*
X121030000Y-68580000D01*
X124930000Y-63130000D02*
X124930000Y-64680000D01*
X125000000Y-54135000D02*
X125055000Y-54080000D01*
X125055000Y-54080000D02*
X125355000Y-53780000D01*
X129030000Y-46080000D02*
X129030000Y-50105000D01*
X129030000Y-50105000D02*
X125055000Y-54080000D01*
X124930000Y-41980000D02*
X129030000Y-46080000D01*
X124930000Y-40280000D02*
X124930000Y-41980000D01*
X121530000Y-24080000D02*
X125050000Y-20560000D01*
X125050000Y-20560000D02*
X125050000Y-16385800D01*
X121530000Y-27580000D02*
X121530000Y-24080000D01*
X124531378Y-30581378D02*
X121530000Y-27580000D01*
X124780000Y-31584412D02*
X124531378Y-31335790D01*
X124531378Y-31335790D02*
X124531378Y-30581378D01*
X125000010Y-189390000D02*
X125000010Y-189480000D01*
X125000010Y-189168622D02*
X125000010Y-189390000D01*
X125000010Y-189168622D02*
X125000000Y-189168612D01*
D20*
X125050000Y-189400000D02*
X125050000Y-189120000D01*
D21*
X125050000Y-189120000D02*
X125050000Y-189090000D01*
D20*
X125074990Y-175340000D02*
X125074990Y-174924990D01*
D21*
X125000010Y-166789990D02*
X125000010Y-166980000D01*
X125030000Y-166764078D02*
X125025922Y-166764078D01*
X125025922Y-166764078D02*
X125000010Y-166789990D01*
D20*
X125030000Y-152870000D02*
X125030000Y-152280000D01*
D21*
X125030000Y-144177412D02*
X125000010Y-144207402D01*
X125030000Y-143940000D02*
X125030000Y-144177412D01*
D20*
X125030000Y-152280000D02*
X125030000Y-143940000D01*
D21*
X125000010Y-144207402D02*
X125000010Y-144530000D01*
X125000010Y-121726822D02*
X125000010Y-122040000D01*
X125000010Y-121726822D02*
X124711594Y-121438406D01*
X125000010Y-121750010D02*
X125000010Y-121726822D01*
X125000010Y-99379990D02*
X125000010Y-99520000D01*
X125030000Y-99322278D02*
X125030000Y-99350000D01*
X125030000Y-99350000D02*
X125000010Y-99379990D01*
X125030000Y-98700000D02*
X125030000Y-99216212D01*
D20*
X125000000Y-99246212D02*
X125030000Y-107630000D01*
D21*
X125030000Y-99322278D02*
X125030000Y-99216212D01*
X125030000Y-99216212D02*
X125000000Y-99246212D01*
X125000000Y-54570000D02*
X125000000Y-54135000D01*
D20*
X125030000Y-62380000D02*
X125000000Y-54570000D01*
X125000000Y-54570000D02*
X125030000Y-60530000D01*
X125030000Y-60530000D02*
X124930000Y-60630000D01*
X124930000Y-60630000D02*
X124930000Y-63130000D01*
X125068590Y-62841410D02*
X125068590Y-62730000D01*
X125068590Y-62730000D02*
X125068590Y-62418590D01*
X124930000Y-62868590D02*
X125068590Y-62730000D01*
X124930000Y-63130000D02*
X124930000Y-62868590D01*
X124930000Y-63130000D02*
X124925010Y-63125010D01*
X124925010Y-62984990D02*
X125030000Y-62880000D01*
X124925010Y-63125010D02*
X124925010Y-62984990D01*
X124930000Y-62980000D02*
X124930000Y-63130000D01*
X125030000Y-62880000D02*
X125030000Y-62380000D01*
X124930000Y-62980000D02*
X125068590Y-62841410D01*
X125068590Y-62418590D02*
X125030000Y-62380000D01*
D21*
X124930000Y-62980000D02*
X125030000Y-62880000D01*
D20*
X125030000Y-39980000D02*
X124999990Y-32130000D01*
D21*
X124780000Y-31530000D02*
X124780000Y-31584412D01*
X124999990Y-31804422D02*
X124999990Y-32130000D01*
X124780000Y-31584412D02*
X125000000Y-31804412D01*
X125000000Y-31804412D02*
X124999990Y-31804422D01*
D20*
X125030000Y-107630000D02*
X125030000Y-108030000D01*
X125074990Y-85324990D02*
X124999990Y-77040000D01*
D21*
X124668302Y-76433914D02*
X125000000Y-76765612D01*
X124999990Y-76765622D02*
X124999990Y-77040000D01*
X125000000Y-76765612D02*
X124999990Y-76765622D01*
D20*
X124930000Y-40280000D02*
X124930000Y-40080000D01*
X124930000Y-40080000D02*
X125030000Y-39980000D01*
X125230000Y-85480000D02*
X125074990Y-85324990D01*
X125030000Y-85280000D02*
X125230000Y-85480000D01*
X124930000Y-85180000D02*
X125030000Y-85280000D01*
X125030000Y-121780000D02*
X125030000Y-129580000D01*
X125030000Y-130080000D02*
X125030000Y-129580000D01*
X125030000Y-129580000D02*
X124930000Y-129480000D01*
X125330000Y-130380000D02*
X125030000Y-130080000D01*
X125030000Y-174880000D02*
X125030000Y-166764078D01*
X125074990Y-174924990D02*
X125030000Y-174880000D01*
X125050000Y-197381388D02*
X125050000Y-189400000D01*
D21*
X125050000Y-198080000D02*
X125050000Y-197381388D01*
D20*
X125050000Y-198080000D02*
X125050000Y-198480000D01*
D21*
X125050000Y-213750000D02*
X125050000Y-198080000D01*
D20*
X125050000Y-197381388D02*
X125050000Y-196100000D01*
X125050000Y-196100000D02*
X125030000Y-196080000D01*
D21*
X124999990Y-197331378D02*
X125050000Y-197381388D01*
X125050000Y-213750000D02*
X125050000Y-217652501D01*
D20*
X108024200Y-16385800D02*
X108024200Y-17085800D01*
X108024200Y-17085800D02*
X94230000Y-30880000D01*
X98830000Y-99780000D02*
X98930000Y-99680000D01*
X96330000Y-99780000D02*
X98830000Y-99780000D01*
X114890000Y-16385800D02*
X108024200Y-16385800D01*
X97795685Y-77280000D02*
X98591678Y-77280000D01*
X97130000Y-77180000D02*
X97695685Y-77180000D01*
X97695685Y-77180000D02*
X97795685Y-77280000D01*
X104105030Y-29710770D02*
X97434228Y-29710770D01*
X97434228Y-29710770D02*
X96984504Y-30160494D01*
X96984504Y-30160494D02*
X96984504Y-30534504D01*
X117430000Y-16385800D02*
X104105030Y-29710770D01*
X105730000Y-218780000D02*
X105730000Y-219380000D01*
X105730000Y-219380000D02*
X106842501Y-220492501D01*
X97030000Y-54780000D02*
X91354970Y-54780000D01*
X106842501Y-220492501D02*
X109815000Y-220492501D01*
X98730000Y-54780000D02*
X98830000Y-54880000D01*
X97030000Y-54780000D02*
X98730000Y-54780000D01*
X98549220Y-30560780D02*
X96630000Y-32480000D01*
X96630000Y-32480000D02*
X96330000Y-32480000D01*
X119970000Y-16385800D02*
X105795020Y-30560780D01*
X105795020Y-30560780D02*
X98549220Y-30560780D01*
X105230000Y-214205000D02*
X107330000Y-216305000D01*
X107330000Y-216305000D02*
X107330000Y-216552501D01*
X109230000Y-208080000D02*
X109130000Y-208180000D01*
X109130000Y-208180000D02*
X108030000Y-209280000D01*
X112430000Y-207680000D02*
X109630000Y-207680000D01*
X109630000Y-207680000D02*
X109130000Y-208180000D01*
X107330000Y-212180000D02*
X107330000Y-216552501D01*
X107330000Y-216552501D02*
X108430000Y-217652501D01*
X108030000Y-211480000D02*
X107330000Y-212180000D01*
X108030000Y-209280000D02*
X108030000Y-211480000D01*
X99499688Y-31410790D02*
X98580239Y-32330239D01*
X122510000Y-19100000D02*
X110199210Y-31410790D01*
X110199210Y-31410790D02*
X99499688Y-31410790D01*
X122510000Y-16385800D02*
X122510000Y-19100000D01*
X114830000Y-203680000D02*
X112707104Y-201657104D01*
X112707104Y-201657104D02*
X105330000Y-201657104D01*
X114890000Y-203742094D02*
X114830000Y-203680000D01*
X114890000Y-213750000D02*
X114890000Y-203742094D01*
X98541439Y-122291439D02*
X98591439Y-122241439D01*
X98530000Y-122280000D02*
X98541439Y-122291439D01*
X97130000Y-122280000D02*
X98530000Y-122280000D01*
X114890000Y-213750000D02*
X113970000Y-214670000D01*
X113970000Y-214670000D02*
X113970000Y-217652501D01*
X112882104Y-200532104D02*
X96930000Y-200532104D01*
X96898475Y-200500579D02*
X96930000Y-200532104D01*
X96930000Y-200532104D02*
X96482649Y-200532104D01*
X96451809Y-200500579D02*
X96898475Y-200500579D01*
X111155000Y-203080000D02*
X103427905Y-203080000D01*
X114555001Y-221292500D02*
X115355000Y-220492501D01*
X103427905Y-203080000D02*
X100979990Y-205527915D01*
X100979990Y-205527915D02*
X100979990Y-213832085D01*
X113829999Y-222017502D02*
X114555001Y-221292500D01*
X100979990Y-213832085D02*
X104379990Y-217232085D01*
X104379990Y-217232085D02*
X104379990Y-219232085D01*
X107165407Y-222017502D02*
X113829999Y-222017502D01*
X104379990Y-219232085D02*
X107165407Y-222017502D01*
X117430000Y-204984188D02*
X115242084Y-202796272D01*
X115242084Y-202796272D02*
X115146272Y-202796272D01*
X115146272Y-202796272D02*
X112882104Y-200532104D01*
X98631739Y-144681739D02*
X98681739Y-144631739D01*
X98533478Y-144780000D02*
X98631739Y-144681739D01*
X97130000Y-144780000D02*
X98533478Y-144780000D01*
X117430000Y-212689340D02*
X117430000Y-204984188D01*
X117430000Y-213750000D02*
X117430000Y-212689340D01*
X119970000Y-213750000D02*
X119970000Y-206480000D01*
X119970000Y-206480000D02*
X119970000Y-206322094D01*
X119970000Y-206480000D02*
X119970000Y-206322093D01*
X119970000Y-206322093D02*
X113330001Y-199682094D01*
X113330001Y-199682094D02*
X97223631Y-199682094D01*
X97223631Y-199682094D02*
X96404175Y-198862638D01*
X98430000Y-167380000D02*
X98730000Y-167080000D01*
X97330000Y-167380000D02*
X98430000Y-167380000D01*
X119970000Y-213750000D02*
X116740000Y-216980000D01*
X116740000Y-216980000D02*
X116740000Y-217652501D01*
X97761210Y-198518456D02*
X96747480Y-197504726D01*
X96747480Y-197504726D02*
X92540272Y-197504726D01*
X92540272Y-197504726D02*
X91704999Y-198339999D01*
X91704999Y-198339999D02*
X91704999Y-213310502D01*
X115749989Y-222867512D02*
X117325001Y-221292500D01*
X91704999Y-213310502D02*
X101262009Y-222867512D01*
X101262009Y-222867512D02*
X115749989Y-222867512D01*
X117325001Y-221292500D02*
X118125000Y-220492501D01*
X97430000Y-189780000D02*
X98430000Y-189780000D01*
X98499688Y-198725010D02*
X97967764Y-198725010D01*
X97967764Y-198725010D02*
X97761210Y-198518456D01*
X113575010Y-198725010D02*
X98499688Y-198725010D01*
X122330000Y-207480000D02*
X113575010Y-198725010D01*
X122330000Y-212509340D02*
X122330000Y-207480000D01*
X122510000Y-213750000D02*
X122510000Y-212689340D01*
X122510000Y-212689340D02*
X122330000Y-212509340D01*
X159994041Y-220471953D02*
X158115497Y-222350497D01*
X159994041Y-206735978D02*
X159994041Y-220471953D01*
X154533103Y-201275040D02*
X159994041Y-206735978D01*
X153803397Y-201275040D02*
X154533103Y-201275040D01*
X158115497Y-222350497D02*
X139372996Y-222350497D01*
X139372996Y-222350497D02*
X138314999Y-221292500D01*
X138314999Y-221292500D02*
X137515000Y-220492501D01*
X151964315Y-122280000D02*
X151230000Y-122280000D01*
X152530000Y-122280000D02*
X151964315Y-122280000D01*
X155398437Y-199680000D02*
X155695925Y-199680000D01*
X155695925Y-199680000D02*
X156619039Y-198756886D01*
X156619039Y-198756886D02*
X156619039Y-198604314D01*
X137034960Y-201275040D02*
X153803397Y-201275040D01*
X153803397Y-201275040D02*
X155398437Y-199680000D01*
X135210000Y-203495040D02*
X135210000Y-203100000D01*
X135210000Y-203100000D02*
X137034960Y-201275040D01*
X135210000Y-213750000D02*
X135210000Y-203495040D01*
X141330000Y-211655000D02*
X141330000Y-213943994D01*
X141330000Y-213943994D02*
X140511997Y-214761997D01*
X151566522Y-144880000D02*
X151448261Y-144761739D01*
X152630000Y-144780000D02*
X152064315Y-144780000D01*
X152064315Y-144780000D02*
X151964315Y-144880000D01*
X151964315Y-144880000D02*
X151566522Y-144880000D01*
X134130000Y-200425030D02*
X153451312Y-200425030D01*
X153451312Y-200425030D02*
X155223964Y-198652378D01*
X155223964Y-198652378D02*
X155223964Y-198486959D01*
X132670000Y-201885030D02*
X134130000Y-200425030D01*
X132670000Y-213750000D02*
X132670000Y-201885030D01*
X151764315Y-167180000D02*
X151230000Y-167180000D01*
X152530000Y-167380000D02*
X151964315Y-167380000D01*
X151964315Y-167380000D02*
X151764315Y-167180000D01*
X132030000Y-199575020D02*
X152851388Y-199575020D01*
X152851388Y-199575020D02*
X153827786Y-198598622D01*
X153827786Y-198598622D02*
X153827786Y-198383554D01*
X130130000Y-201475020D02*
X132030000Y-199575020D01*
X130130000Y-213750000D02*
X130130000Y-201475020D01*
X151430000Y-212480000D02*
X151830000Y-212880000D01*
X151830000Y-212880000D02*
X151830000Y-213005000D01*
X151430000Y-209880000D02*
X151430000Y-212480000D01*
X151764315Y-189680000D02*
X151330000Y-189680000D01*
X152430000Y-189780000D02*
X151864315Y-189780000D01*
X151864315Y-189780000D02*
X151764315Y-189680000D01*
X151500312Y-198725010D02*
X152036396Y-198725010D01*
X152036396Y-198725010D02*
X152428708Y-198332698D01*
X127590000Y-201365010D02*
X130230000Y-198725010D01*
X130230000Y-198725010D02*
X151500312Y-198725010D01*
X127590000Y-213750000D02*
X127590000Y-201365010D01*
M02*
