M48
INCH,TZ
T1C0.068
T2C0.073
T3C0.079
T4C0.165
%
G90
G05
T1
X61260Y-71769
X61260Y-36336
X61260Y-18816
X37165Y-80529
X37165Y-10154
X37165Y-63009
X37165Y-27576
X37165Y-45096
X61260Y-54249
X61260Y-80529
T2
X49223Y-45588
X49178Y-10147
X49212Y-19003
X49245Y-63309
X49217Y-36722
X49228Y-72160
X49223Y-54441
X49200Y-27868
T3
X57087Y-82103
X41339Y-82103
X41339Y-5908
X57087Y-5908
T4
X45532Y-54443
X45526Y-36724
X45521Y-19005
X45537Y-72161
X52936Y-63301
X52891Y-27860
X52914Y-45581
X52869Y-10140
T0
M30
