M48
INCH,TZ
T1C0.016
T2C0.039
T3C0.126
%
G90
G05
T1
X35967Y-21567
X37098Y-12157
X37925Y-12787
X37925Y-39283
X37954Y-78292
X37973Y-78937
X38183Y-12021
X38201Y-21567
X38240Y-30386
X38240Y-48142
X38240Y-57000
X38319Y-65898
X38358Y-74717
X38489Y-78157
X41429Y-84333
X41469Y-79393
X41626Y-86134
X43762Y-79953
X44264Y-81764
X53752Y-88703
X55320Y-84552
X55642Y-83329
X59618Y-82630
X59776Y-83860
X60011Y-78084
X60012Y-74717
X60051Y-48142
X60051Y-65898
X60091Y-57000
X60096Y-84998
X60169Y-39283
X60209Y-30425
X60307Y-12748
X60562Y-78104
X60681Y-21094
X60750Y-11488
X61112Y-78144
X61193Y-12551
X61661Y-78191
X62038Y-87097
X62217Y-12512
X62547Y-81921
T2
X45232Y-6451
X46232Y-6451
X47232Y-6451
X48232Y-6451
X49232Y-6451
X50232Y-6451
X51232Y-6451
X52232Y-6451
X53232Y-6451
X54232Y-6451
X45232Y-84154
X46232Y-84154
X47232Y-84154
X48232Y-84154
X49232Y-84154
X50232Y-84154
X51232Y-84154
X52232Y-84154
X53232Y-84154
X54232Y-84154
X42689Y-85690
X43234Y-86808
X43780Y-85690
X44325Y-86808
X44870Y-85690
X45415Y-86808
X45961Y-85690
X46506Y-86808
X47051Y-85690
X47596Y-86808
X48142Y-85690
X48687Y-86808
X49232Y-85690
X49778Y-86808
X50323Y-85690
X50868Y-86808
X51413Y-85690
X51959Y-86808
X52504Y-85690
X53049Y-86808
X53594Y-85690
X54140Y-86808
X54685Y-85690
X55230Y-86808
X55776Y-85690
T3
X39961Y-86249
X58504Y-86249
T0
M30
