  0
SECTION
  2
HEADER
  9
$ACADVER
  1
AC1014
  9
$HANDSEED
  5
FFFF
  9
$MEASUREMENT
 70
     1
  0
ENDSEC
  0
SECTION
  2
TABLES
  0
TABLE
  2
VPORT
  5
8
330
0
100
AcDbSymbolTable
 70
     4
  0
VPORT
  5
2E
330
8
100
AcDbSymbolTableRecord
100
AcDbViewportTableRecord
  2
*ACTIVE
 70
     0
 10
0.0
 20
0.0
 11
1.0
 21
1.0
 12
210.0
 22
148.5
 13
0.0
 23
0.0
 14
10.0
 24
10.0
 15
10.0
 25
10.0
 16
0.0
 26
0.0
 36
1.0
 17
0.0
 27
0.0
 37
0.0
 40
341.0
 41
1.24
 42
50.0
 43
0.0
 44
0.0
 50
0.0
 51
0.0
 71
     0
 72
   100
 73
     1
 74
     3
 75
     0
 76
     0
 77
     0
 78
     0
  0
ENDTAB
  0
TABLE
  2
LTYPE
  5
5
330
0
100
AcDbSymbolTable
 70
     1
  0
LTYPE
  5
14
330
5
100
AcDbSymbolTableRecord
100
AcDbLinetypeTableRecord
  2
BYBLOCK
 70
     0
  3

 72
    65
 73
     0
 40
0.0
  0
LTYPE
  5
15
330
5
100
AcDbSymbolTableRecord
100
AcDbLinetypeTableRecord
  2
BYLAYER
 70
     0
  3

 72
    65
 73
     0
 40
0.0
  0
LTYPE
  5
16
330
5
100
AcDbSymbolTableRecord
100
AcDbLinetypeTableRecord
  2
CONTINUOUS
 70
     0
  3
Solid line
 72
    65
 73
     0
 40
0.0
  0
ENDTAB
  0
TABLE
  2
LAYER
  5
2
100
AcDbSymbolTable
 70
5
  0
LAYER
  5
50
100
AcDbSymbolTableRecord
100
AcDbLayerTableRecord
  2
0
 70
0
  6
CONTINUOUS
  0
LAYER
  5
51
100
AcDbSymbolTableRecord
100
AcDbLayerTableRecord
  2
Layer1
 70
0
  6
CONTINUOUS
  0
LAYER
  5
52
100
AcDbSymbolTableRecord
100
AcDbLayerTableRecord
  2
Layer2
 70
0
  6
CONTINUOUS
  0
LAYER
  5
53
100
AcDbSymbolTableRecord
100
AcDbLayerTableRecord
  2
Layer3
 70
0
  6
CONTINUOUS
  0
LAYER
  5
54
100
AcDbSymbolTableRecord
100
AcDbLayerTableRecord
  2
Layer4
 70
0
  6
CONTINUOUS
  0
ENDTAB
  0
TABLE
  2
STYLE
  5
3
330
0
100
AcDbSymbolTable
 70
     1
  0
STYLE
  5
11
330
3
100
AcDbSymbolTableRecord
100
AcDbTextStyleTableRecord
  2
STANDARD
 70
     0
 40
0.0
 41
1.0
 50
0.0
 71
     0
 42
2.5
  3
txt
  4

  0
ENDTAB
  0
TABLE
  2
VIEW
  5
6
330
0
100
AcDbSymbolTable
 70
     0
  0
ENDTAB
  0
TABLE
  2
UCS
  5
7
330
0
100
AcDbSymbolTable
 70
     0
  0
ENDTAB
  0
TABLE
  2
APPID
  5
9
330
0
100
AcDbSymbolTable
 70
     2
  0
APPID
  5
12
330
9
100
AcDbSymbolTableRecord
100
AcDbRegAppTableRecord
  2
ACAD
 70
     0
  0
ENDTAB
  0
TABLE
  2
DIMSTYLE
  5
A
330
0
100
AcDbSymbolTable
 70
     1
  0
DIMSTYLE
105
27
330
A
100
AcDbSymbolTableRecord
100
AcDbDimStyleTableRecord
  2
ISO-25
 70
     0
  3

  4

  5

  6

  7

 40
1.0
 41
2.5
 42
0.625
 43
3.75
 44
1.25
 45
0.0
 46
0.0
 47
0.0
 48
0.0
140
2.5
141
2.5
142
0.0
143
0.03937007874016
144
1.0
145
0.0
146
1.0
147
0.625
 71
     0
 72
     0
 73
     0
 74
     0
 75
     0
 76
     0
 77
     1
 78
     8
170
     0
171
     3
172
     1
173
     0
174
     0
175
     0
176
     0
177
     0
178
     0
270
     2
271
     2
272
     2
273
     2
274
     3
340
11
275
     0
280
     0
281
     0
282
     0
283
     0
284
     8
285
     0
286
     0
287
     3
288
     0
  0
ENDTAB
  0
TABLE
  2
BLOCK_RECORD
  5
1
330
0
100
AcDbSymbolTable
 70
     1
  0
BLOCK_RECORD
  5
1F
330
1
100
AcDbSymbolTableRecord
100
AcDbBlockTableRecord
  2
*MODEL_SPACE
  0
BLOCK_RECORD
  5
1B
330
1
100
AcDbSymbolTableRecord
100
AcDbBlockTableRecord
  2
*PAPER_SPACE
  0
ENDTAB
  0
ENDSEC
  0
SECTION
  2
BLOCKS
  0
BLOCK
  5
20
330
1F
100
AcDbEntity
  8
0
100
AcDbBlockBegin
  2
*MODEL_SPACE
 70
     0
 10
0.0
 20
0.0
 30
0.0
  3
*MODEL_SPACE
  1

  0
ENDBLK
  5
21
330
1F
100
AcDbEntity
  8
0
100
AcDbBlockEnd
  0
BLOCK
  5
1C
330
1B
100
AcDbEntity
 67
     1
  8
0
100
AcDbBlockBegin
  2
*PAPER_SPACE
  1

  0
ENDBLK
  5
1D
330
1B
100
AcDbEntity
 67
     1
  8
0
100
AcDbBlockEnd
  0
ENDSEC
  0
SECTION
  2
ENTITIES
  0
SPLINE
  5
100
100
AcDbEntity
  8
Layer4
 62
7
100
AcDbSpline
 70
8
 71
3
 72
8
 73
4
 74
0
 40
0
 40
0
 40
0
 40
0
 40
1
 40
1
 40
1
 40
1
 10
13.820109
 20
135.355613
 30
0.0
 10
13.820109
 20
135.968145
 30
0.0
 10
13.493327
 20
136.534148
 30
0.0
 10
12.962859
 20
136.840414
 30
0.0
  0
SPLINE
  5
101
100
AcDbEntity
  8
Layer4
 62
7
100
AcDbSpline
 70
8
 71
3
 72
8
 73
4
 74
0
 40
0
 40
0
 40
0
 40
0
 40
1
 40
1
 40
1
 40
1
 10
12.962859
 20
136.840414
 30
0.0
 10
12.432391
 20
137.146680
 30
0.0
 10
11.778827
 20
137.146680
 30
0.0
 10
11.248359
 20
136.840414
 30
0.0
  0
SPLINE
  5
102
100
AcDbEntity
  8
Layer4
 62
7
100
AcDbSpline
 70
8
 71
3
 72
8
 73
4
 74
0
 40
0
 40
0
 40
0
 40
0
 40
1
 40
1
 40
1
 40
1
 10
11.248359
 20
136.840414
 30
0.0
 10
10.717891
 20
136.534148
 30
0.0
 10
10.391109
 20
135.968145
 30
0.0
 10
10.391109
 20
135.355613
 30
0.0
  0
SPLINE
  5
103
100
AcDbEntity
  8
Layer4
 62
7
100
AcDbSpline
 70
8
 71
3
 72
8
 73
4
 74
0
 40
0
 40
0
 40
0
 40
0
 40
1
 40
1
 40
1
 40
1
 10
10.391109
 20
135.355613
 30
0.0
 10
10.391109
 20
134.743082
 30
0.0
 10
10.717891
 20
134.177079
 30
0.0
 10
11.248359
 20
133.870813
 30
0.0
  0
SPLINE
  5
104
100
AcDbEntity
  8
Layer4
 62
7
100
AcDbSpline
 70
8
 71
3
 72
8
 73
4
 74
0
 40
0
 40
0
 40
0
 40
0
 40
1
 40
1
 40
1
 40
1
 10
11.248359
 20
133.870813
 30
0.0
 10
11.778827
 20
133.564547
 30
0.0
 10
12.432391
 20
133.564547
 30
0.0
 10
12.962859
 20
133.870813
 30
0.0
  0
SPLINE
  5
105
100
AcDbEntity
  8
Layer4
 62
7
100
AcDbSpline
 70
8
 71
3
 72
8
 73
4
 74
0
 40
0
 40
0
 40
0
 40
0
 40
1
 40
1
 40
1
 40
1
 10
12.962859
 20
133.870813
 30
0.0
 10
13.493327
 20
134.177079
 30
0.0
 10
13.820109
 20
134.743082
 30
0.0
 10
13.820109
 20
135.355613
 30
0.0
  0
SPLINE
  5
106
100
AcDbEntity
  8
Layer4
 62
7
100
AcDbSpline
 70
8
 71
3
 72
8
 73
4
 74
0
 40
0
 40
0
 40
0
 40
0
 40
1
 40
1
 40
1
 40
1
 10
239.891114
 20
135.355613
 30
0.0
 10
239.891114
 20
135.968145
 30
0.0
 10
239.564332
 20
136.534148
 30
0.0
 10
239.033864
 20
136.840414
 30
0.0
  0
SPLINE
  5
107
100
AcDbEntity
  8
Layer4
 62
7
100
AcDbSpline
 70
8
 71
3
 72
8
 73
4
 74
0
 40
0
 40
0
 40
0
 40
0
 40
1
 40
1
 40
1
 40
1
 10
239.033864
 20
136.840414
 30
0.0
 10
238.503396
 20
137.146680
 30
0.0
 10
237.849832
 20
137.146680
 30
0.0
 10
237.319364
 20
136.840414
 30
0.0
  0
SPLINE
  5
108
100
AcDbEntity
  8
Layer4
 62
7
100
AcDbSpline
 70
8
 71
3
 72
8
 73
4
 74
0
 40
0
 40
0
 40
0
 40
0
 40
1
 40
1
 40
1
 40
1
 10
237.319364
 20
136.840414
 30
0.0
 10
236.788896
 20
136.534148
 30
0.0
 10
236.462114
 20
135.968145
 30
0.0
 10
236.462114
 20
135.355613
 30
0.0
  0
SPLINE
  5
109
100
AcDbEntity
  8
Layer4
 62
7
100
AcDbSpline
 70
8
 71
3
 72
8
 73
4
 74
0
 40
0
 40
0
 40
0
 40
0
 40
1
 40
1
 40
1
 40
1
 10
236.462114
 20
135.355613
 30
0.0
 10
236.462114
 20
134.743082
 30
0.0
 10
236.788896
 20
134.177079
 30
0.0
 10
237.319364
 20
133.870813
 30
0.0
  0
SPLINE
  5
10a
100
AcDbEntity
  8
Layer4
 62
7
100
AcDbSpline
 70
8
 71
3
 72
8
 73
4
 74
0
 40
0
 40
0
 40
0
 40
0
 40
1
 40
1
 40
1
 40
1
 10
237.319364
 20
133.870813
 30
0.0
 10
237.849832
 20
133.564547
 30
0.0
 10
238.503396
 20
133.564547
 30
0.0
 10
239.033864
 20
133.870813
 30
0.0
  0
SPLINE
  5
10b
100
AcDbEntity
  8
Layer4
 62
7
100
AcDbSpline
 70
8
 71
3
 72
8
 73
4
 74
0
 40
0
 40
0
 40
0
 40
0
 40
1
 40
1
 40
1
 40
1
 10
239.033864
 20
133.870813
 30
0.0
 10
239.564332
 20
134.177079
 30
0.0
 10
239.891114
 20
134.743082
 30
0.0
 10
239.891114
 20
135.355613
 30
0.0
  0
LWPOLYLINE
  5
10c
100
AcDbEntity
  8
Layer4
 62
7
100
AcDbPolyline
 90
1
 70
1
 10
13.820109
 20
135.355613
 30
0.0
  0
SPLINE
  5
10d
100
AcDbEntity
  8
Layer4
 62
7
100
AcDbSpline
 70
8
 71
3
 72
8
 73
4
 74
0
 40
0
 40
0
 40
0
 40
0
 40
1
 40
1
 40
1
 40
1
 10
13.820109
 20
54.926617
 30
0.0
 10
13.820109
 20
55.539148
 30
0.0
 10
13.493327
 20
56.105151
 30
0.0
 10
12.962859
 20
56.411417
 30
0.0
  0
SPLINE
  5
10e
100
AcDbEntity
  8
Layer4
 62
7
100
AcDbSpline
 70
8
 71
3
 72
8
 73
4
 74
0
 40
0
 40
0
 40
0
 40
0
 40
1
 40
1
 40
1
 40
1
 10
12.962859
 20
56.411417
 30
0.0
 10
12.432391
 20
56.717683
 30
0.0
 10
11.778827
 20
56.717683
 30
0.0
 10
11.248359
 20
56.411417
 30
0.0
  0
SPLINE
  5
10f
100
AcDbEntity
  8
Layer4
 62
7
100
AcDbSpline
 70
8
 71
3
 72
8
 73
4
 74
0
 40
0
 40
0
 40
0
 40
0
 40
1
 40
1
 40
1
 40
1
 10
11.248359
 20
56.411417
 30
0.0
 10
10.717891
 20
56.105151
 30
0.0
 10
10.391109
 20
55.539148
 30
0.0
 10
10.391109
 20
54.926617
 30
0.0
  0
SPLINE
  5
110
100
AcDbEntity
  8
Layer4
 62
7
100
AcDbSpline
 70
8
 71
3
 72
8
 73
4
 74
0
 40
0
 40
0
 40
0
 40
0
 40
1
 40
1
 40
1
 40
1
 10
10.391109
 20
54.926617
 30
0.0
 10
10.391109
 20
54.314085
 30
0.0
 10
10.717891
 20
53.748082
 30
0.0
 10
11.248359
 20
53.441816
 30
0.0
  0
SPLINE
  5
111
100
AcDbEntity
  8
Layer4
 62
7
100
AcDbSpline
 70
8
 71
3
 72
8
 73
4
 74
0
 40
0
 40
0
 40
0
 40
0
 40
1
 40
1
 40
1
 40
1
 10
11.248359
 20
53.441816
 30
0.0
 10
11.778827
 20
53.135550
 30
0.0
 10
12.432391
 20
53.135550
 30
0.0
 10
12.962859
 20
53.441816
 30
0.0
  0
SPLINE
  5
112
100
AcDbEntity
  8
Layer4
 62
7
100
AcDbSpline
 70
8
 71
3
 72
8
 73
4
 74
0
 40
0
 40
0
 40
0
 40
0
 40
1
 40
1
 40
1
 40
1
 10
12.962859
 20
53.441816
 30
0.0
 10
13.493327
 20
53.748082
 30
0.0
 10
13.820109
 20
54.314085
 30
0.0
 10
13.820109
 20
54.926617
 30
0.0
  0
LWPOLYLINE
  5
113
100
AcDbEntity
  8
Layer4
 62
7
100
AcDbPolyline
 90
1
 70
1
 10
239.891114
 20
135.355613
 30
0.0
  0
SPLINE
  5
114
100
AcDbEntity
  8
Layer4
 62
7
100
AcDbSpline
 70
8
 71
3
 72
8
 73
4
 74
0
 40
0
 40
0
 40
0
 40
0
 40
1
 40
1
 40
1
 40
1
 10
239.891114
 20
54.926617
 30
0.0
 10
239.891114
 20
55.539148
 30
0.0
 10
239.564332
 20
56.105151
 30
0.0
 10
239.033864
 20
56.411417
 30
0.0
  0
SPLINE
  5
115
100
AcDbEntity
  8
Layer4
 62
7
100
AcDbSpline
 70
8
 71
3
 72
8
 73
4
 74
0
 40
0
 40
0
 40
0
 40
0
 40
1
 40
1
 40
1
 40
1
 10
239.033864
 20
56.411417
 30
0.0
 10
238.503396
 20
56.717683
 30
0.0
 10
237.849832
 20
56.717683
 30
0.0
 10
237.319364
 20
56.411417
 30
0.0
  0
SPLINE
  5
116
100
AcDbEntity
  8
Layer4
 62
7
100
AcDbSpline
 70
8
 71
3
 72
8
 73
4
 74
0
 40
0
 40
0
 40
0
 40
0
 40
1
 40
1
 40
1
 40
1
 10
237.319364
 20
56.411417
 30
0.0
 10
236.788896
 20
56.105151
 30
0.0
 10
236.462114
 20
55.539148
 30
0.0
 10
236.462114
 20
54.926617
 30
0.0
  0
SPLINE
  5
117
100
AcDbEntity
  8
Layer4
 62
7
100
AcDbSpline
 70
8
 71
3
 72
8
 73
4
 74
0
 40
0
 40
0
 40
0
 40
0
 40
1
 40
1
 40
1
 40
1
 10
236.462114
 20
54.926617
 30
0.0
 10
236.462114
 20
54.314085
 30
0.0
 10
236.788896
 20
53.748082
 30
0.0
 10
237.319364
 20
53.441816
 30
0.0
  0
SPLINE
  5
118
100
AcDbEntity
  8
Layer4
 62
7
100
AcDbSpline
 70
8
 71
3
 72
8
 73
4
 74
0
 40
0
 40
0
 40
0
 40
0
 40
1
 40
1
 40
1
 40
1
 10
237.319364
 20
53.441816
 30
0.0
 10
237.849832
 20
53.135550
 30
0.0
 10
238.503396
 20
53.135550
 30
0.0
 10
239.033864
 20
53.441816
 30
0.0
  0
SPLINE
  5
119
100
AcDbEntity
  8
Layer4
 62
7
100
AcDbSpline
 70
8
 71
3
 72
8
 73
4
 74
0
 40
0
 40
0
 40
0
 40
0
 40
1
 40
1
 40
1
 40
1
 10
239.033864
 20
53.441816
 30
0.0
 10
239.564332
 20
53.748082
 30
0.0
 10
239.891114
 20
54.314085
 30
0.0
 10
239.891114
 20
54.926617
 30
0.0
  0
LWPOLYLINE
  5
11a
100
AcDbEntity
  8
Layer4
 62
7
100
AcDbPolyline
 90
1
 70
1
 10
13.820109
 20
54.926617
 30
0.0
  0
SPLINE
  5
11b
100
AcDbEntity
  8
Layer4
 62
7
100
AcDbSpline
 70
8
 71
3
 72
8
 73
4
 74
0
 40
0
 40
0
 40
0
 40
0
 40
1
 40
1
 40
1
 40
1
 10
39.570122
 20
95.105588
 30
0.0
 10
39.570122
 20
95.718120
 30
0.0
 10
39.243340
 20
96.284123
 30
0.0
 10
38.712872
 20
96.590389
 30
0.0
  0
SPLINE
  5
11c
100
AcDbEntity
  8
Layer4
 62
7
100
AcDbSpline
 70
8
 71
3
 72
8
 73
4
 74
0
 40
0
 40
0
 40
0
 40
0
 40
1
 40
1
 40
1
 40
1
 10
38.712872
 20
96.590389
 30
0.0
 10
38.182404
 20
96.896655
 30
0.0
 10
37.528840
 20
96.896655
 30
0.0
 10
36.998372
 20
96.590389
 30
0.0
  0
SPLINE
  5
11d
100
AcDbEntity
  8
Layer4
 62
7
100
AcDbSpline
 70
8
 71
3
 72
8
 73
4
 74
0
 40
0
 40
0
 40
0
 40
0
 40
1
 40
1
 40
1
 40
1
 10
36.998372
 20
96.590389
 30
0.0
 10
36.467904
 20
96.284123
 30
0.0
 10
36.141122
 20
95.718120
 30
0.0
 10
36.141122
 20
95.105588
 30
0.0
  0
SPLINE
  5
11e
100
AcDbEntity
  8
Layer4
 62
7
100
AcDbSpline
 70
8
 71
3
 72
8
 73
4
 74
0
 40
0
 40
0
 40
0
 40
0
 40
1
 40
1
 40
1
 40
1
 10
36.141122
 20
95.105588
 30
0.0
 10
36.141122
 20
94.493056
 30
0.0
 10
36.467904
 20
93.927053
 30
0.0
 10
36.998372
 20
93.620787
 30
0.0
  0
SPLINE
  5
11f
100
AcDbEntity
  8
Layer4
 62
7
100
AcDbSpline
 70
8
 71
3
 72
8
 73
4
 74
0
 40
0
 40
0
 40
0
 40
0
 40
1
 40
1
 40
1
 40
1
 10
36.998372
 20
93.620787
 30
0.0
 10
37.528840
 20
93.314522
 30
0.0
 10
38.182404
 20
93.314522
 30
0.0
 10
38.712872
 20
93.620787
 30
0.0
  0
SPLINE
  5
120
100
AcDbEntity
  8
Layer4
 62
7
100
AcDbSpline
 70
8
 71
3
 72
8
 73
4
 74
0
 40
0
 40
0
 40
0
 40
0
 40
1
 40
1
 40
1
 40
1
 10
38.712872
 20
93.620787
 30
0.0
 10
39.243340
 20
93.927053
 30
0.0
 10
39.570122
 20
94.493056
 30
0.0
 10
39.570122
 20
95.105588
 30
0.0
  0
LWPOLYLINE
  5
121
100
AcDbEntity
  8
Layer4
 62
7
100
AcDbPolyline
 90
1
 70
1
 10
239.891114
 20
54.926617
 30
0.0
  0
SPLINE
  5
122
100
AcDbEntity
  8
Layer4
 62
7
100
AcDbSpline
 70
8
 71
3
 72
8
 73
4
 74
0
 40
0
 40
0
 40
0
 40
0
 40
1
 40
1
 40
1
 40
1
 10
55.570122
 20
146.855588
 30
0.0
 10
55.570122
 20
147.468120
 30
0.0
 10
55.243340
 20
148.034122
 30
0.0
 10
54.712872
 20
148.340388
 30
0.0
  0
SPLINE
  5
123
100
AcDbEntity
  8
Layer4
 62
7
100
AcDbSpline
 70
8
 71
3
 72
8
 73
4
 74
0
 40
0
 40
0
 40
0
 40
0
 40
1
 40
1
 40
1
 40
1
 10
54.712872
 20
148.340388
 30
0.0
 10
54.182403
 20
148.646654
 30
0.0
 10
53.528840
 20
148.646654
 30
0.0
 10
52.998372
 20
148.340388
 30
0.0
  0
SPLINE
  5
124
100
AcDbEntity
  8
Layer4
 62
7
100
AcDbSpline
 70
8
 71
3
 72
8
 73
4
 74
0
 40
0
 40
0
 40
0
 40
0
 40
1
 40
1
 40
1
 40
1
 10
52.998372
 20
148.340388
 30
0.0
 10
52.467903
 20
148.034122
 30
0.0
 10
52.141122
 20
147.468120
 30
0.0
 10
52.141122
 20
146.855588
 30
0.0
  0
SPLINE
  5
125
100
AcDbEntity
  8
Layer4
 62
7
100
AcDbSpline
 70
8
 71
3
 72
8
 73
4
 74
0
 40
0
 40
0
 40
0
 40
0
 40
1
 40
1
 40
1
 40
1
 10
52.141122
 20
146.855588
 30
0.0
 10
52.141122
 20
146.243056
 30
0.0
 10
52.467903
 20
145.677053
 30
0.0
 10
52.998372
 20
145.370787
 30
0.0
  0
SPLINE
  5
126
100
AcDbEntity
  8
Layer4
 62
7
100
AcDbSpline
 70
8
 71
3
 72
8
 73
4
 74
0
 40
0
 40
0
 40
0
 40
0
 40
1
 40
1
 40
1
 40
1
 10
52.998372
 20
145.370787
 30
0.0
 10
53.528840
 20
145.064521
 30
0.0
 10
54.182403
 20
145.064521
 30
0.0
 10
54.712872
 20
145.370787
 30
0.0
  0
SPLINE
  5
127
100
AcDbEntity
  8
Layer4
 62
7
100
AcDbSpline
 70
8
 71
3
 72
8
 73
4
 74
0
 40
0
 40
0
 40
0
 40
0
 40
1
 40
1
 40
1
 40
1
 10
54.712872
 20
145.370787
 30
0.0
 10
55.243340
 20
145.677053
 30
0.0
 10
55.570122
 20
146.243056
 30
0.0
 10
55.570122
 20
146.855588
 30
0.0
  0
LWPOLYLINE
  5
128
100
AcDbEntity
  8
Layer4
 62
7
100
AcDbPolyline
 90
1
 70
1
 10
39.570122
 20
95.105588
 30
0.0
  0
SPLINE
  5
129
100
AcDbEntity
  8
Layer4
 62
7
100
AcDbSpline
 70
8
 71
3
 72
8
 73
4
 74
0
 40
0
 40
0
 40
0
 40
0
 40
1
 40
1
 40
1
 40
1
 10
55.570122
 20
133.355591
 30
0.0
 10
55.570122
 20
133.968123
 30
0.0
 10
55.243340
 20
134.534126
 30
0.0
 10
54.712872
 20
134.840391
 30
0.0
  0
SPLINE
  5
12a
100
AcDbEntity
  8
Layer4
 62
7
100
AcDbSpline
 70
8
 71
3
 72
8
 73
4
 74
0
 40
0
 40
0
 40
0
 40
0
 40
1
 40
1
 40
1
 40
1
 10
54.712872
 20
134.840391
 30
0.0
 10
54.182403
 20
135.146657
 30
0.0
 10
53.528840
 20
135.146657
 30
0.0
 10
52.998372
 20
134.840391
 30
0.0
  0
SPLINE
  5
12b
100
AcDbEntity
  8
Layer4
 62
7
100
AcDbSpline
 70
8
 71
3
 72
8
 73
4
 74
0
 40
0
 40
0
 40
0
 40
0
 40
1
 40
1
 40
1
 40
1
 10
52.998372
 20
134.840391
 30
0.0
 10
52.467903
 20
134.534126
 30
0.0
 10
52.141122
 20
133.968123
 30
0.0
 10
52.141122
 20
133.355591
 30
0.0
  0
SPLINE
  5
12c
100
AcDbEntity
  8
Layer4
 62
7
100
AcDbSpline
 70
8
 71
3
 72
8
 73
4
 74
0
 40
0
 40
0
 40
0
 40
0
 40
1
 40
1
 40
1
 40
1
 10
52.141122
 20
133.355591
 30
0.0
 10
52.141122
 20
132.743059
 30
0.0
 10
52.467903
 20
132.177056
 30
0.0
 10
52.998372
 20
131.870790
 30
0.0
  0
SPLINE
  5
12d
100
AcDbEntity
  8
Layer4
 62
7
100
AcDbSpline
 70
8
 71
3
 72
8
 73
4
 74
0
 40
0
 40
0
 40
0
 40
0
 40
1
 40
1
 40
1
 40
1
 10
52.998372
 20
131.870790
 30
0.0
 10
53.528840
 20
131.564524
 30
0.0
 10
54.182403
 20
131.564524
 30
0.0
 10
54.712872
 20
131.870790
 30
0.0
  0
SPLINE
  5
12e
100
AcDbEntity
  8
Layer4
 62
7
100
AcDbSpline
 70
8
 71
3
 72
8
 73
4
 74
0
 40
0
 40
0
 40
0
 40
0
 40
1
 40
1
 40
1
 40
1
 10
54.712872
 20
131.870790
 30
0.0
 10
55.243340
 20
132.177056
 30
0.0
 10
55.570122
 20
132.743059
 30
0.0
 10
55.570122
 20
133.355591
 30
0.0
  0
LWPOLYLINE
  5
12f
100
AcDbEntity
  8
Layer4
 62
7
100
AcDbPolyline
 90
1
 70
1
 10
55.570122
 20
146.855588
 30
0.0
  0
SPLINE
  5
130
100
AcDbEntity
  8
Layer4
 62
7
100
AcDbSpline
 70
8
 71
3
 72
8
 73
4
 74
0
 40
0
 40
0
 40
0
 40
0
 40
1
 40
1
 40
1
 40
1
 10
23.570119
 20
101.855588
 30
0.0
 10
23.570757
 20
102.468544
 30
0.0
 10
23.244114
 20
103.035211
 30
0.0
 10
22.713385
 20
103.341873
 30
0.0
  0
SPLINE
  5
131
100
AcDbEntity
  8
Layer4
 62
7
100
AcDbSpline
 70
8
 71
3
 72
8
 73
4
 74
0
 40
0
 40
0
 40
0
 40
0
 40
1
 40
1
 40
1
 40
1
 10
22.713385
 20
103.341873
 30
0.0
 10
22.182655
 20
103.648535
 30
0.0
 10
21.528586
 20
103.648535
 30
0.0
 10
20.997856
 20
103.341873
 30
0.0
  0
SPLINE
  5
132
100
AcDbEntity
  8
Layer4
 62
7
100
AcDbSpline
 70
8
 71
3
 72
8
 73
4
 74
0
 40
0
 40
0
 40
0
 40
0
 40
1
 40
1
 40
1
 40
1
 10
20.997856
 20
103.341873
 30
0.0
 10
20.467126
 20
103.035211
 30
0.0
 10
20.140484
 20
102.468544
 30
0.0
 10
20.141121
 20
101.855588
 30
0.0
  0
SPLINE
  5
133
100
AcDbEntity
  8
Layer4
 62
7
100
AcDbSpline
 70
8
 71
3
 72
8
 73
4
 74
0
 40
0
 40
0
 40
0
 40
0
 40
1
 40
1
 40
1
 40
1
 10
20.141121
 20
101.855588
 30
0.0
 10
20.140484
 20
101.242632
 30
0.0
 10
20.467126
 20
100.675964
 30
0.0
 10
20.997856
 20
100.369302
 30
0.0
  0
SPLINE
  5
134
100
AcDbEntity
  8
Layer4
 62
7
100
AcDbSpline
 70
8
 71
3
 72
8
 73
4
 74
0
 40
0
 40
0
 40
0
 40
0
 40
1
 40
1
 40
1
 40
1
 10
20.997856
 20
100.369302
 30
0.0
 10
21.528586
 20
100.062640
 30
0.0
 10
22.182655
 20
100.062640
 30
0.0
 10
22.713385
 20
100.369302
 30
0.0
  0
SPLINE
  5
135
100
AcDbEntity
  8
Layer4
 62
7
100
AcDbSpline
 70
8
 71
3
 72
8
 73
4
 74
0
 40
0
 40
0
 40
0
 40
0
 40
1
 40
1
 40
1
 40
1
 10
22.713385
 20
100.369302
 30
0.0
 10
23.244114
 20
100.675964
 30
0.0
 10
23.570757
 20
101.242632
 30
0.0
 10
23.570119
 20
101.855588
 30
0.0
  0
LWPOLYLINE
  5
136
100
AcDbEntity
  8
Layer4
 62
7
100
AcDbPolyline
 90
1
 70
1
 10
55.570122
 20
133.355591
 30
0.0
  0
SPLINE
  5
137
100
AcDbEntity
  8
Layer4
 62
7
100
AcDbSpline
 70
8
 71
3
 72
8
 73
4
 74
0
 40
0
 40
0
 40
0
 40
0
 40
1
 40
1
 40
1
 40
1
 10
23.570119
 20
88.355591
 30
0.0
 10
23.570757
 20
88.968547
 30
0.0
 10
23.244114
 20
89.535214
 30
0.0
 10
22.713385
 20
89.841876
 30
0.0
  0
SPLINE
  5
138
100
AcDbEntity
  8
Layer4
 62
7
100
AcDbSpline
 70
8
 71
3
 72
8
 73
4
 74
0
 40
0
 40
0
 40
0
 40
0
 40
1
 40
1
 40
1
 40
1
 10
22.713385
 20
89.841876
 30
0.0
 10
22.182655
 20
90.148538
 30
0.0
 10
21.528586
 20
90.148538
 30
0.0
 10
20.997856
 20
89.841876
 30
0.0
  0
SPLINE
  5
139
100
AcDbEntity
  8
Layer4
 62
7
100
AcDbSpline
 70
8
 71
3
 72
8
 73
4
 74
0
 40
0
 40
0
 40
0
 40
0
 40
1
 40
1
 40
1
 40
1
 10
20.997856
 20
89.841876
 30
0.0
 10
20.467126
 20
89.535214
 30
0.0
 10
20.140484
 20
88.968547
 30
0.0
 10
20.141121
 20
88.355591
 30
0.0
  0
SPLINE
  5
13a
100
AcDbEntity
  8
Layer4
 62
7
100
AcDbSpline
 70
8
 71
3
 72
8
 73
4
 74
0
 40
0
 40
0
 40
0
 40
0
 40
1
 40
1
 40
1
 40
1
 10
20.141121
 20
88.355591
 30
0.0
 10
20.140484
 20
87.742635
 30
0.0
 10
20.467126
 20
87.175968
 30
0.0
 10
20.997856
 20
86.869306
 30
0.0
  0
SPLINE
  5
13b
100
AcDbEntity
  8
Layer4
 62
7
100
AcDbSpline
 70
8
 71
3
 72
8
 73
4
 74
0
 40
0
 40
0
 40
0
 40
0
 40
1
 40
1
 40
1
 40
1
 10
20.997856
 20
86.869306
 30
0.0
 10
21.528586
 20
86.562643
 30
0.0
 10
22.182655
 20
86.562643
 30
0.0
 10
22.713385
 20
86.869306
 30
0.0
  0
SPLINE
  5
13c
100
AcDbEntity
  8
Layer4
 62
7
100
AcDbSpline
 70
8
 71
3
 72
8
 73
4
 74
0
 40
0
 40
0
 40
0
 40
0
 40
1
 40
1
 40
1
 40
1
 10
22.713385
 20
86.869306
 30
0.0
 10
23.244114
 20
87.175968
 30
0.0
 10
23.570757
 20
87.742635
 30
0.0
 10
23.570119
 20
88.355591
 30
0.0
  0
LWPOLYLINE
  5
13d
100
AcDbEntity
  8
Layer4
 62
7
100
AcDbPolyline
 90
1
 70
1
 10
23.570119
 20
101.855588
 30
0.0
  0
SPLINE
  5
13e
100
AcDbEntity
  8
Layer4
 62
7
100
AcDbSpline
 70
8
 71
3
 72
8
 73
4
 74
0
 40
0
 40
0
 40
0
 40
0
 40
1
 40
1
 40
1
 40
1
 10
55.570122
 20
56.855588
 30
0.0
 10
55.570122
 20
57.468120
 30
0.0
 10
55.243340
 20
58.034122
 30
0.0
 10
54.712872
 20
58.340388
 30
0.0
  0
SPLINE
  5
13f
100
AcDbEntity
  8
Layer4
 62
7
100
AcDbSpline
 70
8
 71
3
 72
8
 73
4
 74
0
 40
0
 40
0
 40
0
 40
0
 40
1
 40
1
 40
1
 40
1
 10
54.712872
 20
58.340388
 30
0.0
 10
54.182403
 20
58.646654
 30
0.0
 10
53.528840
 20
58.646654
 30
0.0
 10
52.998372
 20
58.340388
 30
0.0
  0
SPLINE
  5
140
100
AcDbEntity
  8
Layer4
 62
7
100
AcDbSpline
 70
8
 71
3
 72
8
 73
4
 74
0
 40
0
 40
0
 40
0
 40
0
 40
1
 40
1
 40
1
 40
1
 10
52.998372
 20
58.340388
 30
0.0
 10
52.467903
 20
58.034122
 30
0.0
 10
52.141122
 20
57.468120
 30
0.0
 10
52.141122
 20
56.855588
 30
0.0
  0
SPLINE
  5
141
100
AcDbEntity
  8
Layer4
 62
7
100
AcDbSpline
 70
8
 71
3
 72
8
 73
4
 74
0
 40
0
 40
0
 40
0
 40
0
 40
1
 40
1
 40
1
 40
1
 10
52.141122
 20
56.855588
 30
0.0
 10
52.141122
 20
56.243056
 30
0.0
 10
52.467903
 20
55.677053
 30
0.0
 10
52.998372
 20
55.370787
 30
0.0
  0
SPLINE
  5
142
100
AcDbEntity
  8
Layer4
 62
7
100
AcDbSpline
 70
8
 71
3
 72
8
 73
4
 74
0
 40
0
 40
0
 40
0
 40
0
 40
1
 40
1
 40
1
 40
1
 10
52.998372
 20
55.370787
 30
0.0
 10
53.528840
 20
55.064521
 30
0.0
 10
54.182403
 20
55.064521
 30
0.0
 10
54.712872
 20
55.370787
 30
0.0
  0
SPLINE
  5
143
100
AcDbEntity
  8
Layer4
 62
7
100
AcDbSpline
 70
8
 71
3
 72
8
 73
4
 74
0
 40
0
 40
0
 40
0
 40
0
 40
1
 40
1
 40
1
 40
1
 10
54.712872
 20
55.370787
 30
0.0
 10
55.243340
 20
55.677053
 30
0.0
 10
55.570122
 20
56.243056
 30
0.0
 10
55.570122
 20
56.855588
 30
0.0
  0
LWPOLYLINE
  5
144
100
AcDbEntity
  8
Layer4
 62
7
100
AcDbPolyline
 90
1
 70
1
 10
23.570119
 20
88.355591
 30
0.0
  0
SPLINE
  5
145
100
AcDbEntity
  8
Layer4
 62
7
100
AcDbSpline
 70
8
 71
3
 72
8
 73
4
 74
0
 40
0
 40
0
 40
0
 40
0
 40
1
 40
1
 40
1
 40
1
 10
55.570122
 20
43.355591
 30
0.0
 10
55.570122
 20
43.968123
 30
0.0
 10
55.243340
 20
44.534126
 30
0.0
 10
54.712872
 20
44.840392
 30
0.0
  0
SPLINE
  5
146
100
AcDbEntity
  8
Layer4
 62
7
100
AcDbSpline
 70
8
 71
3
 72
8
 73
4
 74
0
 40
0
 40
0
 40
0
 40
0
 40
1
 40
1
 40
1
 40
1
 10
54.712872
 20
44.840392
 30
0.0
 10
54.182403
 20
45.146657
 30
0.0
 10
53.528840
 20
45.146657
 30
0.0
 10
52.998372
 20
44.840392
 30
0.0
  0
SPLINE
  5
147
100
AcDbEntity
  8
Layer4
 62
7
100
AcDbSpline
 70
8
 71
3
 72
8
 73
4
 74
0
 40
0
 40
0
 40
0
 40
0
 40
1
 40
1
 40
1
 40
1
 10
52.998372
 20
44.840392
 30
0.0
 10
52.467903
 20
44.534126
 30
0.0
 10
52.141122
 20
43.968123
 30
0.0
 10
52.141122
 20
43.355591
 30
0.0
  0
SPLINE
  5
148
100
AcDbEntity
  8
Layer4
 62
7
100
AcDbSpline
 70
8
 71
3
 72
8
 73
4
 74
0
 40
0
 40
0
 40
0
 40
0
 40
1
 40
1
 40
1
 40
1
 10
52.141122
 20
43.355591
 30
0.0
 10
52.141122
 20
42.743059
 30
0.0
 10
52.467903
 20
42.177056
 30
0.0
 10
52.998372
 20
41.870790
 30
0.0
  0
SPLINE
  5
149
100
AcDbEntity
  8
Layer4
 62
7
100
AcDbSpline
 70
8
 71
3
 72
8
 73
4
 74
0
 40
0
 40
0
 40
0
 40
0
 40
1
 40
1
 40
1
 40
1
 10
52.998372
 20
41.870790
 30
0.0
 10
53.528840
 20
41.564525
 30
0.0
 10
54.182403
 20
41.564525
 30
0.0
 10
54.712872
 20
41.870790
 30
0.0
  0
SPLINE
  5
14a
100
AcDbEntity
  8
Layer4
 62
7
100
AcDbSpline
 70
8
 71
3
 72
8
 73
4
 74
0
 40
0
 40
0
 40
0
 40
0
 40
1
 40
1
 40
1
 40
1
 10
54.712872
 20
41.870790
 30
0.0
 10
55.243340
 20
42.177056
 30
0.0
 10
55.570122
 20
42.743059
 30
0.0
 10
55.570122
 20
43.355591
 30
0.0
  0
LWPOLYLINE
  5
14b
100
AcDbEntity
  8
Layer4
 62
7
100
AcDbPolyline
 90
1
 70
1
 10
55.570122
 20
56.855588
 30
0.0
  0
SPLINE
  5
14c
100
AcDbEntity
  8
Layer4
 62
7
100
AcDbSpline
 70
8
 71
3
 72
8
 73
4
 74
0
 40
0
 40
0
 40
0
 40
0
 40
1
 40
1
 40
1
 40
1
 10
13.820121
 20
184.355589
 30
0.0
 10
13.820121
 20
184.968121
 30
0.0
 10
13.493339
 20
185.534124
 30
0.0
 10
12.962871
 20
185.840390
 30
0.0
  0
SPLINE
  5
14d
100
AcDbEntity
  8
Layer4
 62
7
100
AcDbSpline
 70
8
 71
3
 72
8
 73
4
 74
0
 40
0
 40
0
 40
0
 40
0
 40
1
 40
1
 40
1
 40
1
 10
12.962871
 20
185.840390
 30
0.0
 10
12.432403
 20
186.146656
 30
0.0
 10
11.778839
 20
186.146656
 30
0.0
 10
11.248371
 20
185.840390
 30
0.0
  0
SPLINE
  5
14e
100
AcDbEntity
  8
Layer4
 62
7
100
AcDbSpline
 70
8
 71
3
 72
8
 73
4
 74
0
 40
0
 40
0
 40
0
 40
0
 40
1
 40
1
 40
1
 40
1
 10
11.248371
 20
185.840390
 30
0.0
 10
10.717903
 20
185.534124
 30
0.0
 10
10.391121
 20
184.968121
 30
0.0
 10
10.391121
 20
184.355589
 30
0.0
  0
SPLINE
  5
14f
100
AcDbEntity
  8
Layer4
 62
7
100
AcDbSpline
 70
8
 71
3
 72
8
 73
4
 74
0
 40
0
 40
0
 40
0
 40
0
 40
1
 40
1
 40
1
 40
1
 10
10.391121
 20
184.355589
 30
0.0
 10
10.391121
 20
183.743058
 30
0.0
 10
10.717903
 20
183.177055
 30
0.0
 10
11.248371
 20
182.870789
 30
0.0
  0
SPLINE
  5
150
100
AcDbEntity
  8
Layer4
 62
7
100
AcDbSpline
 70
8
 71
3
 72
8
 73
4
 74
0
 40
0
 40
0
 40
0
 40
0
 40
1
 40
1
 40
1
 40
1
 10
11.248371
 20
182.870789
 30
0.0
 10
11.778839
 20
182.564523
 30
0.0
 10
12.432403
 20
182.564523
 30
0.0
 10
12.962871
 20
182.870789
 30
0.0
  0
SPLINE
  5
151
100
AcDbEntity
  8
Layer4
 62
7
100
AcDbSpline
 70
8
 71
3
 72
8
 73
4
 74
0
 40
0
 40
0
 40
0
 40
0
 40
1
 40
1
 40
1
 40
1
 10
12.962871
 20
182.870789
 30
0.0
 10
13.493339
 20
183.177055
 30
0.0
 10
13.820121
 20
183.743058
 30
0.0
 10
13.820121
 20
184.355589
 30
0.0
  0
LWPOLYLINE
  5
152
100
AcDbEntity
  8
Layer4
 62
7
100
AcDbPolyline
 90
1
 70
1
 10
55.570122
 20
43.355591
 30
0.0
  0
SPLINE
  5
153
100
AcDbEntity
  8
Layer4
 62
7
100
AcDbSpline
 70
8
 71
3
 72
8
 73
4
 74
0
 40
0
 40
0
 40
0
 40
0
 40
1
 40
1
 40
1
 40
1
 10
13.820121
 20
5.605569
 30
0.0
 10
13.820121
 20
6.218100
 30
0.0
 10
13.493339
 20
6.784103
 30
0.0
 10
12.962871
 20
7.090369
 30
0.0
  0
SPLINE
  5
154
100
AcDbEntity
  8
Layer4
 62
7
100
AcDbSpline
 70
8
 71
3
 72
8
 73
4
 74
0
 40
0
 40
0
 40
0
 40
0
 40
1
 40
1
 40
1
 40
1
 10
12.962871
 20
7.090369
 30
0.0
 10
12.432403
 20
7.396635
 30
0.0
 10
11.778839
 20
7.396635
 30
0.0
 10
11.248371
 20
7.090369
 30
0.0
  0
SPLINE
  5
155
100
AcDbEntity
  8
Layer4
 62
7
100
AcDbSpline
 70
8
 71
3
 72
8
 73
4
 74
0
 40
0
 40
0
 40
0
 40
0
 40
1
 40
1
 40
1
 40
1
 10
11.248371
 20
7.090369
 30
0.0
 10
10.717903
 20
6.784103
 30
0.0
 10
10.391121
 20
6.218100
 30
0.0
 10
10.391121
 20
5.605569
 30
0.0
  0
SPLINE
  5
156
100
AcDbEntity
  8
Layer4
 62
7
100
AcDbSpline
 70
8
 71
3
 72
8
 73
4
 74
0
 40
0
 40
0
 40
0
 40
0
 40
1
 40
1
 40
1
 40
1
 10
10.391121
 20
5.605569
 30
0.0
 10
10.391121
 20
4.993037
 30
0.0
 10
10.717903
 20
4.427034
 30
0.0
 10
11.248371
 20
4.120768
 30
0.0
  0
SPLINE
  5
157
100
AcDbEntity
  8
Layer4
 62
7
100
AcDbSpline
 70
8
 71
3
 72
8
 73
4
 74
0
 40
0
 40
0
 40
0
 40
0
 40
1
 40
1
 40
1
 40
1
 10
11.248371
 20
4.120768
 30
0.0
 10
11.778839
 20
3.814502
 30
0.0
 10
12.432403
 20
3.814502
 30
0.0
 10
12.962871
 20
4.120768
 30
0.0
  0
SPLINE
  5
158
100
AcDbEntity
  8
Layer4
 62
7
100
AcDbSpline
 70
8
 71
3
 72
8
 73
4
 74
0
 40
0
 40
0
 40
0
 40
0
 40
1
 40
1
 40
1
 40
1
 10
12.962871
 20
4.120768
 30
0.0
 10
13.493339
 20
4.427034
 30
0.0
 10
13.820121
 20
4.993037
 30
0.0
 10
13.820121
 20
5.605569
 30
0.0
  0
LWPOLYLINE
  5
159
100
AcDbEntity
  8
Layer4
 62
7
100
AcDbPolyline
 90
1
 70
1
 10
13.820121
 20
184.355589
 30
0.0
  0
SPLINE
  5
15a
100
AcDbEntity
  8
Layer4
 62
7
100
AcDbSpline
 70
8
 71
3
 72
8
 73
4
 74
0
 40
0
 40
0
 40
0
 40
0
 40
1
 40
1
 40
1
 40
1
 10
13.820105
 20
194.641116
 30
0.0
 10
13.820105
 20
195.253648
 30
0.0
 10
13.493323
 20
195.819650
 30
0.0
 10
12.962855
 20
196.125916
 30
0.0
  0
SPLINE
  5
15b
100
AcDbEntity
  8
Layer4
 62
7
100
AcDbSpline
 70
8
 71
3
 72
8
 73
4
 74
0
 40
0
 40
0
 40
0
 40
0
 40
1
 40
1
 40
1
 40
1
 10
12.962855
 20
196.125916
 30
0.0
 10
12.432387
 20
196.432182
 30
0.0
 10
11.778823
 20
196.432182
 30
0.0
 10
11.248355
 20
196.125916
 30
0.0
  0
SPLINE
  5
15c
100
AcDbEntity
  8
Layer4
 62
7
100
AcDbSpline
 70
8
 71
3
 72
8
 73
4
 74
0
 40
0
 40
0
 40
0
 40
0
 40
1
 40
1
 40
1
 40
1
 10
11.248355
 20
196.125916
 30
0.0
 10
10.717887
 20
195.819650
 30
0.0
 10
10.391105
 20
195.253648
 30
0.0
 10
10.391105
 20
194.641116
 30
0.0
  0
SPLINE
  5
15d
100
AcDbEntity
  8
Layer4
 62
7
100
AcDbSpline
 70
8
 71
3
 72
8
 73
4
 74
0
 40
0
 40
0
 40
0
 40
0
 40
1
 40
1
 40
1
 40
1
 10
10.391105
 20
194.641116
 30
0.0
 10
10.391105
 20
194.028584
 30
0.0
 10
10.717887
 20
193.462581
 30
0.0
 10
11.248355
 20
193.156315
 30
0.0
  0
SPLINE
  5
15e
100
AcDbEntity
  8
Layer4
 62
7
100
AcDbSpline
 70
8
 71
3
 72
8
 73
4
 74
0
 40
0
 40
0
 40
0
 40
0
 40
1
 40
1
 40
1
 40
1
 10
11.248355
 20
193.156315
 30
0.0
 10
11.778823
 20
192.850049
 30
0.0
 10
12.432387
 20
192.850049
 30
0.0
 10
12.962855
 20
193.156315
 30
0.0
  0
SPLINE
  5
15f
100
AcDbEntity
  8
Layer4
 62
7
100
AcDbSpline
 70
8
 71
3
 72
8
 73
4
 74
0
 40
0
 40
0
 40
0
 40
0
 40
1
 40
1
 40
1
 40
1
 10
12.962855
 20
193.156315
 30
0.0
 10
13.493323
 20
193.462581
 30
0.0
 10
13.820105
 20
194.028584
 30
0.0
 10
13.820105
 20
194.641116
 30
0.0
  0
LWPOLYLINE
  5
160
100
AcDbEntity
  8
Layer4
 62
7
100
AcDbPolyline
 90
1
 70
1
 10
13.820121
 20
5.605569
 30
0.0
  0
SPLINE
  5
161
100
AcDbEntity
  8
Layer4
 62
7
100
AcDbSpline
 70
8
 71
3
 72
8
 73
4
 74
0
 40
0
 40
0
 40
0
 40
0
 40
1
 40
1
 40
1
 40
1
 10
214.141099
 20
95.105588
 30
0.0
 10
214.141099
 20
95.718120
 30
0.0
 10
213.814317
 20
96.284123
 30
0.0
 10
213.283849
 20
96.590389
 30
0.0
  0
SPLINE
  5
162
100
AcDbEntity
  8
Layer4
 62
7
100
AcDbSpline
 70
8
 71
3
 72
8
 73
4
 74
0
 40
0
 40
0
 40
0
 40
0
 40
1
 40
1
 40
1
 40
1
 10
213.283849
 20
96.590389
 30
0.0
 10
212.753381
 20
96.896655
 30
0.0
 10
212.099817
 20
96.896655
 30
0.0
 10
211.569349
 20
96.590389
 30
0.0
  0
SPLINE
  5
163
100
AcDbEntity
  8
Layer4
 62
7
100
AcDbSpline
 70
8
 71
3
 72
8
 73
4
 74
0
 40
0
 40
0
 40
0
 40
0
 40
1
 40
1
 40
1
 40
1
 10
211.569349
 20
96.590389
 30
0.0
 10
211.038881
 20
96.284123
 30
0.0
 10
210.712099
 20
95.718120
 30
0.0
 10
210.712099
 20
95.105588
 30
0.0
  0
SPLINE
  5
164
100
AcDbEntity
  8
Layer4
 62
7
100
AcDbSpline
 70
8
 71
3
 72
8
 73
4
 74
0
 40
0
 40
0
 40
0
 40
0
 40
1
 40
1
 40
1
 40
1
 10
210.712099
 20
95.105588
 30
0.0
 10
210.712099
 20
94.493056
 30
0.0
 10
211.038881
 20
93.927053
 30
0.0
 10
211.569349
 20
93.620787
 30
0.0
  0
SPLINE
  5
165
100
AcDbEntity
  8
Layer4
 62
7
100
AcDbSpline
 70
8
 71
3
 72
8
 73
4
 74
0
 40
0
 40
0
 40
0
 40
0
 40
1
 40
1
 40
1
 40
1
 10
211.569349
 20
93.620787
 30
0.0
 10
212.099817
 20
93.314522
 30
0.0
 10
212.753381
 20
93.314522
 30
0.0
 10
213.283849
 20
93.620787
 30
0.0
  0
SPLINE
  5
166
100
AcDbEntity
  8
Layer4
 62
7
100
AcDbSpline
 70
8
 71
3
 72
8
 73
4
 74
0
 40
0
 40
0
 40
0
 40
0
 40
1
 40
1
 40
1
 40
1
 10
213.283849
 20
93.620787
 30
0.0
 10
213.814317
 20
93.927053
 30
0.0
 10
214.141099
 20
94.493056
 30
0.0
 10
214.141099
 20
95.105588
 30
0.0
  0
LWPOLYLINE
  5
167
100
AcDbEntity
  8
Layer4
 62
7
100
AcDbPolyline
 90
1
 70
1
 10
13.820105
 20
194.641116
 30
0.0
  0
SPLINE
  5
168
100
AcDbEntity
  8
Layer4
 62
7
100
AcDbSpline
 70
8
 71
3
 72
8
 73
4
 74
0
 40
0
 40
0
 40
0
 40
0
 40
1
 40
1
 40
1
 40
1
 10
198.141099
 20
146.855588
 30
0.0
 10
198.141099
 20
147.468120
 30
0.0
 10
197.814318
 20
148.034122
 30
0.0
 10
197.283849
 20
148.340388
 30
0.0
  0
SPLINE
  5
169
100
AcDbEntity
  8
Layer4
 62
7
100
AcDbSpline
 70
8
 71
3
 72
8
 73
4
 74
0
 40
0
 40
0
 40
0
 40
0
 40
1
 40
1
 40
1
 40
1
 10
197.283849
 20
148.340388
 30
0.0
 10
196.753381
 20
148.646654
 30
0.0
 10
196.099818
 20
148.646654
 30
0.0
 10
195.569349
 20
148.340388
 30
0.0
  0
SPLINE
  5
16a
100
AcDbEntity
  8
Layer4
 62
7
100
AcDbSpline
 70
8
 71
3
 72
8
 73
4
 74
0
 40
0
 40
0
 40
0
 40
0
 40
1
 40
1
 40
1
 40
1
 10
195.569349
 20
148.340388
 30
0.0
 10
195.038881
 20
148.034122
 30
0.0
 10
194.712099
 20
147.468120
 30
0.0
 10
194.712099
 20
146.855588
 30
0.0
  0
SPLINE
  5
16b
100
AcDbEntity
  8
Layer4
 62
7
100
AcDbSpline
 70
8
 71
3
 72
8
 73
4
 74
0
 40
0
 40
0
 40
0
 40
0
 40
1
 40
1
 40
1
 40
1
 10
194.712099
 20
146.855588
 30
0.0
 10
194.712099
 20
146.243056
 30
0.0
 10
195.038881
 20
145.677053
 30
0.0
 10
195.569349
 20
145.370787
 30
0.0
  0
SPLINE
  5
16c
100
AcDbEntity
  8
Layer4
 62
7
100
AcDbSpline
 70
8
 71
3
 72
8
 73
4
 74
0
 40
0
 40
0
 40
0
 40
0
 40
1
 40
1
 40
1
 40
1
 10
195.569349
 20
145.370787
 30
0.0
 10
196.099818
 20
145.064521
 30
0.0
 10
196.753381
 20
145.064521
 30
0.0
 10
197.283849
 20
145.370787
 30
0.0
  0
SPLINE
  5
16d
100
AcDbEntity
  8
Layer4
 62
7
100
AcDbSpline
 70
8
 71
3
 72
8
 73
4
 74
0
 40
0
 40
0
 40
0
 40
0
 40
1
 40
1
 40
1
 40
1
 10
197.283849
 20
145.370787
 30
0.0
 10
197.814318
 20
145.677053
 30
0.0
 10
198.141099
 20
146.243056
 30
0.0
 10
198.141099
 20
146.855588
 30
0.0
  0
LWPOLYLINE
  5
16e
100
AcDbEntity
  8
Layer4
 62
7
100
AcDbPolyline
 90
1
 70
1
 10
214.141099
 20
95.105588
 30
0.0
  0
SPLINE
  5
16f
100
AcDbEntity
  8
Layer4
 62
7
100
AcDbSpline
 70
8
 71
3
 72
8
 73
4
 74
0
 40
0
 40
0
 40
0
 40
0
 40
1
 40
1
 40
1
 40
1
 10
198.141099
 20
133.355591
 30
0.0
 10
198.141099
 20
133.968123
 30
0.0
 10
197.814318
 20
134.534126
 30
0.0
 10
197.283849
 20
134.840391
 30
0.0
  0
SPLINE
  5
170
100
AcDbEntity
  8
Layer4
 62
7
100
AcDbSpline
 70
8
 71
3
 72
8
 73
4
 74
0
 40
0
 40
0
 40
0
 40
0
 40
1
 40
1
 40
1
 40
1
 10
197.283849
 20
134.840391
 30
0.0
 10
196.753381
 20
135.146657
 30
0.0
 10
196.099818
 20
135.146657
 30
0.0
 10
195.569349
 20
134.840391
 30
0.0
  0
SPLINE
  5
171
100
AcDbEntity
  8
Layer4
 62
7
100
AcDbSpline
 70
8
 71
3
 72
8
 73
4
 74
0
 40
0
 40
0
 40
0
 40
0
 40
1
 40
1
 40
1
 40
1
 10
195.569349
 20
134.840391
 30
0.0
 10
195.038881
 20
134.534126
 30
0.0
 10
194.712099
 20
133.968123
 30
0.0
 10
194.712099
 20
133.355591
 30
0.0
  0
SPLINE
  5
172
100
AcDbEntity
  8
Layer4
 62
7
100
AcDbSpline
 70
8
 71
3
 72
8
 73
4
 74
0
 40
0
 40
0
 40
0
 40
0
 40
1
 40
1
 40
1
 40
1
 10
194.712099
 20
133.355591
 30
0.0
 10
194.712099
 20
132.743059
 30
0.0
 10
195.038881
 20
132.177056
 30
0.0
 10
195.569349
 20
131.870790
 30
0.0
  0
SPLINE
  5
173
100
AcDbEntity
  8
Layer4
 62
7
100
AcDbSpline
 70
8
 71
3
 72
8
 73
4
 74
0
 40
0
 40
0
 40
0
 40
0
 40
1
 40
1
 40
1
 40
1
 10
195.569349
 20
131.870790
 30
0.0
 10
196.099818
 20
131.564524
 30
0.0
 10
196.753381
 20
131.564524
 30
0.0
 10
197.283849
 20
131.870790
 30
0.0
  0
SPLINE
  5
174
100
AcDbEntity
  8
Layer4
 62
7
100
AcDbSpline
 70
8
 71
3
 72
8
 73
4
 74
0
 40
0
 40
0
 40
0
 40
0
 40
1
 40
1
 40
1
 40
1
 10
197.283849
 20
131.870790
 30
0.0
 10
197.814318
 20
132.177056
 30
0.0
 10
198.141099
 20
132.743059
 30
0.0
 10
198.141099
 20
133.355591
 30
0.0
  0
LWPOLYLINE
  5
175
100
AcDbEntity
  8
Layer4
 62
7
100
AcDbPolyline
 90
1
 70
1
 10
198.141099
 20
146.855588
 30
0.0
  0
SPLINE
  5
176
100
AcDbEntity
  8
Layer4
 62
7
100
AcDbSpline
 70
8
 71
3
 72
8
 73
4
 74
0
 40
0
 40
0
 40
0
 40
0
 40
1
 40
1
 40
1
 40
1
 10
230.141099
 20
101.855588
 30
0.0
 10
230.141099
 20
102.468120
 30
0.0
 10
229.814317
 20
103.034122
 30
0.0
 10
229.283849
 20
103.340388
 30
0.0
  0
SPLINE
  5
177
100
AcDbEntity
  8
Layer4
 62
7
100
AcDbSpline
 70
8
 71
3
 72
8
 73
4
 74
0
 40
0
 40
0
 40
0
 40
0
 40
1
 40
1
 40
1
 40
1
 10
229.283849
 20
103.340388
 30
0.0
 10
228.753381
 20
103.646654
 30
0.0
 10
228.099817
 20
103.646654
 30
0.0
 10
227.569349
 20
103.340388
 30
0.0
  0
SPLINE
  5
178
100
AcDbEntity
  8
Layer4
 62
7
100
AcDbSpline
 70
8
 71
3
 72
8
 73
4
 74
0
 40
0
 40
0
 40
0
 40
0
 40
1
 40
1
 40
1
 40
1
 10
227.569349
 20
103.340388
 30
0.0
 10
227.038881
 20
103.034122
 30
0.0
 10
226.712099
 20
102.468120
 30
0.0
 10
226.712099
 20
101.855588
 30
0.0
  0
SPLINE
  5
179
100
AcDbEntity
  8
Layer4
 62
7
100
AcDbSpline
 70
8
 71
3
 72
8
 73
4
 74
0
 40
0
 40
0
 40
0
 40
0
 40
1
 40
1
 40
1
 40
1
 10
226.712099
 20
101.855588
 30
0.0
 10
226.712099
 20
101.243056
 30
0.0
 10
227.038881
 20
100.677053
 30
0.0
 10
227.569349
 20
100.370787
 30
0.0
  0
SPLINE
  5
17a
100
AcDbEntity
  8
Layer4
 62
7
100
AcDbSpline
 70
8
 71
3
 72
8
 73
4
 74
0
 40
0
 40
0
 40
0
 40
0
 40
1
 40
1
 40
1
 40
1
 10
227.569349
 20
100.370787
 30
0.0
 10
228.099817
 20
100.064521
 30
0.0
 10
228.753381
 20
100.064521
 30
0.0
 10
229.283849
 20
100.370787
 30
0.0
  0
SPLINE
  5
17b
100
AcDbEntity
  8
Layer4
 62
7
100
AcDbSpline
 70
8
 71
3
 72
8
 73
4
 74
0
 40
0
 40
0
 40
0
 40
0
 40
1
 40
1
 40
1
 40
1
 10
229.283849
 20
100.370787
 30
0.0
 10
229.814317
 20
100.677053
 30
0.0
 10
230.141099
 20
101.243056
 30
0.0
 10
230.141099
 20
101.855588
 30
0.0
  0
LWPOLYLINE
  5
17c
100
AcDbEntity
  8
Layer4
 62
7
100
AcDbPolyline
 90
1
 70
1
 10
198.141099
 20
133.355591
 30
0.0
  0
SPLINE
  5
17d
100
AcDbEntity
  8
Layer4
 62
7
100
AcDbSpline
 70
8
 71
3
 72
8
 73
4
 74
0
 40
0
 40
0
 40
0
 40
0
 40
1
 40
1
 40
1
 40
1
 10
230.141099
 20
88.355591
 30
0.0
 10
230.141099
 20
88.968123
 30
0.0
 10
229.814317
 20
89.534126
 30
0.0
 10
229.283849
 20
89.840392
 30
0.0
  0
SPLINE
  5
17e
100
AcDbEntity
  8
Layer4
 62
7
100
AcDbSpline
 70
8
 71
3
 72
8
 73
4
 74
0
 40
0
 40
0
 40
0
 40
0
 40
1
 40
1
 40
1
 40
1
 10
229.283849
 20
89.840392
 30
0.0
 10
228.753381
 20
90.146657
 30
0.0
 10
228.099817
 20
90.146657
 30
0.0
 10
227.569349
 20
89.840392
 30
0.0
  0
SPLINE
  5
17f
100
AcDbEntity
  8
Layer4
 62
7
100
AcDbSpline
 70
8
 71
3
 72
8
 73
4
 74
0
 40
0
 40
0
 40
0
 40
0
 40
1
 40
1
 40
1
 40
1
 10
227.569349
 20
89.840392
 30
0.0
 10
227.038881
 20
89.534126
 30
0.0
 10
226.712099
 20
88.968123
 30
0.0
 10
226.712099
 20
88.355591
 30
0.0
  0
SPLINE
  5
180
100
AcDbEntity
  8
Layer4
 62
7
100
AcDbSpline
 70
8
 71
3
 72
8
 73
4
 74
0
 40
0
 40
0
 40
0
 40
0
 40
1
 40
1
 40
1
 40
1
 10
226.712099
 20
88.355591
 30
0.0
 10
226.712099
 20
87.743059
 30
0.0
 10
227.038881
 20
87.177056
 30
0.0
 10
227.569349
 20
86.870790
 30
0.0
  0
SPLINE
  5
181
100
AcDbEntity
  8
Layer4
 62
7
100
AcDbSpline
 70
8
 71
3
 72
8
 73
4
 74
0
 40
0
 40
0
 40
0
 40
0
 40
1
 40
1
 40
1
 40
1
 10
227.569349
 20
86.870790
 30
0.0
 10
228.099817
 20
86.564524
 30
0.0
 10
228.753381
 20
86.564524
 30
0.0
 10
229.283849
 20
86.870790
 30
0.0
  0
SPLINE
  5
182
100
AcDbEntity
  8
Layer4
 62
7
100
AcDbSpline
 70
8
 71
3
 72
8
 73
4
 74
0
 40
0
 40
0
 40
0
 40
0
 40
1
 40
1
 40
1
 40
1
 10
229.283849
 20
86.870790
 30
0.0
 10
229.814317
 20
87.177056
 30
0.0
 10
230.141099
 20
87.743059
 30
0.0
 10
230.141099
 20
88.355591
 30
0.0
  0
LWPOLYLINE
  5
183
100
AcDbEntity
  8
Layer4
 62
7
100
AcDbPolyline
 90
1
 70
1
 10
230.141099
 20
101.855588
 30
0.0
  0
SPLINE
  5
184
100
AcDbEntity
  8
Layer4
 62
7
100
AcDbSpline
 70
8
 71
3
 72
8
 73
4
 74
0
 40
0
 40
0
 40
0
 40
0
 40
1
 40
1
 40
1
 40
1
 10
198.141099
 20
56.855588
 30
0.0
 10
198.141099
 20
57.468120
 30
0.0
 10
197.814318
 20
58.034122
 30
0.0
 10
197.283849
 20
58.340388
 30
0.0
  0
SPLINE
  5
185
100
AcDbEntity
  8
Layer4
 62
7
100
AcDbSpline
 70
8
 71
3
 72
8
 73
4
 74
0
 40
0
 40
0
 40
0
 40
0
 40
1
 40
1
 40
1
 40
1
 10
197.283849
 20
58.340388
 30
0.0
 10
196.753381
 20
58.646654
 30
0.0
 10
196.099818
 20
58.646654
 30
0.0
 10
195.569349
 20
58.340388
 30
0.0
  0
SPLINE
  5
186
100
AcDbEntity
  8
Layer4
 62
7
100
AcDbSpline
 70
8
 71
3
 72
8
 73
4
 74
0
 40
0
 40
0
 40
0
 40
0
 40
1
 40
1
 40
1
 40
1
 10
195.569349
 20
58.340388
 30
0.0
 10
195.038881
 20
58.034122
 30
0.0
 10
194.712099
 20
57.468120
 30
0.0
 10
194.712099
 20
56.855588
 30
0.0
  0
SPLINE
  5
187
100
AcDbEntity
  8
Layer4
 62
7
100
AcDbSpline
 70
8
 71
3
 72
8
 73
4
 74
0
 40
0
 40
0
 40
0
 40
0
 40
1
 40
1
 40
1
 40
1
 10
194.712099
 20
56.855588
 30
0.0
 10
194.712099
 20
56.243056
 30
0.0
 10
195.038881
 20
55.677053
 30
0.0
 10
195.569349
 20
55.370787
 30
0.0
  0
SPLINE
  5
188
100
AcDbEntity
  8
Layer4
 62
7
100
AcDbSpline
 70
8
 71
3
 72
8
 73
4
 74
0
 40
0
 40
0
 40
0
 40
0
 40
1
 40
1
 40
1
 40
1
 10
195.569349
 20
55.370787
 30
0.0
 10
196.099818
 20
55.064521
 30
0.0
 10
196.753381
 20
55.064521
 30
0.0
 10
197.283849
 20
55.370787
 30
0.0
  0
SPLINE
  5
189
100
AcDbEntity
  8
Layer4
 62
7
100
AcDbSpline
 70
8
 71
3
 72
8
 73
4
 74
0
 40
0
 40
0
 40
0
 40
0
 40
1
 40
1
 40
1
 40
1
 10
197.283849
 20
55.370787
 30
0.0
 10
197.814318
 20
55.677053
 30
0.0
 10
198.141099
 20
56.243056
 30
0.0
 10
198.141099
 20
56.855588
 30
0.0
  0
LWPOLYLINE
  5
18a
100
AcDbEntity
  8
Layer4
 62
7
100
AcDbPolyline
 90
1
 70
1
 10
230.141099
 20
88.355591
 30
0.0
  0
SPLINE
  5
18b
100
AcDbEntity
  8
Layer4
 62
7
100
AcDbSpline
 70
8
 71
3
 72
8
 73
4
 74
0
 40
0
 40
0
 40
0
 40
0
 40
1
 40
1
 40
1
 40
1
 10
198.141099
 20
43.355591
 30
0.0
 10
198.141099
 20
43.968123
 30
0.0
 10
197.814318
 20
44.534126
 30
0.0
 10
197.283849
 20
44.840392
 30
0.0
  0
SPLINE
  5
18c
100
AcDbEntity
  8
Layer4
 62
7
100
AcDbSpline
 70
8
 71
3
 72
8
 73
4
 74
0
 40
0
 40
0
 40
0
 40
0
 40
1
 40
1
 40
1
 40
1
 10
197.283849
 20
44.840392
 30
0.0
 10
196.753381
 20
45.146657
 30
0.0
 10
196.099818
 20
45.146657
 30
0.0
 10
195.569349
 20
44.840392
 30
0.0
  0
SPLINE
  5
18d
100
AcDbEntity
  8
Layer4
 62
7
100
AcDbSpline
 70
8
 71
3
 72
8
 73
4
 74
0
 40
0
 40
0
 40
0
 40
0
 40
1
 40
1
 40
1
 40
1
 10
195.569349
 20
44.840392
 30
0.0
 10
195.038881
 20
44.534126
 30
0.0
 10
194.712099
 20
43.968123
 30
0.0
 10
194.712099
 20
43.355591
 30
0.0
  0
SPLINE
  5
18e
100
AcDbEntity
  8
Layer4
 62
7
100
AcDbSpline
 70
8
 71
3
 72
8
 73
4
 74
0
 40
0
 40
0
 40
0
 40
0
 40
1
 40
1
 40
1
 40
1
 10
194.712099
 20
43.355591
 30
0.0
 10
194.712099
 20
42.743059
 30
0.0
 10
195.038881
 20
42.177056
 30
0.0
 10
195.569349
 20
41.870790
 30
0.0
  0
SPLINE
  5
18f
100
AcDbEntity
  8
Layer4
 62
7
100
AcDbSpline
 70
8
 71
3
 72
8
 73
4
 74
0
 40
0
 40
0
 40
0
 40
0
 40
1
 40
1
 40
1
 40
1
 10
195.569349
 20
41.870790
 30
0.0
 10
196.099818
 20
41.564525
 30
0.0
 10
196.753381
 20
41.564525
 30
0.0
 10
197.283849
 20
41.870790
 30
0.0
  0
SPLINE
  5
190
100
AcDbEntity
  8
Layer4
 62
7
100
AcDbSpline
 70
8
 71
3
 72
8
 73
4
 74
0
 40
0
 40
0
 40
0
 40
0
 40
1
 40
1
 40
1
 40
1
 10
197.283849
 20
41.870790
 30
0.0
 10
197.814318
 20
42.177056
 30
0.0
 10
198.141099
 20
42.743059
 30
0.0
 10
198.141099
 20
43.355591
 30
0.0
  0
LWPOLYLINE
  5
191
100
AcDbEntity
  8
Layer4
 62
7
100
AcDbPolyline
 90
1
 70
1
 10
198.141099
 20
56.855588
 30
0.0
  0
SPLINE
  5
192
100
AcDbEntity
  8
Layer4
 62
7
100
AcDbSpline
 70
8
 71
3
 72
8
 73
4
 74
0
 40
0
 40
0
 40
0
 40
0
 40
1
 40
1
 40
1
 40
1
 10
239.891101
 20
184.355589
 30
0.0
 10
239.891101
 20
184.968121
 30
0.0
 10
239.564319
 20
185.534124
 30
0.0
 10
239.033851
 20
185.840390
 30
0.0
  0
SPLINE
  5
193
100
AcDbEntity
  8
Layer4
 62
7
100
AcDbSpline
 70
8
 71
3
 72
8
 73
4
 74
0
 40
0
 40
0
 40
0
 40
0
 40
1
 40
1
 40
1
 40
1
 10
239.033851
 20
185.840390
 30
0.0
 10
238.503382
 20
186.146656
 30
0.0
 10
237.849819
 20
186.146656
 30
0.0
 10
237.319351
 20
185.840390
 30
0.0
  0
SPLINE
  5
194
100
AcDbEntity
  8
Layer4
 62
7
100
AcDbSpline
 70
8
 71
3
 72
8
 73
4
 74
0
 40
0
 40
0
 40
0
 40
0
 40
1
 40
1
 40
1
 40
1
 10
237.319351
 20
185.840390
 30
0.0
 10
236.788882
 20
185.534124
 30
0.0
 10
236.462101
 20
184.968121
 30
0.0
 10
236.462101
 20
184.355589
 30
0.0
  0
SPLINE
  5
195
100
AcDbEntity
  8
Layer4
 62
7
100
AcDbSpline
 70
8
 71
3
 72
8
 73
4
 74
0
 40
0
 40
0
 40
0
 40
0
 40
1
 40
1
 40
1
 40
1
 10
236.462101
 20
184.355589
 30
0.0
 10
236.462101
 20
183.743058
 30
0.0
 10
236.788882
 20
183.177055
 30
0.0
 10
237.319351
 20
182.870789
 30
0.0
  0
SPLINE
  5
196
100
AcDbEntity
  8
Layer4
 62
7
100
AcDbSpline
 70
8
 71
3
 72
8
 73
4
 74
0
 40
0
 40
0
 40
0
 40
0
 40
1
 40
1
 40
1
 40
1
 10
237.319351
 20
182.870789
 30
0.0
 10
237.849819
 20
182.564523
 30
0.0
 10
238.503382
 20
182.564523
 30
0.0
 10
239.033851
 20
182.870789
 30
0.0
  0
SPLINE
  5
197
100
AcDbEntity
  8
Layer4
 62
7
100
AcDbSpline
 70
8
 71
3
 72
8
 73
4
 74
0
 40
0
 40
0
 40
0
 40
0
 40
1
 40
1
 40
1
 40
1
 10
239.033851
 20
182.870789
 30
0.0
 10
239.564319
 20
183.177055
 30
0.0
 10
239.891101
 20
183.743058
 30
0.0
 10
239.891101
 20
184.355589
 30
0.0
  0
LWPOLYLINE
  5
198
100
AcDbEntity
  8
Layer4
 62
7
100
AcDbPolyline
 90
1
 70
1
 10
198.141099
 20
43.355591
 30
0.0
  0
SPLINE
  5
199
100
AcDbEntity
  8
Layer4
 62
7
100
AcDbSpline
 70
8
 71
3
 72
8
 73
4
 74
0
 40
0
 40
0
 40
0
 40
0
 40
1
 40
1
 40
1
 40
1
 10
239.891101
 20
5.605569
 30
0.0
 10
239.891101
 20
6.218100
 30
0.0
 10
239.564319
 20
6.784103
 30
0.0
 10
239.033851
 20
7.090369
 30
0.0
  0
SPLINE
  5
19a
100
AcDbEntity
  8
Layer4
 62
7
100
AcDbSpline
 70
8
 71
3
 72
8
 73
4
 74
0
 40
0
 40
0
 40
0
 40
0
 40
1
 40
1
 40
1
 40
1
 10
239.033851
 20
7.090369
 30
0.0
 10
238.503382
 20
7.396635
 30
0.0
 10
237.849819
 20
7.396635
 30
0.0
 10
237.319351
 20
7.090369
 30
0.0
  0
SPLINE
  5
19b
100
AcDbEntity
  8
Layer4
 62
7
100
AcDbSpline
 70
8
 71
3
 72
8
 73
4
 74
0
 40
0
 40
0
 40
0
 40
0
 40
1
 40
1
 40
1
 40
1
 10
237.319351
 20
7.090369
 30
0.0
 10
236.788882
 20
6.784103
 30
0.0
 10
236.462101
 20
6.218100
 30
0.0
 10
236.462101
 20
5.605569
 30
0.0
  0
SPLINE
  5
19c
100
AcDbEntity
  8
Layer4
 62
7
100
AcDbSpline
 70
8
 71
3
 72
8
 73
4
 74
0
 40
0
 40
0
 40
0
 40
0
 40
1
 40
1
 40
1
 40
1
 10
236.462101
 20
5.605569
 30
0.0
 10
236.462101
 20
4.993037
 30
0.0
 10
236.788882
 20
4.427034
 30
0.0
 10
237.319351
 20
4.120768
 30
0.0
  0
SPLINE
  5
19d
100
AcDbEntity
  8
Layer4
 62
7
100
AcDbSpline
 70
8
 71
3
 72
8
 73
4
 74
0
 40
0
 40
0
 40
0
 40
0
 40
1
 40
1
 40
1
 40
1
 10
237.319351
 20
4.120768
 30
0.0
 10
237.849819
 20
3.814502
 30
0.0
 10
238.503382
 20
3.814502
 30
0.0
 10
239.033851
 20
4.120768
 30
0.0
  0
SPLINE
  5
19e
100
AcDbEntity
  8
Layer4
 62
7
100
AcDbSpline
 70
8
 71
3
 72
8
 73
4
 74
0
 40
0
 40
0
 40
0
 40
0
 40
1
 40
1
 40
1
 40
1
 10
239.033851
 20
4.120768
 30
0.0
 10
239.564319
 20
4.427034
 30
0.0
 10
239.891101
 20
4.993037
 30
0.0
 10
239.891101
 20
5.605569
 30
0.0
  0
LWPOLYLINE
  5
19f
100
AcDbEntity
  8
Layer4
 62
7
100
AcDbPolyline
 90
1
 70
1
 10
239.891101
 20
184.355589
 30
0.0
  0
SPLINE
  5
1a0
100
AcDbEntity
  8
Layer4
 62
7
100
AcDbSpline
 70
8
 71
3
 72
8
 73
4
 74
0
 40
0
 40
0
 40
0
 40
0
 40
1
 40
1
 40
1
 40
1
 10
239.891117
 20
194.641116
 30
0.0
 10
239.891117
 20
195.253648
 30
0.0
 10
239.564335
 20
195.819650
 30
0.0
 10
239.033867
 20
196.125916
 30
0.0
  0
SPLINE
  5
1a1
100
AcDbEntity
  8
Layer4
 62
7
100
AcDbSpline
 70
8
 71
3
 72
8
 73
4
 74
0
 40
0
 40
0
 40
0
 40
0
 40
1
 40
1
 40
1
 40
1
 10
239.033867
 20
196.125916
 30
0.0
 10
238.503398
 20
196.432182
 30
0.0
 10
237.849835
 20
196.432182
 30
0.0
 10
237.319367
 20
196.125916
 30
0.0
  0
SPLINE
  5
1a2
100
AcDbEntity
  8
Layer4
 62
7
100
AcDbSpline
 70
8
 71
3
 72
8
 73
4
 74
0
 40
0
 40
0
 40
0
 40
0
 40
1
 40
1
 40
1
 40
1
 10
237.319367
 20
196.125916
 30
0.0
 10
236.788898
 20
195.819650
 30
0.0
 10
236.462117
 20
195.253648
 30
0.0
 10
236.462117
 20
194.641116
 30
0.0
  0
SPLINE
  5
1a3
100
AcDbEntity
  8
Layer4
 62
7
100
AcDbSpline
 70
8
 71
3
 72
8
 73
4
 74
0
 40
0
 40
0
 40
0
 40
0
 40
1
 40
1
 40
1
 40
1
 10
236.462117
 20
194.641116
 30
0.0
 10
236.462117
 20
194.028584
 30
0.0
 10
236.788898
 20
193.462581
 30
0.0
 10
237.319367
 20
193.156315
 30
0.0
  0
SPLINE
  5
1a4
100
AcDbEntity
  8
Layer4
 62
7
100
AcDbSpline
 70
8
 71
3
 72
8
 73
4
 74
0
 40
0
 40
0
 40
0
 40
0
 40
1
 40
1
 40
1
 40
1
 10
237.319367
 20
193.156315
 30
0.0
 10
237.849835
 20
192.850049
 30
0.0
 10
238.503398
 20
192.850049
 30
0.0
 10
239.033867
 20
193.156315
 30
0.0
  0
SPLINE
  5
1a5
100
AcDbEntity
  8
Layer4
 62
7
100
AcDbSpline
 70
8
 71
3
 72
8
 73
4
 74
0
 40
0
 40
0
 40
0
 40
0
 40
1
 40
1
 40
1
 40
1
 10
239.033867
 20
193.156315
 30
0.0
 10
239.564335
 20
193.462581
 30
0.0
 10
239.891117
 20
194.028584
 30
0.0
 10
239.891117
 20
194.641116
 30
0.0
  0
LWPOLYLINE
  5
1a6
100
AcDbEntity
  8
Layer4
 62
7
100
AcDbPolyline
 90
1
 70
1
 10
239.891101
 20
5.605569
 30
0.0
  0
SPLINE
  5
1a7
100
AcDbEntity
  8
Layer4
 62
7
100
AcDbSpline
 70
8
 71
3
 72
8
 73
4
 74
0
 40
0
 40
0
 40
0
 40
0
 40
1
 40
1
 40
1
 40
1
 10
96.255614
 20
162.355618
 30
0.0
 10
96.255614
 20
162.968149
 30
0.0
 10
95.928832
 20
163.534152
 30
0.0
 10
95.398364
 20
163.840418
 30
0.0
  0
SPLINE
  5
1a8
100
AcDbEntity
  8
Layer4
 62
7
100
AcDbSpline
 70
8
 71
3
 72
8
 73
4
 74
0
 40
0
 40
0
 40
0
 40
0
 40
1
 40
1
 40
1
 40
1
 10
95.398364
 20
163.840418
 30
0.0
 10
94.867896
 20
164.146684
 30
0.0
 10
94.214332
 20
164.146684
 30
0.0
 10
93.683864
 20
163.840418
 30
0.0
  0
SPLINE
  5
1a9
100
AcDbEntity
  8
Layer4
 62
7
100
AcDbSpline
 70
8
 71
3
 72
8
 73
4
 74
0
 40
0
 40
0
 40
0
 40
0
 40
1
 40
1
 40
1
 40
1
 10
93.683864
 20
163.840418
 30
0.0
 10
93.153396
 20
163.534152
 30
0.0
 10
92.826614
 20
162.968149
 30
0.0
 10
92.826614
 20
162.355618
 30
0.0
  0
SPLINE
  5
1aa
100
AcDbEntity
  8
Layer4
 62
7
100
AcDbSpline
 70
8
 71
3
 72
8
 73
4
 74
0
 40
0
 40
0
 40
0
 40
0
 40
1
 40
1
 40
1
 40
1
 10
92.826614
 20
162.355618
 30
0.0
 10
92.826614
 20
161.743086
 30
0.0
 10
93.153396
 20
161.177083
 30
0.0
 10
93.683864
 20
160.870817
 30
0.0
  0
SPLINE
  5
1ab
100
AcDbEntity
  8
Layer4
 62
7
100
AcDbSpline
 70
8
 71
3
 72
8
 73
4
 74
0
 40
0
 40
0
 40
0
 40
0
 40
1
 40
1
 40
1
 40
1
 10
93.683864
 20
160.870817
 30
0.0
 10
94.214332
 20
160.564551
 30
0.0
 10
94.867896
 20
160.564551
 30
0.0
 10
95.398364
 20
160.870817
 30
0.0
  0
SPLINE
  5
1ac
100
AcDbEntity
  8
Layer4
 62
7
100
AcDbSpline
 70
8
 71
3
 72
8
 73
4
 74
0
 40
0
 40
0
 40
0
 40
0
 40
1
 40
1
 40
1
 40
1
 10
95.398364
 20
160.870817
 30
0.0
 10
95.928832
 20
161.177083
 30
0.0
 10
96.255614
 20
161.743086
 30
0.0
 10
96.255614
 20
162.355618
 30
0.0
  0
LWPOLYLINE
  5
1ad
100
AcDbEntity
  8
Layer4
 62
7
100
AcDbPolyline
 90
1
 70
1
 10
239.891117
 20
194.641116
 30
0.0
  0
SPLINE
  5
1ae
100
AcDbEntity
  8
Layer4
 62
7
100
AcDbSpline
 70
8
 71
3
 72
8
 73
4
 74
0
 40
0
 40
0
 40
0
 40
0
 40
1
 40
1
 40
1
 40
1
 10
96.255614
 20
140.105614
 30
0.0
 10
96.255614
 20
140.718146
 30
0.0
 10
95.928832
 20
141.284149
 30
0.0
 10
95.398364
 20
141.590415
 30
0.0
  0
SPLINE
  5
1af
100
AcDbEntity
  8
Layer4
 62
7
100
AcDbSpline
 70
8
 71
3
 72
8
 73
4
 74
0
 40
0
 40
0
 40
0
 40
0
 40
1
 40
1
 40
1
 40
1
 10
95.398364
 20
141.590415
 30
0.0
 10
94.867896
 20
141.896681
 30
0.0
 10
94.214332
 20
141.896681
 30
0.0
 10
93.683864
 20
141.590415
 30
0.0
  0
SPLINE
  5
1b0
100
AcDbEntity
  8
Layer4
 62
7
100
AcDbSpline
 70
8
 71
3
 72
8
 73
4
 74
0
 40
0
 40
0
 40
0
 40
0
 40
1
 40
1
 40
1
 40
1
 10
93.683864
 20
141.590415
 30
0.0
 10
93.153396
 20
141.284149
 30
0.0
 10
92.826614
 20
140.718146
 30
0.0
 10
92.826614
 20
140.105614
 30
0.0
  0
SPLINE
  5
1b1
100
AcDbEntity
  8
Layer4
 62
7
100
AcDbSpline
 70
8
 71
3
 72
8
 73
4
 74
0
 40
0
 40
0
 40
0
 40
0
 40
1
 40
1
 40
1
 40
1
 10
92.826614
 20
140.105614
 30
0.0
 10
92.826614
 20
139.493083
 30
0.0
 10
93.153396
 20
138.927080
 30
0.0
 10
93.683864
 20
138.620814
 30
0.0
  0
SPLINE
  5
1b2
100
AcDbEntity
  8
Layer4
 62
7
100
AcDbSpline
 70
8
 71
3
 72
8
 73
4
 74
0
 40
0
 40
0
 40
0
 40
0
 40
1
 40
1
 40
1
 40
1
 10
93.683864
 20
138.620814
 30
0.0
 10
94.214332
 20
138.314548
 30
0.0
 10
94.867896
 20
138.314548
 30
0.0
 10
95.398364
 20
138.620814
 30
0.0
  0
SPLINE
  5
1b3
100
AcDbEntity
  8
Layer4
 62
7
100
AcDbSpline
 70
8
 71
3
 72
8
 73
4
 74
0
 40
0
 40
0
 40
0
 40
0
 40
1
 40
1
 40
1
 40
1
 10
95.398364
 20
138.620814
 30
0.0
 10
95.928832
 20
138.927080
 30
0.0
 10
96.255614
 20
139.493083
 30
0.0
 10
96.255614
 20
140.105614
 30
0.0
  0
LWPOLYLINE
  5
1b4
100
AcDbEntity
  8
Layer4
 62
7
100
AcDbPolyline
 90
1
 70
1
 10
96.255614
 20
162.355618
 30
0.0
  0
SPLINE
  5
1b5
100
AcDbEntity
  8
Layer4
 62
7
100
AcDbSpline
 70
8
 71
3
 72
8
 73
4
 74
0
 40
0
 40
0
 40
0
 40
0
 40
1
 40
1
 40
1
 40
1
 10
96.255614
 20
117.855617
 30
0.0
 10
96.255614
 20
118.468148
 30
0.0
 10
95.928832
 20
119.034151
 30
0.0
 10
95.398364
 20
119.340417
 30
0.0
  0
SPLINE
  5
1b6
100
AcDbEntity
  8
Layer4
 62
7
100
AcDbSpline
 70
8
 71
3
 72
8
 73
4
 74
0
 40
0
 40
0
 40
0
 40
0
 40
1
 40
1
 40
1
 40
1
 10
95.398364
 20
119.340417
 30
0.0
 10
94.867896
 20
119.646683
 30
0.0
 10
94.214332
 20
119.646683
 30
0.0
 10
93.683864
 20
119.340417
 30
0.0
  0
SPLINE
  5
1b7
100
AcDbEntity
  8
Layer4
 62
7
100
AcDbSpline
 70
8
 71
3
 72
8
 73
4
 74
0
 40
0
 40
0
 40
0
 40
0
 40
1
 40
1
 40
1
 40
1
 10
93.683864
 20
119.340417
 30
0.0
 10
93.153396
 20
119.034151
 30
0.0
 10
92.826614
 20
118.468148
 30
0.0
 10
92.826614
 20
117.855617
 30
0.0
  0
SPLINE
  5
1b8
100
AcDbEntity
  8
Layer4
 62
7
100
AcDbSpline
 70
8
 71
3
 72
8
 73
4
 74
0
 40
0
 40
0
 40
0
 40
0
 40
1
 40
1
 40
1
 40
1
 10
92.826614
 20
117.855617
 30
0.0
 10
92.826614
 20
117.243085
 30
0.0
 10
93.153396
 20
116.677082
 30
0.0
 10
93.683864
 20
116.370816
 30
0.0
  0
SPLINE
  5
1b9
100
AcDbEntity
  8
Layer4
 62
7
100
AcDbSpline
 70
8
 71
3
 72
8
 73
4
 74
0
 40
0
 40
0
 40
0
 40
0
 40
1
 40
1
 40
1
 40
1
 10
93.683864
 20
116.370816
 30
0.0
 10
94.214332
 20
116.064550
 30
0.0
 10
94.867896
 20
116.064550
 30
0.0
 10
95.398364
 20
116.370816
 30
0.0
  0
SPLINE
  5
1ba
100
AcDbEntity
  8
Layer4
 62
7
100
AcDbSpline
 70
8
 71
3
 72
8
 73
4
 74
0
 40
0
 40
0
 40
0
 40
0
 40
1
 40
1
 40
1
 40
1
 10
95.398364
 20
116.370816
 30
0.0
 10
95.928832
 20
116.677082
 30
0.0
 10
96.255614
 20
117.243085
 30
0.0
 10
96.255614
 20
117.855617
 30
0.0
  0
LWPOLYLINE
  5
1bb
100
AcDbEntity
  8
Layer4
 62
7
100
AcDbPolyline
 90
1
 70
1
 10
96.255614
 20
140.105614
 30
0.0
  0
SPLINE
  5
1bc
100
AcDbEntity
  8
Layer4
 62
7
100
AcDbSpline
 70
8
 71
3
 72
8
 73
4
 74
0
 40
0
 40
0
 40
0
 40
0
 40
1
 40
1
 40
1
 40
1
 10
96.255614
 20
95.605616
 30
0.0
 10
96.255614
 20
96.218148
 30
0.0
 10
95.928832
 20
96.784151
 30
0.0
 10
95.398364
 20
97.090417
 30
0.0
  0
SPLINE
  5
1bd
100
AcDbEntity
  8
Layer4
 62
7
100
AcDbSpline
 70
8
 71
3
 72
8
 73
4
 74
0
 40
0
 40
0
 40
0
 40
0
 40
1
 40
1
 40
1
 40
1
 10
95.398364
 20
97.090417
 30
0.0
 10
94.867896
 20
97.396683
 30
0.0
 10
94.214332
 20
97.396683
 30
0.0
 10
93.683864
 20
97.090417
 30
0.0
  0
SPLINE
  5
1be
100
AcDbEntity
  8
Layer4
 62
7
100
AcDbSpline
 70
8
 71
3
 72
8
 73
4
 74
0
 40
0
 40
0
 40
0
 40
0
 40
1
 40
1
 40
1
 40
1
 10
93.683864
 20
97.090417
 30
0.0
 10
93.153396
 20
96.784151
 30
0.0
 10
92.826614
 20
96.218148
 30
0.0
 10
92.826614
 20
95.605616
 30
0.0
  0
SPLINE
  5
1bf
100
AcDbEntity
  8
Layer4
 62
7
100
AcDbSpline
 70
8
 71
3
 72
8
 73
4
 74
0
 40
0
 40
0
 40
0
 40
0
 40
1
 40
1
 40
1
 40
1
 10
92.826614
 20
95.605616
 30
0.0
 10
92.826614
 20
94.993084
 30
0.0
 10
93.153396
 20
94.427082
 30
0.0
 10
93.683864
 20
94.120816
 30
0.0
  0
SPLINE
  5
1c0
100
AcDbEntity
  8
Layer4
 62
7
100
AcDbSpline
 70
8
 71
3
 72
8
 73
4
 74
0
 40
0
 40
0
 40
0
 40
0
 40
1
 40
1
 40
1
 40
1
 10
93.683864
 20
94.120816
 30
0.0
 10
94.214332
 20
93.814550
 30
0.0
 10
94.867896
 20
93.814550
 30
0.0
 10
95.398364
 20
94.120816
 30
0.0
  0
SPLINE
  5
1c1
100
AcDbEntity
  8
Layer4
 62
7
100
AcDbSpline
 70
8
 71
3
 72
8
 73
4
 74
0
 40
0
 40
0
 40
0
 40
0
 40
1
 40
1
 40
1
 40
1
 10
95.398364
 20
94.120816
 30
0.0
 10
95.928832
 20
94.427082
 30
0.0
 10
96.255614
 20
94.993084
 30
0.0
 10
96.255614
 20
95.605616
 30
0.0
  0
LWPOLYLINE
  5
1c2
100
AcDbEntity
  8
Layer4
 62
7
100
AcDbPolyline
 90
1
 70
1
 10
96.255614
 20
117.855617
 30
0.0
  0
SPLINE
  5
1c3
100
AcDbEntity
  8
Layer4
 62
7
100
AcDbSpline
 70
8
 71
3
 72
8
 73
4
 74
0
 40
0
 40
0
 40
0
 40
0
 40
1
 40
1
 40
1
 40
1
 10
96.255614
 20
72.355618
 30
0.0
 10
96.255614
 20
72.968150
 30
0.0
 10
95.928832
 20
73.534152
 30
0.0
 10
95.398364
 20
73.840418
 30
0.0
  0
SPLINE
  5
1c4
100
AcDbEntity
  8
Layer4
 62
7
100
AcDbSpline
 70
8
 71
3
 72
8
 73
4
 74
0
 40
0
 40
0
 40
0
 40
0
 40
1
 40
1
 40
1
 40
1
 10
95.398364
 20
73.840418
 30
0.0
 10
94.867896
 20
74.146684
 30
0.0
 10
94.214332
 20
74.146684
 30
0.0
 10
93.683864
 20
73.840418
 30
0.0
  0
SPLINE
  5
1c5
100
AcDbEntity
  8
Layer4
 62
7
100
AcDbSpline
 70
8
 71
3
 72
8
 73
4
 74
0
 40
0
 40
0
 40
0
 40
0
 40
1
 40
1
 40
1
 40
1
 10
93.683864
 20
73.840418
 30
0.0
 10
93.153396
 20
73.534152
 30
0.0
 10
92.826614
 20
72.968150
 30
0.0
 10
92.826614
 20
72.355618
 30
0.0
  0
SPLINE
  5
1c6
100
AcDbEntity
  8
Layer4
 62
7
100
AcDbSpline
 70
8
 71
3
 72
8
 73
4
 74
0
 40
0
 40
0
 40
0
 40
0
 40
1
 40
1
 40
1
 40
1
 10
92.826614
 20
72.355618
 30
0.0
 10
92.826614
 20
71.743086
 30
0.0
 10
93.153396
 20
71.177083
 30
0.0
 10
93.683864
 20
70.870817
 30
0.0
  0
SPLINE
  5
1c7
100
AcDbEntity
  8
Layer4
 62
7
100
AcDbSpline
 70
8
 71
3
 72
8
 73
4
 74
0
 40
0
 40
0
 40
0
 40
0
 40
1
 40
1
 40
1
 40
1
 10
93.683864
 20
70.870817
 30
0.0
 10
94.214332
 20
70.564551
 30
0.0
 10
94.867896
 20
70.564551
 30
0.0
 10
95.398364
 20
70.870817
 30
0.0
  0
SPLINE
  5
1c8
100
AcDbEntity
  8
Layer4
 62
7
100
AcDbSpline
 70
8
 71
3
 72
8
 73
4
 74
0
 40
0
 40
0
 40
0
 40
0
 40
1
 40
1
 40
1
 40
1
 10
95.398364
 20
70.870817
 30
0.0
 10
95.928832
 20
71.177083
 30
0.0
 10
96.255614
 20
71.743086
 30
0.0
 10
96.255614
 20
72.355618
 30
0.0
  0
LWPOLYLINE
  5
1c9
100
AcDbEntity
  8
Layer4
 62
7
100
AcDbPolyline
 90
1
 70
1
 10
96.255614
 20
95.605616
 30
0.0
  0
SPLINE
  5
1ca
100
AcDbEntity
  8
Layer4
 62
7
100
AcDbSpline
 70
8
 71
3
 72
8
 73
4
 74
0
 40
0
 40
0
 40
0
 40
0
 40
1
 40
1
 40
1
 40
1
 10
96.255614
 20
50.105617
 30
0.0
 10
96.255614
 20
50.718149
 30
0.0
 10
95.928832
 20
51.284152
 30
0.0
 10
95.398364
 20
51.590418
 30
0.0
  0
SPLINE
  5
1cb
100
AcDbEntity
  8
Layer4
 62
7
100
AcDbSpline
 70
8
 71
3
 72
8
 73
4
 74
0
 40
0
 40
0
 40
0
 40
0
 40
1
 40
1
 40
1
 40
1
 10
95.398364
 20
51.590418
 30
0.0
 10
94.867896
 20
51.896684
 30
0.0
 10
94.214332
 20
51.896684
 30
0.0
 10
93.683864
 20
51.590418
 30
0.0
  0
SPLINE
  5
1cc
100
AcDbEntity
  8
Layer4
 62
7
100
AcDbSpline
 70
8
 71
3
 72
8
 73
4
 74
0
 40
0
 40
0
 40
0
 40
0
 40
1
 40
1
 40
1
 40
1
 10
93.683864
 20
51.590418
 30
0.0
 10
93.153396
 20
51.284152
 30
0.0
 10
92.826614
 20
50.718149
 30
0.0
 10
92.826614
 20
50.105617
 30
0.0
  0
SPLINE
  5
1cd
100
AcDbEntity
  8
Layer4
 62
7
100
AcDbSpline
 70
8
 71
3
 72
8
 73
4
 74
0
 40
0
 40
0
 40
0
 40
0
 40
1
 40
1
 40
1
 40
1
 10
92.826614
 20
50.105617
 30
0.0
 10
92.826614
 20
49.493085
 30
0.0
 10
93.153396
 20
48.927083
 30
0.0
 10
93.683864
 20
48.620817
 30
0.0
  0
SPLINE
  5
1ce
100
AcDbEntity
  8
Layer4
 62
7
100
AcDbSpline
 70
8
 71
3
 72
8
 73
4
 74
0
 40
0
 40
0
 40
0
 40
0
 40
1
 40
1
 40
1
 40
1
 10
93.683864
 20
48.620817
 30
0.0
 10
94.214332
 20
48.314551
 30
0.0
 10
94.867896
 20
48.314551
 30
0.0
 10
95.398364
 20
48.620817
 30
0.0
  0
SPLINE
  5
1cf
100
AcDbEntity
  8
Layer4
 62
7
100
AcDbSpline
 70
8
 71
3
 72
8
 73
4
 74
0
 40
0
 40
0
 40
0
 40
0
 40
1
 40
1
 40
1
 40
1
 10
95.398364
 20
48.620817
 30
0.0
 10
95.928832
 20
48.927083
 30
0.0
 10
96.255614
 20
49.493085
 30
0.0
 10
96.255614
 20
50.105617
 30
0.0
  0
LWPOLYLINE
  5
1d0
100
AcDbEntity
  8
Layer4
 62
7
100
AcDbPolyline
 90
1
 70
1
 10
96.255614
 20
72.355618
 30
0.0
  0
SPLINE
  5
1d1
100
AcDbEntity
  8
Layer4
 62
7
100
AcDbSpline
 70
8
 71
3
 72
8
 73
4
 74
0
 40
0
 40
0
 40
0
 40
0
 40
1
 40
1
 40
1
 40
1
 10
96.255614
 20
27.855614
 30
0.0
 10
96.255614
 20
28.468146
 30
0.0
 10
95.928832
 20
29.034149
 30
0.0
 10
95.398364
 20
29.340415
 30
0.0
  0
SPLINE
  5
1d2
100
AcDbEntity
  8
Layer4
 62
7
100
AcDbSpline
 70
8
 71
3
 72
8
 73
4
 74
0
 40
0
 40
0
 40
0
 40
0
 40
1
 40
1
 40
1
 40
1
 10
95.398364
 20
29.340415
 30
0.0
 10
94.867896
 20
29.646681
 30
0.0
 10
94.214332
 20
29.646681
 30
0.0
 10
93.683864
 20
29.340415
 30
0.0
  0
SPLINE
  5
1d3
100
AcDbEntity
  8
Layer4
 62
7
100
AcDbSpline
 70
8
 71
3
 72
8
 73
4
 74
0
 40
0
 40
0
 40
0
 40
0
 40
1
 40
1
 40
1
 40
1
 10
93.683864
 20
29.340415
 30
0.0
 10
93.153396
 20
29.034149
 30
0.0
 10
92.826614
 20
28.468146
 30
0.0
 10
92.826614
 20
27.855614
 30
0.0
  0
SPLINE
  5
1d4
100
AcDbEntity
  8
Layer4
 62
7
100
AcDbSpline
 70
8
 71
3
 72
8
 73
4
 74
0
 40
0
 40
0
 40
0
 40
0
 40
1
 40
1
 40
1
 40
1
 10
92.826614
 20
27.855614
 30
0.0
 10
92.826614
 20
27.243082
 30
0.0
 10
93.153396
 20
26.677079
 30
0.0
 10
93.683864
 20
26.370814
 30
0.0
  0
SPLINE
  5
1d5
100
AcDbEntity
  8
Layer4
 62
7
100
AcDbSpline
 70
8
 71
3
 72
8
 73
4
 74
0
 40
0
 40
0
 40
0
 40
0
 40
1
 40
1
 40
1
 40
1
 10
93.683864
 20
26.370814
 30
0.0
 10
94.214332
 20
26.064548
 30
0.0
 10
94.867896
 20
26.064548
 30
0.0
 10
95.398364
 20
26.370814
 30
0.0
  0
SPLINE
  5
1d6
100
AcDbEntity
  8
Layer4
 62
7
100
AcDbSpline
 70
8
 71
3
 72
8
 73
4
 74
0
 40
0
 40
0
 40
0
 40
0
 40
1
 40
1
 40
1
 40
1
 10
95.398364
 20
26.370814
 30
0.0
 10
95.928832
 20
26.677079
 30
0.0
 10
96.255614
 20
27.243082
 30
0.0
 10
96.255614
 20
27.855614
 30
0.0
  0
LWPOLYLINE
  5
1d7
100
AcDbEntity
  8
Layer4
 62
7
100
AcDbPolyline
 90
1
 70
1
 10
96.255614
 20
50.105617
 30
0.0
  0
SPLINE
  5
1d8
100
AcDbEntity
  8
Layer4
 62
7
100
AcDbSpline
 70
8
 71
3
 72
8
 73
4
 74
0
 40
0
 40
0
 40
0
 40
0
 40
1
 40
1
 40
1
 40
1
 10
96.255614
 20
5.605595
 30
0.0
 10
96.255614
 20
6.218127
 30
0.0
 10
95.928832
 20
6.784130
 30
0.0
 10
95.398364
 20
7.090396
 30
0.0
  0
SPLINE
  5
1d9
100
AcDbEntity
  8
Layer4
 62
7
100
AcDbSpline
 70
8
 71
3
 72
8
 73
4
 74
0
 40
0
 40
0
 40
0
 40
0
 40
1
 40
1
 40
1
 40
1
 10
95.398364
 20
7.090396
 30
0.0
 10
94.867896
 20
7.396662
 30
0.0
 10
94.214332
 20
7.396662
 30
0.0
 10
93.683864
 20
7.090396
 30
0.0
  0
SPLINE
  5
1da
100
AcDbEntity
  8
Layer4
 62
7
100
AcDbSpline
 70
8
 71
3
 72
8
 73
4
 74
0
 40
0
 40
0
 40
0
 40
0
 40
1
 40
1
 40
1
 40
1
 10
93.683864
 20
7.090396
 30
0.0
 10
93.153396
 20
6.784130
 30
0.0
 10
92.826614
 20
6.218127
 30
0.0
 10
92.826614
 20
5.605595
 30
0.0
  0
SPLINE
  5
1db
100
AcDbEntity
  8
Layer4
 62
7
100
AcDbSpline
 70
8
 71
3
 72
8
 73
4
 74
0
 40
0
 40
0
 40
0
 40
0
 40
1
 40
1
 40
1
 40
1
 10
92.826614
 20
5.605595
 30
0.0
 10
92.826614
 20
4.993063
 30
0.0
 10
93.153396
 20
4.427060
 30
0.0
 10
93.683864
 20
4.120795
 30
0.0
  0
SPLINE
  5
1dc
100
AcDbEntity
  8
Layer4
 62
7
100
AcDbSpline
 70
8
 71
3
 72
8
 73
4
 74
0
 40
0
 40
0
 40
0
 40
0
 40
1
 40
1
 40
1
 40
1
 10
93.683864
 20
4.120795
 30
0.0
 10
94.214332
 20
3.814529
 30
0.0
 10
94.867896
 20
3.814529
 30
0.0
 10
95.398364
 20
4.120795
 30
0.0
  0
SPLINE
  5
1dd
100
AcDbEntity
  8
Layer4
 62
7
100
AcDbSpline
 70
8
 71
3
 72
8
 73
4
 74
0
 40
0
 40
0
 40
0
 40
0
 40
1
 40
1
 40
1
 40
1
 10
95.398364
 20
4.120795
 30
0.0
 10
95.928832
 20
4.427060
 30
0.0
 10
96.255614
 20
4.993063
 30
0.0
 10
96.255614
 20
5.605595
 30
0.0
  0
LWPOLYLINE
  5
1de
100
AcDbEntity
  8
Layer4
 62
7
100
AcDbPolyline
 90
1
 70
1
 10
96.255614
 20
27.855614
 30
0.0
  0
SPLINE
  5
1df
100
AcDbEntity
  8
Layer4
 62
7
100
AcDbSpline
 70
8
 71
3
 72
8
 73
4
 74
0
 40
0
 40
0
 40
0
 40
0
 40
1
 40
1
 40
1
 40
1
 10
96.255614
 20
184.355619
 30
0.0
 10
96.255614
 20
184.968150
 30
0.0
 10
95.928832
 20
185.534153
 30
0.0
 10
95.398364
 20
185.840419
 30
0.0
  0
SPLINE
  5
1e0
100
AcDbEntity
  8
Layer4
 62
7
100
AcDbSpline
 70
8
 71
3
 72
8
 73
4
 74
0
 40
0
 40
0
 40
0
 40
0
 40
1
 40
1
 40
1
 40
1
 10
95.398364
 20
185.840419
 30
0.0
 10
94.867896
 20
186.146685
 30
0.0
 10
94.214332
 20
186.146685
 30
0.0
 10
93.683864
 20
185.840419
 30
0.0
  0
SPLINE
  5
1e1
100
AcDbEntity
  8
Layer4
 62
7
100
AcDbSpline
 70
8
 71
3
 72
8
 73
4
 74
0
 40
0
 40
0
 40
0
 40
0
 40
1
 40
1
 40
1
 40
1
 10
93.683864
 20
185.840419
 30
0.0
 10
93.153396
 20
185.534153
 30
0.0
 10
92.826614
 20
184.968150
 30
0.0
 10
92.826614
 20
184.355619
 30
0.0
  0
SPLINE
  5
1e2
100
AcDbEntity
  8
Layer4
 62
7
100
AcDbSpline
 70
8
 71
3
 72
8
 73
4
 74
0
 40
0
 40
0
 40
0
 40
0
 40
1
 40
1
 40
1
 40
1
 10
92.826614
 20
184.355619
 30
0.0
 10
92.826614
 20
183.743087
 30
0.0
 10
93.153396
 20
183.177084
 30
0.0
 10
93.683864
 20
182.870818
 30
0.0
  0
SPLINE
  5
1e3
100
AcDbEntity
  8
Layer4
 62
7
100
AcDbSpline
 70
8
 71
3
 72
8
 73
4
 74
0
 40
0
 40
0
 40
0
 40
0
 40
1
 40
1
 40
1
 40
1
 10
93.683864
 20
182.870818
 30
0.0
 10
94.214332
 20
182.564552
 30
0.0
 10
94.867896
 20
182.564552
 30
0.0
 10
95.398364
 20
182.870818
 30
0.0
  0
SPLINE
  5
1e4
100
AcDbEntity
  8
Layer4
 62
7
100
AcDbSpline
 70
8
 71
3
 72
8
 73
4
 74
0
 40
0
 40
0
 40
0
 40
0
 40
1
 40
1
 40
1
 40
1
 10
95.398364
 20
182.870818
 30
0.0
 10
95.928832
 20
183.177084
 30
0.0
 10
96.255614
 20
183.743087
 30
0.0
 10
96.255614
 20
184.355619
 30
0.0
  0
LWPOLYLINE
  5
1e5
100
AcDbEntity
  8
Layer4
 62
7
100
AcDbPolyline
 90
1
 70
1
 10
96.255614
 20
5.605595
 30
0.0
  0
SPLINE
  5
1e6
100
AcDbEntity
  8
Layer4
 62
7
100
AcDbSpline
 70
8
 71
3
 72
8
 73
4
 74
0
 40
0
 40
0
 40
0
 40
0
 40
1
 40
1
 40
1
 40
1
 10
157.455612
 20
162.355618
 30
0.0
 10
157.455612
 20
162.968149
 30
0.0
 10
157.128830
 20
163.534152
 30
0.0
 10
156.598362
 20
163.840418
 30
0.0
  0
SPLINE
  5
1e7
100
AcDbEntity
  8
Layer4
 62
7
100
AcDbSpline
 70
8
 71
3
 72
8
 73
4
 74
0
 40
0
 40
0
 40
0
 40
0
 40
1
 40
1
 40
1
 40
1
 10
156.598362
 20
163.840418
 30
0.0
 10
156.067894
 20
164.146684
 30
0.0
 10
155.414330
 20
164.146684
 30
0.0
 10
154.883862
 20
163.840418
 30
0.0
  0
SPLINE
  5
1e8
100
AcDbEntity
  8
Layer4
 62
7
100
AcDbSpline
 70
8
 71
3
 72
8
 73
4
 74
0
 40
0
 40
0
 40
0
 40
0
 40
1
 40
1
 40
1
 40
1
 10
154.883862
 20
163.840418
 30
0.0
 10
154.353394
 20
163.534152
 30
0.0
 10
154.026612
 20
162.968149
 30
0.0
 10
154.026612
 20
162.355618
 30
0.0
  0
SPLINE
  5
1e9
100
AcDbEntity
  8
Layer4
 62
7
100
AcDbSpline
 70
8
 71
3
 72
8
 73
4
 74
0
 40
0
 40
0
 40
0
 40
0
 40
1
 40
1
 40
1
 40
1
 10
154.026612
 20
162.355618
 30
0.0
 10
154.026612
 20
161.743086
 30
0.0
 10
154.353394
 20
161.177083
 30
0.0
 10
154.883862
 20
160.870817
 30
0.0
  0
SPLINE
  5
1ea
100
AcDbEntity
  8
Layer4
 62
7
100
AcDbSpline
 70
8
 71
3
 72
8
 73
4
 74
0
 40
0
 40
0
 40
0
 40
0
 40
1
 40
1
 40
1
 40
1
 10
154.883862
 20
160.870817
 30
0.0
 10
155.414330
 20
160.564551
 30
0.0
 10
156.067894
 20
160.564551
 30
0.0
 10
156.598362
 20
160.870817
 30
0.0
  0
SPLINE
  5
1eb
100
AcDbEntity
  8
Layer4
 62
7
100
AcDbSpline
 70
8
 71
3
 72
8
 73
4
 74
0
 40
0
 40
0
 40
0
 40
0
 40
1
 40
1
 40
1
 40
1
 10
156.598362
 20
160.870817
 30
0.0
 10
157.128830
 20
161.177083
 30
0.0
 10
157.455612
 20
161.743086
 30
0.0
 10
157.455612
 20
162.355618
 30
0.0
  0
LWPOLYLINE
  5
1ec
100
AcDbEntity
  8
Layer4
 62
7
100
AcDbPolyline
 90
1
 70
1
 10
96.255614
 20
184.355619
 30
0.0
  0
SPLINE
  5
1ed
100
AcDbEntity
  8
Layer4
 62
7
100
AcDbSpline
 70
8
 71
3
 72
8
 73
4
 74
0
 40
0
 40
0
 40
0
 40
0
 40
1
 40
1
 40
1
 40
1
 10
157.455612
 20
140.105614
 30
0.0
 10
157.455612
 20
140.718146
 30
0.0
 10
157.128830
 20
141.284149
 30
0.0
 10
156.598362
 20
141.590415
 30
0.0
  0
SPLINE
  5
1ee
100
AcDbEntity
  8
Layer4
 62
7
100
AcDbSpline
 70
8
 71
3
 72
8
 73
4
 74
0
 40
0
 40
0
 40
0
 40
0
 40
1
 40
1
 40
1
 40
1
 10
156.598362
 20
141.590415
 30
0.0
 10
156.067894
 20
141.896681
 30
0.0
 10
155.414330
 20
141.896681
 30
0.0
 10
154.883862
 20
141.590415
 30
0.0
  0
SPLINE
  5
1ef
100
AcDbEntity
  8
Layer4
 62
7
100
AcDbSpline
 70
8
 71
3
 72
8
 73
4
 74
0
 40
0
 40
0
 40
0
 40
0
 40
1
 40
1
 40
1
 40
1
 10
154.883862
 20
141.590415
 30
0.0
 10
154.353394
 20
141.284149
 30
0.0
 10
154.026612
 20
140.718146
 30
0.0
 10
154.026612
 20
140.105614
 30
0.0
  0
SPLINE
  5
1f0
100
AcDbEntity
  8
Layer4
 62
7
100
AcDbSpline
 70
8
 71
3
 72
8
 73
4
 74
0
 40
0
 40
0
 40
0
 40
0
 40
1
 40
1
 40
1
 40
1
 10
154.026612
 20
140.105614
 30
0.0
 10
154.026612
 20
139.493083
 30
0.0
 10
154.353394
 20
138.927080
 30
0.0
 10
154.883862
 20
138.620814
 30
0.0
  0
SPLINE
  5
1f1
100
AcDbEntity
  8
Layer4
 62
7
100
AcDbSpline
 70
8
 71
3
 72
8
 73
4
 74
0
 40
0
 40
0
 40
0
 40
0
 40
1
 40
1
 40
1
 40
1
 10
154.883862
 20
138.620814
 30
0.0
 10
155.414330
 20
138.314548
 30
0.0
 10
156.067894
 20
138.314548
 30
0.0
 10
156.598362
 20
138.620814
 30
0.0
  0
SPLINE
  5
1f2
100
AcDbEntity
  8
Layer4
 62
7
100
AcDbSpline
 70
8
 71
3
 72
8
 73
4
 74
0
 40
0
 40
0
 40
0
 40
0
 40
1
 40
1
 40
1
 40
1
 10
156.598362
 20
138.620814
 30
0.0
 10
157.128830
 20
138.927080
 30
0.0
 10
157.455612
 20
139.493083
 30
0.0
 10
157.455612
 20
140.105614
 30
0.0
  0
LWPOLYLINE
  5
1f3
100
AcDbEntity
  8
Layer4
 62
7
100
AcDbPolyline
 90
1
 70
1
 10
157.455612
 20
162.355618
 30
0.0
  0
SPLINE
  5
1f4
100
AcDbEntity
  8
Layer4
 62
7
100
AcDbSpline
 70
8
 71
3
 72
8
 73
4
 74
0
 40
0
 40
0
 40
0
 40
0
 40
1
 40
1
 40
1
 40
1
 10
157.455612
 20
117.855617
 30
0.0
 10
157.455612
 20
118.468148
 30
0.0
 10
157.128830
 20
119.034151
 30
0.0
 10
156.598362
 20
119.340417
 30
0.0
  0
SPLINE
  5
1f5
100
AcDbEntity
  8
Layer4
 62
7
100
AcDbSpline
 70
8
 71
3
 72
8
 73
4
 74
0
 40
0
 40
0
 40
0
 40
0
 40
1
 40
1
 40
1
 40
1
 10
156.598362
 20
119.340417
 30
0.0
 10
156.067894
 20
119.646683
 30
0.0
 10
155.414330
 20
119.646683
 30
0.0
 10
154.883862
 20
119.340417
 30
0.0
  0
SPLINE
  5
1f6
100
AcDbEntity
  8
Layer4
 62
7
100
AcDbSpline
 70
8
 71
3
 72
8
 73
4
 74
0
 40
0
 40
0
 40
0
 40
0
 40
1
 40
1
 40
1
 40
1
 10
154.883862
 20
119.340417
 30
0.0
 10
154.353394
 20
119.034151
 30
0.0
 10
154.026612
 20
118.468148
 30
0.0
 10
154.026612
 20
117.855617
 30
0.0
  0
SPLINE
  5
1f7
100
AcDbEntity
  8
Layer4
 62
7
100
AcDbSpline
 70
8
 71
3
 72
8
 73
4
 74
0
 40
0
 40
0
 40
0
 40
0
 40
1
 40
1
 40
1
 40
1
 10
154.026612
 20
117.855617
 30
0.0
 10
154.026612
 20
117.243085
 30
0.0
 10
154.353394
 20
116.677082
 30
0.0
 10
154.883862
 20
116.370816
 30
0.0
  0
SPLINE
  5
1f8
100
AcDbEntity
  8
Layer4
 62
7
100
AcDbSpline
 70
8
 71
3
 72
8
 73
4
 74
0
 40
0
 40
0
 40
0
 40
0
 40
1
 40
1
 40
1
 40
1
 10
154.883862
 20
116.370816
 30
0.0
 10
155.414330
 20
116.064550
 30
0.0
 10
156.067894
 20
116.064550
 30
0.0
 10
156.598362
 20
116.370816
 30
0.0
  0
SPLINE
  5
1f9
100
AcDbEntity
  8
Layer4
 62
7
100
AcDbSpline
 70
8
 71
3
 72
8
 73
4
 74
0
 40
0
 40
0
 40
0
 40
0
 40
1
 40
1
 40
1
 40
1
 10
156.598362
 20
116.370816
 30
0.0
 10
157.128830
 20
116.677082
 30
0.0
 10
157.455612
 20
117.243085
 30
0.0
 10
157.455612
 20
117.855617
 30
0.0
  0
LWPOLYLINE
  5
1fa
100
AcDbEntity
  8
Layer4
 62
7
100
AcDbPolyline
 90
1
 70
1
 10
157.455612
 20
140.105614
 30
0.0
  0
SPLINE
  5
1fb
100
AcDbEntity
  8
Layer4
 62
7
100
AcDbSpline
 70
8
 71
3
 72
8
 73
4
 74
0
 40
0
 40
0
 40
0
 40
0
 40
1
 40
1
 40
1
 40
1
 10
157.455612
 20
95.605616
 30
0.0
 10
157.455612
 20
96.218148
 30
0.0
 10
157.128830
 20
96.784151
 30
0.0
 10
156.598362
 20
97.090417
 30
0.0
  0
SPLINE
  5
1fc
100
AcDbEntity
  8
Layer4
 62
7
100
AcDbSpline
 70
8
 71
3
 72
8
 73
4
 74
0
 40
0
 40
0
 40
0
 40
0
 40
1
 40
1
 40
1
 40
1
 10
156.598362
 20
97.090417
 30
0.0
 10
156.067894
 20
97.396683
 30
0.0
 10
155.414330
 20
97.396683
 30
0.0
 10
154.883862
 20
97.090417
 30
0.0
  0
SPLINE
  5
1fd
100
AcDbEntity
  8
Layer4
 62
7
100
AcDbSpline
 70
8
 71
3
 72
8
 73
4
 74
0
 40
0
 40
0
 40
0
 40
0
 40
1
 40
1
 40
1
 40
1
 10
154.883862
 20
97.090417
 30
0.0
 10
154.353394
 20
96.784151
 30
0.0
 10
154.026612
 20
96.218148
 30
0.0
 10
154.026612
 20
95.605616
 30
0.0
  0
SPLINE
  5
1fe
100
AcDbEntity
  8
Layer4
 62
7
100
AcDbSpline
 70
8
 71
3
 72
8
 73
4
 74
0
 40
0
 40
0
 40
0
 40
0
 40
1
 40
1
 40
1
 40
1
 10
154.026612
 20
95.605616
 30
0.0
 10
154.026612
 20
94.993084
 30
0.0
 10
154.353394
 20
94.427082
 30
0.0
 10
154.883862
 20
94.120816
 30
0.0
  0
SPLINE
  5
1ff
100
AcDbEntity
  8
Layer4
 62
7
100
AcDbSpline
 70
8
 71
3
 72
8
 73
4
 74
0
 40
0
 40
0
 40
0
 40
0
 40
1
 40
1
 40
1
 40
1
 10
154.883862
 20
94.120816
 30
0.0
 10
155.414330
 20
93.814550
 30
0.0
 10
156.067894
 20
93.814550
 30
0.0
 10
156.598362
 20
94.120816
 30
0.0
  0
SPLINE
  5
200
100
AcDbEntity
  8
Layer4
 62
7
100
AcDbSpline
 70
8
 71
3
 72
8
 73
4
 74
0
 40
0
 40
0
 40
0
 40
0
 40
1
 40
1
 40
1
 40
1
 10
156.598362
 20
94.120816
 30
0.0
 10
157.128830
 20
94.427082
 30
0.0
 10
157.455612
 20
94.993084
 30
0.0
 10
157.455612
 20
95.605616
 30
0.0
  0
LWPOLYLINE
  5
201
100
AcDbEntity
  8
Layer4
 62
7
100
AcDbPolyline
 90
1
 70
1
 10
157.455612
 20
117.855617
 30
0.0
  0
SPLINE
  5
202
100
AcDbEntity
  8
Layer4
 62
7
100
AcDbSpline
 70
8
 71
3
 72
8
 73
4
 74
0
 40
0
 40
0
 40
0
 40
0
 40
1
 40
1
 40
1
 40
1
 10
157.455612
 20
72.355618
 30
0.0
 10
157.455612
 20
72.968150
 30
0.0
 10
157.128830
 20
73.534152
 30
0.0
 10
156.598362
 20
73.840418
 30
0.0
  0
SPLINE
  5
203
100
AcDbEntity
  8
Layer4
 62
7
100
AcDbSpline
 70
8
 71
3
 72
8
 73
4
 74
0
 40
0
 40
0
 40
0
 40
0
 40
1
 40
1
 40
1
 40
1
 10
156.598362
 20
73.840418
 30
0.0
 10
156.067894
 20
74.146684
 30
0.0
 10
155.414330
 20
74.146684
 30
0.0
 10
154.883862
 20
73.840418
 30
0.0
  0
SPLINE
  5
204
100
AcDbEntity
  8
Layer4
 62
7
100
AcDbSpline
 70
8
 71
3
 72
8
 73
4
 74
0
 40
0
 40
0
 40
0
 40
0
 40
1
 40
1
 40
1
 40
1
 10
154.883862
 20
73.840418
 30
0.0
 10
154.353394
 20
73.534152
 30
0.0
 10
154.026612
 20
72.968150
 30
0.0
 10
154.026612
 20
72.355618
 30
0.0
  0
SPLINE
  5
205
100
AcDbEntity
  8
Layer4
 62
7
100
AcDbSpline
 70
8
 71
3
 72
8
 73
4
 74
0
 40
0
 40
0
 40
0
 40
0
 40
1
 40
1
 40
1
 40
1
 10
154.026612
 20
72.355618
 30
0.0
 10
154.026612
 20
71.743086
 30
0.0
 10
154.353394
 20
71.177083
 30
0.0
 10
154.883862
 20
70.870817
 30
0.0
  0
SPLINE
  5
206
100
AcDbEntity
  8
Layer4
 62
7
100
AcDbSpline
 70
8
 71
3
 72
8
 73
4
 74
0
 40
0
 40
0
 40
0
 40
0
 40
1
 40
1
 40
1
 40
1
 10
154.883862
 20
70.870817
 30
0.0
 10
155.414330
 20
70.564551
 30
0.0
 10
156.067894
 20
70.564551
 30
0.0
 10
156.598362
 20
70.870817
 30
0.0
  0
SPLINE
  5
207
100
AcDbEntity
  8
Layer4
 62
7
100
AcDbSpline
 70
8
 71
3
 72
8
 73
4
 74
0
 40
0
 40
0
 40
0
 40
0
 40
1
 40
1
 40
1
 40
1
 10
156.598362
 20
70.870817
 30
0.0
 10
157.128830
 20
71.177083
 30
0.0
 10
157.455612
 20
71.743086
 30
0.0
 10
157.455612
 20
72.355618
 30
0.0
  0
LWPOLYLINE
  5
208
100
AcDbEntity
  8
Layer4
 62
7
100
AcDbPolyline
 90
1
 70
1
 10
157.455612
 20
95.605616
 30
0.0
  0
SPLINE
  5
209
100
AcDbEntity
  8
Layer4
 62
7
100
AcDbSpline
 70
8
 71
3
 72
8
 73
4
 74
0
 40
0
 40
0
 40
0
 40
0
 40
1
 40
1
 40
1
 40
1
 10
157.455612
 20
50.105617
 30
0.0
 10
157.455612
 20
50.718149
 30
0.0
 10
157.128830
 20
51.284152
 30
0.0
 10
156.598362
 20
51.590418
 30
0.0
  0
SPLINE
  5
20a
100
AcDbEntity
  8
Layer4
 62
7
100
AcDbSpline
 70
8
 71
3
 72
8
 73
4
 74
0
 40
0
 40
0
 40
0
 40
0
 40
1
 40
1
 40
1
 40
1
 10
156.598362
 20
51.590418
 30
0.0
 10
156.067894
 20
51.896684
 30
0.0
 10
155.414330
 20
51.896684
 30
0.0
 10
154.883862
 20
51.590418
 30
0.0
  0
SPLINE
  5
20b
100
AcDbEntity
  8
Layer4
 62
7
100
AcDbSpline
 70
8
 71
3
 72
8
 73
4
 74
0
 40
0
 40
0
 40
0
 40
0
 40
1
 40
1
 40
1
 40
1
 10
154.883862
 20
51.590418
 30
0.0
 10
154.353394
 20
51.284152
 30
0.0
 10
154.026612
 20
50.718149
 30
0.0
 10
154.026612
 20
50.105617
 30
0.0
  0
SPLINE
  5
20c
100
AcDbEntity
  8
Layer4
 62
7
100
AcDbSpline
 70
8
 71
3
 72
8
 73
4
 74
0
 40
0
 40
0
 40
0
 40
0
 40
1
 40
1
 40
1
 40
1
 10
154.026612
 20
50.105617
 30
0.0
 10
154.026612
 20
49.493085
 30
0.0
 10
154.353394
 20
48.927083
 30
0.0
 10
154.883862
 20
48.620817
 30
0.0
  0
SPLINE
  5
20d
100
AcDbEntity
  8
Layer4
 62
7
100
AcDbSpline
 70
8
 71
3
 72
8
 73
4
 74
0
 40
0
 40
0
 40
0
 40
0
 40
1
 40
1
 40
1
 40
1
 10
154.883862
 20
48.620817
 30
0.0
 10
155.414330
 20
48.314551
 30
0.0
 10
156.067894
 20
48.314551
 30
0.0
 10
156.598362
 20
48.620817
 30
0.0
  0
SPLINE
  5
20e
100
AcDbEntity
  8
Layer4
 62
7
100
AcDbSpline
 70
8
 71
3
 72
8
 73
4
 74
0
 40
0
 40
0
 40
0
 40
0
 40
1
 40
1
 40
1
 40
1
 10
156.598362
 20
48.620817
 30
0.0
 10
157.128830
 20
48.927083
 30
0.0
 10
157.455612
 20
49.493085
 30
0.0
 10
157.455612
 20
50.105617
 30
0.0
  0
LWPOLYLINE
  5
20f
100
AcDbEntity
  8
Layer4
 62
7
100
AcDbPolyline
 90
1
 70
1
 10
157.455612
 20
72.355618
 30
0.0
  0
SPLINE
  5
210
100
AcDbEntity
  8
Layer4
 62
7
100
AcDbSpline
 70
8
 71
3
 72
8
 73
4
 74
0
 40
0
 40
0
 40
0
 40
0
 40
1
 40
1
 40
1
 40
1
 10
157.455612
 20
27.855614
 30
0.0
 10
157.455612
 20
28.468146
 30
0.0
 10
157.128830
 20
29.034149
 30
0.0
 10
156.598362
 20
29.340415
 30
0.0
  0
SPLINE
  5
211
100
AcDbEntity
  8
Layer4
 62
7
100
AcDbSpline
 70
8
 71
3
 72
8
 73
4
 74
0
 40
0
 40
0
 40
0
 40
0
 40
1
 40
1
 40
1
 40
1
 10
156.598362
 20
29.340415
 30
0.0
 10
156.067894
 20
29.646681
 30
0.0
 10
155.414330
 20
29.646681
 30
0.0
 10
154.883862
 20
29.340415
 30
0.0
  0
SPLINE
  5
212
100
AcDbEntity
  8
Layer4
 62
7
100
AcDbSpline
 70
8
 71
3
 72
8
 73
4
 74
0
 40
0
 40
0
 40
0
 40
0
 40
1
 40
1
 40
1
 40
1
 10
154.883862
 20
29.340415
 30
0.0
 10
154.353394
 20
29.034149
 30
0.0
 10
154.026612
 20
28.468146
 30
0.0
 10
154.026612
 20
27.855614
 30
0.0
  0
SPLINE
  5
213
100
AcDbEntity
  8
Layer4
 62
7
100
AcDbSpline
 70
8
 71
3
 72
8
 73
4
 74
0
 40
0
 40
0
 40
0
 40
0
 40
1
 40
1
 40
1
 40
1
 10
154.026612
 20
27.855614
 30
0.0
 10
154.026612
 20
27.243082
 30
0.0
 10
154.353394
 20
26.677079
 30
0.0
 10
154.883862
 20
26.370814
 30
0.0
  0
SPLINE
  5
214
100
AcDbEntity
  8
Layer4
 62
7
100
AcDbSpline
 70
8
 71
3
 72
8
 73
4
 74
0
 40
0
 40
0
 40
0
 40
0
 40
1
 40
1
 40
1
 40
1
 10
154.883862
 20
26.370814
 30
0.0
 10
155.414330
 20
26.064548
 30
0.0
 10
156.067894
 20
26.064548
 30
0.0
 10
156.598362
 20
26.370814
 30
0.0
  0
SPLINE
  5
215
100
AcDbEntity
  8
Layer4
 62
7
100
AcDbSpline
 70
8
 71
3
 72
8
 73
4
 74
0
 40
0
 40
0
 40
0
 40
0
 40
1
 40
1
 40
1
 40
1
 10
156.598362
 20
26.370814
 30
0.0
 10
157.128830
 20
26.677079
 30
0.0
 10
157.455612
 20
27.243082
 30
0.0
 10
157.455612
 20
27.855614
 30
0.0
  0
LWPOLYLINE
  5
216
100
AcDbEntity
  8
Layer4
 62
7
100
AcDbPolyline
 90
1
 70
1
 10
157.455612
 20
50.105617
 30
0.0
  0
SPLINE
  5
217
100
AcDbEntity
  8
Layer4
 62
7
100
AcDbSpline
 70
8
 71
3
 72
8
 73
4
 74
0
 40
0
 40
0
 40
0
 40
0
 40
1
 40
1
 40
1
 40
1
 10
157.455612
 20
5.605595
 30
0.0
 10
157.455612
 20
6.218127
 30
0.0
 10
157.128830
 20
6.784130
 30
0.0
 10
156.598362
 20
7.090396
 30
0.0
  0
SPLINE
  5
218
100
AcDbEntity
  8
Layer4
 62
7
100
AcDbSpline
 70
8
 71
3
 72
8
 73
4
 74
0
 40
0
 40
0
 40
0
 40
0
 40
1
 40
1
 40
1
 40
1
 10
156.598362
 20
7.090396
 30
0.0
 10
156.067894
 20
7.396662
 30
0.0
 10
155.414330
 20
7.396662
 30
0.0
 10
154.883862
 20
7.090396
 30
0.0
  0
SPLINE
  5
219
100
AcDbEntity
  8
Layer4
 62
7
100
AcDbSpline
 70
8
 71
3
 72
8
 73
4
 74
0
 40
0
 40
0
 40
0
 40
0
 40
1
 40
1
 40
1
 40
1
 10
154.883862
 20
7.090396
 30
0.0
 10
154.353394
 20
6.784130
 30
0.0
 10
154.026612
 20
6.218127
 30
0.0
 10
154.026612
 20
5.605595
 30
0.0
  0
SPLINE
  5
21a
100
AcDbEntity
  8
Layer4
 62
7
100
AcDbSpline
 70
8
 71
3
 72
8
 73
4
 74
0
 40
0
 40
0
 40
0
 40
0
 40
1
 40
1
 40
1
 40
1
 10
154.026612
 20
5.605595
 30
0.0
 10
154.026612
 20
4.993063
 30
0.0
 10
154.353394
 20
4.427060
 30
0.0
 10
154.883862
 20
4.120795
 30
0.0
  0
SPLINE
  5
21b
100
AcDbEntity
  8
Layer4
 62
7
100
AcDbSpline
 70
8
 71
3
 72
8
 73
4
 74
0
 40
0
 40
0
 40
0
 40
0
 40
1
 40
1
 40
1
 40
1
 10
154.883862
 20
4.120795
 30
0.0
 10
155.414330
 20
3.814529
 30
0.0
 10
156.067894
 20
3.814529
 30
0.0
 10
156.598362
 20
4.120795
 30
0.0
  0
SPLINE
  5
21c
100
AcDbEntity
  8
Layer4
 62
7
100
AcDbSpline
 70
8
 71
3
 72
8
 73
4
 74
0
 40
0
 40
0
 40
0
 40
0
 40
1
 40
1
 40
1
 40
1
 10
156.598362
 20
4.120795
 30
0.0
 10
157.128830
 20
4.427060
 30
0.0
 10
157.455612
 20
4.993063
 30
0.0
 10
157.455612
 20
5.605595
 30
0.0
  0
LWPOLYLINE
  5
21d
100
AcDbEntity
  8
Layer4
 62
7
100
AcDbPolyline
 90
1
 70
1
 10
157.455612
 20
27.855614
 30
0.0
  0
SPLINE
  5
21e
100
AcDbEntity
  8
Layer4
 62
7
100
AcDbSpline
 70
8
 71
3
 72
8
 73
4
 74
0
 40
0
 40
0
 40
0
 40
0
 40
1
 40
1
 40
1
 40
1
 10
157.455612
 20
184.355619
 30
0.0
 10
157.455612
 20
184.968150
 30
0.0
 10
157.128830
 20
185.534153
 30
0.0
 10
156.598362
 20
185.840419
 30
0.0
  0
SPLINE
  5
21f
100
AcDbEntity
  8
Layer4
 62
7
100
AcDbSpline
 70
8
 71
3
 72
8
 73
4
 74
0
 40
0
 40
0
 40
0
 40
0
 40
1
 40
1
 40
1
 40
1
 10
156.598362
 20
185.840419
 30
0.0
 10
156.067894
 20
186.146685
 30
0.0
 10
155.414330
 20
186.146685
 30
0.0
 10
154.883862
 20
185.840419
 30
0.0
  0
SPLINE
  5
220
100
AcDbEntity
  8
Layer4
 62
7
100
AcDbSpline
 70
8
 71
3
 72
8
 73
4
 74
0
 40
0
 40
0
 40
0
 40
0
 40
1
 40
1
 40
1
 40
1
 10
154.883862
 20
185.840419
 30
0.0
 10
154.353394
 20
185.534153
 30
0.0
 10
154.026612
 20
184.968150
 30
0.0
 10
154.026612
 20
184.355619
 30
0.0
  0
SPLINE
  5
221
100
AcDbEntity
  8
Layer4
 62
7
100
AcDbSpline
 70
8
 71
3
 72
8
 73
4
 74
0
 40
0
 40
0
 40
0
 40
0
 40
1
 40
1
 40
1
 40
1
 10
154.026612
 20
184.355619
 30
0.0
 10
154.026612
 20
183.743087
 30
0.0
 10
154.353394
 20
183.177084
 30
0.0
 10
154.883862
 20
182.870818
 30
0.0
  0
SPLINE
  5
222
100
AcDbEntity
  8
Layer4
 62
7
100
AcDbSpline
 70
8
 71
3
 72
8
 73
4
 74
0
 40
0
 40
0
 40
0
 40
0
 40
1
 40
1
 40
1
 40
1
 10
154.883862
 20
182.870818
 30
0.0
 10
155.414330
 20
182.564552
 30
0.0
 10
156.067894
 20
182.564552
 30
0.0
 10
156.598362
 20
182.870818
 30
0.0
  0
SPLINE
  5
223
100
AcDbEntity
  8
Layer4
 62
7
100
AcDbSpline
 70
8
 71
3
 72
8
 73
4
 74
0
 40
0
 40
0
 40
0
 40
0
 40
1
 40
1
 40
1
 40
1
 10
156.598362
 20
182.870818
 30
0.0
 10
157.128830
 20
183.177084
 30
0.0
 10
157.455612
 20
183.743087
 30
0.0
 10
157.455612
 20
184.355619
 30
0.0
  0
LWPOLYLINE
  5
224
100
AcDbEntity
  8
Layer4
 62
7
100
AcDbPolyline
 90
1
 70
1
 10
157.455612
 20
5.605595
 30
0.0
  0
LWPOLYLINE
  5
225
100
AcDbEntity
  8
Layer4
 62
7
100
AcDbPolyline
 90
1
 70
1
 10
157.455612
 20
184.355619
 30
0.0
  0
SPLINE
  5
226
100
AcDbEntity
  8
Layer4
 62
7
100
AcDbSpline
 70
8
 71
3
 72
8
 73
4
 74
0
 40
0
 40
0
 40
0
 40
0
 40
1
 40
1
 40
1
 40
1
 10
171.705223
 20
162.355618
 30
0.0
 10
171.705223
 20
162.968149
 30
0.0
 10
171.378441
 20
163.534152
 30
0.0
 10
170.847973
 20
163.840418
 30
0.0
  0
SPLINE
  5
227
100
AcDbEntity
  8
Layer4
 62
7
100
AcDbSpline
 70
8
 71
3
 72
8
 73
4
 74
0
 40
0
 40
0
 40
0
 40
0
 40
1
 40
1
 40
1
 40
1
 10
170.847973
 20
163.840418
 30
0.0
 10
170.317505
 20
164.146684
 30
0.0
 10
169.663941
 20
164.146684
 30
0.0
 10
169.133473
 20
163.840418
 30
0.0
  0
SPLINE
  5
228
100
AcDbEntity
  8
Layer4
 62
7
100
AcDbSpline
 70
8
 71
3
 72
8
 73
4
 74
0
 40
0
 40
0
 40
0
 40
0
 40
1
 40
1
 40
1
 40
1
 10
169.133473
 20
163.840418
 30
0.0
 10
168.603005
 20
163.534152
 30
0.0
 10
168.276223
 20
162.968149
 30
0.0
 10
168.276223
 20
162.355618
 30
0.0
  0
SPLINE
  5
229
100
AcDbEntity
  8
Layer4
 62
7
100
AcDbSpline
 70
8
 71
3
 72
8
 73
4
 74
0
 40
0
 40
0
 40
0
 40
0
 40
1
 40
1
 40
1
 40
1
 10
168.276223
 20
162.355618
 30
0.0
 10
168.276223
 20
161.743086
 30
0.0
 10
168.603005
 20
161.177083
 30
0.0
 10
169.133473
 20
160.870817
 30
0.0
  0
SPLINE
  5
22a
100
AcDbEntity
  8
Layer4
 62
7
100
AcDbSpline
 70
8
 71
3
 72
8
 73
4
 74
0
 40
0
 40
0
 40
0
 40
0
 40
1
 40
1
 40
1
 40
1
 10
169.133473
 20
160.870817
 30
0.0
 10
169.663941
 20
160.564551
 30
0.0
 10
170.317505
 20
160.564551
 30
0.0
 10
170.847973
 20
160.870817
 30
0.0
  0
SPLINE
  5
22b
100
AcDbEntity
  8
Layer4
 62
7
100
AcDbSpline
 70
8
 71
3
 72
8
 73
4
 74
0
 40
0
 40
0
 40
0
 40
0
 40
1
 40
1
 40
1
 40
1
 10
170.847973
 20
160.870817
 30
0.0
 10
171.378441
 20
161.177083
 30
0.0
 10
171.705223
 20
161.743086
 30
0.0
 10
171.705223
 20
162.355618
 30
0.0
  0
LWPOLYLINE
  5
22c
100
AcDbEntity
  8
Layer4
 62
7
100
AcDbPolyline
 90
4
 70
1
 10
0.141111
 20
0.141103
 30
0.0
 10
250.141112
 20
0.141103
 30
0.0
 10
250.141112
 20
200.141118
 30
0.0
 10
0.141111
 20
200.141118
 30
0.0
  0
SPLINE
  5
22d
100
AcDbEntity
  8
Layer4
 62
7
100
AcDbSpline
 70
8
 71
3
 72
8
 73
4
 74
0
 40
0
 40
0
 40
0
 40
0
 40
1
 40
1
 40
1
 40
1
 10
171.705223
 20
140.105614
 30
0.0
 10
171.705223
 20
140.718146
 30
0.0
 10
171.378441
 20
141.284149
 30
0.0
 10
170.847973
 20
141.590415
 30
0.0
  0
SPLINE
  5
22e
100
AcDbEntity
  8
Layer4
 62
7
100
AcDbSpline
 70
8
 71
3
 72
8
 73
4
 74
0
 40
0
 40
0
 40
0
 40
0
 40
1
 40
1
 40
1
 40
1
 10
170.847973
 20
141.590415
 30
0.0
 10
170.317505
 20
141.896681
 30
0.0
 10
169.663941
 20
141.896681
 30
0.0
 10
169.133473
 20
141.590415
 30
0.0
  0
SPLINE
  5
22f
100
AcDbEntity
  8
Layer4
 62
7
100
AcDbSpline
 70
8
 71
3
 72
8
 73
4
 74
0
 40
0
 40
0
 40
0
 40
0
 40
1
 40
1
 40
1
 40
1
 10
169.133473
 20
141.590415
 30
0.0
 10
168.603005
 20
141.284149
 30
0.0
 10
168.276223
 20
140.718146
 30
0.0
 10
168.276223
 20
140.105614
 30
0.0
  0
SPLINE
  5
230
100
AcDbEntity
  8
Layer4
 62
7
100
AcDbSpline
 70
8
 71
3
 72
8
 73
4
 74
0
 40
0
 40
0
 40
0
 40
0
 40
1
 40
1
 40
1
 40
1
 10
168.276223
 20
140.105614
 30
0.0
 10
168.276223
 20
139.493083
 30
0.0
 10
168.603005
 20
138.927080
 30
0.0
 10
169.133473
 20
138.620814
 30
0.0
  0
SPLINE
  5
231
100
AcDbEntity
  8
Layer4
 62
7
100
AcDbSpline
 70
8
 71
3
 72
8
 73
4
 74
0
 40
0
 40
0
 40
0
 40
0
 40
1
 40
1
 40
1
 40
1
 10
169.133473
 20
138.620814
 30
0.0
 10
169.663941
 20
138.314548
 30
0.0
 10
170.317505
 20
138.314548
 30
0.0
 10
170.847973
 20
138.620814
 30
0.0
  0
SPLINE
  5
232
100
AcDbEntity
  8
Layer4
 62
7
100
AcDbSpline
 70
8
 71
3
 72
8
 73
4
 74
0
 40
0
 40
0
 40
0
 40
0
 40
1
 40
1
 40
1
 40
1
 10
170.847973
 20
138.620814
 30
0.0
 10
171.378441
 20
138.927080
 30
0.0
 10
171.705223
 20
139.493083
 30
0.0
 10
171.705223
 20
140.105614
 30
0.0
  0
LWPOLYLINE
  5
233
100
AcDbEntity
  8
Layer4
 62
7
100
AcDbPolyline
 90
1
 70
1
 10
171.705223
 20
162.355618
 30
0.0
  0
SPLINE
  5
234
100
AcDbEntity
  8
Layer4
 62
7
100
AcDbSpline
 70
8
 71
3
 72
8
 73
4
 74
0
 40
0
 40
0
 40
0
 40
0
 40
1
 40
1
 40
1
 40
1
 10
171.705223
 20
117.855617
 30
0.0
 10
171.705223
 20
118.468148
 30
0.0
 10
171.378441
 20
119.034151
 30
0.0
 10
170.847973
 20
119.340417
 30
0.0
  0
SPLINE
  5
235
100
AcDbEntity
  8
Layer4
 62
7
100
AcDbSpline
 70
8
 71
3
 72
8
 73
4
 74
0
 40
0
 40
0
 40
0
 40
0
 40
1
 40
1
 40
1
 40
1
 10
170.847973
 20
119.340417
 30
0.0
 10
170.317505
 20
119.646683
 30
0.0
 10
169.663941
 20
119.646683
 30
0.0
 10
169.133473
 20
119.340417
 30
0.0
  0
SPLINE
  5
236
100
AcDbEntity
  8
Layer4
 62
7
100
AcDbSpline
 70
8
 71
3
 72
8
 73
4
 74
0
 40
0
 40
0
 40
0
 40
0
 40
1
 40
1
 40
1
 40
1
 10
169.133473
 20
119.340417
 30
0.0
 10
168.603005
 20
119.034151
 30
0.0
 10
168.276223
 20
118.468148
 30
0.0
 10
168.276223
 20
117.855617
 30
0.0
  0
SPLINE
  5
237
100
AcDbEntity
  8
Layer4
 62
7
100
AcDbSpline
 70
8
 71
3
 72
8
 73
4
 74
0
 40
0
 40
0
 40
0
 40
0
 40
1
 40
1
 40
1
 40
1
 10
168.276223
 20
117.855617
 30
0.0
 10
168.276223
 20
117.243085
 30
0.0
 10
168.603005
 20
116.677082
 30
0.0
 10
169.133473
 20
116.370816
 30
0.0
  0
SPLINE
  5
238
100
AcDbEntity
  8
Layer4
 62
7
100
AcDbSpline
 70
8
 71
3
 72
8
 73
4
 74
0
 40
0
 40
0
 40
0
 40
0
 40
1
 40
1
 40
1
 40
1
 10
169.133473
 20
116.370816
 30
0.0
 10
169.663941
 20
116.064550
 30
0.0
 10
170.317505
 20
116.064550
 30
0.0
 10
170.847973
 20
116.370816
 30
0.0
  0
SPLINE
  5
239
100
AcDbEntity
  8
Layer4
 62
7
100
AcDbSpline
 70
8
 71
3
 72
8
 73
4
 74
0
 40
0
 40
0
 40
0
 40
0
 40
1
 40
1
 40
1
 40
1
 10
170.847973
 20
116.370816
 30
0.0
 10
171.378441
 20
116.677082
 30
0.0
 10
171.705223
 20
117.243085
 30
0.0
 10
171.705223
 20
117.855617
 30
0.0
  0
LWPOLYLINE
  5
23a
100
AcDbEntity
  8
Layer4
 62
7
100
AcDbPolyline
 90
1
 70
1
 10
171.705223
 20
140.105614
 30
0.0
  0
SPLINE
  5
23b
100
AcDbEntity
  8
Layer4
 62
7
100
AcDbSpline
 70
8
 71
3
 72
8
 73
4
 74
0
 40
0
 40
0
 40
0
 40
0
 40
1
 40
1
 40
1
 40
1
 10
171.705223
 20
95.605616
 30
0.0
 10
171.705223
 20
96.218148
 30
0.0
 10
171.378441
 20
96.784151
 30
0.0
 10
170.847973
 20
97.090417
 30
0.0
  0
SPLINE
  5
23c
100
AcDbEntity
  8
Layer4
 62
7
100
AcDbSpline
 70
8
 71
3
 72
8
 73
4
 74
0
 40
0
 40
0
 40
0
 40
0
 40
1
 40
1
 40
1
 40
1
 10
170.847973
 20
97.090417
 30
0.0
 10
170.317505
 20
97.396683
 30
0.0
 10
169.663941
 20
97.396683
 30
0.0
 10
169.133473
 20
97.090417
 30
0.0
  0
SPLINE
  5
23d
100
AcDbEntity
  8
Layer4
 62
7
100
AcDbSpline
 70
8
 71
3
 72
8
 73
4
 74
0
 40
0
 40
0
 40
0
 40
0
 40
1
 40
1
 40
1
 40
1
 10
169.133473
 20
97.090417
 30
0.0
 10
168.603005
 20
96.784151
 30
0.0
 10
168.276223
 20
96.218148
 30
0.0
 10
168.276223
 20
95.605616
 30
0.0
  0
SPLINE
  5
23e
100
AcDbEntity
  8
Layer4
 62
7
100
AcDbSpline
 70
8
 71
3
 72
8
 73
4
 74
0
 40
0
 40
0
 40
0
 40
0
 40
1
 40
1
 40
1
 40
1
 10
168.276223
 20
95.605616
 30
0.0
 10
168.276223
 20
94.993084
 30
0.0
 10
168.603005
 20
94.427082
 30
0.0
 10
169.133473
 20
94.120816
 30
0.0
  0
SPLINE
  5
23f
100
AcDbEntity
  8
Layer4
 62
7
100
AcDbSpline
 70
8
 71
3
 72
8
 73
4
 74
0
 40
0
 40
0
 40
0
 40
0
 40
1
 40
1
 40
1
 40
1
 10
169.133473
 20
94.120816
 30
0.0
 10
169.663941
 20
93.814550
 30
0.0
 10
170.317505
 20
93.814550
 30
0.0
 10
170.847973
 20
94.120816
 30
0.0
  0
SPLINE
  5
240
100
AcDbEntity
  8
Layer4
 62
7
100
AcDbSpline
 70
8
 71
3
 72
8
 73
4
 74
0
 40
0
 40
0
 40
0
 40
0
 40
1
 40
1
 40
1
 40
1
 10
170.847973
 20
94.120816
 30
0.0
 10
171.378441
 20
94.427082
 30
0.0
 10
171.705223
 20
94.993084
 30
0.0
 10
171.705223
 20
95.605616
 30
0.0
  0
LWPOLYLINE
  5
241
100
AcDbEntity
  8
Layer4
 62
7
100
AcDbPolyline
 90
1
 70
1
 10
171.705223
 20
117.855617
 30
0.0
  0
SPLINE
  5
242
100
AcDbEntity
  8
Layer4
 62
7
100
AcDbSpline
 70
8
 71
3
 72
8
 73
4
 74
0
 40
0
 40
0
 40
0
 40
0
 40
1
 40
1
 40
1
 40
1
 10
171.705223
 20
72.355618
 30
0.0
 10
171.705223
 20
72.968150
 30
0.0
 10
171.378441
 20
73.534152
 30
0.0
 10
170.847973
 20
73.840418
 30
0.0
  0
SPLINE
  5
243
100
AcDbEntity
  8
Layer4
 62
7
100
AcDbSpline
 70
8
 71
3
 72
8
 73
4
 74
0
 40
0
 40
0
 40
0
 40
0
 40
1
 40
1
 40
1
 40
1
 10
170.847973
 20
73.840418
 30
0.0
 10
170.317505
 20
74.146684
 30
0.0
 10
169.663941
 20
74.146684
 30
0.0
 10
169.133473
 20
73.840418
 30
0.0
  0
SPLINE
  5
244
100
AcDbEntity
  8
Layer4
 62
7
100
AcDbSpline
 70
8
 71
3
 72
8
 73
4
 74
0
 40
0
 40
0
 40
0
 40
0
 40
1
 40
1
 40
1
 40
1
 10
169.133473
 20
73.840418
 30
0.0
 10
168.603005
 20
73.534152
 30
0.0
 10
168.276223
 20
72.968150
 30
0.0
 10
168.276223
 20
72.355618
 30
0.0
  0
SPLINE
  5
245
100
AcDbEntity
  8
Layer4
 62
7
100
AcDbSpline
 70
8
 71
3
 72
8
 73
4
 74
0
 40
0
 40
0
 40
0
 40
0
 40
1
 40
1
 40
1
 40
1
 10
168.276223
 20
72.355618
 30
0.0
 10
168.276223
 20
71.743086
 30
0.0
 10
168.603005
 20
71.177083
 30
0.0
 10
169.133473
 20
70.870817
 30
0.0
  0
SPLINE
  5
246
100
AcDbEntity
  8
Layer4
 62
7
100
AcDbSpline
 70
8
 71
3
 72
8
 73
4
 74
0
 40
0
 40
0
 40
0
 40
0
 40
1
 40
1
 40
1
 40
1
 10
169.133473
 20
70.870817
 30
0.0
 10
169.663941
 20
70.564551
 30
0.0
 10
170.317505
 20
70.564551
 30
0.0
 10
170.847973
 20
70.870817
 30
0.0
  0
SPLINE
  5
247
100
AcDbEntity
  8
Layer4
 62
7
100
AcDbSpline
 70
8
 71
3
 72
8
 73
4
 74
0
 40
0
 40
0
 40
0
 40
0
 40
1
 40
1
 40
1
 40
1
 10
170.847973
 20
70.870817
 30
0.0
 10
171.378441
 20
71.177083
 30
0.0
 10
171.705223
 20
71.743086
 30
0.0
 10
171.705223
 20
72.355618
 30
0.0
  0
LWPOLYLINE
  5
248
100
AcDbEntity
  8
Layer4
 62
7
100
AcDbPolyline
 90
1
 70
1
 10
171.705223
 20
95.605616
 30
0.0
  0
SPLINE
  5
249
100
AcDbEntity
  8
Layer4
 62
7
100
AcDbSpline
 70
8
 71
3
 72
8
 73
4
 74
0
 40
0
 40
0
 40
0
 40
0
 40
1
 40
1
 40
1
 40
1
 10
171.705223
 20
50.105617
 30
0.0
 10
171.705223
 20
50.718149
 30
0.0
 10
171.378441
 20
51.284152
 30
0.0
 10
170.847973
 20
51.590418
 30
0.0
  0
SPLINE
  5
24a
100
AcDbEntity
  8
Layer4
 62
7
100
AcDbSpline
 70
8
 71
3
 72
8
 73
4
 74
0
 40
0
 40
0
 40
0
 40
0
 40
1
 40
1
 40
1
 40
1
 10
170.847973
 20
51.590418
 30
0.0
 10
170.317505
 20
51.896684
 30
0.0
 10
169.663941
 20
51.896684
 30
0.0
 10
169.133473
 20
51.590418
 30
0.0
  0
SPLINE
  5
24b
100
AcDbEntity
  8
Layer4
 62
7
100
AcDbSpline
 70
8
 71
3
 72
8
 73
4
 74
0
 40
0
 40
0
 40
0
 40
0
 40
1
 40
1
 40
1
 40
1
 10
169.133473
 20
51.590418
 30
0.0
 10
168.603005
 20
51.284152
 30
0.0
 10
168.276223
 20
50.718149
 30
0.0
 10
168.276223
 20
50.105617
 30
0.0
  0
SPLINE
  5
24c
100
AcDbEntity
  8
Layer4
 62
7
100
AcDbSpline
 70
8
 71
3
 72
8
 73
4
 74
0
 40
0
 40
0
 40
0
 40
0
 40
1
 40
1
 40
1
 40
1
 10
168.276223
 20
50.105617
 30
0.0
 10
168.276223
 20
49.493085
 30
0.0
 10
168.603005
 20
48.927083
 30
0.0
 10
169.133473
 20
48.620817
 30
0.0
  0
SPLINE
  5
24d
100
AcDbEntity
  8
Layer4
 62
7
100
AcDbSpline
 70
8
 71
3
 72
8
 73
4
 74
0
 40
0
 40
0
 40
0
 40
0
 40
1
 40
1
 40
1
 40
1
 10
169.133473
 20
48.620817
 30
0.0
 10
169.663941
 20
48.314551
 30
0.0
 10
170.317505
 20
48.314551
 30
0.0
 10
170.847973
 20
48.620817
 30
0.0
  0
SPLINE
  5
24e
100
AcDbEntity
  8
Layer4
 62
7
100
AcDbSpline
 70
8
 71
3
 72
8
 73
4
 74
0
 40
0
 40
0
 40
0
 40
0
 40
1
 40
1
 40
1
 40
1
 10
170.847973
 20
48.620817
 30
0.0
 10
171.378441
 20
48.927083
 30
0.0
 10
171.705223
 20
49.493085
 30
0.0
 10
171.705223
 20
50.105617
 30
0.0
  0
LWPOLYLINE
  5
24f
100
AcDbEntity
  8
Layer4
 62
7
100
AcDbPolyline
 90
1
 70
1
 10
171.705223
 20
72.355618
 30
0.0
  0
SPLINE
  5
250
100
AcDbEntity
  8
Layer4
 62
7
100
AcDbSpline
 70
8
 71
3
 72
8
 73
4
 74
0
 40
0
 40
0
 40
0
 40
0
 40
1
 40
1
 40
1
 40
1
 10
171.705223
 20
27.855614
 30
0.0
 10
171.705223
 20
28.468146
 30
0.0
 10
171.378441
 20
29.034149
 30
0.0
 10
170.847973
 20
29.340415
 30
0.0
  0
SPLINE
  5
251
100
AcDbEntity
  8
Layer4
 62
7
100
AcDbSpline
 70
8
 71
3
 72
8
 73
4
 74
0
 40
0
 40
0
 40
0
 40
0
 40
1
 40
1
 40
1
 40
1
 10
170.847973
 20
29.340415
 30
0.0
 10
170.317505
 20
29.646681
 30
0.0
 10
169.663941
 20
29.646681
 30
0.0
 10
169.133473
 20
29.340415
 30
0.0
  0
SPLINE
  5
252
100
AcDbEntity
  8
Layer4
 62
7
100
AcDbSpline
 70
8
 71
3
 72
8
 73
4
 74
0
 40
0
 40
0
 40
0
 40
0
 40
1
 40
1
 40
1
 40
1
 10
169.133473
 20
29.340415
 30
0.0
 10
168.603005
 20
29.034149
 30
0.0
 10
168.276223
 20
28.468146
 30
0.0
 10
168.276223
 20
27.855614
 30
0.0
  0
SPLINE
  5
253
100
AcDbEntity
  8
Layer4
 62
7
100
AcDbSpline
 70
8
 71
3
 72
8
 73
4
 74
0
 40
0
 40
0
 40
0
 40
0
 40
1
 40
1
 40
1
 40
1
 10
168.276223
 20
27.855614
 30
0.0
 10
168.276223
 20
27.243082
 30
0.0
 10
168.603005
 20
26.677079
 30
0.0
 10
169.133473
 20
26.370814
 30
0.0
  0
SPLINE
  5
254
100
AcDbEntity
  8
Layer4
 62
7
100
AcDbSpline
 70
8
 71
3
 72
8
 73
4
 74
0
 40
0
 40
0
 40
0
 40
0
 40
1
 40
1
 40
1
 40
1
 10
169.133473
 20
26.370814
 30
0.0
 10
169.663941
 20
26.064548
 30
0.0
 10
170.317505
 20
26.064548
 30
0.0
 10
170.847973
 20
26.370814
 30
0.0
  0
SPLINE
  5
255
100
AcDbEntity
  8
Layer4
 62
7
100
AcDbSpline
 70
8
 71
3
 72
8
 73
4
 74
0
 40
0
 40
0
 40
0
 40
0
 40
1
 40
1
 40
1
 40
1
 10
170.847973
 20
26.370814
 30
0.0
 10
171.378441
 20
26.677079
 30
0.0
 10
171.705223
 20
27.243082
 30
0.0
 10
171.705223
 20
27.855614
 30
0.0
  0
LWPOLYLINE
  5
256
100
AcDbEntity
  8
Layer4
 62
7
100
AcDbPolyline
 90
1
 70
1
 10
171.705223
 20
50.105617
 30
0.0
  0
SPLINE
  5
257
100
AcDbEntity
  8
Layer4
 62
7
100
AcDbSpline
 70
8
 71
3
 72
8
 73
4
 74
0
 40
0
 40
0
 40
0
 40
0
 40
1
 40
1
 40
1
 40
1
 10
171.705223
 20
5.605595
 30
0.0
 10
171.705223
 20
6.218127
 30
0.0
 10
171.378441
 20
6.784130
 30
0.0
 10
170.847973
 20
7.090396
 30
0.0
  0
SPLINE
  5
258
100
AcDbEntity
  8
Layer4
 62
7
100
AcDbSpline
 70
8
 71
3
 72
8
 73
4
 74
0
 40
0
 40
0
 40
0
 40
0
 40
1
 40
1
 40
1
 40
1
 10
170.847973
 20
7.090396
 30
0.0
 10
170.317505
 20
7.396662
 30
0.0
 10
169.663941
 20
7.396662
 30
0.0
 10
169.133473
 20
7.090396
 30
0.0
  0
SPLINE
  5
259
100
AcDbEntity
  8
Layer4
 62
7
100
AcDbSpline
 70
8
 71
3
 72
8
 73
4
 74
0
 40
0
 40
0
 40
0
 40
0
 40
1
 40
1
 40
1
 40
1
 10
169.133473
 20
7.090396
 30
0.0
 10
168.603005
 20
6.784130
 30
0.0
 10
168.276223
 20
6.218127
 30
0.0
 10
168.276223
 20
5.605595
 30
0.0
  0
SPLINE
  5
25a
100
AcDbEntity
  8
Layer4
 62
7
100
AcDbSpline
 70
8
 71
3
 72
8
 73
4
 74
0
 40
0
 40
0
 40
0
 40
0
 40
1
 40
1
 40
1
 40
1
 10
168.276223
 20
5.605595
 30
0.0
 10
168.276223
 20
4.993063
 30
0.0
 10
168.603005
 20
4.427060
 30
0.0
 10
169.133473
 20
4.120795
 30
0.0
  0
SPLINE
  5
25b
100
AcDbEntity
  8
Layer4
 62
7
100
AcDbSpline
 70
8
 71
3
 72
8
 73
4
 74
0
 40
0
 40
0
 40
0
 40
0
 40
1
 40
1
 40
1
 40
1
 10
169.133473
 20
4.120795
 30
0.0
 10
169.663941
 20
3.814529
 30
0.0
 10
170.317505
 20
3.814529
 30
0.0
 10
170.847973
 20
4.120795
 30
0.0
  0
SPLINE
  5
25c
100
AcDbEntity
  8
Layer4
 62
7
100
AcDbSpline
 70
8
 71
3
 72
8
 73
4
 74
0
 40
0
 40
0
 40
0
 40
0
 40
1
 40
1
 40
1
 40
1
 10
170.847973
 20
4.120795
 30
0.0
 10
171.378441
 20
4.427060
 30
0.0
 10
171.705223
 20
4.993063
 30
0.0
 10
171.705223
 20
5.605595
 30
0.0
  0
LWPOLYLINE
  5
25d
100
AcDbEntity
  8
Layer4
 62
7
100
AcDbPolyline
 90
1
 70
1
 10
171.705223
 20
27.855614
 30
0.0
  0
SPLINE
  5
25e
100
AcDbEntity
  8
Layer4
 62
7
100
AcDbSpline
 70
8
 71
3
 72
8
 73
4
 74
0
 40
0
 40
0
 40
0
 40
0
 40
1
 40
1
 40
1
 40
1
 10
171.705223
 20
184.355619
 30
0.0
 10
171.705223
 20
184.968150
 30
0.0
 10
171.378441
 20
185.534153
 30
0.0
 10
170.847973
 20
185.840419
 30
0.0
  0
SPLINE
  5
25f
100
AcDbEntity
  8
Layer4
 62
7
100
AcDbSpline
 70
8
 71
3
 72
8
 73
4
 74
0
 40
0
 40
0
 40
0
 40
0
 40
1
 40
1
 40
1
 40
1
 10
170.847973
 20
185.840419
 30
0.0
 10
170.317505
 20
186.146685
 30
0.0
 10
169.663941
 20
186.146685
 30
0.0
 10
169.133473
 20
185.840419
 30
0.0
  0
SPLINE
  5
260
100
AcDbEntity
  8
Layer4
 62
7
100
AcDbSpline
 70
8
 71
3
 72
8
 73
4
 74
0
 40
0
 40
0
 40
0
 40
0
 40
1
 40
1
 40
1
 40
1
 10
169.133473
 20
185.840419
 30
0.0
 10
168.603005
 20
185.534153
 30
0.0
 10
168.276223
 20
184.968150
 30
0.0
 10
168.276223
 20
184.355619
 30
0.0
  0
SPLINE
  5
261
100
AcDbEntity
  8
Layer4
 62
7
100
AcDbSpline
 70
8
 71
3
 72
8
 73
4
 74
0
 40
0
 40
0
 40
0
 40
0
 40
1
 40
1
 40
1
 40
1
 10
168.276223
 20
184.355619
 30
0.0
 10
168.276223
 20
183.743087
 30
0.0
 10
168.603005
 20
183.177084
 30
0.0
 10
169.133473
 20
182.870818
 30
0.0
  0
SPLINE
  5
262
100
AcDbEntity
  8
Layer4
 62
7
100
AcDbSpline
 70
8
 71
3
 72
8
 73
4
 74
0
 40
0
 40
0
 40
0
 40
0
 40
1
 40
1
 40
1
 40
1
 10
169.133473
 20
182.870818
 30
0.0
 10
169.663941
 20
182.564552
 30
0.0
 10
170.317505
 20
182.564552
 30
0.0
 10
170.847973
 20
182.870818
 30
0.0
  0
SPLINE
  5
263
100
AcDbEntity
  8
Layer4
 62
7
100
AcDbSpline
 70
8
 71
3
 72
8
 73
4
 74
0
 40
0
 40
0
 40
0
 40
0
 40
1
 40
1
 40
1
 40
1
 10
170.847973
 20
182.870818
 30
0.0
 10
171.378441
 20
183.177084
 30
0.0
 10
171.705223
 20
183.743087
 30
0.0
 10
171.705223
 20
184.355619
 30
0.0
  0
LWPOLYLINE
  5
264
100
AcDbEntity
  8
Layer4
 62
7
100
AcDbPolyline
 90
1
 70
1
 10
171.705223
 20
5.605595
 30
0.0
  0
SPLINE
  5
265
100
AcDbEntity
  8
Layer4
 62
7
100
AcDbSpline
 70
8
 71
3
 72
8
 73
4
 74
0
 40
0
 40
0
 40
0
 40
0
 40
1
 40
1
 40
1
 40
1
 10
82.635221
 20
162.355618
 30
0.0
 10
82.635221
 20
162.968149
 30
0.0
 10
82.308439
 20
163.534152
 30
0.0
 10
81.777971
 20
163.840418
 30
0.0
  0
SPLINE
  5
266
100
AcDbEntity
  8
Layer4
 62
7
100
AcDbSpline
 70
8
 71
3
 72
8
 73
4
 74
0
 40
0
 40
0
 40
0
 40
0
 40
1
 40
1
 40
1
 40
1
 10
81.777971
 20
163.840418
 30
0.0
 10
81.247503
 20
164.146684
 30
0.0
 10
80.593939
 20
164.146684
 30
0.0
 10
80.063471
 20
163.840418
 30
0.0
  0
SPLINE
  5
267
100
AcDbEntity
  8
Layer4
 62
7
100
AcDbSpline
 70
8
 71
3
 72
8
 73
4
 74
0
 40
0
 40
0
 40
0
 40
0
 40
1
 40
1
 40
1
 40
1
 10
80.063471
 20
163.840418
 30
0.0
 10
79.533003
 20
163.534152
 30
0.0
 10
79.206221
 20
162.968149
 30
0.0
 10
79.206221
 20
162.355618
 30
0.0
  0
SPLINE
  5
268
100
AcDbEntity
  8
Layer4
 62
7
100
AcDbSpline
 70
8
 71
3
 72
8
 73
4
 74
0
 40
0
 40
0
 40
0
 40
0
 40
1
 40
1
 40
1
 40
1
 10
79.206221
 20
162.355618
 30
0.0
 10
79.206221
 20
161.408725
 30
0.0
 10
79.973829
 20
160.641118
 30
0.0
 10
80.920721
 20
160.641118
 30
0.0
  0
SPLINE
  5
269
100
AcDbEntity
  8
Layer4
 62
7
100
AcDbSpline
 70
8
 71
3
 72
8
 73
4
 74
0
 40
0
 40
0
 40
0
 40
0
 40
1
 40
1
 40
1
 40
1
 10
80.920721
 20
160.641118
 30
0.0
 10
81.867613
 20
160.641118
 30
0.0
 10
82.635221
 20
161.408725
 30
0.0
 10
82.635221
 20
162.355618
 30
0.0
  0
LWPOLYLINE
  5
26a
100
AcDbEntity
  8
Layer4
 62
7
100
AcDbPolyline
 90
1
 70
1
 10
171.705223
 20
184.355619
 30
0.0
  0
SPLINE
  5
26b
100
AcDbEntity
  8
Layer4
 62
7
100
AcDbSpline
 70
8
 71
3
 72
8
 73
4
 74
0
 40
0
 40
0
 40
0
 40
0
 40
1
 40
1
 40
1
 40
1
 10
82.635221
 20
140.105614
 30
0.0
 10
82.635221
 20
140.718146
 30
0.0
 10
82.308439
 20
141.284149
 30
0.0
 10
81.777971
 20
141.590415
 30
0.0
  0
SPLINE
  5
26c
100
AcDbEntity
  8
Layer4
 62
7
100
AcDbSpline
 70
8
 71
3
 72
8
 73
4
 74
0
 40
0
 40
0
 40
0
 40
0
 40
1
 40
1
 40
1
 40
1
 10
81.777971
 20
141.590415
 30
0.0
 10
81.247503
 20
141.896681
 30
0.0
 10
80.593939
 20
141.896681
 30
0.0
 10
80.063471
 20
141.590415
 30
0.0
  0
SPLINE
  5
26d
100
AcDbEntity
  8
Layer4
 62
7
100
AcDbSpline
 70
8
 71
3
 72
8
 73
4
 74
0
 40
0
 40
0
 40
0
 40
0
 40
1
 40
1
 40
1
 40
1
 10
80.063471
 20
141.590415
 30
0.0
 10
79.533003
 20
141.284149
 30
0.0
 10
79.206221
 20
140.718146
 30
0.0
 10
79.206221
 20
140.105614
 30
0.0
  0
SPLINE
  5
26e
100
AcDbEntity
  8
Layer4
 62
7
100
AcDbSpline
 70
8
 71
3
 72
8
 73
4
 74
0
 40
0
 40
0
 40
0
 40
0
 40
1
 40
1
 40
1
 40
1
 10
79.206221
 20
140.105614
 30
0.0
 10
79.206221
 20
139.158722
 30
0.0
 10
79.973829
 20
138.391115
 30
0.0
 10
80.920721
 20
138.391115
 30
0.0
  0
SPLINE
  5
26f
100
AcDbEntity
  8
Layer4
 62
7
100
AcDbSpline
 70
8
 71
3
 72
8
 73
4
 74
0
 40
0
 40
0
 40
0
 40
0
 40
1
 40
1
 40
1
 40
1
 10
80.920721
 20
138.391115
 30
0.0
 10
81.867613
 20
138.391115
 30
0.0
 10
82.635221
 20
139.158722
 30
0.0
 10
82.635221
 20
140.105614
 30
0.0
  0
LWPOLYLINE
  5
270
100
AcDbEntity
  8
Layer4
 62
7
100
AcDbPolyline
 90
1
 70
1
 10
82.635221
 20
162.355618
 30
0.0
  0
SPLINE
  5
271
100
AcDbEntity
  8
Layer4
 62
7
100
AcDbSpline
 70
8
 71
3
 72
8
 73
4
 74
0
 40
0
 40
0
 40
0
 40
0
 40
1
 40
1
 40
1
 40
1
 10
82.635221
 20
117.855617
 30
0.0
 10
82.635221
 20
118.468149
 30
0.0
 10
82.308439
 20
119.034151
 30
0.0
 10
81.777971
 20
119.340417
 30
0.0
  0
SPLINE
  5
272
100
AcDbEntity
  8
Layer4
 62
7
100
AcDbSpline
 70
8
 71
3
 72
8
 73
4
 74
0
 40
0
 40
0
 40
0
 40
0
 40
1
 40
1
 40
1
 40
1
 10
81.777971
 20
119.340417
 30
0.0
 10
81.247503
 20
119.646683
 30
0.0
 10
80.593939
 20
119.646683
 30
0.0
 10
80.063471
 20
119.340417
 30
0.0
  0
SPLINE
  5
273
100
AcDbEntity
  8
Layer4
 62
7
100
AcDbSpline
 70
8
 71
3
 72
8
 73
4
 74
0
 40
0
 40
0
 40
0
 40
0
 40
1
 40
1
 40
1
 40
1
 10
80.063471
 20
119.340417
 30
0.0
 10
79.533003
 20
119.034151
 30
0.0
 10
79.206221
 20
118.468149
 30
0.0
 10
79.206221
 20
117.855617
 30
0.0
  0
SPLINE
  5
274
100
AcDbEntity
  8
Layer4
 62
7
100
AcDbSpline
 70
8
 71
3
 72
8
 73
4
 74
0
 40
0
 40
0
 40
0
 40
0
 40
1
 40
1
 40
1
 40
1
 10
79.206221
 20
117.855617
 30
0.0
 10
79.206221
 20
116.908724
 30
0.0
 10
79.973829
 20
116.141117
 30
0.0
 10
80.920721
 20
116.141117
 30
0.0
  0
SPLINE
  5
275
100
AcDbEntity
  8
Layer4
 62
7
100
AcDbSpline
 70
8
 71
3
 72
8
 73
4
 74
0
 40
0
 40
0
 40
0
 40
0
 40
1
 40
1
 40
1
 40
1
 10
80.920721
 20
116.141117
 30
0.0
 10
81.867613
 20
116.141117
 30
0.0
 10
82.635221
 20
116.908724
 30
0.0
 10
82.635221
 20
117.855617
 30
0.0
  0
LWPOLYLINE
  5
276
100
AcDbEntity
  8
Layer4
 62
7
100
AcDbPolyline
 90
1
 70
1
 10
82.635221
 20
140.105614
 30
0.0
  0
SPLINE
  5
277
100
AcDbEntity
  8
Layer4
 62
7
100
AcDbSpline
 70
8
 71
3
 72
8
 73
4
 74
0
 40
0
 40
0
 40
0
 40
0
 40
1
 40
1
 40
1
 40
1
 10
82.635221
 20
95.605616
 30
0.0
 10
82.635221
 20
96.218148
 30
0.0
 10
82.308439
 20
96.784151
 30
0.0
 10
81.777971
 20
97.090417
 30
0.0
  0
SPLINE
  5
278
100
AcDbEntity
  8
Layer4
 62
7
100
AcDbSpline
 70
8
 71
3
 72
8
 73
4
 74
0
 40
0
 40
0
 40
0
 40
0
 40
1
 40
1
 40
1
 40
1
 10
81.777971
 20
97.090417
 30
0.0
 10
81.247503
 20
97.396683
 30
0.0
 10
80.593939
 20
97.396683
 30
0.0
 10
80.063471
 20
97.090417
 30
0.0
  0
SPLINE
  5
279
100
AcDbEntity
  8
Layer4
 62
7
100
AcDbSpline
 70
8
 71
3
 72
8
 73
4
 74
0
 40
0
 40
0
 40
0
 40
0
 40
1
 40
1
 40
1
 40
1
 10
80.063471
 20
97.090417
 30
0.0
 10
79.533003
 20
96.784151
 30
0.0
 10
79.206221
 20
96.218148
 30
0.0
 10
79.206221
 20
95.605616
 30
0.0
  0
SPLINE
  5
27a
100
AcDbEntity
  8
Layer4
 62
7
100
AcDbSpline
 70
8
 71
3
 72
8
 73
4
 74
0
 40
0
 40
0
 40
0
 40
0
 40
1
 40
1
 40
1
 40
1
 10
79.206221
 20
95.605616
 30
0.0
 10
79.206221
 20
94.658724
 30
0.0
 10
79.973829
 20
93.891116
 30
0.0
 10
80.920721
 20
93.891116
 30
0.0
  0
SPLINE
  5
27b
100
AcDbEntity
  8
Layer4
 62
7
100
AcDbSpline
 70
8
 71
3
 72
8
 73
4
 74
0
 40
0
 40
0
 40
0
 40
0
 40
1
 40
1
 40
1
 40
1
 10
80.920721
 20
93.891116
 30
0.0
 10
81.867613
 20
93.891116
 30
0.0
 10
82.635221
 20
94.658724
 30
0.0
 10
82.635221
 20
95.605616
 30
0.0
  0
LWPOLYLINE
  5
27c
100
AcDbEntity
  8
Layer4
 62
7
100
AcDbPolyline
 90
1
 70
1
 10
82.635221
 20
117.855617
 30
0.0
  0
SPLINE
  5
27d
100
AcDbEntity
  8
Layer4
 62
7
100
AcDbSpline
 70
8
 71
3
 72
8
 73
4
 74
0
 40
0
 40
0
 40
0
 40
0
 40
1
 40
1
 40
1
 40
1
 10
82.635221
 20
72.355618
 30
0.0
 10
82.635221
 20
72.968150
 30
0.0
 10
82.308439
 20
73.534152
 30
0.0
 10
81.777971
 20
73.840418
 30
0.0
  0
SPLINE
  5
27e
100
AcDbEntity
  8
Layer4
 62
7
100
AcDbSpline
 70
8
 71
3
 72
8
 73
4
 74
0
 40
0
 40
0
 40
0
 40
0
 40
1
 40
1
 40
1
 40
1
 10
81.777971
 20
73.840418
 30
0.0
 10
81.247503
 20
74.146684
 30
0.0
 10
80.593939
 20
74.146684
 30
0.0
 10
80.063471
 20
73.840418
 30
0.0
  0
SPLINE
  5
27f
100
AcDbEntity
  8
Layer4
 62
7
100
AcDbSpline
 70
8
 71
3
 72
8
 73
4
 74
0
 40
0
 40
0
 40
0
 40
0
 40
1
 40
1
 40
1
 40
1
 10
80.063471
 20
73.840418
 30
0.0
 10
79.533003
 20
73.534152
 30
0.0
 10
79.206221
 20
72.968150
 30
0.0
 10
79.206221
 20
72.355618
 30
0.0
  0
SPLINE
  5
280
100
AcDbEntity
  8
Layer4
 62
7
100
AcDbSpline
 70
8
 71
3
 72
8
 73
4
 74
0
 40
0
 40
0
 40
0
 40
0
 40
1
 40
1
 40
1
 40
1
 10
79.206221
 20
72.355618
 30
0.0
 10
79.206221
 20
71.408726
 30
0.0
 10
79.973829
 20
70.641118
 30
0.0
 10
80.920721
 20
70.641118
 30
0.0
  0
SPLINE
  5
281
100
AcDbEntity
  8
Layer4
 62
7
100
AcDbSpline
 70
8
 71
3
 72
8
 73
4
 74
0
 40
0
 40
0
 40
0
 40
0
 40
1
 40
1
 40
1
 40
1
 10
80.920721
 20
70.641118
 30
0.0
 10
81.867613
 20
70.641118
 30
0.0
 10
82.635221
 20
71.408726
 30
0.0
 10
82.635221
 20
72.355618
 30
0.0
  0
LWPOLYLINE
  5
282
100
AcDbEntity
  8
Layer4
 62
7
100
AcDbPolyline
 90
1
 70
1
 10
82.635221
 20
95.605616
 30
0.0
  0
SPLINE
  5
283
100
AcDbEntity
  8
Layer4
 62
7
100
AcDbSpline
 70
8
 71
3
 72
8
 73
4
 74
0
 40
0
 40
0
 40
0
 40
0
 40
1
 40
1
 40
1
 40
1
 10
82.635221
 20
50.105617
 30
0.0
 10
82.635221
 20
50.718149
 30
0.0
 10
82.308439
 20
51.284152
 30
0.0
 10
81.777971
 20
51.590418
 30
0.0
  0
SPLINE
  5
284
100
AcDbEntity
  8
Layer4
 62
7
100
AcDbSpline
 70
8
 71
3
 72
8
 73
4
 74
0
 40
0
 40
0
 40
0
 40
0
 40
1
 40
1
 40
1
 40
1
 10
81.777971
 20
51.590418
 30
0.0
 10
81.247503
 20
51.896684
 30
0.0
 10
80.593939
 20
51.896684
 30
0.0
 10
80.063471
 20
51.590418
 30
0.0
  0
SPLINE
  5
285
100
AcDbEntity
  8
Layer4
 62
7
100
AcDbSpline
 70
8
 71
3
 72
8
 73
4
 74
0
 40
0
 40
0
 40
0
 40
0
 40
1
 40
1
 40
1
 40
1
 10
80.063471
 20
51.590418
 30
0.0
 10
79.533003
 20
51.284152
 30
0.0
 10
79.206221
 20
50.718149
 30
0.0
 10
79.206221
 20
50.105617
 30
0.0
  0
SPLINE
  5
286
100
AcDbEntity
  8
Layer4
 62
7
100
AcDbSpline
 70
8
 71
3
 72
8
 73
4
 74
0
 40
0
 40
0
 40
0
 40
0
 40
1
 40
1
 40
1
 40
1
 10
79.206221
 20
50.105617
 30
0.0
 10
79.206221
 20
49.158725
 30
0.0
 10
79.973829
 20
48.391117
 30
0.0
 10
80.920721
 20
48.391117
 30
0.0
  0
SPLINE
  5
287
100
AcDbEntity
  8
Layer4
 62
7
100
AcDbSpline
 70
8
 71
3
 72
8
 73
4
 74
0
 40
0
 40
0
 40
0
 40
0
 40
1
 40
1
 40
1
 40
1
 10
80.920721
 20
48.391117
 30
0.0
 10
81.867613
 20
48.391117
 30
0.0
 10
82.635221
 20
49.158725
 30
0.0
 10
82.635221
 20
50.105617
 30
0.0
  0
LWPOLYLINE
  5
288
100
AcDbEntity
  8
Layer4
 62
7
100
AcDbPolyline
 90
1
 70
1
 10
82.635221
 20
72.355618
 30
0.0
  0
SPLINE
  5
289
100
AcDbEntity
  8
Layer4
 62
7
100
AcDbSpline
 70
8
 71
3
 72
8
 73
4
 74
0
 40
0
 40
0
 40
0
 40
0
 40
1
 40
1
 40
1
 40
1
 10
82.635221
 20
27.855614
 30
0.0
 10
82.635221
 20
28.468146
 30
0.0
 10
82.308439
 20
29.034149
 30
0.0
 10
81.777971
 20
29.340415
 30
0.0
  0
SPLINE
  5
28a
100
AcDbEntity
  8
Layer4
 62
7
100
AcDbSpline
 70
8
 71
3
 72
8
 73
4
 74
0
 40
0
 40
0
 40
0
 40
0
 40
1
 40
1
 40
1
 40
1
 10
81.777971
 20
29.340415
 30
0.0
 10
81.247503
 20
29.646681
 30
0.0
 10
80.593939
 20
29.646681
 30
0.0
 10
80.063471
 20
29.340415
 30
0.0
  0
SPLINE
  5
28b
100
AcDbEntity
  8
Layer4
 62
7
100
AcDbSpline
 70
8
 71
3
 72
8
 73
4
 74
0
 40
0
 40
0
 40
0
 40
0
 40
1
 40
1
 40
1
 40
1
 10
80.063471
 20
29.340415
 30
0.0
 10
79.533003
 20
29.034149
 30
0.0
 10
79.206221
 20
28.468146
 30
0.0
 10
79.206221
 20
27.855614
 30
0.0
  0
SPLINE
  5
28c
100
AcDbEntity
  8
Layer4
 62
7
100
AcDbSpline
 70
8
 71
3
 72
8
 73
4
 74
0
 40
0
 40
0
 40
0
 40
0
 40
1
 40
1
 40
1
 40
1
 10
79.206221
 20
27.855614
 30
0.0
 10
79.206221
 20
26.908722
 30
0.0
 10
79.973829
 20
26.141114
 30
0.0
 10
80.920721
 20
26.141114
 30
0.0
  0
SPLINE
  5
28d
100
AcDbEntity
  8
Layer4
 62
7
100
AcDbSpline
 70
8
 71
3
 72
8
 73
4
 74
0
 40
0
 40
0
 40
0
 40
0
 40
1
 40
1
 40
1
 40
1
 10
80.920721
 20
26.141114
 30
0.0
 10
81.867613
 20
26.141114
 30
0.0
 10
82.635221
 20
26.908722
 30
0.0
 10
82.635221
 20
27.855614
 30
0.0
  0
LWPOLYLINE
  5
28e
100
AcDbEntity
  8
Layer4
 62
7
100
AcDbPolyline
 90
1
 70
1
 10
82.635221
 20
50.105617
 30
0.0
  0
SPLINE
  5
28f
100
AcDbEntity
  8
Layer4
 62
7
100
AcDbSpline
 70
8
 71
3
 72
8
 73
4
 74
0
 40
0
 40
0
 40
0
 40
0
 40
1
 40
1
 40
1
 40
1
 10
82.635221
 20
5.605595
 30
0.0
 10
82.635221
 20
6.218127
 30
0.0
 10
82.308439
 20
6.784130
 30
0.0
 10
81.777971
 20
7.090396
 30
0.0
  0
SPLINE
  5
290
100
AcDbEntity
  8
Layer4
 62
7
100
AcDbSpline
 70
8
 71
3
 72
8
 73
4
 74
0
 40
0
 40
0
 40
0
 40
0
 40
1
 40
1
 40
1
 40
1
 10
81.777971
 20
7.090396
 30
0.0
 10
81.247503
 20
7.396662
 30
0.0
 10
80.593939
 20
7.396662
 30
0.0
 10
80.063471
 20
7.090396
 30
0.0
  0
SPLINE
  5
291
100
AcDbEntity
  8
Layer4
 62
7
100
AcDbSpline
 70
8
 71
3
 72
8
 73
4
 74
0
 40
0
 40
0
 40
0
 40
0
 40
1
 40
1
 40
1
 40
1
 10
80.063471
 20
7.090396
 30
0.0
 10
79.533003
 20
6.784130
 30
0.0
 10
79.206221
 20
6.218127
 30
0.0
 10
79.206221
 20
5.605595
 30
0.0
  0
SPLINE
  5
292
100
AcDbEntity
  8
Layer4
 62
7
100
AcDbSpline
 70
8
 71
3
 72
8
 73
4
 74
0
 40
0
 40
0
 40
0
 40
0
 40
1
 40
1
 40
1
 40
1
 10
79.206221
 20
5.605595
 30
0.0
 10
79.206221
 20
4.658703
 30
0.0
 10
79.973829
 20
3.891095
 30
0.0
 10
80.920721
 20
3.891095
 30
0.0
  0
SPLINE
  5
293
100
AcDbEntity
  8
Layer4
 62
7
100
AcDbSpline
 70
8
 71
3
 72
8
 73
4
 74
0
 40
0
 40
0
 40
0
 40
0
 40
1
 40
1
 40
1
 40
1
 10
80.920721
 20
3.891095
 30
0.0
 10
81.867613
 20
3.891095
 30
0.0
 10
82.635221
 20
4.658703
 30
0.0
 10
82.635221
 20
5.605595
 30
0.0
  0
LWPOLYLINE
  5
294
100
AcDbEntity
  8
Layer4
 62
7
100
AcDbPolyline
 90
1
 70
1
 10
82.635221
 20
27.855614
 30
0.0
  0
SPLINE
  5
295
100
AcDbEntity
  8
Layer4
 62
7
100
AcDbSpline
 70
8
 71
3
 72
8
 73
4
 74
0
 40
0
 40
0
 40
0
 40
0
 40
1
 40
1
 40
1
 40
1
 10
82.635221
 20
184.355619
 30
0.0
 10
82.635221
 20
184.968150
 30
0.0
 10
82.308439
 20
185.534153
 30
0.0
 10
81.777971
 20
185.840419
 30
0.0
  0
SPLINE
  5
296
100
AcDbEntity
  8
Layer4
 62
7
100
AcDbSpline
 70
8
 71
3
 72
8
 73
4
 74
0
 40
0
 40
0
 40
0
 40
0
 40
1
 40
1
 40
1
 40
1
 10
81.777971
 20
185.840419
 30
0.0
 10
81.247503
 20
186.146685
 30
0.0
 10
80.593939
 20
186.146685
 30
0.0
 10
80.063471
 20
185.840419
 30
0.0
  0
SPLINE
  5
297
100
AcDbEntity
  8
Layer4
 62
7
100
AcDbSpline
 70
8
 71
3
 72
8
 73
4
 74
0
 40
0
 40
0
 40
0
 40
0
 40
1
 40
1
 40
1
 40
1
 10
80.063471
 20
185.840419
 30
0.0
 10
79.533003
 20
185.534153
 30
0.0
 10
79.206221
 20
184.968150
 30
0.0
 10
79.206221
 20
184.355619
 30
0.0
  0
SPLINE
  5
298
100
AcDbEntity
  8
Layer4
 62
7
100
AcDbSpline
 70
8
 71
3
 72
8
 73
4
 74
0
 40
0
 40
0
 40
0
 40
0
 40
1
 40
1
 40
1
 40
1
 10
79.206221
 20
184.355619
 30
0.0
 10
79.206221
 20
183.408726
 30
0.0
 10
79.973829
 20
182.641119
 30
0.0
 10
80.920721
 20
182.641119
 30
0.0
  0
SPLINE
  5
299
100
AcDbEntity
  8
Layer4
 62
7
100
AcDbSpline
 70
8
 71
3
 72
8
 73
4
 74
0
 40
0
 40
0
 40
0
 40
0
 40
1
 40
1
 40
1
 40
1
 10
80.920721
 20
182.641119
 30
0.0
 10
81.867613
 20
182.641119
 30
0.0
 10
82.635221
 20
183.408726
 30
0.0
 10
82.635221
 20
184.355619
 30
0.0
  0
LWPOLYLINE
  5
29a
100
AcDbEntity
  8
Layer4
 62
7
100
AcDbPolyline
 90
1
 70
1
 10
82.635221
 20
5.605595
 30
0.0
  0
SPLINE
  5
29b
100
AcDbEntity
  8
Layer4
 62
7
100
AcDbSpline
 70
8
 71
3
 72
8
 73
4
 74
0
 40
0
 40
0
 40
0
 40
0
 40
1
 40
1
 40
1
 40
1
 10
183.256309
 20
187.118653
 30
0.0
 10
183.256309
 20
187.118653
 30
0.0
 10
183.256309
 20
185.149481
 30
0.0
 10
183.256309
 20
185.149481
 30
0.0
  0
SPLINE
  5
29c
100
AcDbEntity
  8
Layer4
 62
7
100
AcDbSpline
 70
8
 71
3
 72
8
 73
4
 74
0
 40
0
 40
0
 40
0
 40
0
 40
1
 40
1
 40
1
 40
1
 10
183.256309
 20
185.149481
 30
0.0
 10
183.256311
 20
184.975393
 30
0.0
 10
183.319492
 20
184.808437
 30
0.0
 10
183.431953
 20
184.685341
 30
0.0
  0
SPLINE
  5
29d
100
AcDbEntity
  8
Layer4
 62
7
100
AcDbSpline
 70
8
 71
3
 72
8
 73
4
 74
0
 40
0
 40
0
 40
0
 40
0
 40
1
 40
1
 40
1
 40
1
 10
183.431953
 20
184.685341
 30
0.0
 10
183.544414
 20
184.562245
 30
0.0
 10
183.696943
 20
184.493092
 30
0.0
 10
183.855985
 20
184.493097
 30
0.0
  0
SPLINE
  5
29e
100
AcDbEntity
  8
Layer4
 62
7
100
AcDbSpline
 70
8
 71
3
 72
8
 73
4
 74
0
 40
0
 40
0
 40
0
 40
0
 40
1
 40
1
 40
1
 40
1
 10
183.855985
 20
184.493097
 30
0.0
 10
183.855985
 20
184.493097
 30
0.0
 10
212.639588
 20
184.493097
 30
0.0
 10
212.639588
 20
184.493097
 30
0.0
  0
SPLINE
  5
29f
100
AcDbEntity
  8
Layer4
 62
7
100
AcDbSpline
 70
8
 71
3
 72
8
 73
4
 74
0
 40
0
 40
0
 40
0
 40
0
 40
1
 40
1
 40
1
 40
1
 10
212.639588
 20
184.493097
 30
0.0
 10
212.970768
 20
184.493097
 30
0.0
 10
213.239245
 20
184.786969
 30
0.0
 10
213.239247
 20
185.149481
 30
0.0
  0
SPLINE
  5
2a0
100
AcDbEntity
  8
Layer4
 62
7
100
AcDbSpline
 70
8
 71
3
 72
8
 73
4
 74
0
 40
0
 40
0
 40
0
 40
0
 40
1
 40
1
 40
1
 40
1
 10
213.239247
 20
185.149481
 30
0.0
 10
213.239247
 20
185.149481
 30
0.0
 10
213.239247
 20
187.118653
 30
0.0
 10
213.239247
 20
187.118653
 30
0.0
  0
SPLINE
  5
2a1
100
AcDbEntity
  8
Layer4
 62
7
100
AcDbSpline
 70
8
 71
3
 72
8
 73
4
 74
0
 40
0
 40
0
 40
0
 40
0
 40
1
 40
1
 40
1
 40
1
 10
213.239247
 20
187.118653
 30
0.0
 10
213.239243
 20
187.481164
 30
0.0
 10
212.970767
 20
187.775035
 30
0.0
 10
212.639588
 20
187.775034
 30
0.0
  0
SPLINE
  5
2a2
100
AcDbEntity
  8
Layer4
 62
7
100
AcDbSpline
 70
8
 71
3
 72
8
 73
4
 74
0
 40
0
 40
0
 40
0
 40
0
 40
1
 40
1
 40
1
 40
1
 10
212.639588
 20
187.775034
 30
0.0
 10
212.639588
 20
187.775034
 30
0.0
 10
183.855987
 20
187.775034
 30
0.0
 10
183.855987
 20
187.775034
 30
0.0
  0
SPLINE
  5
2a3
100
AcDbEntity
  8
Layer4
 62
7
100
AcDbSpline
 70
8
 71
3
 72
8
 73
4
 74
0
 40
0
 40
0
 40
0
 40
0
 40
1
 40
1
 40
1
 40
1
 10
183.855987
 20
187.775034
 30
0.0
 10
183.696946
 20
187.775039
 30
0.0
 10
183.544418
 20
187.705887
 30
0.0
 10
183.431956
 20
187.582791
 30
0.0
  0
SPLINE
  5
2a4
100
AcDbEntity
  8
Layer4
 62
7
100
AcDbSpline
 70
8
 71
3
 72
8
 73
4
 74
0
 40
0
 40
0
 40
0
 40
0
 40
1
 40
1
 40
1
 40
1
 10
183.431956
 20
187.582791
 30
0.0
 10
183.319495
 20
187.459696
 30
0.0
 10
183.256314
 20
187.292740
 30
0.0
 10
183.256312
 20
187.118653
 30
0.0
  0
LWPOLYLINE
  5
2a5
100
AcDbEntity
  8
Layer4
 62
7
100
AcDbPolyline
 90
1
 70
1
 10
82.635221
 20
184.355619
 30
0.0
  0
SPLINE
  5
2a6
100
AcDbEntity
  8
Layer4
 62
7
100
AcDbSpline
 70
8
 71
3
 72
8
 73
4
 74
0
 40
0
 40
0
 40
0
 40
0
 40
1
 40
1
 40
1
 40
1
 10
36.760531
 20
187.118653
 30
0.0
 10
36.760531
 20
187.118653
 30
0.0
 10
36.760531
 20
185.149481
 30
0.0
 10
36.760531
 20
185.149481
 30
0.0
  0
SPLINE
  5
2a7
100
AcDbEntity
  8
Layer4
 62
7
100
AcDbSpline
 70
8
 71
3
 72
8
 73
4
 74
0
 40
0
 40
0
 40
0
 40
0
 40
1
 40
1
 40
1
 40
1
 10
36.760531
 20
185.149481
 30
0.0
 10
36.760533
 20
184.975393
 30
0.0
 10
36.823714
 20
184.808437
 30
0.0
 10
36.936175
 20
184.685341
 30
0.0
  0
SPLINE
  5
2a8
100
AcDbEntity
  8
Layer4
 62
7
100
AcDbSpline
 70
8
 71
3
 72
8
 73
4
 74
0
 40
0
 40
0
 40
0
 40
0
 40
1
 40
1
 40
1
 40
1
 10
36.936175
 20
184.685341
 30
0.0
 10
37.048636
 20
184.562245
 30
0.0
 10
37.201165
 20
184.493092
 30
0.0
 10
37.360207
 20
184.493097
 30
0.0
  0
SPLINE
  5
2a9
100
AcDbEntity
  8
Layer4
 62
7
100
AcDbSpline
 70
8
 71
3
 72
8
 73
4
 74
0
 40
0
 40
0
 40
0
 40
0
 40
1
 40
1
 40
1
 40
1
 10
37.360207
 20
184.493097
 30
0.0
 10
37.360207
 20
184.493097
 30
0.0
 10
66.143810
 20
184.493097
 30
0.0
 10
66.143810
 20
184.493097
 30
0.0
  0
SPLINE
  5
2aa
100
AcDbEntity
  8
Layer4
 62
7
100
AcDbSpline
 70
8
 71
3
 72
8
 73
4
 74
0
 40
0
 40
0
 40
0
 40
0
 40
1
 40
1
 40
1
 40
1
 10
66.143810
 20
184.493097
 30
0.0
 10
66.474989
 20
184.493098
 30
0.0
 10
66.743464
 20
184.786970
 30
0.0
 10
66.743467
 20
185.149481
 30
0.0
  0
SPLINE
  5
2ab
100
AcDbEntity
  8
Layer4
 62
7
100
AcDbSpline
 70
8
 71
3
 72
8
 73
4
 74
0
 40
0
 40
0
 40
0
 40
0
 40
1
 40
1
 40
1
 40
1
 10
66.743467
 20
185.149481
 30
0.0
 10
66.743467
 20
185.149481
 30
0.0
 10
66.743467
 20
187.118653
 30
0.0
 10
66.743467
 20
187.118653
 30
0.0
  0
SPLINE
  5
2ac
100
AcDbEntity
  8
Layer4
 62
7
100
AcDbSpline
 70
8
 71
3
 72
8
 73
4
 74
0
 40
0
 40
0
 40
0
 40
0
 40
1
 40
1
 40
1
 40
1
 10
66.743467
 20
187.118653
 30
0.0
 10
66.743463
 20
187.481163
 30
0.0
 10
66.474988
 20
187.775033
 30
0.0
 10
66.143810
 20
187.775034
 30
0.0
  0
SPLINE
  5
2ad
100
AcDbEntity
  8
Layer4
 62
7
100
AcDbSpline
 70
8
 71
3
 72
8
 73
4
 74
0
 40
0
 40
0
 40
0
 40
0
 40
1
 40
1
 40
1
 40
1
 10
66.143810
 20
187.775034
 30
0.0
 10
66.143810
 20
187.775034
 30
0.0
 10
37.360210
 20
187.775034
 30
0.0
 10
37.360210
 20
187.775034
 30
0.0
  0
SPLINE
  5
2ae
100
AcDbEntity
  8
Layer4
 62
7
100
AcDbSpline
 70
8
 71
3
 72
8
 73
4
 74
0
 40
0
 40
0
 40
0
 40
0
 40
1
 40
1
 40
1
 40
1
 10
37.360210
 20
187.775034
 30
0.0
 10
37.201169
 20
187.775039
 30
0.0
 10
37.048640
 20
187.705887
 30
0.0
 10
36.936179
 20
187.582791
 30
0.0
  0
SPLINE
  5
2af
100
AcDbEntity
  8
Layer4
 62
7
100
AcDbSpline
 70
8
 71
3
 72
8
 73
4
 74
0
 40
0
 40
0
 40
0
 40
0
 40
1
 40
1
 40
1
 40
1
 10
36.936179
 20
187.582791
 30
0.0
 10
36.823717
 20
187.459696
 30
0.0
 10
36.760536
 20
187.292740
 30
0.0
 10
36.760534
 20
187.118653
 30
0.0
  0
LWPOLYLINE
  5
2b0
100
AcDbEntity
  8
Layer4
 62
7
100
AcDbPolyline
 90
1
 70
1
 10
183.256312
 20
187.118653
 30
0.0
  0
LWPOLYLINE
  5
2b1
100
AcDbEntity
  8
Layer4
 62
7
100
AcDbPolyline
 90
1
 70
1
 10
36.760534
 20
187.118653
 30
0.0
  0
ENDSEC
  0
SECTION
  2
OBJECTS
  0
DICTIONARY
  5
C
330
0
100
AcDbDictionary
  3
ACAD_GROUP
350
D
  3
ACAD_MLINESTYLE
350
17
  0
DICTIONARY
  5
D
330
C
100
AcDbDictionary
  0
DICTIONARY
  5
1A
330
C
100
AcDbDictionary
  0
DICTIONARY
  5
17
330
C
100
AcDbDictionary
  3
STANDARD
350
18
  0
DICTIONARY
  5
19
330
C
100
AcDbDictionary
  0
ENDSEC
  0
EOF
