999
dxfrw 0.6.3
  0
SECTION
  2
HEADER
  9
$ACADVER
  1
AC1021
  9
$DWGCODEPAGE
  3
ANSI_1252
  9
$INSBASE
 10
0
 20
0
 30
0
  9
$EXTMIN
 10
0.141111
 20
0.141103
 30
0
  9
$EXTMAX
 10
250.141112
 20
200.141118
 30
0
  9
$LIMMIN
 10
0
 20
0
  9
$LIMMAX
 10
420
 20
297
  9
$ORTHOMODE
 70
    0
  9
$REGENMODE
 70
    1
  9
$FILLMODE
 70
    1
  9
$QTEXTMODE
 70
    0
  9
$MIRRTEXT
 70
    0
  9
$LTSCALE
 40
1
  9
$ATTMODE
 70
    0
  9
$TEXTSIZE
 40
2.5
  9
$TRACEWID
 40
15.68
  9
$TEXTSTYLE
  7
STANDARD
  9
$CLAYER
  8
0
  9
$CELTYPE
  6
BYLAYER
  9
$CECOLOR
 62
  256
  9
$CELTSCALE
 40
1
  9
$DISPSILH
 70
    0
  9
$DIMSCALE
 40
2.5
  9
$DIMASZ
 40
2.5
  9
$DIMEXO
 40
0.625
  9
$DIMDLI
 40
3.75
  9
$DIMRND
 40
0
  9
$DIMDLE
 40
0
  9
$DIMEXE
 40
1.25
  9
$DIMTP
 40
0
  9
$DIMTM
 40
0
  9
$DIMTXT
 40
2.5
  9
$DIMCEN
 40
2.5
  9
$DIMTSZ
 40
0
  9
$DIMTOL
 70
    0
  9
$DIMLIM
 70
    0
  9
$DIMTIH
 70
    0
  9
$DIMTOH
 70
    0
  9
$DIMSE1
 70
    0
  9
$DIMSE2
 70
    0
  9
$DIMTAD
 70
    1
  9
$DIMZIN
 70
    8
  9
$DIMBLK
  1

  9
$DIMASO
 70
    1
  9
$DIMSHO
 70
    1
  9
$DIMPOST
  1

  9
$DIMAPOST
  1

  9
$DIMALT
 70
    0
  9
$DIMALTD
 70
    3
  9
$DIMALTF
 40
0.03937
  9
$DIMLFAC
 40
1
  9
$DIMTOFL
 70
    1
  9
$DIMTVP
 40
0
  9
$DIMTIX
 70
    0
  9
$DIMSOXD
 70
    0
  9
$DIMSAH
 70
    0
  9
$DIMBLK1
  1

  9
$DIMBLK2
  1

  9
$DIMSTYLE
  2
Standard
  9
$DIMCLRD
 70
    0
  9
$DIMCLRE
 70
    0
  9
$DIMCLRT
 70
    0
  9
$DIMTFAC
 40
1
  9
$DIMGAP
 40
0.625
  9
$DIMJUST
 70
    0
  9
$DIMSD1
 70
    0
  9
$DIMSD2
 70
    0
  9
$DIMTOLJ
 70
    0
  9
$DIMTZIN
 70
    8
  9
$DIMALTZ
 70
    0
  9
$DIMALTTZ
 70
    0
  9
$DIMUPT
 70
    0
  9
$DIMDEC
 70
    2
  9
$DIMTDEC
 70
    2
  9
$DIMALTU
 70
    2
  9
$DIMALTTD
 70
    3
  9
$DIMTXSTY
  7
STANDARD
  9
$DIMAUNIT
 70
    0
  9
$DIMADEC
 70
    0
  9
$DIMALTRND
 40
0
  9
$DIMAZIN
 70
    0
  9
$DIMDSEP
 70
   44
  9
$DIMATFIT
 70
    3
  9
$DIMFRAC
 70
    0
  9
$DIMLDRBLK
  1
STANDARD
  9
$DIMLUNIT
 70
    2
  9
$DIMLWD
 70
   -2
  9
$DIMLWE
 70
   -2
  9
$DIMTMOVE
 70
    0
  9
$DIMFXL
 40
1
  9
$DIMFXLON
 70
    0
  9
$DIMJOGANG
 40
0.7854
  9
$DIMTFILL
 70
    0
  9
$DIMTFILLCLR
 70
    0
  9
$DIMARCSYM
 70
    0
  9
$DIMLTYPE
  6

  9
$DIMLTEX1
  6

  9
$DIMLTEX2
  6

  9
$LUNITS
 70
    2
  9
$LUPREC
 70
    4
  9
$SKETCHINC
 40
1
  9
$FILLETRAD
 40
0
  9
$AUNITS
 70
    0
  9
$AUPREC
 70
    2
  9
$MENU
  1
.
  9
$ELEVATION
 40
0
  9
$PELEVATION
 40
0
  9
$THICKNESS
 40
0
  9
$LIMCHECK
 70
    0
  9
$CHAMFERA
 40
0
  9
$CHAMFERB
 40
0
  9
$CHAMFERC
 40
0
  9
$CHAMFERD
 40
0
  9
$SKPOLY
 70
    0
  9
$USRTIMER
 70
    1
  9
$ANGBASE
 50
0
  9
$ANGDIR
 70
    0
  9
$PDMODE
 70
   34
  9
$PDSIZE
 40
0
  9
$PLINEWID
 40
0
  9
$SPLFRAME
 70
    0
  9
$SPLINETYPE
 70
    2
  9
$SPLINESEGS
 70
    8
  9
$HANDSEED
  5
20000
  9
$SURFTAB1
 70
    6
  9
$SURFTAB2
 70
    6
  9
$SURFTYPE
 70
    6
  9
$SURFU
 70
    6
  9
$SURFV
 70
    6
  9
$UCSBASE
  2

  9
$UCSNAME
  2

  9
$UCSORG
 10
0
 20
0
 30
0
  9
$UCSXDIR
 10
1
 20
0
 30
0
  9
$UCSYDIR
 10
0
 20
1
 30
0
  9
$UCSORTHOREF
  2

  9
$UCSORTHOVIEW
 70
    0
  9
$UCSORGTOP
 10
0
 20
0
 30
0
  9
$UCSORGBOTTOM
 10
0
 20
0
 30
0
  9
$UCSORGLEFT
 10
0
 20
0
 30
0
  9
$UCSORGRIGHT
 10
0
 20
0
 30
0
  9
$UCSORGFRONT
 10
0
 20
0
 30
0
  9
$UCSORGBACK
 10
0
 20
0
 30
0
  9
$PUCSBASE
  2

  9
$PUCSNAME
  2

  9
$PUCSORG
 10
0
 20
0
 30
0
  9
$PUCSXDIR
 10
1
 20
0
 30
0
  9
$PUCSYDIR
 10
0
 20
1
 30
0
  9
$PUCSORTHOREF
  2

  9
$PUCSORTHOVIEW
 70
    0
  9
$PUCSORGTOP
 10
0
 20
0
 30
0
  9
$PUCSORGBOTTOM
 10
0
 20
0
 30
0
  9
$PUCSORGLEFT
 10
0
 20
0
 30
0
  9
$PUCSORGRIGHT
 10
0
 20
0
 30
0
  9
$PUCSORGFRONT
 10
0
 20
0
 30
0
  9
$PUCSORGBACK
 10
0
 20
0
 30
0
  9
$USERI1
 70
    0
  9
$USERI2
 70
    0
  9
$USERI3
 70
    0
  9
$USERI4
 70
    0
  9
$USERI5
 70
    0
  9
$USERR1
 40
0
  9
$USERR2
 40
0
  9
$USERR3
 40
0
  9
$USERR4
 40
0
  9
$USERR5
 40
0
  9
$WORLDVIEW
 70
    1
  9
$SHADEDGE
 70
    3
  9
$SHADEDIF
 70
   70
  9
$TILEMODE
 70
    1
  9
$MAXACTVP
 70
   64
  9
$PINSBASE
 10
0
 20
0
 30
0
  9
$PLIMCHECK
 70
    0
  9
$PEXTMIN
 10
0
 20
0
 30
0
  9
$PEXTMAX
 10
0
 20
0
 30
0
  9
$GRIDMODE
 70
    0
  9
$SNAPSTYLE
 70
    0
  9
$PLIMMIN
 10
0
 20
0
  9
$PLIMMAX
 10
297
 20
210
  9
$UNITMODE
 70
    0
  9
$VISRETAIN
 70
    1
  9
$PLINEGEN
 70
    0
  9
$PSLTSCALE
 70
    1
  9
$TREEDEPTH
 70
 3020
  9
$CMLSTYLE
  2
Standard
  9
$CMLJUST
 70
    0
  9
$CMLSCALE
 40
20
  9
$PROXYGRAPHICS
 70
    1
  9
$MEASUREMENT
 70
    1
  9
$CELWEIGHT
370
   -1
  9
$ENDCAPS
280
    0
  9
$JOINSTYLE
280
    0
  9
$LWDISPLAY
290
    0
  9
$INSUNITS
 70
    4
  9
$HYPERLINKBASE
  1

  9
$STYLESHEET
  1

  9
$XEDIT
290
    1
  9
$CEPSNTYPE
380
    0
  9
$PSTYLEMODE
290
    1
  9
$EXTNAMES
290
    1
  9
$PSVPSCALE
 40
1
  9
$OLESTARTUP
290
    0
  9
$SORTENTS
280
  127
  9
$INDEXCTL
280
    0
  9
$HIDETEXT
280
    1
  9
$XCLIPFRAME
290
    0
  9
$HALOGAP
280
    0
  9
$OBSCOLOR
 70
  257
  9
$OBSLTYPE
280
    0
  9
$INTERSECTIONDISPLAY
280
    0
  9
$INTERSECTIONCOLOR
 70
  257
  9
$DIMASSOC
280
    1
  9
$PROJECTNAME
  1

  9
$CAMERADISPLAY
290
    0
  9
$LENSLENGTH
 40
50
  9
$CAMERAHEIGHT
 40
0
  9
$STEPSPERSEC
 40
2
  9
$STEPSIZE
 40
50
  9
$3DDWFPREC
 40
2
  9
$PSOLWIDTH
 40
5
  9
$PSOLHEIGHT
 40
80
  9
$LOFTANG1
 40
1.570796326794897
  9
$LOFTANG2
 40
1.570796326794897
  9
$LOFTMAG1
 40
0
  9
$LOFTMAG2
 40
0
  9
$LOFTPARAM
 70
    7
  9
$LOFTNORMALS
280
    1
  9
$LATITUDE
 40
1
  9
$LONGITUDE
 40
1
  9
$NORTHDIRECTION
 40
0
  9
$TIMEZONE
 70
-8000
  9
$LIGHTGLYPHDISPLAY
280
    1
  9
$TILEMODELIGHTSYNCH
280
    1
  9
$SOLIDHIST
280
    1
  9
$SHOWHIST
280
    1
  9
$DWFFRAME
280
    2
  9
$DGNFRAME
280
    0
  9
$REALWORLDSCALE
290
    1
  9
$INTERFERECOLOR
 62
    1
  9
$CSHADOW
280
    0
  9
$SHADOWPLANELOCATION
 40
0
  0
ENDSEC
  0
SECTION
  2
CLASSES
  0
ENDSEC
  0
SECTION
  2
TABLES
  0
TABLE
  2
VPORT
  5
8
330
0
100
AcDbSymbolTable
 70
    1
  0
VPORT
  5
31
330
2
100
AcDbSymbolTableRecord
100
AcDbViewportTableRecord
  2
*ACTIVE
 70
    0
 10
0
 20
0
 11
1
 21
1
 12
231.5424333124465
 22
224.0942151779203
 13
0
 23
0
 14
10
 24
10
 15
10
 25
10
 16
0
 26
0
 36
1
 17
0
 27
0
 37
0
 40
523.9659539853685
 41
1.043263288009889
 42
50
 43
0
 44
0
 50
0
 51
0
 71
    0
 72
  100
 73
    1
 74
    3
 75
    0
 76
    0
 77
    0
 78
    0
281
    0
 65
    1
110
0
120
0
130
0
111
1
121
0
131
0
112
0
122
1
132
0
 79
    0
146
0
348
10020
 60
    7
 61
    5
292
1
282
    1
141
0
142
0
 63
  250
421
3358443
  0
ENDTAB
  0
TABLE
  2
LTYPE
  5
5
330
0
100
AcDbSymbolTable
 70
    4
  0
LTYPE
  5
14
330
5
100
AcDbSymbolTableRecord
100
AcDbLinetypeTableRecord
  2
ByBlock
 70
    0
  3

 72
   65
 73
    0
 40
0
  0
LTYPE
  5
15
330
5
100
AcDbSymbolTableRecord
100
AcDbLinetypeTableRecord
  2
ByLayer
 70
    0
  3

 72
   65
 73
    0
 40
0
  0
LTYPE
  5
16
330
5
100
AcDbSymbolTableRecord
100
AcDbLinetypeTableRecord
  2
Continuous
 70
    0
  3
Solid line
 72
   65
 73
    0
 40
0
  0
LTYPE
  5
32
330
5
100
AcDbSymbolTableRecord
100
AcDbLinetypeTableRecord
  2
DOT
 70
    0
  3
Dot . . . . . . . . . . . . . . . . . . . . . .
 72
   65
 73
    2
 40
6.35
 49
0
 74
    0
 49
-6.35
 74
    0
  0
LTYPE
  5
33
330
5
100
AcDbSymbolTableRecord
100
AcDbLinetypeTableRecord
  2
DOTTINY
 70
    0
  3
Dot (.15x) .....................................
 72
   65
 73
    2
 40
0.9525
 49
0
 74
    0
 49
-0.9525
 74
    0
  0
LTYPE
  5
34
330
5
100
AcDbSymbolTableRecord
100
AcDbLinetypeTableRecord
  2
DOT2
 70
    0
  3
Dot (.5x) .....................................
 72
   65
 73
    2
 40
3.175
 49
0
 74
    0
 49
-3.175
 74
    0
  0
LTYPE
  5
35
330
5
100
AcDbSymbolTableRecord
100
AcDbLinetypeTableRecord
  2
DOTX2
 70
    0
  3
Dot (2x) .  .  .  .  .  .  .  .  .  .  .  .  .
 72
   65
 73
    2
 40
12.7
 49
0
 74
    0
 49
-12.7
 74
    0
  0
LTYPE
  5
36
330
5
100
AcDbSymbolTableRecord
100
AcDbLinetypeTableRecord
  2
DASHED
 70
    0
  3
Dashed _ _ _ _ _ _ _ _ _ _ _ _ _ _ _ _ _
 72
   65
 73
    2
 40
19.05
 49
12.7
 74
    0
 49
-6.35
 74
    0
  0
LTYPE
  5
37
330
5
100
AcDbSymbolTableRecord
100
AcDbLinetypeTableRecord
  2
DASHEDTINY
 70
    0
  3
Dashed (.15x) _ _ _ _ _ _ _ _ _ _ _ _ _ _ _ _ _
 72
   65
 73
    2
 40
2.8575
 49
1.905
 74
    0
 49
-0.9525
 74
    0
  0
LTYPE
  5
38
330
5
100
AcDbSymbolTableRecord
100
AcDbLinetypeTableRecord
  2
DASHED2
 70
    0
  3
Dashed (.5x) _ _ _ _ _ _ _ _ _ _ _ _ _ _ _ _ _
 72
   65
 73
    2
 40
9.524999999999999
 49
6.35
 74
    0
 49
-3.175
 74
    0
  0
LTYPE
  5
39
330
5
100
AcDbSymbolTableRecord
100
AcDbLinetypeTableRecord
  2
DASHEDX2
 70
    0
  3
Dashed (2x) ____  ____  ____  ____  ____  ___
 72
   65
 73
    2
 40
38.09999999999999
 49
25.4
 74
    0
 49
-12.7
 74
    0
  0
LTYPE
  5
3A
330
5
100
AcDbSymbolTableRecord
100
AcDbLinetypeTableRecord
  2
DASHDOT
 70
    0
  3
Dash dot __ . __ . __ . __ . __ . __ . __ . __
 72
   65
 73
    4
 40
25.4
 49
12.7
 74
    0
 49
-6.35
 74
    0
 49
0
 74
    0
 49
-6.35
 74
    0
  0
LTYPE
  5
3B
330
5
100
AcDbSymbolTableRecord
100
AcDbLinetypeTableRecord
  2
DASHDOTTINY
 70
    0
  3
Dash dot (.15x) _._._._._._._._._._._._._._._.
 72
   65
 73
    4
 40
3.81
 49
1.905
 74
    0
 49
-0.9525
 74
    0
 49
0
 74
    0
 49
-0.9525
 74
    0
  0
LTYPE
  5
3C
330
5
100
AcDbSymbolTableRecord
100
AcDbLinetypeTableRecord
  2
DASHDOT2
 70
    0
  3
Dash dot (.5x) _._._._._._._._._._._._._._._.
 72
   65
 73
    4
 40
12.7
 49
6.35
 74
    0
 49
-3.175
 74
    0
 49
0
 74
    0
 49
-3.175
 74
    0
  0
LTYPE
  5
3D
330
5
100
AcDbSymbolTableRecord
100
AcDbLinetypeTableRecord
  2
DASHDOTX2
 70
    0
  3
Dash dot (2x) ____  .  ____  .  ____  .  ___
 72
   65
 73
    4
 40
50.8
 49
25.4
 74
    0
 49
-12.7
 74
    0
 49
0
 74
    0
 49
-12.7
 74
    0
  0
LTYPE
  5
3E
330
5
100
AcDbSymbolTableRecord
100
AcDbLinetypeTableRecord
  2
DIVIDE
 70
    0
  3
Divide ____ . . ____ . . ____ . . ____ . . ____
 72
   65
 73
    6
 40
31.75
 49
12.7
 74
    0
 49
-6.35
 74
    0
 49
0
 74
    0
 49
-6.35
 74
    0
 49
0
 74
    0
 49
-6.35
 74
    0
  0
LTYPE
  5
3F
330
5
100
AcDbSymbolTableRecord
100
AcDbLinetypeTableRecord
  2
DIVIDETINY
 70
    0
  3
Divide (.15x) __..__..__..__..__..__..__..__.._
 72
   65
 73
    6
 40
4.7625
 49
1.905
 74
    0
 49
-0.9525
 74
    0
 49
0
 74
    0
 49
-0.9525
 74
    0
 49
0
 74
    0
 49
-0.9525
 74
    0
  0
LTYPE
  5
40
330
5
100
AcDbSymbolTableRecord
100
AcDbLinetypeTableRecord
  2
DIVIDE2
 70
    0
  3
Divide (.5x) __..__..__..__..__..__..__..__.._
 72
   65
 73
    6
 40
15.875
 49
6.35
 74
    0
 49
-3.175
 74
    0
 49
0
 74
    0
 49
-3.175
 74
    0
 49
0
 74
    0
 49
-3.175
 74
    0
  0
LTYPE
  5
41
330
5
100
AcDbSymbolTableRecord
100
AcDbLinetypeTableRecord
  2
DIVIDEX2
 70
    0
  3
Divide (2x) ________  .  .  ________  .  .  _
 72
   65
 73
    6
 40
63.5
 49
25.4
 74
    0
 49
-12.7
 74
    0
 49
0
 74
    0
 49
-12.7
 74
    0
 49
0
 74
    0
 49
-12.7
 74
    0
  0
LTYPE
  5
42
330
5
100
AcDbSymbolTableRecord
100
AcDbLinetypeTableRecord
  2
BORDER
 70
    0
  3
Border __ __ . __ __ . __ __ . __ __ . __ __ .
 72
   65
 73
    6
 40
44.45
 49
12.7
 74
    0
 49
-6.35
 74
    0
 49
12.7
 74
    0
 49
-6.35
 74
    0
 49
0
 74
    0
 49
-6.35
 74
    0
  0
LTYPE
  5
43
330
5
100
AcDbSymbolTableRecord
100
AcDbLinetypeTableRecord
  2
BORDERTINY
 70
    0
  3
Border (.15x) __.__.__.__.__.__.__.__.__.__.__.
 72
   65
 73
    6
 40
6.6675
 49
1.905
 74
    0
 49
-0.9525
 74
    0
 49
1.905
 74
    0
 49
-0.9525
 74
    0
 49
0
 74
    0
 49
-0.9525
 74
    0
  0
LTYPE
  5
44
330
5
100
AcDbSymbolTableRecord
100
AcDbLinetypeTableRecord
  2
BORDER2
 70
    0
  3
Border (.5x) __.__.__.__.__.__.__.__.__.__.__.
 72
   65
 73
    6
 40
22.225
 49
6.35
 74
    0
 49
-3.175
 74
    0
 49
6.35
 74
    0
 49
-3.175
 74
    0
 49
0
 74
    0
 49
-3.175
 74
    0
  0
LTYPE
  5
45
330
5
100
AcDbSymbolTableRecord
100
AcDbLinetypeTableRecord
  2
BORDERX2
 70
    0
  3
Border (2x) ____  ____  .  ____  ____  .  ___
 72
   65
 73
    6
 40
88.89999999999999
 49
25.4
 74
    0
 49
-12.7
 74
    0
 49
25.4
 74
    0
 49
-12.7
 74
    0
 49
0
 74
    0
 49
-12.7
 74
    0
  0
LTYPE
  5
46
330
5
100
AcDbSymbolTableRecord
100
AcDbLinetypeTableRecord
  2
CENTER
 70
    0
  3
Center ____ _ ____ _ ____ _ ____ _ ____ _ ____
 72
   65
 73
    4
 40
50.8
 49
31.75
 74
    0
 49
-6.35
 74
    0
 49
6.35
 74
    0
 49
-6.35
 74
    0
  0
LTYPE
  5
47
330
5
100
AcDbSymbolTableRecord
100
AcDbLinetypeTableRecord
  2
CENTERTINY
 70
    0
  3
Center (.15x) ___ _ ___ _ ___ _ ___ _ ___ _ ___
 72
   65
 73
    4
 40
7.619999999999999
 49
4.7625
 74
    0
 49
-0.9525
 74
    0
 49
0.9525
 74
    0
 49
-0.9525
 74
    0
  0
LTYPE
  5
48
330
5
100
AcDbSymbolTableRecord
100
AcDbLinetypeTableRecord
  2
CENTER2
 70
    0
  3
Center (.5x) ___ _ ___ _ ___ _ ___ _ ___ _ ___
 72
   65
 73
    4
 40
28.575
 49
19.05
 74
    0
 49
-3.175
 74
    0
 49
3.175
 74
    0
 49
-3.175
 74
    0
  0
LTYPE
  5
49
330
5
100
AcDbSymbolTableRecord
100
AcDbLinetypeTableRecord
  2
CENTERX2
 70
    0
  3
Center (2x) ________  __  ________  __  _____
 72
   65
 73
    4
 40
101.6
 49
63.5
 74
    0
 49
-12.7
 74
    0
 49
12.7
 74
    0
 49
-12.7
 74
    0
  0
ENDTAB
  0
TABLE
  2
LAYER
  5
2
330
0
100
AcDbSymbolTable
 70
    1
  0
LAYER
  5
10
330
2
100
AcDbSymbolTableRecord
100
AcDbLayerTableRecord
  2
0
 70
    0
 62
    7
  6
CONTINUOUS
370
   -3
390
F
  0
LAYER
  5
4A
330
2
100
AcDbSymbolTableRecord
100
AcDbLayerTableRecord
  2
Layer1
 70
    0
 62
    7
  6
CONTINUOUS
370
   -3
390
F
  0
LAYER
  5
4B
330
2
100
AcDbSymbolTableRecord
100
AcDbLayerTableRecord
  2
Layer2
 70
    0
 62
    7
  6
CONTINUOUS
370
   -3
390
F
  0
LAYER
  5
4C
330
2
100
AcDbSymbolTableRecord
100
AcDbLayerTableRecord
  2
Layer3
 70
    0
 62
    7
  6
CONTINUOUS
370
   -3
390
F
  0
LAYER
  5
4D
330
2
100
AcDbSymbolTableRecord
100
AcDbLayerTableRecord
  2
Layer4
 70
    0
 62
    7
  6
CONTINUOUS
370
   -3
390
F
  0
ENDTAB
  0
TABLE
  2
STYLE
  5
3
330
0
100
AcDbSymbolTable
 70
    3
  0
STYLE
  5
4E
330
2
100
AcDbSymbolTableRecord
100
AcDbTextStyleTableRecord
  2
Standard
 70
    0
 40
0
 41
1
 50
0
 71
    0
 42
1
  3
txt
  4

  0
ENDTAB
  0
TABLE
  2
VIEW
  5
6
330
0
100
AcDbSymbolTable
 70
    0
  0
ENDTAB
  0
TABLE
  2
UCS
  5
7
330
0
100
AcDbSymbolTable
 70
    0
  0
ENDTAB
  0
TABLE
  2
APPID
  5
9
330
0
100
AcDbSymbolTable
 70
    1
  0
APPID
  5
12
330
9
100
AcDbSymbolTableRecord
100
AcDbRegAppTableRecord
  2
ACAD
 70
    0
  0
APPID
  5
4F
330
9
100
AcDbSymbolTableRecord
100
AcDbRegAppTableRecord
  2
LibreCad
 70
    0
  0
ENDTAB
  0
TABLE
  2
DIMSTYLE
  5
A
330
0
100
AcDbSymbolTable
 70
    1
100
AcDbDimStyleTable
 71
    1
  0
DIMSTYLE
105
50
330
A
100
AcDbSymbolTableRecord
100
AcDbDimStyleTableRecord
  2
Standard
 70
    0
 40
1
 41
2.5
 42
0.625
 43
0.38
 44
1.25
 45
0
 46
0
 47
0
 48
0
 49
1
140
2.5
141
0.09
142
2.5
143
25.4
144
1
145
0
146
1
147
0.625
148
0
 71
    0
 72
    0
 73
    0
 74
    1
 75
    0
 76
    0
 77
    0
 78
    1
 79
    0
170
    0
171
    2
172
    0
173
    0
174
    0
175
    0
176
    0
177
    0
178
    0
179
    0
271
    2
272
    4
273
    2
274
    2
275
    0
276
    0
277
    2
278
    0
279
    0
280
    0
281
    0
282
    0
283
    1
284
    0
285
    0
286
    0
288
    0
289
    3
340
standard
341

371
   -2
372
   -2
  0
ENDTAB
  0
TABLE
  2
BLOCK_RECORD
  5
1
330
0
100
AcDbSymbolTable
 70
    2
  0
BLOCK_RECORD
  5
1F
330
1
100
AcDbSymbolTableRecord
100
AcDbBlockTableRecord
  2
*Model_Space
 70
    0
280
    1
281
    0
  0
BLOCK_RECORD
  5
1E
330
1
100
AcDbSymbolTableRecord
100
AcDbBlockTableRecord
  2
*Paper_Space
 70
    0
280
    1
281
    0
  0
ENDTAB
  0
ENDSEC
  0
SECTION
  2
BLOCKS
  0
BLOCK
  5
20
330
1F
100
AcDbEntity
  8
0
100
AcDbBlockBegin
  2
*Model_Space
 70
    0
 10
0
 20
0
 30
0
  3
*Model_Space
  1

  0
ENDBLK
  5
21
330
1F
100
AcDbEntity
  8
0
100
AcDbBlockEnd
  0
BLOCK
  5
1C
330
1B
100
AcDbEntity
  8
0
100
AcDbBlockBegin
  2
*Paper_Space
 70
    0
 10
0
 20
0
 30
0
  3
*Paper_Space
  1

  0
ENDBLK
  5
1D
330
1F
100
AcDbEntity
  8
0
100
AcDbBlockEnd
  0
ENDSEC
  0
SECTION
  2
ENTITIES
  0
SPLINE
  5
51
100
AcDbEntity
  8
Layer4
  6
ByLayer
 62
    7
370
   -1
100
AcDbSpline
210
0
220
0
230
0
 70
    8
 71
    3
 72
    8
 73
    4
 74
    0
 42
1e-07
 43
1e-07
 40
0
 40
0
 40
0
 40
0
 40
1
 40
1
 40
1
 40
1
 10
13.820109
 20
135.355613
 30
0
 10
13.820109
 20
135.968145
 30
0
 10
13.493327
 20
136.534148
 30
0
 10
12.962859
 20
136.840414
 30
0
  0
SPLINE
  5
52
100
AcDbEntity
  8
Layer4
  6
ByLayer
 62
    7
370
   -1
100
AcDbSpline
210
0
220
0
230
0
 70
    8
 71
    3
 72
    8
 73
    4
 74
    0
 42
1e-07
 43
1e-07
 40
0
 40
0
 40
0
 40
0
 40
1
 40
1
 40
1
 40
1
 10
12.962859
 20
136.840414
 30
0
 10
12.432391
 20
137.14668
 30
0
 10
11.778827
 20
137.14668
 30
0
 10
11.248359
 20
136.840414
 30
0
  0
SPLINE
  5
53
100
AcDbEntity
  8
Layer4
  6
ByLayer
 62
    7
370
   -1
100
AcDbSpline
210
0
220
0
230
0
 70
    8
 71
    3
 72
    8
 73
    4
 74
    0
 42
1e-07
 43
1e-07
 40
0
 40
0
 40
0
 40
0
 40
1
 40
1
 40
1
 40
1
 10
11.248359
 20
136.840414
 30
0
 10
10.717891
 20
136.534148
 30
0
 10
10.391109
 20
135.968145
 30
0
 10
10.391109
 20
135.355613
 30
0
  0
SPLINE
  5
54
100
AcDbEntity
  8
Layer4
  6
ByLayer
 62
    7
370
   -1
100
AcDbSpline
210
0
220
0
230
0
 70
    8
 71
    3
 72
    8
 73
    4
 74
    0
 42
1e-07
 43
1e-07
 40
0
 40
0
 40
0
 40
0
 40
1
 40
1
 40
1
 40
1
 10
10.391109
 20
135.355613
 30
0
 10
10.391109
 20
134.743082
 30
0
 10
10.717891
 20
134.177079
 30
0
 10
11.248359
 20
133.870813
 30
0
  0
SPLINE
  5
55
100
AcDbEntity
  8
Layer4
  6
ByLayer
 62
    7
370
   -1
100
AcDbSpline
210
0
220
0
230
0
 70
    8
 71
    3
 72
    8
 73
    4
 74
    0
 42
1e-07
 43
1e-07
 40
0
 40
0
 40
0
 40
0
 40
1
 40
1
 40
1
 40
1
 10
11.248359
 20
133.870813
 30
0
 10
11.778827
 20
133.564547
 30
0
 10
12.432391
 20
133.564547
 30
0
 10
12.962859
 20
133.870813
 30
0
  0
SPLINE
  5
56
100
AcDbEntity
  8
Layer4
  6
ByLayer
 62
    7
370
   -1
100
AcDbSpline
210
0
220
0
230
0
 70
    8
 71
    3
 72
    8
 73
    4
 74
    0
 42
1e-07
 43
1e-07
 40
0
 40
0
 40
0
 40
0
 40
1
 40
1
 40
1
 40
1
 10
12.962859
 20
133.870813
 30
0
 10
13.493327
 20
134.177079
 30
0
 10
13.820109
 20
134.743082
 30
0
 10
13.820109
 20
135.355613
 30
0
  0
SPLINE
  5
57
100
AcDbEntity
  8
Layer4
  6
ByLayer
 62
    7
370
   -1
100
AcDbSpline
210
0
220
0
230
0
 70
    8
 71
    3
 72
    8
 73
    4
 74
    0
 42
1e-07
 43
1e-07
 40
0
 40
0
 40
0
 40
0
 40
1
 40
1
 40
1
 40
1
 10
239.891114
 20
135.355613
 30
0
 10
239.891114
 20
135.968145
 30
0
 10
239.564332
 20
136.534148
 30
0
 10
239.033864
 20
136.840414
 30
0
  0
SPLINE
  5
58
100
AcDbEntity
  8
Layer4
  6
ByLayer
 62
    7
370
   -1
100
AcDbSpline
210
0
220
0
230
0
 70
    8
 71
    3
 72
    8
 73
    4
 74
    0
 42
1e-07
 43
1e-07
 40
0
 40
0
 40
0
 40
0
 40
1
 40
1
 40
1
 40
1
 10
239.033864
 20
136.840414
 30
0
 10
238.503396
 20
137.14668
 30
0
 10
237.849832
 20
137.14668
 30
0
 10
237.319364
 20
136.840414
 30
0
  0
SPLINE
  5
59
100
AcDbEntity
  8
Layer4
  6
ByLayer
 62
    7
370
   -1
100
AcDbSpline
210
0
220
0
230
0
 70
    8
 71
    3
 72
    8
 73
    4
 74
    0
 42
1e-07
 43
1e-07
 40
0
 40
0
 40
0
 40
0
 40
1
 40
1
 40
1
 40
1
 10
237.319364
 20
136.840414
 30
0
 10
236.788896
 20
136.534148
 30
0
 10
236.462114
 20
135.968145
 30
0
 10
236.462114
 20
135.355613
 30
0
  0
SPLINE
  5
5A
100
AcDbEntity
  8
Layer4
  6
ByLayer
 62
    7
370
   -1
100
AcDbSpline
210
0
220
0
230
0
 70
    8
 71
    3
 72
    8
 73
    4
 74
    0
 42
1e-07
 43
1e-07
 40
0
 40
0
 40
0
 40
0
 40
1
 40
1
 40
1
 40
1
 10
236.462114
 20
135.355613
 30
0
 10
236.462114
 20
134.743082
 30
0
 10
236.788896
 20
134.177079
 30
0
 10
237.319364
 20
133.870813
 30
0
  0
SPLINE
  5
5B
100
AcDbEntity
  8
Layer4
  6
ByLayer
 62
    7
370
   -1
100
AcDbSpline
210
0
220
0
230
0
 70
    8
 71
    3
 72
    8
 73
    4
 74
    0
 42
1e-07
 43
1e-07
 40
0
 40
0
 40
0
 40
0
 40
1
 40
1
 40
1
 40
1
 10
237.319364
 20
133.870813
 30
0
 10
237.849832
 20
133.564547
 30
0
 10
238.503396
 20
133.564547
 30
0
 10
239.033864
 20
133.870813
 30
0
  0
SPLINE
  5
5C
100
AcDbEntity
  8
Layer4
  6
ByLayer
 62
    7
370
   -1
100
AcDbSpline
210
0
220
0
230
0
 70
    8
 71
    3
 72
    8
 73
    4
 74
    0
 42
1e-07
 43
1e-07
 40
0
 40
0
 40
0
 40
0
 40
1
 40
1
 40
1
 40
1
 10
239.033864
 20
133.870813
 30
0
 10
239.564332
 20
134.177079
 30
0
 10
239.891114
 20
134.743082
 30
0
 10
239.891114
 20
135.355613
 30
0
  0
LWPOLYLINE
  5
5D
100
AcDbEntity
  8
Layer4
  6
ByLayer
 62
    7
370
   -1
100
AcDbPolyline
 90
    1
 70
    1
 43
0
 10
13.820109
 20
135.355613
  0
SPLINE
  5
5E
100
AcDbEntity
  8
Layer4
  6
ByLayer
 62
    7
370
   -1
100
AcDbSpline
210
0
220
0
230
0
 70
    8
 71
    3
 72
    8
 73
    4
 74
    0
 42
1e-07
 43
1e-07
 40
0
 40
0
 40
0
 40
0
 40
1
 40
1
 40
1
 40
1
 10
13.820109
 20
54.926617
 30
0
 10
13.820109
 20
55.539148
 30
0
 10
13.493327
 20
56.105151
 30
0
 10
12.962859
 20
56.411417
 30
0
  0
SPLINE
  5
5F
100
AcDbEntity
  8
Layer4
  6
ByLayer
 62
    7
370
   -1
100
AcDbSpline
210
0
220
0
230
0
 70
    8
 71
    3
 72
    8
 73
    4
 74
    0
 42
1e-07
 43
1e-07
 40
0
 40
0
 40
0
 40
0
 40
1
 40
1
 40
1
 40
1
 10
12.962859
 20
56.411417
 30
0
 10
12.432391
 20
56.717683
 30
0
 10
11.778827
 20
56.717683
 30
0
 10
11.248359
 20
56.411417
 30
0
  0
SPLINE
  5
60
100
AcDbEntity
  8
Layer4
  6
ByLayer
 62
    7
370
   -1
100
AcDbSpline
210
0
220
0
230
0
 70
    8
 71
    3
 72
    8
 73
    4
 74
    0
 42
1e-07
 43
1e-07
 40
0
 40
0
 40
0
 40
0
 40
1
 40
1
 40
1
 40
1
 10
11.248359
 20
56.411417
 30
0
 10
10.717891
 20
56.105151
 30
0
 10
10.391109
 20
55.539148
 30
0
 10
10.391109
 20
54.926617
 30
0
  0
SPLINE
  5
61
100
AcDbEntity
  8
Layer4
  6
ByLayer
 62
    7
370
   -1
100
AcDbSpline
210
0
220
0
230
0
 70
    8
 71
    3
 72
    8
 73
    4
 74
    0
 42
1e-07
 43
1e-07
 40
0
 40
0
 40
0
 40
0
 40
1
 40
1
 40
1
 40
1
 10
10.391109
 20
54.926617
 30
0
 10
10.391109
 20
54.314085
 30
0
 10
10.717891
 20
53.748082
 30
0
 10
11.248359
 20
53.441816
 30
0
  0
SPLINE
  5
62
100
AcDbEntity
  8
Layer4
  6
ByLayer
 62
    7
370
   -1
100
AcDbSpline
210
0
220
0
230
0
 70
    8
 71
    3
 72
    8
 73
    4
 74
    0
 42
1e-07
 43
1e-07
 40
0
 40
0
 40
0
 40
0
 40
1
 40
1
 40
1
 40
1
 10
11.248359
 20
53.441816
 30
0
 10
11.778827
 20
53.13555
 30
0
 10
12.432391
 20
53.13555
 30
0
 10
12.962859
 20
53.441816
 30
0
  0
SPLINE
  5
63
100
AcDbEntity
  8
Layer4
  6
ByLayer
 62
    7
370
   -1
100
AcDbSpline
210
0
220
0
230
0
 70
    8
 71
    3
 72
    8
 73
    4
 74
    0
 42
1e-07
 43
1e-07
 40
0
 40
0
 40
0
 40
0
 40
1
 40
1
 40
1
 40
1
 10
12.962859
 20
53.441816
 30
0
 10
13.493327
 20
53.748082
 30
0
 10
13.820109
 20
54.314085
 30
0
 10
13.820109
 20
54.926617
 30
0
  0
LWPOLYLINE
  5
64
100
AcDbEntity
  8
Layer4
  6
ByLayer
 62
    7
370
   -1
100
AcDbPolyline
 90
    1
 70
    1
 43
0
 10
239.891114
 20
135.355613
  0
SPLINE
  5
65
100
AcDbEntity
  8
Layer4
  6
ByLayer
 62
    7
370
   -1
100
AcDbSpline
210
0
220
0
230
0
 70
    8
 71
    3
 72
    8
 73
    4
 74
    0
 42
1e-07
 43
1e-07
 40
0
 40
0
 40
0
 40
0
 40
1
 40
1
 40
1
 40
1
 10
239.891114
 20
54.926617
 30
0
 10
239.891114
 20
55.539148
 30
0
 10
239.564332
 20
56.105151
 30
0
 10
239.033864
 20
56.411417
 30
0
  0
SPLINE
  5
66
100
AcDbEntity
  8
Layer4
  6
ByLayer
 62
    7
370
   -1
100
AcDbSpline
210
0
220
0
230
0
 70
    8
 71
    3
 72
    8
 73
    4
 74
    0
 42
1e-07
 43
1e-07
 40
0
 40
0
 40
0
 40
0
 40
1
 40
1
 40
1
 40
1
 10
239.033864
 20
56.411417
 30
0
 10
238.503396
 20
56.717683
 30
0
 10
237.849832
 20
56.717683
 30
0
 10
237.319364
 20
56.411417
 30
0
  0
SPLINE
  5
67
100
AcDbEntity
  8
Layer4
  6
ByLayer
 62
    7
370
   -1
100
AcDbSpline
210
0
220
0
230
0
 70
    8
 71
    3
 72
    8
 73
    4
 74
    0
 42
1e-07
 43
1e-07
 40
0
 40
0
 40
0
 40
0
 40
1
 40
1
 40
1
 40
1
 10
237.319364
 20
56.411417
 30
0
 10
236.788896
 20
56.105151
 30
0
 10
236.462114
 20
55.539148
 30
0
 10
236.462114
 20
54.926617
 30
0
  0
SPLINE
  5
68
100
AcDbEntity
  8
Layer4
  6
ByLayer
 62
    7
370
   -1
100
AcDbSpline
210
0
220
0
230
0
 70
    8
 71
    3
 72
    8
 73
    4
 74
    0
 42
1e-07
 43
1e-07
 40
0
 40
0
 40
0
 40
0
 40
1
 40
1
 40
1
 40
1
 10
236.462114
 20
54.926617
 30
0
 10
236.462114
 20
54.314085
 30
0
 10
236.788896
 20
53.748082
 30
0
 10
237.319364
 20
53.441816
 30
0
  0
SPLINE
  5
69
100
AcDbEntity
  8
Layer4
  6
ByLayer
 62
    7
370
   -1
100
AcDbSpline
210
0
220
0
230
0
 70
    8
 71
    3
 72
    8
 73
    4
 74
    0
 42
1e-07
 43
1e-07
 40
0
 40
0
 40
0
 40
0
 40
1
 40
1
 40
1
 40
1
 10
237.319364
 20
53.441816
 30
0
 10
237.849832
 20
53.13555
 30
0
 10
238.503396
 20
53.13555
 30
0
 10
239.033864
 20
53.441816
 30
0
  0
SPLINE
  5
6A
100
AcDbEntity
  8
Layer4
  6
ByLayer
 62
    7
370
   -1
100
AcDbSpline
210
0
220
0
230
0
 70
    8
 71
    3
 72
    8
 73
    4
 74
    0
 42
1e-07
 43
1e-07
 40
0
 40
0
 40
0
 40
0
 40
1
 40
1
 40
1
 40
1
 10
239.033864
 20
53.441816
 30
0
 10
239.564332
 20
53.748082
 30
0
 10
239.891114
 20
54.314085
 30
0
 10
239.891114
 20
54.926617
 30
0
  0
LWPOLYLINE
  5
6B
100
AcDbEntity
  8
Layer4
  6
ByLayer
 62
    7
370
   -1
100
AcDbPolyline
 90
    1
 70
    1
 43
0
 10
13.820109
 20
54.926617
  0
SPLINE
  5
6C
100
AcDbEntity
  8
Layer4
  6
ByLayer
 62
    7
370
   -1
100
AcDbSpline
210
0
220
0
230
0
 70
    8
 71
    3
 72
    8
 73
    4
 74
    0
 42
1e-07
 43
1e-07
 40
0
 40
0
 40
0
 40
0
 40
1
 40
1
 40
1
 40
1
 10
39.570122
 20
95.105588
 30
0
 10
39.570122
 20
95.71812
 30
0
 10
39.24334
 20
96.28412299999999
 30
0
 10
38.712872
 20
96.590389
 30
0
  0
SPLINE
  5
6D
100
AcDbEntity
  8
Layer4
  6
ByLayer
 62
    7
370
   -1
100
AcDbSpline
210
0
220
0
230
0
 70
    8
 71
    3
 72
    8
 73
    4
 74
    0
 42
1e-07
 43
1e-07
 40
0
 40
0
 40
0
 40
0
 40
1
 40
1
 40
1
 40
1
 10
38.712872
 20
96.590389
 30
0
 10
38.182404
 20
96.896655
 30
0
 10
37.52884
 20
96.896655
 30
0
 10
36.998372
 20
96.590389
 30
0
  0
SPLINE
  5
6E
100
AcDbEntity
  8
Layer4
  6
ByLayer
 62
    7
370
   -1
100
AcDbSpline
210
0
220
0
230
0
 70
    8
 71
    3
 72
    8
 73
    4
 74
    0
 42
1e-07
 43
1e-07
 40
0
 40
0
 40
0
 40
0
 40
1
 40
1
 40
1
 40
1
 10
36.998372
 20
96.590389
 30
0
 10
36.467904
 20
96.28412299999999
 30
0
 10
36.141122
 20
95.71812
 30
0
 10
36.141122
 20
95.105588
 30
0
  0
SPLINE
  5
6F
100
AcDbEntity
  8
Layer4
  6
ByLayer
 62
    7
370
   -1
100
AcDbSpline
210
0
220
0
230
0
 70
    8
 71
    3
 72
    8
 73
    4
 74
    0
 42
1e-07
 43
1e-07
 40
0
 40
0
 40
0
 40
0
 40
1
 40
1
 40
1
 40
1
 10
36.141122
 20
95.105588
 30
0
 10
36.141122
 20
94.493056
 30
0
 10
36.467904
 20
93.927053
 30
0
 10
36.998372
 20
93.62078700000001
 30
0
  0
SPLINE
  5
70
100
AcDbEntity
  8
Layer4
  6
ByLayer
 62
    7
370
   -1
100
AcDbSpline
210
0
220
0
230
0
 70
    8
 71
    3
 72
    8
 73
    4
 74
    0
 42
1e-07
 43
1e-07
 40
0
 40
0
 40
0
 40
0
 40
1
 40
1
 40
1
 40
1
 10
36.998372
 20
93.62078700000001
 30
0
 10
37.52884
 20
93.314522
 30
0
 10
38.182404
 20
93.314522
 30
0
 10
38.712872
 20
93.62078700000001
 30
0
  0
SPLINE
  5
71
100
AcDbEntity
  8
Layer4
  6
ByLayer
 62
    7
370
   -1
100
AcDbSpline
210
0
220
0
230
0
 70
    8
 71
    3
 72
    8
 73
    4
 74
    0
 42
1e-07
 43
1e-07
 40
0
 40
0
 40
0
 40
0
 40
1
 40
1
 40
1
 40
1
 10
38.712872
 20
93.62078700000001
 30
0
 10
39.24334
 20
93.927053
 30
0
 10
39.570122
 20
94.493056
 30
0
 10
39.570122
 20
95.105588
 30
0
  0
LWPOLYLINE
  5
72
100
AcDbEntity
  8
Layer4
  6
ByLayer
 62
    7
370
   -1
100
AcDbPolyline
 90
    1
 70
    1
 43
0
 10
239.891114
 20
54.926617
  0
SPLINE
  5
73
100
AcDbEntity
  8
Layer4
  6
ByLayer
 62
    7
370
   -1
100
AcDbSpline
210
0
220
0
230
0
 70
    8
 71
    3
 72
    8
 73
    4
 74
    0
 42
1e-07
 43
1e-07
 40
0
 40
0
 40
0
 40
0
 40
1
 40
1
 40
1
 40
1
 10
55.570122
 20
146.855588
 30
0
 10
55.570122
 20
147.46812
 30
0
 10
55.24334
 20
148.034122
 30
0
 10
54.712872
 20
148.340388
 30
0
  0
SPLINE
  5
74
100
AcDbEntity
  8
Layer4
  6
ByLayer
 62
    7
370
   -1
100
AcDbSpline
210
0
220
0
230
0
 70
    8
 71
    3
 72
    8
 73
    4
 74
    0
 42
1e-07
 43
1e-07
 40
0
 40
0
 40
0
 40
0
 40
1
 40
1
 40
1
 40
1
 10
54.712872
 20
148.340388
 30
0
 10
54.182403
 20
148.646654
 30
0
 10
53.52884
 20
148.646654
 30
0
 10
52.998372
 20
148.340388
 30
0
  0
SPLINE
  5
75
100
AcDbEntity
  8
Layer4
  6
ByLayer
 62
    7
370
   -1
100
AcDbSpline
210
0
220
0
230
0
 70
    8
 71
    3
 72
    8
 73
    4
 74
    0
 42
1e-07
 43
1e-07
 40
0
 40
0
 40
0
 40
0
 40
1
 40
1
 40
1
 40
1
 10
52.998372
 20
148.340388
 30
0
 10
52.467903
 20
148.034122
 30
0
 10
52.141122
 20
147.46812
 30
0
 10
52.141122
 20
146.855588
 30
0
  0
SPLINE
  5
76
100
AcDbEntity
  8
Layer4
  6
ByLayer
 62
    7
370
   -1
100
AcDbSpline
210
0
220
0
230
0
 70
    8
 71
    3
 72
    8
 73
    4
 74
    0
 42
1e-07
 43
1e-07
 40
0
 40
0
 40
0
 40
0
 40
1
 40
1
 40
1
 40
1
 10
52.141122
 20
146.855588
 30
0
 10
52.141122
 20
146.243056
 30
0
 10
52.467903
 20
145.677053
 30
0
 10
52.998372
 20
145.370787
 30
0
  0
SPLINE
  5
77
100
AcDbEntity
  8
Layer4
  6
ByLayer
 62
    7
370
   -1
100
AcDbSpline
210
0
220
0
230
0
 70
    8
 71
    3
 72
    8
 73
    4
 74
    0
 42
1e-07
 43
1e-07
 40
0
 40
0
 40
0
 40
0
 40
1
 40
1
 40
1
 40
1
 10
52.998372
 20
145.370787
 30
0
 10
53.52884
 20
145.064521
 30
0
 10
54.182403
 20
145.064521
 30
0
 10
54.712872
 20
145.370787
 30
0
  0
SPLINE
  5
78
100
AcDbEntity
  8
Layer4
  6
ByLayer
 62
    7
370
   -1
100
AcDbSpline
210
0
220
0
230
0
 70
    8
 71
    3
 72
    8
 73
    4
 74
    0
 42
1e-07
 43
1e-07
 40
0
 40
0
 40
0
 40
0
 40
1
 40
1
 40
1
 40
1
 10
54.712872
 20
145.370787
 30
0
 10
55.24334
 20
145.677053
 30
0
 10
55.570122
 20
146.243056
 30
0
 10
55.570122
 20
146.855588
 30
0
  0
LWPOLYLINE
  5
79
100
AcDbEntity
  8
Layer4
  6
ByLayer
 62
    7
370
   -1
100
AcDbPolyline
 90
    1
 70
    1
 43
0
 10
39.570122
 20
95.105588
  0
SPLINE
  5
7A
100
AcDbEntity
  8
Layer4
  6
ByLayer
 62
    7
370
   -1
100
AcDbSpline
210
0
220
0
230
0
 70
    8
 71
    3
 72
    8
 73
    4
 74
    0
 42
1e-07
 43
1e-07
 40
0
 40
0
 40
0
 40
0
 40
1
 40
1
 40
1
 40
1
 10
55.570122
 20
133.355591
 30
0
 10
55.570122
 20
133.968123
 30
0
 10
55.24334
 20
134.534126
 30
0
 10
54.712872
 20
134.840391
 30
0
  0
SPLINE
  5
7B
100
AcDbEntity
  8
Layer4
  6
ByLayer
 62
    7
370
   -1
100
AcDbSpline
210
0
220
0
230
0
 70
    8
 71
    3
 72
    8
 73
    4
 74
    0
 42
1e-07
 43
1e-07
 40
0
 40
0
 40
0
 40
0
 40
1
 40
1
 40
1
 40
1
 10
54.712872
 20
134.840391
 30
0
 10
54.182403
 20
135.146657
 30
0
 10
53.52884
 20
135.146657
 30
0
 10
52.998372
 20
134.840391
 30
0
  0
SPLINE
  5
7C
100
AcDbEntity
  8
Layer4
  6
ByLayer
 62
    7
370
   -1
100
AcDbSpline
210
0
220
0
230
0
 70
    8
 71
    3
 72
    8
 73
    4
 74
    0
 42
1e-07
 43
1e-07
 40
0
 40
0
 40
0
 40
0
 40
1
 40
1
 40
1
 40
1
 10
52.998372
 20
134.840391
 30
0
 10
52.467903
 20
134.534126
 30
0
 10
52.141122
 20
133.968123
 30
0
 10
52.141122
 20
133.355591
 30
0
  0
SPLINE
  5
7D
100
AcDbEntity
  8
Layer4
  6
ByLayer
 62
    7
370
   -1
100
AcDbSpline
210
0
220
0
230
0
 70
    8
 71
    3
 72
    8
 73
    4
 74
    0
 42
1e-07
 43
1e-07
 40
0
 40
0
 40
0
 40
0
 40
1
 40
1
 40
1
 40
1
 10
52.141122
 20
133.355591
 30
0
 10
52.141122
 20
132.743059
 30
0
 10
52.467903
 20
132.177056
 30
0
 10
52.998372
 20
131.87079
 30
0
  0
SPLINE
  5
7E
100
AcDbEntity
  8
Layer4
  6
ByLayer
 62
    7
370
   -1
100
AcDbSpline
210
0
220
0
230
0
 70
    8
 71
    3
 72
    8
 73
    4
 74
    0
 42
1e-07
 43
1e-07
 40
0
 40
0
 40
0
 40
0
 40
1
 40
1
 40
1
 40
1
 10
52.998372
 20
131.87079
 30
0
 10
53.52884
 20
131.564524
 30
0
 10
54.182403
 20
131.564524
 30
0
 10
54.712872
 20
131.87079
 30
0
  0
SPLINE
  5
7F
100
AcDbEntity
  8
Layer4
  6
ByLayer
 62
    7
370
   -1
100
AcDbSpline
210
0
220
0
230
0
 70
    8
 71
    3
 72
    8
 73
    4
 74
    0
 42
1e-07
 43
1e-07
 40
0
 40
0
 40
0
 40
0
 40
1
 40
1
 40
1
 40
1
 10
54.712872
 20
131.87079
 30
0
 10
55.24334
 20
132.177056
 30
0
 10
55.570122
 20
132.743059
 30
0
 10
55.570122
 20
133.355591
 30
0
  0
LWPOLYLINE
  5
80
100
AcDbEntity
  8
Layer4
  6
ByLayer
 62
    7
370
   -1
100
AcDbPolyline
 90
    1
 70
    1
 43
0
 10
55.570122
 20
146.855588
  0
SPLINE
  5
81
100
AcDbEntity
  8
Layer4
  6
ByLayer
 62
    7
370
   -1
100
AcDbSpline
210
0
220
0
230
0
 70
    8
 71
    3
 72
    8
 73
    4
 74
    0
 42
1e-07
 43
1e-07
 40
0
 40
0
 40
0
 40
0
 40
1
 40
1
 40
1
 40
1
 10
23.570119
 20
101.855588
 30
0
 10
23.570757
 20
102.468544
 30
0
 10
23.244114
 20
103.035211
 30
0
 10
22.713385
 20
103.341873
 30
0
  0
SPLINE
  5
82
100
AcDbEntity
  8
Layer4
  6
ByLayer
 62
    7
370
   -1
100
AcDbSpline
210
0
220
0
230
0
 70
    8
 71
    3
 72
    8
 73
    4
 74
    0
 42
1e-07
 43
1e-07
 40
0
 40
0
 40
0
 40
0
 40
1
 40
1
 40
1
 40
1
 10
22.713385
 20
103.341873
 30
0
 10
22.182655
 20
103.648535
 30
0
 10
21.528586
 20
103.648535
 30
0
 10
20.997856
 20
103.341873
 30
0
  0
SPLINE
  5
83
100
AcDbEntity
  8
Layer4
  6
ByLayer
 62
    7
370
   -1
100
AcDbSpline
210
0
220
0
230
0
 70
    8
 71
    3
 72
    8
 73
    4
 74
    0
 42
1e-07
 43
1e-07
 40
0
 40
0
 40
0
 40
0
 40
1
 40
1
 40
1
 40
1
 10
20.997856
 20
103.341873
 30
0
 10
20.467126
 20
103.035211
 30
0
 10
20.140484
 20
102.468544
 30
0
 10
20.141121
 20
101.855588
 30
0
  0
SPLINE
  5
84
100
AcDbEntity
  8
Layer4
  6
ByLayer
 62
    7
370
   -1
100
AcDbSpline
210
0
220
0
230
0
 70
    8
 71
    3
 72
    8
 73
    4
 74
    0
 42
1e-07
 43
1e-07
 40
0
 40
0
 40
0
 40
0
 40
1
 40
1
 40
1
 40
1
 10
20.141121
 20
101.855588
 30
0
 10
20.140484
 20
101.242632
 30
0
 10
20.467126
 20
100.675964
 30
0
 10
20.997856
 20
100.369302
 30
0
  0
SPLINE
  5
85
100
AcDbEntity
  8
Layer4
  6
ByLayer
 62
    7
370
   -1
100
AcDbSpline
210
0
220
0
230
0
 70
    8
 71
    3
 72
    8
 73
    4
 74
    0
 42
1e-07
 43
1e-07
 40
0
 40
0
 40
0
 40
0
 40
1
 40
1
 40
1
 40
1
 10
20.997856
 20
100.369302
 30
0
 10
21.528586
 20
100.06264
 30
0
 10
22.182655
 20
100.06264
 30
0
 10
22.713385
 20
100.369302
 30
0
  0
SPLINE
  5
86
100
AcDbEntity
  8
Layer4
  6
ByLayer
 62
    7
370
   -1
100
AcDbSpline
210
0
220
0
230
0
 70
    8
 71
    3
 72
    8
 73
    4
 74
    0
 42
1e-07
 43
1e-07
 40
0
 40
0
 40
0
 40
0
 40
1
 40
1
 40
1
 40
1
 10
22.713385
 20
100.369302
 30
0
 10
23.244114
 20
100.675964
 30
0
 10
23.570757
 20
101.242632
 30
0
 10
23.570119
 20
101.855588
 30
0
  0
LWPOLYLINE
  5
87
100
AcDbEntity
  8
Layer4
  6
ByLayer
 62
    7
370
   -1
100
AcDbPolyline
 90
    1
 70
    1
 43
0
 10
55.570122
 20
133.355591
  0
SPLINE
  5
88
100
AcDbEntity
  8
Layer4
  6
ByLayer
 62
    7
370
   -1
100
AcDbSpline
210
0
220
0
230
0
 70
    8
 71
    3
 72
    8
 73
    4
 74
    0
 42
1e-07
 43
1e-07
 40
0
 40
0
 40
0
 40
0
 40
1
 40
1
 40
1
 40
1
 10
23.570119
 20
88.355591
 30
0
 10
23.570757
 20
88.968547
 30
0
 10
23.244114
 20
89.535214
 30
0
 10
22.713385
 20
89.841876
 30
0
  0
SPLINE
  5
89
100
AcDbEntity
  8
Layer4
  6
ByLayer
 62
    7
370
   -1
100
AcDbSpline
210
0
220
0
230
0
 70
    8
 71
    3
 72
    8
 73
    4
 74
    0
 42
1e-07
 43
1e-07
 40
0
 40
0
 40
0
 40
0
 40
1
 40
1
 40
1
 40
1
 10
22.713385
 20
89.841876
 30
0
 10
22.182655
 20
90.148538
 30
0
 10
21.528586
 20
90.148538
 30
0
 10
20.997856
 20
89.841876
 30
0
  0
SPLINE
  5
8A
100
AcDbEntity
  8
Layer4
  6
ByLayer
 62
    7
370
   -1
100
AcDbSpline
210
0
220
0
230
0
 70
    8
 71
    3
 72
    8
 73
    4
 74
    0
 42
1e-07
 43
1e-07
 40
0
 40
0
 40
0
 40
0
 40
1
 40
1
 40
1
 40
1
 10
20.997856
 20
89.841876
 30
0
 10
20.467126
 20
89.535214
 30
0
 10
20.140484
 20
88.968547
 30
0
 10
20.141121
 20
88.355591
 30
0
  0
SPLINE
  5
8B
100
AcDbEntity
  8
Layer4
  6
ByLayer
 62
    7
370
   -1
100
AcDbSpline
210
0
220
0
230
0
 70
    8
 71
    3
 72
    8
 73
    4
 74
    0
 42
1e-07
 43
1e-07
 40
0
 40
0
 40
0
 40
0
 40
1
 40
1
 40
1
 40
1
 10
20.141121
 20
88.355591
 30
0
 10
20.140484
 20
87.74263500000001
 30
0
 10
20.467126
 20
87.175968
 30
0
 10
20.997856
 20
86.86930599999999
 30
0
  0
SPLINE
  5
8C
100
AcDbEntity
  8
Layer4
  6
ByLayer
 62
    7
370
   -1
100
AcDbSpline
210
0
220
0
230
0
 70
    8
 71
    3
 72
    8
 73
    4
 74
    0
 42
1e-07
 43
1e-07
 40
0
 40
0
 40
0
 40
0
 40
1
 40
1
 40
1
 40
1
 10
20.997856
 20
86.86930599999999
 30
0
 10
21.528586
 20
86.56264299999999
 30
0
 10
22.182655
 20
86.56264299999999
 30
0
 10
22.713385
 20
86.86930599999999
 30
0
  0
SPLINE
  5
8D
100
AcDbEntity
  8
Layer4
  6
ByLayer
 62
    7
370
   -1
100
AcDbSpline
210
0
220
0
230
0
 70
    8
 71
    3
 72
    8
 73
    4
 74
    0
 42
1e-07
 43
1e-07
 40
0
 40
0
 40
0
 40
0
 40
1
 40
1
 40
1
 40
1
 10
22.713385
 20
86.86930599999999
 30
0
 10
23.244114
 20
87.175968
 30
0
 10
23.570757
 20
87.74263500000001
 30
0
 10
23.570119
 20
88.355591
 30
0
  0
LWPOLYLINE
  5
8E
100
AcDbEntity
  8
Layer4
  6
ByLayer
 62
    7
370
   -1
100
AcDbPolyline
 90
    1
 70
    1
 43
0
 10
23.570119
 20
101.855588
  0
SPLINE
  5
8F
100
AcDbEntity
  8
Layer4
  6
ByLayer
 62
    7
370
   -1
100
AcDbSpline
210
0
220
0
230
0
 70
    8
 71
    3
 72
    8
 73
    4
 74
    0
 42
1e-07
 43
1e-07
 40
0
 40
0
 40
0
 40
0
 40
1
 40
1
 40
1
 40
1
 10
55.570122
 20
56.855588
 30
0
 10
55.570122
 20
57.46812
 30
0
 10
55.24334
 20
58.034122
 30
0
 10
54.712872
 20
58.340388
 30
0
  0
SPLINE
  5
90
100
AcDbEntity
  8
Layer4
  6
ByLayer
 62
    7
370
   -1
100
AcDbSpline
210
0
220
0
230
0
 70
    8
 71
    3
 72
    8
 73
    4
 74
    0
 42
1e-07
 43
1e-07
 40
0
 40
0
 40
0
 40
0
 40
1
 40
1
 40
1
 40
1
 10
54.712872
 20
58.340388
 30
0
 10
54.182403
 20
58.646654
 30
0
 10
53.52884
 20
58.646654
 30
0
 10
52.998372
 20
58.340388
 30
0
  0
SPLINE
  5
91
100
AcDbEntity
  8
Layer4
  6
ByLayer
 62
    7
370
   -1
100
AcDbSpline
210
0
220
0
230
0
 70
    8
 71
    3
 72
    8
 73
    4
 74
    0
 42
1e-07
 43
1e-07
 40
0
 40
0
 40
0
 40
0
 40
1
 40
1
 40
1
 40
1
 10
52.998372
 20
58.340388
 30
0
 10
52.467903
 20
58.034122
 30
0
 10
52.141122
 20
57.46812
 30
0
 10
52.141122
 20
56.855588
 30
0
  0
SPLINE
  5
92
100
AcDbEntity
  8
Layer4
  6
ByLayer
 62
    7
370
   -1
100
AcDbSpline
210
0
220
0
230
0
 70
    8
 71
    3
 72
    8
 73
    4
 74
    0
 42
1e-07
 43
1e-07
 40
0
 40
0
 40
0
 40
0
 40
1
 40
1
 40
1
 40
1
 10
52.141122
 20
56.855588
 30
0
 10
52.141122
 20
56.243056
 30
0
 10
52.467903
 20
55.677053
 30
0
 10
52.998372
 20
55.370787
 30
0
  0
SPLINE
  5
93
100
AcDbEntity
  8
Layer4
  6
ByLayer
 62
    7
370
   -1
100
AcDbSpline
210
0
220
0
230
0
 70
    8
 71
    3
 72
    8
 73
    4
 74
    0
 42
1e-07
 43
1e-07
 40
0
 40
0
 40
0
 40
0
 40
1
 40
1
 40
1
 40
1
 10
52.998372
 20
55.370787
 30
0
 10
53.52884
 20
55.064521
 30
0
 10
54.182403
 20
55.064521
 30
0
 10
54.712872
 20
55.370787
 30
0
  0
SPLINE
  5
94
100
AcDbEntity
  8
Layer4
  6
ByLayer
 62
    7
370
   -1
100
AcDbSpline
210
0
220
0
230
0
 70
    8
 71
    3
 72
    8
 73
    4
 74
    0
 42
1e-07
 43
1e-07
 40
0
 40
0
 40
0
 40
0
 40
1
 40
1
 40
1
 40
1
 10
54.712872
 20
55.370787
 30
0
 10
55.24334
 20
55.677053
 30
0
 10
55.570122
 20
56.243056
 30
0
 10
55.570122
 20
56.855588
 30
0
  0
LWPOLYLINE
  5
95
100
AcDbEntity
  8
Layer4
  6
ByLayer
 62
    7
370
   -1
100
AcDbPolyline
 90
    1
 70
    1
 43
0
 10
23.570119
 20
88.355591
  0
SPLINE
  5
96
100
AcDbEntity
  8
Layer4
  6
ByLayer
 62
    7
370
   -1
100
AcDbSpline
210
0
220
0
230
0
 70
    8
 71
    3
 72
    8
 73
    4
 74
    0
 42
1e-07
 43
1e-07
 40
0
 40
0
 40
0
 40
0
 40
1
 40
1
 40
1
 40
1
 10
55.570122
 20
43.355591
 30
0
 10
55.570122
 20
43.968123
 30
0
 10
55.24334
 20
44.534126
 30
0
 10
54.712872
 20
44.840392
 30
0
  0
SPLINE
  5
97
100
AcDbEntity
  8
Layer4
  6
ByLayer
 62
    7
370
   -1
100
AcDbSpline
210
0
220
0
230
0
 70
    8
 71
    3
 72
    8
 73
    4
 74
    0
 42
1e-07
 43
1e-07
 40
0
 40
0
 40
0
 40
0
 40
1
 40
1
 40
1
 40
1
 10
54.712872
 20
44.840392
 30
0
 10
54.182403
 20
45.146657
 30
0
 10
53.52884
 20
45.146657
 30
0
 10
52.998372
 20
44.840392
 30
0
  0
SPLINE
  5
98
100
AcDbEntity
  8
Layer4
  6
ByLayer
 62
    7
370
   -1
100
AcDbSpline
210
0
220
0
230
0
 70
    8
 71
    3
 72
    8
 73
    4
 74
    0
 42
1e-07
 43
1e-07
 40
0
 40
0
 40
0
 40
0
 40
1
 40
1
 40
1
 40
1
 10
52.998372
 20
44.840392
 30
0
 10
52.467903
 20
44.534126
 30
0
 10
52.141122
 20
43.968123
 30
0
 10
52.141122
 20
43.355591
 30
0
  0
SPLINE
  5
99
100
AcDbEntity
  8
Layer4
  6
ByLayer
 62
    7
370
   -1
100
AcDbSpline
210
0
220
0
230
0
 70
    8
 71
    3
 72
    8
 73
    4
 74
    0
 42
1e-07
 43
1e-07
 40
0
 40
0
 40
0
 40
0
 40
1
 40
1
 40
1
 40
1
 10
52.141122
 20
43.355591
 30
0
 10
52.141122
 20
42.743059
 30
0
 10
52.467903
 20
42.177056
 30
0
 10
52.998372
 20
41.87079
 30
0
  0
SPLINE
  5
9A
100
AcDbEntity
  8
Layer4
  6
ByLayer
 62
    7
370
   -1
100
AcDbSpline
210
0
220
0
230
0
 70
    8
 71
    3
 72
    8
 73
    4
 74
    0
 42
1e-07
 43
1e-07
 40
0
 40
0
 40
0
 40
0
 40
1
 40
1
 40
1
 40
1
 10
52.998372
 20
41.87079
 30
0
 10
53.52884
 20
41.564525
 30
0
 10
54.182403
 20
41.564525
 30
0
 10
54.712872
 20
41.87079
 30
0
  0
SPLINE
  5
9B
100
AcDbEntity
  8
Layer4
  6
ByLayer
 62
    7
370
   -1
100
AcDbSpline
210
0
220
0
230
0
 70
    8
 71
    3
 72
    8
 73
    4
 74
    0
 42
1e-07
 43
1e-07
 40
0
 40
0
 40
0
 40
0
 40
1
 40
1
 40
1
 40
1
 10
54.712872
 20
41.87079
 30
0
 10
55.24334
 20
42.177056
 30
0
 10
55.570122
 20
42.743059
 30
0
 10
55.570122
 20
43.355591
 30
0
  0
LWPOLYLINE
  5
9C
100
AcDbEntity
  8
Layer4
  6
ByLayer
 62
    7
370
   -1
100
AcDbPolyline
 90
    1
 70
    1
 43
0
 10
55.570122
 20
56.855588
  0
SPLINE
  5
9D
100
AcDbEntity
  8
Layer4
  6
ByLayer
 62
    7
370
   -1
100
AcDbSpline
210
0
220
0
230
0
 70
    8
 71
    3
 72
    8
 73
    4
 74
    0
 42
1e-07
 43
1e-07
 40
0
 40
0
 40
0
 40
0
 40
1
 40
1
 40
1
 40
1
 10
13.820121
 20
184.355589
 30
0
 10
13.820121
 20
184.968121
 30
0
 10
13.493339
 20
185.534124
 30
0
 10
12.962871
 20
185.84039
 30
0
  0
SPLINE
  5
9E
100
AcDbEntity
  8
Layer4
  6
ByLayer
 62
    7
370
   -1
100
AcDbSpline
210
0
220
0
230
0
 70
    8
 71
    3
 72
    8
 73
    4
 74
    0
 42
1e-07
 43
1e-07
 40
0
 40
0
 40
0
 40
0
 40
1
 40
1
 40
1
 40
1
 10
12.962871
 20
185.84039
 30
0
 10
12.432403
 20
186.146656
 30
0
 10
11.778839
 20
186.146656
 30
0
 10
11.248371
 20
185.84039
 30
0
  0
SPLINE
  5
9F
100
AcDbEntity
  8
Layer4
  6
ByLayer
 62
    7
370
   -1
100
AcDbSpline
210
0
220
0
230
0
 70
    8
 71
    3
 72
    8
 73
    4
 74
    0
 42
1e-07
 43
1e-07
 40
0
 40
0
 40
0
 40
0
 40
1
 40
1
 40
1
 40
1
 10
11.248371
 20
185.84039
 30
0
 10
10.717903
 20
185.534124
 30
0
 10
10.391121
 20
184.968121
 30
0
 10
10.391121
 20
184.355589
 30
0
  0
SPLINE
  5
A0
100
AcDbEntity
  8
Layer4
  6
ByLayer
 62
    7
370
   -1
100
AcDbSpline
210
0
220
0
230
0
 70
    8
 71
    3
 72
    8
 73
    4
 74
    0
 42
1e-07
 43
1e-07
 40
0
 40
0
 40
0
 40
0
 40
1
 40
1
 40
1
 40
1
 10
10.391121
 20
184.355589
 30
0
 10
10.391121
 20
183.743058
 30
0
 10
10.717903
 20
183.177055
 30
0
 10
11.248371
 20
182.870789
 30
0
  0
SPLINE
  5
A1
100
AcDbEntity
  8
Layer4
  6
ByLayer
 62
    7
370
   -1
100
AcDbSpline
210
0
220
0
230
0
 70
    8
 71
    3
 72
    8
 73
    4
 74
    0
 42
1e-07
 43
1e-07
 40
0
 40
0
 40
0
 40
0
 40
1
 40
1
 40
1
 40
1
 10
11.248371
 20
182.870789
 30
0
 10
11.778839
 20
182.564523
 30
0
 10
12.432403
 20
182.564523
 30
0
 10
12.962871
 20
182.870789
 30
0
  0
SPLINE
  5
A2
100
AcDbEntity
  8
Layer4
  6
ByLayer
 62
    7
370
   -1
100
AcDbSpline
210
0
220
0
230
0
 70
    8
 71
    3
 72
    8
 73
    4
 74
    0
 42
1e-07
 43
1e-07
 40
0
 40
0
 40
0
 40
0
 40
1
 40
1
 40
1
 40
1
 10
12.962871
 20
182.870789
 30
0
 10
13.493339
 20
183.177055
 30
0
 10
13.820121
 20
183.743058
 30
0
 10
13.820121
 20
184.355589
 30
0
  0
LWPOLYLINE
  5
A3
100
AcDbEntity
  8
Layer4
  6
ByLayer
 62
    7
370
   -1
100
AcDbPolyline
 90
    1
 70
    1
 43
0
 10
55.570122
 20
43.355591
  0
SPLINE
  5
A4
100
AcDbEntity
  8
Layer4
  6
ByLayer
 62
    7
370
   -1
100
AcDbSpline
210
0
220
0
230
0
 70
    8
 71
    3
 72
    8
 73
    4
 74
    0
 42
1e-07
 43
1e-07
 40
0
 40
0
 40
0
 40
0
 40
1
 40
1
 40
1
 40
1
 10
13.820121
 20
5.605569
 30
0
 10
13.820121
 20
6.2181
 30
0
 10
13.493339
 20
6.784103
 30
0
 10
12.962871
 20
7.090369
 30
0
  0
SPLINE
  5
A5
100
AcDbEntity
  8
Layer4
  6
ByLayer
 62
    7
370
   -1
100
AcDbSpline
210
0
220
0
230
0
 70
    8
 71
    3
 72
    8
 73
    4
 74
    0
 42
1e-07
 43
1e-07
 40
0
 40
0
 40
0
 40
0
 40
1
 40
1
 40
1
 40
1
 10
12.962871
 20
7.090369
 30
0
 10
12.432403
 20
7.396635
 30
0
 10
11.778839
 20
7.396635
 30
0
 10
11.248371
 20
7.090369
 30
0
  0
SPLINE
  5
A6
100
AcDbEntity
  8
Layer4
  6
ByLayer
 62
    7
370
   -1
100
AcDbSpline
210
0
220
0
230
0
 70
    8
 71
    3
 72
    8
 73
    4
 74
    0
 42
1e-07
 43
1e-07
 40
0
 40
0
 40
0
 40
0
 40
1
 40
1
 40
1
 40
1
 10
11.248371
 20
7.090369
 30
0
 10
10.717903
 20
6.784103
 30
0
 10
10.391121
 20
6.2181
 30
0
 10
10.391121
 20
5.605569
 30
0
  0
SPLINE
  5
A7
100
AcDbEntity
  8
Layer4
  6
ByLayer
 62
    7
370
   -1
100
AcDbSpline
210
0
220
0
230
0
 70
    8
 71
    3
 72
    8
 73
    4
 74
    0
 42
1e-07
 43
1e-07
 40
0
 40
0
 40
0
 40
0
 40
1
 40
1
 40
1
 40
1
 10
10.391121
 20
5.605569
 30
0
 10
10.391121
 20
4.993037
 30
0
 10
10.717903
 20
4.427034
 30
0
 10
11.248371
 20
4.120768
 30
0
  0
SPLINE
  5
A8
100
AcDbEntity
  8
Layer4
  6
ByLayer
 62
    7
370
   -1
100
AcDbSpline
210
0
220
0
230
0
 70
    8
 71
    3
 72
    8
 73
    4
 74
    0
 42
1e-07
 43
1e-07
 40
0
 40
0
 40
0
 40
0
 40
1
 40
1
 40
1
 40
1
 10
11.248371
 20
4.120768
 30
0
 10
11.778839
 20
3.814502
 30
0
 10
12.432403
 20
3.814502
 30
0
 10
12.962871
 20
4.120768
 30
0
  0
SPLINE
  5
A9
100
AcDbEntity
  8
Layer4
  6
ByLayer
 62
    7
370
   -1
100
AcDbSpline
210
0
220
0
230
0
 70
    8
 71
    3
 72
    8
 73
    4
 74
    0
 42
1e-07
 43
1e-07
 40
0
 40
0
 40
0
 40
0
 40
1
 40
1
 40
1
 40
1
 10
12.962871
 20
4.120768
 30
0
 10
13.493339
 20
4.427034
 30
0
 10
13.820121
 20
4.993037
 30
0
 10
13.820121
 20
5.605569
 30
0
  0
LWPOLYLINE
  5
AA
100
AcDbEntity
  8
Layer4
  6
ByLayer
 62
    7
370
   -1
100
AcDbPolyline
 90
    1
 70
    1
 43
0
 10
13.820121
 20
184.355589
  0
SPLINE
  5
AB
100
AcDbEntity
  8
Layer4
  6
ByLayer
 62
    7
370
   -1
100
AcDbSpline
210
0
220
0
230
0
 70
    8
 71
    3
 72
    8
 73
    4
 74
    0
 42
1e-07
 43
1e-07
 40
0
 40
0
 40
0
 40
0
 40
1
 40
1
 40
1
 40
1
 10
13.820105
 20
194.641116
 30
0
 10
13.820105
 20
195.253648
 30
0
 10
13.493323
 20
195.81965
 30
0
 10
12.962855
 20
196.125916
 30
0
  0
SPLINE
  5
AC
100
AcDbEntity
  8
Layer4
  6
ByLayer
 62
    7
370
   -1
100
AcDbSpline
210
0
220
0
230
0
 70
    8
 71
    3
 72
    8
 73
    4
 74
    0
 42
1e-07
 43
1e-07
 40
0
 40
0
 40
0
 40
0
 40
1
 40
1
 40
1
 40
1
 10
12.962855
 20
196.125916
 30
0
 10
12.432387
 20
196.432182
 30
0
 10
11.778823
 20
196.432182
 30
0
 10
11.248355
 20
196.125916
 30
0
  0
SPLINE
  5
AD
100
AcDbEntity
  8
Layer4
  6
ByLayer
 62
    7
370
   -1
100
AcDbSpline
210
0
220
0
230
0
 70
    8
 71
    3
 72
    8
 73
    4
 74
    0
 42
1e-07
 43
1e-07
 40
0
 40
0
 40
0
 40
0
 40
1
 40
1
 40
1
 40
1
 10
11.248355
 20
196.125916
 30
0
 10
10.717887
 20
195.81965
 30
0
 10
10.391105
 20
195.253648
 30
0
 10
10.391105
 20
194.641116
 30
0
  0
SPLINE
  5
AE
100
AcDbEntity
  8
Layer4
  6
ByLayer
 62
    7
370
   -1
100
AcDbSpline
210
0
220
0
230
0
 70
    8
 71
    3
 72
    8
 73
    4
 74
    0
 42
1e-07
 43
1e-07
 40
0
 40
0
 40
0
 40
0
 40
1
 40
1
 40
1
 40
1
 10
10.391105
 20
194.641116
 30
0
 10
10.391105
 20
194.028584
 30
0
 10
10.717887
 20
193.462581
 30
0
 10
11.248355
 20
193.156315
 30
0
  0
SPLINE
  5
AF
100
AcDbEntity
  8
Layer4
  6
ByLayer
 62
    7
370
   -1
100
AcDbSpline
210
0
220
0
230
0
 70
    8
 71
    3
 72
    8
 73
    4
 74
    0
 42
1e-07
 43
1e-07
 40
0
 40
0
 40
0
 40
0
 40
1
 40
1
 40
1
 40
1
 10
11.248355
 20
193.156315
 30
0
 10
11.778823
 20
192.850049
 30
0
 10
12.432387
 20
192.850049
 30
0
 10
12.962855
 20
193.156315
 30
0
  0
SPLINE
  5
B0
100
AcDbEntity
  8
Layer4
  6
ByLayer
 62
    7
370
   -1
100
AcDbSpline
210
0
220
0
230
0
 70
    8
 71
    3
 72
    8
 73
    4
 74
    0
 42
1e-07
 43
1e-07
 40
0
 40
0
 40
0
 40
0
 40
1
 40
1
 40
1
 40
1
 10
12.962855
 20
193.156315
 30
0
 10
13.493323
 20
193.462581
 30
0
 10
13.820105
 20
194.028584
 30
0
 10
13.820105
 20
194.641116
 30
0
  0
LWPOLYLINE
  5
B1
100
AcDbEntity
  8
Layer4
  6
ByLayer
 62
    7
370
   -1
100
AcDbPolyline
 90
    1
 70
    1
 43
0
 10
13.820121
 20
5.605569
  0
SPLINE
  5
B2
100
AcDbEntity
  8
Layer4
  6
ByLayer
 62
    7
370
   -1
100
AcDbSpline
210
0
220
0
230
0
 70
    8
 71
    3
 72
    8
 73
    4
 74
    0
 42
1e-07
 43
1e-07
 40
0
 40
0
 40
0
 40
0
 40
1
 40
1
 40
1
 40
1
 10
214.141099
 20
95.105588
 30
0
 10
214.141099
 20
95.71812
 30
0
 10
213.814317
 20
96.28412299999999
 30
0
 10
213.283849
 20
96.590389
 30
0
  0
SPLINE
  5
B3
100
AcDbEntity
  8
Layer4
  6
ByLayer
 62
    7
370
   -1
100
AcDbSpline
210
0
220
0
230
0
 70
    8
 71
    3
 72
    8
 73
    4
 74
    0
 42
1e-07
 43
1e-07
 40
0
 40
0
 40
0
 40
0
 40
1
 40
1
 40
1
 40
1
 10
213.283849
 20
96.590389
 30
0
 10
212.753381
 20
96.896655
 30
0
 10
212.099817
 20
96.896655
 30
0
 10
211.569349
 20
96.590389
 30
0
  0
SPLINE
  5
B4
100
AcDbEntity
  8
Layer4
  6
ByLayer
 62
    7
370
   -1
100
AcDbSpline
210
0
220
0
230
0
 70
    8
 71
    3
 72
    8
 73
    4
 74
    0
 42
1e-07
 43
1e-07
 40
0
 40
0
 40
0
 40
0
 40
1
 40
1
 40
1
 40
1
 10
211.569349
 20
96.590389
 30
0
 10
211.038881
 20
96.28412299999999
 30
0
 10
210.712099
 20
95.71812
 30
0
 10
210.712099
 20
95.105588
 30
0
  0
SPLINE
  5
B5
100
AcDbEntity
  8
Layer4
  6
ByLayer
 62
    7
370
   -1
100
AcDbSpline
210
0
220
0
230
0
 70
    8
 71
    3
 72
    8
 73
    4
 74
    0
 42
1e-07
 43
1e-07
 40
0
 40
0
 40
0
 40
0
 40
1
 40
1
 40
1
 40
1
 10
210.712099
 20
95.105588
 30
0
 10
210.712099
 20
94.493056
 30
0
 10
211.038881
 20
93.927053
 30
0
 10
211.569349
 20
93.62078700000001
 30
0
  0
SPLINE
  5
B6
100
AcDbEntity
  8
Layer4
  6
ByLayer
 62
    7
370
   -1
100
AcDbSpline
210
0
220
0
230
0
 70
    8
 71
    3
 72
    8
 73
    4
 74
    0
 42
1e-07
 43
1e-07
 40
0
 40
0
 40
0
 40
0
 40
1
 40
1
 40
1
 40
1
 10
211.569349
 20
93.62078700000001
 30
0
 10
212.099817
 20
93.314522
 30
0
 10
212.753381
 20
93.314522
 30
0
 10
213.283849
 20
93.62078700000001
 30
0
  0
SPLINE
  5
B7
100
AcDbEntity
  8
Layer4
  6
ByLayer
 62
    7
370
   -1
100
AcDbSpline
210
0
220
0
230
0
 70
    8
 71
    3
 72
    8
 73
    4
 74
    0
 42
1e-07
 43
1e-07
 40
0
 40
0
 40
0
 40
0
 40
1
 40
1
 40
1
 40
1
 10
213.283849
 20
93.62078700000001
 30
0
 10
213.814317
 20
93.927053
 30
0
 10
214.141099
 20
94.493056
 30
0
 10
214.141099
 20
95.105588
 30
0
  0
LWPOLYLINE
  5
B8
100
AcDbEntity
  8
Layer4
  6
ByLayer
 62
    7
370
   -1
100
AcDbPolyline
 90
    1
 70
    1
 43
0
 10
13.820105
 20
194.641116
  0
SPLINE
  5
B9
100
AcDbEntity
  8
Layer4
  6
ByLayer
 62
    7
370
   -1
100
AcDbSpline
210
0
220
0
230
0
 70
    8
 71
    3
 72
    8
 73
    4
 74
    0
 42
1e-07
 43
1e-07
 40
0
 40
0
 40
0
 40
0
 40
1
 40
1
 40
1
 40
1
 10
198.141099
 20
146.855588
 30
0
 10
198.141099
 20
147.46812
 30
0
 10
197.814318
 20
148.034122
 30
0
 10
197.283849
 20
148.340388
 30
0
  0
SPLINE
  5
BA
100
AcDbEntity
  8
Layer4
  6
ByLayer
 62
    7
370
   -1
100
AcDbSpline
210
0
220
0
230
0
 70
    8
 71
    3
 72
    8
 73
    4
 74
    0
 42
1e-07
 43
1e-07
 40
0
 40
0
 40
0
 40
0
 40
1
 40
1
 40
1
 40
1
 10
197.283849
 20
148.340388
 30
0
 10
196.753381
 20
148.646654
 30
0
 10
196.099818
 20
148.646654
 30
0
 10
195.569349
 20
148.340388
 30
0
  0
SPLINE
  5
BB
100
AcDbEntity
  8
Layer4
  6
ByLayer
 62
    7
370
   -1
100
AcDbSpline
210
0
220
0
230
0
 70
    8
 71
    3
 72
    8
 73
    4
 74
    0
 42
1e-07
 43
1e-07
 40
0
 40
0
 40
0
 40
0
 40
1
 40
1
 40
1
 40
1
 10
195.569349
 20
148.340388
 30
0
 10
195.038881
 20
148.034122
 30
0
 10
194.712099
 20
147.46812
 30
0
 10
194.712099
 20
146.855588
 30
0
  0
SPLINE
  5
BC
100
AcDbEntity
  8
Layer4
  6
ByLayer
 62
    7
370
   -1
100
AcDbSpline
210
0
220
0
230
0
 70
    8
 71
    3
 72
    8
 73
    4
 74
    0
 42
1e-07
 43
1e-07
 40
0
 40
0
 40
0
 40
0
 40
1
 40
1
 40
1
 40
1
 10
194.712099
 20
146.855588
 30
0
 10
194.712099
 20
146.243056
 30
0
 10
195.038881
 20
145.677053
 30
0
 10
195.569349
 20
145.370787
 30
0
  0
SPLINE
  5
BD
100
AcDbEntity
  8
Layer4
  6
ByLayer
 62
    7
370
   -1
100
AcDbSpline
210
0
220
0
230
0
 70
    8
 71
    3
 72
    8
 73
    4
 74
    0
 42
1e-07
 43
1e-07
 40
0
 40
0
 40
0
 40
0
 40
1
 40
1
 40
1
 40
1
 10
195.569349
 20
145.370787
 30
0
 10
196.099818
 20
145.064521
 30
0
 10
196.753381
 20
145.064521
 30
0
 10
197.283849
 20
145.370787
 30
0
  0
SPLINE
  5
BE
100
AcDbEntity
  8
Layer4
  6
ByLayer
 62
    7
370
   -1
100
AcDbSpline
210
0
220
0
230
0
 70
    8
 71
    3
 72
    8
 73
    4
 74
    0
 42
1e-07
 43
1e-07
 40
0
 40
0
 40
0
 40
0
 40
1
 40
1
 40
1
 40
1
 10
197.283849
 20
145.370787
 30
0
 10
197.814318
 20
145.677053
 30
0
 10
198.141099
 20
146.243056
 30
0
 10
198.141099
 20
146.855588
 30
0
  0
LWPOLYLINE
  5
BF
100
AcDbEntity
  8
Layer4
  6
ByLayer
 62
    7
370
   -1
100
AcDbPolyline
 90
    1
 70
    1
 43
0
 10
214.141099
 20
95.105588
  0
SPLINE
  5
C0
100
AcDbEntity
  8
Layer4
  6
ByLayer
 62
    7
370
   -1
100
AcDbSpline
210
0
220
0
230
0
 70
    8
 71
    3
 72
    8
 73
    4
 74
    0
 42
1e-07
 43
1e-07
 40
0
 40
0
 40
0
 40
0
 40
1
 40
1
 40
1
 40
1
 10
198.141099
 20
133.355591
 30
0
 10
198.141099
 20
133.968123
 30
0
 10
197.814318
 20
134.534126
 30
0
 10
197.283849
 20
134.840391
 30
0
  0
SPLINE
  5
C1
100
AcDbEntity
  8
Layer4
  6
ByLayer
 62
    7
370
   -1
100
AcDbSpline
210
0
220
0
230
0
 70
    8
 71
    3
 72
    8
 73
    4
 74
    0
 42
1e-07
 43
1e-07
 40
0
 40
0
 40
0
 40
0
 40
1
 40
1
 40
1
 40
1
 10
197.283849
 20
134.840391
 30
0
 10
196.753381
 20
135.146657
 30
0
 10
196.099818
 20
135.146657
 30
0
 10
195.569349
 20
134.840391
 30
0
  0
SPLINE
  5
C2
100
AcDbEntity
  8
Layer4
  6
ByLayer
 62
    7
370
   -1
100
AcDbSpline
210
0
220
0
230
0
 70
    8
 71
    3
 72
    8
 73
    4
 74
    0
 42
1e-07
 43
1e-07
 40
0
 40
0
 40
0
 40
0
 40
1
 40
1
 40
1
 40
1
 10
195.569349
 20
134.840391
 30
0
 10
195.038881
 20
134.534126
 30
0
 10
194.712099
 20
133.968123
 30
0
 10
194.712099
 20
133.355591
 30
0
  0
SPLINE
  5
C3
100
AcDbEntity
  8
Layer4
  6
ByLayer
 62
    7
370
   -1
100
AcDbSpline
210
0
220
0
230
0
 70
    8
 71
    3
 72
    8
 73
    4
 74
    0
 42
1e-07
 43
1e-07
 40
0
 40
0
 40
0
 40
0
 40
1
 40
1
 40
1
 40
1
 10
194.712099
 20
133.355591
 30
0
 10
194.712099
 20
132.743059
 30
0
 10
195.038881
 20
132.177056
 30
0
 10
195.569349
 20
131.87079
 30
0
  0
SPLINE
  5
C4
100
AcDbEntity
  8
Layer4
  6
ByLayer
 62
    7
370
   -1
100
AcDbSpline
210
0
220
0
230
0
 70
    8
 71
    3
 72
    8
 73
    4
 74
    0
 42
1e-07
 43
1e-07
 40
0
 40
0
 40
0
 40
0
 40
1
 40
1
 40
1
 40
1
 10
195.569349
 20
131.87079
 30
0
 10
196.099818
 20
131.564524
 30
0
 10
196.753381
 20
131.564524
 30
0
 10
197.283849
 20
131.87079
 30
0
  0
SPLINE
  5
C5
100
AcDbEntity
  8
Layer4
  6
ByLayer
 62
    7
370
   -1
100
AcDbSpline
210
0
220
0
230
0
 70
    8
 71
    3
 72
    8
 73
    4
 74
    0
 42
1e-07
 43
1e-07
 40
0
 40
0
 40
0
 40
0
 40
1
 40
1
 40
1
 40
1
 10
197.283849
 20
131.87079
 30
0
 10
197.814318
 20
132.177056
 30
0
 10
198.141099
 20
132.743059
 30
0
 10
198.141099
 20
133.355591
 30
0
  0
LWPOLYLINE
  5
C6
100
AcDbEntity
  8
Layer4
  6
ByLayer
 62
    7
370
   -1
100
AcDbPolyline
 90
    1
 70
    1
 43
0
 10
198.141099
 20
146.855588
  0
SPLINE
  5
C7
100
AcDbEntity
  8
Layer4
  6
ByLayer
 62
    7
370
   -1
100
AcDbSpline
210
0
220
0
230
0
 70
    8
 71
    3
 72
    8
 73
    4
 74
    0
 42
1e-07
 43
1e-07
 40
0
 40
0
 40
0
 40
0
 40
1
 40
1
 40
1
 40
1
 10
230.141099
 20
101.855588
 30
0
 10
230.141099
 20
102.46812
 30
0
 10
229.814317
 20
103.034122
 30
0
 10
229.283849
 20
103.340388
 30
0
  0
SPLINE
  5
C8
100
AcDbEntity
  8
Layer4
  6
ByLayer
 62
    7
370
   -1
100
AcDbSpline
210
0
220
0
230
0
 70
    8
 71
    3
 72
    8
 73
    4
 74
    0
 42
1e-07
 43
1e-07
 40
0
 40
0
 40
0
 40
0
 40
1
 40
1
 40
1
 40
1
 10
229.283849
 20
103.340388
 30
0
 10
228.753381
 20
103.646654
 30
0
 10
228.099817
 20
103.646654
 30
0
 10
227.569349
 20
103.340388
 30
0
  0
SPLINE
  5
C9
100
AcDbEntity
  8
Layer4
  6
ByLayer
 62
    7
370
   -1
100
AcDbSpline
210
0
220
0
230
0
 70
    8
 71
    3
 72
    8
 73
    4
 74
    0
 42
1e-07
 43
1e-07
 40
0
 40
0
 40
0
 40
0
 40
1
 40
1
 40
1
 40
1
 10
227.569349
 20
103.340388
 30
0
 10
227.038881
 20
103.034122
 30
0
 10
226.712099
 20
102.46812
 30
0
 10
226.712099
 20
101.855588
 30
0
  0
SPLINE
  5
CA
100
AcDbEntity
  8
Layer4
  6
ByLayer
 62
    7
370
   -1
100
AcDbSpline
210
0
220
0
230
0
 70
    8
 71
    3
 72
    8
 73
    4
 74
    0
 42
1e-07
 43
1e-07
 40
0
 40
0
 40
0
 40
0
 40
1
 40
1
 40
1
 40
1
 10
226.712099
 20
101.855588
 30
0
 10
226.712099
 20
101.243056
 30
0
 10
227.038881
 20
100.677053
 30
0
 10
227.569349
 20
100.370787
 30
0
  0
SPLINE
  5
CB
100
AcDbEntity
  8
Layer4
  6
ByLayer
 62
    7
370
   -1
100
AcDbSpline
210
0
220
0
230
0
 70
    8
 71
    3
 72
    8
 73
    4
 74
    0
 42
1e-07
 43
1e-07
 40
0
 40
0
 40
0
 40
0
 40
1
 40
1
 40
1
 40
1
 10
227.569349
 20
100.370787
 30
0
 10
228.099817
 20
100.064521
 30
0
 10
228.753381
 20
100.064521
 30
0
 10
229.283849
 20
100.370787
 30
0
  0
SPLINE
  5
CC
100
AcDbEntity
  8
Layer4
  6
ByLayer
 62
    7
370
   -1
100
AcDbSpline
210
0
220
0
230
0
 70
    8
 71
    3
 72
    8
 73
    4
 74
    0
 42
1e-07
 43
1e-07
 40
0
 40
0
 40
0
 40
0
 40
1
 40
1
 40
1
 40
1
 10
229.283849
 20
100.370787
 30
0
 10
229.814317
 20
100.677053
 30
0
 10
230.141099
 20
101.243056
 30
0
 10
230.141099
 20
101.855588
 30
0
  0
LWPOLYLINE
  5
CD
100
AcDbEntity
  8
Layer4
  6
ByLayer
 62
    7
370
   -1
100
AcDbPolyline
 90
    1
 70
    1
 43
0
 10
198.141099
 20
133.355591
  0
SPLINE
  5
CE
100
AcDbEntity
  8
Layer4
  6
ByLayer
 62
    7
370
   -1
100
AcDbSpline
210
0
220
0
230
0
 70
    8
 71
    3
 72
    8
 73
    4
 74
    0
 42
1e-07
 43
1e-07
 40
0
 40
0
 40
0
 40
0
 40
1
 40
1
 40
1
 40
1
 10
230.141099
 20
88.355591
 30
0
 10
230.141099
 20
88.96812300000001
 30
0
 10
229.814317
 20
89.534126
 30
0
 10
229.283849
 20
89.84039199999999
 30
0
  0
SPLINE
  5
CF
100
AcDbEntity
  8
Layer4
  6
ByLayer
 62
    7
370
   -1
100
AcDbSpline
210
0
220
0
230
0
 70
    8
 71
    3
 72
    8
 73
    4
 74
    0
 42
1e-07
 43
1e-07
 40
0
 40
0
 40
0
 40
0
 40
1
 40
1
 40
1
 40
1
 10
229.283849
 20
89.84039199999999
 30
0
 10
228.753381
 20
90.146657
 30
0
 10
228.099817
 20
90.146657
 30
0
 10
227.569349
 20
89.84039199999999
 30
0
  0
SPLINE
  5
D0
100
AcDbEntity
  8
Layer4
  6
ByLayer
 62
    7
370
   -1
100
AcDbSpline
210
0
220
0
230
0
 70
    8
 71
    3
 72
    8
 73
    4
 74
    0
 42
1e-07
 43
1e-07
 40
0
 40
0
 40
0
 40
0
 40
1
 40
1
 40
1
 40
1
 10
227.569349
 20
89.84039199999999
 30
0
 10
227.038881
 20
89.534126
 30
0
 10
226.712099
 20
88.96812300000001
 30
0
 10
226.712099
 20
88.355591
 30
0
  0
SPLINE
  5
D1
100
AcDbEntity
  8
Layer4
  6
ByLayer
 62
    7
370
   -1
100
AcDbSpline
210
0
220
0
230
0
 70
    8
 71
    3
 72
    8
 73
    4
 74
    0
 42
1e-07
 43
1e-07
 40
0
 40
0
 40
0
 40
0
 40
1
 40
1
 40
1
 40
1
 10
226.712099
 20
88.355591
 30
0
 10
226.712099
 20
87.743059
 30
0
 10
227.038881
 20
87.17705599999999
 30
0
 10
227.569349
 20
86.87079
 30
0
  0
SPLINE
  5
D2
100
AcDbEntity
  8
Layer4
  6
ByLayer
 62
    7
370
   -1
100
AcDbSpline
210
0
220
0
230
0
 70
    8
 71
    3
 72
    8
 73
    4
 74
    0
 42
1e-07
 43
1e-07
 40
0
 40
0
 40
0
 40
0
 40
1
 40
1
 40
1
 40
1
 10
227.569349
 20
86.87079
 30
0
 10
228.099817
 20
86.56452400000001
 30
0
 10
228.753381
 20
86.56452400000001
 30
0
 10
229.283849
 20
86.87079
 30
0
  0
SPLINE
  5
D3
100
AcDbEntity
  8
Layer4
  6
ByLayer
 62
    7
370
   -1
100
AcDbSpline
210
0
220
0
230
0
 70
    8
 71
    3
 72
    8
 73
    4
 74
    0
 42
1e-07
 43
1e-07
 40
0
 40
0
 40
0
 40
0
 40
1
 40
1
 40
1
 40
1
 10
229.283849
 20
86.87079
 30
0
 10
229.814317
 20
87.17705599999999
 30
0
 10
230.141099
 20
87.743059
 30
0
 10
230.141099
 20
88.355591
 30
0
  0
LWPOLYLINE
  5
D4
100
AcDbEntity
  8
Layer4
  6
ByLayer
 62
    7
370
   -1
100
AcDbPolyline
 90
    1
 70
    1
 43
0
 10
230.141099
 20
101.855588
  0
SPLINE
  5
D5
100
AcDbEntity
  8
Layer4
  6
ByLayer
 62
    7
370
   -1
100
AcDbSpline
210
0
220
0
230
0
 70
    8
 71
    3
 72
    8
 73
    4
 74
    0
 42
1e-07
 43
1e-07
 40
0
 40
0
 40
0
 40
0
 40
1
 40
1
 40
1
 40
1
 10
198.141099
 20
56.855588
 30
0
 10
198.141099
 20
57.46812
 30
0
 10
197.814318
 20
58.034122
 30
0
 10
197.283849
 20
58.340388
 30
0
  0
SPLINE
  5
D6
100
AcDbEntity
  8
Layer4
  6
ByLayer
 62
    7
370
   -1
100
AcDbSpline
210
0
220
0
230
0
 70
    8
 71
    3
 72
    8
 73
    4
 74
    0
 42
1e-07
 43
1e-07
 40
0
 40
0
 40
0
 40
0
 40
1
 40
1
 40
1
 40
1
 10
197.283849
 20
58.340388
 30
0
 10
196.753381
 20
58.646654
 30
0
 10
196.099818
 20
58.646654
 30
0
 10
195.569349
 20
58.340388
 30
0
  0
SPLINE
  5
D7
100
AcDbEntity
  8
Layer4
  6
ByLayer
 62
    7
370
   -1
100
AcDbSpline
210
0
220
0
230
0
 70
    8
 71
    3
 72
    8
 73
    4
 74
    0
 42
1e-07
 43
1e-07
 40
0
 40
0
 40
0
 40
0
 40
1
 40
1
 40
1
 40
1
 10
195.569349
 20
58.340388
 30
0
 10
195.038881
 20
58.034122
 30
0
 10
194.712099
 20
57.46812
 30
0
 10
194.712099
 20
56.855588
 30
0
  0
SPLINE
  5
D8
100
AcDbEntity
  8
Layer4
  6
ByLayer
 62
    7
370
   -1
100
AcDbSpline
210
0
220
0
230
0
 70
    8
 71
    3
 72
    8
 73
    4
 74
    0
 42
1e-07
 43
1e-07
 40
0
 40
0
 40
0
 40
0
 40
1
 40
1
 40
1
 40
1
 10
194.712099
 20
56.855588
 30
0
 10
194.712099
 20
56.243056
 30
0
 10
195.038881
 20
55.677053
 30
0
 10
195.569349
 20
55.370787
 30
0
  0
SPLINE
  5
D9
100
AcDbEntity
  8
Layer4
  6
ByLayer
 62
    7
370
   -1
100
AcDbSpline
210
0
220
0
230
0
 70
    8
 71
    3
 72
    8
 73
    4
 74
    0
 42
1e-07
 43
1e-07
 40
0
 40
0
 40
0
 40
0
 40
1
 40
1
 40
1
 40
1
 10
195.569349
 20
55.370787
 30
0
 10
196.099818
 20
55.064521
 30
0
 10
196.753381
 20
55.064521
 30
0
 10
197.283849
 20
55.370787
 30
0
  0
SPLINE
  5
DA
100
AcDbEntity
  8
Layer4
  6
ByLayer
 62
    7
370
   -1
100
AcDbSpline
210
0
220
0
230
0
 70
    8
 71
    3
 72
    8
 73
    4
 74
    0
 42
1e-07
 43
1e-07
 40
0
 40
0
 40
0
 40
0
 40
1
 40
1
 40
1
 40
1
 10
197.283849
 20
55.370787
 30
0
 10
197.814318
 20
55.677053
 30
0
 10
198.141099
 20
56.243056
 30
0
 10
198.141099
 20
56.855588
 30
0
  0
LWPOLYLINE
  5
DB
100
AcDbEntity
  8
Layer4
  6
ByLayer
 62
    7
370
   -1
100
AcDbPolyline
 90
    1
 70
    1
 43
0
 10
230.141099
 20
88.355591
  0
SPLINE
  5
DC
100
AcDbEntity
  8
Layer4
  6
ByLayer
 62
    7
370
   -1
100
AcDbSpline
210
0
220
0
230
0
 70
    8
 71
    3
 72
    8
 73
    4
 74
    0
 42
1e-07
 43
1e-07
 40
0
 40
0
 40
0
 40
0
 40
1
 40
1
 40
1
 40
1
 10
198.141099
 20
43.355591
 30
0
 10
198.141099
 20
43.968123
 30
0
 10
197.814318
 20
44.534126
 30
0
 10
197.283849
 20
44.840392
 30
0
  0
SPLINE
  5
DD
100
AcDbEntity
  8
Layer4
  6
ByLayer
 62
    7
370
   -1
100
AcDbSpline
210
0
220
0
230
0
 70
    8
 71
    3
 72
    8
 73
    4
 74
    0
 42
1e-07
 43
1e-07
 40
0
 40
0
 40
0
 40
0
 40
1
 40
1
 40
1
 40
1
 10
197.283849
 20
44.840392
 30
0
 10
196.753381
 20
45.146657
 30
0
 10
196.099818
 20
45.146657
 30
0
 10
195.569349
 20
44.840392
 30
0
  0
SPLINE
  5
DE
100
AcDbEntity
  8
Layer4
  6
ByLayer
 62
    7
370
   -1
100
AcDbSpline
210
0
220
0
230
0
 70
    8
 71
    3
 72
    8
 73
    4
 74
    0
 42
1e-07
 43
1e-07
 40
0
 40
0
 40
0
 40
0
 40
1
 40
1
 40
1
 40
1
 10
195.569349
 20
44.840392
 30
0
 10
195.038881
 20
44.534126
 30
0
 10
194.712099
 20
43.968123
 30
0
 10
194.712099
 20
43.355591
 30
0
  0
SPLINE
  5
DF
100
AcDbEntity
  8
Layer4
  6
ByLayer
 62
    7
370
   -1
100
AcDbSpline
210
0
220
0
230
0
 70
    8
 71
    3
 72
    8
 73
    4
 74
    0
 42
1e-07
 43
1e-07
 40
0
 40
0
 40
0
 40
0
 40
1
 40
1
 40
1
 40
1
 10
194.712099
 20
43.355591
 30
0
 10
194.712099
 20
42.743059
 30
0
 10
195.038881
 20
42.177056
 30
0
 10
195.569349
 20
41.87079
 30
0
  0
SPLINE
  5
E0
100
AcDbEntity
  8
Layer4
  6
ByLayer
 62
    7
370
   -1
100
AcDbSpline
210
0
220
0
230
0
 70
    8
 71
    3
 72
    8
 73
    4
 74
    0
 42
1e-07
 43
1e-07
 40
0
 40
0
 40
0
 40
0
 40
1
 40
1
 40
1
 40
1
 10
195.569349
 20
41.87079
 30
0
 10
196.099818
 20
41.564525
 30
0
 10
196.753381
 20
41.564525
 30
0
 10
197.283849
 20
41.87079
 30
0
  0
SPLINE
  5
E1
100
AcDbEntity
  8
Layer4
  6
ByLayer
 62
    7
370
   -1
100
AcDbSpline
210
0
220
0
230
0
 70
    8
 71
    3
 72
    8
 73
    4
 74
    0
 42
1e-07
 43
1e-07
 40
0
 40
0
 40
0
 40
0
 40
1
 40
1
 40
1
 40
1
 10
197.283849
 20
41.87079
 30
0
 10
197.814318
 20
42.177056
 30
0
 10
198.141099
 20
42.743059
 30
0
 10
198.141099
 20
43.355591
 30
0
  0
LWPOLYLINE
  5
E2
100
AcDbEntity
  8
Layer4
  6
ByLayer
 62
    7
370
   -1
100
AcDbPolyline
 90
    1
 70
    1
 43
0
 10
198.141099
 20
56.855588
  0
SPLINE
  5
E3
100
AcDbEntity
  8
Layer4
  6
ByLayer
 62
    7
370
   -1
100
AcDbSpline
210
0
220
0
230
0
 70
    8
 71
    3
 72
    8
 73
    4
 74
    0
 42
1e-07
 43
1e-07
 40
0
 40
0
 40
0
 40
0
 40
1
 40
1
 40
1
 40
1
 10
239.891101
 20
184.355589
 30
0
 10
239.891101
 20
184.968121
 30
0
 10
239.564319
 20
185.534124
 30
0
 10
239.033851
 20
185.84039
 30
0
  0
SPLINE
  5
E4
100
AcDbEntity
  8
Layer4
  6
ByLayer
 62
    7
370
   -1
100
AcDbSpline
210
0
220
0
230
0
 70
    8
 71
    3
 72
    8
 73
    4
 74
    0
 42
1e-07
 43
1e-07
 40
0
 40
0
 40
0
 40
0
 40
1
 40
1
 40
1
 40
1
 10
239.033851
 20
185.84039
 30
0
 10
238.503382
 20
186.146656
 30
0
 10
237.849819
 20
186.146656
 30
0
 10
237.319351
 20
185.84039
 30
0
  0
SPLINE
  5
E5
100
AcDbEntity
  8
Layer4
  6
ByLayer
 62
    7
370
   -1
100
AcDbSpline
210
0
220
0
230
0
 70
    8
 71
    3
 72
    8
 73
    4
 74
    0
 42
1e-07
 43
1e-07
 40
0
 40
0
 40
0
 40
0
 40
1
 40
1
 40
1
 40
1
 10
237.319351
 20
185.84039
 30
0
 10
236.788882
 20
185.534124
 30
0
 10
236.462101
 20
184.968121
 30
0
 10
236.462101
 20
184.355589
 30
0
  0
SPLINE
  5
E6
100
AcDbEntity
  8
Layer4
  6
ByLayer
 62
    7
370
   -1
100
AcDbSpline
210
0
220
0
230
0
 70
    8
 71
    3
 72
    8
 73
    4
 74
    0
 42
1e-07
 43
1e-07
 40
0
 40
0
 40
0
 40
0
 40
1
 40
1
 40
1
 40
1
 10
236.462101
 20
184.355589
 30
0
 10
236.462101
 20
183.743058
 30
0
 10
236.788882
 20
183.177055
 30
0
 10
237.319351
 20
182.870789
 30
0
  0
SPLINE
  5
E7
100
AcDbEntity
  8
Layer4
  6
ByLayer
 62
    7
370
   -1
100
AcDbSpline
210
0
220
0
230
0
 70
    8
 71
    3
 72
    8
 73
    4
 74
    0
 42
1e-07
 43
1e-07
 40
0
 40
0
 40
0
 40
0
 40
1
 40
1
 40
1
 40
1
 10
237.319351
 20
182.870789
 30
0
 10
237.849819
 20
182.564523
 30
0
 10
238.503382
 20
182.564523
 30
0
 10
239.033851
 20
182.870789
 30
0
  0
SPLINE
  5
E8
100
AcDbEntity
  8
Layer4
  6
ByLayer
 62
    7
370
   -1
100
AcDbSpline
210
0
220
0
230
0
 70
    8
 71
    3
 72
    8
 73
    4
 74
    0
 42
1e-07
 43
1e-07
 40
0
 40
0
 40
0
 40
0
 40
1
 40
1
 40
1
 40
1
 10
239.033851
 20
182.870789
 30
0
 10
239.564319
 20
183.177055
 30
0
 10
239.891101
 20
183.743058
 30
0
 10
239.891101
 20
184.355589
 30
0
  0
LWPOLYLINE
  5
E9
100
AcDbEntity
  8
Layer4
  6
ByLayer
 62
    7
370
   -1
100
AcDbPolyline
 90
    1
 70
    1
 43
0
 10
198.141099
 20
43.355591
  0
SPLINE
  5
EA
100
AcDbEntity
  8
Layer4
  6
ByLayer
 62
    7
370
   -1
100
AcDbSpline
210
0
220
0
230
0
 70
    8
 71
    3
 72
    8
 73
    4
 74
    0
 42
1e-07
 43
1e-07
 40
0
 40
0
 40
0
 40
0
 40
1
 40
1
 40
1
 40
1
 10
239.891101
 20
5.605569
 30
0
 10
239.891101
 20
6.2181
 30
0
 10
239.564319
 20
6.784103
 30
0
 10
239.033851
 20
7.090369
 30
0
  0
SPLINE
  5
EB
100
AcDbEntity
  8
Layer4
  6
ByLayer
 62
    7
370
   -1
100
AcDbSpline
210
0
220
0
230
0
 70
    8
 71
    3
 72
    8
 73
    4
 74
    0
 42
1e-07
 43
1e-07
 40
0
 40
0
 40
0
 40
0
 40
1
 40
1
 40
1
 40
1
 10
239.033851
 20
7.090369
 30
0
 10
238.503382
 20
7.396635
 30
0
 10
237.849819
 20
7.396635
 30
0
 10
237.319351
 20
7.090369
 30
0
  0
SPLINE
  5
EC
100
AcDbEntity
  8
Layer4
  6
ByLayer
 62
    7
370
   -1
100
AcDbSpline
210
0
220
0
230
0
 70
    8
 71
    3
 72
    8
 73
    4
 74
    0
 42
1e-07
 43
1e-07
 40
0
 40
0
 40
0
 40
0
 40
1
 40
1
 40
1
 40
1
 10
237.319351
 20
7.090369
 30
0
 10
236.788882
 20
6.784103
 30
0
 10
236.462101
 20
6.2181
 30
0
 10
236.462101
 20
5.605569
 30
0
  0
SPLINE
  5
ED
100
AcDbEntity
  8
Layer4
  6
ByLayer
 62
    7
370
   -1
100
AcDbSpline
210
0
220
0
230
0
 70
    8
 71
    3
 72
    8
 73
    4
 74
    0
 42
1e-07
 43
1e-07
 40
0
 40
0
 40
0
 40
0
 40
1
 40
1
 40
1
 40
1
 10
236.462101
 20
5.605569
 30
0
 10
236.462101
 20
4.993037
 30
0
 10
236.788882
 20
4.427034
 30
0
 10
237.319351
 20
4.120768
 30
0
  0
SPLINE
  5
EE
100
AcDbEntity
  8
Layer4
  6
ByLayer
 62
    7
370
   -1
100
AcDbSpline
210
0
220
0
230
0
 70
    8
 71
    3
 72
    8
 73
    4
 74
    0
 42
1e-07
 43
1e-07
 40
0
 40
0
 40
0
 40
0
 40
1
 40
1
 40
1
 40
1
 10
237.319351
 20
4.120768
 30
0
 10
237.849819
 20
3.814502
 30
0
 10
238.503382
 20
3.814502
 30
0
 10
239.033851
 20
4.120768
 30
0
  0
SPLINE
  5
EF
100
AcDbEntity
  8
Layer4
  6
ByLayer
 62
    7
370
   -1
100
AcDbSpline
210
0
220
0
230
0
 70
    8
 71
    3
 72
    8
 73
    4
 74
    0
 42
1e-07
 43
1e-07
 40
0
 40
0
 40
0
 40
0
 40
1
 40
1
 40
1
 40
1
 10
239.033851
 20
4.120768
 30
0
 10
239.564319
 20
4.427034
 30
0
 10
239.891101
 20
4.993037
 30
0
 10
239.891101
 20
5.605569
 30
0
  0
LWPOLYLINE
  5
F0
100
AcDbEntity
  8
Layer4
  6
ByLayer
 62
    7
370
   -1
100
AcDbPolyline
 90
    1
 70
    1
 43
0
 10
239.891101
 20
184.355589
  0
SPLINE
  5
F1
100
AcDbEntity
  8
Layer4
  6
ByLayer
 62
    7
370
   -1
100
AcDbSpline
210
0
220
0
230
0
 70
    8
 71
    3
 72
    8
 73
    4
 74
    0
 42
1e-07
 43
1e-07
 40
0
 40
0
 40
0
 40
0
 40
1
 40
1
 40
1
 40
1
 10
239.891117
 20
194.641116
 30
0
 10
239.891117
 20
195.253648
 30
0
 10
239.564335
 20
195.81965
 30
0
 10
239.033867
 20
196.125916
 30
0
  0
SPLINE
  5
F2
100
AcDbEntity
  8
Layer4
  6
ByLayer
 62
    7
370
   -1
100
AcDbSpline
210
0
220
0
230
0
 70
    8
 71
    3
 72
    8
 73
    4
 74
    0
 42
1e-07
 43
1e-07
 40
0
 40
0
 40
0
 40
0
 40
1
 40
1
 40
1
 40
1
 10
239.033867
 20
196.125916
 30
0
 10
238.503398
 20
196.432182
 30
0
 10
237.849835
 20
196.432182
 30
0
 10
237.319367
 20
196.125916
 30
0
  0
SPLINE
  5
F3
100
AcDbEntity
  8
Layer4
  6
ByLayer
 62
    7
370
   -1
100
AcDbSpline
210
0
220
0
230
0
 70
    8
 71
    3
 72
    8
 73
    4
 74
    0
 42
1e-07
 43
1e-07
 40
0
 40
0
 40
0
 40
0
 40
1
 40
1
 40
1
 40
1
 10
237.319367
 20
196.125916
 30
0
 10
236.788898
 20
195.81965
 30
0
 10
236.462117
 20
195.253648
 30
0
 10
236.462117
 20
194.641116
 30
0
  0
SPLINE
  5
F4
100
AcDbEntity
  8
Layer4
  6
ByLayer
 62
    7
370
   -1
100
AcDbSpline
210
0
220
0
230
0
 70
    8
 71
    3
 72
    8
 73
    4
 74
    0
 42
1e-07
 43
1e-07
 40
0
 40
0
 40
0
 40
0
 40
1
 40
1
 40
1
 40
1
 10
236.462117
 20
194.641116
 30
0
 10
236.462117
 20
194.028584
 30
0
 10
236.788898
 20
193.462581
 30
0
 10
237.319367
 20
193.156315
 30
0
  0
SPLINE
  5
F5
100
AcDbEntity
  8
Layer4
  6
ByLayer
 62
    7
370
   -1
100
AcDbSpline
210
0
220
0
230
0
 70
    8
 71
    3
 72
    8
 73
    4
 74
    0
 42
1e-07
 43
1e-07
 40
0
 40
0
 40
0
 40
0
 40
1
 40
1
 40
1
 40
1
 10
237.319367
 20
193.156315
 30
0
 10
237.849835
 20
192.850049
 30
0
 10
238.503398
 20
192.850049
 30
0
 10
239.033867
 20
193.156315
 30
0
  0
SPLINE
  5
F6
100
AcDbEntity
  8
Layer4
  6
ByLayer
 62
    7
370
   -1
100
AcDbSpline
210
0
220
0
230
0
 70
    8
 71
    3
 72
    8
 73
    4
 74
    0
 42
1e-07
 43
1e-07
 40
0
 40
0
 40
0
 40
0
 40
1
 40
1
 40
1
 40
1
 10
239.033867
 20
193.156315
 30
0
 10
239.564335
 20
193.462581
 30
0
 10
239.891117
 20
194.028584
 30
0
 10
239.891117
 20
194.641116
 30
0
  0
LWPOLYLINE
  5
F7
100
AcDbEntity
  8
Layer4
  6
ByLayer
 62
    7
370
   -1
100
AcDbPolyline
 90
    1
 70
    1
 43
0
 10
239.891101
 20
5.605569
  0
SPLINE
  5
F8
100
AcDbEntity
  8
Layer4
  6
ByLayer
 62
    7
370
   -1
100
AcDbSpline
210
0
220
0
230
0
 70
    8
 71
    3
 72
    8
 73
    4
 74
    0
 42
1e-07
 43
1e-07
 40
0
 40
0
 40
0
 40
0
 40
1
 40
1
 40
1
 40
1
 10
96.25561399999999
 20
162.355618
 30
0
 10
96.25561399999999
 20
162.968149
 30
0
 10
95.928832
 20
163.534152
 30
0
 10
95.398364
 20
163.840418
 30
0
  0
SPLINE
  5
F9
100
AcDbEntity
  8
Layer4
  6
ByLayer
 62
    7
370
   -1
100
AcDbSpline
210
0
220
0
230
0
 70
    8
 71
    3
 72
    8
 73
    4
 74
    0
 42
1e-07
 43
1e-07
 40
0
 40
0
 40
0
 40
0
 40
1
 40
1
 40
1
 40
1
 10
95.398364
 20
163.840418
 30
0
 10
94.867896
 20
164.146684
 30
0
 10
94.214332
 20
164.146684
 30
0
 10
93.683864
 20
163.840418
 30
0
  0
SPLINE
  5
FA
100
AcDbEntity
  8
Layer4
  6
ByLayer
 62
    7
370
   -1
100
AcDbSpline
210
0
220
0
230
0
 70
    8
 71
    3
 72
    8
 73
    4
 74
    0
 42
1e-07
 43
1e-07
 40
0
 40
0
 40
0
 40
0
 40
1
 40
1
 40
1
 40
1
 10
93.683864
 20
163.840418
 30
0
 10
93.153396
 20
163.534152
 30
0
 10
92.82661400000001
 20
162.968149
 30
0
 10
92.82661400000001
 20
162.355618
 30
0
  0
SPLINE
  5
FB
100
AcDbEntity
  8
Layer4
  6
ByLayer
 62
    7
370
   -1
100
AcDbSpline
210
0
220
0
230
0
 70
    8
 71
    3
 72
    8
 73
    4
 74
    0
 42
1e-07
 43
1e-07
 40
0
 40
0
 40
0
 40
0
 40
1
 40
1
 40
1
 40
1
 10
92.82661400000001
 20
162.355618
 30
0
 10
92.82661400000001
 20
161.743086
 30
0
 10
93.153396
 20
161.177083
 30
0
 10
93.683864
 20
160.870817
 30
0
  0
SPLINE
  5
FC
100
AcDbEntity
  8
Layer4
  6
ByLayer
 62
    7
370
   -1
100
AcDbSpline
210
0
220
0
230
0
 70
    8
 71
    3
 72
    8
 73
    4
 74
    0
 42
1e-07
 43
1e-07
 40
0
 40
0
 40
0
 40
0
 40
1
 40
1
 40
1
 40
1
 10
93.683864
 20
160.870817
 30
0
 10
94.214332
 20
160.564551
 30
0
 10
94.867896
 20
160.564551
 30
0
 10
95.398364
 20
160.870817
 30
0
  0
SPLINE
  5
FD
100
AcDbEntity
  8
Layer4
  6
ByLayer
 62
    7
370
   -1
100
AcDbSpline
210
0
220
0
230
0
 70
    8
 71
    3
 72
    8
 73
    4
 74
    0
 42
1e-07
 43
1e-07
 40
0
 40
0
 40
0
 40
0
 40
1
 40
1
 40
1
 40
1
 10
95.398364
 20
160.870817
 30
0
 10
95.928832
 20
161.177083
 30
0
 10
96.25561399999999
 20
161.743086
 30
0
 10
96.25561399999999
 20
162.355618
 30
0
  0
LWPOLYLINE
  5
FE
100
AcDbEntity
  8
Layer4
  6
ByLayer
 62
    7
370
   -1
100
AcDbPolyline
 90
    1
 70
    1
 43
0
 10
239.891117
 20
194.641116
  0
SPLINE
  5
FF
100
AcDbEntity
  8
Layer4
  6
ByLayer
 62
    7
370
   -1
100
AcDbSpline
210
0
220
0
230
0
 70
    8
 71
    3
 72
    8
 73
    4
 74
    0
 42
1e-07
 43
1e-07
 40
0
 40
0
 40
0
 40
0
 40
1
 40
1
 40
1
 40
1
 10
96.25561399999999
 20
140.105614
 30
0
 10
96.25561399999999
 20
140.718146
 30
0
 10
95.928832
 20
141.284149
 30
0
 10
95.398364
 20
141.590415
 30
0
  0
SPLINE
  5
100
100
AcDbEntity
  8
Layer4
  6
ByLayer
 62
    7
370
   -1
100
AcDbSpline
210
0
220
0
230
0
 70
    8
 71
    3
 72
    8
 73
    4
 74
    0
 42
1e-07
 43
1e-07
 40
0
 40
0
 40
0
 40
0
 40
1
 40
1
 40
1
 40
1
 10
95.398364
 20
141.590415
 30
0
 10
94.867896
 20
141.896681
 30
0
 10
94.214332
 20
141.896681
 30
0
 10
93.683864
 20
141.590415
 30
0
  0
SPLINE
  5
101
100
AcDbEntity
  8
Layer4
  6
ByLayer
 62
    7
370
   -1
100
AcDbSpline
210
0
220
0
230
0
 70
    8
 71
    3
 72
    8
 73
    4
 74
    0
 42
1e-07
 43
1e-07
 40
0
 40
0
 40
0
 40
0
 40
1
 40
1
 40
1
 40
1
 10
93.683864
 20
141.590415
 30
0
 10
93.153396
 20
141.284149
 30
0
 10
92.82661400000001
 20
140.718146
 30
0
 10
92.82661400000001
 20
140.105614
 30
0
  0
SPLINE
  5
102
100
AcDbEntity
  8
Layer4
  6
ByLayer
 62
    7
370
   -1
100
AcDbSpline
210
0
220
0
230
0
 70
    8
 71
    3
 72
    8
 73
    4
 74
    0
 42
1e-07
 43
1e-07
 40
0
 40
0
 40
0
 40
0
 40
1
 40
1
 40
1
 40
1
 10
92.82661400000001
 20
140.105614
 30
0
 10
92.82661400000001
 20
139.493083
 30
0
 10
93.153396
 20
138.92708
 30
0
 10
93.683864
 20
138.620814
 30
0
  0
SPLINE
  5
103
100
AcDbEntity
  8
Layer4
  6
ByLayer
 62
    7
370
   -1
100
AcDbSpline
210
0
220
0
230
0
 70
    8
 71
    3
 72
    8
 73
    4
 74
    0
 42
1e-07
 43
1e-07
 40
0
 40
0
 40
0
 40
0
 40
1
 40
1
 40
1
 40
1
 10
93.683864
 20
138.620814
 30
0
 10
94.214332
 20
138.314548
 30
0
 10
94.867896
 20
138.314548
 30
0
 10
95.398364
 20
138.620814
 30
0
  0
SPLINE
  5
104
100
AcDbEntity
  8
Layer4
  6
ByLayer
 62
    7
370
   -1
100
AcDbSpline
210
0
220
0
230
0
 70
    8
 71
    3
 72
    8
 73
    4
 74
    0
 42
1e-07
 43
1e-07
 40
0
 40
0
 40
0
 40
0
 40
1
 40
1
 40
1
 40
1
 10
95.398364
 20
138.620814
 30
0
 10
95.928832
 20
138.92708
 30
0
 10
96.25561399999999
 20
139.493083
 30
0
 10
96.25561399999999
 20
140.105614
 30
0
  0
LWPOLYLINE
  5
105
100
AcDbEntity
  8
Layer4
  6
ByLayer
 62
    7
370
   -1
100
AcDbPolyline
 90
    1
 70
    1
 43
0
 10
96.25561399999999
 20
162.355618
  0
SPLINE
  5
106
100
AcDbEntity
  8
Layer4
  6
ByLayer
 62
    7
370
   -1
100
AcDbSpline
210
0
220
0
230
0
 70
    8
 71
    3
 72
    8
 73
    4
 74
    0
 42
1e-07
 43
1e-07
 40
0
 40
0
 40
0
 40
0
 40
1
 40
1
 40
1
 40
1
 10
96.25561399999999
 20
117.855617
 30
0
 10
96.25561399999999
 20
118.468148
 30
0
 10
95.928832
 20
119.034151
 30
0
 10
95.398364
 20
119.340417
 30
0
  0
SPLINE
  5
107
100
AcDbEntity
  8
Layer4
  6
ByLayer
 62
    7
370
   -1
100
AcDbSpline
210
0
220
0
230
0
 70
    8
 71
    3
 72
    8
 73
    4
 74
    0
 42
1e-07
 43
1e-07
 40
0
 40
0
 40
0
 40
0
 40
1
 40
1
 40
1
 40
1
 10
95.398364
 20
119.340417
 30
0
 10
94.867896
 20
119.646683
 30
0
 10
94.214332
 20
119.646683
 30
0
 10
93.683864
 20
119.340417
 30
0
  0
SPLINE
  5
108
100
AcDbEntity
  8
Layer4
  6
ByLayer
 62
    7
370
   -1
100
AcDbSpline
210
0
220
0
230
0
 70
    8
 71
    3
 72
    8
 73
    4
 74
    0
 42
1e-07
 43
1e-07
 40
0
 40
0
 40
0
 40
0
 40
1
 40
1
 40
1
 40
1
 10
93.683864
 20
119.340417
 30
0
 10
93.153396
 20
119.034151
 30
0
 10
92.82661400000001
 20
118.468148
 30
0
 10
92.82661400000001
 20
117.855617
 30
0
  0
SPLINE
  5
109
100
AcDbEntity
  8
Layer4
  6
ByLayer
 62
    7
370
   -1
100
AcDbSpline
210
0
220
0
230
0
 70
    8
 71
    3
 72
    8
 73
    4
 74
    0
 42
1e-07
 43
1e-07
 40
0
 40
0
 40
0
 40
0
 40
1
 40
1
 40
1
 40
1
 10
92.82661400000001
 20
117.855617
 30
0
 10
92.82661400000001
 20
117.243085
 30
0
 10
93.153396
 20
116.677082
 30
0
 10
93.683864
 20
116.370816
 30
0
  0
SPLINE
  5
10A
100
AcDbEntity
  8
Layer4
  6
ByLayer
 62
    7
370
   -1
100
AcDbSpline
210
0
220
0
230
0
 70
    8
 71
    3
 72
    8
 73
    4
 74
    0
 42
1e-07
 43
1e-07
 40
0
 40
0
 40
0
 40
0
 40
1
 40
1
 40
1
 40
1
 10
93.683864
 20
116.370816
 30
0
 10
94.214332
 20
116.06455
 30
0
 10
94.867896
 20
116.06455
 30
0
 10
95.398364
 20
116.370816
 30
0
  0
SPLINE
  5
10B
100
AcDbEntity
  8
Layer4
  6
ByLayer
 62
    7
370
   -1
100
AcDbSpline
210
0
220
0
230
0
 70
    8
 71
    3
 72
    8
 73
    4
 74
    0
 42
1e-07
 43
1e-07
 40
0
 40
0
 40
0
 40
0
 40
1
 40
1
 40
1
 40
1
 10
95.398364
 20
116.370816
 30
0
 10
95.928832
 20
116.677082
 30
0
 10
96.25561399999999
 20
117.243085
 30
0
 10
96.25561399999999
 20
117.855617
 30
0
  0
LWPOLYLINE
  5
10C
100
AcDbEntity
  8
Layer4
  6
ByLayer
 62
    7
370
   -1
100
AcDbPolyline
 90
    1
 70
    1
 43
0
 10
96.25561399999999
 20
140.105614
  0
SPLINE
  5
10D
100
AcDbEntity
  8
Layer4
  6
ByLayer
 62
    7
370
   -1
100
AcDbSpline
210
0
220
0
230
0
 70
    8
 71
    3
 72
    8
 73
    4
 74
    0
 42
1e-07
 43
1e-07
 40
0
 40
0
 40
0
 40
0
 40
1
 40
1
 40
1
 40
1
 10
96.25561399999999
 20
95.605616
 30
0
 10
96.25561399999999
 20
96.218148
 30
0
 10
95.928832
 20
96.78415099999999
 30
0
 10
95.398364
 20
97.090417
 30
0
  0
SPLINE
  5
10E
100
AcDbEntity
  8
Layer4
  6
ByLayer
 62
    7
370
   -1
100
AcDbSpline
210
0
220
0
230
0
 70
    8
 71
    3
 72
    8
 73
    4
 74
    0
 42
1e-07
 43
1e-07
 40
0
 40
0
 40
0
 40
0
 40
1
 40
1
 40
1
 40
1
 10
95.398364
 20
97.090417
 30
0
 10
94.867896
 20
97.396683
 30
0
 10
94.214332
 20
97.396683
 30
0
 10
93.683864
 20
97.090417
 30
0
  0
SPLINE
  5
10F
100
AcDbEntity
  8
Layer4
  6
ByLayer
 62
    7
370
   -1
100
AcDbSpline
210
0
220
0
230
0
 70
    8
 71
    3
 72
    8
 73
    4
 74
    0
 42
1e-07
 43
1e-07
 40
0
 40
0
 40
0
 40
0
 40
1
 40
1
 40
1
 40
1
 10
93.683864
 20
97.090417
 30
0
 10
93.153396
 20
96.78415099999999
 30
0
 10
92.82661400000001
 20
96.218148
 30
0
 10
92.82661400000001
 20
95.605616
 30
0
  0
SPLINE
  5
110
100
AcDbEntity
  8
Layer4
  6
ByLayer
 62
    7
370
   -1
100
AcDbSpline
210
0
220
0
230
0
 70
    8
 71
    3
 72
    8
 73
    4
 74
    0
 42
1e-07
 43
1e-07
 40
0
 40
0
 40
0
 40
0
 40
1
 40
1
 40
1
 40
1
 10
92.82661400000001
 20
95.605616
 30
0
 10
92.82661400000001
 20
94.993084
 30
0
 10
93.153396
 20
94.427082
 30
0
 10
93.683864
 20
94.120816
 30
0
  0
SPLINE
  5
111
100
AcDbEntity
  8
Layer4
  6
ByLayer
 62
    7
370
   -1
100
AcDbSpline
210
0
220
0
230
0
 70
    8
 71
    3
 72
    8
 73
    4
 74
    0
 42
1e-07
 43
1e-07
 40
0
 40
0
 40
0
 40
0
 40
1
 40
1
 40
1
 40
1
 10
93.683864
 20
94.120816
 30
0
 10
94.214332
 20
93.81455
 30
0
 10
94.867896
 20
93.81455
 30
0
 10
95.398364
 20
94.120816
 30
0
  0
SPLINE
  5
112
100
AcDbEntity
  8
Layer4
  6
ByLayer
 62
    7
370
   -1
100
AcDbSpline
210
0
220
0
230
0
 70
    8
 71
    3
 72
    8
 73
    4
 74
    0
 42
1e-07
 43
1e-07
 40
0
 40
0
 40
0
 40
0
 40
1
 40
1
 40
1
 40
1
 10
95.398364
 20
94.120816
 30
0
 10
95.928832
 20
94.427082
 30
0
 10
96.25561399999999
 20
94.993084
 30
0
 10
96.25561399999999
 20
95.605616
 30
0
  0
LWPOLYLINE
  5
113
100
AcDbEntity
  8
Layer4
  6
ByLayer
 62
    7
370
   -1
100
AcDbPolyline
 90
    1
 70
    1
 43
0
 10
96.25561399999999
 20
117.855617
  0
SPLINE
  5
114
100
AcDbEntity
  8
Layer4
  6
ByLayer
 62
    7
370
   -1
100
AcDbSpline
210
0
220
0
230
0
 70
    8
 71
    3
 72
    8
 73
    4
 74
    0
 42
1e-07
 43
1e-07
 40
0
 40
0
 40
0
 40
0
 40
1
 40
1
 40
1
 40
1
 10
96.25561399999999
 20
72.35561800000001
 30
0
 10
96.25561399999999
 20
72.96814999999999
 30
0
 10
95.928832
 20
73.53415200000001
 30
0
 10
95.398364
 20
73.840418
 30
0
  0
SPLINE
  5
115
100
AcDbEntity
  8
Layer4
  6
ByLayer
 62
    7
370
   -1
100
AcDbSpline
210
0
220
0
230
0
 70
    8
 71
    3
 72
    8
 73
    4
 74
    0
 42
1e-07
 43
1e-07
 40
0
 40
0
 40
0
 40
0
 40
1
 40
1
 40
1
 40
1
 10
95.398364
 20
73.840418
 30
0
 10
94.867896
 20
74.14668399999999
 30
0
 10
94.214332
 20
74.14668399999999
 30
0
 10
93.683864
 20
73.840418
 30
0
  0
SPLINE
  5
116
100
AcDbEntity
  8
Layer4
  6
ByLayer
 62
    7
370
   -1
100
AcDbSpline
210
0
220
0
230
0
 70
    8
 71
    3
 72
    8
 73
    4
 74
    0
 42
1e-07
 43
1e-07
 40
0
 40
0
 40
0
 40
0
 40
1
 40
1
 40
1
 40
1
 10
93.683864
 20
73.840418
 30
0
 10
93.153396
 20
73.53415200000001
 30
0
 10
92.82661400000001
 20
72.96814999999999
 30
0
 10
92.82661400000001
 20
72.35561800000001
 30
0
  0
SPLINE
  5
117
100
AcDbEntity
  8
Layer4
  6
ByLayer
 62
    7
370
   -1
100
AcDbSpline
210
0
220
0
230
0
 70
    8
 71
    3
 72
    8
 73
    4
 74
    0
 42
1e-07
 43
1e-07
 40
0
 40
0
 40
0
 40
0
 40
1
 40
1
 40
1
 40
1
 10
92.82661400000001
 20
72.35561800000001
 30
0
 10
92.82661400000001
 20
71.74308600000001
 30
0
 10
93.153396
 20
71.177083
 30
0
 10
93.683864
 20
70.870817
 30
0
  0
SPLINE
  5
118
100
AcDbEntity
  8
Layer4
  6
ByLayer
 62
    7
370
   -1
100
AcDbSpline
210
0
220
0
230
0
 70
    8
 71
    3
 72
    8
 73
    4
 74
    0
 42
1e-07
 43
1e-07
 40
0
 40
0
 40
0
 40
0
 40
1
 40
1
 40
1
 40
1
 10
93.683864
 20
70.870817
 30
0
 10
94.214332
 20
70.56455099999999
 30
0
 10
94.867896
 20
70.56455099999999
 30
0
 10
95.398364
 20
70.870817
 30
0
  0
SPLINE
  5
119
100
AcDbEntity
  8
Layer4
  6
ByLayer
 62
    7
370
   -1
100
AcDbSpline
210
0
220
0
230
0
 70
    8
 71
    3
 72
    8
 73
    4
 74
    0
 42
1e-07
 43
1e-07
 40
0
 40
0
 40
0
 40
0
 40
1
 40
1
 40
1
 40
1
 10
95.398364
 20
70.870817
 30
0
 10
95.928832
 20
71.177083
 30
0
 10
96.25561399999999
 20
71.74308600000001
 30
0
 10
96.25561399999999
 20
72.35561800000001
 30
0
  0
LWPOLYLINE
  5
11A
100
AcDbEntity
  8
Layer4
  6
ByLayer
 62
    7
370
   -1
100
AcDbPolyline
 90
    1
 70
    1
 43
0
 10
96.25561399999999
 20
95.605616
  0
SPLINE
  5
11B
100
AcDbEntity
  8
Layer4
  6
ByLayer
 62
    7
370
   -1
100
AcDbSpline
210
0
220
0
230
0
 70
    8
 71
    3
 72
    8
 73
    4
 74
    0
 42
1e-07
 43
1e-07
 40
0
 40
0
 40
0
 40
0
 40
1
 40
1
 40
1
 40
1
 10
96.25561399999999
 20
50.105617
 30
0
 10
96.25561399999999
 20
50.718149
 30
0
 10
95.928832
 20
51.284152
 30
0
 10
95.398364
 20
51.590418
 30
0
  0
SPLINE
  5
11C
100
AcDbEntity
  8
Layer4
  6
ByLayer
 62
    7
370
   -1
100
AcDbSpline
210
0
220
0
230
0
 70
    8
 71
    3
 72
    8
 73
    4
 74
    0
 42
1e-07
 43
1e-07
 40
0
 40
0
 40
0
 40
0
 40
1
 40
1
 40
1
 40
1
 10
95.398364
 20
51.590418
 30
0
 10
94.867896
 20
51.896684
 30
0
 10
94.214332
 20
51.896684
 30
0
 10
93.683864
 20
51.590418
 30
0
  0
SPLINE
  5
11D
100
AcDbEntity
  8
Layer4
  6
ByLayer
 62
    7
370
   -1
100
AcDbSpline
210
0
220
0
230
0
 70
    8
 71
    3
 72
    8
 73
    4
 74
    0
 42
1e-07
 43
1e-07
 40
0
 40
0
 40
0
 40
0
 40
1
 40
1
 40
1
 40
1
 10
93.683864
 20
51.590418
 30
0
 10
93.153396
 20
51.284152
 30
0
 10
92.82661400000001
 20
50.718149
 30
0
 10
92.82661400000001
 20
50.105617
 30
0
  0
SPLINE
  5
11E
100
AcDbEntity
  8
Layer4
  6
ByLayer
 62
    7
370
   -1
100
AcDbSpline
210
0
220
0
230
0
 70
    8
 71
    3
 72
    8
 73
    4
 74
    0
 42
1e-07
 43
1e-07
 40
0
 40
0
 40
0
 40
0
 40
1
 40
1
 40
1
 40
1
 10
92.82661400000001
 20
50.105617
 30
0
 10
92.82661400000001
 20
49.493085
 30
0
 10
93.153396
 20
48.927083
 30
0
 10
93.683864
 20
48.620817
 30
0
  0
SPLINE
  5
11F
100
AcDbEntity
  8
Layer4
  6
ByLayer
 62
    7
370
   -1
100
AcDbSpline
210
0
220
0
230
0
 70
    8
 71
    3
 72
    8
 73
    4
 74
    0
 42
1e-07
 43
1e-07
 40
0
 40
0
 40
0
 40
0
 40
1
 40
1
 40
1
 40
1
 10
93.683864
 20
48.620817
 30
0
 10
94.214332
 20
48.314551
 30
0
 10
94.867896
 20
48.314551
 30
0
 10
95.398364
 20
48.620817
 30
0
  0
SPLINE
  5
120
100
AcDbEntity
  8
Layer4
  6
ByLayer
 62
    7
370
   -1
100
AcDbSpline
210
0
220
0
230
0
 70
    8
 71
    3
 72
    8
 73
    4
 74
    0
 42
1e-07
 43
1e-07
 40
0
 40
0
 40
0
 40
0
 40
1
 40
1
 40
1
 40
1
 10
95.398364
 20
48.620817
 30
0
 10
95.928832
 20
48.927083
 30
0
 10
96.25561399999999
 20
49.493085
 30
0
 10
96.25561399999999
 20
50.105617
 30
0
  0
LWPOLYLINE
  5
121
100
AcDbEntity
  8
Layer4
  6
ByLayer
 62
    7
370
   -1
100
AcDbPolyline
 90
    1
 70
    1
 43
0
 10
96.25561399999999
 20
72.35561800000001
  0
SPLINE
  5
122
100
AcDbEntity
  8
Layer4
  6
ByLayer
 62
    7
370
   -1
100
AcDbSpline
210
0
220
0
230
0
 70
    8
 71
    3
 72
    8
 73
    4
 74
    0
 42
1e-07
 43
1e-07
 40
0
 40
0
 40
0
 40
0
 40
1
 40
1
 40
1
 40
1
 10
96.25561399999999
 20
27.855614
 30
0
 10
96.25561399999999
 20
28.468146
 30
0
 10
95.928832
 20
29.034149
 30
0
 10
95.398364
 20
29.340415
 30
0
  0
SPLINE
  5
123
100
AcDbEntity
  8
Layer4
  6
ByLayer
 62
    7
370
   -1
100
AcDbSpline
210
0
220
0
230
0
 70
    8
 71
    3
 72
    8
 73
    4
 74
    0
 42
1e-07
 43
1e-07
 40
0
 40
0
 40
0
 40
0
 40
1
 40
1
 40
1
 40
1
 10
95.398364
 20
29.340415
 30
0
 10
94.867896
 20
29.646681
 30
0
 10
94.214332
 20
29.646681
 30
0
 10
93.683864
 20
29.340415
 30
0
  0
SPLINE
  5
124
100
AcDbEntity
  8
Layer4
  6
ByLayer
 62
    7
370
   -1
100
AcDbSpline
210
0
220
0
230
0
 70
    8
 71
    3
 72
    8
 73
    4
 74
    0
 42
1e-07
 43
1e-07
 40
0
 40
0
 40
0
 40
0
 40
1
 40
1
 40
1
 40
1
 10
93.683864
 20
29.340415
 30
0
 10
93.153396
 20
29.034149
 30
0
 10
92.82661400000001
 20
28.468146
 30
0
 10
92.82661400000001
 20
27.855614
 30
0
  0
SPLINE
  5
125
100
AcDbEntity
  8
Layer4
  6
ByLayer
 62
    7
370
   -1
100
AcDbSpline
210
0
220
0
230
0
 70
    8
 71
    3
 72
    8
 73
    4
 74
    0
 42
1e-07
 43
1e-07
 40
0
 40
0
 40
0
 40
0
 40
1
 40
1
 40
1
 40
1
 10
92.82661400000001
 20
27.855614
 30
0
 10
92.82661400000001
 20
27.243082
 30
0
 10
93.153396
 20
26.677079
 30
0
 10
93.683864
 20
26.370814
 30
0
  0
SPLINE
  5
126
100
AcDbEntity
  8
Layer4
  6
ByLayer
 62
    7
370
   -1
100
AcDbSpline
210
0
220
0
230
0
 70
    8
 71
    3
 72
    8
 73
    4
 74
    0
 42
1e-07
 43
1e-07
 40
0
 40
0
 40
0
 40
0
 40
1
 40
1
 40
1
 40
1
 10
93.683864
 20
26.370814
 30
0
 10
94.214332
 20
26.064548
 30
0
 10
94.867896
 20
26.064548
 30
0
 10
95.398364
 20
26.370814
 30
0
  0
SPLINE
  5
127
100
AcDbEntity
  8
Layer4
  6
ByLayer
 62
    7
370
   -1
100
AcDbSpline
210
0
220
0
230
0
 70
    8
 71
    3
 72
    8
 73
    4
 74
    0
 42
1e-07
 43
1e-07
 40
0
 40
0
 40
0
 40
0
 40
1
 40
1
 40
1
 40
1
 10
95.398364
 20
26.370814
 30
0
 10
95.928832
 20
26.677079
 30
0
 10
96.25561399999999
 20
27.243082
 30
0
 10
96.25561399999999
 20
27.855614
 30
0
  0
LWPOLYLINE
  5
128
100
AcDbEntity
  8
Layer4
  6
ByLayer
 62
    7
370
   -1
100
AcDbPolyline
 90
    1
 70
    1
 43
0
 10
96.25561399999999
 20
50.105617
  0
SPLINE
  5
129
100
AcDbEntity
  8
Layer4
  6
ByLayer
 62
    7
370
   -1
100
AcDbSpline
210
0
220
0
230
0
 70
    8
 71
    3
 72
    8
 73
    4
 74
    0
 42
1e-07
 43
1e-07
 40
0
 40
0
 40
0
 40
0
 40
1
 40
1
 40
1
 40
1
 10
96.25561399999999
 20
5.605595
 30
0
 10
96.25561399999999
 20
6.218127
 30
0
 10
95.928832
 20
6.78413
 30
0
 10
95.398364
 20
7.090396
 30
0
  0
SPLINE
  5
12A
100
AcDbEntity
  8
Layer4
  6
ByLayer
 62
    7
370
   -1
100
AcDbSpline
210
0
220
0
230
0
 70
    8
 71
    3
 72
    8
 73
    4
 74
    0
 42
1e-07
 43
1e-07
 40
0
 40
0
 40
0
 40
0
 40
1
 40
1
 40
1
 40
1
 10
95.398364
 20
7.090396
 30
0
 10
94.867896
 20
7.396662
 30
0
 10
94.214332
 20
7.396662
 30
0
 10
93.683864
 20
7.090396
 30
0
  0
SPLINE
  5
12B
100
AcDbEntity
  8
Layer4
  6
ByLayer
 62
    7
370
   -1
100
AcDbSpline
210
0
220
0
230
0
 70
    8
 71
    3
 72
    8
 73
    4
 74
    0
 42
1e-07
 43
1e-07
 40
0
 40
0
 40
0
 40
0
 40
1
 40
1
 40
1
 40
1
 10
93.683864
 20
7.090396
 30
0
 10
93.153396
 20
6.78413
 30
0
 10
92.82661400000001
 20
6.218127
 30
0
 10
92.82661400000001
 20
5.605595
 30
0
  0
SPLINE
  5
12C
100
AcDbEntity
  8
Layer4
  6
ByLayer
 62
    7
370
   -1
100
AcDbSpline
210
0
220
0
230
0
 70
    8
 71
    3
 72
    8
 73
    4
 74
    0
 42
1e-07
 43
1e-07
 40
0
 40
0
 40
0
 40
0
 40
1
 40
1
 40
1
 40
1
 10
92.82661400000001
 20
5.605595
 30
0
 10
92.82661400000001
 20
4.993063
 30
0
 10
93.153396
 20
4.42706
 30
0
 10
93.683864
 20
4.120795
 30
0
  0
SPLINE
  5
12D
100
AcDbEntity
  8
Layer4
  6
ByLayer
 62
    7
370
   -1
100
AcDbSpline
210
0
220
0
230
0
 70
    8
 71
    3
 72
    8
 73
    4
 74
    0
 42
1e-07
 43
1e-07
 40
0
 40
0
 40
0
 40
0
 40
1
 40
1
 40
1
 40
1
 10
93.683864
 20
4.120795
 30
0
 10
94.214332
 20
3.814529
 30
0
 10
94.867896
 20
3.814529
 30
0
 10
95.398364
 20
4.120795
 30
0
  0
SPLINE
  5
12E
100
AcDbEntity
  8
Layer4
  6
ByLayer
 62
    7
370
   -1
100
AcDbSpline
210
0
220
0
230
0
 70
    8
 71
    3
 72
    8
 73
    4
 74
    0
 42
1e-07
 43
1e-07
 40
0
 40
0
 40
0
 40
0
 40
1
 40
1
 40
1
 40
1
 10
95.398364
 20
4.120795
 30
0
 10
95.928832
 20
4.42706
 30
0
 10
96.25561399999999
 20
4.993063
 30
0
 10
96.25561399999999
 20
5.605595
 30
0
  0
LWPOLYLINE
  5
12F
100
AcDbEntity
  8
Layer4
  6
ByLayer
 62
    7
370
   -1
100
AcDbPolyline
 90
    1
 70
    1
 43
0
 10
96.25561399999999
 20
27.855614
  0
SPLINE
  5
130
100
AcDbEntity
  8
Layer4
  6
ByLayer
 62
    7
370
   -1
100
AcDbSpline
210
0
220
0
230
0
 70
    8
 71
    3
 72
    8
 73
    4
 74
    0
 42
1e-07
 43
1e-07
 40
0
 40
0
 40
0
 40
0
 40
1
 40
1
 40
1
 40
1
 10
96.25561399999999
 20
184.355619
 30
0
 10
96.25561399999999
 20
184.96815
 30
0
 10
95.928832
 20
185.534153
 30
0
 10
95.398364
 20
185.840419
 30
0
  0
SPLINE
  5
131
100
AcDbEntity
  8
Layer4
  6
ByLayer
 62
    7
370
   -1
100
AcDbSpline
210
0
220
0
230
0
 70
    8
 71
    3
 72
    8
 73
    4
 74
    0
 42
1e-07
 43
1e-07
 40
0
 40
0
 40
0
 40
0
 40
1
 40
1
 40
1
 40
1
 10
95.398364
 20
185.840419
 30
0
 10
94.867896
 20
186.146685
 30
0
 10
94.214332
 20
186.146685
 30
0
 10
93.683864
 20
185.840419
 30
0
  0
SPLINE
  5
132
100
AcDbEntity
  8
Layer4
  6
ByLayer
 62
    7
370
   -1
100
AcDbSpline
210
0
220
0
230
0
 70
    8
 71
    3
 72
    8
 73
    4
 74
    0
 42
1e-07
 43
1e-07
 40
0
 40
0
 40
0
 40
0
 40
1
 40
1
 40
1
 40
1
 10
93.683864
 20
185.840419
 30
0
 10
93.153396
 20
185.534153
 30
0
 10
92.82661400000001
 20
184.96815
 30
0
 10
92.82661400000001
 20
184.355619
 30
0
  0
SPLINE
  5
133
100
AcDbEntity
  8
Layer4
  6
ByLayer
 62
    7
370
   -1
100
AcDbSpline
210
0
220
0
230
0
 70
    8
 71
    3
 72
    8
 73
    4
 74
    0
 42
1e-07
 43
1e-07
 40
0
 40
0
 40
0
 40
0
 40
1
 40
1
 40
1
 40
1
 10
92.82661400000001
 20
184.355619
 30
0
 10
92.82661400000001
 20
183.743087
 30
0
 10
93.153396
 20
183.177084
 30
0
 10
93.683864
 20
182.870818
 30
0
  0
SPLINE
  5
134
100
AcDbEntity
  8
Layer4
  6
ByLayer
 62
    7
370
   -1
100
AcDbSpline
210
0
220
0
230
0
 70
    8
 71
    3
 72
    8
 73
    4
 74
    0
 42
1e-07
 43
1e-07
 40
0
 40
0
 40
0
 40
0
 40
1
 40
1
 40
1
 40
1
 10
93.683864
 20
182.870818
 30
0
 10
94.214332
 20
182.564552
 30
0
 10
94.867896
 20
182.564552
 30
0
 10
95.398364
 20
182.870818
 30
0
  0
SPLINE
  5
135
100
AcDbEntity
  8
Layer4
  6
ByLayer
 62
    7
370
   -1
100
AcDbSpline
210
0
220
0
230
0
 70
    8
 71
    3
 72
    8
 73
    4
 74
    0
 42
1e-07
 43
1e-07
 40
0
 40
0
 40
0
 40
0
 40
1
 40
1
 40
1
 40
1
 10
95.398364
 20
182.870818
 30
0
 10
95.928832
 20
183.177084
 30
0
 10
96.25561399999999
 20
183.743087
 30
0
 10
96.25561399999999
 20
184.355619
 30
0
  0
LWPOLYLINE
  5
136
100
AcDbEntity
  8
Layer4
  6
ByLayer
 62
    7
370
   -1
100
AcDbPolyline
 90
    1
 70
    1
 43
0
 10
96.25561399999999
 20
5.605595
  0
SPLINE
  5
137
100
AcDbEntity
  8
Layer4
  6
ByLayer
 62
    7
370
   -1
100
AcDbSpline
210
0
220
0
230
0
 70
    8
 71
    3
 72
    8
 73
    4
 74
    0
 42
1e-07
 43
1e-07
 40
0
 40
0
 40
0
 40
0
 40
1
 40
1
 40
1
 40
1
 10
157.455612
 20
162.355618
 30
0
 10
157.455612
 20
162.968149
 30
0
 10
157.12883
 20
163.534152
 30
0
 10
156.598362
 20
163.840418
 30
0
  0
SPLINE
  5
138
100
AcDbEntity
  8
Layer4
  6
ByLayer
 62
    7
370
   -1
100
AcDbSpline
210
0
220
0
230
0
 70
    8
 71
    3
 72
    8
 73
    4
 74
    0
 42
1e-07
 43
1e-07
 40
0
 40
0
 40
0
 40
0
 40
1
 40
1
 40
1
 40
1
 10
156.598362
 20
163.840418
 30
0
 10
156.067894
 20
164.146684
 30
0
 10
155.41433
 20
164.146684
 30
0
 10
154.883862
 20
163.840418
 30
0
  0
SPLINE
  5
139
100
AcDbEntity
  8
Layer4
  6
ByLayer
 62
    7
370
   -1
100
AcDbSpline
210
0
220
0
230
0
 70
    8
 71
    3
 72
    8
 73
    4
 74
    0
 42
1e-07
 43
1e-07
 40
0
 40
0
 40
0
 40
0
 40
1
 40
1
 40
1
 40
1
 10
154.883862
 20
163.840418
 30
0
 10
154.353394
 20
163.534152
 30
0
 10
154.026612
 20
162.968149
 30
0
 10
154.026612
 20
162.355618
 30
0
  0
SPLINE
  5
13A
100
AcDbEntity
  8
Layer4
  6
ByLayer
 62
    7
370
   -1
100
AcDbSpline
210
0
220
0
230
0
 70
    8
 71
    3
 72
    8
 73
    4
 74
    0
 42
1e-07
 43
1e-07
 40
0
 40
0
 40
0
 40
0
 40
1
 40
1
 40
1
 40
1
 10
154.026612
 20
162.355618
 30
0
 10
154.026612
 20
161.743086
 30
0
 10
154.353394
 20
161.177083
 30
0
 10
154.883862
 20
160.870817
 30
0
  0
SPLINE
  5
13B
100
AcDbEntity
  8
Layer4
  6
ByLayer
 62
    7
370
   -1
100
AcDbSpline
210
0
220
0
230
0
 70
    8
 71
    3
 72
    8
 73
    4
 74
    0
 42
1e-07
 43
1e-07
 40
0
 40
0
 40
0
 40
0
 40
1
 40
1
 40
1
 40
1
 10
154.883862
 20
160.870817
 30
0
 10
155.41433
 20
160.564551
 30
0
 10
156.067894
 20
160.564551
 30
0
 10
156.598362
 20
160.870817
 30
0
  0
SPLINE
  5
13C
100
AcDbEntity
  8
Layer4
  6
ByLayer
 62
    7
370
   -1
100
AcDbSpline
210
0
220
0
230
0
 70
    8
 71
    3
 72
    8
 73
    4
 74
    0
 42
1e-07
 43
1e-07
 40
0
 40
0
 40
0
 40
0
 40
1
 40
1
 40
1
 40
1
 10
156.598362
 20
160.870817
 30
0
 10
157.12883
 20
161.177083
 30
0
 10
157.455612
 20
161.743086
 30
0
 10
157.455612
 20
162.355618
 30
0
  0
LWPOLYLINE
  5
13D
100
AcDbEntity
  8
Layer4
  6
ByLayer
 62
    7
370
   -1
100
AcDbPolyline
 90
    1
 70
    1
 43
0
 10
96.25561399999999
 20
184.355619
  0
SPLINE
  5
13E
100
AcDbEntity
  8
Layer4
  6
ByLayer
 62
    7
370
   -1
100
AcDbSpline
210
0
220
0
230
0
 70
    8
 71
    3
 72
    8
 73
    4
 74
    0
 42
1e-07
 43
1e-07
 40
0
 40
0
 40
0
 40
0
 40
1
 40
1
 40
1
 40
1
 10
157.455612
 20
140.105614
 30
0
 10
157.455612
 20
140.718146
 30
0
 10
157.12883
 20
141.284149
 30
0
 10
156.598362
 20
141.590415
 30
0
  0
SPLINE
  5
13F
100
AcDbEntity
  8
Layer4
  6
ByLayer
 62
    7
370
   -1
100
AcDbSpline
210
0
220
0
230
0
 70
    8
 71
    3
 72
    8
 73
    4
 74
    0
 42
1e-07
 43
1e-07
 40
0
 40
0
 40
0
 40
0
 40
1
 40
1
 40
1
 40
1
 10
156.598362
 20
141.590415
 30
0
 10
156.067894
 20
141.896681
 30
0
 10
155.41433
 20
141.896681
 30
0
 10
154.883862
 20
141.590415
 30
0
  0
SPLINE
  5
140
100
AcDbEntity
  8
Layer4
  6
ByLayer
 62
    7
370
   -1
100
AcDbSpline
210
0
220
0
230
0
 70
    8
 71
    3
 72
    8
 73
    4
 74
    0
 42
1e-07
 43
1e-07
 40
0
 40
0
 40
0
 40
0
 40
1
 40
1
 40
1
 40
1
 10
154.883862
 20
141.590415
 30
0
 10
154.353394
 20
141.284149
 30
0
 10
154.026612
 20
140.718146
 30
0
 10
154.026612
 20
140.105614
 30
0
  0
SPLINE
  5
141
100
AcDbEntity
  8
Layer4
  6
ByLayer
 62
    7
370
   -1
100
AcDbSpline
210
0
220
0
230
0
 70
    8
 71
    3
 72
    8
 73
    4
 74
    0
 42
1e-07
 43
1e-07
 40
0
 40
0
 40
0
 40
0
 40
1
 40
1
 40
1
 40
1
 10
154.026612
 20
140.105614
 30
0
 10
154.026612
 20
139.493083
 30
0
 10
154.353394
 20
138.92708
 30
0
 10
154.883862
 20
138.620814
 30
0
  0
SPLINE
  5
142
100
AcDbEntity
  8
Layer4
  6
ByLayer
 62
    7
370
   -1
100
AcDbSpline
210
0
220
0
230
0
 70
    8
 71
    3
 72
    8
 73
    4
 74
    0
 42
1e-07
 43
1e-07
 40
0
 40
0
 40
0
 40
0
 40
1
 40
1
 40
1
 40
1
 10
154.883862
 20
138.620814
 30
0
 10
155.41433
 20
138.314548
 30
0
 10
156.067894
 20
138.314548
 30
0
 10
156.598362
 20
138.620814
 30
0
  0
SPLINE
  5
143
100
AcDbEntity
  8
Layer4
  6
ByLayer
 62
    7
370
   -1
100
AcDbSpline
210
0
220
0
230
0
 70
    8
 71
    3
 72
    8
 73
    4
 74
    0
 42
1e-07
 43
1e-07
 40
0
 40
0
 40
0
 40
0
 40
1
 40
1
 40
1
 40
1
 10
156.598362
 20
138.620814
 30
0
 10
157.12883
 20
138.92708
 30
0
 10
157.455612
 20
139.493083
 30
0
 10
157.455612
 20
140.105614
 30
0
  0
LWPOLYLINE
  5
144
100
AcDbEntity
  8
Layer4
  6
ByLayer
 62
    7
370
   -1
100
AcDbPolyline
 90
    1
 70
    1
 43
0
 10
157.455612
 20
162.355618
  0
SPLINE
  5
145
100
AcDbEntity
  8
Layer4
  6
ByLayer
 62
    7
370
   -1
100
AcDbSpline
210
0
220
0
230
0
 70
    8
 71
    3
 72
    8
 73
    4
 74
    0
 42
1e-07
 43
1e-07
 40
0
 40
0
 40
0
 40
0
 40
1
 40
1
 40
1
 40
1
 10
157.455612
 20
117.855617
 30
0
 10
157.455612
 20
118.468148
 30
0
 10
157.12883
 20
119.034151
 30
0
 10
156.598362
 20
119.340417
 30
0
  0
SPLINE
  5
146
100
AcDbEntity
  8
Layer4
  6
ByLayer
 62
    7
370
   -1
100
AcDbSpline
210
0
220
0
230
0
 70
    8
 71
    3
 72
    8
 73
    4
 74
    0
 42
1e-07
 43
1e-07
 40
0
 40
0
 40
0
 40
0
 40
1
 40
1
 40
1
 40
1
 10
156.598362
 20
119.340417
 30
0
 10
156.067894
 20
119.646683
 30
0
 10
155.41433
 20
119.646683
 30
0
 10
154.883862
 20
119.340417
 30
0
  0
SPLINE
  5
147
100
AcDbEntity
  8
Layer4
  6
ByLayer
 62
    7
370
   -1
100
AcDbSpline
210
0
220
0
230
0
 70
    8
 71
    3
 72
    8
 73
    4
 74
    0
 42
1e-07
 43
1e-07
 40
0
 40
0
 40
0
 40
0
 40
1
 40
1
 40
1
 40
1
 10
154.883862
 20
119.340417
 30
0
 10
154.353394
 20
119.034151
 30
0
 10
154.026612
 20
118.468148
 30
0
 10
154.026612
 20
117.855617
 30
0
  0
SPLINE
  5
148
100
AcDbEntity
  8
Layer4
  6
ByLayer
 62
    7
370
   -1
100
AcDbSpline
210
0
220
0
230
0
 70
    8
 71
    3
 72
    8
 73
    4
 74
    0
 42
1e-07
 43
1e-07
 40
0
 40
0
 40
0
 40
0
 40
1
 40
1
 40
1
 40
1
 10
154.026612
 20
117.855617
 30
0
 10
154.026612
 20
117.243085
 30
0
 10
154.353394
 20
116.677082
 30
0
 10
154.883862
 20
116.370816
 30
0
  0
SPLINE
  5
149
100
AcDbEntity
  8
Layer4
  6
ByLayer
 62
    7
370
   -1
100
AcDbSpline
210
0
220
0
230
0
 70
    8
 71
    3
 72
    8
 73
    4
 74
    0
 42
1e-07
 43
1e-07
 40
0
 40
0
 40
0
 40
0
 40
1
 40
1
 40
1
 40
1
 10
154.883862
 20
116.370816
 30
0
 10
155.41433
 20
116.06455
 30
0
 10
156.067894
 20
116.06455
 30
0
 10
156.598362
 20
116.370816
 30
0
  0
SPLINE
  5
14A
100
AcDbEntity
  8
Layer4
  6
ByLayer
 62
    7
370
   -1
100
AcDbSpline
210
0
220
0
230
0
 70
    8
 71
    3
 72
    8
 73
    4
 74
    0
 42
1e-07
 43
1e-07
 40
0
 40
0
 40
0
 40
0
 40
1
 40
1
 40
1
 40
1
 10
156.598362
 20
116.370816
 30
0
 10
157.12883
 20
116.677082
 30
0
 10
157.455612
 20
117.243085
 30
0
 10
157.455612
 20
117.855617
 30
0
  0
LWPOLYLINE
  5
14B
100
AcDbEntity
  8
Layer4
  6
ByLayer
 62
    7
370
   -1
100
AcDbPolyline
 90
    1
 70
    1
 43
0
 10
157.455612
 20
140.105614
  0
SPLINE
  5
14C
100
AcDbEntity
  8
Layer4
  6
ByLayer
 62
    7
370
   -1
100
AcDbSpline
210
0
220
0
230
0
 70
    8
 71
    3
 72
    8
 73
    4
 74
    0
 42
1e-07
 43
1e-07
 40
0
 40
0
 40
0
 40
0
 40
1
 40
1
 40
1
 40
1
 10
157.455612
 20
95.605616
 30
0
 10
157.455612
 20
96.218148
 30
0
 10
157.12883
 20
96.78415099999999
 30
0
 10
156.598362
 20
97.090417
 30
0
  0
SPLINE
  5
14D
100
AcDbEntity
  8
Layer4
  6
ByLayer
 62
    7
370
   -1
100
AcDbSpline
210
0
220
0
230
0
 70
    8
 71
    3
 72
    8
 73
    4
 74
    0
 42
1e-07
 43
1e-07
 40
0
 40
0
 40
0
 40
0
 40
1
 40
1
 40
1
 40
1
 10
156.598362
 20
97.090417
 30
0
 10
156.067894
 20
97.396683
 30
0
 10
155.41433
 20
97.396683
 30
0
 10
154.883862
 20
97.090417
 30
0
  0
SPLINE
  5
14E
100
AcDbEntity
  8
Layer4
  6
ByLayer
 62
    7
370
   -1
100
AcDbSpline
210
0
220
0
230
0
 70
    8
 71
    3
 72
    8
 73
    4
 74
    0
 42
1e-07
 43
1e-07
 40
0
 40
0
 40
0
 40
0
 40
1
 40
1
 40
1
 40
1
 10
154.883862
 20
97.090417
 30
0
 10
154.353394
 20
96.78415099999999
 30
0
 10
154.026612
 20
96.218148
 30
0
 10
154.026612
 20
95.605616
 30
0
  0
SPLINE
  5
14F
100
AcDbEntity
  8
Layer4
  6
ByLayer
 62
    7
370
   -1
100
AcDbSpline
210
0
220
0
230
0
 70
    8
 71
    3
 72
    8
 73
    4
 74
    0
 42
1e-07
 43
1e-07
 40
0
 40
0
 40
0
 40
0
 40
1
 40
1
 40
1
 40
1
 10
154.026612
 20
95.605616
 30
0
 10
154.026612
 20
94.993084
 30
0
 10
154.353394
 20
94.427082
 30
0
 10
154.883862
 20
94.120816
 30
0
  0
SPLINE
  5
150
100
AcDbEntity
  8
Layer4
  6
ByLayer
 62
    7
370
   -1
100
AcDbSpline
210
0
220
0
230
0
 70
    8
 71
    3
 72
    8
 73
    4
 74
    0
 42
1e-07
 43
1e-07
 40
0
 40
0
 40
0
 40
0
 40
1
 40
1
 40
1
 40
1
 10
154.883862
 20
94.120816
 30
0
 10
155.41433
 20
93.81455
 30
0
 10
156.067894
 20
93.81455
 30
0
 10
156.598362
 20
94.120816
 30
0
  0
SPLINE
  5
151
100
AcDbEntity
  8
Layer4
  6
ByLayer
 62
    7
370
   -1
100
AcDbSpline
210
0
220
0
230
0
 70
    8
 71
    3
 72
    8
 73
    4
 74
    0
 42
1e-07
 43
1e-07
 40
0
 40
0
 40
0
 40
0
 40
1
 40
1
 40
1
 40
1
 10
156.598362
 20
94.120816
 30
0
 10
157.12883
 20
94.427082
 30
0
 10
157.455612
 20
94.993084
 30
0
 10
157.455612
 20
95.605616
 30
0
  0
LWPOLYLINE
  5
152
100
AcDbEntity
  8
Layer4
  6
ByLayer
 62
    7
370
   -1
100
AcDbPolyline
 90
    1
 70
    1
 43
0
 10
157.455612
 20
117.855617
  0
SPLINE
  5
153
100
AcDbEntity
  8
Layer4
  6
ByLayer
 62
    7
370
   -1
100
AcDbSpline
210
0
220
0
230
0
 70
    8
 71
    3
 72
    8
 73
    4
 74
    0
 42
1e-07
 43
1e-07
 40
0
 40
0
 40
0
 40
0
 40
1
 40
1
 40
1
 40
1
 10
157.455612
 20
72.35561800000001
 30
0
 10
157.455612
 20
72.96814999999999
 30
0
 10
157.12883
 20
73.53415200000001
 30
0
 10
156.598362
 20
73.840418
 30
0
  0
SPLINE
  5
154
100
AcDbEntity
  8
Layer4
  6
ByLayer
 62
    7
370
   -1
100
AcDbSpline
210
0
220
0
230
0
 70
    8
 71
    3
 72
    8
 73
    4
 74
    0
 42
1e-07
 43
1e-07
 40
0
 40
0
 40
0
 40
0
 40
1
 40
1
 40
1
 40
1
 10
156.598362
 20
73.840418
 30
0
 10
156.067894
 20
74.14668399999999
 30
0
 10
155.41433
 20
74.14668399999999
 30
0
 10
154.883862
 20
73.840418
 30
0
  0
SPLINE
  5
155
100
AcDbEntity
  8
Layer4
  6
ByLayer
 62
    7
370
   -1
100
AcDbSpline
210
0
220
0
230
0
 70
    8
 71
    3
 72
    8
 73
    4
 74
    0
 42
1e-07
 43
1e-07
 40
0
 40
0
 40
0
 40
0
 40
1
 40
1
 40
1
 40
1
 10
154.883862
 20
73.840418
 30
0
 10
154.353394
 20
73.53415200000001
 30
0
 10
154.026612
 20
72.96814999999999
 30
0
 10
154.026612
 20
72.35561800000001
 30
0
  0
SPLINE
  5
156
100
AcDbEntity
  8
Layer4
  6
ByLayer
 62
    7
370
   -1
100
AcDbSpline
210
0
220
0
230
0
 70
    8
 71
    3
 72
    8
 73
    4
 74
    0
 42
1e-07
 43
1e-07
 40
0
 40
0
 40
0
 40
0
 40
1
 40
1
 40
1
 40
1
 10
154.026612
 20
72.35561800000001
 30
0
 10
154.026612
 20
71.74308600000001
 30
0
 10
154.353394
 20
71.177083
 30
0
 10
154.883862
 20
70.870817
 30
0
  0
SPLINE
  5
157
100
AcDbEntity
  8
Layer4
  6
ByLayer
 62
    7
370
   -1
100
AcDbSpline
210
0
220
0
230
0
 70
    8
 71
    3
 72
    8
 73
    4
 74
    0
 42
1e-07
 43
1e-07
 40
0
 40
0
 40
0
 40
0
 40
1
 40
1
 40
1
 40
1
 10
154.883862
 20
70.870817
 30
0
 10
155.41433
 20
70.56455099999999
 30
0
 10
156.067894
 20
70.56455099999999
 30
0
 10
156.598362
 20
70.870817
 30
0
  0
SPLINE
  5
158
100
AcDbEntity
  8
Layer4
  6
ByLayer
 62
    7
370
   -1
100
AcDbSpline
210
0
220
0
230
0
 70
    8
 71
    3
 72
    8
 73
    4
 74
    0
 42
1e-07
 43
1e-07
 40
0
 40
0
 40
0
 40
0
 40
1
 40
1
 40
1
 40
1
 10
156.598362
 20
70.870817
 30
0
 10
157.12883
 20
71.177083
 30
0
 10
157.455612
 20
71.74308600000001
 30
0
 10
157.455612
 20
72.35561800000001
 30
0
  0
LWPOLYLINE
  5
159
100
AcDbEntity
  8
Layer4
  6
ByLayer
 62
    7
370
   -1
100
AcDbPolyline
 90
    1
 70
    1
 43
0
 10
157.455612
 20
95.605616
  0
SPLINE
  5
15A
100
AcDbEntity
  8
Layer4
  6
ByLayer
 62
    7
370
   -1
100
AcDbSpline
210
0
220
0
230
0
 70
    8
 71
    3
 72
    8
 73
    4
 74
    0
 42
1e-07
 43
1e-07
 40
0
 40
0
 40
0
 40
0
 40
1
 40
1
 40
1
 40
1
 10
157.455612
 20
50.105617
 30
0
 10
157.455612
 20
50.718149
 30
0
 10
157.12883
 20
51.284152
 30
0
 10
156.598362
 20
51.590418
 30
0
  0
SPLINE
  5
15B
100
AcDbEntity
  8
Layer4
  6
ByLayer
 62
    7
370
   -1
100
AcDbSpline
210
0
220
0
230
0
 70
    8
 71
    3
 72
    8
 73
    4
 74
    0
 42
1e-07
 43
1e-07
 40
0
 40
0
 40
0
 40
0
 40
1
 40
1
 40
1
 40
1
 10
156.598362
 20
51.590418
 30
0
 10
156.067894
 20
51.896684
 30
0
 10
155.41433
 20
51.896684
 30
0
 10
154.883862
 20
51.590418
 30
0
  0
SPLINE
  5
15C
100
AcDbEntity
  8
Layer4
  6
ByLayer
 62
    7
370
   -1
100
AcDbSpline
210
0
220
0
230
0
 70
    8
 71
    3
 72
    8
 73
    4
 74
    0
 42
1e-07
 43
1e-07
 40
0
 40
0
 40
0
 40
0
 40
1
 40
1
 40
1
 40
1
 10
154.883862
 20
51.590418
 30
0
 10
154.353394
 20
51.284152
 30
0
 10
154.026612
 20
50.718149
 30
0
 10
154.026612
 20
50.105617
 30
0
  0
SPLINE
  5
15D
100
AcDbEntity
  8
Layer4
  6
ByLayer
 62
    7
370
   -1
100
AcDbSpline
210
0
220
0
230
0
 70
    8
 71
    3
 72
    8
 73
    4
 74
    0
 42
1e-07
 43
1e-07
 40
0
 40
0
 40
0
 40
0
 40
1
 40
1
 40
1
 40
1
 10
154.026612
 20
50.105617
 30
0
 10
154.026612
 20
49.493085
 30
0
 10
154.353394
 20
48.927083
 30
0
 10
154.883862
 20
48.620817
 30
0
  0
SPLINE
  5
15E
100
AcDbEntity
  8
Layer4
  6
ByLayer
 62
    7
370
   -1
100
AcDbSpline
210
0
220
0
230
0
 70
    8
 71
    3
 72
    8
 73
    4
 74
    0
 42
1e-07
 43
1e-07
 40
0
 40
0
 40
0
 40
0
 40
1
 40
1
 40
1
 40
1
 10
154.883862
 20
48.620817
 30
0
 10
155.41433
 20
48.314551
 30
0
 10
156.067894
 20
48.314551
 30
0
 10
156.598362
 20
48.620817
 30
0
  0
SPLINE
  5
15F
100
AcDbEntity
  8
Layer4
  6
ByLayer
 62
    7
370
   -1
100
AcDbSpline
210
0
220
0
230
0
 70
    8
 71
    3
 72
    8
 73
    4
 74
    0
 42
1e-07
 43
1e-07
 40
0
 40
0
 40
0
 40
0
 40
1
 40
1
 40
1
 40
1
 10
156.598362
 20
48.620817
 30
0
 10
157.12883
 20
48.927083
 30
0
 10
157.455612
 20
49.493085
 30
0
 10
157.455612
 20
50.105617
 30
0
  0
LWPOLYLINE
  5
160
100
AcDbEntity
  8
Layer4
  6
ByLayer
 62
    7
370
   -1
100
AcDbPolyline
 90
    1
 70
    1
 43
0
 10
157.455612
 20
72.35561800000001
  0
SPLINE
  5
161
100
AcDbEntity
  8
Layer4
  6
ByLayer
 62
    7
370
   -1
100
AcDbSpline
210
0
220
0
230
0
 70
    8
 71
    3
 72
    8
 73
    4
 74
    0
 42
1e-07
 43
1e-07
 40
0
 40
0
 40
0
 40
0
 40
1
 40
1
 40
1
 40
1
 10
157.455612
 20
27.855614
 30
0
 10
157.455612
 20
28.468146
 30
0
 10
157.12883
 20
29.034149
 30
0
 10
156.598362
 20
29.340415
 30
0
  0
SPLINE
  5
162
100
AcDbEntity
  8
Layer4
  6
ByLayer
 62
    7
370
   -1
100
AcDbSpline
210
0
220
0
230
0
 70
    8
 71
    3
 72
    8
 73
    4
 74
    0
 42
1e-07
 43
1e-07
 40
0
 40
0
 40
0
 40
0
 40
1
 40
1
 40
1
 40
1
 10
156.598362
 20
29.340415
 30
0
 10
156.067894
 20
29.646681
 30
0
 10
155.41433
 20
29.646681
 30
0
 10
154.883862
 20
29.340415
 30
0
  0
SPLINE
  5
163
100
AcDbEntity
  8
Layer4
  6
ByLayer
 62
    7
370
   -1
100
AcDbSpline
210
0
220
0
230
0
 70
    8
 71
    3
 72
    8
 73
    4
 74
    0
 42
1e-07
 43
1e-07
 40
0
 40
0
 40
0
 40
0
 40
1
 40
1
 40
1
 40
1
 10
154.883862
 20
29.340415
 30
0
 10
154.353394
 20
29.034149
 30
0
 10
154.026612
 20
28.468146
 30
0
 10
154.026612
 20
27.855614
 30
0
  0
SPLINE
  5
164
100
AcDbEntity
  8
Layer4
  6
ByLayer
 62
    7
370
   -1
100
AcDbSpline
210
0
220
0
230
0
 70
    8
 71
    3
 72
    8
 73
    4
 74
    0
 42
1e-07
 43
1e-07
 40
0
 40
0
 40
0
 40
0
 40
1
 40
1
 40
1
 40
1
 10
154.026612
 20
27.855614
 30
0
 10
154.026612
 20
27.243082
 30
0
 10
154.353394
 20
26.677079
 30
0
 10
154.883862
 20
26.370814
 30
0
  0
SPLINE
  5
165
100
AcDbEntity
  8
Layer4
  6
ByLayer
 62
    7
370
   -1
100
AcDbSpline
210
0
220
0
230
0
 70
    8
 71
    3
 72
    8
 73
    4
 74
    0
 42
1e-07
 43
1e-07
 40
0
 40
0
 40
0
 40
0
 40
1
 40
1
 40
1
 40
1
 10
154.883862
 20
26.370814
 30
0
 10
155.41433
 20
26.064548
 30
0
 10
156.067894
 20
26.064548
 30
0
 10
156.598362
 20
26.370814
 30
0
  0
SPLINE
  5
166
100
AcDbEntity
  8
Layer4
  6
ByLayer
 62
    7
370
   -1
100
AcDbSpline
210
0
220
0
230
0
 70
    8
 71
    3
 72
    8
 73
    4
 74
    0
 42
1e-07
 43
1e-07
 40
0
 40
0
 40
0
 40
0
 40
1
 40
1
 40
1
 40
1
 10
156.598362
 20
26.370814
 30
0
 10
157.12883
 20
26.677079
 30
0
 10
157.455612
 20
27.243082
 30
0
 10
157.455612
 20
27.855614
 30
0
  0
LWPOLYLINE
  5
167
100
AcDbEntity
  8
Layer4
  6
ByLayer
 62
    7
370
   -1
100
AcDbPolyline
 90
    1
 70
    1
 43
0
 10
157.455612
 20
50.105617
  0
SPLINE
  5
168
100
AcDbEntity
  8
Layer4
  6
ByLayer
 62
    7
370
   -1
100
AcDbSpline
210
0
220
0
230
0
 70
    8
 71
    3
 72
    8
 73
    4
 74
    0
 42
1e-07
 43
1e-07
 40
0
 40
0
 40
0
 40
0
 40
1
 40
1
 40
1
 40
1
 10
157.455612
 20
5.605595
 30
0
 10
157.455612
 20
6.218127
 30
0
 10
157.12883
 20
6.78413
 30
0
 10
156.598362
 20
7.090396
 30
0
  0
SPLINE
  5
169
100
AcDbEntity
  8
Layer4
  6
ByLayer
 62
    7
370
   -1
100
AcDbSpline
210
0
220
0
230
0
 70
    8
 71
    3
 72
    8
 73
    4
 74
    0
 42
1e-07
 43
1e-07
 40
0
 40
0
 40
0
 40
0
 40
1
 40
1
 40
1
 40
1
 10
156.598362
 20
7.090396
 30
0
 10
156.067894
 20
7.396662
 30
0
 10
155.41433
 20
7.396662
 30
0
 10
154.883862
 20
7.090396
 30
0
  0
SPLINE
  5
16A
100
AcDbEntity
  8
Layer4
  6
ByLayer
 62
    7
370
   -1
100
AcDbSpline
210
0
220
0
230
0
 70
    8
 71
    3
 72
    8
 73
    4
 74
    0
 42
1e-07
 43
1e-07
 40
0
 40
0
 40
0
 40
0
 40
1
 40
1
 40
1
 40
1
 10
154.883862
 20
7.090396
 30
0
 10
154.353394
 20
6.78413
 30
0
 10
154.026612
 20
6.218127
 30
0
 10
154.026612
 20
5.605595
 30
0
  0
SPLINE
  5
16B
100
AcDbEntity
  8
Layer4
  6
ByLayer
 62
    7
370
   -1
100
AcDbSpline
210
0
220
0
230
0
 70
    8
 71
    3
 72
    8
 73
    4
 74
    0
 42
1e-07
 43
1e-07
 40
0
 40
0
 40
0
 40
0
 40
1
 40
1
 40
1
 40
1
 10
154.026612
 20
5.605595
 30
0
 10
154.026612
 20
4.993063
 30
0
 10
154.353394
 20
4.42706
 30
0
 10
154.883862
 20
4.120795
 30
0
  0
SPLINE
  5
16C
100
AcDbEntity
  8
Layer4
  6
ByLayer
 62
    7
370
   -1
100
AcDbSpline
210
0
220
0
230
0
 70
    8
 71
    3
 72
    8
 73
    4
 74
    0
 42
1e-07
 43
1e-07
 40
0
 40
0
 40
0
 40
0
 40
1
 40
1
 40
1
 40
1
 10
154.883862
 20
4.120795
 30
0
 10
155.41433
 20
3.814529
 30
0
 10
156.067894
 20
3.814529
 30
0
 10
156.598362
 20
4.120795
 30
0
  0
SPLINE
  5
16D
100
AcDbEntity
  8
Layer4
  6
ByLayer
 62
    7
370
   -1
100
AcDbSpline
210
0
220
0
230
0
 70
    8
 71
    3
 72
    8
 73
    4
 74
    0
 42
1e-07
 43
1e-07
 40
0
 40
0
 40
0
 40
0
 40
1
 40
1
 40
1
 40
1
 10
156.598362
 20
4.120795
 30
0
 10
157.12883
 20
4.42706
 30
0
 10
157.455612
 20
4.993063
 30
0
 10
157.455612
 20
5.605595
 30
0
  0
LWPOLYLINE
  5
16E
100
AcDbEntity
  8
Layer4
  6
ByLayer
 62
    7
370
   -1
100
AcDbPolyline
 90
    1
 70
    1
 43
0
 10
157.455612
 20
27.855614
  0
SPLINE
  5
16F
100
AcDbEntity
  8
Layer4
  6
ByLayer
 62
    7
370
   -1
100
AcDbSpline
210
0
220
0
230
0
 70
    8
 71
    3
 72
    8
 73
    4
 74
    0
 42
1e-07
 43
1e-07
 40
0
 40
0
 40
0
 40
0
 40
1
 40
1
 40
1
 40
1
 10
157.455612
 20
184.355619
 30
0
 10
157.455612
 20
184.96815
 30
0
 10
157.12883
 20
185.534153
 30
0
 10
156.598362
 20
185.840419
 30
0
  0
SPLINE
  5
170
100
AcDbEntity
  8
Layer4
  6
ByLayer
 62
    7
370
   -1
100
AcDbSpline
210
0
220
0
230
0
 70
    8
 71
    3
 72
    8
 73
    4
 74
    0
 42
1e-07
 43
1e-07
 40
0
 40
0
 40
0
 40
0
 40
1
 40
1
 40
1
 40
1
 10
156.598362
 20
185.840419
 30
0
 10
156.067894
 20
186.146685
 30
0
 10
155.41433
 20
186.146685
 30
0
 10
154.883862
 20
185.840419
 30
0
  0
SPLINE
  5
171
100
AcDbEntity
  8
Layer4
  6
ByLayer
 62
    7
370
   -1
100
AcDbSpline
210
0
220
0
230
0
 70
    8
 71
    3
 72
    8
 73
    4
 74
    0
 42
1e-07
 43
1e-07
 40
0
 40
0
 40
0
 40
0
 40
1
 40
1
 40
1
 40
1
 10
154.883862
 20
185.840419
 30
0
 10
154.353394
 20
185.534153
 30
0
 10
154.026612
 20
184.96815
 30
0
 10
154.026612
 20
184.355619
 30
0
  0
SPLINE
  5
172
100
AcDbEntity
  8
Layer4
  6
ByLayer
 62
    7
370
   -1
100
AcDbSpline
210
0
220
0
230
0
 70
    8
 71
    3
 72
    8
 73
    4
 74
    0
 42
1e-07
 43
1e-07
 40
0
 40
0
 40
0
 40
0
 40
1
 40
1
 40
1
 40
1
 10
154.026612
 20
184.355619
 30
0
 10
154.026612
 20
183.743087
 30
0
 10
154.353394
 20
183.177084
 30
0
 10
154.883862
 20
182.870818
 30
0
  0
SPLINE
  5
173
100
AcDbEntity
  8
Layer4
  6
ByLayer
 62
    7
370
   -1
100
AcDbSpline
210
0
220
0
230
0
 70
    8
 71
    3
 72
    8
 73
    4
 74
    0
 42
1e-07
 43
1e-07
 40
0
 40
0
 40
0
 40
0
 40
1
 40
1
 40
1
 40
1
 10
154.883862
 20
182.870818
 30
0
 10
155.41433
 20
182.564552
 30
0
 10
156.067894
 20
182.564552
 30
0
 10
156.598362
 20
182.870818
 30
0
  0
SPLINE
  5
174
100
AcDbEntity
  8
Layer4
  6
ByLayer
 62
    7
370
   -1
100
AcDbSpline
210
0
220
0
230
0
 70
    8
 71
    3
 72
    8
 73
    4
 74
    0
 42
1e-07
 43
1e-07
 40
0
 40
0
 40
0
 40
0
 40
1
 40
1
 40
1
 40
1
 10
156.598362
 20
182.870818
 30
0
 10
157.12883
 20
183.177084
 30
0
 10
157.455612
 20
183.743087
 30
0
 10
157.455612
 20
184.355619
 30
0
  0
LWPOLYLINE
  5
175
100
AcDbEntity
  8
Layer4
  6
ByLayer
 62
    7
370
   -1
100
AcDbPolyline
 90
    1
 70
    1
 43
0
 10
157.455612
 20
5.605595
  0
LWPOLYLINE
  5
176
100
AcDbEntity
  8
Layer4
  6
ByLayer
 62
    7
370
   -1
100
AcDbPolyline
 90
    1
 70
    1
 43
0
 10
157.455612
 20
184.355619
  0
SPLINE
  5
177
100
AcDbEntity
  8
Layer4
  6
ByLayer
 62
    7
370
   -1
100
AcDbSpline
210
0
220
0
230
0
 70
    8
 71
    3
 72
    8
 73
    4
 74
    0
 42
1e-07
 43
1e-07
 40
0
 40
0
 40
0
 40
0
 40
1
 40
1
 40
1
 40
1
 10
171.705223
 20
162.355618
 30
0
 10
171.705223
 20
162.968149
 30
0
 10
171.378441
 20
163.534152
 30
0
 10
170.847973
 20
163.840418
 30
0
  0
SPLINE
  5
178
100
AcDbEntity
  8
Layer4
  6
ByLayer
 62
    7
370
   -1
100
AcDbSpline
210
0
220
0
230
0
 70
    8
 71
    3
 72
    8
 73
    4
 74
    0
 42
1e-07
 43
1e-07
 40
0
 40
0
 40
0
 40
0
 40
1
 40
1
 40
1
 40
1
 10
170.847973
 20
163.840418
 30
0
 10
170.317505
 20
164.146684
 30
0
 10
169.663941
 20
164.146684
 30
0
 10
169.133473
 20
163.840418
 30
0
  0
SPLINE
  5
179
100
AcDbEntity
  8
Layer4
  6
ByLayer
 62
    7
370
   -1
100
AcDbSpline
210
0
220
0
230
0
 70
    8
 71
    3
 72
    8
 73
    4
 74
    0
 42
1e-07
 43
1e-07
 40
0
 40
0
 40
0
 40
0
 40
1
 40
1
 40
1
 40
1
 10
169.133473
 20
163.840418
 30
0
 10
168.603005
 20
163.534152
 30
0
 10
168.276223
 20
162.968149
 30
0
 10
168.276223
 20
162.355618
 30
0
  0
SPLINE
  5
17A
100
AcDbEntity
  8
Layer4
  6
ByLayer
 62
    7
370
   -1
100
AcDbSpline
210
0
220
0
230
0
 70
    8
 71
    3
 72
    8
 73
    4
 74
    0
 42
1e-07
 43
1e-07
 40
0
 40
0
 40
0
 40
0
 40
1
 40
1
 40
1
 40
1
 10
168.276223
 20
162.355618
 30
0
 10
168.276223
 20
161.743086
 30
0
 10
168.603005
 20
161.177083
 30
0
 10
169.133473
 20
160.870817
 30
0
  0
SPLINE
  5
17B
100
AcDbEntity
  8
Layer4
  6
ByLayer
 62
    7
370
   -1
100
AcDbSpline
210
0
220
0
230
0
 70
    8
 71
    3
 72
    8
 73
    4
 74
    0
 42
1e-07
 43
1e-07
 40
0
 40
0
 40
0
 40
0
 40
1
 40
1
 40
1
 40
1
 10
169.133473
 20
160.870817
 30
0
 10
169.663941
 20
160.564551
 30
0
 10
170.317505
 20
160.564551
 30
0
 10
170.847973
 20
160.870817
 30
0
  0
SPLINE
  5
17C
100
AcDbEntity
  8
Layer4
  6
ByLayer
 62
    7
370
   -1
100
AcDbSpline
210
0
220
0
230
0
 70
    8
 71
    3
 72
    8
 73
    4
 74
    0
 42
1e-07
 43
1e-07
 40
0
 40
0
 40
0
 40
0
 40
1
 40
1
 40
1
 40
1
 10
170.847973
 20
160.870817
 30
0
 10
171.378441
 20
161.177083
 30
0
 10
171.705223
 20
161.743086
 30
0
 10
171.705223
 20
162.355618
 30
0
  0
LWPOLYLINE
  5
17D
100
AcDbEntity
  8
Layer4
  6
ByLayer
 62
    7
370
   -1
100
AcDbPolyline
 90
    4
 70
    1
 43
0
 10
0.141111
 20
0.141103
 10
250.141112
 20
0.141103
 10
250.141112
 20
200.141118
 10
0.141111
 20
200.141118
  0
SPLINE
  5
17E
100
AcDbEntity
  8
Layer4
  6
ByLayer
 62
    7
370
   -1
100
AcDbSpline
210
0
220
0
230
0
 70
    8
 71
    3
 72
    8
 73
    4
 74
    0
 42
1e-07
 43
1e-07
 40
0
 40
0
 40
0
 40
0
 40
1
 40
1
 40
1
 40
1
 10
171.705223
 20
140.105614
 30
0
 10
171.705223
 20
140.718146
 30
0
 10
171.378441
 20
141.284149
 30
0
 10
170.847973
 20
141.590415
 30
0
  0
SPLINE
  5
17F
100
AcDbEntity
  8
Layer4
  6
ByLayer
 62
    7
370
   -1
100
AcDbSpline
210
0
220
0
230
0
 70
    8
 71
    3
 72
    8
 73
    4
 74
    0
 42
1e-07
 43
1e-07
 40
0
 40
0
 40
0
 40
0
 40
1
 40
1
 40
1
 40
1
 10
170.847973
 20
141.590415
 30
0
 10
170.317505
 20
141.896681
 30
0
 10
169.663941
 20
141.896681
 30
0
 10
169.133473
 20
141.590415
 30
0
  0
SPLINE
  5
180
100
AcDbEntity
  8
Layer4
  6
ByLayer
 62
    7
370
   -1
100
AcDbSpline
210
0
220
0
230
0
 70
    8
 71
    3
 72
    8
 73
    4
 74
    0
 42
1e-07
 43
1e-07
 40
0
 40
0
 40
0
 40
0
 40
1
 40
1
 40
1
 40
1
 10
169.133473
 20
141.590415
 30
0
 10
168.603005
 20
141.284149
 30
0
 10
168.276223
 20
140.718146
 30
0
 10
168.276223
 20
140.105614
 30
0
  0
SPLINE
  5
181
100
AcDbEntity
  8
Layer4
  6
ByLayer
 62
    7
370
   -1
100
AcDbSpline
210
0
220
0
230
0
 70
    8
 71
    3
 72
    8
 73
    4
 74
    0
 42
1e-07
 43
1e-07
 40
0
 40
0
 40
0
 40
0
 40
1
 40
1
 40
1
 40
1
 10
168.276223
 20
140.105614
 30
0
 10
168.276223
 20
139.493083
 30
0
 10
168.603005
 20
138.92708
 30
0
 10
169.133473
 20
138.620814
 30
0
  0
SPLINE
  5
182
100
AcDbEntity
  8
Layer4
  6
ByLayer
 62
    7
370
   -1
100
AcDbSpline
210
0
220
0
230
0
 70
    8
 71
    3
 72
    8
 73
    4
 74
    0
 42
1e-07
 43
1e-07
 40
0
 40
0
 40
0
 40
0
 40
1
 40
1
 40
1
 40
1
 10
169.133473
 20
138.620814
 30
0
 10
169.663941
 20
138.314548
 30
0
 10
170.317505
 20
138.314548
 30
0
 10
170.847973
 20
138.620814
 30
0
  0
SPLINE
  5
183
100
AcDbEntity
  8
Layer4
  6
ByLayer
 62
    7
370
   -1
100
AcDbSpline
210
0
220
0
230
0
 70
    8
 71
    3
 72
    8
 73
    4
 74
    0
 42
1e-07
 43
1e-07
 40
0
 40
0
 40
0
 40
0
 40
1
 40
1
 40
1
 40
1
 10
170.847973
 20
138.620814
 30
0
 10
171.378441
 20
138.92708
 30
0
 10
171.705223
 20
139.493083
 30
0
 10
171.705223
 20
140.105614
 30
0
  0
LWPOLYLINE
  5
184
100
AcDbEntity
  8
Layer4
  6
ByLayer
 62
    7
370
   -1
100
AcDbPolyline
 90
    1
 70
    1
 43
0
 10
171.705223
 20
162.355618
  0
SPLINE
  5
185
100
AcDbEntity
  8
Layer4
  6
ByLayer
 62
    7
370
   -1
100
AcDbSpline
210
0
220
0
230
0
 70
    8
 71
    3
 72
    8
 73
    4
 74
    0
 42
1e-07
 43
1e-07
 40
0
 40
0
 40
0
 40
0
 40
1
 40
1
 40
1
 40
1
 10
171.705223
 20
117.855617
 30
0
 10
171.705223
 20
118.468148
 30
0
 10
171.378441
 20
119.034151
 30
0
 10
170.847973
 20
119.340417
 30
0
  0
SPLINE
  5
186
100
AcDbEntity
  8
Layer4
  6
ByLayer
 62
    7
370
   -1
100
AcDbSpline
210
0
220
0
230
0
 70
    8
 71
    3
 72
    8
 73
    4
 74
    0
 42
1e-07
 43
1e-07
 40
0
 40
0
 40
0
 40
0
 40
1
 40
1
 40
1
 40
1
 10
170.847973
 20
119.340417
 30
0
 10
170.317505
 20
119.646683
 30
0
 10
169.663941
 20
119.646683
 30
0
 10
169.133473
 20
119.340417
 30
0
  0
SPLINE
  5
187
100
AcDbEntity
  8
Layer4
  6
ByLayer
 62
    7
370
   -1
100
AcDbSpline
210
0
220
0
230
0
 70
    8
 71
    3
 72
    8
 73
    4
 74
    0
 42
1e-07
 43
1e-07
 40
0
 40
0
 40
0
 40
0
 40
1
 40
1
 40
1
 40
1
 10
169.133473
 20
119.340417
 30
0
 10
168.603005
 20
119.034151
 30
0
 10
168.276223
 20
118.468148
 30
0
 10
168.276223
 20
117.855617
 30
0
  0
SPLINE
  5
188
100
AcDbEntity
  8
Layer4
  6
ByLayer
 62
    7
370
   -1
100
AcDbSpline
210
0
220
0
230
0
 70
    8
 71
    3
 72
    8
 73
    4
 74
    0
 42
1e-07
 43
1e-07
 40
0
 40
0
 40
0
 40
0
 40
1
 40
1
 40
1
 40
1
 10
168.276223
 20
117.855617
 30
0
 10
168.276223
 20
117.243085
 30
0
 10
168.603005
 20
116.677082
 30
0
 10
169.133473
 20
116.370816
 30
0
  0
SPLINE
  5
189
100
AcDbEntity
  8
Layer4
  6
ByLayer
 62
    7
370
   -1
100
AcDbSpline
210
0
220
0
230
0
 70
    8
 71
    3
 72
    8
 73
    4
 74
    0
 42
1e-07
 43
1e-07
 40
0
 40
0
 40
0
 40
0
 40
1
 40
1
 40
1
 40
1
 10
169.133473
 20
116.370816
 30
0
 10
169.663941
 20
116.06455
 30
0
 10
170.317505
 20
116.06455
 30
0
 10
170.847973
 20
116.370816
 30
0
  0
SPLINE
  5
18A
100
AcDbEntity
  8
Layer4
  6
ByLayer
 62
    7
370
   -1
100
AcDbSpline
210
0
220
0
230
0
 70
    8
 71
    3
 72
    8
 73
    4
 74
    0
 42
1e-07
 43
1e-07
 40
0
 40
0
 40
0
 40
0
 40
1
 40
1
 40
1
 40
1
 10
170.847973
 20
116.370816
 30
0
 10
171.378441
 20
116.677082
 30
0
 10
171.705223
 20
117.243085
 30
0
 10
171.705223
 20
117.855617
 30
0
  0
LWPOLYLINE
  5
18B
100
AcDbEntity
  8
Layer4
  6
ByLayer
 62
    7
370
   -1
100
AcDbPolyline
 90
    1
 70
    1
 43
0
 10
171.705223
 20
140.105614
  0
SPLINE
  5
18C
100
AcDbEntity
  8
Layer4
  6
ByLayer
 62
    7
370
   -1
100
AcDbSpline
210
0
220
0
230
0
 70
    8
 71
    3
 72
    8
 73
    4
 74
    0
 42
1e-07
 43
1e-07
 40
0
 40
0
 40
0
 40
0
 40
1
 40
1
 40
1
 40
1
 10
171.705223
 20
95.605616
 30
0
 10
171.705223
 20
96.218148
 30
0
 10
171.378441
 20
96.78415099999999
 30
0
 10
170.847973
 20
97.090417
 30
0
  0
SPLINE
  5
18D
100
AcDbEntity
  8
Layer4
  6
ByLayer
 62
    7
370
   -1
100
AcDbSpline
210
0
220
0
230
0
 70
    8
 71
    3
 72
    8
 73
    4
 74
    0
 42
1e-07
 43
1e-07
 40
0
 40
0
 40
0
 40
0
 40
1
 40
1
 40
1
 40
1
 10
170.847973
 20
97.090417
 30
0
 10
170.317505
 20
97.396683
 30
0
 10
169.663941
 20
97.396683
 30
0
 10
169.133473
 20
97.090417
 30
0
  0
SPLINE
  5
18E
100
AcDbEntity
  8
Layer4
  6
ByLayer
 62
    7
370
   -1
100
AcDbSpline
210
0
220
0
230
0
 70
    8
 71
    3
 72
    8
 73
    4
 74
    0
 42
1e-07
 43
1e-07
 40
0
 40
0
 40
0
 40
0
 40
1
 40
1
 40
1
 40
1
 10
169.133473
 20
97.090417
 30
0
 10
168.603005
 20
96.78415099999999
 30
0
 10
168.276223
 20
96.218148
 30
0
 10
168.276223
 20
95.605616
 30
0
  0
SPLINE
  5
18F
100
AcDbEntity
  8
Layer4
  6
ByLayer
 62
    7
370
   -1
100
AcDbSpline
210
0
220
0
230
0
 70
    8
 71
    3
 72
    8
 73
    4
 74
    0
 42
1e-07
 43
1e-07
 40
0
 40
0
 40
0
 40
0
 40
1
 40
1
 40
1
 40
1
 10
168.276223
 20
95.605616
 30
0
 10
168.276223
 20
94.993084
 30
0
 10
168.603005
 20
94.427082
 30
0
 10
169.133473
 20
94.120816
 30
0
  0
SPLINE
  5
190
100
AcDbEntity
  8
Layer4
  6
ByLayer
 62
    7
370
   -1
100
AcDbSpline
210
0
220
0
230
0
 70
    8
 71
    3
 72
    8
 73
    4
 74
    0
 42
1e-07
 43
1e-07
 40
0
 40
0
 40
0
 40
0
 40
1
 40
1
 40
1
 40
1
 10
169.133473
 20
94.120816
 30
0
 10
169.663941
 20
93.81455
 30
0
 10
170.317505
 20
93.81455
 30
0
 10
170.847973
 20
94.120816
 30
0
  0
SPLINE
  5
191
100
AcDbEntity
  8
Layer4
  6
ByLayer
 62
    7
370
   -1
100
AcDbSpline
210
0
220
0
230
0
 70
    8
 71
    3
 72
    8
 73
    4
 74
    0
 42
1e-07
 43
1e-07
 40
0
 40
0
 40
0
 40
0
 40
1
 40
1
 40
1
 40
1
 10
170.847973
 20
94.120816
 30
0
 10
171.378441
 20
94.427082
 30
0
 10
171.705223
 20
94.993084
 30
0
 10
171.705223
 20
95.605616
 30
0
  0
LWPOLYLINE
  5
192
100
AcDbEntity
  8
Layer4
  6
ByLayer
 62
    7
370
   -1
100
AcDbPolyline
 90
    1
 70
    1
 43
0
 10
171.705223
 20
117.855617
  0
SPLINE
  5
193
100
AcDbEntity
  8
Layer4
  6
ByLayer
 62
    7
370
   -1
100
AcDbSpline
210
0
220
0
230
0
 70
    8
 71
    3
 72
    8
 73
    4
 74
    0
 42
1e-07
 43
1e-07
 40
0
 40
0
 40
0
 40
0
 40
1
 40
1
 40
1
 40
1
 10
171.705223
 20
72.35561800000001
 30
0
 10
171.705223
 20
72.96814999999999
 30
0
 10
171.378441
 20
73.53415200000001
 30
0
 10
170.847973
 20
73.840418
 30
0
  0
SPLINE
  5
194
100
AcDbEntity
  8
Layer4
  6
ByLayer
 62
    7
370
   -1
100
AcDbSpline
210
0
220
0
230
0
 70
    8
 71
    3
 72
    8
 73
    4
 74
    0
 42
1e-07
 43
1e-07
 40
0
 40
0
 40
0
 40
0
 40
1
 40
1
 40
1
 40
1
 10
170.847973
 20
73.840418
 30
0
 10
170.317505
 20
74.14668399999999
 30
0
 10
169.663941
 20
74.14668399999999
 30
0
 10
169.133473
 20
73.840418
 30
0
  0
SPLINE
  5
195
100
AcDbEntity
  8
Layer4
  6
ByLayer
 62
    7
370
   -1
100
AcDbSpline
210
0
220
0
230
0
 70
    8
 71
    3
 72
    8
 73
    4
 74
    0
 42
1e-07
 43
1e-07
 40
0
 40
0
 40
0
 40
0
 40
1
 40
1
 40
1
 40
1
 10
169.133473
 20
73.840418
 30
0
 10
168.603005
 20
73.53415200000001
 30
0
 10
168.276223
 20
72.96814999999999
 30
0
 10
168.276223
 20
72.35561800000001
 30
0
  0
SPLINE
  5
196
100
AcDbEntity
  8
Layer4
  6
ByLayer
 62
    7
370
   -1
100
AcDbSpline
210
0
220
0
230
0
 70
    8
 71
    3
 72
    8
 73
    4
 74
    0
 42
1e-07
 43
1e-07
 40
0
 40
0
 40
0
 40
0
 40
1
 40
1
 40
1
 40
1
 10
168.276223
 20
72.35561800000001
 30
0
 10
168.276223
 20
71.74308600000001
 30
0
 10
168.603005
 20
71.177083
 30
0
 10
169.133473
 20
70.870817
 30
0
  0
SPLINE
  5
197
100
AcDbEntity
  8
Layer4
  6
ByLayer
 62
    7
370
   -1
100
AcDbSpline
210
0
220
0
230
0
 70
    8
 71
    3
 72
    8
 73
    4
 74
    0
 42
1e-07
 43
1e-07
 40
0
 40
0
 40
0
 40
0
 40
1
 40
1
 40
1
 40
1
 10
169.133473
 20
70.870817
 30
0
 10
169.663941
 20
70.56455099999999
 30
0
 10
170.317505
 20
70.56455099999999
 30
0
 10
170.847973
 20
70.870817
 30
0
  0
SPLINE
  5
198
100
AcDbEntity
  8
Layer4
  6
ByLayer
 62
    7
370
   -1
100
AcDbSpline
210
0
220
0
230
0
 70
    8
 71
    3
 72
    8
 73
    4
 74
    0
 42
1e-07
 43
1e-07
 40
0
 40
0
 40
0
 40
0
 40
1
 40
1
 40
1
 40
1
 10
170.847973
 20
70.870817
 30
0
 10
171.378441
 20
71.177083
 30
0
 10
171.705223
 20
71.74308600000001
 30
0
 10
171.705223
 20
72.35561800000001
 30
0
  0
LWPOLYLINE
  5
199
100
AcDbEntity
  8
Layer4
  6
ByLayer
 62
    7
370
   -1
100
AcDbPolyline
 90
    1
 70
    1
 43
0
 10
171.705223
 20
95.605616
  0
SPLINE
  5
19A
100
AcDbEntity
  8
Layer4
  6
ByLayer
 62
    7
370
   -1
100
AcDbSpline
210
0
220
0
230
0
 70
    8
 71
    3
 72
    8
 73
    4
 74
    0
 42
1e-07
 43
1e-07
 40
0
 40
0
 40
0
 40
0
 40
1
 40
1
 40
1
 40
1
 10
171.705223
 20
50.105617
 30
0
 10
171.705223
 20
50.718149
 30
0
 10
171.378441
 20
51.284152
 30
0
 10
170.847973
 20
51.590418
 30
0
  0
SPLINE
  5
19B
100
AcDbEntity
  8
Layer4
  6
ByLayer
 62
    7
370
   -1
100
AcDbSpline
210
0
220
0
230
0
 70
    8
 71
    3
 72
    8
 73
    4
 74
    0
 42
1e-07
 43
1e-07
 40
0
 40
0
 40
0
 40
0
 40
1
 40
1
 40
1
 40
1
 10
170.847973
 20
51.590418
 30
0
 10
170.317505
 20
51.896684
 30
0
 10
169.663941
 20
51.896684
 30
0
 10
169.133473
 20
51.590418
 30
0
  0
SPLINE
  5
19C
100
AcDbEntity
  8
Layer4
  6
ByLayer
 62
    7
370
   -1
100
AcDbSpline
210
0
220
0
230
0
 70
    8
 71
    3
 72
    8
 73
    4
 74
    0
 42
1e-07
 43
1e-07
 40
0
 40
0
 40
0
 40
0
 40
1
 40
1
 40
1
 40
1
 10
169.133473
 20
51.590418
 30
0
 10
168.603005
 20
51.284152
 30
0
 10
168.276223
 20
50.718149
 30
0
 10
168.276223
 20
50.105617
 30
0
  0
SPLINE
  5
19D
100
AcDbEntity
  8
Layer4
  6
ByLayer
 62
    7
370
   -1
100
AcDbSpline
210
0
220
0
230
0
 70
    8
 71
    3
 72
    8
 73
    4
 74
    0
 42
1e-07
 43
1e-07
 40
0
 40
0
 40
0
 40
0
 40
1
 40
1
 40
1
 40
1
 10
168.276223
 20
50.105617
 30
0
 10
168.276223
 20
49.493085
 30
0
 10
168.603005
 20
48.927083
 30
0
 10
169.133473
 20
48.620817
 30
0
  0
SPLINE
  5
19E
100
AcDbEntity
  8
Layer4
  6
ByLayer
 62
    7
370
   -1
100
AcDbSpline
210
0
220
0
230
0
 70
    8
 71
    3
 72
    8
 73
    4
 74
    0
 42
1e-07
 43
1e-07
 40
0
 40
0
 40
0
 40
0
 40
1
 40
1
 40
1
 40
1
 10
169.133473
 20
48.620817
 30
0
 10
169.663941
 20
48.314551
 30
0
 10
170.317505
 20
48.314551
 30
0
 10
170.847973
 20
48.620817
 30
0
  0
SPLINE
  5
19F
100
AcDbEntity
  8
Layer4
  6
ByLayer
 62
    7
370
   -1
100
AcDbSpline
210
0
220
0
230
0
 70
    8
 71
    3
 72
    8
 73
    4
 74
    0
 42
1e-07
 43
1e-07
 40
0
 40
0
 40
0
 40
0
 40
1
 40
1
 40
1
 40
1
 10
170.847973
 20
48.620817
 30
0
 10
171.378441
 20
48.927083
 30
0
 10
171.705223
 20
49.493085
 30
0
 10
171.705223
 20
50.105617
 30
0
  0
LWPOLYLINE
  5
1A0
100
AcDbEntity
  8
Layer4
  6
ByLayer
 62
    7
370
   -1
100
AcDbPolyline
 90
    1
 70
    1
 43
0
 10
171.705223
 20
72.35561800000001
  0
SPLINE
  5
1A1
100
AcDbEntity
  8
Layer4
  6
ByLayer
 62
    7
370
   -1
100
AcDbSpline
210
0
220
0
230
0
 70
    8
 71
    3
 72
    8
 73
    4
 74
    0
 42
1e-07
 43
1e-07
 40
0
 40
0
 40
0
 40
0
 40
1
 40
1
 40
1
 40
1
 10
171.705223
 20
27.855614
 30
0
 10
171.705223
 20
28.468146
 30
0
 10
171.378441
 20
29.034149
 30
0
 10
170.847973
 20
29.340415
 30
0
  0
SPLINE
  5
1A2
100
AcDbEntity
  8
Layer4
  6
ByLayer
 62
    7
370
   -1
100
AcDbSpline
210
0
220
0
230
0
 70
    8
 71
    3
 72
    8
 73
    4
 74
    0
 42
1e-07
 43
1e-07
 40
0
 40
0
 40
0
 40
0
 40
1
 40
1
 40
1
 40
1
 10
170.847973
 20
29.340415
 30
0
 10
170.317505
 20
29.646681
 30
0
 10
169.663941
 20
29.646681
 30
0
 10
169.133473
 20
29.340415
 30
0
  0
SPLINE
  5
1A3
100
AcDbEntity
  8
Layer4
  6
ByLayer
 62
    7
370
   -1
100
AcDbSpline
210
0
220
0
230
0
 70
    8
 71
    3
 72
    8
 73
    4
 74
    0
 42
1e-07
 43
1e-07
 40
0
 40
0
 40
0
 40
0
 40
1
 40
1
 40
1
 40
1
 10
169.133473
 20
29.340415
 30
0
 10
168.603005
 20
29.034149
 30
0
 10
168.276223
 20
28.468146
 30
0
 10
168.276223
 20
27.855614
 30
0
  0
SPLINE
  5
1A4
100
AcDbEntity
  8
Layer4
  6
ByLayer
 62
    7
370
   -1
100
AcDbSpline
210
0
220
0
230
0
 70
    8
 71
    3
 72
    8
 73
    4
 74
    0
 42
1e-07
 43
1e-07
 40
0
 40
0
 40
0
 40
0
 40
1
 40
1
 40
1
 40
1
 10
168.276223
 20
27.855614
 30
0
 10
168.276223
 20
27.243082
 30
0
 10
168.603005
 20
26.677079
 30
0
 10
169.133473
 20
26.370814
 30
0
  0
SPLINE
  5
1A5
100
AcDbEntity
  8
Layer4
  6
ByLayer
 62
    7
370
   -1
100
AcDbSpline
210
0
220
0
230
0
 70
    8
 71
    3
 72
    8
 73
    4
 74
    0
 42
1e-07
 43
1e-07
 40
0
 40
0
 40
0
 40
0
 40
1
 40
1
 40
1
 40
1
 10
169.133473
 20
26.370814
 30
0
 10
169.663941
 20
26.064548
 30
0
 10
170.317505
 20
26.064548
 30
0
 10
170.847973
 20
26.370814
 30
0
  0
SPLINE
  5
1A6
100
AcDbEntity
  8
Layer4
  6
ByLayer
 62
    7
370
   -1
100
AcDbSpline
210
0
220
0
230
0
 70
    8
 71
    3
 72
    8
 73
    4
 74
    0
 42
1e-07
 43
1e-07
 40
0
 40
0
 40
0
 40
0
 40
1
 40
1
 40
1
 40
1
 10
170.847973
 20
26.370814
 30
0
 10
171.378441
 20
26.677079
 30
0
 10
171.705223
 20
27.243082
 30
0
 10
171.705223
 20
27.855614
 30
0
  0
LWPOLYLINE
  5
1A7
100
AcDbEntity
  8
Layer4
  6
ByLayer
 62
    7
370
   -1
100
AcDbPolyline
 90
    1
 70
    1
 43
0
 10
171.705223
 20
50.105617
  0
SPLINE
  5
1A8
100
AcDbEntity
  8
Layer4
  6
ByLayer
 62
    7
370
   -1
100
AcDbSpline
210
0
220
0
230
0
 70
    8
 71
    3
 72
    8
 73
    4
 74
    0
 42
1e-07
 43
1e-07
 40
0
 40
0
 40
0
 40
0
 40
1
 40
1
 40
1
 40
1
 10
171.705223
 20
5.605595
 30
0
 10
171.705223
 20
6.218127
 30
0
 10
171.378441
 20
6.78413
 30
0
 10
170.847973
 20
7.090396
 30
0
  0
SPLINE
  5
1A9
100
AcDbEntity
  8
Layer4
  6
ByLayer
 62
    7
370
   -1
100
AcDbSpline
210
0
220
0
230
0
 70
    8
 71
    3
 72
    8
 73
    4
 74
    0
 42
1e-07
 43
1e-07
 40
0
 40
0
 40
0
 40
0
 40
1
 40
1
 40
1
 40
1
 10
170.847973
 20
7.090396
 30
0
 10
170.317505
 20
7.396662
 30
0
 10
169.663941
 20
7.396662
 30
0
 10
169.133473
 20
7.090396
 30
0
  0
SPLINE
  5
1AA
100
AcDbEntity
  8
Layer4
  6
ByLayer
 62
    7
370
   -1
100
AcDbSpline
210
0
220
0
230
0
 70
    8
 71
    3
 72
    8
 73
    4
 74
    0
 42
1e-07
 43
1e-07
 40
0
 40
0
 40
0
 40
0
 40
1
 40
1
 40
1
 40
1
 10
169.133473
 20
7.090396
 30
0
 10
168.603005
 20
6.78413
 30
0
 10
168.276223
 20
6.218127
 30
0
 10
168.276223
 20
5.605595
 30
0
  0
SPLINE
  5
1AB
100
AcDbEntity
  8
Layer4
  6
ByLayer
 62
    7
370
   -1
100
AcDbSpline
210
0
220
0
230
0
 70
    8
 71
    3
 72
    8
 73
    4
 74
    0
 42
1e-07
 43
1e-07
 40
0
 40
0
 40
0
 40
0
 40
1
 40
1
 40
1
 40
1
 10
168.276223
 20
5.605595
 30
0
 10
168.276223
 20
4.993063
 30
0
 10
168.603005
 20
4.42706
 30
0
 10
169.133473
 20
4.120795
 30
0
  0
SPLINE
  5
1AC
100
AcDbEntity
  8
Layer4
  6
ByLayer
 62
    7
370
   -1
100
AcDbSpline
210
0
220
0
230
0
 70
    8
 71
    3
 72
    8
 73
    4
 74
    0
 42
1e-07
 43
1e-07
 40
0
 40
0
 40
0
 40
0
 40
1
 40
1
 40
1
 40
1
 10
169.133473
 20
4.120795
 30
0
 10
169.663941
 20
3.814529
 30
0
 10
170.317505
 20
3.814529
 30
0
 10
170.847973
 20
4.120795
 30
0
  0
SPLINE
  5
1AD
100
AcDbEntity
  8
Layer4
  6
ByLayer
 62
    7
370
   -1
100
AcDbSpline
210
0
220
0
230
0
 70
    8
 71
    3
 72
    8
 73
    4
 74
    0
 42
1e-07
 43
1e-07
 40
0
 40
0
 40
0
 40
0
 40
1
 40
1
 40
1
 40
1
 10
170.847973
 20
4.120795
 30
0
 10
171.378441
 20
4.42706
 30
0
 10
171.705223
 20
4.993063
 30
0
 10
171.705223
 20
5.605595
 30
0
  0
LWPOLYLINE
  5
1AE
100
AcDbEntity
  8
Layer4
  6
ByLayer
 62
    7
370
   -1
100
AcDbPolyline
 90
    1
 70
    1
 43
0
 10
171.705223
 20
27.855614
  0
SPLINE
  5
1AF
100
AcDbEntity
  8
Layer4
  6
ByLayer
 62
    7
370
   -1
100
AcDbSpline
210
0
220
0
230
0
 70
    8
 71
    3
 72
    8
 73
    4
 74
    0
 42
1e-07
 43
1e-07
 40
0
 40
0
 40
0
 40
0
 40
1
 40
1
 40
1
 40
1
 10
171.705223
 20
184.355619
 30
0
 10
171.705223
 20
184.96815
 30
0
 10
171.378441
 20
185.534153
 30
0
 10
170.847973
 20
185.840419
 30
0
  0
SPLINE
  5
1B0
100
AcDbEntity
  8
Layer4
  6
ByLayer
 62
    7
370
   -1
100
AcDbSpline
210
0
220
0
230
0
 70
    8
 71
    3
 72
    8
 73
    4
 74
    0
 42
1e-07
 43
1e-07
 40
0
 40
0
 40
0
 40
0
 40
1
 40
1
 40
1
 40
1
 10
170.847973
 20
185.840419
 30
0
 10
170.317505
 20
186.146685
 30
0
 10
169.663941
 20
186.146685
 30
0
 10
169.133473
 20
185.840419
 30
0
  0
SPLINE
  5
1B1
100
AcDbEntity
  8
Layer4
  6
ByLayer
 62
    7
370
   -1
100
AcDbSpline
210
0
220
0
230
0
 70
    8
 71
    3
 72
    8
 73
    4
 74
    0
 42
1e-07
 43
1e-07
 40
0
 40
0
 40
0
 40
0
 40
1
 40
1
 40
1
 40
1
 10
169.133473
 20
185.840419
 30
0
 10
168.603005
 20
185.534153
 30
0
 10
168.276223
 20
184.96815
 30
0
 10
168.276223
 20
184.355619
 30
0
  0
SPLINE
  5
1B2
100
AcDbEntity
  8
Layer4
  6
ByLayer
 62
    7
370
   -1
100
AcDbSpline
210
0
220
0
230
0
 70
    8
 71
    3
 72
    8
 73
    4
 74
    0
 42
1e-07
 43
1e-07
 40
0
 40
0
 40
0
 40
0
 40
1
 40
1
 40
1
 40
1
 10
168.276223
 20
184.355619
 30
0
 10
168.276223
 20
183.743087
 30
0
 10
168.603005
 20
183.177084
 30
0
 10
169.133473
 20
182.870818
 30
0
  0
SPLINE
  5
1B3
100
AcDbEntity
  8
Layer4
  6
ByLayer
 62
    7
370
   -1
100
AcDbSpline
210
0
220
0
230
0
 70
    8
 71
    3
 72
    8
 73
    4
 74
    0
 42
1e-07
 43
1e-07
 40
0
 40
0
 40
0
 40
0
 40
1
 40
1
 40
1
 40
1
 10
169.133473
 20
182.870818
 30
0
 10
169.663941
 20
182.564552
 30
0
 10
170.317505
 20
182.564552
 30
0
 10
170.847973
 20
182.870818
 30
0
  0
SPLINE
  5
1B4
100
AcDbEntity
  8
Layer4
  6
ByLayer
 62
    7
370
   -1
100
AcDbSpline
210
0
220
0
230
0
 70
    8
 71
    3
 72
    8
 73
    4
 74
    0
 42
1e-07
 43
1e-07
 40
0
 40
0
 40
0
 40
0
 40
1
 40
1
 40
1
 40
1
 10
170.847973
 20
182.870818
 30
0
 10
171.378441
 20
183.177084
 30
0
 10
171.705223
 20
183.743087
 30
0
 10
171.705223
 20
184.355619
 30
0
  0
LWPOLYLINE
  5
1B5
100
AcDbEntity
  8
Layer4
  6
ByLayer
 62
    7
370
   -1
100
AcDbPolyline
 90
    1
 70
    1
 43
0
 10
171.705223
 20
5.605595
  0
SPLINE
  5
1B6
100
AcDbEntity
  8
Layer4
  6
ByLayer
 62
    7
370
   -1
100
AcDbSpline
210
0
220
0
230
0
 70
    8
 71
    3
 72
    8
 73
    4
 74
    0
 42
1e-07
 43
1e-07
 40
0
 40
0
 40
0
 40
0
 40
1
 40
1
 40
1
 40
1
 10
82.635221
 20
162.355618
 30
0
 10
82.635221
 20
162.968149
 30
0
 10
82.30843900000001
 20
163.534152
 30
0
 10
81.77797099999999
 20
163.840418
 30
0
  0
SPLINE
  5
1B7
100
AcDbEntity
  8
Layer4
  6
ByLayer
 62
    7
370
   -1
100
AcDbSpline
210
0
220
0
230
0
 70
    8
 71
    3
 72
    8
 73
    4
 74
    0
 42
1e-07
 43
1e-07
 40
0
 40
0
 40
0
 40
0
 40
1
 40
1
 40
1
 40
1
 10
81.77797099999999
 20
163.840418
 30
0
 10
81.24750299999999
 20
164.146684
 30
0
 10
80.59393900000001
 20
164.146684
 30
0
 10
80.06347100000001
 20
163.840418
 30
0
  0
SPLINE
  5
1B8
100
AcDbEntity
  8
Layer4
  6
ByLayer
 62
    7
370
   -1
100
AcDbSpline
210
0
220
0
230
0
 70
    8
 71
    3
 72
    8
 73
    4
 74
    0
 42
1e-07
 43
1e-07
 40
0
 40
0
 40
0
 40
0
 40
1
 40
1
 40
1
 40
1
 10
80.06347100000001
 20
163.840418
 30
0
 10
79.53300299999999
 20
163.534152
 30
0
 10
79.206221
 20
162.968149
 30
0
 10
79.206221
 20
162.355618
 30
0
  0
SPLINE
  5
1B9
100
AcDbEntity
  8
Layer4
  6
ByLayer
 62
    7
370
   -1
100
AcDbSpline
210
0
220
0
230
0
 70
    8
 71
    3
 72
    8
 73
    4
 74
    0
 42
1e-07
 43
1e-07
 40
0
 40
0
 40
0
 40
0
 40
1
 40
1
 40
1
 40
1
 10
79.206221
 20
162.355618
 30
0
 10
79.206221
 20
161.408725
 30
0
 10
79.97382899999999
 20
160.641118
 30
0
 10
80.920721
 20
160.641118
 30
0
  0
SPLINE
  5
1BA
100
AcDbEntity
  8
Layer4
  6
ByLayer
 62
    7
370
   -1
100
AcDbSpline
210
0
220
0
230
0
 70
    8
 71
    3
 72
    8
 73
    4
 74
    0
 42
1e-07
 43
1e-07
 40
0
 40
0
 40
0
 40
0
 40
1
 40
1
 40
1
 40
1
 10
80.920721
 20
160.641118
 30
0
 10
81.86761300000001
 20
160.641118
 30
0
 10
82.635221
 20
161.408725
 30
0
 10
82.635221
 20
162.355618
 30
0
  0
LWPOLYLINE
  5
1BB
100
AcDbEntity
  8
Layer4
  6
ByLayer
 62
    7
370
   -1
100
AcDbPolyline
 90
    1
 70
    1
 43
0
 10
171.705223
 20
184.355619
  0
SPLINE
  5
1BC
100
AcDbEntity
  8
Layer4
  6
ByLayer
 62
    7
370
   -1
100
AcDbSpline
210
0
220
0
230
0
 70
    8
 71
    3
 72
    8
 73
    4
 74
    0
 42
1e-07
 43
1e-07
 40
0
 40
0
 40
0
 40
0
 40
1
 40
1
 40
1
 40
1
 10
82.635221
 20
140.105614
 30
0
 10
82.635221
 20
140.718146
 30
0
 10
82.30843900000001
 20
141.284149
 30
0
 10
81.77797099999999
 20
141.590415
 30
0
  0
SPLINE
  5
1BD
100
AcDbEntity
  8
Layer4
  6
ByLayer
 62
    7
370
   -1
100
AcDbSpline
210
0
220
0
230
0
 70
    8
 71
    3
 72
    8
 73
    4
 74
    0
 42
1e-07
 43
1e-07
 40
0
 40
0
 40
0
 40
0
 40
1
 40
1
 40
1
 40
1
 10
81.77797099999999
 20
141.590415
 30
0
 10
81.24750299999999
 20
141.896681
 30
0
 10
80.59393900000001
 20
141.896681
 30
0
 10
80.06347100000001
 20
141.590415
 30
0
  0
SPLINE
  5
1BE
100
AcDbEntity
  8
Layer4
  6
ByLayer
 62
    7
370
   -1
100
AcDbSpline
210
0
220
0
230
0
 70
    8
 71
    3
 72
    8
 73
    4
 74
    0
 42
1e-07
 43
1e-07
 40
0
 40
0
 40
0
 40
0
 40
1
 40
1
 40
1
 40
1
 10
80.06347100000001
 20
141.590415
 30
0
 10
79.53300299999999
 20
141.284149
 30
0
 10
79.206221
 20
140.718146
 30
0
 10
79.206221
 20
140.105614
 30
0
  0
SPLINE
  5
1BF
100
AcDbEntity
  8
Layer4
  6
ByLayer
 62
    7
370
   -1
100
AcDbSpline
210
0
220
0
230
0
 70
    8
 71
    3
 72
    8
 73
    4
 74
    0
 42
1e-07
 43
1e-07
 40
0
 40
0
 40
0
 40
0
 40
1
 40
1
 40
1
 40
1
 10
79.206221
 20
140.105614
 30
0
 10
79.206221
 20
139.158722
 30
0
 10
79.97382899999999
 20
138.391115
 30
0
 10
80.920721
 20
138.391115
 30
0
  0
SPLINE
  5
1C0
100
AcDbEntity
  8
Layer4
  6
ByLayer
 62
    7
370
   -1
100
AcDbSpline
210
0
220
0
230
0
 70
    8
 71
    3
 72
    8
 73
    4
 74
    0
 42
1e-07
 43
1e-07
 40
0
 40
0
 40
0
 40
0
 40
1
 40
1
 40
1
 40
1
 10
80.920721
 20
138.391115
 30
0
 10
81.86761300000001
 20
138.391115
 30
0
 10
82.635221
 20
139.158722
 30
0
 10
82.635221
 20
140.105614
 30
0
  0
LWPOLYLINE
  5
1C1
100
AcDbEntity
  8
Layer4
  6
ByLayer
 62
    7
370
   -1
100
AcDbPolyline
 90
    1
 70
    1
 43
0
 10
82.635221
 20
162.355618
  0
SPLINE
  5
1C2
100
AcDbEntity
  8
Layer4
  6
ByLayer
 62
    7
370
   -1
100
AcDbSpline
210
0
220
0
230
0
 70
    8
 71
    3
 72
    8
 73
    4
 74
    0
 42
1e-07
 43
1e-07
 40
0
 40
0
 40
0
 40
0
 40
1
 40
1
 40
1
 40
1
 10
82.635221
 20
117.855617
 30
0
 10
82.635221
 20
118.468149
 30
0
 10
82.30843900000001
 20
119.034151
 30
0
 10
81.77797099999999
 20
119.340417
 30
0
  0
SPLINE
  5
1C3
100
AcDbEntity
  8
Layer4
  6
ByLayer
 62
    7
370
   -1
100
AcDbSpline
210
0
220
0
230
0
 70
    8
 71
    3
 72
    8
 73
    4
 74
    0
 42
1e-07
 43
1e-07
 40
0
 40
0
 40
0
 40
0
 40
1
 40
1
 40
1
 40
1
 10
81.77797099999999
 20
119.340417
 30
0
 10
81.24750299999999
 20
119.646683
 30
0
 10
80.59393900000001
 20
119.646683
 30
0
 10
80.06347100000001
 20
119.340417
 30
0
  0
SPLINE
  5
1C4
100
AcDbEntity
  8
Layer4
  6
ByLayer
 62
    7
370
   -1
100
AcDbSpline
210
0
220
0
230
0
 70
    8
 71
    3
 72
    8
 73
    4
 74
    0
 42
1e-07
 43
1e-07
 40
0
 40
0
 40
0
 40
0
 40
1
 40
1
 40
1
 40
1
 10
80.06347100000001
 20
119.340417
 30
0
 10
79.53300299999999
 20
119.034151
 30
0
 10
79.206221
 20
118.468149
 30
0
 10
79.206221
 20
117.855617
 30
0
  0
SPLINE
  5
1C5
100
AcDbEntity
  8
Layer4
  6
ByLayer
 62
    7
370
   -1
100
AcDbSpline
210
0
220
0
230
0
 70
    8
 71
    3
 72
    8
 73
    4
 74
    0
 42
1e-07
 43
1e-07
 40
0
 40
0
 40
0
 40
0
 40
1
 40
1
 40
1
 40
1
 10
79.206221
 20
117.855617
 30
0
 10
79.206221
 20
116.908724
 30
0
 10
79.97382899999999
 20
116.141117
 30
0
 10
80.920721
 20
116.141117
 30
0
  0
SPLINE
  5
1C6
100
AcDbEntity
  8
Layer4
  6
ByLayer
 62
    7
370
   -1
100
AcDbSpline
210
0
220
0
230
0
 70
    8
 71
    3
 72
    8
 73
    4
 74
    0
 42
1e-07
 43
1e-07
 40
0
 40
0
 40
0
 40
0
 40
1
 40
1
 40
1
 40
1
 10
80.920721
 20
116.141117
 30
0
 10
81.86761300000001
 20
116.141117
 30
0
 10
82.635221
 20
116.908724
 30
0
 10
82.635221
 20
117.855617
 30
0
  0
LWPOLYLINE
  5
1C7
100
AcDbEntity
  8
Layer4
  6
ByLayer
 62
    7
370
   -1
100
AcDbPolyline
 90
    1
 70
    1
 43
0
 10
82.635221
 20
140.105614
  0
SPLINE
  5
1C8
100
AcDbEntity
  8
Layer4
  6
ByLayer
 62
    7
370
   -1
100
AcDbSpline
210
0
220
0
230
0
 70
    8
 71
    3
 72
    8
 73
    4
 74
    0
 42
1e-07
 43
1e-07
 40
0
 40
0
 40
0
 40
0
 40
1
 40
1
 40
1
 40
1
 10
82.635221
 20
95.605616
 30
0
 10
82.635221
 20
96.218148
 30
0
 10
82.30843900000001
 20
96.78415099999999
 30
0
 10
81.77797099999999
 20
97.090417
 30
0
  0
SPLINE
  5
1C9
100
AcDbEntity
  8
Layer4
  6
ByLayer
 62
    7
370
   -1
100
AcDbSpline
210
0
220
0
230
0
 70
    8
 71
    3
 72
    8
 73
    4
 74
    0
 42
1e-07
 43
1e-07
 40
0
 40
0
 40
0
 40
0
 40
1
 40
1
 40
1
 40
1
 10
81.77797099999999
 20
97.090417
 30
0
 10
81.24750299999999
 20
97.396683
 30
0
 10
80.59393900000001
 20
97.396683
 30
0
 10
80.06347100000001
 20
97.090417
 30
0
  0
SPLINE
  5
1CA
100
AcDbEntity
  8
Layer4
  6
ByLayer
 62
    7
370
   -1
100
AcDbSpline
210
0
220
0
230
0
 70
    8
 71
    3
 72
    8
 73
    4
 74
    0
 42
1e-07
 43
1e-07
 40
0
 40
0
 40
0
 40
0
 40
1
 40
1
 40
1
 40
1
 10
80.06347100000001
 20
97.090417
 30
0
 10
79.53300299999999
 20
96.78415099999999
 30
0
 10
79.206221
 20
96.218148
 30
0
 10
79.206221
 20
95.605616
 30
0
  0
SPLINE
  5
1CB
100
AcDbEntity
  8
Layer4
  6
ByLayer
 62
    7
370
   -1
100
AcDbSpline
210
0
220
0
230
0
 70
    8
 71
    3
 72
    8
 73
    4
 74
    0
 42
1e-07
 43
1e-07
 40
0
 40
0
 40
0
 40
0
 40
1
 40
1
 40
1
 40
1
 10
79.206221
 20
95.605616
 30
0
 10
79.206221
 20
94.65872400000001
 30
0
 10
79.97382899999999
 20
93.891116
 30
0
 10
80.920721
 20
93.891116
 30
0
  0
SPLINE
  5
1CC
100
AcDbEntity
  8
Layer4
  6
ByLayer
 62
    7
370
   -1
100
AcDbSpline
210
0
220
0
230
0
 70
    8
 71
    3
 72
    8
 73
    4
 74
    0
 42
1e-07
 43
1e-07
 40
0
 40
0
 40
0
 40
0
 40
1
 40
1
 40
1
 40
1
 10
80.920721
 20
93.891116
 30
0
 10
81.86761300000001
 20
93.891116
 30
0
 10
82.635221
 20
94.65872400000001
 30
0
 10
82.635221
 20
95.605616
 30
0
  0
LWPOLYLINE
  5
1CD
100
AcDbEntity
  8
Layer4
  6
ByLayer
 62
    7
370
   -1
100
AcDbPolyline
 90
    1
 70
    1
 43
0
 10
82.635221
 20
117.855617
  0
SPLINE
  5
1CE
100
AcDbEntity
  8
Layer4
  6
ByLayer
 62
    7
370
   -1
100
AcDbSpline
210
0
220
0
230
0
 70
    8
 71
    3
 72
    8
 73
    4
 74
    0
 42
1e-07
 43
1e-07
 40
0
 40
0
 40
0
 40
0
 40
1
 40
1
 40
1
 40
1
 10
82.635221
 20
72.35561800000001
 30
0
 10
82.635221
 20
72.96814999999999
 30
0
 10
82.30843900000001
 20
73.53415200000001
 30
0
 10
81.77797099999999
 20
73.840418
 30
0
  0
SPLINE
  5
1CF
100
AcDbEntity
  8
Layer4
  6
ByLayer
 62
    7
370
   -1
100
AcDbSpline
210
0
220
0
230
0
 70
    8
 71
    3
 72
    8
 73
    4
 74
    0
 42
1e-07
 43
1e-07
 40
0
 40
0
 40
0
 40
0
 40
1
 40
1
 40
1
 40
1
 10
81.77797099999999
 20
73.840418
 30
0
 10
81.24750299999999
 20
74.14668399999999
 30
0
 10
80.59393900000001
 20
74.14668399999999
 30
0
 10
80.06347100000001
 20
73.840418
 30
0
  0
SPLINE
  5
1D0
100
AcDbEntity
  8
Layer4
  6
ByLayer
 62
    7
370
   -1
100
AcDbSpline
210
0
220
0
230
0
 70
    8
 71
    3
 72
    8
 73
    4
 74
    0
 42
1e-07
 43
1e-07
 40
0
 40
0
 40
0
 40
0
 40
1
 40
1
 40
1
 40
1
 10
80.06347100000001
 20
73.840418
 30
0
 10
79.53300299999999
 20
73.53415200000001
 30
0
 10
79.206221
 20
72.96814999999999
 30
0
 10
79.206221
 20
72.35561800000001
 30
0
  0
SPLINE
  5
1D1
100
AcDbEntity
  8
Layer4
  6
ByLayer
 62
    7
370
   -1
100
AcDbSpline
210
0
220
0
230
0
 70
    8
 71
    3
 72
    8
 73
    4
 74
    0
 42
1e-07
 43
1e-07
 40
0
 40
0
 40
0
 40
0
 40
1
 40
1
 40
1
 40
1
 10
79.206221
 20
72.35561800000001
 30
0
 10
79.206221
 20
71.408726
 30
0
 10
79.97382899999999
 20
70.64111800000001
 30
0
 10
80.920721
 20
70.64111800000001
 30
0
  0
SPLINE
  5
1D2
100
AcDbEntity
  8
Layer4
  6
ByLayer
 62
    7
370
   -1
100
AcDbSpline
210
0
220
0
230
0
 70
    8
 71
    3
 72
    8
 73
    4
 74
    0
 42
1e-07
 43
1e-07
 40
0
 40
0
 40
0
 40
0
 40
1
 40
1
 40
1
 40
1
 10
80.920721
 20
70.64111800000001
 30
0
 10
81.86761300000001
 20
70.64111800000001
 30
0
 10
82.635221
 20
71.408726
 30
0
 10
82.635221
 20
72.35561800000001
 30
0
  0
LWPOLYLINE
  5
1D3
100
AcDbEntity
  8
Layer4
  6
ByLayer
 62
    7
370
   -1
100
AcDbPolyline
 90
    1
 70
    1
 43
0
 10
82.635221
 20
95.605616
  0
SPLINE
  5
1D4
100
AcDbEntity
  8
Layer4
  6
ByLayer
 62
    7
370
   -1
100
AcDbSpline
210
0
220
0
230
0
 70
    8
 71
    3
 72
    8
 73
    4
 74
    0
 42
1e-07
 43
1e-07
 40
0
 40
0
 40
0
 40
0
 40
1
 40
1
 40
1
 40
1
 10
82.635221
 20
50.105617
 30
0
 10
82.635221
 20
50.718149
 30
0
 10
82.30843900000001
 20
51.284152
 30
0
 10
81.77797099999999
 20
51.590418
 30
0
  0
SPLINE
  5
1D5
100
AcDbEntity
  8
Layer4
  6
ByLayer
 62
    7
370
   -1
100
AcDbSpline
210
0
220
0
230
0
 70
    8
 71
    3
 72
    8
 73
    4
 74
    0
 42
1e-07
 43
1e-07
 40
0
 40
0
 40
0
 40
0
 40
1
 40
1
 40
1
 40
1
 10
81.77797099999999
 20
51.590418
 30
0
 10
81.24750299999999
 20
51.896684
 30
0
 10
80.59393900000001
 20
51.896684
 30
0
 10
80.06347100000001
 20
51.590418
 30
0
  0
SPLINE
  5
1D6
100
AcDbEntity
  8
Layer4
  6
ByLayer
 62
    7
370
   -1
100
AcDbSpline
210
0
220
0
230
0
 70
    8
 71
    3
 72
    8
 73
    4
 74
    0
 42
1e-07
 43
1e-07
 40
0
 40
0
 40
0
 40
0
 40
1
 40
1
 40
1
 40
1
 10
80.06347100000001
 20
51.590418
 30
0
 10
79.53300299999999
 20
51.284152
 30
0
 10
79.206221
 20
50.718149
 30
0
 10
79.206221
 20
50.105617
 30
0
  0
SPLINE
  5
1D7
100
AcDbEntity
  8
Layer4
  6
ByLayer
 62
    7
370
   -1
100
AcDbSpline
210
0
220
0
230
0
 70
    8
 71
    3
 72
    8
 73
    4
 74
    0
 42
1e-07
 43
1e-07
 40
0
 40
0
 40
0
 40
0
 40
1
 40
1
 40
1
 40
1
 10
79.206221
 20
50.105617
 30
0
 10
79.206221
 20
49.158725
 30
0
 10
79.97382899999999
 20
48.391117
 30
0
 10
80.920721
 20
48.391117
 30
0
  0
SPLINE
  5
1D8
100
AcDbEntity
  8
Layer4
  6
ByLayer
 62
    7
370
   -1
100
AcDbSpline
210
0
220
0
230
0
 70
    8
 71
    3
 72
    8
 73
    4
 74
    0
 42
1e-07
 43
1e-07
 40
0
 40
0
 40
0
 40
0
 40
1
 40
1
 40
1
 40
1
 10
80.920721
 20
48.391117
 30
0
 10
81.86761300000001
 20
48.391117
 30
0
 10
82.635221
 20
49.158725
 30
0
 10
82.635221
 20
50.105617
 30
0
  0
LWPOLYLINE
  5
1D9
100
AcDbEntity
  8
Layer4
  6
ByLayer
 62
    7
370
   -1
100
AcDbPolyline
 90
    1
 70
    1
 43
0
 10
82.635221
 20
72.35561800000001
  0
SPLINE
  5
1DA
100
AcDbEntity
  8
Layer4
  6
ByLayer
 62
    7
370
   -1
100
AcDbSpline
210
0
220
0
230
0
 70
    8
 71
    3
 72
    8
 73
    4
 74
    0
 42
1e-07
 43
1e-07
 40
0
 40
0
 40
0
 40
0
 40
1
 40
1
 40
1
 40
1
 10
82.635221
 20
27.855614
 30
0
 10
82.635221
 20
28.468146
 30
0
 10
82.30843900000001
 20
29.034149
 30
0
 10
81.77797099999999
 20
29.340415
 30
0
  0
SPLINE
  5
1DB
100
AcDbEntity
  8
Layer4
  6
ByLayer
 62
    7
370
   -1
100
AcDbSpline
210
0
220
0
230
0
 70
    8
 71
    3
 72
    8
 73
    4
 74
    0
 42
1e-07
 43
1e-07
 40
0
 40
0
 40
0
 40
0
 40
1
 40
1
 40
1
 40
1
 10
81.77797099999999
 20
29.340415
 30
0
 10
81.24750299999999
 20
29.646681
 30
0
 10
80.59393900000001
 20
29.646681
 30
0
 10
80.06347100000001
 20
29.340415
 30
0
  0
SPLINE
  5
1DC
100
AcDbEntity
  8
Layer4
  6
ByLayer
 62
    7
370
   -1
100
AcDbSpline
210
0
220
0
230
0
 70
    8
 71
    3
 72
    8
 73
    4
 74
    0
 42
1e-07
 43
1e-07
 40
0
 40
0
 40
0
 40
0
 40
1
 40
1
 40
1
 40
1
 10
80.06347100000001
 20
29.340415
 30
0
 10
79.53300299999999
 20
29.034149
 30
0
 10
79.206221
 20
28.468146
 30
0
 10
79.206221
 20
27.855614
 30
0
  0
SPLINE
  5
1DD
100
AcDbEntity
  8
Layer4
  6
ByLayer
 62
    7
370
   -1
100
AcDbSpline
210
0
220
0
230
0
 70
    8
 71
    3
 72
    8
 73
    4
 74
    0
 42
1e-07
 43
1e-07
 40
0
 40
0
 40
0
 40
0
 40
1
 40
1
 40
1
 40
1
 10
79.206221
 20
27.855614
 30
0
 10
79.206221
 20
26.908722
 30
0
 10
79.97382899999999
 20
26.141114
 30
0
 10
80.920721
 20
26.141114
 30
0
  0
SPLINE
  5
1DE
100
AcDbEntity
  8
Layer4
  6
ByLayer
 62
    7
370
   -1
100
AcDbSpline
210
0
220
0
230
0
 70
    8
 71
    3
 72
    8
 73
    4
 74
    0
 42
1e-07
 43
1e-07
 40
0
 40
0
 40
0
 40
0
 40
1
 40
1
 40
1
 40
1
 10
80.920721
 20
26.141114
 30
0
 10
81.86761300000001
 20
26.141114
 30
0
 10
82.635221
 20
26.908722
 30
0
 10
82.635221
 20
27.855614
 30
0
  0
LWPOLYLINE
  5
1DF
100
AcDbEntity
  8
Layer4
  6
ByLayer
 62
    7
370
   -1
100
AcDbPolyline
 90
    1
 70
    1
 43
0
 10
82.635221
 20
50.105617
  0
SPLINE
  5
1E0
100
AcDbEntity
  8
Layer4
  6
ByLayer
 62
    7
370
   -1
100
AcDbSpline
210
0
220
0
230
0
 70
    8
 71
    3
 72
    8
 73
    4
 74
    0
 42
1e-07
 43
1e-07
 40
0
 40
0
 40
0
 40
0
 40
1
 40
1
 40
1
 40
1
 10
82.635221
 20
5.605595
 30
0
 10
82.635221
 20
6.218127
 30
0
 10
82.30843900000001
 20
6.78413
 30
0
 10
81.77797099999999
 20
7.090396
 30
0
  0
SPLINE
  5
1E1
100
AcDbEntity
  8
Layer4
  6
ByLayer
 62
    7
370
   -1
100
AcDbSpline
210
0
220
0
230
0
 70
    8
 71
    3
 72
    8
 73
    4
 74
    0
 42
1e-07
 43
1e-07
 40
0
 40
0
 40
0
 40
0
 40
1
 40
1
 40
1
 40
1
 10
81.77797099999999
 20
7.090396
 30
0
 10
81.24750299999999
 20
7.396662
 30
0
 10
80.59393900000001
 20
7.396662
 30
0
 10
80.06347100000001
 20
7.090396
 30
0
  0
SPLINE
  5
1E2
100
AcDbEntity
  8
Layer4
  6
ByLayer
 62
    7
370
   -1
100
AcDbSpline
210
0
220
0
230
0
 70
    8
 71
    3
 72
    8
 73
    4
 74
    0
 42
1e-07
 43
1e-07
 40
0
 40
0
 40
0
 40
0
 40
1
 40
1
 40
1
 40
1
 10
80.06347100000001
 20
7.090396
 30
0
 10
79.53300299999999
 20
6.78413
 30
0
 10
79.206221
 20
6.218127
 30
0
 10
79.206221
 20
5.605595
 30
0
  0
SPLINE
  5
1E3
100
AcDbEntity
  8
Layer4
  6
ByLayer
 62
    7
370
   -1
100
AcDbSpline
210
0
220
0
230
0
 70
    8
 71
    3
 72
    8
 73
    4
 74
    0
 42
1e-07
 43
1e-07
 40
0
 40
0
 40
0
 40
0
 40
1
 40
1
 40
1
 40
1
 10
79.206221
 20
5.605595
 30
0
 10
79.206221
 20
4.658703
 30
0
 10
79.97382899999999
 20
3.891095
 30
0
 10
80.920721
 20
3.891095
 30
0
  0
SPLINE
  5
1E4
100
AcDbEntity
  8
Layer4
  6
ByLayer
 62
    7
370
   -1
100
AcDbSpline
210
0
220
0
230
0
 70
    8
 71
    3
 72
    8
 73
    4
 74
    0
 42
1e-07
 43
1e-07
 40
0
 40
0
 40
0
 40
0
 40
1
 40
1
 40
1
 40
1
 10
80.920721
 20
3.891095
 30
0
 10
81.86761300000001
 20
3.891095
 30
0
 10
82.635221
 20
4.658703
 30
0
 10
82.635221
 20
5.605595
 30
0
  0
LWPOLYLINE
  5
1E5
100
AcDbEntity
  8
Layer4
  6
ByLayer
 62
    7
370
   -1
100
AcDbPolyline
 90
    1
 70
    1
 43
0
 10
82.635221
 20
27.855614
  0
SPLINE
  5
1E6
100
AcDbEntity
  8
Layer4
  6
ByLayer
 62
    7
370
   -1
100
AcDbSpline
210
0
220
0
230
0
 70
    8
 71
    3
 72
    8
 73
    4
 74
    0
 42
1e-07
 43
1e-07
 40
0
 40
0
 40
0
 40
0
 40
1
 40
1
 40
1
 40
1
 10
82.635221
 20
184.355619
 30
0
 10
82.635221
 20
184.96815
 30
0
 10
82.30843900000001
 20
185.534153
 30
0
 10
81.77797099999999
 20
185.840419
 30
0
  0
SPLINE
  5
1E7
100
AcDbEntity
  8
Layer4
  6
ByLayer
 62
    7
370
   -1
100
AcDbSpline
210
0
220
0
230
0
 70
    8
 71
    3
 72
    8
 73
    4
 74
    0
 42
1e-07
 43
1e-07
 40
0
 40
0
 40
0
 40
0
 40
1
 40
1
 40
1
 40
1
 10
81.77797099999999
 20
185.840419
 30
0
 10
81.24750299999999
 20
186.146685
 30
0
 10
80.59393900000001
 20
186.146685
 30
0
 10
80.06347100000001
 20
185.840419
 30
0
  0
SPLINE
  5
1E8
100
AcDbEntity
  8
Layer4
  6
ByLayer
 62
    7
370
   -1
100
AcDbSpline
210
0
220
0
230
0
 70
    8
 71
    3
 72
    8
 73
    4
 74
    0
 42
1e-07
 43
1e-07
 40
0
 40
0
 40
0
 40
0
 40
1
 40
1
 40
1
 40
1
 10
80.06347100000001
 20
185.840419
 30
0
 10
79.53300299999999
 20
185.534153
 30
0
 10
79.206221
 20
184.96815
 30
0
 10
79.206221
 20
184.355619
 30
0
  0
SPLINE
  5
1E9
100
AcDbEntity
  8
Layer4
  6
ByLayer
 62
    7
370
   -1
100
AcDbSpline
210
0
220
0
230
0
 70
    8
 71
    3
 72
    8
 73
    4
 74
    0
 42
1e-07
 43
1e-07
 40
0
 40
0
 40
0
 40
0
 40
1
 40
1
 40
1
 40
1
 10
79.206221
 20
184.355619
 30
0
 10
79.206221
 20
183.408726
 30
0
 10
79.97382899999999
 20
182.641119
 30
0
 10
80.920721
 20
182.641119
 30
0
  0
SPLINE
  5
1EA
100
AcDbEntity
  8
Layer4
  6
ByLayer
 62
    7
370
   -1
100
AcDbSpline
210
0
220
0
230
0
 70
    8
 71
    3
 72
    8
 73
    4
 74
    0
 42
1e-07
 43
1e-07
 40
0
 40
0
 40
0
 40
0
 40
1
 40
1
 40
1
 40
1
 10
80.920721
 20
182.641119
 30
0
 10
81.86761300000001
 20
182.641119
 30
0
 10
82.635221
 20
183.408726
 30
0
 10
82.635221
 20
184.355619
 30
0
  0
LWPOLYLINE
  5
1EB
100
AcDbEntity
  8
Layer4
  6
ByLayer
 62
    7
370
   -1
100
AcDbPolyline
 90
    1
 70
    1
 43
0
 10
82.635221
 20
5.605595
  0
LWPOLYLINE
  5
1EC
100
AcDbEntity
  8
Layer4
  6
ByLayer
 62
    7
370
   -1
100
AcDbPolyline
 90
    1
 70
    1
 43
0
 10
82.635221
 20
184.355619
  0
ENDSEC
  0
SECTION
  2
OBJECTS
  0
DICTIONARY
  5
C
330
0
100
AcDbDictionary
281
    1
  3
ACAD_GROUP
350
D
  0
DICTIONARY
  5
D
330
C
100
AcDbDictionary
281
    1
  0
ENDSEC
  0
EOF
