<?xml version="1.0" encoding="UTF-8" standalone="no"?>
<!-- Created with Inkscape (http://www.inkscape.org/) -->

<svg
   xmlns:dc="http://purl.org/dc/elements/1.1/"
   xmlns:cc="http://creativecommons.org/ns#"
   xmlns:rdf="http://www.w3.org/1999/02/22-rdf-syntax-ns#"
   xmlns:svg="http://www.w3.org/2000/svg"
   xmlns="http://www.w3.org/2000/svg"
   xmlns:sodipodi="http://sodipodi.sourceforge.net/DTD/sodipodi-0.dtd"
   xmlns:inkscape="http://www.inkscape.org/namespaces/inkscape"
   width="32in"
   height="18in"
   viewBox="0 0 2880.0001 1620"
   id="svg2"
   version="1.1"
   inkscape:version="0.91 r13725"
   sodipodi:docname="generated_70mm_gear.svg">
  <sodipodi:namedview
     id="base"
     pagecolor="#ffffff"
     bordercolor="#666666"
     borderopacity="1.0"
     inkscape:pageopacity="0.0"
     inkscape:pageshadow="2"
     inkscape:zoom="1.4"
     inkscape:cx="378.26568"
     inkscape:cy="1482.4802"
     inkscape:document-units="mm"
     inkscape:current-layer="layer1"
     showgrid="true"
     units="in"
     objecttolerance="9"
     gridtolerance="10"
     inkscape:snap-path-mask="false"
     inkscape:window-width="1855"
     inkscape:window-height="1056"
     inkscape:window-x="65"
     inkscape:window-y="24"
     inkscape:window-maximized="1">
    <inkscape:grid
       type="xygrid"
       id="grid4136"
       units="mm"
       enabled="true"
       originy="1620"
       snapvisiblegridlinesonly="false"
       spacingx="0.8858268"
       spacingy="0.88582677" />
  </sodipodi:namedview>
  <defs
     id="defs4" />
  <metadata
     id="metadata7">
    <rdf:RDF>
      <cc:Work
         rdf:about="">
        <dc:format>image/svg+xml</dc:format>
        <dc:type
           rdf:resource="http://purl.org/dc/dcmitype/StillImage" />
        <dc:title></dc:title>
        <dc:creator>
          <cc:Agent>
            <dc:title>Tom O'Connell</dc:title>
          </cc:Agent>
        </dc:creator>
      </cc:Work>
    </rdf:RDF>
  </metadata>
  <g
     inkscape:label="Layer 1"
     inkscape:groupmode="layer"
     id="layer1"
     transform="translate(0,567.63785)">
    <path
       inkscape:connector-curvature="0"
       d="m 262.30829,-429.70366 1.40131,-0.0997 7.71849,1.33846 9.1815,3.78523 0,6.59534 -9.1815,3.78523 -7.71849,1.33846 -1.40131,-0.0997 -1.08175,9.60085 1.38835,0.21465 7.22713,3.02243 8.10901,5.7334 -1.4676,6.42999 -9.7936,1.64724 -7.8228,-0.41262 -1.34399,-0.40899 -3.19103,9.11942 1.30578,0.51821 6.37338,4.55484 6.6299,7.39407 -2.86161,5.94221 -9.9146,-0.57334 -7.53485,-2.14302 -1.21929,-0.6978 -5.14028,8.18071 1.15772,0.79578 5.20004,5.85885 4.81835,8.68398 -4.11214,5.15645 -9.53844,-2.76516 -6.86907,-3.76595 -1.03344,-0.95162 -6.83178,6.83178 0.95162,1.03344 3.76595,6.86907 2.76516,9.53844 -5.15645,4.11214 -8.68398,-4.81835 -5.85885,-5.20004 -0.79578,-1.15772 -8.18071,5.14028 0.6978,1.21929 2.14302,7.53485 0.57334,9.9146 -5.94221,2.86161 -7.39407,-6.6299 -4.55484,-6.37338 -0.51821,-1.30578 -9.11942,3.19103 0.40899,1.34399 0.41262,7.8228 -1.64724,9.7936 -6.42999,1.4676 -5.7334,-8.10901 -3.02243,-7.22713 -0.21465,-1.38835 -9.60085,1.08175 0.0997,1.40131 -1.33846,7.71849 -3.78523,9.1815 -6.59534,0 -3.78523,-9.1815 -1.33846,-7.71849 0.0997,-1.40131 -9.60085,-1.08175 -0.21465,1.38835 -3.02243,7.22713 -5.7334,8.10901 -6.42999,-1.4676 -1.64724,-9.7936 0.41262,-7.8228 0.40899,-1.34399 -9.11942,-3.19103 -0.51821,1.30578 -4.55484,6.37338 -7.39407,6.6299 -5.94221,-2.86161 0.57334,-9.9146 2.14302,-7.53485 0.6978,-1.21929 -8.18071,-5.14028 -0.79578,1.15772 -5.85885,5.20004 -8.68398,4.81835 -5.15645,-4.11214 2.76516,-9.53844 3.76595,-6.86907 0.95162,-1.03344 -6.83178,-6.83178 -1.03344,0.95162 -6.86907,3.76595 -9.53844,2.76516 -4.11214,-5.15645 4.81835,-8.68398 5.20004,-5.85885 1.15772,-0.79578 -5.14028,-8.18071 -1.21929,0.6978 -7.53485,2.14302 -9.9146,0.57334 -2.86161,-5.94221 6.6299,-7.39407 6.37338,-4.55484 1.30578,-0.51821 -3.19103,-9.11942 -1.34399,0.40899 -7.8228,0.41262 -9.7936,-1.64724 -1.4676,-6.42999 8.10901,-5.7334 7.22713,-3.02243 1.38835,-0.21465 -1.08175,-9.60085 -1.40131,0.0997 -7.71849,-1.33846 -9.1815,-3.78523 0,-6.59534 9.1815,-3.78523 7.71849,-1.33846 1.40131,0.0997 1.08175,-9.60085 -1.38835,-0.21465 -7.22713,-3.02243 -8.10901,-5.7334 1.4676,-6.42999 9.7936,-1.64724 7.8228,0.41262 1.34399,0.40899 3.19103,-9.11942 -1.30578,-0.51821 -6.37338,-4.55484 -6.6299,-7.39407 2.86161,-5.94221 9.9146,0.57334 7.53485,2.14302 1.21929,0.6978 5.14028,-8.18071 -1.15772,-0.79578 -5.20004,-5.85885 -4.81835,-8.68398 4.11214,-5.15645 9.53844,2.76516 6.86907,3.76595 1.03344,0.95162 6.83178,-6.83178 -0.95162,-1.03344 -3.76595,-6.86907 -2.76516,-9.53844 5.15645,-4.11214 8.68398,4.81835 5.85885,5.20004 0.79578,1.15772 8.18071,-5.14028 -0.6978,-1.21929 -2.14302,-7.53485 -0.57334,-9.9146 5.94221,-2.86161 7.39407,6.6299 4.55484,6.37338 0.51821,1.30578 9.11942,-3.19103 -0.40899,-1.34399 -0.41262,-7.8228 1.64724,-9.7936 6.42999,-1.4676 5.7334,8.10901 3.02243,7.22713 0.21465,1.38835 9.60085,-1.08175 -0.0997,-1.40131 1.33846,-7.71849 3.78523,-9.1815 6.59534,0 3.78523,9.1815 1.33846,7.71849 -0.0997,1.40131 9.60085,1.08175 0.21465,-1.38835 3.02243,-7.22713 5.7334,-8.10901 6.42999,1.4676 1.64724,9.7936 -0.41262,7.8228 -0.40899,1.34399 9.11942,3.19103 0.51821,-1.30578 4.55484,-6.37338 7.39407,-6.6299 5.94221,2.86161 -0.57334,9.9146 -2.14302,7.53485 -0.6978,1.21929 8.18071,5.14028 0.79578,-1.15772 5.85885,-5.20004 8.68398,-4.81835 5.15645,4.11214 -2.76516,9.53844 -3.76595,6.86907 -0.95162,1.03344 6.83178,6.83178 1.03344,-0.95162 6.86907,-3.76595 9.53844,-2.76516 4.11214,5.15645 -4.81835,8.68398 -5.20004,5.85885 -1.15772,0.79578 5.14028,8.18071 1.21929,-0.6978 7.53485,-2.14302 9.9146,-0.57334 2.86161,5.94221 -6.6299,7.39407 -6.37338,4.55484 -1.30578,0.51821 3.19103,9.11942 1.34399,-0.40899 7.8228,-0.41262 9.7936,1.64724 1.4676,6.42999 -8.10901,5.7334 -7.22713,3.02243 -1.38835,0.21465 z"
       style="fill:none;stroke:#000000;stroke-width:0.17716534;stroke-miterlimit:4;stroke-dasharray:none"
       id="path6619" />
    <circle
       cy="-421.29337"
       cx="145.21683"
       style="fill:none;stroke:#000000;stroke-width:0.17541124;stroke-miterlimit:4;stroke-dasharray:none"
       id="path6621"
       r="8.7705622" />
  </g>
</svg>
