999
dxfrw 0.6.3
  0
SECTION
  2
HEADER
  9
$ACADVER
  1
AC1021
  9
$DWGCODEPAGE
  3
ANSI_1252
  9
$INSBASE
 10
0
 20
0
 30
0
  9
$EXTMIN
 10
-15.7
 20
-1
 30
0
  9
$EXTMAX
 10
265.7
 20
225
 30
0
  9
$LIMMIN
 10
0
 20
0
  9
$LIMMAX
 10
420
 20
297
  9
$ORTHOMODE
 70
    0
  9
$REGENMODE
 70
    1
  9
$FILLMODE
 70
    1
  9
$QTEXTMODE
 70
    0
  9
$MIRRTEXT
 70
    0
  9
$LTSCALE
 40
1
  9
$ATTMODE
 70
    0
  9
$TEXTSIZE
 40
2.5
  9
$TRACEWID
 40
15.68
  9
$TEXTSTYLE
  7
STANDARD
  9
$CLAYER
  8
5_support_acrylic
  9
$CELTYPE
  6
BYLAYER
  9
$CECOLOR
 62
  256
  9
$CELTSCALE
 40
1
  9
$DISPSILH
 70
    0
  9
$DIMSCALE
 40
2.5
  9
$DIMASZ
 40
2.5
  9
$DIMEXO
 40
0.625
  9
$DIMDLI
 40
3.75
  9
$DIMRND
 40
0
  9
$DIMDLE
 40
0
  9
$DIMEXE
 40
1.25
  9
$DIMTP
 40
0
  9
$DIMTM
 40
0
  9
$DIMTXT
 40
2.5
  9
$DIMCEN
 40
2.5
  9
$DIMTSZ
 40
0
  9
$DIMTOL
 70
    0
  9
$DIMLIM
 70
    0
  9
$DIMTIH
 70
    0
  9
$DIMTOH
 70
    0
  9
$DIMSE1
 70
    0
  9
$DIMSE2
 70
    0
  9
$DIMTAD
 70
    1
  9
$DIMZIN
 70
    8
  9
$DIMBLK
  1

  9
$DIMASO
 70
    1
  9
$DIMSHO
 70
    1
  9
$DIMPOST
  1

  9
$DIMAPOST
  1

  9
$DIMALT
 70
    0
  9
$DIMALTD
 70
    3
  9
$DIMALTF
 40
0.03937
  9
$DIMLFAC
 40
1
  9
$DIMTOFL
 70
    1
  9
$DIMTVP
 40
0
  9
$DIMTIX
 70
    0
  9
$DIMSOXD
 70
    0
  9
$DIMSAH
 70
    0
  9
$DIMBLK1
  1

  9
$DIMBLK2
  1

  9
$DIMSTYLE
  2
STANDARD
  9
$DIMCLRD
 70
    0
  9
$DIMCLRE
 70
    0
  9
$DIMCLRT
 70
    0
  9
$DIMTFAC
 40
1
  9
$DIMGAP
 40
0.625
  9
$DIMJUST
 70
    0
  9
$DIMSD1
 70
    0
  9
$DIMSD2
 70
    0
  9
$DIMTOLJ
 70
    0
  9
$DIMTZIN
 70
    8
  9
$DIMALTZ
 70
    0
  9
$DIMALTTZ
 70
    0
  9
$DIMUPT
 70
    0
  9
$DIMDEC
 70
    2
  9
$DIMTDEC
 70
    2
  9
$DIMALTU
 70
    2
  9
$DIMALTTD
 70
    3
  9
$DIMTXSTY
  7
STANDARD
  9
$DIMAUNIT
 70
    0
  9
$DIMADEC
 70
    0
  9
$DIMALTRND
 40
0
  9
$DIMAZIN
 70
    0
  9
$DIMDSEP
 70
   44
  9
$DIMATFIT
 70
    3
  9
$DIMFRAC
 70
    0
  9
$DIMLDRBLK
  1
STANDARD
  9
$DIMLUNIT
 70
    2
  9
$DIMLWD
 70
   -2
  9
$DIMLWE
 70
   -2
  9
$DIMTMOVE
 70
    0
  9
$DIMFXL
 40
1
  9
$DIMFXLON
 70
    0
  9
$DIMJOGANG
 40
0.7854
  9
$DIMTFILL
 70
    0
  9
$DIMTFILLCLR
 70
    0
  9
$DIMARCSYM
 70
    0
  9
$DIMLTYPE
  6

  9
$DIMLTEX1
  6

  9
$DIMLTEX2
  6

  9
$LUNITS
 70
    2
  9
$LUPREC
 70
    4
  9
$SKETCHINC
 40
1
  9
$FILLETRAD
 40
0
  9
$AUNITS
 70
    0
  9
$AUPREC
 70
    2
  9
$MENU
  1
.
  9
$ELEVATION
 40
0
  9
$PELEVATION
 40
0
  9
$THICKNESS
 40
0
  9
$LIMCHECK
 70
    0
  9
$CHAMFERA
 40
0
  9
$CHAMFERB
 40
0
  9
$CHAMFERC
 40
0
  9
$CHAMFERD
 40
0
  9
$SKPOLY
 70
    0
  9
$USRTIMER
 70
    1
  9
$ANGBASE
 50
0
  9
$ANGDIR
 70
    0
  9
$PDMODE
 70
   34
  9
$PDSIZE
 40
0
  9
$PLINEWID
 40
0
  9
$SPLFRAME
 70
    0
  9
$SPLINETYPE
 70
    2
  9
$SPLINESEGS
 70
    8
  9
$HANDSEED
  5
20000
  9
$SURFTAB1
 70
    6
  9
$SURFTAB2
 70
    6
  9
$SURFTYPE
 70
    6
  9
$SURFU
 70
    6
  9
$SURFV
 70
    6
  9
$UCSBASE
  2

  9
$UCSNAME
  2

  9
$UCSORG
 10
0
 20
0
 30
0
  9
$UCSXDIR
 10
1
 20
0
 30
0
  9
$UCSYDIR
 10
0
 20
1
 30
0
  9
$UCSORTHOREF
  2

  9
$UCSORTHOVIEW
 70
    0
  9
$UCSORGTOP
 10
0
 20
0
 30
0
  9
$UCSORGBOTTOM
 10
0
 20
0
 30
0
  9
$UCSORGLEFT
 10
0
 20
0
 30
0
  9
$UCSORGRIGHT
 10
0
 20
0
 30
0
  9
$UCSORGFRONT
 10
0
 20
0
 30
0
  9
$UCSORGBACK
 10
0
 20
0
 30
0
  9
$PUCSBASE
  2

  9
$PUCSNAME
  2

  9
$PUCSORG
 10
0
 20
0
 30
0
  9
$PUCSXDIR
 10
1
 20
0
 30
0
  9
$PUCSYDIR
 10
0
 20
1
 30
0
  9
$PUCSORTHOREF
  2

  9
$PUCSORTHOVIEW
 70
    0
  9
$PUCSORGTOP
 10
0
 20
0
 30
0
  9
$PUCSORGBOTTOM
 10
0
 20
0
 30
0
  9
$PUCSORGLEFT
 10
0
 20
0
 30
0
  9
$PUCSORGRIGHT
 10
0
 20
0
 30
0
  9
$PUCSORGFRONT
 10
0
 20
0
 30
0
  9
$PUCSORGBACK
 10
0
 20
0
 30
0
  9
$USERI1
 70
    0
  9
$USERI2
 70
    0
  9
$USERI3
 70
    0
  9
$USERI4
 70
    0
  9
$USERI5
 70
    0
  9
$USERR1
 40
0
  9
$USERR2
 40
0
  9
$USERR3
 40
0
  9
$USERR4
 40
0
  9
$USERR5
 40
0
  9
$WORLDVIEW
 70
    1
  9
$SHADEDGE
 70
    3
  9
$SHADEDIF
 70
   70
  9
$TILEMODE
 70
    1
  9
$MAXACTVP
 70
   64
  9
$PINSBASE
 10
0
 20
0
 30
0
  9
$PLIMCHECK
 70
    0
  9
$PEXTMIN
 10
0
 20
0
 30
0
  9
$PEXTMAX
 10
0
 20
0
 30
0
  9
$GRIDMODE
 70
    1
  9
$SNAPSTYLE
 70
    0
  9
$PLIMMIN
 10
0
 20
0
  9
$PLIMMAX
 10
297
 20
210
  9
$UNITMODE
 70
    0
  9
$VISRETAIN
 70
    1
  9
$PLINEGEN
 70
    0
  9
$PSLTSCALE
 70
    1
  9
$TREEDEPTH
 70
 3020
  9
$CMLSTYLE
  2
Standard
  9
$CMLJUST
 70
    0
  9
$CMLSCALE
 40
20
  9
$PROXYGRAPHICS
 70
    1
  9
$MEASUREMENT
 70
    1
  9
$CELWEIGHT
370
   -1
  9
$ENDCAPS
280
    0
  9
$JOINSTYLE
280
    0
  9
$LWDISPLAY
290
    0
  9
$INSUNITS
 70
    4
  9
$HYPERLINKBASE
  1

  9
$STYLESHEET
  1

  9
$XEDIT
290
    1
  9
$CEPSNTYPE
380
    0
  9
$PSTYLEMODE
290
    1
  9
$EXTNAMES
290
    1
  9
$PSVPSCALE
 40
1
  9
$OLESTARTUP
290
    0
  9
$SORTENTS
280
  127
  9
$INDEXCTL
280
    0
  9
$HIDETEXT
280
    1
  9
$XCLIPFRAME
290
    0
  9
$HALOGAP
280
    0
  9
$OBSCOLOR
 70
  257
  9
$OBSLTYPE
280
    0
  9
$INTERSECTIONDISPLAY
280
    0
  9
$INTERSECTIONCOLOR
 70
  257
  9
$DIMASSOC
280
    1
  9
$PROJECTNAME
  1

  9
$CAMERADISPLAY
290
    0
  9
$LENSLENGTH
 40
50
  9
$CAMERAHEIGHT
 40
0
  9
$STEPSPERSEC
 40
2
  9
$STEPSIZE
 40
50
  9
$3DDWFPREC
 40
2
  9
$PSOLWIDTH
 40
5
  9
$PSOLHEIGHT
 40
80
  9
$LOFTANG1
 40
1.570796326794897
  9
$LOFTANG2
 40
1.570796326794897
  9
$LOFTMAG1
 40
0
  9
$LOFTMAG2
 40
0
  9
$LOFTPARAM
 70
    7
  9
$LOFTNORMALS
280
    1
  9
$LATITUDE
 40
1
  9
$LONGITUDE
 40
1
  9
$NORTHDIRECTION
 40
0
  9
$TIMEZONE
 70
-8000
  9
$LIGHTGLYPHDISPLAY
280
    1
  9
$TILEMODELIGHTSYNCH
280
    1
  9
$SOLIDHIST
280
    1
  9
$SHOWHIST
280
    1
  9
$DWFFRAME
280
    2
  9
$DGNFRAME
280
    0
  9
$REALWORLDSCALE
290
    1
  9
$INTERFERECOLOR
 62
    1
  9
$CSHADOW
280
    0
  9
$SHADOWPLANELOCATION
 40
0
  0
ENDSEC
  0
SECTION
  2
CLASSES
  0
ENDSEC
  0
SECTION
  2
TABLES
  0
TABLE
  2
VPORT
  5
8
330
0
100
AcDbSymbolTable
 70
    1
  0
VPORT
  5
31
330
2
100
AcDbSymbolTableRecord
100
AcDbViewportTableRecord
  2
*ACTIVE
 70
    0
 10
0
 20
0
 11
1
 21
1
 12
212.7207328618835
 22
140.7677768569682
 13
0
 23
0
 14
10
 24
10
 15
10
 25
10
 16
0
 26
0
 36
1
 17
0
 27
0
 37
0
 40
355.5058823171204
 41
1.881462799495586
 42
50
 43
0
 44
0
 50
0
 51
0
 71
    0
 72
  100
 73
    1
 74
    3
 75
    0
 76
    1
 77
    0
 78
    0
281
    0
 65
    1
110
0
120
0
130
0
111
1
121
0
131
0
112
0
122
1
132
0
 79
    0
146
0
348
10020
 60
    7
 61
    5
292
1
282
    1
141
0
142
0
 63
  250
421
3358443
  0
ENDTAB
  0
TABLE
  2
LTYPE
  5
5
330
0
100
AcDbSymbolTable
 70
    4
  0
LTYPE
  5
14
330
5
100
AcDbSymbolTableRecord
100
AcDbLinetypeTableRecord
  2
ByBlock
 70
    0
  3

 72
   65
 73
    0
 40
0
  0
LTYPE
  5
15
330
5
100
AcDbSymbolTableRecord
100
AcDbLinetypeTableRecord
  2
ByLayer
 70
    0
  3

 72
   65
 73
    0
 40
0
  0
LTYPE
  5
16
330
5
100
AcDbSymbolTableRecord
100
AcDbLinetypeTableRecord
  2
Continuous
 70
    0
  3
Solid line
 72
   65
 73
    0
 40
0
  0
LTYPE
  5
32
330
5
100
AcDbSymbolTableRecord
100
AcDbLinetypeTableRecord
  2
DOT
 70
    0
  3
Dot . . . . . . . . . . . . . . . . . . . . . .
 72
   65
 73
    2
 40
6.35
 49
0
 74
    0
 49
-6.35
 74
    0
  0
LTYPE
  5
33
330
5
100
AcDbSymbolTableRecord
100
AcDbLinetypeTableRecord
  2
DOTTINY
 70
    0
  3
Dot (.15x) .....................................
 72
   65
 73
    2
 40
0.9525
 49
0
 74
    0
 49
-0.9525
 74
    0
  0
LTYPE
  5
34
330
5
100
AcDbSymbolTableRecord
100
AcDbLinetypeTableRecord
  2
DOT2
 70
    0
  3
Dot (.5x) .....................................
 72
   65
 73
    2
 40
3.175
 49
0
 74
    0
 49
-3.175
 74
    0
  0
LTYPE
  5
35
330
5
100
AcDbSymbolTableRecord
100
AcDbLinetypeTableRecord
  2
DOTX2
 70
    0
  3
Dot (2x) .  .  .  .  .  .  .  .  .  .  .  .  .
 72
   65
 73
    2
 40
12.7
 49
0
 74
    0
 49
-12.7
 74
    0
  0
LTYPE
  5
36
330
5
100
AcDbSymbolTableRecord
100
AcDbLinetypeTableRecord
  2
DASHED
 70
    0
  3
Dashed _ _ _ _ _ _ _ _ _ _ _ _ _ _ _ _ _
 72
   65
 73
    2
 40
19.05
 49
12.7
 74
    0
 49
-6.35
 74
    0
  0
LTYPE
  5
37
330
5
100
AcDbSymbolTableRecord
100
AcDbLinetypeTableRecord
  2
DASHEDTINY
 70
    0
  3
Dashed (.15x) _ _ _ _ _ _ _ _ _ _ _ _ _ _ _ _ _
 72
   65
 73
    2
 40
2.8575
 49
1.905
 74
    0
 49
-0.9525
 74
    0
  0
LTYPE
  5
38
330
5
100
AcDbSymbolTableRecord
100
AcDbLinetypeTableRecord
  2
DASHED2
 70
    0
  3
Dashed (.5x) _ _ _ _ _ _ _ _ _ _ _ _ _ _ _ _ _
 72
   65
 73
    2
 40
9.524999999999999
 49
6.35
 74
    0
 49
-3.175
 74
    0
  0
LTYPE
  5
39
330
5
100
AcDbSymbolTableRecord
100
AcDbLinetypeTableRecord
  2
DASHEDX2
 70
    0
  3
Dashed (2x) ____  ____  ____  ____  ____  ___
 72
   65
 73
    2
 40
38.09999999999999
 49
25.4
 74
    0
 49
-12.7
 74
    0
  0
LTYPE
  5
3A
330
5
100
AcDbSymbolTableRecord
100
AcDbLinetypeTableRecord
  2
DASHDOT
 70
    0
  3
Dash dot __ . __ . __ . __ . __ . __ . __ . __
 72
   65
 73
    4
 40
25.4
 49
12.7
 74
    0
 49
-6.35
 74
    0
 49
0
 74
    0
 49
-6.35
 74
    0
  0
LTYPE
  5
3B
330
5
100
AcDbSymbolTableRecord
100
AcDbLinetypeTableRecord
  2
DASHDOTTINY
 70
    0
  3
Dash dot (.15x) _._._._._._._._._._._._._._._.
 72
   65
 73
    4
 40
3.81
 49
1.905
 74
    0
 49
-0.9525
 74
    0
 49
0
 74
    0
 49
-0.9525
 74
    0
  0
LTYPE
  5
3C
330
5
100
AcDbSymbolTableRecord
100
AcDbLinetypeTableRecord
  2
DASHDOT2
 70
    0
  3
Dash dot (.5x) _._._._._._._._._._._._._._._.
 72
   65
 73
    4
 40
12.7
 49
6.35
 74
    0
 49
-3.175
 74
    0
 49
0
 74
    0
 49
-3.175
 74
    0
  0
LTYPE
  5
3D
330
5
100
AcDbSymbolTableRecord
100
AcDbLinetypeTableRecord
  2
DASHDOTX2
 70
    0
  3
Dash dot (2x) ____  .  ____  .  ____  .  ___
 72
   65
 73
    4
 40
50.8
 49
25.4
 74
    0
 49
-12.7
 74
    0
 49
0
 74
    0
 49
-12.7
 74
    0
  0
LTYPE
  5
3E
330
5
100
AcDbSymbolTableRecord
100
AcDbLinetypeTableRecord
  2
DIVIDE
 70
    0
  3
Divide ____ . . ____ . . ____ . . ____ . . ____
 72
   65
 73
    6
 40
31.75
 49
12.7
 74
    0
 49
-6.35
 74
    0
 49
0
 74
    0
 49
-6.35
 74
    0
 49
0
 74
    0
 49
-6.35
 74
    0
  0
LTYPE
  5
3F
330
5
100
AcDbSymbolTableRecord
100
AcDbLinetypeTableRecord
  2
DIVIDETINY
 70
    0
  3
Divide (.15x) __..__..__..__..__..__..__..__.._
 72
   65
 73
    6
 40
4.7625
 49
1.905
 74
    0
 49
-0.9525
 74
    0
 49
0
 74
    0
 49
-0.9525
 74
    0
 49
0
 74
    0
 49
-0.9525
 74
    0
  0
LTYPE
  5
40
330
5
100
AcDbSymbolTableRecord
100
AcDbLinetypeTableRecord
  2
DIVIDE2
 70
    0
  3
Divide (.5x) __..__..__..__..__..__..__..__.._
 72
   65
 73
    6
 40
15.875
 49
6.35
 74
    0
 49
-3.175
 74
    0
 49
0
 74
    0
 49
-3.175
 74
    0
 49
0
 74
    0
 49
-3.175
 74
    0
  0
LTYPE
  5
41
330
5
100
AcDbSymbolTableRecord
100
AcDbLinetypeTableRecord
  2
DIVIDEX2
 70
    0
  3
Divide (2x) ________  .  .  ________  .  .  _
 72
   65
 73
    6
 40
63.5
 49
25.4
 74
    0
 49
-12.7
 74
    0
 49
0
 74
    0
 49
-12.7
 74
    0
 49
0
 74
    0
 49
-12.7
 74
    0
  0
LTYPE
  5
42
330
5
100
AcDbSymbolTableRecord
100
AcDbLinetypeTableRecord
  2
BORDER
 70
    0
  3
Border __ __ . __ __ . __ __ . __ __ . __ __ .
 72
   65
 73
    6
 40
44.45
 49
12.7
 74
    0
 49
-6.35
 74
    0
 49
12.7
 74
    0
 49
-6.35
 74
    0
 49
0
 74
    0
 49
-6.35
 74
    0
  0
LTYPE
  5
43
330
5
100
AcDbSymbolTableRecord
100
AcDbLinetypeTableRecord
  2
BORDERTINY
 70
    0
  3
Border (.15x) __.__.__.__.__.__.__.__.__.__.__.
 72
   65
 73
    6
 40
6.6675
 49
1.905
 74
    0
 49
-0.9525
 74
    0
 49
1.905
 74
    0
 49
-0.9525
 74
    0
 49
0
 74
    0
 49
-0.9525
 74
    0
  0
LTYPE
  5
44
330
5
100
AcDbSymbolTableRecord
100
AcDbLinetypeTableRecord
  2
BORDER2
 70
    0
  3
Border (.5x) __.__.__.__.__.__.__.__.__.__.__.
 72
   65
 73
    6
 40
22.225
 49
6.35
 74
    0
 49
-3.175
 74
    0
 49
6.35
 74
    0
 49
-3.175
 74
    0
 49
0
 74
    0
 49
-3.175
 74
    0
  0
LTYPE
  5
45
330
5
100
AcDbSymbolTableRecord
100
AcDbLinetypeTableRecord
  2
BORDERX2
 70
    0
  3
Border (2x) ____  ____  .  ____  ____  .  ___
 72
   65
 73
    6
 40
88.89999999999999
 49
25.4
 74
    0
 49
-12.7
 74
    0
 49
25.4
 74
    0
 49
-12.7
 74
    0
 49
0
 74
    0
 49
-12.7
 74
    0
  0
LTYPE
  5
46
330
5
100
AcDbSymbolTableRecord
100
AcDbLinetypeTableRecord
  2
CENTER
 70
    0
  3
Center ____ _ ____ _ ____ _ ____ _ ____ _ ____
 72
   65
 73
    4
 40
50.8
 49
31.75
 74
    0
 49
-6.35
 74
    0
 49
6.35
 74
    0
 49
-6.35
 74
    0
  0
LTYPE
  5
47
330
5
100
AcDbSymbolTableRecord
100
AcDbLinetypeTableRecord
  2
CENTERTINY
 70
    0
  3
Center (.15x) ___ _ ___ _ ___ _ ___ _ ___ _ ___
 72
   65
 73
    4
 40
7.619999999999999
 49
4.7625
 74
    0
 49
-0.9525
 74
    0
 49
0.9525
 74
    0
 49
-0.9525
 74
    0
  0
LTYPE
  5
48
330
5
100
AcDbSymbolTableRecord
100
AcDbLinetypeTableRecord
  2
CENTER2
 70
    0
  3
Center (.5x) ___ _ ___ _ ___ _ ___ _ ___ _ ___
 72
   65
 73
    4
 40
28.575
 49
19.05
 74
    0
 49
-3.175
 74
    0
 49
3.175
 74
    0
 49
-3.175
 74
    0
  0
LTYPE
  5
49
330
5
100
AcDbSymbolTableRecord
100
AcDbLinetypeTableRecord
  2
CENTERX2
 70
    0
  3
Center (2x) ________  __  ________  __  _____
 72
   65
 73
    4
 40
101.6
 49
63.5
 74
    0
 49
-12.7
 74
    0
 49
12.7
 74
    0
 49
-12.7
 74
    0
  0
ENDTAB
  0
TABLE
  2
LAYER
  5
2
330
0
100
AcDbSymbolTable
 70
    1
  0
LAYER
  5
10
330
2
100
AcDbSymbolTableRecord
100
AcDbLayerTableRecord
  2
0
 70
    1
 62
    7
  6
CONTINUOUS
290
0
370
    0
390
F
1001
LibreCad
1070
    1
  0
LAYER
  5
4A
330
2
100
AcDbSymbolTableRecord
100
AcDbLayerTableRecord
  2
0.2_slider_compression
 70
    1
 62
    1
  6
CONTINUOUS
370
    0
390
F
  0
LAYER
  5
4B
330
2
100
AcDbSymbolTableRecord
100
AcDbLayerTableRecord
  2
0_servo_arm
 70
    1
 62
    1
  6
CONTINUOUS
370
    0
390
F
  0
LAYER
  5
4C
330
2
100
AcDbSymbolTableRecord
100
AcDbLayerTableRecord
  2
1.1_top_acrylic_manifold_sides
 70
    1
 62
    1
  6
CONTINUOUS
370
    0
390
F
  0
LAYER
  5
4D
330
2
100
AcDbSymbolTableRecord
100
AcDbLayerTableRecord
  2
1.2_egress_slider_eighth
 70
    1
 62
    1
  6
CONTINUOUS
370
    0
390
F
  0
LAYER
  5
4E
330
2
100
AcDbSymbolTableRecord
100
AcDbLayerTableRecord
  2
1.3_servo_arm_spacer
 70
    1
 62
    1
  6
CONTINUOUS
370
    0
390
F
  0
LAYER
  5
4F
330
2
100
AcDbSymbolTableRecord
100
AcDbLayerTableRecord
  2
2.1_delrin_chambers_and_manifold
 70
    1
 62
    1
  6
CONTINUOUS
370
    0
390
F
  0
LAYER
  5
50
330
2
100
AcDbSymbolTableRecord
100
AcDbLayerTableRecord
  2
2.2_delrin_sliders
 70
    1
 62
    1
  6
CONTINUOUS
370
    0
390
F
  0
LAYER
  5
51
330
2
100
AcDbSymbolTableRecord
100
AcDbLayerTableRecord
  2
3.1_yellow_manifold_layer
 70
    1
 62
    1
  6
CONTINUOUS
370
    0
390
F
  0
LAYER
  5
52
330
2
100
AcDbSymbolTableRecord
100
AcDbLayerTableRecord
  2
4.1_pcb_side_spacers
 70
    1
 62
    1
  6
CONTINUOUS
370
    0
390
F
  0
LAYER
  5
53
330
2
100
AcDbSymbolTableRecord
100
AcDbLayerTableRecord
  2
4.2_pcb_insert
 70
    1
 62
    7
  6
CONTINUOUS
290
0
370
    0
390
F
1001
LibreCad
1070
    1
  0
LAYER
  5
54
330
2
100
AcDbSymbolTableRecord
100
AcDbLayerTableRecord
  2
5_support_acrylic
 70
    0
 62
    1
  6
CONTINUOUS
370
    0
390
F
  0
LAYER
  5
55
330
2
100
AcDbSymbolTableRecord
100
AcDbLayerTableRecord
  2
6.1_vacuum_trap_guides
 70
    1
 62
    1
  6
CONTINUOUS
370
    0
390
F
  0
LAYER
  5
56
330
2
100
AcDbSymbolTableRecord
100
AcDbLayerTableRecord
  2
6.2_vacuum_trap_tops
 70
    1
 62
    7
  6
CONTINUOUS
370
    0
390
F
  0
LAYER
  5
57
330
2
100
AcDbSymbolTableRecord
100
AcDbLayerTableRecord
  2
7_vacuum_trap_sliders
 70
    1
 62
    1
  6
CONTINUOUS
370
    0
390
F
  0
LAYER
  5
58
330
2
100
AcDbSymbolTableRecord
100
AcDbLayerTableRecord
  2
8_flow_regulator_retainers
 70
    1
 62
    1
  6
CONTINUOUS
370
    0
390
F
  0
LAYER
  5
59
330
2
100
AcDbSymbolTableRecord
100
AcDbLayerTableRecord
  2
9_trap_bottomplate
 70
    1
 62
    1
  6
CONTINUOUS
370
    0
390
F
  0
LAYER
  5
5A
330
2
100
AcDbSymbolTableRecord
100
AcDbLayerTableRecord
  2
sg90_servo_approx
 70
    1
 62
    7
  6
CONTINUOUS
290
0
370
   -3
390
F
1001
LibreCad
1070
    1
  0
ENDTAB
  0
TABLE
  2
STYLE
  5
3
330
0
100
AcDbSymbolTable
 70
    3
  0
STYLE
  5
5B
330
2
100
AcDbSymbolTableRecord
100
AcDbTextStyleTableRecord
  2
Standard
 70
    0
 40
0
 41
1
 50
0
 71
    0
 42
1
  3
txt
  4

  0
ENDTAB
  0
TABLE
  2
VIEW
  5
6
330
0
100
AcDbSymbolTable
 70
    0
  0
ENDTAB
  0
TABLE
  2
UCS
  5
7
330
0
100
AcDbSymbolTable
 70
    0
  0
ENDTAB
  0
TABLE
  2
APPID
  5
9
330
0
100
AcDbSymbolTable
 70
    1
  0
APPID
  5
12
330
9
100
AcDbSymbolTableRecord
100
AcDbRegAppTableRecord
  2
ACAD
 70
    0
  0
APPID
  5
5C
330
9
100
AcDbSymbolTableRecord
100
AcDbRegAppTableRecord
  2
LibreCad
 70
    0
  0
ENDTAB
  0
TABLE
  2
DIMSTYLE
  5
A
330
0
100
AcDbSymbolTable
 70
    1
100
AcDbDimStyleTable
 71
    1
  0
DIMSTYLE
105
5D
330
A
100
AcDbSymbolTableRecord
100
AcDbDimStyleTableRecord
  2
Standard
 70
    0
 40
2.5
 41
2.5
 42
0.625
 43
0.38
 44
1.25
 45
0
 46
0
 47
0
 48
0
 49
1
140
2.5
141
0.09
142
0
143
25.4
144
1
145
0
146
1
147
0.625
148
0
 71
    0
 72
    0
 73
    0
 74
    1
 75
    0
 76
    0
 77
    0
 78
    8
 79
    0
170
    0
171
    2
172
    0
173
    0
174
    0
175
    0
176
    0
177
    0
178
    0
179
    0
271
    2
272
    4
273
    2
274
    2
275
    0
276
    0
277
    2
278
   44
279
    0
280
    0
281
    0
282
    0
283
    1
284
    0
285
    0
286
    0
288
    0
289
    3
340
STANDARD
341

371
   -2
372
   -2
  0
ENDTAB
  0
TABLE
  2
BLOCK_RECORD
  5
1
330
0
100
AcDbSymbolTable
 70
    2
  0
BLOCK_RECORD
  5
1F
330
1
100
AcDbSymbolTableRecord
100
AcDbBlockTableRecord
  2
*Model_Space
 70
    0
280
    1
281
    0
  0
BLOCK_RECORD
  5
1E
330
1
100
AcDbSymbolTableRecord
100
AcDbBlockTableRecord
  2
*Paper_Space
 70
    0
280
    1
281
    0
  0
BLOCK_RECORD
  5
5E
330
1
100
AcDbSymbolTableRecord
100
AcDbBlockTableRecord
  2
vacuum_trap_top
 70
    0
280
    1
281
    0
  0
BLOCK_RECORD
  5
61
330
1
100
AcDbSymbolTableRecord
100
AcDbBlockTableRecord
  2
sg90_servo_footprint
 70
    0
280
    1
281
    0
  0
BLOCK_RECORD
  5
64
330
1
100
AcDbSymbolTableRecord
100
AcDbBlockTableRecord
  2
vactrap_slider
 70
    0
280
    1
281
    0
  0
BLOCK_RECORD
  5
67
330
1
100
AcDbSymbolTableRecord
100
AcDbBlockTableRecord
  2
vactrap_regulator_retainer
 70
    0
280
    1
281
    0
  0
BLOCK_RECORD
  5
6A
330
1
100
AcDbSymbolTableRecord
100
AcDbBlockTableRecord
  2
shimstock_chamber
 70
    0
280
    1
281
    0
  0
BLOCK_RECORD
  5
6D
330
1
100
AcDbSymbolTableRecord
100
AcDbBlockTableRecord
  2
egress_slider_unit
 70
    0
280
    1
281
    0
  0
BLOCK_RECORD
  5
70
330
1
100
AcDbSymbolTableRecord
100
AcDbBlockTableRecord
  2
sg90_servo_mount_holes
 70
    0
280
    1
281
    0
  0
BLOCK_RECORD
  5
73
330
1
100
AcDbSymbolTableRecord
100
AcDbBlockTableRecord
  2
support_plate_unit
 70
    0
280
    1
281
    0
  0
BLOCK_RECORD
  5
76
330
1
100
AcDbSymbolTableRecord
100
AcDbBlockTableRecord
  2
delrin_chamber
 70
    0
280
    1
281
    0
  0
BLOCK_RECORD
  5
79
330
1
100
AcDbSymbolTableRecord
100
AcDbBlockTableRecord
  2
vactrap_guide
 70
    0
280
    1
281
    0
  0
BLOCK_RECORD
  5
7C
330
1
100
AcDbSymbolTableRecord
100
AcDbBlockTableRecord
  2
delrin_slider
 70
    0
280
    1
281
    0
  0
ENDTAB
  0
ENDSEC
  0
SECTION
  2
BLOCKS
  0
BLOCK
  5
20
330
1F
100
AcDbEntity
  8
0
100
AcDbBlockBegin
  2
*Model_Space
 70
    0
 10
0
 20
0
 30
0
  3
*Model_Space
  1

  0
ENDBLK
  5
21
330
1F
100
AcDbEntity
  8
0
100
AcDbBlockEnd
  0
BLOCK
  5
1C
330
1B
100
AcDbEntity
  8
0
100
AcDbBlockBegin
  2
*Paper_Space
 70
    0
 10
0
 20
0
 30
0
  3
*Paper_Space
  1

  0
ENDBLK
  5
1D
330
1F
100
AcDbEntity
  8
0
100
AcDbBlockEnd
  0
BLOCK
  5
5F
330
5E
100
AcDbEntity
  8
0
100
AcDbBlockBegin
  2
vacuum_trap_top
 70
    0
 10
0
 20
0
  3
vacuum_trap_top
  1

  0
SPLINE
  5
7F
100
AcDbEntity
  8
6.2_vacuum_trap_tops
  6
ByLayer
 62
    5
370
   -1
100
AcDbSpline
210
0
220
0
230
0
 70
    8
 71
    3
 72
    8
 73
    4
 74
    0
 42
1e-07
 43
1e-07
 40
0
 40
0
 40
0
 40
0
 40
1
 40
1
 40
1
 40
1
 10
9.458002000000008
 20
1.229356999999993
 30
0
 10
11.53069500000001
 20
1.225918000000043
 30
0
 10
13.577118
 20
2.074066000000023
 30
0
 10
14.994411
 20
3.683110999999997
 30
0
  0
SPLINE
  5
80
100
AcDbEntity
  8
6.2_vacuum_trap_tops
  6
ByLayer
 62
    5
370
   -1
100
AcDbSpline
210
0
220
0
230
0
 70
    8
 71
    3
 72
    8
 73
    4
 74
    0
 42
1e-07
 43
1e-07
 40
0
 40
0
 40
0
 40
0
 40
1
 40
1
 40
1
 40
1
 10
14.994411
 20
3.683110999999997
 30
0
 10
17.244682
 20
6.246564000000042
 30
0
 10
17.267881
 20
10.32943900000004
 30
0
 10
14.70442799999999
 20
12.69570300000004
 30
0
  0
SPLINE
  5
81
100
AcDbEntity
  8
6.2_vacuum_trap_tops
  6
ByLayer
 62
    5
370
   -1
100
AcDbSpline
210
0
220
0
230
0
 70
    8
 71
    3
 72
    8
 73
    4
 74
    0
 42
1e-07
 43
1e-07
 40
0
 40
0
 40
0
 40
0
 40
1
 40
1
 40
1
 40
1
 10
14.70442799999999
 20
12.69570300000004
 30
0
 10
12.303366
 20
14.91117600000001
 30
0
 10
8.220355999999995
 20
14.72563100000002
 30
0
 10
6.480456000000004
 20
11.81419900000003
 30
0
  0
SPLINE
  5
82
100
AcDbEntity
  8
6.2_vacuum_trap_tops
  6
ByLayer
 62
    5
370
   -1
100
AcDbSpline
210
0
220
0
230
0
 70
    8
 71
    3
 72
    8
 73
    4
 74
    0
 42
1e-07
 43
1e-07
 40
0
 40
0
 40
0
 40
0
 40
1
 40
1
 40
1
 40
1
 10
6.480456000000004
 20
11.81419900000003
 30
0
 10
6.318065000000004
 20
11.55901299999999
 30
0
 10
6.190607000000001
 20
11.28053900000003
 30
0
 10
6.097813000000002
 20
11.02535399999999
 30
0
  0
SPLINE
  5
83
100
AcDbEntity
  8
6.2_vacuum_trap_tops
  6
ByLayer
 62
    5
370
   -1
100
AcDbSpline
210
0
220
0
230
0
 70
    8
 71
    3
 72
    8
 73
    4
 74
    0
 42
1e-07
 43
1e-07
 40
0
 40
0
 40
0
 40
0
 40
1
 40
1
 40
1
 40
1
 10
6.097813000000002
 20
11.02535399999999
 30
0
 10
5.807828999999998
 20
10.29459600000001
 30
0
 10
6.190562
 20
9.447845000000029
 30
0
 10
6.979317000000009
 20
9.285454000000023
 30
0
  0
SPLINE
  5
84
100
AcDbEntity
  8
6.2_vacuum_trap_tops
  6
ByLayer
 62
    5
370
   -1
100
AcDbSpline
210
0
220
0
230
0
 70
    8
 71
    3
 72
    8
 73
    4
 74
    0
 42
1e-07
 43
1e-07
 40
0
 40
0
 40
0
 40
0
 40
1
 40
1
 40
1
 40
1
 10
8.344730999999996
 20
9.00997000000001
 30
0
 10
8.358489000000006
 20
9.115496000000007
 30
0
 10
8.381291000000004
 20
9.219642000000022
 30
0
 10
8.412925000000001
 20
9.321247000000028
 30
0
  0
LWPOLYLINE
  5
85
100
AcDbEntity
  8
6.2_vacuum_trap_tops
  6
ByLayer
 62
    5
370
   -1
100
AcDbPolyline
 90
    2
 70
    0
 43
0
 10
6.979317000000009
 20
9.285454000000023
 10
8.344730999999996
 20
9.00997000000001
  0
SPLINE
  5
86
100
AcDbEntity
  8
6.2_vacuum_trap_tops
  6
ByLayer
 62
    5
370
   -1
100
AcDbSpline
210
0
220
0
230
0
 70
    8
 71
    3
 72
    8
 73
    4
 74
    0
 42
1e-07
 43
1e-07
 40
0
 40
0
 40
0
 40
0
 40
1
 40
1
 40
1
 40
1
 10
7.037314000000009
 20
9.598770999999999
 30
0
 10
6.561740999999998
 20
9.691566000000023
 30
0
 10
6.248559
 20
10.16700300000002
 30
0
 10
6.341353999999995
 20
10.67737400000004
 30
0
  0
SPLINE
  5
87
100
AcDbEntity
  8
6.2_vacuum_trap_tops
  6
ByLayer
 62
    5
370
   -1
100
AcDbSpline
210
0
220
0
230
0
 70
    8
 71
    3
 72
    8
 73
    4
 74
    0
 42
1e-07
 43
1e-07
 40
0
 40
0
 40
0
 40
0
 40
1
 40
1
 40
1
 40
1
 10
6.341353999999995
 20
10.67737400000004
 30
0
 10
6.434148000000008
 20
11.11814900000002
 30
0
 10
6.874877999999995
 20
11.59367600000002
 30
0
 10
7.222858000000002
 20
11.906858
 30
0
  0
SPLINE
  5
88
100
AcDbEntity
  8
6.2_vacuum_trap_tops
  6
ByLayer
 62
    5
370
   -1
100
AcDbSpline
210
0
220
0
230
0
 70
    8
 71
    3
 72
    8
 73
    4
 74
    0
 42
1e-07
 43
1e-07
 40
0
 40
0
 40
0
 40
0
 40
1
 40
1
 40
1
 40
1
 10
7.222858000000002
 20
11.906858
 30
0
 10
7.164861000000001
 20
11.50088199999999
 30
0
 10
7.315652999999998
 20
11.04864300000003
 30
0
 10
7.628834999999995
 20
10.77025900000001
 30
0
  0
LWPOLYLINE
  5
89
100
AcDbEntity
  8
6.2_vacuum_trap_tops
  6
ByLayer
 62
    5
370
   -1
100
AcDbPolyline
 90
    2
 70
    0
 43
0
 10
8.412925000000001
 20
9.321247000000028
 10
7.037314000000009
 20
9.598770999999999
  0
SPLINE
  5
8A
100
AcDbEntity
  8
6.2_vacuum_trap_tops
  6
ByLayer
 62
    5
370
   -1
100
AcDbSpline
210
0
220
0
230
0
 70
    8
 71
    3
 72
    8
 73
    4
 74
    0
 42
1e-07
 43
1e-07
 40
0
 40
0
 40
0
 40
0
 40
1
 40
1
 40
1
 40
1
 10
8.678892000000005
 20
9.847297000000033
 30
0
 10
8.756147999999996
 20
9.953884000000016
 30
0
 10
8.844548000000003
 20
10.05193100000002
 30
0
 10
8.942594
 20
10.13977199999999
 30
0
  0
LWPOLYLINE
  5
8B
100
AcDbEntity
  8
6.2_vacuum_trap_tops
  6
ByLayer
 62
    5
370
   -1
100
AcDbPolyline
 90
    2
 70
    0
 43
0
 10
7.628834999999995
 20
10.77025900000001
 10
8.678892000000005
 20
9.847297000000033
  0
SPLINE
  5
8C
100
AcDbEntity
  8
6.2_vacuum_trap_tops
  6
ByLayer
 62
    5
370
   -1
100
AcDbSpline
210
0
220
0
230
0
 70
    8
 71
    3
 72
    8
 73
    4
 74
    0
 42
1e-07
 43
1e-07
 40
0
 40
0
 40
0
 40
0
 40
1
 40
1
 40
1
 40
1
 10
7.895708999999997
 20
11.06024200000002
 30
0
 10
7.710120000000003
 20
11.22263300000003
 30
0
 10
7.582391999999999
 20
11.44301999999999
 30
0
 10
7.582391999999999
 20
11.69820500000003
 30
0
  0
SPLINE
  5
8D
100
AcDbEntity
  8
6.2_vacuum_trap_tops
  6
ByLayer
 62
    5
370
   -1
100
AcDbSpline
210
0
220
0
230
0
 70
    8
 71
    3
 72
    8
 73
    4
 74
    0
 42
1e-07
 43
1e-07
 40
0
 40
0
 40
0
 40
0
 40
1
 40
1
 40
1
 40
1
 10
7.582391999999999
 20
11.69820500000003
 30
0
 10
7.547594000000004
 20
12.03458599999999
 30
0
 10
7.733274000000009
 20
12.35936700000002
 30
0
 10
8.023257000000001
 20
12.51015900000004
 30
0
  0
SPLINE
  5
8E
100
AcDbEntity
  8
6.2_vacuum_trap_tops
  6
ByLayer
 62
    5
370
   -1
100
AcDbSpline
210
0
220
0
230
0
 70
    8
 71
    3
 72
    8
 73
    4
 74
    0
 42
1e-07
 43
1e-07
 40
0
 40
0
 40
0
 40
0
 40
1
 40
1
 40
1
 40
1
 10
8.023257000000001
 20
12.51015900000004
 30
0
 10
8.406035000000003
 20
12.730546
 30
0
 10
8.777169000000001
 20
12.89289200000002
 30
0
 10
9.194744999999998
 20
12.98568600000004
 30
0
  0
SPLINE
  5
8F
100
AcDbEntity
  8
6.2_vacuum_trap_tops
  6
ByLayer
 62
    5
370
   -1
100
AcDbSpline
210
0
220
0
230
0
 70
    8
 71
    3
 72
    8
 73
    4
 74
    0
 42
1e-07
 43
1e-07
 40
0
 40
0
 40
0
 40
0
 40
1
 40
1
 40
1
 40
1
 10
9.194744999999998
 20
12.98568600000004
 30
0
 10
8.939559000000003
 20
12.672504
 30
0
 10
8.846720000000005
 20
12.23177500000003
 30
0
 10
8.974311999999998
 20
11.81419900000003
 30
0
  0
LWPOLYLINE
  5
90
100
AcDbEntity
  8
6.2_vacuum_trap_tops
  6
ByLayer
 62
    5
370
   -1
100
AcDbPolyline
 90
    2
 70
    0
 43
0
 10
8.942594
 20
10.13977199999999
 10
7.895708999999997
 20
11.06024200000002
  0
SPLINE
  5
91
100
AcDbEntity
  8
6.2_vacuum_trap_tops
  6
ByLayer
 62
    5
370
   -1
100
AcDbSpline
210
0
220
0
230
0
 70
    8
 71
    3
 72
    8
 73
    4
 74
    0
 42
1e-07
 43
1e-07
 40
0
 40
0
 40
0
 40
0
 40
1
 40
1
 40
1
 40
1
 10
9.434436000000005
 20
10.45671400000003
 30
0
 10
9.546686000000008
 20
10.50600300000002
 30
0
 10
9.663555000000002
 20
10.54402400000004
 30
0
 10
9.783321000000001
 20
10.57021500000002
 30
0
  0
LWPOLYLINE
  5
92
100
AcDbEntity
  8
6.2_vacuum_trap_tops
  6
ByLayer
 62
    5
370
   -1
100
AcDbPolyline
 90
    2
 70
    0
 43
0
 10
8.974311999999998
 20
11.81419900000003
 10
9.434436000000005
 20
10.45671400000003
  0
SPLINE
  5
93
100
AcDbEntity
  8
6.2_vacuum_trap_tops
  6
ByLayer
 62
    5
370
   -1
100
AcDbSpline
210
0
220
0
230
0
 70
    8
 71
    3
 72
    8
 73
    4
 74
    0
 42
1e-07
 43
1e-07
 40
0
 40
0
 40
0
 40
0
 40
1
 40
1
 40
1
 40
1
 10
9.322292000000004
 20
11.91863800000004
 30
0
 10
9.194699999999997
 20
12.324614
 30
0
 10
9.380379000000005
 20
12.80009699999999
 30
0
 10
9.763157000000007
 20
12.98568600000004
 30
0
  0
SPLINE
  5
94
100
AcDbEntity
  8
6.2_vacuum_trap_tops
  6
ByLayer
 62
    5
370
   -1
100
AcDbSpline
210
0
220
0
230
0
 70
    8
 71
    3
 72
    8
 73
    4
 74
    0
 42
1e-07
 43
1e-07
 40
0
 40
0
 40
0
 40
0
 40
1
 40
1
 40
1
 40
1
 10
9.763157000000007
 20
12.98568600000004
 30
0
 10
10.23873
 20
13.206074
 30
0
 10
10.9346
 20
13.02039400000001
 30
0
 10
11.410172
 20
12.89280200000002
 30
0
  0
SPLINE
  5
95
100
AcDbEntity
  8
6.2_vacuum_trap_tops
  6
ByLayer
 62
    5
370
   -1
100
AcDbSpline
210
0
220
0
230
0
 70
    8
 71
    3
 72
    8
 73
    4
 74
    0
 42
1e-07
 43
1e-07
 40
0
 40
0
 40
0
 40
0
 40
1
 40
1
 40
1
 40
1
 10
11.410172
 20
12.89280200000002
 30
0
 10
11.027394
 20
12.730411
 30
0
 10
10.74901
 20
12.41740900000002
 30
0
 10
10.656216
 20
11.97663399999999
 30
0
  0
LWPOLYLINE
  5
96
100
AcDbEntity
  8
6.2_vacuum_trap_tops
  6
ByLayer
 62
    5
370
   -1
100
AcDbPolyline
 90
    2
 70
    0
 43
0
 10
9.783321000000001
 20
10.57021500000002
 10
9.322292000000004
 20
11.91863800000004
  0
SPLINE
  5
97
100
AcDbEntity
  8
6.2_vacuum_trap_tops
  6
ByLayer
 62
    5
370
   -1
100
AcDbSpline
210
0
220
0
230
0
 70
    8
 71
    3
 72
    8
 73
    4
 74
    0
 42
1e-07
 43
1e-07
 40
0
 40
0
 40
0
 40
0
 40
1
 40
1
 40
1
 40
1
 10
10.381412
 20
10.60306600000001
 30
0
 10
10.507628
 20
10.588911
 30
0
 10
10.632057
 20
10.56180900000004
 30
0
 10
10.752725
 20
10.52218800000003
 30
0
  0
LWPOLYLINE
  5
98
100
AcDbEntity
  8
6.2_vacuum_trap_tops
  6
ByLayer
 62
    5
370
   -1
100
AcDbPolyline
 90
    2
 70
    0
 43
0
 10
10.656216
 20
11.97663399999999
 10
10.381412
 20
10.60306600000001
  0
SPLINE
  5
99
100
AcDbEntity
  8
6.2_vacuum_trap_tops
  6
ByLayer
 62
    5
370
   -1
100
AcDbSpline
210
0
220
0
230
0
 70
    8
 71
    3
 72
    8
 73
    4
 74
    0
 42
1e-07
 43
1e-07
 40
0
 40
0
 40
0
 40
0
 40
1
 40
1
 40
1
 40
1
 10
11.027529
 20
11.91863800000004
 30
0
 10
11.120324
 20
12.35941200000002
 30
0
 10
11.53781000000001
 20
12.672504
 30
0
 10
11.97858499999999
 20
12.63770600000004
 30
0
  0
SPLINE
  5
9A
100
AcDbEntity
  8
6.2_vacuum_trap_tops
  6
ByLayer
 62
    5
370
   -1
100
AcDbSpline
210
0
220
0
230
0
 70
    8
 71
    3
 72
    8
 73
    4
 74
    0
 42
1e-07
 43
1e-07
 40
0
 40
0
 40
0
 40
0
 40
1
 40
1
 40
1
 40
1
 10
11.97858499999999
 20
12.63770600000004
 30
0
 10
12.488955
 20
12.60290800000001
 30
0
 10
13.022435
 20
12.10409200000004
 30
0
 10
13.335617
 20
11.72131400000001
 30
0
  0
SPLINE
  5
9B
100
AcDbEntity
  8
6.2_vacuum_trap_tops
  6
ByLayer
 62
    5
370
   -1
100
AcDbSpline
210
0
220
0
230
0
 70
    8
 71
    3
 72
    8
 73
    4
 74
    0
 42
1e-07
 43
1e-07
 40
0
 40
0
 40
0
 40
0
 40
1
 40
1
 40
1
 40
1
 10
13.335617
 20
11.72131400000001
 30
0
 10
12.894842
 20
11.77931100000001
 30
0
 10
12.477401
 20
11.62851900000004
 30
0
 10
12.199017
 20
11.315337
 30
0
  0
LWPOLYLINE
  5
9C
100
AcDbEntity
  8
6.2_vacuum_trap_tops
  6
ByLayer
 62
    5
370
   -1
100
AcDbPolyline
 90
    2
 70
    0
 43
0
 10
10.752725
 20
10.52218800000003
 10
11.027529
 20
11.91863800000004
  0
SPLINE
  5
9D
100
AcDbEntity
  8
6.2_vacuum_trap_tops
  6
ByLayer
 62
    5
370
   -1
100
AcDbSpline
210
0
220
0
230
0
 70
    8
 71
    3
 72
    8
 73
    4
 74
    0
 42
1e-07
 43
1e-07
 40
0
 40
0
 40
0
 40
0
 40
1
 40
1
 40
1
 40
1
 10
11.26790100000001
 20
10.25780300000002
 30
0
 10
11.365363
 20
10.18680000000001
 30
0
 10
11.455654
 20
10.10644600000001
 30
0
 10
11.53749500000001
 20
10.01788700000003
 30
0
  0
LWPOLYLINE
  5
9E
100
AcDbEntity
  8
6.2_vacuum_trap_tops
  6
ByLayer
 62
    5
370
   -1
100
AcDbPolyline
 90
    2
 70
    0
 43
0
 10
12.199017
 20
11.315337
 10
11.26790100000001
 20
10.25780300000002
  0
SPLINE
  5
9F
100
AcDbEntity
  8
6.2_vacuum_trap_tops
  6
ByLayer
 62
    5
370
   -1
100
AcDbSpline
210
0
220
0
230
0
 70
    8
 71
    3
 72
    8
 73
    4
 74
    0
 42
1e-07
 43
1e-07
 40
0
 40
0
 40
0
 40
0
 40
1
 40
1
 40
1
 40
1
 10
12.45411200000001
 20
11.08335099999999
 30
0
 10
12.83689
 20
11.50092699999999
 30
0
 10
13.498052
 20
11.50092699999999
 30
0
 10
13.84603200000001
 20
11.02535399999999
 30
0
  0
SPLINE
  5
A0
100
AcDbEntity
  8
6.2_vacuum_trap_tops
  6
ByLayer
 62
    5
370
   -1
100
AcDbSpline
210
0
220
0
230
0
 70
    8
 71
    3
 72
    8
 73
    4
 74
    0
 42
1e-07
 43
1e-07
 40
0
 40
0
 40
0
 40
0
 40
1
 40
1
 40
1
 40
1
 10
13.84603200000001
 20
11.02535399999999
 30
0
 10
14.101218
 20
10.64257600000002
 30
0
 10
14.251964
 20
10.20175600000005
 30
0
 10
14.37955699999999
 20
9.760982000000013
 30
0
  0
SPLINE
  5
A1
100
AcDbEntity
  8
6.2_vacuum_trap_tops
  6
ByLayer
 62
    5
370
   -1
100
AcDbSpline
210
0
220
0
230
0
 70
    8
 71
    3
 72
    8
 73
    4
 74
    0
 42
1e-07
 43
1e-07
 40
0
 40
0
 40
0
 40
0
 40
1
 40
1
 40
1
 40
1
 10
14.37955699999999
 20
9.760982000000013
 30
0
 10
14.06637500000001
 20
10.016167
 30
0
 10
13.62564500000001
 20
10.10900700000002
 30
0
 10
13.20806900000001
 20
9.981414000000029
 30
0
  0
LWPOLYLINE
  5
A2
100
AcDbEntity
  8
6.2_vacuum_trap_tops
  6
ByLayer
 62
    5
370
   -1
100
AcDbPolyline
 90
    2
 70
    0
 43
0
 10
11.53749500000001
 20
10.01788700000003
 10
12.45411200000001
 20
11.08335099999999
  0
SPLINE
  5
A3
100
AcDbEntity
  8
6.2_vacuum_trap_tops
  6
ByLayer
 62
    5
370
   -1
100
AcDbSpline
210
0
220
0
230
0
 70
    8
 71
    3
 72
    8
 73
    4
 74
    0
 42
1e-07
 43
1e-07
 40
0
 40
0
 40
0
 40
0
 40
1
 40
1
 40
1
 40
1
 10
11.86440400000001
 20
9.52197000000001
 30
0
 10
11.915246
 20
9.409070000000042
 30
0
 10
11.954637
 20
9.291354000000013
 30
0
 10
11.98198500000001
 20
9.170592999999997
 30
0
  0
LWPOLYLINE
  5
A4
100
AcDbEntity
  8
6.2_vacuum_trap_tops
  6
ByLayer
 62
    5
370
   -1
100
AcDbPolyline
 90
    2
 70
    0
 43
0
 10
13.20806900000001
 20
9.981414000000029
 10
11.86440400000001
 20
9.52197000000001
  0
SPLINE
  5
A5
100
AcDbEntity
  8
6.2_vacuum_trap_tops
  6
ByLayer
 62
    5
370
   -1
100
AcDbSpline
210
0
220
0
230
0
 70
    8
 71
    3
 72
    8
 73
    4
 74
    0
 42
1e-07
 43
1e-07
 40
0
 40
0
 40
0
 40
0
 40
1
 40
1
 40
1
 40
1
 10
13.347396
 20
9.633434000000022
 30
0
 10
13.915763
 20
9.819023000000023
 30
0
 10
14.518884
 20
9.378204000000039
 30
0
 10
14.518884
 20
8.775038000000002
 30
0
  0
SPLINE
  5
A6
100
AcDbEntity
  8
6.2_vacuum_trap_tops
  6
ByLayer
 62
    5
370
   -1
100
AcDbSpline
210
0
220
0
230
0
 70
    8
 71
    3
 72
    8
 73
    4
 74
    0
 42
1e-07
 43
1e-07
 40
0
 40
0
 40
0
 40
0
 40
1
 40
1
 40
1
 40
1
 10
14.518884
 20
8.775038000000002
 30
0
 10
14.50729500000001
 20
8.369062000000042
 30
0
 10
14.44915300000001
 20
7.951531000000053
 30
0
 10
14.32155999999999
 20
7.545554000000038
 30
0
  0
SPLINE
  5
A7
100
AcDbEntity
  8
6.2_vacuum_trap_tops
  6
ByLayer
 62
    5
370
   -1
100
AcDbSpline
210
0
220
0
230
0
 70
    8
 71
    3
 72
    8
 73
    4
 74
    0
 42
1e-07
 43
1e-07
 40
0
 40
0
 40
0
 40
0
 40
1
 40
1
 40
1
 40
1
 10
14.32155999999999
 20
7.545554000000038
 30
0
 10
14.15916900000001
 20
7.928332000000012
 30
0
 10
13.811369
 20
8.206716000000029
 30
0
 10
13.405393
 20
8.299511000000003
 30
0
  0
LWPOLYLINE
  5
A8
100
AcDbEntity
  8
6.2_vacuum_trap_tops
  6
ByLayer
 62
    5
370
   -1
100
AcDbPolyline
 90
    2
 70
    0
 43
0
 10
11.98198500000001
 20
9.170592999999997
 10
13.347396
 20
9.633434000000022
  0
SPLINE
  5
A9
100
AcDbEntity
  8
6.2_vacuum_trap_tops
  6
ByLayer
 62
    5
370
   -1
100
AcDbSpline
210
0
220
0
230
0
 70
    8
 71
    3
 72
    8
 73
    4
 74
    0
 42
1e-07
 43
1e-07
 40
0
 40
0
 40
0
 40
0
 40
1
 40
1
 40
1
 40
1
 10
12.019817
 20
8.574315000000013
 30
0
 10
12.006721
 20
8.448056000000008
 30
0
 10
11.980688
 20
8.32347900000002
 30
0
 10
11.94211200000001
 20
8.202546000000041
 30
0
  0
LWPOLYLINE
  5
AA
100
AcDbEntity
  8
6.2_vacuum_trap_tops
  6
ByLayer
 62
    5
370
   -1
100
AcDbPolyline
 90
    2
 70
    0
 43
0
 10
13.405393
 20
8.299511000000003
 10
12.019817
 20
8.574315000000013
  0
SPLINE
  5
AB
100
AcDbEntity
  8
6.2_vacuum_trap_tops
  6
ByLayer
 62
    5
370
   -1
100
AcDbSpline
210
0
220
0
230
0
 70
    8
 71
    3
 72
    8
 73
    4
 74
    0
 42
1e-07
 43
1e-07
 40
0
 40
0
 40
0
 40
0
 40
1
 40
1
 40
1
 40
1
 10
13.300954
 20
7.928422000000012
 30
0
 10
13.776526
 20
7.835627000000052
 30
0
 10
14.101308
 20
7.359965000000052
 30
0
 10
13.996914
 20
6.849594000000018
 30
0
  0
SPLINE
  5
AC
100
AcDbEntity
  8
6.2_vacuum_trap_tops
  6
ByLayer
 62
    5
370
   -1
100
AcDbSpline
210
0
220
0
230
0
 70
    8
 71
    3
 72
    8
 73
    4
 74
    0
 42
1e-07
 43
1e-07
 40
0
 40
0
 40
0
 40
0
 40
1
 40
1
 40
1
 40
1
 10
13.996914
 20
6.849594000000018
 30
0
 10
13.90411900000001
 20
6.374021000000027
 30
0
 10
13.46338900000001
 20
5.933291999999987
 30
0
 10
13.115409
 20
5.620110000000011
 30
0
  0
SPLINE
  5
AD
100
AcDbEntity
  8
6.2_vacuum_trap_tops
  6
ByLayer
 62
    5
370
   -1
100
AcDbSpline
210
0
220
0
230
0
 70
    8
 71
    3
 72
    8
 73
    4
 74
    0
 42
1e-07
 43
1e-07
 40
0
 40
0
 40
0
 40
0
 40
1
 40
1
 40
1
 40
1
 10
13.115409
 20
5.620110000000011
 30
0
 10
13.173406
 20
6.060884000000037
 30
0
 10
13.057413
 20
6.478550000000041
 30
0
 10
12.709433
 20
6.756934000000001
 30
0
  0
LWPOLYLINE
  5
AE
100
AcDbEntity
  8
6.2_vacuum_trap_tops
  6
ByLayer
 62
    5
370
   -1
100
AcDbPolyline
 90
    2
 70
    0
 43
0
 10
11.94211200000001
 20
8.202546000000041
 10
13.300954
 20
7.928422000000012
  0
SPLINE
  5
AF
100
AcDbEntity
  8
6.2_vacuum_trap_tops
  6
ByLayer
 62
    5
370
   -1
100
AcDbSpline
210
0
220
0
230
0
 70
    8
 71
    3
 72
    8
 73
    4
 74
    0
 42
1e-07
 43
1e-07
 40
0
 40
0
 40
0
 40
0
 40
1
 40
1
 40
1
 40
1
 10
11.670253
 20
7.670382000000018
 30
0
 10
11.603961
 20
7.57928800000002
 30
0
 10
11.529494
 20
7.494434000000012
 30
0
 10
11.44778000000001
 20
7.416874000000007
 30
0
  0
LWPOLYLINE
  5
B0
100
AcDbEntity
  8
6.2_vacuum_trap_tops
  6
ByLayer
 62
    5
370
   -1
100
AcDbPolyline
 90
    2
 70
    0
 43
0
 10
12.709433
 20
6.756934000000001
 10
11.670253
 20
7.670382000000018
  0
SPLINE
  5
B1
100
AcDbEntity
  8
6.2_vacuum_trap_tops
  6
ByLayer
 62
    5
370
   -1
100
AcDbSpline
210
0
220
0
230
0
 70
    8
 71
    3
 72
    8
 73
    4
 74
    0
 42
1e-07
 43
1e-07
 40
0
 40
0
 40
0
 40
0
 40
1
 40
1
 40
1
 40
1
 10
12.489
 20
6.501614000000018
 30
0
 10
12.894977
 20
6.118836000000037
 30
0
 10
12.895022
 20
5.457673999999997
 30
0
 10
12.419449
 20
5.10969399999999
 30
0
  0
SPLINE
  5
B2
100
AcDbEntity
  8
6.2_vacuum_trap_tops
  6
ByLayer
 62
    5
370
   -1
100
AcDbSpline
210
0
220
0
230
0
 70
    8
 71
    3
 72
    8
 73
    4
 74
    0
 42
1e-07
 43
1e-07
 40
0
 40
0
 40
0
 40
0
 40
1
 40
1
 40
1
 40
1
 10
12.419449
 20
5.10969399999999
 30
0
 10
12.036671
 20
4.854509000000007
 30
0
 10
11.59585200000001
 20
4.70376200000004
 30
0
 10
11.15507700000001
 20
4.576169999999991
 30
0
  0
SPLINE
  5
B3
100
AcDbEntity
  8
6.2_vacuum_trap_tops
  6
ByLayer
 62
    5
370
   -1
100
AcDbSpline
210
0
220
0
230
0
 70
    8
 71
    3
 72
    8
 73
    4
 74
    0
 42
1e-07
 43
1e-07
 40
0
 40
0
 40
0
 40
0
 40
1
 40
1
 40
1
 40
1
 10
11.15507700000001
 20
4.576169999999991
 30
0
 10
11.44506
 20
4.924149999999997
 30
0
 10
11.503102
 20
5.364969000000031
 30
0
 10
11.37550900000001
 20
5.782545000000027
 30
0
  0
LWPOLYLINE
  5
B4
100
AcDbEntity
  8
6.2_vacuum_trap_tops
  6
ByLayer
 62
    5
370
   -1
100
AcDbPolyline
 90
    2
 70
    0
 43
0
 10
11.44778000000001
 20
7.416874000000007
 10
12.489
 20
6.501614000000018
  0
SPLINE
  5
B5
100
AcDbEntity
  8
6.2_vacuum_trap_tops
  6
ByLayer
 62
    5
370
   -1
100
AcDbSpline
210
0
220
0
230
0
 70
    8
 71
    3
 72
    8
 73
    4
 74
    0
 42
1e-07
 43
1e-07
 40
0
 40
0
 40
0
 40
0
 40
1
 40
1
 40
1
 40
1
 10
10.952996
 20
7.083845999999987
 30
0
 10
10.83274300000001
 20
7.028407000000023
 30
0
 10
10.70689400000001
 20
6.986026000000038
 30
0
 10
10.577603
 20
6.957430000000052
 30
0
  0
LWPOLYLINE
  5
B6
100
AcDbEntity
  8
6.2_vacuum_trap_tops
  6
ByLayer
 62
    5
370
   -1
100
AcDbPolyline
 90
    2
 70
    0
 43
0
 10
11.37550900000001
 20
5.782545000000027
 10
10.952996
 20
7.083845999999987
  0
SPLINE
  5
B7
100
AcDbEntity
  8
6.2_vacuum_trap_tops
  6
ByLayer
 62
    5
370
   -1
100
AcDbSpline
210
0
220
0
230
0
 70
    8
 71
    3
 72
    8
 73
    4
 74
    0
 42
1e-07
 43
1e-07
 40
0
 40
0
 40
0
 40
0
 40
1
 40
1
 40
1
 40
1
 10
10.99264100000001
 20
5.666552000000017
 30
0
 10
11.18983
 20
5.109783999999991
 30
0
 10
10.748965
 20
4.506619000000001
 30
0
 10
10.14580000000001
 20
4.506619000000001
 30
0
  0
SPLINE
  5
B8
100
AcDbEntity
  8
6.2_vacuum_trap_tops
  6
ByLayer
 62
    5
370
   -1
100
AcDbSpline
210
0
220
0
230
0
 70
    8
 71
    3
 72
    8
 73
    4
 74
    0
 42
1e-07
 43
1e-07
 40
0
 40
0
 40
0
 40
0
 40
1
 40
1
 40
1
 40
1
 10
10.14580000000001
 20
4.506619000000001
 30
0
 10
9.739823000000001
 20
4.506619000000001
 30
0
 10
9.287493999999995
 20
4.564570000000003
 30
0
 10
8.916316000000009
 20
4.692162999999987
 30
0
  0
SPLINE
  5
B9
100
AcDbEntity
  8
6.2_vacuum_trap_tops
  6
ByLayer
 62
    5
370
   -1
100
AcDbSpline
210
0
220
0
230
0
 70
    8
 71
    3
 72
    8
 73
    4
 74
    0
 42
1e-07
 43
1e-07
 40
0
 40
0
 40
0
 40
0
 40
1
 40
1
 40
1
 40
1
 10
8.916316000000009
 20
4.692162999999987
 30
0
 10
9.322292000000004
 20
4.819756000000041
 30
0
 10
9.647164000000004
 20
5.132893000000017
 30
0
 10
9.705160000000006
 20
5.573667
 30
0
  0
LWPOLYLINE
  5
BA
100
AcDbEntity
  8
6.2_vacuum_trap_tops
  6
ByLayer
 62
    5
370
   -1
100
AcDbPolyline
 90
    2
 70
    0
 43
0
 10
10.577603
 20
6.957430000000052
 10
10.99264100000001
 20
5.666552000000017
  0
SPLINE
  5
BB
100
AcDbEntity
  8
6.2_vacuum_trap_tops
  6
ByLayer
 62
    5
370
   -1
100
AcDbSpline
210
0
220
0
230
0
 70
    8
 71
    3
 72
    8
 73
    4
 74
    0
 42
1e-07
 43
1e-07
 40
0
 40
0
 40
0
 40
0
 40
1
 40
1
 40
1
 40
1
 10
9.97045
 20
6.924129999999991
 30
0
 10
9.847305000000006
 20
6.938073000000031
 30
0
 10
9.725869000000003
 20
6.964323000000043
 30
0
 10
9.607971000000006
 20
7.002515000000017
 30
0
  0
LWPOLYLINE
  5
BC
100
AcDbEntity
  8
6.2_vacuum_trap_tops
  6
ByLayer
 62
    5
370
   -1
100
AcDbPolyline
 90
    2
 70
    0
 43
0
 10
9.705160000000006
 20
5.573667
 10
9.97045
 20
6.924129999999991
  0
SPLINE
  5
BD
100
AcDbEntity
  8
6.2_vacuum_trap_tops
  6
ByLayer
 62
    5
370
   -1
100
AcDbSpline
210
0
220
0
230
0
 70
    8
 71
    3
 72
    8
 73
    4
 74
    0
 42
1e-07
 43
1e-07
 40
0
 40
0
 40
0
 40
0
 40
1
 40
1
 40
1
 40
1
 10
9.333847000000006
 20
5.654998000000028
 30
0
 10
9.229453000000007
 20
5.109828999999991
 30
0
 10
8.626287000000005
 20
4.761849000000041
 30
0
 10
8.115916999999996
 20
5.017034000000017
 30
0
  0
SPLINE
  5
BE
100
AcDbEntity
  8
6.2_vacuum_trap_tops
  6
ByLayer
 62
    5
370
   -1
100
AcDbSpline
210
0
220
0
230
0
 70
    8
 71
    3
 72
    8
 73
    4
 74
    0
 42
1e-07
 43
1e-07
 40
0
 40
0
 40
0
 40
0
 40
1
 40
1
 40
1
 40
1
 10
8.115916999999996
 20
5.017034000000017
 30
0
 10
7.709940000000003
 20
5.237422000000038
 30
0
 10
7.361959999999996
 20
5.527360000000037
 30
0
 10
7.071977000000003
 20
5.840542000000028
 30
0
  0
SPLINE
  5
BF
100
AcDbEntity
  8
6.2_vacuum_trap_tops
  6
ByLayer
 62
    5
370
   -1
100
AcDbSpline
210
0
220
0
230
0
 70
    8
 71
    3
 72
    8
 73
    4
 74
    0
 42
1e-07
 43
1e-07
 40
0
 40
0
 40
0
 40
0
 40
1
 40
1
 40
1
 40
1
 10
7.071977000000003
 20
5.840542000000028
 30
0
 10
7.477952999999999
 20
5.782545000000027
 30
0
 10
7.895528999999996
 20
5.933336999999987
 30
0
 10
8.173912999999999
 20
6.246519000000028
 30
0
  0
LWPOLYLINE
  5
C0
100
AcDbEntity
  8
6.2_vacuum_trap_tops
  6
ByLayer
 62
    5
370
   -1
100
AcDbPolyline
 90
    2
 70
    0
 43
0
 10
9.607971000000006
 20
7.002515000000017
 10
9.333847000000006
 20
5.654998000000028
  0
SPLINE
  5
C1
100
AcDbEntity
  8
6.2_vacuum_trap_tops
  6
ByLayer
 62
    5
370
   -1
100
AcDbSpline
210
0
220
0
230
0
 70
    8
 71
    3
 72
    8
 73
    4
 74
    0
 42
1e-07
 43
1e-07
 40
0
 40
0
 40
0
 40
0
 40
1
 40
1
 40
1
 40
1
 10
9.077847000000006
 20
7.276186999999993
 30
0
 10
8.987430000000003
 20
7.342791000000027
 30
0
 10
8.903259000000006
 20
7.417482000000007
 30
0
 10
8.826375999999996
 20
7.499337000000033
 30
0
  0
LWPOLYLINE
  5
C2
100
AcDbEntity
  8
6.2_vacuum_trap_tops
  6
ByLayer
 62
    5
370
   -1
100
AcDbPolyline
 90
    2
 70
    0
 43
0
 10
8.173912999999999
 20
6.246519000000028
 10
9.077847000000006
 20
7.276186999999993
  0
SPLINE
  5
C3
100
AcDbEntity
  8
6.2_vacuum_trap_tops
  6
ByLayer
 62
    5
370
   -1
100
AcDbSpline
210
0
220
0
230
0
 70
    8
 71
    3
 72
    8
 73
    4
 74
    0
 42
1e-07
 43
1e-07
 40
0
 40
0
 40
0
 40
0
 40
1
 40
1
 40
1
 40
1
 10
7.941927000000007
 20
6.490060000000028
 30
0
 10
7.559149000000006
 20
6.084083000000021
 30
0
 10
6.897987000000001
 20
6.084083000000021
 30
0
 10
6.550007000000007
 20
6.548056000000031
 30
0
  0
SPLINE
  5
C4
100
AcDbEntity
  8
6.2_vacuum_trap_tops
  6
ByLayer
 62
    5
370
   -1
100
AcDbSpline
210
0
220
0
230
0
 70
    8
 71
    3
 72
    8
 73
    4
 74
    0
 42
1e-07
 43
1e-07
 40
0
 40
0
 40
0
 40
0
 40
1
 40
1
 40
1
 40
1
 10
6.550007000000007
 20
6.548056000000031
 30
0
 10
6.294820999999999
 20
6.930833999999997
 30
0
 10
6.144075000000001
 20
7.371654000000042
 30
0
 10
6.016481999999996
 20
7.812429000000009
 30
0
  0
SPLINE
  5
C5
100
AcDbEntity
  8
6.2_vacuum_trap_tops
  6
ByLayer
 62
    5
370
   -1
100
AcDbSpline
210
0
220
0
230
0
 70
    8
 71
    3
 72
    8
 73
    4
 74
    0
 42
1e-07
 43
1e-07
 40
0
 40
0
 40
0
 40
0
 40
1
 40
1
 40
1
 40
1
 10
6.016481999999996
 20
7.812429000000009
 30
0
 10
6.062880000000006
 20
7.731233000000032
 30
0
 10
6.120965999999996
 20
7.708035000000002
 30
0
 10
6.225360000000009
 20
7.638439000000012
 30
0
  0
SPLINE
  5
C6
100
AcDbEntity
  8
6.2_vacuum_trap_tops
  6
ByLayer
 62
    5
370
   -1
100
AcDbSpline
210
0
220
0
230
0
 70
    8
 71
    3
 72
    8
 73
    4
 74
    0
 42
1e-07
 43
1e-07
 40
0
 40
0
 40
0
 40
0
 40
1
 40
1
 40
1
 40
1
 10
6.225360000000009
 20
7.638439000000012
 30
0
 10
6.248564000000002
 20
7.62684999999999
 30
0
 10
6.260203000000004
 20
7.626690999999987
 30
0
 10
6.271803000000006
 20
7.615102000000043
 30
0
  0
SPLINE
  5
C7
100
AcDbEntity
  8
6.2_vacuum_trap_tops
  6
ByLayer
 62
    5
370
   -1
100
AcDbSpline
210
0
220
0
230
0
 70
    8
 71
    3
 72
    8
 73
    4
 74
    0
 42
1e-07
 43
1e-07
 40
0
 40
0
 40
0
 40
0
 40
1
 40
1
 40
1
 40
1
 10
6.271803000000006
 20
7.615102000000043
 30
0
 10
6.573385000000002
 20
7.475909999999999
 30
0
 10
6.874832999999995
 20
7.487690000000043
 30
0
 10
7.176416000000003
 20
7.568885000000023
 30
0
  0
LWPOLYLINE
  5
C8
100
AcDbEntity
  8
6.2_vacuum_trap_tops
  6
ByLayer
 62
    5
370
   -1
100
AcDbPolyline
 90
    2
 70
    0
 43
0
 10
8.826375999999996
 20
7.499337000000033
 10
7.941927000000007
 20
6.490060000000028
  0
SPLINE
  5
C9
100
AcDbEntity
  8
6.2_vacuum_trap_tops
  6
ByLayer
 62
    5
370
   -1
100
AcDbSpline
210
0
220
0
230
0
 70
    8
 71
    3
 72
    8
 73
    4
 74
    0
 42
1e-07
 43
1e-07
 40
0
 40
0
 40
0
 40
0
 40
1
 40
1
 40
1
 40
1
 10
8.488818000000009
 20
8.009976999999992
 30
0
 10
8.432186000000002
 20
8.136474000000021
 30
0
 10
8.389932000000002
 20
8.268930000000012
 30
0
 10
8.362854999999996
 20
8.404852000000012
 30
0
  0
LWPOLYLINE
  5
CA
100
AcDbEntity
  8
6.2_vacuum_trap_tops
  6
ByLayer
 62
    5
370
   -1
100
AcDbPolyline
 90
    2
 70
    0
 43
0
 10
7.176416000000003
 20
7.568885000000023
 10
8.488818000000009
 20
8.009976999999992
  0
SPLINE
  5
CB
100
AcDbEntity
  8
6.2_vacuum_trap_tops
  6
ByLayer
 62
    5
370
   -1
100
AcDbSpline
210
0
220
0
230
0
 70
    8
 71
    3
 72
    8
 73
    4
 74
    0
 42
1e-07
 43
1e-07
 40
0
 40
0
 40
0
 40
0
 40
1
 40
1
 40
1
 40
1
 10
7.048867999999999
 20
7.963082000000043
 30
0
 10
6.480501000000004
 20
7.777492999999993
 30
0
 10
5.877380000000002
 20
8.218313000000023
 30
0
 10
5.877380000000002
 20
8.821478000000013
 30
0
  0
LWPOLYLINE
  5
CC
100
AcDbEntity
  8
6.2_vacuum_trap_tops
  6
ByLayer
 62
    5
370
   -1
100
AcDbPolyline
 90
    2
 70
    0
 43
0
 10
8.362854999999996
 20
8.404852000000012
 10
7.048867999999999
 20
7.963082000000043
  0
SPLINE
  5
CD
100
AcDbEntity
  8
6.2_vacuum_trap_tops
  6
ByLayer
 62
    5
370
   -1
100
AcDbSpline
210
0
220
0
230
0
 70
    8
 71
    3
 72
    8
 73
    4
 74
    0
 42
1e-07
 43
1e-07
 40
0
 40
0
 40
0
 40
0
 40
1
 40
1
 40
1
 40
1
 10
1.574072999999999
 20
8.902819000000022
 30
0
 10
1.79446
 20
5.643406000000027
 30
0
 10
3.951846000000003
 20
2.697041000000013
 30
0
 10
7.048867999999999
 20
1.629902000000023
 30
0
  0
SPLINE
  5
CE
100
AcDbEntity
  8
6.2_vacuum_trap_tops
  6
ByLayer
 62
    5
370
   -1
100
AcDbSpline
210
0
220
0
230
0
 70
    8
 71
    3
 72
    8
 73
    4
 74
    0
 42
1e-07
 43
1e-07
 40
0
 40
0
 40
0
 40
0
 40
1
 40
1
 40
1
 40
1
 10
7.048867999999999
 20
1.629902000000023
 30
0
 10
7.831823000000001
 20
1.362392
 30
0
 10
8.646949000000006
 20
1.230707000000002
 30
0
 10
9.458002000000008
 20
1.22936500000003
 30
0
  0
CIRCLE
  5
CF
100
AcDbEntity
  8
6.2_vacuum_trap_tops
  6
ByBlock
 62
    1
370
   -1
100
AcDbCircle
 10
10.177902
 20
8.763225000000013
 40
1.85178401184588
  0
CIRCLE
  5
D0
100
AcDbEntity
  8
6.2_vacuum_trap_tops
  6
ByLayer
 62
    1
370
   -1
100
AcDbCircle
 10
5.780432000000007
 20
14.22041700000003
 40
0.6760818380173975
  0
CIRCLE
  5
D1
100
AcDbEntity
  8
6.2_vacuum_trap_tops
  6
ByLayer
 62
    1
370
   -1
100
AcDbCircle
 10
16.18669300000001
 20
14.22042800000002
 40
0.6760818380174249
  0
CIRCLE
  5
D2
100
AcDbEntity
  8
6.2_vacuum_trap_tops
  6
ByLayer
 62
    1
370
   -1
100
AcDbCircle
 10
16.18669300000001
 20
1.710425000000019
 40
0.6760818380173971
  0
CIRCLE
  5
D3
100
AcDbEntity
  8
6.2_vacuum_trap_tops
  6
ByLayer
 62
    1
370
   -1
100
AcDbCircle
 10
2.036990000000003
 20
1.710417000000006
 40
0.6760818380174253
  0
ARC
  5
D4
100
AcDbEntity
  8
6.2_vacuum_trap_tops
  6
ByLayer
 62
    5
370
   -1
100
AcDbCircle
 10
-0.003617
 20
12.5507
 40
1.85178
100
AcDbArc
 50
89.99999999999973
 51
270.0000000000002
  0
SPLINE
  5
D5
100
AcDbEntity
  8
6.2_vacuum_trap_tops
  6
ByLayer
 62
    5
370
   -1
100
AcDbSpline
210
0
220
0
230
0
 70
    8
 71
    3
 72
    8
 73
    4
 74
    0
 42
1e-07
 43
1e-07
 40
0
 40
0
 40
0
 40
0
 40
1
 40
1
 40
1
 40
1
 10
5.877380000000002
 20
8.821478000000013
 30
0
 10
5.877380000000002
 20
12.04609300000004
 30
0
 10
3.186199999999999
 20
14.70247499999999
 30
0
 10
-0.003616999999991252
 20
14.40248
 30
0
  0
LWPOLYLINE
  5
D6
100
AcDbEntity
  8
6.2_vacuum_trap_tops
  6
ByLayer
 62
    1
370
   -1
100
AcDbPolyline
 90
    8
 70
    1
 43
0
 10
17.8852
 20
-1
 10
-2.449999999999999
 20
-1
 42
-0.4142135623730953
 10
-2.95
 20
-0.4999999999999991
 10
-2.95
 20
16.4317
 42
-0.414213562373095
 10
-2.45
 20
16.9317
 10
17.8852
 20
16.9317
 42
-0.414213562373095
 10
18.3852
 20
16.4317
 10
18.3852
 20
-0.4999999999999999
 42
-0.414213562373095
  0
SPLINE
  5
D7
100
AcDbEntity
  8
6.2_vacuum_trap_tops
  6
ByLayer
 62
    5
370
   -1
100
AcDbSpline
210
0
220
0
230
0
 70
    8
 71
    3
 72
    8
 73
    4
 74
    0
 42
1e-07
 43
1e-07
 40
0
 40
0
 40
0
 40
0
 40
1
 40
1
 40
1
 40
1
 10
-0.003616999999993761
 20
10.69892
 30
0
 10
0.9
 20
10.6
 30
0
 10
1.504477000000009
 20
9.563981000000013
 30
0
 10
1.574072999999999
 20
8.902819000000022
 30
0
  0
ENDBLK
  5
60
330
5E
100
AcDbEntity
  8
0
100
AcDbBlockEnd
  0
BLOCK
  5
62
330
61
100
AcDbEntity
  8
0
100
AcDbBlockBegin
  2
sg90_servo_footprint
 70
    0
 10
0
 20
0
  3
sg90_servo_footprint
  1

  0
LWPOLYLINE
  5
D8
100
AcDbEntity
  8
sg90_servo_approx
  6
ByLayer
 62
    7
370
   -1
100
AcDbPolyline
 90
    4
 70
    1
 43
0
 10
-9.351465000000015
 20
5.742365999999977
 10
20.83598000000001
 20
5.742365999999977
 10
20.83598000000001
 20
-5.741952
 10
-9.351465000000015
 20
-5.741952
  0
LWPOLYLINE
  5
D9
100
AcDbEntity
  8
sg90_servo_approx
  6
ByLayer
 62
    7
370
   -1
100
AcDbPolyline
 90
    1
 70
    1
 43
0
 10
0.4573800000000077
 20
0.0002110000000072887
  0
LWPOLYLINE
  5
DA
100
AcDbEntity
  8
sg90_servo_approx
  6
ByLayer
 62
    7
370
   -1
100
AcDbPolyline
 90
    1
 70
    1
 43
0
 10
13.31249400000002
 20
2.664535259100376e-14
  0
LWPOLYLINE
  5
DB
100
AcDbEntity
  8
sg90_servo_approx
  6
ByLayer
 62
    7
370
   -1
100
AcDbPolyline
 90
    4
 70
    1
 43
0
 10
-4.703085499999997
 20
5.758020499999988
 10
16.18760049999999
 20
5.758020499999988
 10
16.18760049999999
 20
-5.757606500000011
 10
-4.703085499999997
 20
-5.757606500000011
  0
CIRCLE
  5
DC
100
AcDbEntity
  8
sg90_servo_approx
  6
ByLayer
 62
  256
370
   -1
100
AcDbCircle
 10
0
 20
0
 40
0.4571024005559303
  0
CIRCLE
  5
DD
100
AcDbEntity
  8
sg90_servo_approx
  6
ByLayer
 62
  256
370
   -1
100
AcDbCircle
 10
0
 20
0
 40
15.5
  0
ENDBLK
  5
63
330
61
100
AcDbEntity
  8
0
100
AcDbBlockEnd
  0
BLOCK
  5
65
330
64
100
AcDbEntity
  8
0
100
AcDbBlockBegin
  2
vactrap_slider
 70
    0
 10
0
 20
0
  3
vactrap_slider
  1

  0
LWPOLYLINE
  5
DE
100
AcDbEntity
  8
7_vacuum_trap_sliders
  6
ByLayer
 62
    1
370
   -1
100
AcDbPolyline
 90
    4
 70
    1
 43
0
 10
1.87765799999999
 20
-10.93462399999999
 10
4.21614899999998
 20
-10.93462399999999
 10
4.21614899999998
 20
-1.718439999999987
 10
1.87765799999999
 20
-1.718439999999987
  0
CIRCLE
  5
DF
100
AcDbEntity
  8
7_vacuum_trap_sliders
  6
ByLayer
 62
    1
370
   -1
100
AcDbCircle
 10
32.55130899999999
 20
-11.85489299999999
 40
1.85178
  0
CIRCLE
  5
E0
100
AcDbEntity
  8
7_vacuum_trap_sliders
  6
ByLayer
 62
    1
370
   -1
100
AcDbCircle
 10
36.94874899999999
 20
-6.397792999999993
 40
0.676082
  0
CIRCLE
  5
E1
100
AcDbEntity
  8
7_vacuum_trap_sliders
  6
ByLayer
 62
    1
370
   -1
100
AcDbCircle
 10
26.54251899999999
 20
-18.90779299999999
 40
0.676082
  0
CIRCLE
  5
E2
100
AcDbEntity
  8
7_vacuum_trap_sliders
  6
ByLayer
 62
    1
370
   -1
100
AcDbCircle
 10
15.40360240446778
 20
-9.750875848373099
 40
1.1303
  0
LINE
  5
E3
100
AcDbEntity
  8
7_vacuum_trap_sliders
  6
ByLayer
 62
    1
370
   -1
100
AcDbLine
 10
7.03168599999999
 20
0
 11
0
 21
0
  0
LINE
  5
E4
100
AcDbEntity
  8
7_vacuum_trap_sliders
  6
ByLayer
 62
    1
370
   -1
100
AcDbLine
 10
0
 20
0
 11
0
 21
-12.65306100000004
  0
LINE
  5
E5
100
AcDbEntity
  8
7_vacuum_trap_sliders
  6
ByLayer
 62
    1
370
   -1
100
AcDbLine
 10
7.03168599999999
 20
-3.68642
 11
7.03168599999999
 21
0
  0
LINE
  5
E6
100
AcDbEntity
  8
7_vacuum_trap_sliders
  6
ByLayer
 62
    1
370
   -1
100
AcDbLine
 10
0
 20
-12.65306100000004
 11
24.344
 21
-12.65279600000002
  0
CIRCLE
  5
E7
100
AcDbEntity
  8
7_vacuum_trap_sliders
  6
ByLayer
 62
    1
370
   -1
100
AcDbCircle
 10
26.5425
 20
-6.39779
 40
1.1303
  0
CIRCLE
  5
E8
100
AcDbEntity
  8
7_vacuum_trap_sliders
  6
ByLayer
 62
    1
370
   -1
100
AcDbCircle
 10
40.6922
 20
-18.9078
 40
1.1303
  0
CIRCLE
  5
E9
100
AcDbEntity
  8
7_vacuum_trap_sliders
  6
ByLayer
 62
  256
370
   -1
100
AcDbCircle
 10
42.73282799999998
 20
-8.067418000000002
 40
1.85178
  0
LINE
  5
EA
100
AcDbEntity
  8
7_vacuum_trap_sliders
  6
ByLayer
 62
    1
370
   -1
100
AcDbLine
 10
45.1792
 20
-3.68642
 11
7.03168599999999
 21
-3.68642
  0
ARC
  5
EB
100
AcDbEntity
  8
7_vacuum_trap_sliders
  6
ByLayer
 62
  256
370
   -1
100
AcDbCircle
 10
45.1792
 20
-4.18642
 40
0.5
100
AcDbArc
 50
0
 51
90
  0
ARC
  5
EC
100
AcDbEntity
  8
7_vacuum_trap_sliders
  6
ByLayer
 62
  256
370
   -1
100
AcDbCircle
 10
45.1792
 20
-21.1181
 40
0.5
100
AcDbArc
 50
270
 51
359.9999999999992
  0
LINE
  5
ED
100
AcDbEntity
  8
7_vacuum_trap_sliders
  6
ByLayer
 62
    1
370
   -1
100
AcDbLine
 10
24.844
 20
-21.6181
 11
45.1792
 21
-21.6181
  0
LINE
  5
EE
100
AcDbEntity
  8
7_vacuum_trap_sliders
  6
ByLayer
 62
    1
370
   -1
100
AcDbLine
 10
24.344
 20
-12.65279600000002
 11
24.344
 21
-21.1181
  0
ARC
  5
EF
100
AcDbEntity
  8
7_vacuum_trap_sliders
  6
ByLayer
 62
  256
370
   -1
100
AcDbCircle
 10
24.844
 20
-21.1181
 40
0.5
100
AcDbArc
 50
180
 51
270
  0
LINE
  5
F0
100
AcDbEntity
  8
7_vacuum_trap_sliders
  6
ByLayer
 62
    1
370
   -1
100
AcDbLine
 10
45.6792
 20
-4.18642
 11
45.6792
 21
-21.11810000000001
  0
ENDBLK
  5
66
330
64
100
AcDbEntity
  8
0
100
AcDbBlockEnd
  0
BLOCK
  5
68
330
67
100
AcDbEntity
  8
0
100
AcDbBlockBegin
  2
vactrap_regulator_retainer
 70
    0
 10
0
 20
0
  3
vactrap_regulator_retainer
  1

  0
CIRCLE
  5
F1
100
AcDbEntity
  8
8_flow_regulator_retainers
  6
ByLayer
 62
    1
370
   -1
100
AcDbCircle
 10
0
 20
0
 40
1.85178
  0
CIRCLE
  5
F2
100
AcDbEntity
  8
8_flow_regulator_retainers
  6
ByLayer
 62
    1
370
   -1
100
AcDbCircle
 10
-6.00879
 20
5.45728
 40
1.1303
  0
CIRCLE
  5
F3
100
AcDbEntity
  8
8_flow_regulator_retainers
  6
ByLayer
 62
    1
370
   -1
100
AcDbCircle
 10
4.39752
 20
5.45728
 40
1.1303
  0
CIRCLE
  5
F4
100
AcDbEntity
  8
8_flow_regulator_retainers
  6
ByLayer
 62
    1
370
   -1
100
AcDbCircle
 10
8.140919999999999
 20
-7.05276
 40
1.1303
  0
CIRCLE
  5
F5
100
AcDbEntity
  8
8_flow_regulator_retainers
  6
ByLayer
 62
    1
370
   -1
100
AcDbCircle
 10
-6.00879
 20
-7.05275
 40
1.1303
  0
CIRCLE
  5
F6
100
AcDbEntity
  8
8_flow_regulator_retainers
  6
ByLayer
 62
    1
370
   -1
100
AcDbCircle
 10
0
 20
0
 40
1.85178
  0
LINE
  5
F7
100
AcDbEntity
  8
8_flow_regulator_retainers
  6
ByLayer
 62
    1
370
   -1
100
AcDbLine
 10
-7.707308999999988
 20
-9.763207000000008
 11
12.62789100000001
 21
-9.763207000000008
  0
ARC
  5
F8
100
AcDbEntity
  8
8_flow_regulator_retainers
  6
ByLayer
 62
    1
370
   -1
100
AcDbCircle
 10
12.62789100000001
 20
-9.263207000000008
 40
0.5000000000000001
100
AcDbArc
 50
270
 51
0
  0
ARC
  5
F9
100
AcDbEntity
  8
8_flow_regulator_retainers
  6
ByLayer
 62
    1
370
   -1
100
AcDbCircle
 10
-7.707308999999988
 20
7.66847299999999
 40
0.5000000000000001
100
AcDbArc
 50
90
 51
180
  0
LINE
  5
FA
100
AcDbEntity
  8
8_flow_regulator_retainers
  6
ByLayer
 62
    1
370
   -1
100
AcDbLine
 10
-8.207308999999988
 20
7.66847299999999
 11
-8.207308999999988
 21
-9.263207000000014
  0
ARC
  5
FB
100
AcDbEntity
  8
8_flow_regulator_retainers
  6
ByLayer
 62
    1
370
   -1
100
AcDbCircle
 10
-7.707308999999988
 20
-9.263207000000008
 40
0.5000000000000001
100
AcDbArc
 50
180.0000000000006
 51
270
  0
ARC
  5
FC
100
AcDbEntity
  8
8_flow_regulator_retainers
  6
ByLayer
 62
  256
370
   -1
100
AcDbCircle
 10
10.1815
 20
3.78747
 40
3.75
100
AcDbArc
 50
114.0518260335395
 51
270.0000018213838
  0
ARC
  5
FD
100
AcDbEntity
  8
8_flow_regulator_retainers
  6
ByLayer
 62
  256
370
   -1
100
AcDbCircle
 10
8.449358056049926
 20
7.668472999999991
 40
0.5
100
AcDbArc
 50
294.0518260335395
 51
90
  0
LINE
  5
FE
100
AcDbEntity
  8
8_flow_regulator_retainers
  6
ByLayer
 62
  256
370
   -1
100
AcDbLine
 10
10.1815
 20
0.03746999999999989
 11
12.62789100000001
 21
0.03746999999999989
  0
LINE
  5
FF
100
AcDbEntity
  8
8_flow_regulator_retainers
  6
ByLayer
 62
    1
370
   -1
100
AcDbLine
 10
13.12789100000001
 20
-9.263207000000008
 11
13.12789100000001
 21
-0.462530000000001
  0
ARC
  5
100
100
AcDbEntity
  8
8_flow_regulator_retainers
  6
ByLayer
 62
  256
370
   -1
100
AcDbCircle
 10
12.62789100000001
 20
-0.4625300000000001
 40
0.5
100
AcDbArc
 50
359.9999999999999
 51
90
  0
LINE
  5
101
100
AcDbEntity
  8
8_flow_regulator_retainers
  6
ByLayer
 62
    1
370
   -1
100
AcDbLine
 10
8.449358056049926
 20
8.168472999999992
 11
-7.707308999999988
 21
8.16847299999999
  0
ENDBLK
  5
69
330
67
100
AcDbEntity
  8
0
100
AcDbBlockEnd
  0
BLOCK
  5
6B
330
6A
100
AcDbEntity
  8
0
100
AcDbBlockBegin
  2
shimstock_chamber
 70
    0
 10
0
 20
0
  3
shimstock_chamber
  1

  0
ARC
  5
102
100
AcDbEntity
  8
3.1_yellow_manifold_layer
  6
ByLayer
 62
  256
370
   -1
100
AcDbCircle
 10
24.01400509719409
 20
7.977230121346395
 40
1.000000000000014
100
AcDbArc
 50
0
 51
89.99999999999837
  0
ARC
  5
103
100
AcDbEntity
  8
3.1_yellow_manifold_layer
  6
ByLayer
 62
  256
370
   -1
100
AcDbCircle
 10
-23.9807888750738
 20
7.981964941873002
 40
1.005217178879411
100
AcDbArc
 50
90.26987823306443
 51
180.269878233062
  0
LINE
  5
104
100
AcDbEntity
  8
3.1_yellow_manifold_layer
  6
ByLayer
 62
  256
370
   -1
100
AcDbLine
 10
-24.98599490280588
 20
7.977230121346395
 11
-24.98599490280588
 21
6.977230560788797
  0
LINE
  5
105
100
AcDbEntity
  8
3.1_yellow_manifold_layer
  6
ByLayer
 62
  256
370
   -1
100
AcDbLine
 10
-24.98599490280588
 20
6.977230560788797
 11
-49.82131452703229
 21
6.987171409047505
  0
ARC
  5
106
100
AcDbEntity
  8
3.1_yellow_manifold_layer
  6
ByLayer
 62
  256
370
   -1
100
AcDbCircle
 10
-51.24982202542745
 20
6.482866948239007
 40
1.514911437069027
100
AcDbArc
 50
19.44450521635674
 51
340.5020639555601
  0
LINE
  5
107
100
AcDbEntity
  8
3.1_yellow_manifold_layer
  6
ByLayer
 62
  256
370
   -1
100
AcDbLine
 10
-49.82178543414093
 20
5.977230560990904
 11
-24.98599490280588
 21
5.977230591553706
  0
LINE
  5
108
100
AcDbEntity
  8
3.1_yellow_manifold_layer
  6
ByLayer
 62
  256
370
   -1
100
AcDbLine
 10
-24.98599490280588
 20
5.977230591553706
 11
-24.98552369560041
 21
4.987170969605017
  0
ARC
  5
109
100
AcDbEntity
  8
3.1_yellow_manifold_layer
  6
ByLayer
 62
  256
370
   -1
100
AcDbCircle
 10
-23.9807888750738
 20
4.981964941872917
 40
1.004748307937513
100
AcDbArc
 50
179.7031249026123
 51
269.7031249026131
  0
LINE
  5
10A
100
AcDbEntity
  8
3.1_yellow_manifold_layer
  6
ByLayer
 62
  256
370
   -1
100
AcDbLine
 10
-23.9859949028059
 20
3.977230121346395
 11
-0.4859958187698084
 21
3.977230121346395
  0
LINE
  5
10B
100
AcDbEntity
  8
3.1_yellow_manifold_layer
  6
ByLayer
 62
  256
370
   -1
100
AcDbLine
 10
-0.4859958187698084
 20
3.977230121346395
 11
-0.4855246115644007
 21
1.436660685705021
  0
ARC
  5
10C
100
AcDbEntity
  8
3.1_yellow_manifold_layer
  6
ByLayer
 62
  256
370
   -1
100
AcDbCircle
 10
0
 20
0
 40
1.516485434907099
100
AcDbArc
 50
108.6728658804982
 51
70.18742832782685
  0
LINE
  5
10D
100
AcDbEntity
  8
3.1_yellow_manifold_layer
  6
ByLayer
 62
  256
370
   -1
100
AcDbLine
 10
0.5140041812302911
 20
1.426719235155616
 11
0.5140041812302911
 21
3.977230121346395
  0
LINE
  5
10E
100
AcDbEntity
  8
3.1_yellow_manifold_layer
  6
ByLayer
 62
  256
370
   -1
100
AcDbLine
 10
0.5140041812302911
 20
3.977230121346395
 11
24.01447630439949
 21
3.987170969605017
  0
ARC
  5
10F
100
AcDbEntity
  8
3.1_yellow_manifold_layer
  6
ByLayer
 62
  256
370
   -1
100
AcDbCircle
 10
24.0192111249261
 20
4.981964941873002
 40
0.9948052401279615
100
AcDbArc
 50
269.7272971168172
 51
359.7272971168156
  0
LINE
  5
110
100
AcDbEntity
  8
3.1_yellow_manifold_layer
  6
ByLayer
 62
  256
370
   -1
100
AcDbLine
 10
25.01400509719409
 20
4.977230121346309
 11
25.01400509719409
 21
5.9772304275848
  0
LINE
  5
111
100
AcDbEntity
  8
3.1_yellow_manifold_layer
  6
ByLayer
 62
  256
370
   -1
100
AcDbLine
 10
25.01400509719409
 20
5.9772304275848
 11
49.84978718811089
 21
5.977230427584715
  0
ARC
  5
112
100
AcDbEntity
  8
3.1_yellow_manifold_layer
  6
ByLayer
 62
  256
370
   -1
100
AcDbCircle
 10
51.264000853402
 20
6.477230136488913
 40
1.50000000000012
100
AcDbArc
 50
199.471208840967
 51
160.5287675801718
  0
LINE
  5
113
100
AcDbEntity
  8
3.1_yellow_manifold_layer
  6
ByLayer
 62
  256
370
   -1
100
AcDbLine
 10
49.84978739387529
 20
6.977230427382722
 11
25.01400509719409
 21
6.977230396819806
  0
LINE
  5
114
100
AcDbEntity
  8
3.1_yellow_manifold_layer
  6
ByLayer
 62
  256
370
   -1
100
AcDbLine
 10
25.01400509719409
 20
6.977230396819806
 11
25.01400509719409
 21
7.977230121346395
  0
LINE
  5
115
100
AcDbEntity
  8
3.1_yellow_manifold_layer
  6
ByLayer
 62
  256
370
   -1
100
AcDbLine
 10
24.01400509719409
 20
8.977230121346395
 11
1.863296187397594
 21
8.977230121346395
  0
LINE
  5
116
100
AcDbEntity
  8
3.1_yellow_manifold_layer
  6
ByLayer
 62
  256
370
   -1
100
AcDbLine
 10
-1.839774727401306
 20
8.977802801392414
 11
-23.98552369560051
 21
8.987170969605103
  0
ARC
  5
117
100
AcDbEntity
  8
3.1_yellow_manifold_layer
  6
ByLayer
 62
  256
370
   -1
100
AcDbCircle
 10
0.01200527259869943
 20
16.96622937565601
 40
1.85178
100
AcDbArc
 50
360
 51
180
  0
LINE
  5
118
100
AcDbEntity
  8
3.1_yellow_manifold_layer
  6
ByBlock
 62
  256
370
   -1
100
AcDbLine
 10
-1.839774727401306
 20
16.96622937565601
 11
-1.839774727401306
 21
8.977802801392414
  0
ARC
  5
119
100
AcDbEntity
  8
3.1_yellow_manifold_layer
  6
ByLayer
 62
  256
370
   -1
100
AcDbCircle
 10
0.01200527259869943
 20
16.96622937565601
 40
1.85178
100
AcDbArc
 50
360
 51
180
  0
LINE
  5
11A
100
AcDbEntity
  8
3.1_yellow_manifold_layer
  6
ByBlock
 62
  256
370
   -1
100
AcDbLine
 10
-1.839774727401306
 20
16.96622937565601
 11
-1.839774727401306
 21
8.977802801392414
  0
LINE
  5
11B
100
AcDbEntity
  8
3.1_yellow_manifold_layer
  6
ByLayer
 62
  256
370
   -1
100
AcDbLine
 10
1.86378527259869
 20
16.96622937565601
 11
1.86378527259869
 21
8.977230121346395
  0
LINE
  5
11C
100
AcDbEntity
  8
3.1_yellow_manifold_layer
  6
ByLayer
 62
  256
370
   -1
100
AcDbLine
 10
-27.13599472740131
 20
20.67022937565599
 11
-17.13599472740131
 21
20.67022937565599
  0
LINE
  5
11D
100
AcDbEntity
  8
3.1_yellow_manifold_layer
  6
ByLayer
 62
  256
370
   -1
100
AcDbLine
 10
-27.13599472740131
 20
17.470229375656
 11
-17.13599472740131
 21
17.470229375656
  0
ARC
  5
11E
100
AcDbEntity
  8
3.1_yellow_manifold_layer
  6
ByLayer
 62
  256
370
   -1
100
AcDbCircle
 10
-17.13599472740131
 20
19.070229375656
 40
1.6
100
AcDbArc
 50
270
 51
450
  0
ARC
  5
11F
100
AcDbEntity
  8
3.1_yellow_manifold_layer
  6
ByLayer
 62
  256
370
   -1
100
AcDbCircle
 10
-27.13599472740131
 20
19.070229375656
 40
1.6
100
AcDbArc
 50
90
 51
270
  0
LINE
  5
120
100
AcDbEntity
  8
3.1_yellow_manifold_layer
  6
ByLayer
 62
  256
370
   -1
100
AcDbLine
 10
-27.13596532293354
 20
20.67020852728288
 11
-17.13596532293354
 21
20.67020852728288
  0
LINE
  5
121
100
AcDbEntity
  8
3.1_yellow_manifold_layer
  6
ByLayer
 62
  256
370
   -1
100
AcDbLine
 10
-27.13596532293354
 20
17.47020852728289
 11
-17.13596532293354
 21
17.47020852728289
  0
ARC
  5
122
100
AcDbEntity
  8
3.1_yellow_manifold_layer
  6
ByLayer
 62
  256
370
   -1
100
AcDbCircle
 10
-17.13596532293354
 20
19.07020852728289
 40
1.6
100
AcDbArc
 50
270
 51
450
  0
ARC
  5
123
100
AcDbEntity
  8
3.1_yellow_manifold_layer
  6
ByLayer
 62
  256
370
   -1
100
AcDbCircle
 10
-27.13596532293354
 20
19.07020852728289
 40
1.6
100
AcDbArc
 50
90
 51
270
  0
LINE
  5
124
100
AcDbEntity
  8
3.1_yellow_manifold_layer
  6
ByLayer
 62
  256
370
   -1
100
AcDbLine
 10
-27.13596532293354
 20
20.67020852728288
 11
-17.13596532293354
 21
20.67020852728288
  0
LINE
  5
125
100
AcDbEntity
  8
3.1_yellow_manifold_layer
  6
ByLayer
 62
  256
370
   -1
100
AcDbLine
 10
-27.13596532293354
 20
17.47020852728289
 11
-17.13596532293354
 21
17.47020852728289
  0
ARC
  5
126
100
AcDbEntity
  8
3.1_yellow_manifold_layer
  6
ByLayer
 62
  256
370
   -1
100
AcDbCircle
 10
-17.13596532293354
 20
19.07020852728289
 40
1.6
100
AcDbArc
 50
270
 51
450
  0
ARC
  5
127
100
AcDbEntity
  8
3.1_yellow_manifold_layer
  6
ByLayer
 62
  256
370
   -1
100
AcDbCircle
 10
-27.13596532293354
 20
19.07020852728289
 40
1.6
100
AcDbArc
 50
90
 51
270
  0
CIRCLE
  5
128
100
AcDbEntity
  8
3.1_yellow_manifold_layer
  6
ByBlock
 62
  256
370
   -1
100
AcDbCircle
 10
-9.36299
 20
16.9662
 40
3.75
  0
ENDBLK
  5
6C
330
6A
100
AcDbEntity
  8
0
100
AcDbBlockEnd
  0
BLOCK
  5
6E
330
6D
100
AcDbEntity
  8
0
100
AcDbBlockBegin
  2
egress_slider_unit
 70
    0
 10
0
 20
0
  3
egress_slider_unit
  1

  0
CIRCLE
  5
129
100
AcDbEntity
  8
1.2_egress_slider_eighth
  6
ByLayer
 62
  256
370
   -1
100
AcDbCircle
 10
2.019300000000001
 20
0
 40
2.0193
  0
CIRCLE
  5
12A
100
AcDbEntity
  8
1.2_egress_slider_eighth
  6
ByLayer
 62
  256
370
   -1
100
AcDbCircle
 10
47.98070000000004
 20
0
 40
2.0193
  0
ARC
  5
12B
100
AcDbEntity
  8
1.2_egress_slider_eighth
  6
ByBlock
 62
  256
370
   -1
100
AcDbCircle
 10
18.6225
 20
8.512200337174781
 40
1
100
AcDbArc
 50
270
 51
0
  0
ARC
  5
12C
100
AcDbEntity
  8
1.2_egress_slider_eighth
  6
ByBlock
 62
  256
370
   -1
100
AcDbCircle
 10
-4.285079942401302
 20
8.512200337174781
 40
1
100
AcDbArc
 50
180
 51
270
  0
ARC
  5
12D
100
AcDbEntity
  8
1.2_egress_slider_eighth
  6
ByBlock
 62
  256
370
   -1
100
AcDbCircle
 10
18.6224999424013
 20
18.74526833203156
 40
1
100
AcDbArc
 50
0
 51
90
  0
ARC
  5
12E
100
AcDbEntity
  8
1.2_egress_slider_eighth
  6
ByBlock
 62
  256
370
   -1
100
AcDbCircle
 10
-4.285080000000002
 20
18.74526833203156
 40
1
100
AcDbArc
 50
90
 51
180
  0
LINE
  5
12F
100
AcDbEntity
  8
1.2_egress_slider_eighth
  6
ByBlock
 62
  256
370
   -1
100
AcDbLine
 10
19.6225
 20
8.512200337174781
 11
19.6224999424013
 21
18.74526833203156
  0
LINE
  5
130
100
AcDbEntity
  8
1.2_egress_slider_eighth
  6
ByBlock
 62
  256
370
   -1
100
AcDbLine
 10
18.6224999424013
 20
19.74526833203156
 11
-4.285080000000002
 21
19.74526833203156
  0
LINE
  5
131
100
AcDbEntity
  8
1.2_egress_slider_eighth
  6
ByBlock
 62
  256
370
   -1
100
AcDbLine
 10
-5.285080000000002
 20
18.74526833203156
 11
-5.285079942401302
 21
8.512200337174781
  0
LINE
  5
132
100
AcDbEntity
  8
1.2_egress_slider_eighth
  6
ByBlock
 62
  256
370
   -1
100
AcDbLine
 10
-4.285079942401302
 20
7.512200337174781
 11
18.6225
 21
7.512200337174781
  0
ENDBLK
  5
6F
330
6D
100
AcDbEntity
  8
0
100
AcDbBlockEnd
  0
BLOCK
  5
71
330
70
100
AcDbEntity
  8
0
100
AcDbBlockBegin
  2
sg90_servo_mount_holes
 70
    0
 10
0
 20
0
  3
sg90_servo_mount_holes
  1

  0
ARC
  5
133
100
AcDbEntity
  8
9_trap_bottomplate
  6
ByLayer
 62
    1
370
   -1
100
AcDbCircle
 10
15.50252376359518
 20
-10.98421123414163
 40
1
100
AcDbArc
 50
324.6786595061058
 51
57.69562081592156
  0
ARC
  5
134
100
AcDbEntity
  8
9_trap_bottomplate
  6
ByLayer
 62
    1
370
   -1
100
AcDbCircle
 10
-17.6519759585309
 20
-7.028205806467699
 40
1
100
AcDbArc
 50
108.6956187826057
 51
201.7125800924217
  0
ARC
  5
135
100
AcDbEntity
  8
9_trap_bottomplate
  6
ByLayer
 62
    1
370
   -1
100
AcDbCircle
 10
-3.589924801872257e-09
 20
0.0008584901642164264
 40
20
100
AcDbArc
 50
201.7125800924217
 51
324.6785611649541
  0
LINE
  5
136
100
AcDbEntity
  8
9_trap_bottomplate
  6
ByLayer
 62
    1
370
   -1
100
AcDbLine
 10
3.751724586355061
 20
-2.371284707351351
 11
16.0369407157841
 21
-10.13899024456962
  0
LINE
  5
137
100
AcDbEntity
  8
9_trap_bottomplate
  6
ByLayer
 62
    1
370
   -1
100
AcDbLine
 10
-17.9725161970218
 20
-6.080970906610059
 11
-4.204538266238709
 21
-1.421940862493189
  0
CIRCLE
  5
138
100
AcDbEntity
  8
9_trap_bottomplate
  6
ByLayer
 62
    1
370
   -1
100
AcDbCircle
 10
19
 20
0
 40
1.2
  0
CIRCLE
  5
139
100
AcDbEntity
  8
9_trap_bottomplate
  6
ByLayer
 62
    1
370
   -1
100
AcDbCircle
 10
-8.65
 20
0.000394955
 40
1.2
  0
ARC
  5
13A
100
AcDbEntity
  8
9_trap_bottomplate
  6
ByLayer
 62
    1
370
   -1
100
AcDbCircle
 10
-3.58992e-09
 20
0.0008584899999999999
 40
3.7
100
AcDbArc
 50
340.392
 51
185.999
  0
ARC
  5
13B
100
AcDbEntity
  8
9_trap_bottomplate
  6
ByLayer
 62
    1
370
   -1
100
AcDbCircle
 10
-4.589888067561009
 20
-0.5757940374861733
 40
0.9297628293541265
100
AcDbArc
 50
294.4853349672262
 51
11.78921038992258
  0
ARC
  5
13C
100
AcDbEntity
  8
9_trap_bottomplate
  6
ByLayer
 62
    1
370
   -1
100
AcDbCircle
 10
4.325334423127508
 20
-1.639566652756547
 40
0.9297524251503798
100
AcDbArc
 50
154.6024433848268
 51
231.9063188075234
  0
LINE
  5
13D
100
AcDbEntity
  8
9_trap_bottomplate
  6
ByLayer
 62
  256
370
   -1
100
AcDbLine
 10
-49.116
 20
-2.925800000000001
 11
-39.116
 21
-2.925800000000001
  0
LINE
  5
13E
100
AcDbEntity
  8
9_trap_bottomplate
  6
ByLayer
 62
  256
370
   -1
100
AcDbLine
 10
-49.116
 20
-14.9258
 11
-39.116
 21
-14.9258
  0
ARC
  5
13F
100
AcDbEntity
  8
9_trap_bottomplate
  6
ByLayer
 62
  256
370
   -1
100
AcDbCircle
 10
-49.116
 20
-8.925800000000001
 40
6
100
AcDbArc
 50
90
 51
270
  0
ARC
  5
140
100
AcDbEntity
  8
9_trap_bottomplate
  6
ByLayer
 62
  256
370
   -1
100
AcDbCircle
 10
-39.116
 20
-8.925800000000001
 40
6
100
AcDbArc
 50
270
 51
450
  0
ENDBLK
  5
72
330
70
100
AcDbEntity
  8
0
100
AcDbBlockEnd
  0
BLOCK
  5
74
330
73
100
AcDbEntity
  8
0
100
AcDbBlockBegin
  2
support_plate_unit
 70
    0
 10
0
 20
0
  3
support_plate_unit
  1

  0
CIRCLE
  5
141
100
AcDbEntity
  8
5_support_acrylic
  6
ByBlock
 62
    1
370
   -1
100
AcDbCircle
 10
-9.375484597047006
 20
-9.32731982175028e-05
 40
1.85178426184595
  0
CIRCLE
  5
142
100
AcDbEntity
  8
5_support_acrylic
  6
ByBlock
 62
    1
370
   -1
100
AcDbCircle
 10
0
 20
0
 40
1.85178
  0
LWPOLYLINE
  5
143
100
AcDbEntity
  8
5_support_acrylic
  6
ByLayer
 62
    1
370
   -1
100
AcDbPolyline
 90
    8
 70
    1
 43
0
 10
3.676792902953011
 20
4.827808726801806
 10
22.92700000000001
 20
4.827808726801806
 42
-0.414213562373095
 10
23.92700000000001
 20
3.827808726801806
 10
23.92700000000001
 20
3.015308726801806
 42
-0.414213562373095
 10
22.92700000000001
 20
2.015308726801806
 10
3.676792902953011
 20
2.015308726801806
 42
-0.414213562373095
 10
2.676792902952997
 20
3.015308726801806
 10
2.676792902953011
 20
3.827808726801806
 42
-0.414213562373095
  0
LWPOLYLINE
  5
144
100
AcDbEntity
  8
5_support_acrylic
  6
ByLayer
 62
    1
370
   -1
100
AcDbPolyline
 90
    4
 70
    1
 43
0
 10
-17.14797059553224
 20
0.5039791516268792
 10
-27.14797059553224
 20
0.5039791516268792
 42
-0.9999999999999999
 10
-27.14797059553224
 20
3.703979151626868
 10
-17.14797059553224
 20
3.703979151626868
 42
-0.9999999999999999
  0
LWPOLYLINE
  5
145
100
AcDbEntity
  8
5_support_acrylic
  6
ByLayer
 62
    1
370
   -1
100
AcDbPolyline
 90
   24
 70
    1
 43
0
 10
-27.14797059553224
 20
3.703979151626839
 42
1.000000000000001
 10
-27.14800000000001
 20
0.5039999999999911
 10
-17.14800000000001
 20
0.5039999999999907
 42
0.999999999999999
 10
-17.14797059553224
 20
3.703979151626868
 10
-27.14797059553224
 20
3.703979151626839
 42
1.000000000000001
 10
-27.14800000000001
 20
0.5039999999999911
 10
-17.14800000000001
 20
0.5039999999999907
 42
0.999999999999999
 10
-17.14797059553224
 20
3.703979151626868
 10
-27.14797059553224
 20
3.703979151626868
 42
0.9999999999999999
 10
-27.14797059553224
 20
0.5039791516268792
 10
-17.14797059553224
 20
0.5039791516268792
 42
0.9999999999999999
 10
-17.14797059553224
 20
3.703979151626868
 10
-27.14800000000001
 20
3.703999999999979
 10
-17.14797059553224
 20
3.703979151626868
 42
-0.9999999999999999
 10
-17.14797059553224
 20
0.5039791516268792
 10
-27.14797059553224
 20
0.5039791516268792
 42
-0.9999999999999999
 10
-27.14797059553224
 20
3.703979151626868
 10
-17.14797059553224
 20
3.703979151626868
 42
-0.9999999999999999
 10
-17.14797059553224
 20
0.5039791516268792
 10
-27.14800000000001
 20
0.5039999999999911
 42
-0.9999999999999999
 10
-27.14800000000001
 20
3.703999999999979
 10
-17.14797059553224
 20
3.703979151626868
 42
-0.9999999999999999
 10
-17.14797059553224
 20
0.5039791516268792
 10
-27.14800000000001
 20
0.5039999999999911
 42
-1.000000000000001
  0
ENDBLK
  5
75
330
73
100
AcDbEntity
  8
0
100
AcDbBlockEnd
  0
BLOCK
  5
77
330
76
100
AcDbEntity
  8
0
100
AcDbBlockBegin
  2
delrin_chamber
 70
    0
 10
0
 20
0
  3
delrin_chamber
  1

  0
CIRCLE
  5
146
100
AcDbEntity
  8
2.1_delrin_chambers_and_manifold
  6
ByLayer
 62
  256
370
   -1
100
AcDbCircle
 10
0.002987055827688323
 20
-17.01108767848385
 40
1.517099999999999
  0
ARC
  5
147
100
AcDbEntity
  8
2.1_delrin_chambers_and_manifold
  6
ByLayer
 62
  256
370
   -1
100
AcDbCircle
 10
0
 20
0
 40
1.85178
100
AcDbArc
 50
359.9999996233432
 51
179.9999996233431
  0
LINE
  5
148
100
AcDbEntity
  8
2.1_delrin_chambers_and_manifold
  6
ByLayer
 62
  256
370
   -1
100
AcDbLine
 10
25.00298617284579
 20
-11.99398704549557
 11
25.00298619256748
 21
-8.993987045495572
  0
ARC
  5
149
100
AcDbEntity
  8
2.1_delrin_chambers_and_manifold
  6
ByLayer
 62
  256
370
   -1
100
AcDbCircle
 10
24.0029861925675
 20
-8.993987038921659
 40
0.9999999999999928
100
AcDbArc
 50
359.9999996233432
 51
89.99999962334238
  0
ARC
  5
14A
100
AcDbEntity
  8
2.1_delrin_chambers_and_manifold
  6
ByLayer
 62
  256
370
   -1
100
AcDbCircle
 10
-23.99701380743245
 20
-8.993986723374377
 40
1
100
AcDbArc
 50
89.9999996233432
 51
179.9999996233431
  0
LINE
  5
14B
100
AcDbEntity
  8
2.1_delrin_chambers_and_manifold
  6
ByLayer
 62
  256
370
   -1
100
AcDbLine
 10
-24.99701380743245
 20
-8.993986716800492
 11
-24.99701382715416
 21
-11.99398671680049
  0
ARC
  5
14C
100
AcDbEntity
  8
2.1_delrin_chambers_and_manifold
  6
ByLayer
 62
  256
370
   -1
100
AcDbCircle
 10
-23.99701382715416
 20
-11.99398672337438
 40
1
100
AcDbArc
 50
179.9999996233431
 51
269.9999996233432
  0
LINE
  5
14D
100
AcDbEntity
  8
2.1_delrin_chambers_and_manifold
  6
ByLayer
 62
  256
370
   -1
100
AcDbLine
 10
-23.99701383372806
 20
-12.99398672337438
 11
24.00298616627191
 21
-12.99398703892166
  0
ARC
  5
14E
100
AcDbEntity
  8
2.1_delrin_chambers_and_manifold
  6
ByLayer
 62
  256
370
   -1
100
AcDbCircle
 10
24.00298617284582
 20
-11.99398703892166
 40
0.9999999999999928
100
AcDbArc
 50
269.9999996233441
 51
359.9999996233432
  0
LINE
  5
14F
100
AcDbEntity
  8
2.1_delrin_chambers_and_manifold
  6
ByLayer
 62
  256
370
   -1
100
AcDbLine
 10
-1.851780052551675
 20
-7.993986868954977
 11
-23.99701380085855
 21
-7.993986723374377
  0
LINE
  5
150
100
AcDbEntity
  8
2.1_delrin_chambers_and_manifold
  6
ByLayer
 62
  256
370
   -1
100
AcDbLine
 10
24.00298619914142
 20
-7.993987038921659
 11
1.851779947448321
 21
-7.993986893301809
  0
LINE
  5
151
100
AcDbEntity
  8
2.1_delrin_chambers_and_manifold
  6
ByLayer
 62
  256
370
   -1
100
AcDbLine
 10
1.851780000000005
 20
-1.217341605297406e-08
 11
1.851779973743845
 21
-3.994000012173416
  0
LINE
  5
152
100
AcDbEntity
  8
2.1_delrin_chambers_and_manifold
  6
ByLayer
 62
  256
370
   -1
100
AcDbLine
 10
-1.851779999999991
 20
1.217341605297406e-08
 11
-1.851780026256151
 21
-3.993999987826584
  0
LINE
  5
153
100
AcDbEntity
  8
2.1_delrin_chambers_and_manifold
  6
ByLayer
 62
  256
370
   -1
100
AcDbLine
 10
-1.851780026256151
 20
-3.993999987826584
 11
-1.851780052551675
 21
-7.993986868954977
  0
LINE
  5
154
100
AcDbEntity
  8
2.1_delrin_chambers_and_manifold
  6
ByLayer
 62
  256
370
   -1
100
AcDbLine
 10
13.14800003290898
 20
5.005999913566342
 11
31.14800003290898
 21
5.005999795236107
  0
LINE
  5
155
100
AcDbEntity
  8
2.1_delrin_chambers_and_manifold
  6
ByLayer
 62
  256
370
   -1
100
AcDbLine
 10
31.14800003290898
 20
5.005999795236107
 11
31.14799995689074
 21
-5.594001358504983
  0
LINE
  5
156
100
AcDbEntity
  8
2.1_delrin_chambers_and_manifold
  6
ByLayer
 62
  256
370
   -1
100
AcDbLine
 10
2.101976681252395
 20
-5.594001358504983
 11
31.14799995402217
 21
-5.594001358504983
  0
ARC
  5
157
100
AcDbEntity
  8
2.1_delrin_chambers_and_manifold
  6
ByLayer
 62
  256
370
   -1
100
AcDbCircle
 10
2.101976681252395
 20
-5.844001358504983
 40
0.25
100
AcDbArc
 50
90
 51
179.9947571941839
  0
LINE
  5
158
100
AcDbEntity
  8
2.1_delrin_chambers_and_manifold
  6
ByLayer
 62
  256
370
   -1
100
AcDbLine
 10
2.101980495949704
 20
-5.594001358504983
 11
31.14799995402217
 21
-5.594001358504983
  0
LINE
  5
159
100
AcDbEntity
  8
2.1_delrin_chambers_and_manifold
  6
ByLayer
 62
  256
370
   -1
100
AcDbLine
 10
1.851976681996717
 20
-5.843981786073869
 11
1.851779947448321
 21
-7.993986893301809
  0
LINE
  5
15A
100
AcDbEntity
  8
2.1_delrin_chambers_and_manifold
  6
ByLayer
 62
  256
370
   -1
100
AcDbLine
 10
1.851976681837229
 20
-5.843983528819081
 11
1.851779947448321
 21
-7.993986893301809
  0
LINE
  5
15B
100
AcDbEntity
  8
2.1_delrin_chambers_and_manifold
  6
ByLayer
 62
  256
370
   -1
100
AcDbLine
 10
1.851779973743845
 20
-3.994000012173416
 11
1.851976681837229
 21
-5.843983528819081
  0
LINE
  5
15C
100
AcDbEntity
  8
2.1_delrin_chambers_and_manifold
  6
ByLayer
 62
  256
370
   -1
100
AcDbLine
 10
9.375
 20
3.7499999383697
 11
13.14800003290898
 21
3.7499999383697
  0
ARC
  5
15D
100
AcDbEntity
  8
2.1_delrin_chambers_and_manifold
  6
ByLayer
 62
  256
370
   -1
100
AcDbCircle
 10
9.375
 20
-6.163030000000001e-08
 40
3.75
100
AcDbArc
 50
89.99999742417441
 51
180.0000018213838
  0
LINE
  5
15E
100
AcDbEntity
  8
2.1_delrin_chambers_and_manifold
  6
ByLayer
 62
  256
370
   -1
100
AcDbLine
 10
13.14800003290898
 20
5.005999913566342
 11
13.14800002465216
 21
3.7499999383697
  0
LINE
  5
15F
100
AcDbEntity
  8
2.1_delrin_chambers_and_manifold
  6
ByLayer
 62
  256
370
   -1
100
AcDbLine
 10
1.851779973743845
 20
-3.994000012173416
 11
4.624999993426099
 21
-3.994000030404292
  0
LINE
  5
160
100
AcDbEntity
  8
2.1_delrin_chambers_and_manifold
  6
ByLayer
 62
  256
370
   -1
100
AcDbLine
 10
5.625
 20
-6.163029954075746e-08
 11
5.625
 21
-2.994000030404292
  0
ARC
  5
161
100
AcDbEntity
  8
2.1_delrin_chambers_and_manifold
  6
ByLayer
 62
  256
370
   -1
100
AcDbCircle
 10
4.625
 20
-2.994000030404292
 40
1
100
AcDbArc
 50
269.9999996233432
 51
0
  0
ENDBLK
  5
78
330
76
100
AcDbEntity
  8
0
100
AcDbBlockEnd
  0
BLOCK
  5
7A
330
79
100
AcDbEntity
  8
0
100
AcDbBlockBegin
  2
vactrap_guide
 70
    0
 10
0
 20
0
  3
vactrap_guide
  1

  0
ARC
  5
162
100
AcDbEntity
  8
6.1_vacuum_trap_guides
  6
ByLayer
 62
    1
370
   -1
100
AcDbCircle
 10
-9.440663967436834
 20
-1.599999999999994
 40
1.599999999999994
100
AcDbArc
 50
90
 51
270
  0
LINE
  5
163
100
AcDbEntity
  8
6.1_vacuum_trap_guides
  6
ByLayer
 62
    1
370
   -1
100
AcDbLine
 10
-0.5
 20
0
 11
-9.440663967436834
 21
0
  0
LINE
  5
164
100
AcDbEntity
  8
6.1_vacuum_trap_guides
  6
ByLayer
 62
    1
370
   -1
100
AcDbLine
 10
-0.5
 20
4.37102
 11
-0.5
 21
0
  0
LINE
  5
165
100
AcDbEntity
  8
6.1_vacuum_trap_guides
  6
ByLayer
 62
    1
370
   -1
100
AcDbLine
 10
-0.5
 20
-3.2
 11
-0.5
 21
-13.373
  0
LINE
  5
166
100
AcDbEntity
  8
6.1_vacuum_trap_guides
  6
ByLayer
 62
    1
370
   -1
100
AcDbLine
 10
-9.440663967436834
 20
-3.199999999999989
 11
-0.5
 21
-3.2
  0
LINE
  5
167
100
AcDbEntity
  8
6.1_vacuum_trap_guides
  6
ByLayer
 62
    1
370
   -1
100
AcDbLine
 10
31.06
 20
-13.3731
 11
31.06022072890421
 21
-11.0138970948077
  0
LINE
  5
168
100
AcDbEntity
  8
6.1_vacuum_trap_guides
  6
ByLayer
 62
    1
370
   -1
100
AcDbLine
 10
-0.5
 20
-13.373
 11
31.06
 21
-13.3731
  0
LINE
  5
169
100
AcDbEntity
  8
6.1_vacuum_trap_guides
  6
ByLayer
 62
    1
370
   -1
100
AcDbLine
 10
36.06
 20
4.37102
 11
-0.5
 21
4.37102
  0
LINE
  5
16A
100
AcDbEntity
  8
6.1_vacuum_trap_guides
  6
ByLayer
 62
    1
370
   -1
100
AcDbLine
 10
36.06
 20
-11.01398285439461
 11
36.06
 21
4.37102
  0
LINE
  5
16B
100
AcDbEntity
  8
6.1_vacuum_trap_guides
  6
ByLayer
 62
    1
370
   -1
100
AcDbLine
 10
31.06022072890421
 20
-11.0138970948077
 11
36.06
 21
-11.01398285439461
  0
ENDBLK
  5
7B
330
79
100
AcDbEntity
  8
0
100
AcDbBlockEnd
  0
BLOCK
  5
7D
330
7C
100
AcDbEntity
  8
0
100
AcDbBlockBegin
  2
delrin_slider
 70
    0
 10
0
 20
0
  3
delrin_slider
  1

  0
LINE
  5
16C
100
AcDbEntity
  8
2.2_delrin_sliders
  6
ByLayer
 62
  256
370
   -1
100
AcDbLine
 10
1.31477975173766e-08
 20
1.999993440564197
 11
14.99978001314781
 21
1.999993341957094
  0
LINE
  5
16D
100
AcDbEntity
  8
2.2_delrin_sliders
  6
ByLayer
 62
  256
370
   -1
100
AcDbLine
 10
14.99978007231289
 20
10.99999334195709
 11
14.99978001314781
 21
1.999993341957094
  0
ARC
  5
16E
100
AcDbEntity
  8
2.2_delrin_sliders
  6
ByLayer
 62
  256
370
   -1
100
AcDbCircle
 10
21.999780065739
 20
9.999993295939788
 40
1
100
AcDbArc
 50
359.9999996233432
 51
89.9999996233432
  0
CIRCLE
  5
16F
100
AcDbEntity
  8
2.2_delrin_sliders
  6
ByLayer
 62
  256
370
   -1
100
AcDbCircle
 10
18.9997506487675
 20
8.097972467288599
 40
1.473
  0
LINE
  5
170
100
AcDbEntity
  8
2.2_delrin_sliders
  6
ByLayer
 62
  256
370
   -1
100
AcDbLine
 10
0
 20
0
 11
21.99977999999999
 21
-1.4462440844909e-07
  0
ARC
  5
171
100
AcDbEntity
  8
2.2_delrin_sliders
  6
ByLayer
 62
  256
370
   -1
100
AcDbCircle
 10
21.9997800065739
 20
0.9999998553756768
 40
1
100
AcDbArc
 50
269.9999996233425
 51
359.9999996233425
  0
LINE
  5
172
100
AcDbEntity
  8
2.2_delrin_sliders
  6
ByLayer
 62
  256
370
   -1
100
AcDbLine
 10
22.99978000657401
 20
1.000001756150397
 11
22.999780065739
 21
9.999993289365875
  0
LINE
  5
173
100
AcDbEntity
  8
2.2_delrin_sliders
  6
ByLayer
 62
  256
370
   -1
100
AcDbLine
 10
21.99977625761559
 20
10.99999329593987
 11
14.99978007231289
 21
10.99999334195709
  0
LINE
  5
174
100
AcDbEntity
  8
2.2_delrin_sliders
  6
ByLayer
 62
  256
370
   -1
100
AcDbLine
 10
1.31477975173766e-08
 20
1.999993440564197
 11
0
 21
0
  0
ENDBLK
  5
7E
330
7C
100
AcDbEntity
  8
0
100
AcDbBlockEnd
  0
ENDSEC
  0
SECTION
  2
ENTITIES
  0
CIRCLE
  5
175
100
AcDbEntity
  8
1.1_top_acrylic_manifold_sides
  6
ByLayer
 62
  256
370
   -1
100
AcDbCircle
 10
237.0192976325171
 20
95.0192993892837
 40
2.019299999999999
  0
CIRCLE
  5
176
100
AcDbEntity
  8
1.1_top_acrylic_manifold_sides
  6
ByLayer
 62
  256
370
   -1
100
AcDbCircle
 10
13.01929763251712
 20
95.0192993892837
 40
2.019299999999999
  0
ARC
  5
177
100
AcDbEntity
  8
2.1_delrin_chambers_and_manifold
  6
ByLayer
 62
  256
370
   -1
100
AcDbCircle
 10
59.9950114724523
 20
117.4950128526784
 40
1.5
100
AcDbArc
 50
179.9228485575014
 51
270
  0
CIRCLE
  5
178
100
AcDbEntity
  8
2.1_delrin_chambers_and_manifold
  6
ByLayer
 62
  256
370
   -1
100
AcDbCircle
 10
13.01431112902532
 20
95.01431200134493
 40
2.019299999999999
  0
ARC
  5
179
100
AcDbEntity
  8
2.1_delrin_chambers_and_manifold
  6
ByLayer
 62
  256
370
   -1
100
AcDbCircle
 10
59.9950114724523
 20
72.49501179039324
 40
1.5
100
AcDbArc
 50
90
 51
180.0771514424976
  0
LWPOLYLINE
  5
17A
100
AcDbEntity
  8
2.1_delrin_chambers_and_manifold
  6
ByLayer
 62
  256
370
   -1
100
AcDbPolyline
 90
   10
 70
    0
 43
0
 10
175.4950131664239
 20
28.99501202263544
 10
175.4950131664239
 20
37.36303147287201
 42
-3.105919462623424
 10
177.4950131664239
 20
37.41404010590172
 10
177.4950131664239
 20
28.99501308492067
 10
189.9950158862055
 20
28.99501308492067
 42
-0.9999999999999999
 10
189.9950158862055
 20
25.99501308492067
 10
177.4950131664239
 20
25.99501308492064
 10
177.4950131664239
 20
17.64698580308006
 42
-3.105919501747113
 10
175.4950131664239
 20
17.69799363334492
 10
175.4950131664239
 20
37.36303147287202
  0
LWPOLYLINE
  5
17B
100
AcDbEntity
  8
2.1_delrin_chambers_and_manifold
  6
ByLayer
 62
  256
370
   -1
100
AcDbPolyline
 90
   10
 70
    0
 43
0
 10
175.4950114724522
 20
73.99501179039324
 10
175.4950114724523
 20
82.36303124062978
 42
-3.105919462623391
 10
177.4950114724522
 20
82.4140398736595
 10
177.4950114724522
 20
73.99501285267847
 10
189.9950141922338
 20
73.99501285267847
 42
-0.9999999999999999
 10
189.9950141922338
 20
70.99501285267847
 10
177.4950114724522
 20
70.99501285267844
 10
177.4950114724522
 20
62.64698557083786
 42
-3.105919501747104
 10
175.4950114724523
 20
62.69799340110274
 10
175.4950114724522
 20
82.36303124062981
  0
LWPOLYLINE
  5
17C
100
AcDbEntity
  8
2.1_delrin_chambers_and_manifold
  6
ByLayer
 62
  256
370
   -1
100
AcDbPolyline
 90
   10
 70
    0
 43
0
 10
175.4950114724522
 20
115.9950128526784
 10
175.4950114724523
 20
107.6269934024419
 42
3.105919462623315
 10
177.4950114724522
 20
107.5759847694122
 10
177.4950114724522
 20
115.9950117903932
 10
189.9950141922338
 20
115.9950117903932
 42
0.9999999999999999
 10
189.9950141922338
 20
118.9950117903932
 10
177.4950114724522
 20
118.9950117903932
 10
177.4950114724522
 20
127.3430390722338
 42
3.105919501747059
 10
175.4950114724522
 20
127.292031241969
 10
175.4950114724522
 20
107.6269934024419
  0
LWPOLYLINE
  5
17D
100
AcDbEntity
  8
2.1_delrin_chambers_and_manifold
  6
ByLayer
 62
  256
370
   -1
100
AcDbPolyline
 90
   10
 70
    0
 43
0
 10
175.4950131664239
 20
160.9950126204362
 10
175.4950131664239
 20
152.6269931701997
 42
3.10591946262332
 10
177.4950131664239
 20
152.5759845371699
 10
177.4950131664239
 20
160.995011558151
 10
189.9950158862055
 20
160.995011558151
 42
0.9999999999999999
 10
189.9950158862055
 20
163.995011558151
 10
177.4950131664239
 20
163.995011558151
 10
177.4950131664239
 20
172.3430388399916
 42
3.105919501747096
 10
175.4950131664239
 20
172.2920310097268
 10
175.4950131664239
 20
152.6269931701997
  0
LWPOLYLINE
  5
17E
100
AcDbEntity
  8
2.1_delrin_chambers_and_manifold
  6
ByLayer
 62
  256
370
   -1
100
AcDbPolyline
 90
   10
 70
    0
 43
0
 10
74.49501249826226
 20
160.9950126204363
 10
74.49501249826228
 20
152.6269931701997
 42
-3.105919462623235
 10
72.49501249826226
 20
152.57598453717
 10
72.49501249826226
 20
160.995011558151
 10
59.99500977848068
 20
160.995011558151
 42
-0.9999999999999999
 10
59.99500977848068
 20
163.995011558151
 10
72.49501249826226
 20
163.9950115581511
 10
72.49501249826226
 20
172.3430388399917
 42
-3.105919501747002
 10
74.49501249826231
 20
172.2920310097268
 10
74.49501249826226
 20
152.6269931701997
  0
LWPOLYLINE
  5
17F
100
AcDbEntity
  8
2.1_delrin_chambers_and_manifold
  6
ByLayer
 62
  256
370
   -1
100
AcDbPolyline
 90
   10
 70
    0
 43
0
 10
74.49501419223385
 20
115.9950128526785
 10
74.49501419223387
 20
107.6269934024419
 42
-3.105919462623169
 10
72.4950141922338
 20
107.5759847694122
 10
72.49501419223384
 20
115.9950117903932
 10
59.99501147245228
 20
115.9950117903932
 42
-0.9999999999999999
 10
59.99501147245228
 20
118.9950117903932
 10
72.49501419223384
 20
118.9950117903933
 10
72.49501419223388
 20
127.3430390722338
 42
-3.105919501747007
 10
74.49501419223392
 20
127.292031241969
 10
74.49501419223385
 20
107.6269934024419
  0
LWPOLYLINE
  5
180
100
AcDbEntity
  8
2.1_delrin_chambers_and_manifold
  6
ByLayer
 62
  256
370
   -1
100
AcDbPolyline
 90
   10
 70
    0
 43
0
 10
74.49501419223385
 20
73.99501179039321
 10
74.49501419223387
 20
82.36303124062981
 42
3.105919462623313
 10
72.49501419223384
 20
82.41403987365949
 10
72.49501419223384
 20
73.99501285267844
 10
59.99501147245228
 20
73.99501285267844
 42
0.9999999999999999
 10
59.99501147245228
 20
70.99501285267844
 10
72.49501419223384
 20
70.99501285267841
 10
72.49501419223388
 20
62.64698557083783
 42
3.105919501746957
 10
74.49501419223394
 20
62.69799340110266
 10
74.49501419223385
 20
82.36303124062978
  0
LWPOLYLINE
  5
181
100
AcDbEntity
  8
2.1_delrin_chambers_and_manifold
  6
ByLayer
 62
  256
370
   -1
100
AcDbPolyline
 90
   10
 70
    0
 43
0
 10
74.49501249826226
 20
28.99501202263541
 10
74.49501249826228
 20
37.36303147287202
 42
3.105919462623318
 10
72.49501249826226
 20
37.41404010590168
 10
72.49501249826226
 20
28.99501308492064
 10
59.99500977848068
 20
28.99501308492064
 42
0.9999999999999999
 10
59.99500977848068
 20
25.99501308492064
 10
72.49501249826226
 20
25.99501308492061
 10
72.49501249826226
 20
17.64698580308006
 42
3.105919501746992
 10
74.4950124982623
 20
17.69799363334484
 10
74.49501249826226
 20
37.36303147287197
  0
CIRCLE
  5
182
100
AcDbEntity
  8
2.1_delrin_chambers_and_manifold
  6
ByLayer
 62
  256
370
   -1
100
AcDbCircle
 10
94.39501245001064
 20
5.459512478065912
 40
1.714499999999999
  0
CIRCLE
  5
183
100
AcDbEntity
  8
2.1_delrin_chambers_and_manifold
  6
ByLayer
 62
  256
370
   -1
100
AcDbCircle
 10
155.5950124500106
 20
5.459512478065912
 40
1.714499999999999
  0
CIRCLE
  5
184
100
AcDbEntity
  8
2.1_delrin_chambers_and_manifold
  6
ByLayer
 62
  256
370
   -1
100
AcDbCircle
 10
37.70952243943084
 20
94.95948533576089
 40
1.714499999999999
  0
CIRCLE
  5
185
100
AcDbEntity
  8
2.1_delrin_chambers_and_manifold
  6
ByLayer
 62
  256
370
   -1
100
AcDbCircle
 10
53.70952243943083
 20
146.7094853357608
 40
1.714499999999999
  0
CIRCLE
  5
186
100
AcDbEntity
  8
2.1_delrin_chambers_and_manifold
  6
ByLayer
 62
  256
370
   -1
100
AcDbCircle
 10
53.70952243943083
 20
133.2094853357608
 40
1.714499999999999
  0
CIRCLE
  5
187
100
AcDbEntity
  8
2.1_delrin_chambers_and_manifold
  6
ByLayer
 62
  256
370
   -1
100
AcDbCircle
 10
21.70952243943084
 20
101.7094853357608
 40
1.714499999999999
  0
CIRCLE
  5
188
100
AcDbEntity
  8
2.1_delrin_chambers_and_manifold
  6
ByLayer
 62
  256
370
   -1
100
AcDbCircle
 10
21.70952243943084
 20
88.20948533576087
 40
1.714499999999999
  0
CIRCLE
  5
189
100
AcDbEntity
  8
2.1_delrin_chambers_and_manifold
  6
ByLayer
 62
  256
370
   -1
100
AcDbCircle
 10
53.70952243943083
 20
56.70948533576087
 40
1.714499999999999
  0
CIRCLE
  5
18A
100
AcDbEntity
  8
2.1_delrin_chambers_and_manifold
  6
ByLayer
 62
  256
370
   -1
100
AcDbCircle
 10
53.70952243943083
 20
43.20948533576087
 40
1.714499999999999
  0
CIRCLE
  5
18B
100
AcDbEntity
  8
2.1_delrin_chambers_and_manifold
  6
ByLayer
 62
  256
370
   -1
100
AcDbCircle
 10
11.95950596623534
 20
194.4950122848045
 40
1.714499999999999
  0
CIRCLE
  5
18C
100
AcDbEntity
  8
2.1_delrin_chambers_and_manifold
  6
ByLayer
 62
  256
370
   -1
100
AcDbCircle
 10
212.2805009004941
 20
94.95948533576089
 40
1.714499999999999
  0
CIRCLE
  5
18D
100
AcDbEntity
  8
2.1_delrin_chambers_and_manifold
  6
ByLayer
 62
  256
370
   -1
100
AcDbCircle
 10
196.2805009004941
 20
146.7094853357608
 40
1.714499999999999
  0
CIRCLE
  5
18E
100
AcDbEntity
  8
2.1_delrin_chambers_and_manifold
  6
ByLayer
 62
  256
370
   -1
100
AcDbCircle
 10
196.2805009004941
 20
133.2094853357608
 40
1.714499999999999
  0
CIRCLE
  5
18F
100
AcDbEntity
  8
2.1_delrin_chambers_and_manifold
  6
ByLayer
 62
  256
370
   -1
100
AcDbCircle
 10
228.2805009004941
 20
101.7094853357608
 40
1.714499999999999
  0
CIRCLE
  5
190
100
AcDbEntity
  8
2.1_delrin_chambers_and_manifold
  6
ByLayer
 62
  256
370
   -1
100
AcDbCircle
 10
228.2805009004941
 20
88.20948533576087
 40
1.714499999999999
  0
CIRCLE
  5
191
100
AcDbEntity
  8
2.1_delrin_chambers_and_manifold
  6
ByLayer
 62
  256
370
   -1
100
AcDbCircle
 10
196.2805009004941
 20
56.70948533576087
 40
1.714499999999999
  0
CIRCLE
  5
192
100
AcDbEntity
  8
2.1_delrin_chambers_and_manifold
  6
ByLayer
 62
  256
370
   -1
100
AcDbCircle
 10
196.2805009004941
 20
43.20948533576087
 40
1.714499999999999
  0
CIRCLE
  5
193
100
AcDbEntity
  8
2.1_delrin_chambers_and_manifold
  6
ByLayer
 62
  256
370
   -1
100
AcDbCircle
 10
238.0305173736896
 20
194.4950122848045
 40
1.714499999999999
  0
LINE
  5
194
100
AcDbEntity
  8
2.1_delrin_chambers_and_manifold
  6
ByLayer
 62
  256
370
   -1
100
AcDbLine
 10
152.4950126671784
 20
2.495012248678519
 11
152.4950126671784
 21
-0.004987751321481326
  0
LINE
  5
195
100
AcDbEntity
  8
3.1_yellow_manifold_layer
  6
ByLayer
 62
  256
370
   -1
100
AcDbLine
 10
58.49999890863159
 20
117.5020202989282
 11
58.4999989086316
 21
137.9999999483545
  0
LINE
  5
196
100
AcDbEntity
  8
3.1_yellow_manifold_layer
  6
ByLayer
 62
  256
370
   -1
100
AcDbLine
 10
58.49999890863159
 20
72.49797959778093
 11
58.4999989086316
 21
51.99999994835457
  0
ARC
  5
197
100
AcDbEntity
  8
3.1_yellow_manifold_layer
  6
ByLayer
 62
  256
370
   -1
100
AcDbCircle
 10
59.9999989086316
 20
72.49999994835457
 40
1.5
100
AcDbArc
 50
0
 51
180
  0
ARC
  5
198
100
AcDbEntity
  8
3.1_yellow_manifold_layer
  6
ByLayer
 62
  256
370
   -1
100
AcDbCircle
 10
59.9999989086316
 20
117.4999999483545
 40
1.5
100
AcDbArc
 50
180
 51
0
  0
LINE
  5
199
100
AcDbEntity
  8
3.1_yellow_manifold_layer
  6
ByLayer
 62
  256
370
   -1
100
AcDbLine
 10
191.4999989086315
 20
117.5020202989282
 11
191.4999989086315
 21
137.9999999483545
  0
LINE
  5
19A
100
AcDbEntity
  8
3.1_yellow_manifold_layer
  6
ByLayer
 62
  256
370
   -1
100
AcDbLine
 10
191.4999989086315
 20
72.49797959778093
 11
191.4999989086315
 21
51.99999994835457
  0
ARC
  5
19B
100
AcDbEntity
  8
3.1_yellow_manifold_layer
  6
ByLayer
 62
  256
370
   -1
100
AcDbCircle
 10
189.9999989086316
 20
72.49999994835457
 40
1.5
100
AcDbArc
 50
0
 51
180
  0
ARC
  5
19C
100
AcDbEntity
  8
3.1_yellow_manifold_layer
  6
ByLayer
 62
  256
370
   -1
100
AcDbCircle
 10
189.9999989086316
 20
117.4999999483545
 40
1.5
100
AcDbArc
 50
180
 51
0
  0
LWPOLYLINE
  5
19D
100
AcDbEntity
  8
3.1_yellow_manifold_layer
  6
ByLayer
 62
  256
370
   -1
100
AcDbPolyline
 90
    5
 70
    0
 43
0
 10
28.4999989086316
 20
47.99999994835456
 10
58.4999989086316
 20
47.99999994835456
 10
58.4999989086316
 20
27.49999994835457
 42
0.9999999999999999
 10
61.4999989086316
 20
27.49999994835457
 10
61.49999890863158
 20
72.49852955994726
  0
LWPOLYLINE
  5
19E
100
AcDbEntity
  8
3.1_yellow_manifold_layer
  6
ByLayer
 62
  256
370
   -1
100
AcDbPolyline
 90
    5
 70
    0
 43
0
 10
61.49999890863158
 20
117.5014703367619
 10
61.4999989086316
 20
162.4999999483545
 42
0.9999999999999999
 10
58.4999989086316
 20
162.4999999483545
 10
58.4999989086316
 20
141.9999999483545
 10
28.4999989086316
 20
141.9999999483545
  0
LWPOLYLINE
  5
19F
100
AcDbEntity
  8
3.1_yellow_manifold_layer
  6
ByLayer
 62
  256
370
   -1
100
AcDbPolyline
 90
   11
 70
    0
 43
0
 10
26.4999989086316
 20
49.99999997265503
 42
0.4142135659318153
 10
28.4999989086316
 20
47.99999994835454
 42
-0.4142135588143794
 10
26.4999989086316
 20
49.99999992405407
 10
26.49999943056801
 20
92.95690965540516
 10
12.98003166694872
 20
92.9613997987372
 42
-0.416918363707637
 10
10.96149453770096
 20
94.99999994835457
 42
-0.4169183637076376
 10
12.98003166694867
 20
97.03860009797191
 10
26.49999943056799
 20
97.04309024130391
 10
26.4999989086316
 20
139.999999972655
 42
-0.4142135588143763
 10
28.4999989086316
 20
141.9999999483546
 42
0.4142135659318096
 10
26.4999989086316
 20
139.999999924054
 42
0.4142135659318096
  0
LWPOLYLINE
  5
1A0
100
AcDbEntity
  8
3.1_yellow_manifold_layer
  6
ByLayer
 62
  256
370
   -1
100
AcDbPolyline
 90
    7
 70
    0
 43
0
 10
57.4999989086316
 20
137.9999999483545
 10
58.4999989086316
 20
137.9999999483545
 10
30.49999893293207
 20
137.9999999483545
 10
30.49999945539204
 20
94.99999994835457
 10
30.49999893293206
 20
51.99999994835457
 10
58.4999989086316
 20
51.99999994835457
 10
57.4999989086316
 20
51.99999994835457
  0
LWPOLYLINE
  5
1A1
100
AcDbEntity
  8
3.1_yellow_manifold_layer
  6
ByLayer
 62
  256
370
   -1
100
AcDbPolyline
 90
    5
 70
    0
 43
0
 10
188.4999989086315
 20
72.49852955994726
 10
188.4999989086315
 20
27.49999994835457
 42
0.9999999999999999
 10
191.4999989086315
 20
27.49999994835457
 10
191.4999989086315
 20
47.99999994835456
 10
221.4999989086316
 20
47.99999994835456
  0
LWPOLYLINE
  5
1A2
100
AcDbEntity
  8
3.1_yellow_manifold_layer
  6
ByLayer
 62
  256
370
   -1
100
AcDbPolyline
 90
    5
 70
    0
 43
0
 10
221.4999989086316
 20
141.9999999483545
 10
191.4999989086315
 20
141.9999999483545
 10
191.4999989086315
 20
162.4999999483545
 42
0.9999999999999999
 10
188.4999989086315
 20
162.4999999483545
 10
188.4999989086315
 20
117.5014703367619
  0
LWPOLYLINE
  5
1A3
100
AcDbEntity
  8
3.1_yellow_manifold_layer
  6
ByLayer
 62
  256
370
   -1
100
AcDbPolyline
 90
   11
 70
    0
 43
0
 10
223.4999989086316
 20
49.99999997265503
 42
-0.4142135659318195
 10
221.4999989086316
 20
47.99999994835454
 42
0.414213558814382
 10
223.4999989086316
 20
49.99999992405407
 10
223.4999983866951
 20
92.95690965540516
 10
237.0199661503144
 20
92.9613997987372
 42
0.4169183637076415
 10
239.0385032795622
 20
94.99999994835457
 42
0.4169183637076373
 10
237.0199661503145
 20
97.03860009797191
 10
223.4999983866952
 20
97.04309024130391
 10
223.4999989086316
 20
139.999999972655
 42
0.4142135588143768
 10
221.4999989086316
 20
141.9999999483546
 42
-0.4142135659316717
 10
223.4999989086315
 20
139.999999924054
 42
-0.4142135659316717
  0
LWPOLYLINE
  5
1A4
100
AcDbEntity
  8
3.1_yellow_manifold_layer
  6
ByLayer
 62
  256
370
   -1
100
AcDbPolyline
 90
    7
 70
    0
 43
0
 10
192.4999989086315
 20
137.9999999483545
 10
191.4999989086315
 20
137.9999999483545
 10
219.4999988843311
 20
137.9999999483545
 10
219.4999983618711
 20
94.99999994835457
 10
219.4999988843311
 20
51.99999994835457
 10
191.4999989086315
 20
51.99999994835457
 10
192.4999989086315
 20
51.99999994835457
  0
CIRCLE
  5
1A5
100
AcDbEntity
  8
3.1_yellow_manifold_layer
  6
ByLayer
 62
  256
370
   -1
100
AcDbCircle
 10
37.71451010548537
 20
94.96447325228843
 40
1.714499999999999
  0
CIRCLE
  5
1A6
100
AcDbEntity
  8
3.1_yellow_manifold_layer
  6
ByLayer
 62
  256
370
   -1
100
AcDbCircle
 10
53.71451010548537
 20
146.7144732522884
 40
1.714499999999999
  0
CIRCLE
  5
1A7
100
AcDbEntity
  8
3.1_yellow_manifold_layer
  6
ByLayer
 62
  256
370
   -1
100
AcDbCircle
 10
53.71451010548537
 20
133.2144732522884
 40
1.714499999999999
  0
CIRCLE
  5
1A8
100
AcDbEntity
  8
3.1_yellow_manifold_layer
  6
ByLayer
 62
  256
370
   -1
100
AcDbCircle
 10
21.71451010548538
 20
101.7144732522884
 40
1.714499999999999
  0
CIRCLE
  5
1A9
100
AcDbEntity
  8
3.1_yellow_manifold_layer
  6
ByLayer
 62
  256
370
   -1
100
AcDbCircle
 10
21.71451010548538
 20
88.21447325228843
 40
1.714499999999999
  0
CIRCLE
  5
1AA
100
AcDbEntity
  8
3.1_yellow_manifold_layer
  6
ByLayer
 62
  256
370
   -1
100
AcDbCircle
 10
53.71451010548537
 20
56.71447325228842
 40
1.714499999999999
  0
CIRCLE
  5
1AB
100
AcDbEntity
  8
3.1_yellow_manifold_layer
  6
ByLayer
 62
  256
370
   -1
100
AcDbCircle
 10
53.71451010548537
 20
43.21447325228842
 40
1.714499999999999
  0
CIRCLE
  5
1AC
100
AcDbEntity
  8
3.1_yellow_manifold_layer
  6
ByLayer
 62
  256
370
   -1
100
AcDbCircle
 10
11.96449363228987
 20
194.5000002013321
 40
1.714499999999999
  0
CIRCLE
  5
1AD
100
AcDbEntity
  8
3.1_yellow_manifold_layer
  6
ByLayer
 62
  256
370
   -1
100
AcDbCircle
 10
212.2854885665486
 20
94.96447325228843
 40
1.714499999999999
  0
CIRCLE
  5
1AE
100
AcDbEntity
  8
3.1_yellow_manifold_layer
  6
ByLayer
 62
  256
370
   -1
100
AcDbCircle
 10
196.2854885665487
 20
146.7144732522884
 40
1.714499999999999
  0
CIRCLE
  5
1AF
100
AcDbEntity
  8
3.1_yellow_manifold_layer
  6
ByLayer
 62
  256
370
   -1
100
AcDbCircle
 10
196.2854885665487
 20
133.2144732522884
 40
1.714499999999999
  0
CIRCLE
  5
1B0
100
AcDbEntity
  8
3.1_yellow_manifold_layer
  6
ByLayer
 62
  256
370
   -1
100
AcDbCircle
 10
228.2854885665486
 20
101.7144732522884
 40
1.714499999999999
  0
CIRCLE
  5
1B1
100
AcDbEntity
  8
3.1_yellow_manifold_layer
  6
ByLayer
 62
  256
370
   -1
100
AcDbCircle
 10
228.2854885665486
 20
88.21447325228843
 40
1.714499999999999
  0
CIRCLE
  5
1B2
100
AcDbEntity
  8
3.1_yellow_manifold_layer
  6
ByLayer
 62
  256
370
   -1
100
AcDbCircle
 10
196.2854885665487
 20
56.71447325228842
 40
1.714499999999999
  0
CIRCLE
  5
1B3
100
AcDbEntity
  8
3.1_yellow_manifold_layer
  6
ByLayer
 62
  256
370
   -1
100
AcDbCircle
 10
196.2854885665487
 20
43.21447325228842
 40
1.714499999999999
  0
CIRCLE
  5
1B4
100
AcDbEntity
  8
3.1_yellow_manifold_layer
  6
ByLayer
 62
  256
370
   -1
100
AcDbCircle
 10
238.0355050397441
 20
194.5000002013321
 40
1.714499999999999
  0
LINE
  5
1B5
100
AcDbEntity
  8
3.1_yellow_manifold_layer
  6
ByLayer
 62
  256
370
   -1
100
AcDbLine
 10
152.499999336017
 20
2.013321136473678e-07
 11
152.499999336017
 21
2.500000201332114
  0
CIRCLE
  5
1B6
100
AcDbEntity
  8
5_support_acrylic
  6
ByLayer
 62
  256
370
   -1
100
AcDbCircle
 10
11.96449351622471
 20
194.4999998347939
 40
1.714499999999999
  0
CIRCLE
  5
1B7
100
AcDbEntity
  8
5_support_acrylic
  6
ByLayer
 62
  256
370
   -1
100
AcDbCircle
 10
238.035504923679
 20
194.4999998347939
 40
1.714499999999999
  0
LWPOLYLINE
  5
1B8
100
AcDbEntity
  8
1.1_top_acrylic_manifold_sides
  6
ByLayer
 62
  256
370
   -1
100
AcDbPolyline
 90
    4
 70
    1
 43
0
 10
0
 20
0
 10
85
 20
0
 10
85
 20
200
 10
0
 20
200
  0
LWPOLYLINE
  5
1B9
100
AcDbEntity
  8
1.1_top_acrylic_manifold_sides
  6
ByLayer
 62
  256
370
   -1
100
AcDbPolyline
 90
    4
 70
    1
 43
0
 10
250
 20
200
 10
165
 20
200
 10
165
 20
0
 10
250
 20
0
  0
LWPOLYLINE
  5
1BA
100
AcDbEntity
  8
1.2_egress_slider_eighth
  6
ByLayer
 62
  256
370
   -1
100
AcDbPolyline
 90
    4
 70
    1
 43
0
 10
85.0000000717812
 20
5.500000310676995
 10
165.0000000717812
 20
5.500000310676995
 10
165.0000000717812
 20
201.500000310677
 10
85.0000000717812
 20
201.500000310677
  0
CIRCLE
  5
1BB
100
AcDbEntity
  8
4.2_pcb_insert
  6
ByBlock
 62
  256
370
   -1
100
AcDbCircle
 10
115.623
 20
161.739
 40
2
  0
LINE
  5
1BC
100
AcDbEntity
  8
2.1_delrin_chambers_and_manifold
  6
ByLayer
 62
  256
370
   -1
100
AcDbLine
 10
0
 20
161.739
 11
0
 21
153.7500007456904
  0
CIRCLE
  5
1BD
100
AcDbEntity
  8
4.2_pcb_insert
  6
ByBlock
 62
  256
370
   -1
100
AcDbCircle
 10
124.998
 20
161.739
 40
0
  0
CIRCLE
  5
1BE
100
AcDbEntity
  8
4.2_pcb_insert
  6
ByBlock
 62
  256
370
   -1
100
AcDbCircle
 10
124.998
 20
161.739
 40
1.85178
  0
LWPOLYLINE
  5
1BF
100
AcDbEntity
  8
0
  6
ByLayer
 62
  256
370
   -1
100
AcDbPolyline
 90
    8
 70
    1
 43
0
 10
99.99501374830693
 20
154.7450131188716
 10
99.99501374830693
 20
157.7450131188716
 42
-0.4142135623730909
 10
100.9950137483069
 20
158.7450131188716
 10
148.9950137483069
 20
158.7450131188716
 42
-0.414213562373095
 10
149.9950137483069
 20
157.7450131188716
 10
149.9950137483069
 20
154.7450131188716
 42
-0.414213562373095
 10
148.9950137483069
 20
153.7450131188716
 10
100.9950137483069
 20
153.7450131188716
 42
-0.4142135623730909
  0
CIRCLE
  5
1C0
100
AcDbEntity
  8
3.1_yellow_manifold_layer
  6
ByLayer
 62
  256
370
   -1
100
AcDbCircle
 10
170
 20
162.214499378591
 40
1.714499999999999
  0
CIRCLE
  5
1C1
100
AcDbEntity
  8
3.1_yellow_manifold_layer
  6
ByLayer
 62
  256
370
   -1
100
AcDbCircle
 10
170
 20
139.9644994970288
 40
1.714499999999999
  0
CIRCLE
  5
1C2
100
AcDbEntity
  8
3.1_yellow_manifold_layer
  6
ByLayer
 62
  256
370
   -1
100
AcDbCircle
 10
170
 20
117.7144999800953
 40
1.714499999999999
  0
CIRCLE
  5
1C3
100
AcDbEntity
  8
3.1_yellow_manifold_layer
  6
ByLayer
 62
  256
370
   -1
100
AcDbCircle
 10
170
 20
95.46450009853309
 40
1.714499999999999
  0
CIRCLE
  5
1C4
100
AcDbEntity
  8
3.1_yellow_manifold_layer
  6
ByLayer
 62
  256
370
   -1
100
AcDbCircle
 10
170
 20
72.21449910678103
 40
1.714499999999999
  0
CIRCLE
  5
1C5
100
AcDbEntity
  8
3.1_yellow_manifold_layer
  6
ByLayer
 62
  256
370
   -1
100
AcDbCircle
 10
170
 20
49.96449922521884
 40
1.714499999999999
  0
CIRCLE
  5
1C6
100
AcDbEntity
  8
3.1_yellow_manifold_layer
  6
ByLayer
 62
  256
370
   -1
100
AcDbCircle
 10
170
 20
27.71449970828536
 40
1.714499999999999
  0
CIRCLE
  5
1C7
100
AcDbEntity
  8
3.1_yellow_manifold_layer
  6
ByLayer
 62
  256
370
   -1
100
AcDbCircle
 10
170
 20
5.46449982672317
 40
1.714499999999999
  0
CIRCLE
  5
1C8
100
AcDbEntity
  8
3.1_yellow_manifold_layer
  6
ByLayer
 62
  256
370
   -1
100
AcDbCircle
 10
170
 20
184.214500454825
 40
1.714499999999999
  0
CIRCLE
  5
1C9
100
AcDbEntity
  8
3.1_yellow_manifold_layer
  6
ByLayer
 62
  256
370
   -1
100
AcDbCircle
 10
80
 20
162.214499378591
 40
1.714499999999999
  0
CIRCLE
  5
1CA
100
AcDbEntity
  8
3.1_yellow_manifold_layer
  6
ByLayer
 62
  256
370
   -1
100
AcDbCircle
 10
80
 20
139.9644994970288
 40
1.714499999999999
  0
CIRCLE
  5
1CB
100
AcDbEntity
  8
3.1_yellow_manifold_layer
  6
ByLayer
 62
  256
370
   -1
100
AcDbCircle
 10
80
 20
117.7144999800953
 40
1.714499999999999
  0
CIRCLE
  5
1CC
100
AcDbEntity
  8
3.1_yellow_manifold_layer
  6
ByLayer
 62
  256
370
   -1
100
AcDbCircle
 10
80
 20
95.46450009853309
 40
1.714499999999999
  0
CIRCLE
  5
1CD
100
AcDbEntity
  8
3.1_yellow_manifold_layer
  6
ByLayer
 62
  256
370
   -1
100
AcDbCircle
 10
80
 20
72.21449910678103
 40
1.714499999999999
  0
CIRCLE
  5
1CE
100
AcDbEntity
  8
3.1_yellow_manifold_layer
  6
ByLayer
 62
  256
370
   -1
100
AcDbCircle
 10
80
 20
49.96449922521884
 40
1.714499999999999
  0
CIRCLE
  5
1CF
100
AcDbEntity
  8
3.1_yellow_manifold_layer
  6
ByLayer
 62
  256
370
   -1
100
AcDbCircle
 10
80
 20
27.71449970828536
 40
1.714499999999999
  0
CIRCLE
  5
1D0
100
AcDbEntity
  8
3.1_yellow_manifold_layer
  6
ByLayer
 62
  256
370
   -1
100
AcDbCircle
 10
80
 20
5.46449982672317
 40
1.714499999999999
  0
CIRCLE
  5
1D1
100
AcDbEntity
  8
3.1_yellow_manifold_layer
  6
ByLayer
 62
  256
370
   -1
100
AcDbCircle
 10
80
 20
184.214500454825
 40
1.714499999999999
  0
CIRCLE
  5
1D2
100
AcDbEntity
  8
2.1_delrin_chambers_and_manifold
  6
ByLayer
 62
  256
370
   -1
100
AcDbCircle
 10
80
 20
162.214499378591
 40
1.714499999999999
  0
CIRCLE
  5
1D3
100
AcDbEntity
  8
2.1_delrin_chambers_and_manifold
  6
ByLayer
 62
  256
370
   -1
100
AcDbCircle
 10
80
 20
139.9644994970288
 40
1.714499999999999
  0
CIRCLE
  5
1D4
100
AcDbEntity
  8
2.1_delrin_chambers_and_manifold
  6
ByLayer
 62
  256
370
   -1
100
AcDbCircle
 10
80
 20
117.7144999800953
 40
1.714499999999999
  0
CIRCLE
  5
1D5
100
AcDbEntity
  8
2.1_delrin_chambers_and_manifold
  6
ByLayer
 62
  256
370
   -1
100
AcDbCircle
 10
80
 20
95.46450009853309
 40
1.714499999999999
  0
CIRCLE
  5
1D6
100
AcDbEntity
  8
2.1_delrin_chambers_and_manifold
  6
ByLayer
 62
  256
370
   -1
100
AcDbCircle
 10
80
 20
72.21449910678103
 40
1.714499999999999
  0
CIRCLE
  5
1D7
100
AcDbEntity
  8
2.1_delrin_chambers_and_manifold
  6
ByLayer
 62
  256
370
   -1
100
AcDbCircle
 10
80
 20
49.96449922521884
 40
1.714499999999999
  0
CIRCLE
  5
1D8
100
AcDbEntity
  8
2.1_delrin_chambers_and_manifold
  6
ByLayer
 62
  256
370
   -1
100
AcDbCircle
 10
80
 20
27.71449970828536
 40
1.714499999999999
  0
CIRCLE
  5
1D9
100
AcDbEntity
  8
2.1_delrin_chambers_and_manifold
  6
ByLayer
 62
  256
370
   -1
100
AcDbCircle
 10
80
 20
5.46449982672317
 40
1.714499999999999
  0
CIRCLE
  5
1DA
100
AcDbEntity
  8
2.1_delrin_chambers_and_manifold
  6
ByLayer
 62
  256
370
   -1
100
AcDbCircle
 10
80
 20
184.214500454825
 40
1.714499999999999
  0
CIRCLE
  5
1DB
100
AcDbEntity
  8
2.1_delrin_chambers_and_manifold
  6
ByLayer
 62
  256
370
   -1
100
AcDbCircle
 10
170
 20
162.214499378591
 40
1.714499999999999
  0
CIRCLE
  5
1DC
100
AcDbEntity
  8
2.1_delrin_chambers_and_manifold
  6
ByLayer
 62
  256
370
   -1
100
AcDbCircle
 10
170
 20
139.9644994970288
 40
1.714499999999999
  0
CIRCLE
  5
1DD
100
AcDbEntity
  8
2.1_delrin_chambers_and_manifold
  6
ByLayer
 62
  256
370
   -1
100
AcDbCircle
 10
170
 20
117.7144999800953
 40
1.714499999999999
  0
CIRCLE
  5
1DE
100
AcDbEntity
  8
2.1_delrin_chambers_and_manifold
  6
ByLayer
 62
  256
370
   -1
100
AcDbCircle
 10
170
 20
95.46450009853309
 40
1.714499999999999
  0
CIRCLE
  5
1DF
100
AcDbEntity
  8
2.1_delrin_chambers_and_manifold
  6
ByLayer
 62
  256
370
   -1
100
AcDbCircle
 10
170
 20
72.21449910678103
 40
1.714499999999999
  0
CIRCLE
  5
1E0
100
AcDbEntity
  8
2.1_delrin_chambers_and_manifold
  6
ByLayer
 62
  256
370
   -1
100
AcDbCircle
 10
170
 20
49.96449922521884
 40
1.714499999999999
  0
CIRCLE
  5
1E1
100
AcDbEntity
  8
2.1_delrin_chambers_and_manifold
  6
ByLayer
 62
  256
370
   -1
100
AcDbCircle
 10
170
 20
27.71449970828536
 40
1.714499999999999
  0
CIRCLE
  5
1E2
100
AcDbEntity
  8
2.1_delrin_chambers_and_manifold
  6
ByLayer
 62
  256
370
   -1
100
AcDbCircle
 10
170
 20
5.46449982672317
 40
1.714499999999999
  0
CIRCLE
  5
1E3
100
AcDbEntity
  8
2.1_delrin_chambers_and_manifold
  6
ByLayer
 62
  256
370
   -1
100
AcDbCircle
 10
170
 20
184.214500454825
 40
1.714499999999999
  0
INSERT
  5
1E4
100
AcDbEntity
  8
7_vacuum_trap_sliders
  6
ByLayer
 62
  256
370
   -1
100
AcDbBlockReference
  2
vactrap_slider
 10
92.44642700000003
 20
173.593855
 30
0
 41
1
 42
1
 43
0
 50
0
 70
    1
 71
    1
 44
0
 45
0
  0
INSERT
  5
1E5
100
AcDbEntity
  8
8_flow_regulator_retainers
  6
ByLayer
 62
  256
370
   -1
100
AcDbBlockReference
  2
vactrap_regulator_retainer
 10
124.997736
 20
161.738962
 30
0
 41
1
 42
1
 43
0
 50
0
 70
    1
 71
    1
 44
0
 45
0
  0
LWPOLYLINE
  5
1E6
100
AcDbEntity
  8
2.1_delrin_chambers_and_manifold
  6
ByLayer
 62
  256
370
   -1
100
AcDbPolyline
 90
   16
 70
    0
 43
0
 10
152.4950126671783
 20
-0.004987549989367679
 10
249.9950124500106
 20
-0.004987549989367679
 10
249.9950124500106
 20
92.49501245001063
 10
249.9950124500106
 20
97.49501245001053
 10
249.9950124500106
 20
199.9950124500106
 10
152.4950124500107
 20
199.9950124500106
 10
152.4950124500106
 20
193.7450124500106
 10
97.49501245001059
 20
193.7450124500106
 10
97.49501245001053
 20
199.9950124500106
 10
-0.004987549989367679
 20
199.9950124500106
 10
-0.004987549989367679
 20
97.49501245001053
 10
-0.004987549989367679
 20
92.49501245001063
 10
-0.004987549989367679
 20
-0.004987549989367679
 10
97.49501245001053
 20
-0.004987549989367679
 10
97.49501245001063
 20
2.495012450010632
 10
152.4950124500106
 20
2.495012450010632
  0
INSERT
  5
1E7
100
AcDbEntity
  8
3.1_yellow_manifold_layer
  6
ByLayer
 62
  256
370
   -1
100
AcDbBlockReference
  2
shimstock_chamber
 10
124.9999981919957
 20
99.7671247950168
 30
0
 41
1
 42
1
 43
0
 50
0
 70
    1
 71
    1
 44
0
 45
0
  0
INSERT
  5
1E8
100
AcDbEntity
  8
3.1_yellow_manifold_layer
  6
ByLayer
 62
  256
370
   -1
100
AcDbBlockReference
  2
shimstock_chamber
 10
124.9999980459313
 20
54.76712525955246
 30
0
 41
1
 42
1
 43
0
 50
0
 70
    1
 71
    1
 44
0
 45
0
  0
INSERT
  5
1E9
100
AcDbEntity
  8
3.1_yellow_manifold_layer
  6
ByLayer
 62
  256
370
   -1
100
AcDbBlockReference
  2
shimstock_chamber
 10
124.9999981919957
 20
9.76712479501688
 30
0
 41
1
 42
1
 43
0
 50
0
 70
    1
 71
    1
 44
0
 45
0
  0
INSERT
  5
1EA
100
AcDbEntity
  8
3.1_yellow_manifold_layer
  6
ByLayer
 62
  256
370
   -1
100
AcDbBlockReference
  2
shimstock_chamber
 10
124.9859954186312
 20
77.26712319062361
 30
0
 41
-1
 42
1
 43
0
 50
0.01782835495240689
 70
    1
 71
    1
 44
0
 45
0
  0
INSERT
  5
1EB
100
AcDbEntity
  8
3.1_yellow_manifold_layer
  6
ByLayer
 62
  256
370
   -1
100
AcDbBlockReference
  2
shimstock_chamber
 10
124.9999980045709
 20
32.26712490466975
 30
0
 41
-1
 42
1
 43
0
 50
0.01782835495240689
 70
    1
 71
    1
 44
0
 45
0
  0
INSERT
  5
1EC
100
AcDbEntity
  8
3.1_yellow_manifold_layer
  6
ByLayer
 62
  256
370
   -1
100
AcDbBlockReference
  2
shimstock_chamber
 10
124.9579907046111
 20
167.2671188336012
 30
0
 41
-1
 42
1
 43
0
 50
0.01782835495240689
 70
    1
 71
    1
 44
0
 45
0
  0
INSERT
  5
1ED
100
AcDbEntity
  8
3.1_yellow_manifold_layer
  6
ByLayer
 62
  256
370
   -1
100
AcDbBlockReference
  2
shimstock_chamber
 10
124.9859947687617
 20
122.2727711985332
 30
0
 41
-1
 42
1
 43
0
 50
0.01782835495240689
 70
    1
 71
    1
 44
0
 45
0
  0
LWPOLYLINE
  5
1EE
100
AcDbEntity
  8
3.1_yellow_manifold_layer
  6
ByLayer
 62
  256
370
   -1
100
AcDbPolyline
 90
   16
 70
    0
 43
0
 10
152.5000002171677
 20
0
 10
250
 20
0
 10
250
 20
92.49999999999999
 10
250
 20
97.49999999999991
 10
250
 20
200
 10
152.5
 20
200
 10
152.4950124500106
 20
193.7450124500106
 10
97.49501245001059
 20
193.7450124500106
 10
97.49999999999993
 20
200
 10
0
 20
200
 10
0
 20
97.49999999999991
 10
0
 20
92.49999999999999
 10
0
 20
0
 10
97.49999999999993
 20
0
 10
97.49999999999993
 20
2.5
 10
152.5
 20
2.5
  0
INSERT
  5
1EF
100
AcDbEntity
  8
1.2_egress_slider_eighth
  6
ByLayer
 62
  256
370
   -1
100
AcDbBlockReference
  2
egress_slider_unit
 10
100.0000000575987
 20
146.232800334732
 30
0
 41
1
 42
1
 43
0
 50
0
 70
    1
 71
    1
 44
0
 45
0
  0
INSERT
  5
1F0
100
AcDbEntity
  8
1.2_egress_slider_eighth
  6
ByLayer
 62
  256
370
   -1
100
AcDbBlockReference
  2
egress_slider_unit
 10
100.0000000575987
 20
101.232800334732
 30
0
 41
1
 42
1
 43
0
 50
0
 70
    1
 71
    1
 44
0
 45
0
  0
INSERT
  5
1F1
100
AcDbEntity
  8
1.2_egress_slider_eighth
  6
ByLayer
 62
  256
370
   -1
100
AcDbBlockReference
  2
egress_slider_unit
 10
100.0000000575987
 20
56.23280033473205
 30
0
 41
1
 42
1
 43
0
 50
0
 70
    1
 71
    1
 44
0
 45
0
  0
INSERT
  5
1F2
100
AcDbEntity
  8
1.2_egress_slider_eighth
  6
ByLayer
 62
  256
370
   -1
100
AcDbBlockReference
  2
egress_slider_unit
 10
100.0000000575987
 20
11.23280033473208
 30
0
 41
1
 42
1
 43
0
 50
0
 70
    1
 71
    1
 44
0
 45
0
  0
INSERT
  5
1F3
100
AcDbEntity
  8
1.2_egress_slider_eighth
  6
ByLayer
 62
  256
370
   -1
100
AcDbBlockReference
  2
egress_slider_unit
 10
150.0022409753367
 20
168.7283741284157
 30
0
 41
-1
 42
1
 43
0
 50
359.989856337002
 70
    1
 71
    1
 44
0
 45
0
  0
INSERT
  5
1F4
100
AcDbEntity
  8
1.2_egress_slider_eighth
  6
ByLayer
 62
  256
370
   -1
100
AcDbBlockReference
  2
egress_slider_unit
 10
149.9942741610896
 20
123.7283748336395
 30
0
 41
-1
 42
1
 43
0
 50
359.989856337002
 70
    1
 71
    1
 44
0
 45
0
  0
INSERT
  5
1F5
100
AcDbEntity
  8
1.2_egress_slider_eighth
  6
ByLayer
 62
  256
370
   -1
100
AcDbBlockReference
  2
egress_slider_unit
 10
149.9863073468425
 20
78.7283755388632
 30
0
 41
-1
 42
1
 43
0
 50
359.989856337002
 70
    1
 71
    1
 44
0
 45
0
  0
INSERT
  5
1F6
100
AcDbEntity
  8
1.2_egress_slider_eighth
  6
ByLayer
 62
  256
370
   -1
100
AcDbBlockReference
  2
egress_slider_unit
 10
149.9783405325953
 20
33.72837624408687
 30
0
 41
-1
 42
1
 43
0
 50
359.989856337002
 70
    1
 71
    1
 44
0
 45
0
  0
INSERT
  5
1F7
100
AcDbEntity
  8
7_vacuum_trap_sliders
  6
ByLayer
 62
  256
370
   -1
100
AcDbBlockReference
  2
vactrap_slider
 10
92.44695440834874
 20
128.5939312565604
 30
0
 41
1
 42
1
 43
0
 50
0
 70
    1
 71
    1
 44
0
 45
0
  0
INSERT
  5
1F8
100
AcDbEntity
  8
7_vacuum_trap_sliders
  6
ByLayer
 62
  256
370
   -1
100
AcDbBlockReference
  2
vactrap_slider
 10
92.44748181669746
 20
83.59400751312083
 30
0
 41
1
 42
1
 43
0
 50
0
 70
    1
 71
    1
 44
0
 45
0
  0
INSERT
  5
1F9
100
AcDbEntity
  8
7_vacuum_trap_sliders
  6
ByLayer
 62
  256
370
   -1
100
AcDbBlockReference
  2
vactrap_slider
 10
92.44800922504618
 20
38.59408376968125
 30
0
 41
1
 42
1
 43
0
 50
0
 70
    1
 71
    1
 44
0
 45
0
  0
INSERT
  5
1FA
100
AcDbEntity
  8
7_vacuum_trap_sliders
  6
ByLayer
 62
  256
370
   -1
100
AcDbBlockReference
  2
vactrap_slider
 10
157.5493061037711
 20
196.0938950004722
 30
0
 41
-1
 42
1
 43
0
 50
1.129970368568391e-06
 70
    1
 71
    1
 44
0
 45
0
  0
INSERT
  5
1FB
100
AcDbEntity
  8
7_vacuum_trap_sliders
  6
ByLayer
 62
  256
370
   -1
100
AcDbBlockReference
  2
vactrap_slider
 10
157.5493077308118
 20
151.0938937702475
 30
0
 41
-1
 42
1
 43
0
 50
1.129970368568391e-06
 70
    1
 71
    1
 44
0
 45
0
  0
INSERT
  5
1FC
100
AcDbEntity
  8
7_vacuum_trap_sliders
  6
ByLayer
 62
  256
370
   -1
100
AcDbBlockReference
  2
vactrap_slider
 10
157.5487812099382
 20
106.0939700267975
 30
0
 41
-1
 42
1
 43
0
 50
1.129970368568391e-06
 70
    1
 71
    1
 44
0
 45
0
  0
INSERT
  5
1FD
100
AcDbEntity
  8
7_vacuum_trap_sliders
  6
ByLayer
 62
  256
370
   -1
100
AcDbBlockReference
  2
vactrap_slider
 10
157.5482546890647
 20
61.09404628334752
 30
0
 41
-1
 42
1
 43
0
 50
1.129970368568391e-06
 70
    1
 71
    1
 44
0
 45
0
  0
LWPOLYLINE
  5
1FE
100
AcDbEntity
  8
6.1_vacuum_trap_guides
  6
ByLayer
 62
    1
370
   -1
100
AcDbPolyline
 90
    4
 70
    1
 43
0
 10
85
 20
200
 10
165
 20
200
 10
165
 20
0
 10
85
 20
0
  0
INSERT
  5
1FF
100
AcDbEntity
  8
5_support_acrylic
  6
ByLayer
 62
  256
370
   -1
100
AcDbBlockReference
  2
support_plate_unit
 10
125.0120034645944
 20
116.7333541706728
 30
0
 41
1
 42
1
 43
0
 50
0
 70
    1
 71
    1
 44
0
 45
0
  0
INSERT
  5
200
100
AcDbEntity
  8
5_support_acrylic
  6
ByLayer
 62
  256
370
   -1
100
AcDbBlockReference
  2
support_plate_unit
 10
125.0260069291888
 20
71.72770834134562
 30
0
 41
1
 42
1
 43
0
 50
0
 70
    1
 71
    1
 44
0
 45
0
  0
INSERT
  5
201
100
AcDbEntity
  8
5_support_acrylic
  6
ByLayer
 62
  256
370
   -1
100
AcDbBlockReference
  2
support_plate_unit
 10
125.0400103937832
 20
26.72206251201843
 30
0
 41
1
 42
1
 43
0
 50
0
 70
    1
 71
    1
 44
0
 45
0
  0
INSERT
  5
202
100
AcDbEntity
  8
5_support_acrylic
  6
ByLayer
 62
  256
370
   -1
100
AcDbBlockReference
  2
support_plate_unit
 10
124.9114163972316
 20
184.233288530614
 30
0
 41
-1
 42
1
 43
0
 50
0.1167414720848019
 70
    1
 71
    1
 44
0
 45
0
  0
INSERT
  5
203
100
AcDbEntity
  8
5_support_acrylic
  6
ByLayer
 62
  256
370
   -1
100
AcDbBlockReference
  2
support_plate_unit
 10
124.9682444458214
 20
139.2229036950818
 30
0
 41
-1
 42
1
 43
0
 50
0.1167414720848019
 70
    1
 71
    1
 44
0
 45
0
  0
INSERT
  5
204
100
AcDbEntity
  8
5_support_acrylic
  6
ByLayer
 62
  256
370
   -1
100
AcDbBlockReference
  2
support_plate_unit
 10
125.0250724944112
 20
94.2125188595495
 30
0
 41
-1
 42
1
 43
0
 50
0.1167414720848019
 70
    1
 71
    1
 44
0
 45
0
  0
INSERT
  5
205
100
AcDbEntity
  8
5_support_acrylic
  6
ByLayer
 62
  256
370
   -1
100
AcDbBlockReference
  2
support_plate_unit
 10
125.081900543001
 20
49.20213402401725
 30
0
 41
-1
 42
1
 43
0
 50
0.1167414720848019
 70
    1
 71
    1
 44
0
 45
0
  0
INSERT
  5
206
100
AcDbEntity
  8
9_trap_bottomplate
  6
ByLayer
 62
  256
370
   -1
100
AcDbBlockReference
  2
sg90_servo_mount_holes
 10
86
 20
154
 30
0
 41
1
 42
1
 43
0
 50
180
 70
    1
 71
    1
 44
0
 45
0
  0
INSERT
  5
207
100
AcDbEntity
  8
sg90_servo_approx
  6
ByLayer
 62
  256
370
   -1
100
AcDbBlockReference
  2
sg90_servo_footprint
 10
86
 20
154
 30
0
 41
1
 42
1
 43
0
 50
180
 70
    1
 71
    1
 44
0
 45
0
  0
INSERT
  5
208
100
AcDbEntity
  8
9_trap_bottomplate
  6
ByLayer
 62
  256
370
   -1
100
AcDbBlockReference
  2
sg90_servo_mount_holes
 10
86.0140034645944
 20
108.9943541706728
 30
0
 41
1
 42
1
 43
0
 50
180
 70
    1
 71
    1
 44
0
 45
0
  0
INSERT
  5
209
100
AcDbEntity
  8
9_trap_bottomplate
  6
ByLayer
 62
  256
370
   -1
100
AcDbBlockReference
  2
sg90_servo_mount_holes
 10
86.02800692918879
 20
63.98870834134561
 30
0
 41
1
 42
1
 43
0
 50
180
 70
    1
 71
    1
 44
0
 45
0
  0
INSERT
  5
20A
100
AcDbEntity
  8
9_trap_bottomplate
  6
ByLayer
 62
  256
370
   -1
100
AcDbBlockReference
  2
sg90_servo_mount_holes
 10
86.04201039378319
 20
18.98306251201842
 30
0
 41
1
 42
1
 43
0
 50
180
 70
    1
 71
    1
 44
0
 45
0
  0
INSERT
  5
20B
100
AcDbEntity
  8
9_trap_bottomplate
  6
ByLayer
 62
  256
370
   -1
100
AcDbBlockReference
  2
sg90_servo_mount_holes
 10
163.9324693486894
 20
176.5428700839427
 30
0
 41
-1
 42
1
 43
0
 50
180.0713207130316
 70
    1
 71
    1
 44
0
 45
0
  0
INSERT
  5
20C
100
AcDbEntity
  8
9_trap_bottomplate
  6
ByLayer
 62
  256
370
   -1
100
AcDbBlockReference
  2
sg90_servo_mount_holes
 10
163.96047341284
 20
131.5485224488747
 30
0
 41
-1
 42
1
 43
0
 50
180.0713207130316
 70
    1
 71
    1
 44
0
 45
0
  0
INSERT
  5
20D
100
AcDbEntity
  8
9_trap_bottomplate
  6
ByLayer
 62
  256
370
   -1
100
AcDbBlockReference
  2
sg90_servo_mount_holes
 10
163.9884774769906
 20
86.55417481380672
 30
0
 41
-1
 42
1
 43
0
 50
180.0713207130316
 70
    1
 71
    1
 44
0
 45
0
  0
INSERT
  5
20E
100
AcDbEntity
  8
9_trap_bottomplate
  6
ByLayer
 62
  256
370
   -1
100
AcDbBlockReference
  2
sg90_servo_mount_holes
 10
164.0164815411412
 20
41.55982717873874
 30
0
 41
-1
 42
1
 43
0
 50
180.0713207130316
 70
    1
 71
    1
 44
0
 45
0
  0
LWPOLYLINE
  5
20F
100
AcDbEntity
  8
9_trap_bottomplate
  6
ByLayer
 62
    1
370
   -1
100
AcDbPolyline
 90
    8
 70
    1
 43
0
 10
61
 20
200
 10
189
 20
200
 42
-0.414213562373095
 10
190
 20
199
 10
190
 20
1
 42
-0.414213562373095
 10
189
 20
0
 10
61
 20
-2.220446049250313e-16
 42
-0.414213562373095
 10
60
 20
1
 10
60
 20
199
 42
-0.414213562373095
  0
CIRCLE
  5
210
100
AcDbEntity
  8
1.1_top_acrylic_manifold_sides
  6
ByLayer
 62
  256
370
   -1
100
AcDbCircle
 10
11.9645
 20
5.46447
 40
2.38
  0
CIRCLE
  5
211
100
AcDbEntity
  8
1.1_top_acrylic_manifold_sides
  6
ByLayer
 62
  256
370
   -1
100
AcDbCircle
 10
11.9645
 20
54.7855
 40
2.38
  0
CIRCLE
  5
212
100
AcDbEntity
  8
1.1_top_acrylic_manifold_sides
  6
ByLayer
 62
  256
370
   -1
100
AcDbCircle
 10
11.9645
 20
135.214
 40
2.38
  0
CIRCLE
  5
213
100
AcDbEntity
  8
1.1_top_acrylic_manifold_sides
  6
ByLayer
 62
  256
370
   -1
100
AcDbCircle
 10
11.9645
 20
184.214
 40
2.38
  0
CIRCLE
  5
214
100
AcDbEntity
  8
1.1_top_acrylic_manifold_sides
  6
ByLayer
 62
  256
370
   -1
100
AcDbCircle
 10
238.035
 20
184.214
 40
2.38
  0
CIRCLE
  5
215
100
AcDbEntity
  8
1.1_top_acrylic_manifold_sides
  6
ByLayer
 62
  256
370
   -1
100
AcDbCircle
 10
238.036
 20
135.214
 40
2.38
  0
CIRCLE
  5
216
100
AcDbEntity
  8
1.1_top_acrylic_manifold_sides
  6
ByLayer
 62
  256
370
   -1
100
AcDbCircle
 10
238.036
 20
54.7855
 40
2.38
  0
CIRCLE
  5
217
100
AcDbEntity
  8
1.1_top_acrylic_manifold_sides
  6
ByLayer
 62
  256
370
   -1
100
AcDbCircle
 10
238.035
 20
5.46447
 40
2.38
  0
LWPOLYLINE
  5
218
100
AcDbEntity
  8
1.2_egress_slider_eighth
  6
ByLayer
 62
  256
370
   -1
100
AcDbPolyline
 90
    4
 70
    1
 43
0
 10
140
 20
195.5
 10
110
 20
195.5
 42
-0.9999999999999999
 10
110
 20
198.5
 10
140
 20
198.5
 42
-0.9999999999999999
  0
CIRCLE
  5
219
100
AcDbEntity
  8
5_support_acrylic
  6
ByLayer
 62
  256
370
   -1
100
AcDbCircle
 10
99.75
 20
220
 40
1.7272
  0
CIRCLE
  5
21A
100
AcDbEntity
  8
5_support_acrylic
  6
ByLayer
 62
  256
370
   -1
100
AcDbCircle
 10
99.75
 20
210
 40
1.7272
  0
CIRCLE
  5
21B
100
AcDbEntity
  8
5_support_acrylic
  6
ByLayer
 62
  256
370
   -1
100
AcDbCircle
 10
150.25
 20
220
 40
1.7272
  0
CIRCLE
  5
21C
100
AcDbEntity
  8
5_support_acrylic
  6
ByLayer
 62
  256
370
   -1
100
AcDbCircle
 10
150.25
 20
210
 40
1.7272
  0
CIRCLE
  5
21D
100
AcDbEntity
  8
5_support_acrylic
  6
ByLayer
 62
  256
370
   -1
100
AcDbCircle
 10
134.0772
 20
215
 40
8
  0
LINE
  5
21E
100
AcDbEntity
  8
5_support_acrylic
  6
ByLayer
 62
  256
370
   -1
100
AcDbLine
 10
85.0000000717812
 20
200
 11
85.00000000287125
 21
223.9999999971288
  0
ARC
  5
21F
100
AcDbEntity
  8
5_support_acrylic
  6
ByLayer
 62
  256
370
   -1
100
AcDbCircle
 10
86.00000000287126
 20
224
 40
1
100
AcDbArc
 50
90
 51
180.0000001645103
  0
ARC
  5
220
100
AcDbEntity
  8
5_support_acrylic
  6
ByLayer
 62
  256
370
   -1
100
AcDbCircle
 10
164.0000000028712
 20
224
 40
1
100
AcDbArc
 50
1.645102978997703e-07
 51
90
  0
LINE
  5
221
100
AcDbEntity
  8
5_support_acrylic
  6
ByLayer
 62
  256
370
   -1
100
AcDbLine
 10
165.0000000028712
 20
223.999997305473
 11
165.0000000717812
 21
200
  0
LINE
  5
222
100
AcDbEntity
  8
5_support_acrylic
  6
ByLayer
 62
  256
370
   -1
100
AcDbLine
 10
85.99999618817401
 20
225
 11
163.9999946080748
 21
225
  0
CIRCLE
  5
223
100
AcDbEntity
  8
5_support_acrylic
  6
ByLayer
 62
    1
370
   -1
100
AcDbCircle
 10
94.40000066398296
 20
95.46450009853309
 40
1.714499999999999
  0
CIRCLE
  5
224
100
AcDbEntity
  8
5_support_acrylic
  6
ByLayer
 62
    1
370
   -1
100
AcDbCircle
 10
94.40000066398296
 20
49.96449922521884
 40
1.714499999999999
  0
CIRCLE
  5
225
100
AcDbEntity
  8
5_support_acrylic
  6
ByLayer
 62
    1
370
   -1
100
AcDbCircle
 10
94.40000066398296
 20
5.46449982672317
 40
1.714499999999999
  0
CIRCLE
  5
226
100
AcDbEntity
  8
5_support_acrylic
  6
ByLayer
 62
    1
370
   -1
100
AcDbCircle
 10
155.600000663983
 20
162.214499378591
 40
1.714499999999999
  0
CIRCLE
  5
227
100
AcDbEntity
  8
5_support_acrylic
  6
ByLayer
 62
    1
370
   -1
100
AcDbCircle
 10
155.600000663983
 20
117.7144999800953
 40
1.714499999999999
  0
CIRCLE
  5
228
100
AcDbEntity
  8
5_support_acrylic
  6
ByLayer
 62
    1
370
   -1
100
AcDbCircle
 10
155.600000663983
 20
72.21449910678103
 40
1.714499999999999
  0
CIRCLE
  5
229
100
AcDbEntity
  8
5_support_acrylic
  6
ByLayer
 62
    1
370
   -1
100
AcDbCircle
 10
155.600000663983
 20
27.71449970828536
 40
1.714499999999999
  0
CIRCLE
  5
22A
100
AcDbEntity
  8
5_support_acrylic
  6
ByLayer
 62
    1
370
   -1
100
AcDbCircle
 10
155.600000663983
 20
5.46449982672317
 40
1.714499999999999
  0
CIRCLE
  5
22B
100
AcDbEntity
  8
6.1_vacuum_trap_guides
  6
ByLayer
 62
    1
370
   -1
100
AcDbCircle
 10
94.40000000000001
 20
184.215
 40
2.1526
  0
CIRCLE
  5
22C
100
AcDbEntity
  8
6.1_vacuum_trap_guides
  6
ByLayer
 62
    1
370
   -1
100
AcDbCircle
 10
94.40000000000001
 20
139.964
 40
2.1526
  0
CIRCLE
  5
22D
100
AcDbEntity
  8
6.1_vacuum_trap_guides
  6
ByLayer
 62
    1
370
   -1
100
AcDbCircle
 10
94.40000000000001
 20
95.4645
 40
2.1526
  0
CIRCLE
  5
22E
100
AcDbEntity
  8
6.1_vacuum_trap_guides
  6
ByLayer
 62
    1
370
   -1
100
AcDbCircle
 10
94.40000000000001
 20
49.9645
 40
2.1526
  0
CIRCLE
  5
22F
100
AcDbEntity
  8
6.1_vacuum_trap_guides
  6
ByLayer
 62
    1
370
   -1
100
AcDbCircle
 10
94.40000000000001
 20
5.4645
 40
2.1526
  0
CIRCLE
  5
230
100
AcDbEntity
  8
6.1_vacuum_trap_guides
  6
ByLayer
 62
    1
370
   -1
100
AcDbCircle
 10
155.6
 20
5.4645
 40
2.1526
  0
CIRCLE
  5
231
100
AcDbEntity
  8
6.1_vacuum_trap_guides
  6
ByLayer
 62
    1
370
   -1
100
AcDbCircle
 10
155.6
 20
72.2145
 40
2.1526
  0
CIRCLE
  5
232
100
AcDbEntity
  8
6.1_vacuum_trap_guides
  6
ByLayer
 62
    1
370
   -1
100
AcDbCircle
 10
155.6
 20
27.7145
 40
2.1526
  0
CIRCLE
  5
233
100
AcDbEntity
  8
6.1_vacuum_trap_guides
  6
ByLayer
 62
    1
370
   -1
100
AcDbCircle
 10
155.6
 20
117.714
 40
2.1526
  0
CIRCLE
  5
234
100
AcDbEntity
  8
6.1_vacuum_trap_guides
  6
ByLayer
 62
    1
370
   -1
100
AcDbCircle
 10
155.6
 20
162.214
 40
2.1526
  0
CIRCLE
  5
235
100
AcDbEntity
  8
9_trap_bottomplate
  6
ByLayer
 62
    1
370
   -1
100
AcDbCircle
 10
94.40000000000001
 20
184.215
 40
2.1526
  0
CIRCLE
  5
236
100
AcDbEntity
  8
9_trap_bottomplate
  6
ByLayer
 62
    1
370
   -1
100
AcDbCircle
 10
94.40000000000001
 20
139.964
 40
2.1526
  0
CIRCLE
  5
237
100
AcDbEntity
  8
9_trap_bottomplate
  6
ByLayer
 62
    1
370
   -1
100
AcDbCircle
 10
94.40000000000001
 20
95.4645
 40
2.1526
  0
CIRCLE
  5
238
100
AcDbEntity
  8
9_trap_bottomplate
  6
ByLayer
 62
    1
370
   -1
100
AcDbCircle
 10
94.40000000000001
 20
49.9645
 40
2.1526
  0
CIRCLE
  5
239
100
AcDbEntity
  8
9_trap_bottomplate
  6
ByLayer
 62
    1
370
   -1
100
AcDbCircle
 10
94.40000000000001
 20
5.4645
 40
2.1526
  0
CIRCLE
  5
23A
100
AcDbEntity
  8
9_trap_bottomplate
  6
ByLayer
 62
    1
370
   -1
100
AcDbCircle
 10
155.6
 20
5.4645
 40
2.1526
  0
CIRCLE
  5
23B
100
AcDbEntity
  8
9_trap_bottomplate
  6
ByLayer
 62
    1
370
   -1
100
AcDbCircle
 10
155.6
 20
27.7145
 40
2.1526
  0
CIRCLE
  5
23C
100
AcDbEntity
  8
9_trap_bottomplate
  6
ByLayer
 62
    1
370
   -1
100
AcDbCircle
 10
155.6
 20
72.2145
 40
2.1526
  0
CIRCLE
  5
23D
100
AcDbEntity
  8
9_trap_bottomplate
  6
ByLayer
 62
    1
370
   -1
100
AcDbCircle
 10
155.6
 20
117.714
 40
2.1526
  0
CIRCLE
  5
23E
100
AcDbEntity
  8
9_trap_bottomplate
  6
ByLayer
 62
    1
370
   -1
100
AcDbCircle
 10
155.6
 20
162.214
 40
2.1526
  0
CIRCLE
  5
23F
100
AcDbEntity
  8
3.1_yellow_manifold_layer
  6
ByLayer
 62
  256
370
   -1
100
AcDbCircle
 10
94.40000000000001
 20
5.4645
 40
2.1526
  0
CIRCLE
  5
240
100
AcDbEntity
  8
3.1_yellow_manifold_layer
  6
ByLayer
 62
  256
370
   -1
100
AcDbCircle
 10
155.6
 20
5.4645
 40
2.1526
  0
CIRCLE
  5
241
100
AcDbEntity
  8
3.1_yellow_manifold_layer
  6
ByLayer
 62
  256
370
   -1
100
AcDbCircle
 10
11.9645
 20
184.214
 40
2.4
  0
CIRCLE
  5
242
100
AcDbEntity
  8
3.1_yellow_manifold_layer
  6
ByLayer
 62
  256
370
   -1
100
AcDbCircle
 10
11.9645
 20
135.214
 40
2.4
  0
CIRCLE
  5
243
100
AcDbEntity
  8
3.1_yellow_manifold_layer
  6
ByLayer
 62
  256
370
   -1
100
AcDbCircle
 10
11.9645
 20
54.7855
 40
2.4
  0
CIRCLE
  5
244
100
AcDbEntity
  8
3.1_yellow_manifold_layer
  6
ByLayer
 62
  256
370
   -1
100
AcDbCircle
 10
11.9645
 20
5.46447
 40
2.4
  0
CIRCLE
  5
245
100
AcDbEntity
  8
3.1_yellow_manifold_layer
  6
ByLayer
 62
  256
370
   -1
100
AcDbCircle
 10
238.035
 20
5.46447
 40
2.4
  0
CIRCLE
  5
246
100
AcDbEntity
  8
3.1_yellow_manifold_layer
  6
ByLayer
 62
  256
370
   -1
100
AcDbCircle
 10
238.036
 20
54.7855
 40
2.4
  0
CIRCLE
  5
247
100
AcDbEntity
  8
3.1_yellow_manifold_layer
  6
ByLayer
 62
  256
370
   -1
100
AcDbCircle
 10
238.036
 20
135.214
 40
2.4
  0
CIRCLE
  5
248
100
AcDbEntity
  8
3.1_yellow_manifold_layer
  6
ByLayer
 62
  256
370
   -1
100
AcDbCircle
 10
238.035
 20
184.214
 40
2.4
  0
CIRCLE
  5
249
100
AcDbEntity
  8
2.1_delrin_chambers_and_manifold
  6
ByLayer
 62
  256
370
   -1
100
AcDbCircle
 10
238.031
 20
184.209
 40
2.4
  0
CIRCLE
  5
24A
100
AcDbEntity
  8
2.1_delrin_chambers_and_manifold
  6
ByLayer
 62
  256
370
   -1
100
AcDbCircle
 10
238.031
 20
54.7805
 40
2.4
  0
CIRCLE
  5
24B
100
AcDbEntity
  8
2.1_delrin_chambers_and_manifold
  6
ByLayer
 62
  256
370
   -1
100
AcDbCircle
 10
238.031
 20
135.21
 40
2.4
  0
CIRCLE
  5
24C
100
AcDbEntity
  8
2.1_delrin_chambers_and_manifold
  6
ByLayer
 62
  256
370
   -1
100
AcDbCircle
 10
237.014
 20
95.01430000000001
 40
2.0193
  0
CIRCLE
  5
24D
100
AcDbEntity
  8
2.1_delrin_chambers_and_manifold
  6
ByLayer
 62
  256
370
   -1
100
AcDbCircle
 10
238.031
 20
5.45949
 40
2.4
  0
CIRCLE
  5
24E
100
AcDbEntity
  8
2.1_delrin_chambers_and_manifold
  6
ByLayer
 62
  256
370
   -1
100
AcDbCircle
 10
11.9595
 20
5.45949
 40
2.4
  0
CIRCLE
  5
24F
100
AcDbEntity
  8
2.1_delrin_chambers_and_manifold
  6
ByLayer
 62
  256
370
   -1
100
AcDbCircle
 10
11.9595
 20
54.7805
 40
2.4
  0
CIRCLE
  5
250
100
AcDbEntity
  8
2.1_delrin_chambers_and_manifold
  6
ByLayer
 62
  256
370
   -1
100
AcDbCircle
 10
11.9595
 20
135.21
 40
2.4
  0
CIRCLE
  5
251
100
AcDbEntity
  8
2.1_delrin_chambers_and_manifold
  6
ByLayer
 62
  256
370
   -1
100
AcDbCircle
 10
11.9595
 20
184.209
 40
2.4
  0
INSERT
  5
252
100
AcDbEntity
  8
3.1_yellow_manifold_layer
  6
ByLayer
 62
  256
370
   -1
100
AcDbBlockReference
  2
shimstock_chamber
 10
124.9859947274013
 20
144.772770624344
 30
0
 41
1
 42
1
 43
0
 50
0
 70
    1
 71
    1
 44
0
 45
0
  0
INSERT
  5
253
100
AcDbEntity
  8
2.1_delrin_chambers_and_manifold
  6
ByLayer
 62
  256
370
   -1
100
AcDbBlockReference
  2
delrin_chamber
 10
124.9980004437383
 20
184.239001358505
 30
0
 41
1
 42
1
 43
0
 50
0
 70
    1
 71
    1
 44
0
 45
0
  0
INSERT
  5
254
100
AcDbEntity
  8
2.1_delrin_chambers_and_manifold
  6
ByLayer
 62
  256
370
   -1
100
AcDbBlockReference
  2
delrin_chamber
 10
124.9979997041744
 20
139.2390001282802
 30
0
 41
1
 42
1
 43
0
 50
0
 70
    1
 71
    1
 44
0
 45
0
  0
INSERT
  5
255
100
AcDbEntity
  8
2.1_delrin_chambers_and_manifold
  6
ByLayer
 62
  256
370
   -1
100
AcDbBlockReference
  2
delrin_chamber
 10
124.9979989646105
 20
94.2389988980554
 30
0
 41
1
 42
1
 43
0
 50
0
 70
    1
 71
    1
 44
0
 45
0
  0
INSERT
  5
256
100
AcDbEntity
  8
2.1_delrin_chambers_and_manifold
  6
ByLayer
 62
  256
370
   -1
100
AcDbBlockReference
  2
delrin_chamber
 10
124.9979982250466
 20
49.2389976678306
 30
0
 41
1
 42
1
 43
0
 50
0
 70
    1
 71
    1
 44
0
 45
0
  0
INSERT
  5
257
100
AcDbEntity
  8
2.1_delrin_chambers_and_manifold
  6
ByLayer
 62
  256
370
   -1
100
AcDbBlockReference
  2
delrin_chamber
 10
124.998
 20
161.739
 30
0
 41
-1
 42
1
 43
0
 50
359.9999977400595
 70
    1
 71
    1
 44
0
 45
0
  0
INSERT
  5
258
100
AcDbEntity
  8
2.1_delrin_chambers_and_manifold
  6
ByLayer
 62
  256
370
   -1
100
AcDbBlockReference
  2
delrin_chamber
 10
124.9979995562616
 20
116.7389987697752
 30
0
 41
-1
 42
1
 43
0
 50
359.9999977400595
 70
    1
 71
    1
 44
0
 45
0
  0
INSERT
  5
259
100
AcDbEntity
  8
2.1_delrin_chambers_and_manifold
  6
ByLayer
 62
  256
370
   -1
100
AcDbBlockReference
  2
delrin_chamber
 10
124.9979991125232
 20
71.73899753955038
 30
0
 41
-1
 42
1
 43
0
 50
359.9999977400595
 70
    1
 71
    1
 44
0
 45
0
  0
INSERT
  5
25A
100
AcDbEntity
  8
2.1_delrin_chambers_and_manifold
  6
ByLayer
 62
  256
370
   -1
100
AcDbBlockReference
  2
delrin_chamber
 10
124.9979986687848
 20
26.73899630932559
 30
0
 41
-1
 42
1
 43
0
 50
359.9999977400595
 70
    1
 71
    1
 44
0
 45
0
  0
CIRCLE
  5
25B
100
AcDbEntity
  8
1.1_top_acrylic_manifold_sides
  6
ByLayer
 62
  256
370
   -1
100
AcDbCircle
 10
21.7145
 20
101.714
 40
3.1115
  0
CIRCLE
  5
25C
100
AcDbEntity
  8
1.1_top_acrylic_manifold_sides
  6
ByLayer
 62
  256
370
   -1
100
AcDbCircle
 10
53.7145
 20
133.214
 40
3.1115
  0
CIRCLE
  5
25D
100
AcDbEntity
  8
1.1_top_acrylic_manifold_sides
  6
ByLayer
 62
  256
370
   -1
100
AcDbCircle
 10
53.7145
 20
146.714
 40
3.1115
  0
CIRCLE
  5
25E
100
AcDbEntity
  8
1.1_top_acrylic_manifold_sides
  6
ByLayer
 62
  256
370
   -1
100
AcDbCircle
 10
53.7145
 20
56.7145
 40
3.1115
  0
CIRCLE
  5
25F
100
AcDbEntity
  8
1.1_top_acrylic_manifold_sides
  6
ByLayer
 62
  256
370
   -1
100
AcDbCircle
 10
80
 20
5.4645
 40
3.1115
  0
CIRCLE
  5
260
100
AcDbEntity
  8
1.1_top_acrylic_manifold_sides
  6
ByLayer
 62
  256
370
   -1
100
AcDbCircle
 10
80
 20
27.7145
 40
3.1115
  0
CIRCLE
  5
261
100
AcDbEntity
  8
1.1_top_acrylic_manifold_sides
  6
ByLayer
 62
  256
370
   -1
100
AcDbCircle
 10
80
 20
49.9645
 40
3.1115
  0
CIRCLE
  5
262
100
AcDbEntity
  8
1.1_top_acrylic_manifold_sides
  6
ByLayer
 62
  256
370
   -1
100
AcDbCircle
 10
80
 20
72.2145
 40
3.1115
  0
CIRCLE
  5
263
100
AcDbEntity
  8
1.1_top_acrylic_manifold_sides
  6
ByLayer
 62
  256
370
   -1
100
AcDbCircle
 10
80
 20
139.964
 40
3.1115
  0
CIRCLE
  5
264
100
AcDbEntity
  8
1.1_top_acrylic_manifold_sides
  6
ByLayer
 62
  256
370
   -1
100
AcDbCircle
 10
80
 20
117.714
 40
3.1115
  0
CIRCLE
  5
265
100
AcDbEntity
  8
1.1_top_acrylic_manifold_sides
  6
ByLayer
 62
  256
370
   -1
100
AcDbCircle
 10
80
 20
162.214
 40
3.1115
  0
CIRCLE
  5
266
100
AcDbEntity
  8
1.1_top_acrylic_manifold_sides
  6
ByLayer
 62
  256
370
   -1
100
AcDbCircle
 10
80
 20
184.215
 40
3.1115
  0
CIRCLE
  5
267
100
AcDbEntity
  8
1.1_top_acrylic_manifold_sides
  6
ByLayer
 62
  256
370
   -1
100
AcDbCircle
 10
170
 20
184.215
 40
3.1115
  0
CIRCLE
  5
268
100
AcDbEntity
  8
1.1_top_acrylic_manifold_sides
  6
ByLayer
 62
  256
370
   -1
100
AcDbCircle
 10
170
 20
162.214
 40
3.1115
  0
CIRCLE
  5
269
100
AcDbEntity
  8
1.1_top_acrylic_manifold_sides
  6
ByLayer
 62
  256
370
   -1
100
AcDbCircle
 10
170
 20
139.964
 40
3.1115
  0
CIRCLE
  5
26A
100
AcDbEntity
  8
1.1_top_acrylic_manifold_sides
  6
ByLayer
 62
  256
370
   -1
100
AcDbCircle
 10
170
 20
117.714
 40
3.1115
  0
CIRCLE
  5
26B
100
AcDbEntity
  8
1.1_top_acrylic_manifold_sides
  6
ByLayer
 62
  256
370
   -1
100
AcDbCircle
 10
170
 20
95.4645
 40
3.1115
  0
CIRCLE
  5
26C
100
AcDbEntity
  8
1.1_top_acrylic_manifold_sides
  6
ByLayer
 62
  256
370
   -1
100
AcDbCircle
 10
170
 20
72.2145
 40
3.1115
  0
CIRCLE
  5
26D
100
AcDbEntity
  8
1.1_top_acrylic_manifold_sides
  6
ByLayer
 62
  256
370
   -1
100
AcDbCircle
 10
170
 20
49.9645
 40
3.1115
  0
CIRCLE
  5
26E
100
AcDbEntity
  8
1.1_top_acrylic_manifold_sides
  6
ByLayer
 62
  256
370
   -1
100
AcDbCircle
 10
170
 20
27.7145
 40
3.1115
  0
CIRCLE
  5
26F
100
AcDbEntity
  8
1.1_top_acrylic_manifold_sides
  6
ByLayer
 62
  256
370
   -1
100
AcDbCircle
 10
170
 20
5.4645
 40
3.1115
  0
CIRCLE
  5
270
100
AcDbEntity
  8
1.1_top_acrylic_manifold_sides
  6
ByLayer
 62
  256
370
   -1
100
AcDbCircle
 10
196.285
 20
146.714
 40
3.1115
  0
CIRCLE
  5
271
100
AcDbEntity
  8
1.1_top_acrylic_manifold_sides
  6
ByLayer
 62
  256
370
   -1
100
AcDbCircle
 10
196.285
 20
133.214
 40
3.1115
  0
CIRCLE
  5
272
100
AcDbEntity
  8
1.1_top_acrylic_manifold_sides
  6
ByLayer
 62
  256
370
   -1
100
AcDbCircle
 10
196.285
 20
56.7145
 40
3.1115
  0
CIRCLE
  5
273
100
AcDbEntity
  8
1.1_top_acrylic_manifold_sides
  6
ByLayer
 62
  256
370
   -1
100
AcDbCircle
 10
196.285
 20
43.2145
 40
3.1115
  0
CIRCLE
  5
274
100
AcDbEntity
  8
1.1_top_acrylic_manifold_sides
  6
ByLayer
 62
  256
370
   -1
100
AcDbCircle
 10
212.285
 20
94.9645
 40
3.1115
  0
CIRCLE
  5
275
100
AcDbEntity
  8
1.1_top_acrylic_manifold_sides
  6
ByLayer
 62
  256
370
   -1
100
AcDbCircle
 10
228.285
 20
101.714
 40
3.1115
  0
CIRCLE
  5
276
100
AcDbEntity
  8
1.1_top_acrylic_manifold_sides
  6
ByLayer
 62
  256
370
   -1
100
AcDbCircle
 10
228.285
 20
88.2145
 40
3.1115
  0
CIRCLE
  5
277
100
AcDbEntity
  8
1.1_top_acrylic_manifold_sides
  6
ByLayer
 62
  256
370
   -1
100
AcDbCircle
 10
37.7145
 20
94.9645
 40
3.1115
  0
CIRCLE
  5
278
100
AcDbEntity
  8
1.1_top_acrylic_manifold_sides
  6
ByLayer
 62
  256
370
   -1
100
AcDbCircle
 10
80
 20
95.4645
 40
3.1115
  0
CIRCLE
  5
279
100
AcDbEntity
  8
1.1_top_acrylic_manifold_sides
  6
ByLayer
 62
  256
370
   -1
100
AcDbCircle
 10
53.7145
 20
43.2145
 40
3.1115
  0
CIRCLE
  5
27A
100
AcDbEntity
  8
1.1_top_acrylic_manifold_sides
  6
ByLayer
 62
  256
370
   -1
100
AcDbCircle
 10
21.7145
 20
88.2145
 40
3.1115
  0
INSERT
  5
27B
100
AcDbEntity
  8
6.1_vacuum_trap_guides
  6
ByLayer
 62
  256
370
   -1
100
AcDbBlockReference
  2
vactrap_guide
 10
107.2906933719046
 20
165.4429791516269
 30
0
 41
1
 42
1
 43
0
 50
0
 70
    1
 71
    1
 44
0
 45
0
  0
INSERT
  5
27C
100
AcDbEntity
  8
6.1_vacuum_trap_guides
  6
ByLayer
 62
  256
370
   -1
100
AcDbBlockReference
  2
vactrap_guide
 10
107.304696836499
 20
120.4373333222997
 30
0
 41
1
 42
1
 43
0
 50
0
 70
    1
 71
    1
 44
0
 45
0
  0
INSERT
  5
27D
100
AcDbEntity
  8
6.1_vacuum_trap_guides
  6
ByLayer
 62
  256
370
   -1
100
AcDbBlockReference
  2
vactrap_guide
 10
107.3187003010934
 20
75.43168749297249
 30
0
 41
1
 42
1
 43
0
 50
0
 70
    1
 71
    1
 44
0
 45
0
  0
INSERT
  5
27E
100
AcDbEntity
  8
6.1_vacuum_trap_guides
  6
ByLayer
 62
  256
370
   -1
100
AcDbBlockReference
  2
vactrap_guide
 10
107.3327037656878
 20
30.42604166364526
 30
0
 41
1
 42
1
 43
0
 50
0
 70
    1
 71
    1
 44
0
 45
0
  0
INSERT
  5
27F
100
AcDbEntity
  8
6.1_vacuum_trap_guides
  6
ByLayer
 62
  256
370
   -1
100
AcDbBlockReference
  2
vactrap_guide
 10
142.7053036978196
 20
187.9429817905988
 30
0
 41
-1
 42
1
 43
0
 50
4.143224973121057e-06
 70
    1
 71
    1
 44
0
 45
0
  0
INSERT
  5
280
100
AcDbEntity
  8
6.1_vacuum_trap_guides
  6
ByLayer
 62
  256
370
   -1
100
AcDbBlockReference
  2
vactrap_guide
 10
142.7053053248603
 20
142.9429805603741
 30
0
 41
-1
 42
1
 43
0
 50
4.143224973121057e-06
 70
    1
 71
    1
 44
0
 45
0
  0
INSERT
  5
281
100
AcDbEntity
  8
6.1_vacuum_trap_guides
  6
ByLayer
 62
  256
370
   -1
100
AcDbBlockReference
  2
vactrap_guide
 10
142.705306951901
 20
97.94297933014946
 30
0
 41
-1
 42
1
 43
0
 50
4.143224973121057e-06
 70
    1
 71
    1
 44
0
 45
0
  0
INSERT
  5
282
100
AcDbEntity
  8
6.1_vacuum_trap_guides
  6
ByLayer
 62
  256
370
   -1
100
AcDbBlockReference
  2
vactrap_guide
 10
142.7053085789417
 20
52.94297809992477
 30
0
 41
-1
 42
1
 43
0
 50
4.143224973121057e-06
 70
    1
 71
    1
 44
0
 45
0
  0
INSERT
  5
283
100
AcDbEntity
  8
6.2_vacuum_trap_tops
  6
ByLayer
 62
  256
370
   -1
100
AcDbBlockReference
  2
vacuum_trap_top
 10
114.8200953375698
 20
175.4757763585049
 30
0
 41
1
 42
1
 43
0
 50
0
 70
    1
 71
    1
 44
0
 45
0
  0
INSERT
  5
284
100
AcDbEntity
  8
6.2_vacuum_trap_tops
  6
ByLayer
 62
  256
370
   -1
100
AcDbBlockReference
  2
vacuum_trap_top
 10
135.175902
 20
152.975775
 30
0
 41
-1
 42
1
 43
0
 50
0
 70
    1
 71
    1
 44
0
 45
0
  0
INSERT
  5
285
100
AcDbEntity
  8
6.2_vacuum_trap_tops
  6
ByLayer
 62
  256
370
   -1
100
AcDbBlockReference
  2
vacuum_trap_top
 10
135.1761654083487
 20
107.9758132565604
 30
0
 41
-1
 42
1
 43
0
 50
0
 70
    1
 71
    1
 44
0
 45
0
  0
INSERT
  5
286
100
AcDbEntity
  8
6.2_vacuum_trap_tops
  6
ByLayer
 62
  256
370
   -1
100
AcDbBlockReference
  2
vacuum_trap_top
 10
135.1764288166974
 20
62.9758515131208
 30
0
 41
-1
 42
1
 43
0
 50
0
 70
    1
 71
    1
 44
0
 45
0
  0
INSERT
  5
287
100
AcDbEntity
  8
6.2_vacuum_trap_tops
  6
ByLayer
 62
  256
370
   -1
100
AcDbBlockReference
  2
vacuum_trap_top
 10
135.176692225046
 20
17.9758897696812
 30
0
 41
-1
 42
1
 43
0
 50
0
 70
    1
 71
    1
 44
0
 45
0
  0
INSERT
  5
288
100
AcDbEntity
  8
6.2_vacuum_trap_tops
  6
ByLayer
 62
  256
370
   -1
100
AcDbBlockReference
  2
vacuum_trap_top
 10
114.8200969646105
 20
130.4757751282802
 30
0
 41
1
 42
1
 43
0
 50
0
 70
    1
 71
    1
 44
0
 45
0
  0
INSERT
  5
289
100
AcDbEntity
  8
6.2_vacuum_trap_tops
  6
ByLayer
 62
  256
370
   -1
100
AcDbBlockReference
  2
vacuum_trap_top
 10
114.8200985916512
 20
85.47577389805554
 30
0
 41
1
 42
1
 43
0
 50
0
 70
    1
 71
    1
 44
0
 45
0
  0
INSERT
  5
28A
100
AcDbEntity
  8
6.2_vacuum_trap_tops
  6
ByLayer
 62
  256
370
   -1
100
AcDbBlockReference
  2
vacuum_trap_top
 10
114.8201002186919
 20
40.47577266783085
 30
0
 41
1
 42
1
 43
0
 50
0
 70
    1
 71
    1
 44
0
 45
0
  0
INSERT
  5
28B
100
AcDbEntity
  8
8_flow_regulator_retainers
  6
ByLayer
 62
  256
370
   -1
100
AcDbBlockReference
  2
vactrap_regulator_retainer
 10
124.9982634083487
 20
116.7390382565604
 30
0
 41
1
 42
1
 43
0
 50
0
 70
    1
 71
    1
 44
0
 45
0
  0
INSERT
  5
28C
100
AcDbEntity
  8
8_flow_regulator_retainers
  6
ByLayer
 62
  256
370
   -1
100
AcDbBlockReference
  2
vactrap_regulator_retainer
 10
124.9987908166974
 20
71.73911451312082
 30
0
 41
1
 42
1
 43
0
 50
0
 70
    1
 71
    1
 44
0
 45
0
  0
INSERT
  5
28D
100
AcDbEntity
  8
8_flow_regulator_retainers
  6
ByLayer
 62
  256
370
   -1
100
AcDbBlockReference
  2
vactrap_regulator_retainer
 10
124.9993182250461
 20
26.73919076968124
 30
0
 41
1
 42
1
 43
0
 50
0
 70
    1
 71
    1
 44
0
 45
0
  0
INSERT
  5
28E
100
AcDbEntity
  8
8_flow_regulator_retainers
  6
ByLayer
 62
  256
370
   -1
100
AcDbBlockReference
  2
vactrap_regulator_retainer
 10
124.9979973375698
 20
184.2390013585049
 30
0
 41
-1
 42
1
 43
0
 50
4.143225024009932e-06
 70
    1
 71
    1
 44
0
 45
0
  0
INSERT
  5
28F
100
AcDbEntity
  8
8_flow_regulator_retainers
  6
ByLayer
 62
  256
370
   -1
100
AcDbBlockReference
  2
vactrap_regulator_retainer
 10
124.9979989646105
 20
139.2390001282802
 30
0
 41
-1
 42
1
 43
0
 50
4.143225024009932e-06
 70
    1
 71
    1
 44
0
 45
0
  0
INSERT
  5
290
100
AcDbEntity
  8
8_flow_regulator_retainers
  6
ByLayer
 62
  256
370
   -1
100
AcDbBlockReference
  2
vactrap_regulator_retainer
 10
124.9980005916512
 20
94.23899889805554
 30
0
 41
-1
 42
1
 43
0
 50
4.143225024009932e-06
 70
    1
 71
    1
 44
0
 45
0
  0
INSERT
  5
291
100
AcDbEntity
  8
8_flow_regulator_retainers
  6
ByLayer
 62
  256
370
   -1
100
AcDbBlockReference
  2
vactrap_regulator_retainer
 10
124.9980022186919
 20
49.23899766783086
 30
0
 41
-1
 42
1
 43
0
 50
4.143225024009932e-06
 70
    1
 71
    1
 44
0
 45
0
  0
CIRCLE
  5
292
100
AcDbEntity
  8
3.1_yellow_manifold_layer
  6
ByLayer
 62
  256
370
   -1
100
AcDbCircle
 10
94.40000000000001
 20
184.215
 40
3.25
  0
CIRCLE
  5
293
100
AcDbEntity
  8
3.1_yellow_manifold_layer
  6
ByLayer
 62
  256
370
   -1
100
AcDbCircle
 10
94.40000000000001
 20
139.964
 40
3.25
  0
CIRCLE
  5
294
100
AcDbEntity
  8
3.1_yellow_manifold_layer
  6
ByLayer
 62
  256
370
   -1
100
AcDbCircle
 10
94.40000000000001
 20
95.4645
 40
3.25
  0
CIRCLE
  5
295
100
AcDbEntity
  8
3.1_yellow_manifold_layer
  6
ByLayer
 62
  256
370
   -1
100
AcDbCircle
 10
94.40000000000001
 20
49.9645
 40
3.25
  0
CIRCLE
  5
296
100
AcDbEntity
  8
3.1_yellow_manifold_layer
  6
ByLayer
 62
  256
370
   -1
100
AcDbCircle
 10
155.6
 20
27.7145
 40
3.25
  0
CIRCLE
  5
297
100
AcDbEntity
  8
3.1_yellow_manifold_layer
  6
ByLayer
 62
  256
370
   -1
100
AcDbCircle
 10
155.6
 20
72.2145
 40
3.25
  0
CIRCLE
  5
298
100
AcDbEntity
  8
3.1_yellow_manifold_layer
  6
ByLayer
 62
  256
370
   -1
100
AcDbCircle
 10
155.6
 20
117.715
 40
3.25
  0
CIRCLE
  5
299
100
AcDbEntity
  8
3.1_yellow_manifold_layer
  6
ByLayer
 62
  256
370
   -1
100
AcDbCircle
 10
155.6
 20
162.214
 40
3.25
  0
CIRCLE
  5
29A
100
AcDbEntity
  8
2.1_delrin_chambers_and_manifold
  6
ByLayer
 62
  256
370
   -1
100
AcDbCircle
 10
94.395
 20
184.21
 40
3.25
  0
CIRCLE
  5
29B
100
AcDbEntity
  8
2.1_delrin_chambers_and_manifold
  6
ByLayer
 62
  256
370
   -1
100
AcDbCircle
 10
94.395
 20
139.96
 40
3.25
  0
CIRCLE
  5
29C
100
AcDbEntity
  8
2.1_delrin_chambers_and_manifold
  6
ByLayer
 62
  256
370
   -1
100
AcDbCircle
 10
94.395
 20
95.45950000000001
 40
3.25
  0
CIRCLE
  5
29D
100
AcDbEntity
  8
2.1_delrin_chambers_and_manifold
  6
ByLayer
 62
  256
370
   -1
100
AcDbCircle
 10
94.395
 20
50.4595
 40
3.25
  0
CIRCLE
  5
29E
100
AcDbEntity
  8
2.1_delrin_chambers_and_manifold
  6
ByLayer
 62
  256
370
   -1
100
AcDbCircle
 10
155.595
 20
27.7095
 40
3.25
  0
CIRCLE
  5
29F
100
AcDbEntity
  8
2.1_delrin_chambers_and_manifold
  6
ByLayer
 62
  256
370
   -1
100
AcDbCircle
 10
155.595
 20
72.20950000000001
 40
3.25
  0
CIRCLE
  5
2A0
100
AcDbEntity
  8
2.1_delrin_chambers_and_manifold
  6
ByLayer
 62
  256
370
   -1
100
AcDbCircle
 10
155.595
 20
117.71
 40
3.25
  0
CIRCLE
  5
2A1
100
AcDbEntity
  8
2.1_delrin_chambers_and_manifold
  6
ByLayer
 62
  256
370
   -1
100
AcDbCircle
 10
155.595
 20
162.21
 40
3.25
  0
INSERT
  5
2A2
100
AcDbEntity
  8
2.2_delrin_sliders
  6
ByLayer
 62
  256
370
   -1
100
AcDbBlockReference
  2
delrin_slider
 10
123.1462204043344
 20
178.2450079301142
 30
0
 41
1
 42
1
 43
0
 50
0
 70
    1
 71
    1
 44
0
 45
0
  0
INSERT
  5
2A3
100
AcDbEntity
  8
2.2_delrin_sliders
  6
ByLayer
 62
  256
370
   -1
100
AcDbBlockReference
  2
delrin_slider
 10
123.1462220313751
 20
133.2450066998895
 30
0
 41
1
 42
1
 43
0
 50
0
 70
    1
 71
    1
 44
0
 45
0
  0
INSERT
  5
2A4
100
AcDbEntity
  8
2.2_delrin_sliders
  6
ByLayer
 62
  256
370
   -1
100
AcDbBlockReference
  2
delrin_slider
 10
123.1462236584158
 20
88.24500546966479
 30
0
 41
1
 42
1
 43
0
 50
0
 70
    1
 71
    1
 44
0
 45
0
  0
INSERT
  5
2A5
100
AcDbEntity
  8
2.2_delrin_sliders
  6
ByLayer
 62
  256
370
   -1
100
AcDbBlockReference
  2
delrin_slider
 10
123.1462252854565
 20
43.24500423944008
 30
0
 41
1
 42
1
 43
0
 50
0
 70
    1
 71
    1
 44
0
 45
0
  0
INSERT
  5
2A6
100
AcDbEntity
  8
2.2_delrin_sliders
  6
ByLayer
 62
  256
370
   -1
100
AcDbBlockReference
  2
delrin_slider
 10
126.8497736688589
 20
155.7450067055166
 30
0
 41
-1
 42
1
 43
0
 50
4.143225024009932e-06
 70
    1
 71
    1
 44
0
 45
0
  0
INSERT
  5
2A7
100
AcDbEntity
  8
2.2_delrin_sliders
  6
ByLayer
 62
  256
370
   -1
100
AcDbBlockReference
  2
delrin_slider
 10
126.8500370772076
 20
110.745044962077
 30
0
 41
-1
 42
1
 43
0
 50
4.143225024009932e-06
 70
    1
 71
    1
 44
0
 45
0
  0
INSERT
  5
2A8
100
AcDbEntity
  8
2.2_delrin_sliders
  6
ByLayer
 62
  256
370
   -1
100
AcDbBlockReference
  2
delrin_slider
 10
126.8503004855563
 20
65.7450832186374
 30
0
 41
-1
 42
1
 43
0
 50
4.143225024009932e-06
 70
    1
 71
    1
 44
0
 45
0
  0
INSERT
  5
2A9
100
AcDbEntity
  8
2.2_delrin_sliders
  6
ByLayer
 62
  256
370
   -1
100
AcDbBlockReference
  2
delrin_slider
 10
126.850563893905
 20
20.74512147519781
 30
0
 41
-1
 42
1
 43
0
 50
4.143225024009932e-06
 70
    1
 71
    1
 44
0
 45
0
  0
CIRCLE
  5
2AA
100
AcDbEntity
  8
1.3_servo_arm_spacer
  6
ByLayer
 62
  256
370
   -1
100
AcDbCircle
 10
126.577
 20
215
 40
1.5
  0
CIRCLE
  5
2AB
100
AcDbEntity
  8
1.3_servo_arm_spacer
  6
ByLayer
 62
  256
370
   -1
100
AcDbCircle
 10
117.577
 20
215
 40
1.5
  0
CIRCLE
  5
2AC
100
AcDbEntity
  8
0_servo_arm
  6
ByLayer
 62
  256
370
   -1
100
AcDbCircle
 10
126.577
 20
215
 40
1.5
  0
CIRCLE
  5
2AD
100
AcDbEntity
  8
0_servo_arm
  6
ByLayer
 62
  256
370
   -1
100
AcDbCircle
 10
117.577
 20
215
 40
1.5
  0
SPLINE
  5
2AE
100
AcDbEntity
  8
0_servo_arm
  6
ByLayer
 62
  256
370
   -1
100
AcDbSpline
210
0
220
0
230
0
 70
    8
 71
    2
 72
   10
 73
    7
 74
    0
 42
1e-07
 43
1e-07
 40
0
 40
0
 40
0
 40
0.2
 40
0.4
 40
0.6
 40
0.8
 40
1
 40
1
 40
1
 10
113.5
 20
215
 30
0
 10
113.4426716468899
 20
216.6853496495252
 30
0
 10
116.9678495958003
 20
220.0160546720924
 30
0
 10
129.1531050499515
 20
222.7027009714237
 30
0
 10
150.5756969825293
 20
221.8471671726801
 30
0
 10
162.0762757248858
 20
216.7311391457782
 30
0
 10
162.077
 20
215
 30
0
  0
SPLINE
  5
2AF
100
AcDbEntity
  8
0_servo_arm
  6
ByLayer
 62
  256
370
   -1
100
AcDbSpline
210
0
220
0
230
0
 70
    8
 71
    2
 72
   10
 73
    7
 74
    0
 42
1e-07
 43
1e-07
 40
0
 40
0
 40
0
 40
0.2
 40
0.4
 40
0.6
 40
0.8
 40
1
 40
1
 40
1
 10
113.5
 20
215
 30
0
 10
113.4426716468899
 20
213.3146503504748
 30
0
 10
116.9678495958003
 20
209.9839453279076
 30
0
 10
129.1531050499515
 20
207.2972990285763
 30
0
 10
150.5756969825293
 20
208.1528328273199
 30
0
 10
162.0762757248858
 20
213.2688608542218
 30
0
 10
162.077
 20
215
 30
0
  0
CIRCLE
  5
2B0
100
AcDbEntity
  8
0_servo_arm
  6
ByLayer
 62
  256
370
   -1
100
AcDbCircle
 10
158.077
 20
215
 40
1.2
  0
LWPOLYLINE
  5
2B1
100
AcDbEntity
  8
1.3_servo_arm_spacer
  6
ByLayer
 62
  256
370
   -1
100
AcDbPolyline
 90
    8
 70
    1
 43
0
 10
127.077
 20
219
 10
116.077
 20
219
 42
0.414213562373095
 10
114.077
 20
217
 10
114.077
 20
213
 42
0.414213562373095
 10
116.077
 20
211
 10
127.077
 20
211
 42
0.414213562373095
 10
129.077
 20
213
 10
129.077
 20
217
 42
0.414213562373095
  0
CIRCLE
  5
2B2
100
AcDbEntity
  8
0_servo_arm
  6
ByLayer
 62
  256
370
   -1
100
AcDbCircle
 10
134.077
 20
215
 40
3.5
  0
CIRCLE
  5
2B3
100
AcDbEntity
  8
5_support_acrylic
  6
ByLayer
 62
  256
370
   -1
100
AcDbCircle
 10
11.9645
 20
135.214
 40
1.7
  0
CIRCLE
  5
2B4
100
AcDbEntity
  8
5_support_acrylic
  6
ByLayer
 62
  256
370
   -1
100
AcDbCircle
 10
11.9645
 20
184.214
 40
1.7
  0
CIRCLE
  5
2B5
100
AcDbEntity
  8
5_support_acrylic
  6
ByLayer
 62
  256
370
   -1
100
AcDbCircle
 10
11.9645
 20
54.7855
 40
1.7
  0
CIRCLE
  5
2B6
100
AcDbEntity
  8
5_support_acrylic
  6
ByLayer
 62
  256
370
   -1
100
AcDbCircle
 10
11.9645
 20
5.46447
 40
1.7
  0
CIRCLE
  5
2B7
100
AcDbEntity
  8
5_support_acrylic
  6
ByLayer
 62
  256
370
   -1
100
AcDbCircle
 10
21.7145
 20
88.2145
 40
1.7
  0
CIRCLE
  5
2B8
100
AcDbEntity
  8
5_support_acrylic
  6
ByLayer
 62
  256
370
   -1
100
AcDbCircle
 10
21.7145
 20
101.714
 40
1.7
  0
CIRCLE
  5
2B9
100
AcDbEntity
  8
5_support_acrylic
  6
ByLayer
 62
  256
370
   -1
100
AcDbCircle
 10
37.7145
 20
94.9645
 40
1.7
  0
CIRCLE
  5
2BA
100
AcDbEntity
  8
5_support_acrylic
  6
ByLayer
 62
  256
370
   -1
100
AcDbCircle
 10
53.7145
 20
146.714
 40
1.7
  0
CIRCLE
  5
2BB
100
AcDbEntity
  8
5_support_acrylic
  6
ByLayer
 62
  256
370
   -1
100
AcDbCircle
 10
53.7145
 20
133.214
 40
1.7
  0
CIRCLE
  5
2BC
100
AcDbEntity
  8
5_support_acrylic
  6
ByLayer
 62
  256
370
   -1
100
AcDbCircle
 10
53.7145
 20
56.7145
 40
1.7
  0
CIRCLE
  5
2BD
100
AcDbEntity
  8
5_support_acrylic
  6
ByLayer
 62
  256
370
   -1
100
AcDbCircle
 10
53.7145
 20
43.2145
 40
1.7
  0
CIRCLE
  5
2BE
100
AcDbEntity
  8
5_support_acrylic
  6
ByLayer
 62
  256
370
   -1
100
AcDbCircle
 10
80
 20
184.215
 40
1.7
  0
CIRCLE
  5
2BF
100
AcDbEntity
  8
5_support_acrylic
  6
ByLayer
 62
  256
370
   -1
100
AcDbCircle
 10
80
 20
162.214
 40
1.7
  0
CIRCLE
  5
2C0
100
AcDbEntity
  8
5_support_acrylic
  6
ByLayer
 62
  256
370
   -1
100
AcDbCircle
 10
80
 20
139.964
 40
1.7
  0
CIRCLE
  5
2C1
100
AcDbEntity
  8
5_support_acrylic
  6
ByLayer
 62
  256
370
   -1
100
AcDbCircle
 10
80
 20
117.714
 40
1.7
  0
CIRCLE
  5
2C2
100
AcDbEntity
  8
5_support_acrylic
  6
ByLayer
 62
  256
370
   -1
100
AcDbCircle
 10
80
 20
95.4645
 40
1.7
  0
CIRCLE
  5
2C3
100
AcDbEntity
  8
5_support_acrylic
  6
ByLayer
 62
  256
370
   -1
100
AcDbCircle
 10
80
 20
72.2145
 40
1.7
  0
CIRCLE
  5
2C4
100
AcDbEntity
  8
5_support_acrylic
  6
ByLayer
 62
  256
370
   -1
100
AcDbCircle
 10
80
 20
49.9645
 40
1.7
  0
CIRCLE
  5
2C5
100
AcDbEntity
  8
5_support_acrylic
  6
ByLayer
 62
  256
370
   -1
100
AcDbCircle
 10
80
 20
27.7145
 40
1.7
  0
CIRCLE
  5
2C6
100
AcDbEntity
  8
5_support_acrylic
  6
ByLayer
 62
  256
370
   -1
100
AcDbCircle
 10
80
 20
5.4645
 40
1.7
  0
CIRCLE
  5
2C7
100
AcDbEntity
  8
5_support_acrylic
  6
ByLayer
 62
  256
370
   -1
100
AcDbCircle
 10
170
 20
5.4645
 40
1.7
  0
CIRCLE
  5
2C8
100
AcDbEntity
  8
5_support_acrylic
  6
ByLayer
 62
  256
370
   -1
100
AcDbCircle
 10
170
 20
27.7145
 40
1.7
  0
CIRCLE
  5
2C9
100
AcDbEntity
  8
5_support_acrylic
  6
ByLayer
 62
  256
370
   -1
100
AcDbCircle
 10
170
 20
49.9645
 40
1.7
  0
CIRCLE
  5
2CA
100
AcDbEntity
  8
5_support_acrylic
  6
ByLayer
 62
  256
370
   -1
100
AcDbCircle
 10
170
 20
72.2145
 40
1.7
  0
CIRCLE
  5
2CB
100
AcDbEntity
  8
5_support_acrylic
  6
ByLayer
 62
  256
370
   -1
100
AcDbCircle
 10
170
 20
95.4645
 40
1.7
  0
CIRCLE
  5
2CC
100
AcDbEntity
  8
5_support_acrylic
  6
ByLayer
 62
  256
370
   -1
100
AcDbCircle
 10
170
 20
117.714
 40
1.7
  0
CIRCLE
  5
2CD
100
AcDbEntity
  8
5_support_acrylic
  6
ByLayer
 62
  256
370
   -1
100
AcDbCircle
 10
170
 20
139.964
 40
1.7
  0
CIRCLE
  5
2CE
100
AcDbEntity
  8
5_support_acrylic
  6
ByLayer
 62
  256
370
   -1
100
AcDbCircle
 10
170
 20
162.214
 40
1.7
  0
CIRCLE
  5
2CF
100
AcDbEntity
  8
5_support_acrylic
  6
ByLayer
 62
  256
370
   -1
100
AcDbCircle
 10
170
 20
184.215
 40
1.7
  0
CIRCLE
  5
2D0
100
AcDbEntity
  8
5_support_acrylic
  6
ByLayer
 62
  256
370
   -1
100
AcDbCircle
 10
196.285
 20
146.714
 40
1.7
  0
CIRCLE
  5
2D1
100
AcDbEntity
  8
5_support_acrylic
  6
ByLayer
 62
  256
370
   -1
100
AcDbCircle
 10
196.285
 20
133.214
 40
1.7
  0
CIRCLE
  5
2D2
100
AcDbEntity
  8
5_support_acrylic
  6
ByLayer
 62
  256
370
   -1
100
AcDbCircle
 10
196.285
 20
56.7145
 40
1.7
  0
CIRCLE
  5
2D3
100
AcDbEntity
  8
5_support_acrylic
  6
ByLayer
 62
  256
370
   -1
100
AcDbCircle
 10
196.285
 20
43.2145
 40
1.7
  0
CIRCLE
  5
2D4
100
AcDbEntity
  8
5_support_acrylic
  6
ByLayer
 62
  256
370
   -1
100
AcDbCircle
 10
212.285
 20
94.9645
 40
1.7
  0
CIRCLE
  5
2D5
100
AcDbEntity
  8
5_support_acrylic
  6
ByLayer
 62
  256
370
   -1
100
AcDbCircle
 10
228.285
 20
101.714
 40
1.7
  0
CIRCLE
  5
2D6
100
AcDbEntity
  8
5_support_acrylic
  6
ByLayer
 62
  256
370
   -1
100
AcDbCircle
 10
228.285
 20
88.2145
 40
1.7
  0
CIRCLE
  5
2D7
100
AcDbEntity
  8
5_support_acrylic
  6
ByLayer
 62
  256
370
   -1
100
AcDbCircle
 10
238.035
 20
184.214
 40
1.7
  0
CIRCLE
  5
2D8
100
AcDbEntity
  8
5_support_acrylic
  6
ByLayer
 62
  256
370
   -1
100
AcDbCircle
 10
238.036
 20
135.214
 40
1.7
  0
CIRCLE
  5
2D9
100
AcDbEntity
  8
5_support_acrylic
  6
ByLayer
 62
  256
370
   -1
100
AcDbCircle
 10
238.036
 20
54.7855
 40
1.7
  0
CIRCLE
  5
2DA
100
AcDbEntity
  8
5_support_acrylic
  6
ByLayer
 62
  256
370
   -1
100
AcDbCircle
 10
238.035
 20
5.46447
 40
1.7
  0
LINE
  5
2DB
100
AcDbEntity
  8
5_support_acrylic
  6
ByLayer
 62
  256
370
   -1
100
AcDbLine
 10
85.00000007178122
 20
200
 11
-14.7
 21
200
  0
LINE
  5
2DC
100
AcDbEntity
  8
5_support_acrylic
  6
ByLayer
 62
  256
370
   -1
100
AcDbLine
 10
-14.7
 20
200
 11
-14.7
 21
0
  0
LINE
  5
2DD
100
AcDbEntity
  8
5_support_acrylic
  6
ByLayer
 62
  256
370
   -1
100
AcDbLine
 10
-14.7
 20
0
 11
264.7
 21
0
  0
LINE
  5
2DE
100
AcDbEntity
  8
5_support_acrylic
  6
ByLayer
 62
  256
370
   -1
100
AcDbLine
 10
264.7
 20
200
 11
165.0000000717812
 21
200
  0
LINE
  5
2DF
100
AcDbEntity
  8
5_support_acrylic
  6
ByLayer
 62
  256
370
   -1
100
AcDbLine
 10
264.7
 20
0
 11
264.7
 21
200
  0
CIRCLE
  5
2E0
100
AcDbEntity
  8
5_support_acrylic
  6
ByLayer
 62
    1
370
   -1
100
AcDbCircle
 10
94.40000000000001
 20
184.215
 40
1.7145
  0
CIRCLE
  5
2E1
100
AcDbEntity
  8
5_support_acrylic
  6
ByLayer
 62
    1
370
   -1
100
AcDbCircle
 10
94.40000000000001
 20
139.964
 40
1.7145
  0
INSERT
  5
2E2
100
AcDbEntity
  8
5_support_acrylic
  6
ByLayer
 62
  256
370
   -1
100
AcDbBlockReference
  2
support_plate_unit
 10
124.998
 20
161.739
 30
0
 41
1
 42
1
 43
0
 50
0
 70
    1
 71
    1
 44
0
 45
0
  0
CIRCLE
  5
2E3
100
AcDbEntity
  8
5_support_acrylic
  6
ByLayer
 62
  256
370
   -1
100
AcDbCircle
 10
-4.9718
 20
50
 40
3.3782
  0
CIRCLE
  5
2E4
100
AcDbEntity
  8
5_support_acrylic
  6
ByLayer
 62
  256
370
   -1
100
AcDbCircle
 10
-4.9718
 20
100
 40
3.3782
  0
CIRCLE
  5
2E5
100
AcDbEntity
  8
5_support_acrylic
  6
ByLayer
 62
  256
370
   -1
100
AcDbCircle
 10
-4.9718
 20
150
 40
3.3782
  0
CIRCLE
  5
2E6
100
AcDbEntity
  8
5_support_acrylic
  6
ByLayer
 62
  256
370
   -1
100
AcDbCircle
 10
254.9718
 20
50
 40
3.3782
  0
CIRCLE
  5
2E7
100
AcDbEntity
  8
5_support_acrylic
  6
ByLayer
 62
  256
370
   -1
100
AcDbCircle
 10
254.9718
 20
100
 40
3.3782
  0
CIRCLE
  5
2E8
100
AcDbEntity
  8
5_support_acrylic
  6
ByLayer
 62
  256
370
   -1
100
AcDbCircle
 10
254.9718
 20
150
 40
3.3782
  0
ENDSEC
  0
SECTION
  2
OBJECTS
  0
DICTIONARY
  5
C
330
0
100
AcDbDictionary
281
    1
  3
ACAD_GROUP
350
D
  0
DICTIONARY
  5
D
330
C
100
AcDbDictionary
281
    1
  0
ENDSEC
  0
EOF
