  0
SECTION
  2
HEADER
  9
$ACADVER
  1
AC1014
  9
$HANDSEED
  5
FFFF
  9
$MEASUREMENT
 70
     1
  0
ENDSEC
  0
SECTION
  2
TABLES
  0
TABLE
  2
VPORT
  5
8
330
0
100
AcDbSymbolTable
 70
     4
  0
VPORT
  5
2E
330
8
100
AcDbSymbolTableRecord
100
AcDbViewportTableRecord
  2
*ACTIVE
 70
     0
 10
0.0
 20
0.0
 11
1.0
 21
1.0
 12
210.0
 22
148.5
 13
0.0
 23
0.0
 14
10.0
 24
10.0
 15
10.0
 25
10.0
 16
0.0
 26
0.0
 36
1.0
 17
0.0
 27
0.0
 37
0.0
 40
341.0
 41
1.24
 42
50.0
 43
0.0
 44
0.0
 50
0.0
 51
0.0
 71
     0
 72
   100
 73
     1
 74
     3
 75
     0
 76
     0
 77
     0
 78
     0
  0
ENDTAB
  0
TABLE
  2
LTYPE
  5
5
330
0
100
AcDbSymbolTable
 70
     1
  0
LTYPE
  5
14
330
5
100
AcDbSymbolTableRecord
100
AcDbLinetypeTableRecord
  2
BYBLOCK
 70
     0
  3

 72
    65
 73
     0
 40
0.0
  0
LTYPE
  5
15
330
5
100
AcDbSymbolTableRecord
100
AcDbLinetypeTableRecord
  2
BYLAYER
 70
     0
  3

 72
    65
 73
     0
 40
0.0
  0
LTYPE
  5
16
330
5
100
AcDbSymbolTableRecord
100
AcDbLinetypeTableRecord
  2
CONTINUOUS
 70
     0
  3
Solid line
 72
    65
 73
     0
 40
0.0
  0
ENDTAB
  0
TABLE
  2
LAYER
  5
2
100
AcDbSymbolTable
 70
6
  0
LAYER
  5
50
100
AcDbSymbolTableRecord
100
AcDbLayerTableRecord
  2
0
 70
0
  6
CONTINUOUS
  0
LAYER
  5
51
100
AcDbSymbolTableRecord
100
AcDbLayerTableRecord
  2
Layer1
 70
0
  6
CONTINUOUS
  0
LAYER
  5
52
100
AcDbSymbolTableRecord
100
AcDbLayerTableRecord
  2
Layer2
 70
0
  6
CONTINUOUS
  0
LAYER
  5
53
100
AcDbSymbolTableRecord
100
AcDbLayerTableRecord
  2
Layer3
 70
0
  6
CONTINUOUS
  0
LAYER
  5
54
100
AcDbSymbolTableRecord
100
AcDbLayerTableRecord
  2
Layer4
 70
0
  6
CONTINUOUS
  0
LAYER
  5
55
100
AcDbSymbolTableRecord
100
AcDbLayerTableRecord
  2
Defpoints
 70
0
  6
CONTINUOUS
  0
ENDTAB
  0
TABLE
  2
STYLE
  5
3
330
0
100
AcDbSymbolTable
 70
     1
  0
STYLE
  5
11
330
3
100
AcDbSymbolTableRecord
100
AcDbTextStyleTableRecord
  2
STANDARD
 70
     0
 40
0.0
 41
1.0
 50
0.0
 71
     0
 42
2.5
  3
txt
  4

  0
ENDTAB
  0
TABLE
  2
VIEW
  5
6
330
0
100
AcDbSymbolTable
 70
     0
  0
ENDTAB
  0
TABLE
  2
UCS
  5
7
330
0
100
AcDbSymbolTable
 70
     0
  0
ENDTAB
  0
TABLE
  2
APPID
  5
9
330
0
100
AcDbSymbolTable
 70
     2
  0
APPID
  5
12
330
9
100
AcDbSymbolTableRecord
100
AcDbRegAppTableRecord
  2
ACAD
 70
     0
  0
ENDTAB
  0
TABLE
  2
DIMSTYLE
  5
A
330
0
100
AcDbSymbolTable
 70
     1
  0
DIMSTYLE
105
27
330
A
100
AcDbSymbolTableRecord
100
AcDbDimStyleTableRecord
  2
ISO-25
 70
     0
  3

  4

  5

  6

  7

 40
1.0
 41
2.5
 42
0.625
 43
3.75
 44
1.25
 45
0.0
 46
0.0
 47
0.0
 48
0.0
140
2.5
141
2.5
142
0.0
143
0.03937007874016
144
1.0
145
0.0
146
1.0
147
0.625
 71
     0
 72
     0
 73
     0
 74
     0
 75
     0
 76
     0
 77
     1
 78
     8
170
     0
171
     3
172
     1
173
     0
174
     0
175
     0
176
     0
177
     0
178
     0
270
     2
271
     2
272
     2
273
     2
274
     3
340
11
275
     0
280
     0
281
     0
282
     0
283
     0
284
     8
285
     0
286
     0
287
     3
288
     0
  0
ENDTAB
  0
TABLE
  2
BLOCK_RECORD
  5
1
330
0
100
AcDbSymbolTable
 70
     1
  0
BLOCK_RECORD
  5
1F
330
1
100
AcDbSymbolTableRecord
100
AcDbBlockTableRecord
  2
*MODEL_SPACE
  0
BLOCK_RECORD
  5
1B
330
1
100
AcDbSymbolTableRecord
100
AcDbBlockTableRecord
  2
*PAPER_SPACE
  0
ENDTAB
  0
ENDSEC
  0
SECTION
  2
BLOCKS
  0
BLOCK
  5
20
330
1F
100
AcDbEntity
  8
0
100
AcDbBlockBegin
  2
*MODEL_SPACE
 70
     0
 10
0.0
 20
0.0
 30
0.0
  3
*MODEL_SPACE
  1

  0
ENDBLK
  5
21
330
1F
100
AcDbEntity
  8
0
100
AcDbBlockEnd
  0
BLOCK
  5
1C
330
1B
100
AcDbEntity
 67
     1
  8
0
100
AcDbBlockBegin
  2
*PAPER_SPACE
  1

  0
ENDBLK
  5
1D
330
1B
100
AcDbEntity
 67
     1
  8
0
100
AcDbBlockEnd
  0
ENDSEC
  0
SECTION
  2
ENTITIES
  0
SPLINE
  5
100
100
AcDbEntity
  8
0
 62
7
100
AcDbSpline
 70
8
 71
3
 72
8
 73
4
 74
0
 40
0
 40
0
 40
0
 40
0
 40
1
 40
1
 40
1
 40
1
 10
13.820109
 20
135.355634
 30
0.0
 10
13.820109
 20
135.968166
 30
0.0
 10
13.493327
 20
136.534169
 30
0.0
 10
12.962859
 20
136.840435
 30
0.0
  0
SPLINE
  5
101
100
AcDbEntity
  8
0
 62
7
100
AcDbSpline
 70
8
 71
3
 72
8
 73
4
 74
0
 40
0
 40
0
 40
0
 40
0
 40
1
 40
1
 40
1
 40
1
 10
12.962859
 20
136.840435
 30
0.0
 10
12.432391
 20
137.146701
 30
0.0
 10
11.778827
 20
137.146701
 30
0.0
 10
11.248359
 20
136.840435
 30
0.0
  0
SPLINE
  5
102
100
AcDbEntity
  8
0
 62
7
100
AcDbSpline
 70
8
 71
3
 72
8
 73
4
 74
0
 40
0
 40
0
 40
0
 40
0
 40
1
 40
1
 40
1
 40
1
 10
11.248359
 20
136.840435
 30
0.0
 10
10.717891
 20
136.534169
 30
0.0
 10
10.391109
 20
135.968166
 30
0.0
 10
10.391109
 20
135.355634
 30
0.0
  0
SPLINE
  5
103
100
AcDbEntity
  8
0
 62
7
100
AcDbSpline
 70
8
 71
3
 72
8
 73
4
 74
0
 40
0
 40
0
 40
0
 40
0
 40
1
 40
1
 40
1
 40
1
 10
10.391109
 20
135.355634
 30
0.0
 10
10.391109
 20
134.408742
 30
0.0
 10
11.158717
 20
133.641134
 30
0.0
 10
12.105609
 20
133.641134
 30
0.0
  0
SPLINE
  5
104
100
AcDbEntity
  8
0
 62
7
100
AcDbSpline
 70
8
 71
3
 72
8
 73
4
 74
0
 40
0
 40
0
 40
0
 40
0
 40
1
 40
1
 40
1
 40
1
 10
12.105609
 20
133.641134
 30
0.0
 10
13.052501
 20
133.641134
 30
0.0
 10
13.820109
 20
134.408742
 30
0.0
 10
13.820109
 20
135.355634
 30
0.0
  0
LWPOLYLINE
  5
105
100
AcDbEntity
  8
0
 62
7
100
AcDbPolyline
 90
2
 70
0
 10
88.041110
 20
0.130109
 30
0.0
 10
88.041110
 20
200.141221
 30
0.0
  0
SPLINE
  5
106
100
AcDbEntity
  8
0
 62
7
100
AcDbSpline
 70
8
 71
3
 72
8
 73
4
 74
0
 40
0
 40
0
 40
0
 40
0
 40
1
 40
1
 40
1
 40
1
 10
13.820109
 20
54.926635
 30
0.0
 10
13.820109
 20
55.539167
 30
0.0
 10
13.493327
 20
56.105169
 30
0.0
 10
12.962859
 20
56.411435
 30
0.0
  0
SPLINE
  5
107
100
AcDbEntity
  8
0
 62
7
100
AcDbSpline
 70
8
 71
3
 72
8
 73
4
 74
0
 40
0
 40
0
 40
0
 40
0
 40
1
 40
1
 40
1
 40
1
 10
12.962859
 20
56.411435
 30
0.0
 10
12.432391
 20
56.717701
 30
0.0
 10
11.778827
 20
56.717701
 30
0.0
 10
11.248359
 20
56.411435
 30
0.0
  0
SPLINE
  5
108
100
AcDbEntity
  8
0
 62
7
100
AcDbSpline
 70
8
 71
3
 72
8
 73
4
 74
0
 40
0
 40
0
 40
0
 40
0
 40
1
 40
1
 40
1
 40
1
 10
11.248359
 20
56.411435
 30
0.0
 10
10.717891
 20
56.105169
 30
0.0
 10
10.391109
 20
55.539167
 30
0.0
 10
10.391109
 20
54.926635
 30
0.0
  0
SPLINE
  5
109
100
AcDbEntity
  8
0
 62
7
100
AcDbSpline
 70
8
 71
3
 72
8
 73
4
 74
0
 40
0
 40
0
 40
0
 40
0
 40
1
 40
1
 40
1
 40
1
 10
10.391109
 20
54.926635
 30
0.0
 10
10.391109
 20
53.979743
 30
0.0
 10
11.158717
 20
53.212135
 30
0.0
 10
12.105609
 20
53.212135
 30
0.0
  0
SPLINE
  5
10a
100
AcDbEntity
  8
0
 62
7
100
AcDbSpline
 70
8
 71
3
 72
8
 73
4
 74
0
 40
0
 40
0
 40
0
 40
0
 40
1
 40
1
 40
1
 40
1
 10
12.105609
 20
53.212135
 30
0.0
 10
13.052501
 20
53.212135
 30
0.0
 10
13.820109
 20
53.979743
 30
0.0
 10
13.820109
 20
54.926635
 30
0.0
  0
LWPOLYLINE
  5
10b
100
AcDbEntity
  8
0
 62
7
100
AcDbPolyline
 90
1
 70
1
 10
13.820109
 20
135.355634
 30
0.0
  0
SPLINE
  5
10c
100
AcDbEntity
  8
0
 62
7
100
AcDbSpline
 70
8
 71
3
 72
8
 73
4
 74
0
 40
0
 40
0
 40
0
 40
0
 40
1
 40
1
 40
1
 40
1
 10
39.570120
 20
95.105609
 30
0.0
 10
39.570120
 20
95.718141
 30
0.0
 10
39.243338
 20
96.284144
 30
0.0
 10
38.712870
 20
96.590409
 30
0.0
  0
SPLINE
  5
10d
100
AcDbEntity
  8
0
 62
7
100
AcDbSpline
 70
8
 71
3
 72
8
 73
4
 74
0
 40
0
 40
0
 40
0
 40
0
 40
1
 40
1
 40
1
 40
1
 10
38.712870
 20
96.590409
 30
0.0
 10
38.182402
 20
96.896675
 30
0.0
 10
37.528838
 20
96.896675
 30
0.0
 10
36.998370
 20
96.590409
 30
0.0
  0
SPLINE
  5
10e
100
AcDbEntity
  8
0
 62
7
100
AcDbSpline
 70
8
 71
3
 72
8
 73
4
 74
0
 40
0
 40
0
 40
0
 40
0
 40
1
 40
1
 40
1
 40
1
 10
36.998370
 20
96.590409
 30
0.0
 10
36.467902
 20
96.284144
 30
0.0
 10
36.141120
 20
95.718141
 30
0.0
 10
36.141120
 20
95.105609
 30
0.0
  0
SPLINE
  5
10f
100
AcDbEntity
  8
0
 62
7
100
AcDbSpline
 70
8
 71
3
 72
8
 73
4
 74
0
 40
0
 40
0
 40
0
 40
0
 40
1
 40
1
 40
1
 40
1
 10
36.141120
 20
95.105609
 30
0.0
 10
36.141120
 20
94.493077
 30
0.0
 10
36.467902
 20
93.927074
 30
0.0
 10
36.998370
 20
93.620808
 30
0.0
  0
SPLINE
  5
110
100
AcDbEntity
  8
0
 62
7
100
AcDbSpline
 70
8
 71
3
 72
8
 73
4
 74
0
 40
0
 40
0
 40
0
 40
0
 40
1
 40
1
 40
1
 40
1
 10
36.998370
 20
93.620808
 30
0.0
 10
37.528838
 20
93.314542
 30
0.0
 10
38.182402
 20
93.314542
 30
0.0
 10
38.712870
 20
93.620808
 30
0.0
  0
SPLINE
  5
111
100
AcDbEntity
  8
0
 62
7
100
AcDbSpline
 70
8
 71
3
 72
8
 73
4
 74
0
 40
0
 40
0
 40
0
 40
0
 40
1
 40
1
 40
1
 40
1
 10
38.712870
 20
93.620808
 30
0.0
 10
39.243338
 20
93.927074
 30
0.0
 10
39.570120
 20
94.493077
 30
0.0
 10
39.570120
 20
95.105609
 30
0.0
  0
LWPOLYLINE
  5
112
100
AcDbEntity
  8
0
 62
7
100
AcDbPolyline
 90
1
 70
1
 10
13.820109
 20
54.926635
 30
0.0
  0
SPLINE
  5
113
100
AcDbEntity
  8
0
 62
7
100
AcDbSpline
 70
8
 71
3
 72
8
 73
4
 74
0
 40
0
 40
0
 40
0
 40
0
 40
1
 40
1
 40
1
 40
1
 10
55.570123
 20
146.855609
 30
0.0
 10
55.570123
 20
147.468140
 30
0.0
 10
55.243341
 20
148.034143
 30
0.0
 10
54.712873
 20
148.340409
 30
0.0
  0
SPLINE
  5
114
100
AcDbEntity
  8
0
 62
7
100
AcDbSpline
 70
8
 71
3
 72
8
 73
4
 74
0
 40
0
 40
0
 40
0
 40
0
 40
1
 40
1
 40
1
 40
1
 10
54.712873
 20
148.340409
 30
0.0
 10
54.182404
 20
148.646675
 30
0.0
 10
53.528841
 20
148.646675
 30
0.0
 10
52.998373
 20
148.340409
 30
0.0
  0
SPLINE
  5
115
100
AcDbEntity
  8
0
 62
7
100
AcDbSpline
 70
8
 71
3
 72
8
 73
4
 74
0
 40
0
 40
0
 40
0
 40
0
 40
1
 40
1
 40
1
 40
1
 10
52.998373
 20
148.340409
 30
0.0
 10
52.467904
 20
148.034143
 30
0.0
 10
52.141123
 20
147.468140
 30
0.0
 10
52.141123
 20
146.855609
 30
0.0
  0
SPLINE
  5
116
100
AcDbEntity
  8
0
 62
7
100
AcDbSpline
 70
8
 71
3
 72
8
 73
4
 74
0
 40
0
 40
0
 40
0
 40
0
 40
1
 40
1
 40
1
 40
1
 10
52.141123
 20
146.855609
 30
0.0
 10
52.141123
 20
146.243077
 30
0.0
 10
52.467904
 20
145.677074
 30
0.0
 10
52.998373
 20
145.370808
 30
0.0
  0
SPLINE
  5
117
100
AcDbEntity
  8
0
 62
7
100
AcDbSpline
 70
8
 71
3
 72
8
 73
4
 74
0
 40
0
 40
0
 40
0
 40
0
 40
1
 40
1
 40
1
 40
1
 10
52.998373
 20
145.370808
 30
0.0
 10
53.528841
 20
145.064542
 30
0.0
 10
54.182404
 20
145.064542
 30
0.0
 10
54.712873
 20
145.370808
 30
0.0
  0
SPLINE
  5
118
100
AcDbEntity
  8
0
 62
7
100
AcDbSpline
 70
8
 71
3
 72
8
 73
4
 74
0
 40
0
 40
0
 40
0
 40
0
 40
1
 40
1
 40
1
 40
1
 10
54.712873
 20
145.370808
 30
0.0
 10
55.243341
 20
145.677074
 30
0.0
 10
55.570123
 20
146.243077
 30
0.0
 10
55.570123
 20
146.855609
 30
0.0
  0
LWPOLYLINE
  5
119
100
AcDbEntity
  8
0
 62
7
100
AcDbPolyline
 90
1
 70
1
 10
39.570120
 20
95.105609
 30
0.0
  0
SPLINE
  5
11a
100
AcDbEntity
  8
0
 62
7
100
AcDbSpline
 70
8
 71
3
 72
8
 73
4
 74
0
 40
0
 40
0
 40
0
 40
0
 40
1
 40
1
 40
1
 40
1
 10
55.570123
 20
133.355607
 30
0.0
 10
55.570123
 20
133.968138
 30
0.0
 10
55.243341
 20
134.534141
 30
0.0
 10
54.712873
 20
134.840407
 30
0.0
  0
SPLINE
  5
11b
100
AcDbEntity
  8
0
 62
7
100
AcDbSpline
 70
8
 71
3
 72
8
 73
4
 74
0
 40
0
 40
0
 40
0
 40
0
 40
1
 40
1
 40
1
 40
1
 10
54.712873
 20
134.840407
 30
0.0
 10
54.182404
 20
135.146673
 30
0.0
 10
53.528841
 20
135.146673
 30
0.0
 10
52.998373
 20
134.840407
 30
0.0
  0
SPLINE
  5
11c
100
AcDbEntity
  8
0
 62
7
100
AcDbSpline
 70
8
 71
3
 72
8
 73
4
 74
0
 40
0
 40
0
 40
0
 40
0
 40
1
 40
1
 40
1
 40
1
 10
52.998373
 20
134.840407
 30
0.0
 10
52.467904
 20
134.534141
 30
0.0
 10
52.141123
 20
133.968138
 30
0.0
 10
52.141123
 20
133.355607
 30
0.0
  0
SPLINE
  5
11d
100
AcDbEntity
  8
0
 62
7
100
AcDbSpline
 70
8
 71
3
 72
8
 73
4
 74
0
 40
0
 40
0
 40
0
 40
0
 40
1
 40
1
 40
1
 40
1
 10
52.141123
 20
133.355607
 30
0.0
 10
52.141123
 20
132.743075
 30
0.0
 10
52.467904
 20
132.177072
 30
0.0
 10
52.998373
 20
131.870806
 30
0.0
  0
SPLINE
  5
11e
100
AcDbEntity
  8
0
 62
7
100
AcDbSpline
 70
8
 71
3
 72
8
 73
4
 74
0
 40
0
 40
0
 40
0
 40
0
 40
1
 40
1
 40
1
 40
1
 10
52.998373
 20
131.870806
 30
0.0
 10
53.528841
 20
131.564540
 30
0.0
 10
54.182404
 20
131.564540
 30
0.0
 10
54.712873
 20
131.870806
 30
0.0
  0
SPLINE
  5
11f
100
AcDbEntity
  8
0
 62
7
100
AcDbSpline
 70
8
 71
3
 72
8
 73
4
 74
0
 40
0
 40
0
 40
0
 40
0
 40
1
 40
1
 40
1
 40
1
 10
54.712873
 20
131.870806
 30
0.0
 10
55.243341
 20
132.177072
 30
0.0
 10
55.570123
 20
132.743075
 30
0.0
 10
55.570123
 20
133.355607
 30
0.0
  0
LWPOLYLINE
  5
120
100
AcDbEntity
  8
0
 62
7
100
AcDbPolyline
 90
1
 70
1
 10
55.570123
 20
146.855609
 30
0.0
  0
SPLINE
  5
121
100
AcDbEntity
  8
0
 62
7
100
AcDbSpline
 70
8
 71
3
 72
8
 73
4
 74
0
 40
0
 40
0
 40
0
 40
0
 40
1
 40
1
 40
1
 40
1
 10
23.570122
 20
101.855609
 30
0.0
 10
23.570122
 20
102.468141
 30
0.0
 10
23.243340
 20
103.034143
 30
0.0
 10
22.712872
 20
103.340409
 30
0.0
  0
SPLINE
  5
122
100
AcDbEntity
  8
0
 62
7
100
AcDbSpline
 70
8
 71
3
 72
8
 73
4
 74
0
 40
0
 40
0
 40
0
 40
0
 40
1
 40
1
 40
1
 40
1
 10
22.712872
 20
103.340409
 30
0.0
 10
22.182403
 20
103.646675
 30
0.0
 10
21.528840
 20
103.646675
 30
0.0
 10
20.998372
 20
103.340409
 30
0.0
  0
SPLINE
  5
123
100
AcDbEntity
  8
0
 62
7
100
AcDbSpline
 70
8
 71
3
 72
8
 73
4
 74
0
 40
0
 40
0
 40
0
 40
0
 40
1
 40
1
 40
1
 40
1
 10
20.998372
 20
103.340409
 30
0.0
 10
20.467903
 20
103.034143
 30
0.0
 10
20.141122
 20
102.468141
 30
0.0
 10
20.141122
 20
101.855609
 30
0.0
  0
SPLINE
  5
124
100
AcDbEntity
  8
0
 62
7
100
AcDbSpline
 70
8
 71
3
 72
8
 73
4
 74
0
 40
0
 40
0
 40
0
 40
0
 40
1
 40
1
 40
1
 40
1
 10
20.141122
 20
101.855609
 30
0.0
 10
20.141122
 20
101.243077
 30
0.0
 10
20.467903
 20
100.677074
 30
0.0
 10
20.998372
 20
100.370808
 30
0.0
  0
SPLINE
  5
125
100
AcDbEntity
  8
0
 62
7
100
AcDbSpline
 70
8
 71
3
 72
8
 73
4
 74
0
 40
0
 40
0
 40
0
 40
0
 40
1
 40
1
 40
1
 40
1
 10
20.998372
 20
100.370808
 30
0.0
 10
21.528840
 20
100.064542
 30
0.0
 10
22.182403
 20
100.064542
 30
0.0
 10
22.712872
 20
100.370808
 30
0.0
  0
SPLINE
  5
126
100
AcDbEntity
  8
0
 62
7
100
AcDbSpline
 70
8
 71
3
 72
8
 73
4
 74
0
 40
0
 40
0
 40
0
 40
0
 40
1
 40
1
 40
1
 40
1
 10
22.712872
 20
100.370808
 30
0.0
 10
23.243340
 20
100.677074
 30
0.0
 10
23.570122
 20
101.243077
 30
0.0
 10
23.570122
 20
101.855609
 30
0.0
  0
LWPOLYLINE
  5
127
100
AcDbEntity
  8
0
 62
7
100
AcDbPolyline
 90
1
 70
1
 10
55.570123
 20
133.355607
 30
0.0
  0
SPLINE
  5
128
100
AcDbEntity
  8
0
 62
7
100
AcDbSpline
 70
8
 71
3
 72
8
 73
4
 74
0
 40
0
 40
0
 40
0
 40
0
 40
1
 40
1
 40
1
 40
1
 10
23.570122
 20
88.355607
 30
0.0
 10
23.570122
 20
88.968138
 30
0.0
 10
23.243340
 20
89.534141
 30
0.0
 10
22.712872
 20
89.840407
 30
0.0
  0
SPLINE
  5
129
100
AcDbEntity
  8
0
 62
7
100
AcDbSpline
 70
8
 71
3
 72
8
 73
4
 74
0
 40
0
 40
0
 40
0
 40
0
 40
1
 40
1
 40
1
 40
1
 10
22.712872
 20
89.840407
 30
0.0
 10
22.182403
 20
90.146673
 30
0.0
 10
21.528840
 20
90.146673
 30
0.0
 10
20.998372
 20
89.840407
 30
0.0
  0
SPLINE
  5
12a
100
AcDbEntity
  8
0
 62
7
100
AcDbSpline
 70
8
 71
3
 72
8
 73
4
 74
0
 40
0
 40
0
 40
0
 40
0
 40
1
 40
1
 40
1
 40
1
 10
20.998372
 20
89.840407
 30
0.0
 10
20.467903
 20
89.534141
 30
0.0
 10
20.141122
 20
88.968138
 30
0.0
 10
20.141122
 20
88.355607
 30
0.0
  0
SPLINE
  5
12b
100
AcDbEntity
  8
0
 62
7
100
AcDbSpline
 70
8
 71
3
 72
8
 73
4
 74
0
 40
0
 40
0
 40
0
 40
0
 40
1
 40
1
 40
1
 40
1
 10
20.141122
 20
88.355607
 30
0.0
 10
20.141122
 20
87.743075
 30
0.0
 10
20.467903
 20
87.177072
 30
0.0
 10
20.998372
 20
86.870806
 30
0.0
  0
SPLINE
  5
12c
100
AcDbEntity
  8
0
 62
7
100
AcDbSpline
 70
8
 71
3
 72
8
 73
4
 74
0
 40
0
 40
0
 40
0
 40
0
 40
1
 40
1
 40
1
 40
1
 10
20.998372
 20
86.870806
 30
0.0
 10
21.528840
 20
86.564540
 30
0.0
 10
22.182403
 20
86.564540
 30
0.0
 10
22.712872
 20
86.870806
 30
0.0
  0
SPLINE
  5
12d
100
AcDbEntity
  8
0
 62
7
100
AcDbSpline
 70
8
 71
3
 72
8
 73
4
 74
0
 40
0
 40
0
 40
0
 40
0
 40
1
 40
1
 40
1
 40
1
 10
22.712872
 20
86.870806
 30
0.0
 10
23.243340
 20
87.177072
 30
0.0
 10
23.570122
 20
87.743075
 30
0.0
 10
23.570122
 20
88.355607
 30
0.0
  0
LWPOLYLINE
  5
12e
100
AcDbEntity
  8
0
 62
7
100
AcDbPolyline
 90
1
 70
1
 10
23.570122
 20
101.855609
 30
0.0
  0
SPLINE
  5
12f
100
AcDbEntity
  8
0
 62
7
100
AcDbSpline
 70
8
 71
3
 72
8
 73
4
 74
0
 40
0
 40
0
 40
0
 40
0
 40
1
 40
1
 40
1
 40
1
 10
55.570123
 20
56.855609
 30
0.0
 10
55.570123
 20
57.468141
 30
0.0
 10
55.243341
 20
58.034143
 30
0.0
 10
54.712873
 20
58.340409
 30
0.0
  0
SPLINE
  5
130
100
AcDbEntity
  8
0
 62
7
100
AcDbSpline
 70
8
 71
3
 72
8
 73
4
 74
0
 40
0
 40
0
 40
0
 40
0
 40
1
 40
1
 40
1
 40
1
 10
54.712873
 20
58.340409
 30
0.0
 10
54.182404
 20
58.646675
 30
0.0
 10
53.528841
 20
58.646675
 30
0.0
 10
52.998373
 20
58.340409
 30
0.0
  0
SPLINE
  5
131
100
AcDbEntity
  8
0
 62
7
100
AcDbSpline
 70
8
 71
3
 72
8
 73
4
 74
0
 40
0
 40
0
 40
0
 40
0
 40
1
 40
1
 40
1
 40
1
 10
52.998373
 20
58.340409
 30
0.0
 10
52.467904
 20
58.034143
 30
0.0
 10
52.141123
 20
57.468141
 30
0.0
 10
52.141123
 20
56.855609
 30
0.0
  0
SPLINE
  5
132
100
AcDbEntity
  8
0
 62
7
100
AcDbSpline
 70
8
 71
3
 72
8
 73
4
 74
0
 40
0
 40
0
 40
0
 40
0
 40
1
 40
1
 40
1
 40
1
 10
52.141123
 20
56.855609
 30
0.0
 10
52.141123
 20
56.243077
 30
0.0
 10
52.467904
 20
55.677074
 30
0.0
 10
52.998373
 20
55.370808
 30
0.0
  0
SPLINE
  5
133
100
AcDbEntity
  8
0
 62
7
100
AcDbSpline
 70
8
 71
3
 72
8
 73
4
 74
0
 40
0
 40
0
 40
0
 40
0
 40
1
 40
1
 40
1
 40
1
 10
52.998373
 20
55.370808
 30
0.0
 10
53.528841
 20
55.064542
 30
0.0
 10
54.182404
 20
55.064542
 30
0.0
 10
54.712873
 20
55.370808
 30
0.0
  0
SPLINE
  5
134
100
AcDbEntity
  8
0
 62
7
100
AcDbSpline
 70
8
 71
3
 72
8
 73
4
 74
0
 40
0
 40
0
 40
0
 40
0
 40
1
 40
1
 40
1
 40
1
 10
54.712873
 20
55.370808
 30
0.0
 10
55.243341
 20
55.677074
 30
0.0
 10
55.570123
 20
56.243077
 30
0.0
 10
55.570123
 20
56.855609
 30
0.0
  0
LWPOLYLINE
  5
135
100
AcDbEntity
  8
0
 62
7
100
AcDbPolyline
 90
1
 70
1
 10
23.570122
 20
88.355607
 30
0.0
  0
SPLINE
  5
136
100
AcDbEntity
  8
0
 62
7
100
AcDbSpline
 70
8
 71
3
 72
8
 73
4
 74
0
 40
0
 40
0
 40
0
 40
0
 40
1
 40
1
 40
1
 40
1
 10
55.570123
 20
43.355609
 30
0.0
 10
55.570123
 20
43.968141
 30
0.0
 10
55.243341
 20
44.534144
 30
0.0
 10
54.712873
 20
44.840410
 30
0.0
  0
SPLINE
  5
137
100
AcDbEntity
  8
0
 62
7
100
AcDbSpline
 70
8
 71
3
 72
8
 73
4
 74
0
 40
0
 40
0
 40
0
 40
0
 40
1
 40
1
 40
1
 40
1
 10
54.712873
 20
44.840410
 30
0.0
 10
54.182404
 20
45.146676
 30
0.0
 10
53.528841
 20
45.146676
 30
0.0
 10
52.998373
 20
44.840410
 30
0.0
  0
SPLINE
  5
138
100
AcDbEntity
  8
0
 62
7
100
AcDbSpline
 70
8
 71
3
 72
8
 73
4
 74
0
 40
0
 40
0
 40
0
 40
0
 40
1
 40
1
 40
1
 40
1
 10
52.998373
 20
44.840410
 30
0.0
 10
52.467904
 20
44.534144
 30
0.0
 10
52.141123
 20
43.968141
 30
0.0
 10
52.141123
 20
43.355609
 30
0.0
  0
SPLINE
  5
139
100
AcDbEntity
  8
0
 62
7
100
AcDbSpline
 70
8
 71
3
 72
8
 73
4
 74
0
 40
0
 40
0
 40
0
 40
0
 40
1
 40
1
 40
1
 40
1
 10
52.141123
 20
43.355609
 30
0.0
 10
52.141123
 20
42.743077
 30
0.0
 10
52.467904
 20
42.177075
 30
0.0
 10
52.998373
 20
41.870809
 30
0.0
  0
SPLINE
  5
13a
100
AcDbEntity
  8
0
 62
7
100
AcDbSpline
 70
8
 71
3
 72
8
 73
4
 74
0
 40
0
 40
0
 40
0
 40
0
 40
1
 40
1
 40
1
 40
1
 10
52.998373
 20
41.870809
 30
0.0
 10
53.528841
 20
41.564543
 30
0.0
 10
54.182404
 20
41.564543
 30
0.0
 10
54.712873
 20
41.870809
 30
0.0
  0
SPLINE
  5
13b
100
AcDbEntity
  8
0
 62
7
100
AcDbSpline
 70
8
 71
3
 72
8
 73
4
 74
0
 40
0
 40
0
 40
0
 40
0
 40
1
 40
1
 40
1
 40
1
 10
54.712873
 20
41.870809
 30
0.0
 10
55.243341
 20
42.177075
 30
0.0
 10
55.570123
 20
42.743077
 30
0.0
 10
55.570123
 20
43.355609
 30
0.0
  0
LWPOLYLINE
  5
13c
100
AcDbEntity
  8
0
 62
7
100
AcDbPolyline
 90
1
 70
1
 10
55.570123
 20
56.855609
 30
0.0
  0
SPLINE
  5
13d
100
AcDbEntity
  8
0
 62
7
100
AcDbSpline
 70
8
 71
3
 72
8
 73
4
 74
0
 40
0
 40
0
 40
0
 40
0
 40
1
 40
1
 40
1
 40
1
 10
13.820122
 20
184.355610
 30
0.0
 10
13.820122
 20
184.968142
 30
0.0
 10
13.493340
 20
185.534145
 30
0.0
 10
12.962872
 20
185.840411
 30
0.0
  0
SPLINE
  5
13e
100
AcDbEntity
  8
0
 62
7
100
AcDbSpline
 70
8
 71
3
 72
8
 73
4
 74
0
 40
0
 40
0
 40
0
 40
0
 40
1
 40
1
 40
1
 40
1
 10
12.962872
 20
185.840411
 30
0.0
 10
12.432404
 20
186.146677
 30
0.0
 10
11.778840
 20
186.146677
 30
0.0
 10
11.248372
 20
185.840411
 30
0.0
  0
SPLINE
  5
13f
100
AcDbEntity
  8
0
 62
7
100
AcDbSpline
 70
8
 71
3
 72
8
 73
4
 74
0
 40
0
 40
0
 40
0
 40
0
 40
1
 40
1
 40
1
 40
1
 10
11.248372
 20
185.840411
 30
0.0
 10
10.717904
 20
185.534145
 30
0.0
 10
10.391122
 20
184.968142
 30
0.0
 10
10.391122
 20
184.355610
 30
0.0
  0
SPLINE
  5
140
100
AcDbEntity
  8
0
 62
7
100
AcDbSpline
 70
8
 71
3
 72
8
 73
4
 74
0
 40
0
 40
0
 40
0
 40
0
 40
1
 40
1
 40
1
 40
1
 10
10.391122
 20
184.355610
 30
0.0
 10
10.391122
 20
183.408718
 30
0.0
 10
11.158730
 20
182.641110
 30
0.0
 10
12.105622
 20
182.641110
 30
0.0
  0
SPLINE
  5
141
100
AcDbEntity
  8
0
 62
7
100
AcDbSpline
 70
8
 71
3
 72
8
 73
4
 74
0
 40
0
 40
0
 40
0
 40
0
 40
1
 40
1
 40
1
 40
1
 10
12.105622
 20
182.641110
 30
0.0
 10
13.052514
 20
182.641110
 30
0.0
 10
13.820122
 20
183.408718
 30
0.0
 10
13.820122
 20
184.355610
 30
0.0
  0
LWPOLYLINE
  5
142
100
AcDbEntity
  8
0
 62
7
100
AcDbPolyline
 90
1
 70
1
 10
55.570123
 20
43.355609
 30
0.0
  0
SPLINE
  5
143
100
AcDbEntity
  8
0
 62
7
100
AcDbSpline
 70
8
 71
3
 72
8
 73
4
 74
0
 40
0
 40
0
 40
0
 40
0
 40
1
 40
1
 40
1
 40
1
 10
13.820122
 20
5.605619
 30
0.0
 10
13.820122
 20
6.218150
 30
0.0
 10
13.493340
 20
6.784153
 30
0.0
 10
12.962872
 20
7.090419
 30
0.0
  0
SPLINE
  5
144
100
AcDbEntity
  8
0
 62
7
100
AcDbSpline
 70
8
 71
3
 72
8
 73
4
 74
0
 40
0
 40
0
 40
0
 40
0
 40
1
 40
1
 40
1
 40
1
 10
12.962872
 20
7.090419
 30
0.0
 10
12.432404
 20
7.396685
 30
0.0
 10
11.778840
 20
7.396685
 30
0.0
 10
11.248372
 20
7.090419
 30
0.0
  0
SPLINE
  5
145
100
AcDbEntity
  8
0
 62
7
100
AcDbSpline
 70
8
 71
3
 72
8
 73
4
 74
0
 40
0
 40
0
 40
0
 40
0
 40
1
 40
1
 40
1
 40
1
 10
11.248372
 20
7.090419
 30
0.0
 10
10.717904
 20
6.784153
 30
0.0
 10
10.391122
 20
6.218150
 30
0.0
 10
10.391122
 20
5.605619
 30
0.0
  0
SPLINE
  5
146
100
AcDbEntity
  8
0
 62
7
100
AcDbSpline
 70
8
 71
3
 72
8
 73
4
 74
0
 40
0
 40
0
 40
0
 40
0
 40
1
 40
1
 40
1
 40
1
 10
10.391122
 20
5.605619
 30
0.0
 10
10.391122
 20
4.658726
 30
0.0
 10
11.158730
 20
3.891119
 30
0.0
 10
12.105622
 20
3.891119
 30
0.0
  0
SPLINE
  5
147
100
AcDbEntity
  8
0
 62
7
100
AcDbSpline
 70
8
 71
3
 72
8
 73
4
 74
0
 40
0
 40
0
 40
0
 40
0
 40
1
 40
1
 40
1
 40
1
 10
12.105622
 20
3.891119
 30
0.0
 10
13.052514
 20
3.891119
 30
0.0
 10
13.820122
 20
4.658726
 30
0.0
 10
13.820122
 20
5.605619
 30
0.0
  0
LWPOLYLINE
  5
148
100
AcDbEntity
  8
0
 62
7
100
AcDbPolyline
 90
1
 70
1
 10
13.820122
 20
184.355610
 30
0.0
  0
SPLINE
  5
149
100
AcDbEntity
  8
0
 62
7
100
AcDbSpline
 70
8
 71
3
 72
8
 73
4
 74
0
 40
0
 40
0
 40
0
 40
0
 40
1
 40
1
 40
1
 40
1
 10
13.820105
 20
194.641137
 30
0.0
 10
13.820105
 20
195.253668
 30
0.0
 10
13.493324
 20
195.819671
 30
0.0
 10
12.962855
 20
196.125937
 30
0.0
  0
SPLINE
  5
14a
100
AcDbEntity
  8
0
 62
7
100
AcDbSpline
 70
8
 71
3
 72
8
 73
4
 74
0
 40
0
 40
0
 40
0
 40
0
 40
1
 40
1
 40
1
 40
1
 10
12.962855
 20
196.125937
 30
0.0
 10
12.432387
 20
196.432203
 30
0.0
 10
11.778823
 20
196.432203
 30
0.0
 10
11.248355
 20
196.125937
 30
0.0
  0
SPLINE
  5
14b
100
AcDbEntity
  8
0
 62
7
100
AcDbSpline
 70
8
 71
3
 72
8
 73
4
 74
0
 40
0
 40
0
 40
0
 40
0
 40
1
 40
1
 40
1
 40
1
 10
11.248355
 20
196.125937
 30
0.0
 10
10.717887
 20
195.819671
 30
0.0
 10
10.391105
 20
195.253668
 30
0.0
 10
10.391105
 20
194.641137
 30
0.0
  0
SPLINE
  5
14c
100
AcDbEntity
  8
0
 62
7
100
AcDbSpline
 70
8
 71
3
 72
8
 73
4
 74
0
 40
0
 40
0
 40
0
 40
0
 40
1
 40
1
 40
1
 40
1
 10
10.391105
 20
194.641137
 30
0.0
 10
10.391105
 20
194.028605
 30
0.0
 10
10.717887
 20
193.462602
 30
0.0
 10
11.248355
 20
193.156336
 30
0.0
  0
SPLINE
  5
14d
100
AcDbEntity
  8
0
 62
7
100
AcDbSpline
 70
8
 71
3
 72
8
 73
4
 74
0
 40
0
 40
0
 40
0
 40
0
 40
1
 40
1
 40
1
 40
1
 10
11.248355
 20
193.156336
 30
0.0
 10
11.778823
 20
192.850070
 30
0.0
 10
12.432387
 20
192.850070
 30
0.0
 10
12.962855
 20
193.156336
 30
0.0
  0
SPLINE
  5
14e
100
AcDbEntity
  8
0
 62
7
100
AcDbSpline
 70
8
 71
3
 72
8
 73
4
 74
0
 40
0
 40
0
 40
0
 40
0
 40
1
 40
1
 40
1
 40
1
 10
12.962855
 20
193.156336
 30
0.0
 10
13.493324
 20
193.462602
 30
0.0
 10
13.820105
 20
194.028605
 30
0.0
 10
13.820105
 20
194.641137
 30
0.0
  0
LWPOLYLINE
  5
14f
100
AcDbEntity
  8
0
 62
7
100
AcDbPolyline
 90
1
 70
1
 10
13.820122
 20
5.605619
 30
0.0
  0
SPLINE
  5
150
100
AcDbEntity
  8
0
 62
7
100
AcDbSpline
 70
8
 71
3
 72
8
 73
4
 74
0
 40
0
 40
0
 40
0
 40
0
 40
1
 40
1
 40
1
 40
1
 10
13.820121
 20
5.605619
 30
0.0
 10
13.820121
 20
6.218150
 30
0.0
 10
13.493339
 20
6.784153
 30
0.0
 10
12.962871
 20
7.090419
 30
0.0
  0
SPLINE
  5
151
100
AcDbEntity
  8
0
 62
7
100
AcDbSpline
 70
8
 71
3
 72
8
 73
4
 74
0
 40
0
 40
0
 40
0
 40
0
 40
1
 40
1
 40
1
 40
1
 10
12.962871
 20
7.090419
 30
0.0
 10
12.432403
 20
7.396685
 30
0.0
 10
11.778839
 20
7.396685
 30
0.0
 10
11.248371
 20
7.090419
 30
0.0
  0
SPLINE
  5
152
100
AcDbEntity
  8
0
 62
7
100
AcDbSpline
 70
8
 71
3
 72
8
 73
4
 74
0
 40
0
 40
0
 40
0
 40
0
 40
1
 40
1
 40
1
 40
1
 10
11.248371
 20
7.090419
 30
0.0
 10
10.717903
 20
6.784153
 30
0.0
 10
10.391121
 20
6.218150
 30
0.0
 10
10.391121
 20
5.605619
 30
0.0
  0
SPLINE
  5
153
100
AcDbEntity
  8
0
 62
7
100
AcDbSpline
 70
8
 71
3
 72
8
 73
4
 74
0
 40
0
 40
0
 40
0
 40
0
 40
1
 40
1
 40
1
 40
1
 10
10.391121
 20
5.605619
 30
0.0
 10
10.391121
 20
4.993087
 30
0.0
 10
10.717903
 20
4.427084
 30
0.0
 10
11.248371
 20
4.120818
 30
0.0
  0
SPLINE
  5
154
100
AcDbEntity
  8
0
 62
7
100
AcDbSpline
 70
8
 71
3
 72
8
 73
4
 74
0
 40
0
 40
0
 40
0
 40
0
 40
1
 40
1
 40
1
 40
1
 10
11.248371
 20
4.120818
 30
0.0
 10
11.778839
 20
3.814552
 30
0.0
 10
12.432403
 20
3.814552
 30
0.0
 10
12.962871
 20
4.120818
 30
0.0
  0
SPLINE
  5
155
100
AcDbEntity
  8
0
 62
7
100
AcDbSpline
 70
8
 71
3
 72
8
 73
4
 74
0
 40
0
 40
0
 40
0
 40
0
 40
1
 40
1
 40
1
 40
1
 10
12.962871
 20
4.120818
 30
0.0
 10
13.493339
 20
4.427084
 30
0.0
 10
13.820121
 20
4.993087
 30
0.0
 10
13.820121
 20
5.605619
 30
0.0
  0
LWPOLYLINE
  5
156
100
AcDbEntity
  8
0
 62
7
100
AcDbPolyline
 90
1
 70
1
 10
13.820105
 20
194.641137
 30
0.0
  0
LWPOLYLINE
  5
157
100
AcDbEntity
  8
0
 62
7
100
AcDbPolyline
 90
1
 70
1
 10
13.820121
 20
5.605619
 30
0.0
  0
SPLINE
  5
158
100
AcDbEntity
  8
0
 62
7
100
AcDbSpline
 70
8
 71
3
 72
8
 73
4
 74
0
 40
0
 40
0
 40
0
 40
0
 40
1
 40
1
 40
1
 40
1
 10
82.005222
 20
162.355619
 30
0.0
 10
82.005222
 20
162.968150
 30
0.0
 10
81.678440
 20
163.534153
 30
0.0
 10
81.147972
 20
163.840419
 30
0.0
  0
SPLINE
  5
159
100
AcDbEntity
  8
0
 62
7
100
AcDbSpline
 70
8
 71
3
 72
8
 73
4
 74
0
 40
0
 40
0
 40
0
 40
0
 40
1
 40
1
 40
1
 40
1
 10
81.147972
 20
163.840419
 30
0.0
 10
80.617504
 20
164.146685
 30
0.0
 10
79.963940
 20
164.146685
 30
0.0
 10
79.433472
 20
163.840419
 30
0.0
  0
SPLINE
  5
15a
100
AcDbEntity
  8
0
 62
7
100
AcDbSpline
 70
8
 71
3
 72
8
 73
4
 74
0
 40
0
 40
0
 40
0
 40
0
 40
1
 40
1
 40
1
 40
1
 10
79.433472
 20
163.840419
 30
0.0
 10
78.903004
 20
163.534153
 30
0.0
 10
78.576222
 20
162.968150
 30
0.0
 10
78.576222
 20
162.355619
 30
0.0
  0
SPLINE
  5
15b
100
AcDbEntity
  8
0
 62
7
100
AcDbSpline
 70
8
 71
3
 72
8
 73
4
 74
0
 40
0
 40
0
 40
0
 40
0
 40
1
 40
1
 40
1
 40
1
 10
78.576222
 20
162.355619
 30
0.0
 10
78.576222
 20
161.743087
 30
0.0
 10
78.903004
 20
161.177084
 30
0.0
 10
79.433472
 20
160.870818
 30
0.0
  0
SPLINE
  5
15c
100
AcDbEntity
  8
0
 62
7
100
AcDbSpline
 70
8
 71
3
 72
8
 73
4
 74
0
 40
0
 40
0
 40
0
 40
0
 40
1
 40
1
 40
1
 40
1
 10
79.433472
 20
160.870818
 30
0.0
 10
79.963940
 20
160.564552
 30
0.0
 10
80.617504
 20
160.564552
 30
0.0
 10
81.147972
 20
160.870818
 30
0.0
  0
SPLINE
  5
15d
100
AcDbEntity
  8
0
 62
7
100
AcDbSpline
 70
8
 71
3
 72
8
 73
4
 74
0
 40
0
 40
0
 40
0
 40
0
 40
1
 40
1
 40
1
 40
1
 10
81.147972
 20
160.870818
 30
0.0
 10
81.678440
 20
161.177084
 30
0.0
 10
82.005222
 20
161.743087
 30
0.0
 10
82.005222
 20
162.355619
 30
0.0
  0
LWPOLYLINE
  5
15e
100
AcDbEntity
  8
0
 62
7
100
AcDbPolyline
 90
4
 70
0
 10
88.045573
 20
200.146640
 30
0.0
 10
0.135353
 20
200.146640
 30
0.0
 10
0.135353
 20
0.135348
 30
0.0
 10
88.042311
 20
0.135348
 30
0.0
  0
SPLINE
  5
15f
100
AcDbEntity
  8
0
 62
7
100
AcDbSpline
 70
8
 71
3
 72
8
 73
4
 74
0
 40
0
 40
0
 40
0
 40
0
 40
1
 40
1
 40
1
 40
1
 10
82.005222
 20
140.105616
 30
0.0
 10
82.005222
 20
140.718147
 30
0.0
 10
81.678440
 20
141.284150
 30
0.0
 10
81.147972
 20
141.590416
 30
0.0
  0
SPLINE
  5
160
100
AcDbEntity
  8
0
 62
7
100
AcDbSpline
 70
8
 71
3
 72
8
 73
4
 74
0
 40
0
 40
0
 40
0
 40
0
 40
1
 40
1
 40
1
 40
1
 10
81.147972
 20
141.590416
 30
0.0
 10
80.617504
 20
141.896682
 30
0.0
 10
79.963940
 20
141.896682
 30
0.0
 10
79.433472
 20
141.590416
 30
0.0
  0
SPLINE
  5
161
100
AcDbEntity
  8
0
 62
7
100
AcDbSpline
 70
8
 71
3
 72
8
 73
4
 74
0
 40
0
 40
0
 40
0
 40
0
 40
1
 40
1
 40
1
 40
1
 10
79.433472
 20
141.590416
 30
0.0
 10
78.903004
 20
141.284150
 30
0.0
 10
78.576222
 20
140.718147
 30
0.0
 10
78.576222
 20
140.105616
 30
0.0
  0
SPLINE
  5
162
100
AcDbEntity
  8
0
 62
7
100
AcDbSpline
 70
8
 71
3
 72
8
 73
4
 74
0
 40
0
 40
0
 40
0
 40
0
 40
1
 40
1
 40
1
 40
1
 10
78.576222
 20
140.105616
 30
0.0
 10
78.576222
 20
139.493084
 30
0.0
 10
78.903004
 20
138.927081
 30
0.0
 10
79.433472
 20
138.620815
 30
0.0
  0
SPLINE
  5
163
100
AcDbEntity
  8
0
 62
7
100
AcDbSpline
 70
8
 71
3
 72
8
 73
4
 74
0
 40
0
 40
0
 40
0
 40
0
 40
1
 40
1
 40
1
 40
1
 10
79.433472
 20
138.620815
 30
0.0
 10
79.963940
 20
138.314549
 30
0.0
 10
80.617504
 20
138.314549
 30
0.0
 10
81.147972
 20
138.620815
 30
0.0
  0
SPLINE
  5
164
100
AcDbEntity
  8
0
 62
7
100
AcDbSpline
 70
8
 71
3
 72
8
 73
4
 74
0
 40
0
 40
0
 40
0
 40
0
 40
1
 40
1
 40
1
 40
1
 10
81.147972
 20
138.620815
 30
0.0
 10
81.678440
 20
138.927081
 30
0.0
 10
82.005222
 20
139.493084
 30
0.0
 10
82.005222
 20
140.105616
 30
0.0
  0
LWPOLYLINE
  5
165
100
AcDbEntity
  8
0
 62
7
100
AcDbPolyline
 90
1
 70
1
 10
82.005222
 20
162.355619
 30
0.0
  0
SPLINE
  5
166
100
AcDbEntity
  8
0
 62
7
100
AcDbSpline
 70
8
 71
3
 72
8
 73
4
 74
0
 40
0
 40
0
 40
0
 40
0
 40
1
 40
1
 40
1
 40
1
 10
82.005222
 20
117.855618
 30
0.0
 10
82.005222
 20
118.468150
 30
0.0
 10
81.678440
 20
119.034152
 30
0.0
 10
81.147972
 20
119.340418
 30
0.0
  0
SPLINE
  5
167
100
AcDbEntity
  8
0
 62
7
100
AcDbSpline
 70
8
 71
3
 72
8
 73
4
 74
0
 40
0
 40
0
 40
0
 40
0
 40
1
 40
1
 40
1
 40
1
 10
81.147972
 20
119.340418
 30
0.0
 10
80.617504
 20
119.646684
 30
0.0
 10
79.963940
 20
119.646684
 30
0.0
 10
79.433472
 20
119.340418
 30
0.0
  0
SPLINE
  5
168
100
AcDbEntity
  8
0
 62
7
100
AcDbSpline
 70
8
 71
3
 72
8
 73
4
 74
0
 40
0
 40
0
 40
0
 40
0
 40
1
 40
1
 40
1
 40
1
 10
79.433472
 20
119.340418
 30
0.0
 10
78.903004
 20
119.034152
 30
0.0
 10
78.576222
 20
118.468150
 30
0.0
 10
78.576222
 20
117.855618
 30
0.0
  0
SPLINE
  5
169
100
AcDbEntity
  8
0
 62
7
100
AcDbSpline
 70
8
 71
3
 72
8
 73
4
 74
0
 40
0
 40
0
 40
0
 40
0
 40
1
 40
1
 40
1
 40
1
 10
78.576222
 20
117.855618
 30
0.0
 10
78.576222
 20
117.243086
 30
0.0
 10
78.903004
 20
116.677083
 30
0.0
 10
79.433472
 20
116.370817
 30
0.0
  0
SPLINE
  5
16a
100
AcDbEntity
  8
0
 62
7
100
AcDbSpline
 70
8
 71
3
 72
8
 73
4
 74
0
 40
0
 40
0
 40
0
 40
0
 40
1
 40
1
 40
1
 40
1
 10
79.433472
 20
116.370817
 30
0.0
 10
79.963940
 20
116.064551
 30
0.0
 10
80.617504
 20
116.064551
 30
0.0
 10
81.147972
 20
116.370817
 30
0.0
  0
SPLINE
  5
16b
100
AcDbEntity
  8
0
 62
7
100
AcDbSpline
 70
8
 71
3
 72
8
 73
4
 74
0
 40
0
 40
0
 40
0
 40
0
 40
1
 40
1
 40
1
 40
1
 10
81.147972
 20
116.370817
 30
0.0
 10
81.678440
 20
116.677083
 30
0.0
 10
82.005222
 20
117.243086
 30
0.0
 10
82.005222
 20
117.855618
 30
0.0
  0
LWPOLYLINE
  5
16c
100
AcDbEntity
  8
0
 62
7
100
AcDbPolyline
 90
1
 70
1
 10
82.005222
 20
140.105616
 30
0.0
  0
SPLINE
  5
16d
100
AcDbEntity
  8
0
 62
7
100
AcDbSpline
 70
8
 71
3
 72
8
 73
4
 74
0
 40
0
 40
0
 40
0
 40
0
 40
1
 40
1
 40
1
 40
1
 10
82.005222
 20
95.605617
 30
0.0
 10
82.005222
 20
96.218149
 30
0.0
 10
81.678440
 20
96.784152
 30
0.0
 10
81.147972
 20
97.090418
 30
0.0
  0
SPLINE
  5
16e
100
AcDbEntity
  8
0
 62
7
100
AcDbSpline
 70
8
 71
3
 72
8
 73
4
 74
0
 40
0
 40
0
 40
0
 40
0
 40
1
 40
1
 40
1
 40
1
 10
81.147972
 20
97.090418
 30
0.0
 10
80.617504
 20
97.396684
 30
0.0
 10
79.963940
 20
97.396684
 30
0.0
 10
79.433472
 20
97.090418
 30
0.0
  0
SPLINE
  5
16f
100
AcDbEntity
  8
0
 62
7
100
AcDbSpline
 70
8
 71
3
 72
8
 73
4
 74
0
 40
0
 40
0
 40
0
 40
0
 40
1
 40
1
 40
1
 40
1
 10
79.433472
 20
97.090418
 30
0.0
 10
78.903004
 20
96.784152
 30
0.0
 10
78.576222
 20
96.218149
 30
0.0
 10
78.576222
 20
95.605617
 30
0.0
  0
SPLINE
  5
170
100
AcDbEntity
  8
0
 62
7
100
AcDbSpline
 70
8
 71
3
 72
8
 73
4
 74
0
 40
0
 40
0
 40
0
 40
0
 40
1
 40
1
 40
1
 40
1
 10
78.576222
 20
95.605617
 30
0.0
 10
78.576222
 20
94.993085
 30
0.0
 10
78.903004
 20
94.427083
 30
0.0
 10
79.433472
 20
94.120817
 30
0.0
  0
SPLINE
  5
171
100
AcDbEntity
  8
0
 62
7
100
AcDbSpline
 70
8
 71
3
 72
8
 73
4
 74
0
 40
0
 40
0
 40
0
 40
0
 40
1
 40
1
 40
1
 40
1
 10
79.433472
 20
94.120817
 30
0.0
 10
79.963940
 20
93.814551
 30
0.0
 10
80.617504
 20
93.814551
 30
0.0
 10
81.147972
 20
94.120817
 30
0.0
  0
SPLINE
  5
172
100
AcDbEntity
  8
0
 62
7
100
AcDbSpline
 70
8
 71
3
 72
8
 73
4
 74
0
 40
0
 40
0
 40
0
 40
0
 40
1
 40
1
 40
1
 40
1
 10
81.147972
 20
94.120817
 30
0.0
 10
81.678440
 20
94.427083
 30
0.0
 10
82.005222
 20
94.993085
 30
0.0
 10
82.005222
 20
95.605617
 30
0.0
  0
LWPOLYLINE
  5
173
100
AcDbEntity
  8
0
 62
7
100
AcDbPolyline
 90
1
 70
1
 10
82.005222
 20
117.855618
 30
0.0
  0
SPLINE
  5
174
100
AcDbEntity
  8
0
 62
7
100
AcDbSpline
 70
8
 71
3
 72
8
 73
4
 74
0
 40
0
 40
0
 40
0
 40
0
 40
1
 40
1
 40
1
 40
1
 10
82.005222
 20
72.355619
 30
0.0
 10
82.005222
 20
72.968151
 30
0.0
 10
81.678440
 20
73.534153
 30
0.0
 10
81.147972
 20
73.840419
 30
0.0
  0
SPLINE
  5
175
100
AcDbEntity
  8
0
 62
7
100
AcDbSpline
 70
8
 71
3
 72
8
 73
4
 74
0
 40
0
 40
0
 40
0
 40
0
 40
1
 40
1
 40
1
 40
1
 10
81.147972
 20
73.840419
 30
0.0
 10
80.617504
 20
74.146685
 30
0.0
 10
79.963940
 20
74.146685
 30
0.0
 10
79.433472
 20
73.840419
 30
0.0
  0
SPLINE
  5
176
100
AcDbEntity
  8
0
 62
7
100
AcDbSpline
 70
8
 71
3
 72
8
 73
4
 74
0
 40
0
 40
0
 40
0
 40
0
 40
1
 40
1
 40
1
 40
1
 10
79.433472
 20
73.840419
 30
0.0
 10
78.903004
 20
73.534153
 30
0.0
 10
78.576222
 20
72.968151
 30
0.0
 10
78.576222
 20
72.355619
 30
0.0
  0
SPLINE
  5
177
100
AcDbEntity
  8
0
 62
7
100
AcDbSpline
 70
8
 71
3
 72
8
 73
4
 74
0
 40
0
 40
0
 40
0
 40
0
 40
1
 40
1
 40
1
 40
1
 10
78.576222
 20
72.355619
 30
0.0
 10
78.576222
 20
71.743087
 30
0.0
 10
78.903004
 20
71.177084
 30
0.0
 10
79.433472
 20
70.870818
 30
0.0
  0
SPLINE
  5
178
100
AcDbEntity
  8
0
 62
7
100
AcDbSpline
 70
8
 71
3
 72
8
 73
4
 74
0
 40
0
 40
0
 40
0
 40
0
 40
1
 40
1
 40
1
 40
1
 10
79.433472
 20
70.870818
 30
0.0
 10
79.963940
 20
70.564552
 30
0.0
 10
80.617504
 20
70.564552
 30
0.0
 10
81.147972
 20
70.870818
 30
0.0
  0
SPLINE
  5
179
100
AcDbEntity
  8
0
 62
7
100
AcDbSpline
 70
8
 71
3
 72
8
 73
4
 74
0
 40
0
 40
0
 40
0
 40
0
 40
1
 40
1
 40
1
 40
1
 10
81.147972
 20
70.870818
 30
0.0
 10
81.678440
 20
71.177084
 30
0.0
 10
82.005222
 20
71.743087
 30
0.0
 10
82.005222
 20
72.355619
 30
0.0
  0
LWPOLYLINE
  5
17a
100
AcDbEntity
  8
0
 62
7
100
AcDbPolyline
 90
1
 70
1
 10
82.005222
 20
95.605617
 30
0.0
  0
SPLINE
  5
17b
100
AcDbEntity
  8
0
 62
7
100
AcDbSpline
 70
8
 71
3
 72
8
 73
4
 74
0
 40
0
 40
0
 40
0
 40
0
 40
1
 40
1
 40
1
 40
1
 10
82.005222
 20
50.105618
 30
0.0
 10
82.005222
 20
50.718150
 30
0.0
 10
81.678440
 20
51.284153
 30
0.0
 10
81.147972
 20
51.590419
 30
0.0
  0
SPLINE
  5
17c
100
AcDbEntity
  8
0
 62
7
100
AcDbSpline
 70
8
 71
3
 72
8
 73
4
 74
0
 40
0
 40
0
 40
0
 40
0
 40
1
 40
1
 40
1
 40
1
 10
81.147972
 20
51.590419
 30
0.0
 10
80.617504
 20
51.896685
 30
0.0
 10
79.963940
 20
51.896685
 30
0.0
 10
79.433472
 20
51.590419
 30
0.0
  0
SPLINE
  5
17d
100
AcDbEntity
  8
0
 62
7
100
AcDbSpline
 70
8
 71
3
 72
8
 73
4
 74
0
 40
0
 40
0
 40
0
 40
0
 40
1
 40
1
 40
1
 40
1
 10
79.433472
 20
51.590419
 30
0.0
 10
78.903004
 20
51.284153
 30
0.0
 10
78.576222
 20
50.718150
 30
0.0
 10
78.576222
 20
50.105618
 30
0.0
  0
SPLINE
  5
17e
100
AcDbEntity
  8
0
 62
7
100
AcDbSpline
 70
8
 71
3
 72
8
 73
4
 74
0
 40
0
 40
0
 40
0
 40
0
 40
1
 40
1
 40
1
 40
1
 10
78.576222
 20
50.105618
 30
0.0
 10
78.576222
 20
49.493086
 30
0.0
 10
78.903004
 20
48.927084
 30
0.0
 10
79.433472
 20
48.620818
 30
0.0
  0
SPLINE
  5
17f
100
AcDbEntity
  8
0
 62
7
100
AcDbSpline
 70
8
 71
3
 72
8
 73
4
 74
0
 40
0
 40
0
 40
0
 40
0
 40
1
 40
1
 40
1
 40
1
 10
79.433472
 20
48.620818
 30
0.0
 10
79.963940
 20
48.314552
 30
0.0
 10
80.617504
 20
48.314552
 30
0.0
 10
81.147972
 20
48.620818
 30
0.0
  0
SPLINE
  5
180
100
AcDbEntity
  8
0
 62
7
100
AcDbSpline
 70
8
 71
3
 72
8
 73
4
 74
0
 40
0
 40
0
 40
0
 40
0
 40
1
 40
1
 40
1
 40
1
 10
81.147972
 20
48.620818
 30
0.0
 10
81.678440
 20
48.927084
 30
0.0
 10
82.005222
 20
49.493086
 30
0.0
 10
82.005222
 20
50.105618
 30
0.0
  0
LWPOLYLINE
  5
181
100
AcDbEntity
  8
0
 62
7
100
AcDbPolyline
 90
1
 70
1
 10
82.005222
 20
72.355619
 30
0.0
  0
SPLINE
  5
182
100
AcDbEntity
  8
0
 62
7
100
AcDbSpline
 70
8
 71
3
 72
8
 73
4
 74
0
 40
0
 40
0
 40
0
 40
0
 40
1
 40
1
 40
1
 40
1
 10
82.005222
 20
27.855615
 30
0.0
 10
82.005222
 20
28.468147
 30
0.0
 10
81.678440
 20
29.034150
 30
0.0
 10
81.147972
 20
29.340416
 30
0.0
  0
SPLINE
  5
183
100
AcDbEntity
  8
0
 62
7
100
AcDbSpline
 70
8
 71
3
 72
8
 73
4
 74
0
 40
0
 40
0
 40
0
 40
0
 40
1
 40
1
 40
1
 40
1
 10
81.147972
 20
29.340416
 30
0.0
 10
80.617504
 20
29.646682
 30
0.0
 10
79.963940
 20
29.646682
 30
0.0
 10
79.433472
 20
29.340416
 30
0.0
  0
SPLINE
  5
184
100
AcDbEntity
  8
0
 62
7
100
AcDbSpline
 70
8
 71
3
 72
8
 73
4
 74
0
 40
0
 40
0
 40
0
 40
0
 40
1
 40
1
 40
1
 40
1
 10
79.433472
 20
29.340416
 30
0.0
 10
78.903004
 20
29.034150
 30
0.0
 10
78.576222
 20
28.468147
 30
0.0
 10
78.576222
 20
27.855615
 30
0.0
  0
SPLINE
  5
185
100
AcDbEntity
  8
0
 62
7
100
AcDbSpline
 70
8
 71
3
 72
8
 73
4
 74
0
 40
0
 40
0
 40
0
 40
0
 40
1
 40
1
 40
1
 40
1
 10
78.576222
 20
27.855615
 30
0.0
 10
78.576222
 20
27.243083
 30
0.0
 10
78.903004
 20
26.677080
 30
0.0
 10
79.433472
 20
26.370815
 30
0.0
  0
SPLINE
  5
186
100
AcDbEntity
  8
0
 62
7
100
AcDbSpline
 70
8
 71
3
 72
8
 73
4
 74
0
 40
0
 40
0
 40
0
 40
0
 40
1
 40
1
 40
1
 40
1
 10
79.433472
 20
26.370815
 30
0.0
 10
79.963940
 20
26.064549
 30
0.0
 10
80.617504
 20
26.064549
 30
0.0
 10
81.147972
 20
26.370815
 30
0.0
  0
SPLINE
  5
187
100
AcDbEntity
  8
0
 62
7
100
AcDbSpline
 70
8
 71
3
 72
8
 73
4
 74
0
 40
0
 40
0
 40
0
 40
0
 40
1
 40
1
 40
1
 40
1
 10
81.147972
 20
26.370815
 30
0.0
 10
81.678440
 20
26.677080
 30
0.0
 10
82.005222
 20
27.243083
 30
0.0
 10
82.005222
 20
27.855615
 30
0.0
  0
LWPOLYLINE
  5
188
100
AcDbEntity
  8
0
 62
7
100
AcDbPolyline
 90
1
 70
1
 10
82.005222
 20
50.105618
 30
0.0
  0
SPLINE
  5
189
100
AcDbEntity
  8
0
 62
7
100
AcDbSpline
 70
8
 71
3
 72
8
 73
4
 74
0
 40
0
 40
0
 40
0
 40
0
 40
1
 40
1
 40
1
 40
1
 10
82.005222
 20
5.605596
 30
0.0
 10
82.005222
 20
6.218128
 30
0.0
 10
81.678440
 20
6.784131
 30
0.0
 10
81.147972
 20
7.090397
 30
0.0
  0
SPLINE
  5
18a
100
AcDbEntity
  8
0
 62
7
100
AcDbSpline
 70
8
 71
3
 72
8
 73
4
 74
0
 40
0
 40
0
 40
0
 40
0
 40
1
 40
1
 40
1
 40
1
 10
81.147972
 20
7.090397
 30
0.0
 10
80.617504
 20
7.396663
 30
0.0
 10
79.963940
 20
7.396663
 30
0.0
 10
79.433472
 20
7.090397
 30
0.0
  0
SPLINE
  5
18b
100
AcDbEntity
  8
0
 62
7
100
AcDbSpline
 70
8
 71
3
 72
8
 73
4
 74
0
 40
0
 40
0
 40
0
 40
0
 40
1
 40
1
 40
1
 40
1
 10
79.433472
 20
7.090397
 30
0.0
 10
78.903004
 20
6.784131
 30
0.0
 10
78.576222
 20
6.218128
 30
0.0
 10
78.576222
 20
5.605596
 30
0.0
  0
SPLINE
  5
18c
100
AcDbEntity
  8
0
 62
7
100
AcDbSpline
 70
8
 71
3
 72
8
 73
4
 74
0
 40
0
 40
0
 40
0
 40
0
 40
1
 40
1
 40
1
 40
1
 10
78.576222
 20
5.605596
 30
0.0
 10
78.576222
 20
4.993064
 30
0.0
 10
78.903004
 20
4.427061
 30
0.0
 10
79.433472
 20
4.120796
 30
0.0
  0
SPLINE
  5
18d
100
AcDbEntity
  8
0
 62
7
100
AcDbSpline
 70
8
 71
3
 72
8
 73
4
 74
0
 40
0
 40
0
 40
0
 40
0
 40
1
 40
1
 40
1
 40
1
 10
79.433472
 20
4.120796
 30
0.0
 10
79.963940
 20
3.814530
 30
0.0
 10
80.617504
 20
3.814530
 30
0.0
 10
81.147972
 20
4.120796
 30
0.0
  0
SPLINE
  5
18e
100
AcDbEntity
  8
0
 62
7
100
AcDbSpline
 70
8
 71
3
 72
8
 73
4
 74
0
 40
0
 40
0
 40
0
 40
0
 40
1
 40
1
 40
1
 40
1
 10
81.147972
 20
4.120796
 30
0.0
 10
81.678440
 20
4.427061
 30
0.0
 10
82.005222
 20
4.993064
 30
0.0
 10
82.005222
 20
5.605596
 30
0.0
  0
LWPOLYLINE
  5
18f
100
AcDbEntity
  8
0
 62
7
100
AcDbPolyline
 90
1
 70
1
 10
82.005222
 20
27.855615
 30
0.0
  0
SPLINE
  5
190
100
AcDbEntity
  8
0
 62
7
100
AcDbSpline
 70
8
 71
3
 72
8
 73
4
 74
0
 40
0
 40
0
 40
0
 40
0
 40
1
 40
1
 40
1
 40
1
 10
82.005222
 20
184.355620
 30
0.0
 10
82.005222
 20
184.968151
 30
0.0
 10
81.678440
 20
185.534154
 30
0.0
 10
81.147972
 20
185.840420
 30
0.0
  0
SPLINE
  5
191
100
AcDbEntity
  8
0
 62
7
100
AcDbSpline
 70
8
 71
3
 72
8
 73
4
 74
0
 40
0
 40
0
 40
0
 40
0
 40
1
 40
1
 40
1
 40
1
 10
81.147972
 20
185.840420
 30
0.0
 10
80.617504
 20
186.146686
 30
0.0
 10
79.963940
 20
186.146686
 30
0.0
 10
79.433472
 20
185.840420
 30
0.0
  0
SPLINE
  5
192
100
AcDbEntity
  8
0
 62
7
100
AcDbSpline
 70
8
 71
3
 72
8
 73
4
 74
0
 40
0
 40
0
 40
0
 40
0
 40
1
 40
1
 40
1
 40
1
 10
79.433472
 20
185.840420
 30
0.0
 10
78.903004
 20
185.534154
 30
0.0
 10
78.576222
 20
184.968151
 30
0.0
 10
78.576222
 20
184.355620
 30
0.0
  0
SPLINE
  5
193
100
AcDbEntity
  8
0
 62
7
100
AcDbSpline
 70
8
 71
3
 72
8
 73
4
 74
0
 40
0
 40
0
 40
0
 40
0
 40
1
 40
1
 40
1
 40
1
 10
78.576222
 20
184.355620
 30
0.0
 10
78.576222
 20
183.743088
 30
0.0
 10
78.903004
 20
183.177085
 30
0.0
 10
79.433472
 20
182.870819
 30
0.0
  0
SPLINE
  5
194
100
AcDbEntity
  8
0
 62
7
100
AcDbSpline
 70
8
 71
3
 72
8
 73
4
 74
0
 40
0
 40
0
 40
0
 40
0
 40
1
 40
1
 40
1
 40
1
 10
79.433472
 20
182.870819
 30
0.0
 10
79.963940
 20
182.564553
 30
0.0
 10
80.617504
 20
182.564553
 30
0.0
 10
81.147972
 20
182.870819
 30
0.0
  0
SPLINE
  5
195
100
AcDbEntity
  8
0
 62
7
100
AcDbSpline
 70
8
 71
3
 72
8
 73
4
 74
0
 40
0
 40
0
 40
0
 40
0
 40
1
 40
1
 40
1
 40
1
 10
81.147972
 20
182.870819
 30
0.0
 10
81.678440
 20
183.177085
 30
0.0
 10
82.005222
 20
183.743088
 30
0.0
 10
82.005222
 20
184.355620
 30
0.0
  0
LWPOLYLINE
  5
196
100
AcDbEntity
  8
0
 62
7
100
AcDbPolyline
 90
1
 70
1
 10
82.005222
 20
5.605596
 30
0.0
  0
SPLINE
  5
197
100
AcDbEntity
  8
0
 62
7
100
AcDbSpline
 70
8
 71
3
 72
8
 73
4
 74
0
 40
0
 40
0
 40
0
 40
0
 40
1
 40
1
 40
1
 40
1
 10
164.820002
 20
135.355634
 30
0.0
 10
164.820002
 20
135.968166
 30
0.0
 10
164.493220
 20
136.534169
 30
0.0
 10
163.962752
 20
136.840435
 30
0.0
  0
SPLINE
  5
198
100
AcDbEntity
  8
0
 62
7
100
AcDbSpline
 70
8
 71
3
 72
8
 73
4
 74
0
 40
0
 40
0
 40
0
 40
0
 40
1
 40
1
 40
1
 40
1
 10
163.962752
 20
136.840435
 30
0.0
 10
163.432284
 20
137.146701
 30
0.0
 10
162.778720
 20
137.146701
 30
0.0
 10
162.248252
 20
136.840435
 30
0.0
  0
SPLINE
  5
199
100
AcDbEntity
  8
0
 62
7
100
AcDbSpline
 70
8
 71
3
 72
8
 73
4
 74
0
 40
0
 40
0
 40
0
 40
0
 40
1
 40
1
 40
1
 40
1
 10
162.248252
 20
136.840435
 30
0.0
 10
161.717784
 20
136.534169
 30
0.0
 10
161.391002
 20
135.968166
 30
0.0
 10
161.391002
 20
135.355634
 30
0.0
  0
SPLINE
  5
19a
100
AcDbEntity
  8
0
 62
7
100
AcDbSpline
 70
8
 71
3
 72
8
 73
4
 74
0
 40
0
 40
0
 40
0
 40
0
 40
1
 40
1
 40
1
 40
1
 10
161.391002
 20
135.355634
 30
0.0
 10
161.391002
 20
134.743102
 30
0.0
 10
161.717784
 20
134.177100
 30
0.0
 10
162.248252
 20
133.870834
 30
0.0
  0
SPLINE
  5
19b
100
AcDbEntity
  8
0
 62
7
100
AcDbSpline
 70
8
 71
3
 72
8
 73
4
 74
0
 40
0
 40
0
 40
0
 40
0
 40
1
 40
1
 40
1
 40
1
 10
162.248252
 20
133.870834
 30
0.0
 10
162.778720
 20
133.564568
 30
0.0
 10
163.432284
 20
133.564568
 30
0.0
 10
163.962752
 20
133.870834
 30
0.0
  0
SPLINE
  5
19c
100
AcDbEntity
  8
0
 62
7
100
AcDbSpline
 70
8
 71
3
 72
8
 73
4
 74
0
 40
0
 40
0
 40
0
 40
0
 40
1
 40
1
 40
1
 40
1
 10
163.962752
 20
133.870834
 30
0.0
 10
164.493220
 20
134.177100
 30
0.0
 10
164.820002
 20
134.743102
 30
0.0
 10
164.820002
 20
135.355634
 30
0.0
  0
LWPOLYLINE
  5
19d
100
AcDbEntity
  8
0
 62
7
100
AcDbPolyline
 90
1
 70
1
 10
82.005222
 20
184.355620
 30
0.0
  0
SPLINE
  5
19e
100
AcDbEntity
  8
0
 62
7
100
AcDbSpline
 70
8
 71
3
 72
8
 73
4
 74
0
 40
0
 40
0
 40
0
 40
0
 40
1
 40
1
 40
1
 40
1
 10
164.820002
 20
54.926635
 30
0.0
 10
164.820002
 20
55.539167
 30
0.0
 10
164.493220
 20
56.105169
 30
0.0
 10
163.962752
 20
56.411435
 30
0.0
  0
SPLINE
  5
19f
100
AcDbEntity
  8
0
 62
7
100
AcDbSpline
 70
8
 71
3
 72
8
 73
4
 74
0
 40
0
 40
0
 40
0
 40
0
 40
1
 40
1
 40
1
 40
1
 10
163.962752
 20
56.411435
 30
0.0
 10
163.432284
 20
56.717701
 30
0.0
 10
162.778720
 20
56.717701
 30
0.0
 10
162.248252
 20
56.411435
 30
0.0
  0
SPLINE
  5
1a0
100
AcDbEntity
  8
0
 62
7
100
AcDbSpline
 70
8
 71
3
 72
8
 73
4
 74
0
 40
0
 40
0
 40
0
 40
0
 40
1
 40
1
 40
1
 40
1
 10
162.248252
 20
56.411435
 30
0.0
 10
161.717784
 20
56.105169
 30
0.0
 10
161.391002
 20
55.539167
 30
0.0
 10
161.391002
 20
54.926635
 30
0.0
  0
SPLINE
  5
1a1
100
AcDbEntity
  8
0
 62
7
100
AcDbSpline
 70
8
 71
3
 72
8
 73
4
 74
0
 40
0
 40
0
 40
0
 40
0
 40
1
 40
1
 40
1
 40
1
 10
161.391002
 20
54.926635
 30
0.0
 10
161.391002
 20
54.314103
 30
0.0
 10
161.717784
 20
53.748100
 30
0.0
 10
162.248252
 20
53.441834
 30
0.0
  0
SPLINE
  5
1a2
100
AcDbEntity
  8
0
 62
7
100
AcDbSpline
 70
8
 71
3
 72
8
 73
4
 74
0
 40
0
 40
0
 40
0
 40
0
 40
1
 40
1
 40
1
 40
1
 10
162.248252
 20
53.441834
 30
0.0
 10
162.778720
 20
53.135568
 30
0.0
 10
163.432284
 20
53.135568
 30
0.0
 10
163.962752
 20
53.441834
 30
0.0
  0
SPLINE
  5
1a3
100
AcDbEntity
  8
0
 62
7
100
AcDbSpline
 70
8
 71
3
 72
8
 73
4
 74
0
 40
0
 40
0
 40
0
 40
0
 40
1
 40
1
 40
1
 40
1
 10
163.962752
 20
53.441834
 30
0.0
 10
164.493220
 20
53.748100
 30
0.0
 10
164.820002
 20
54.314103
 30
0.0
 10
164.820002
 20
54.926635
 30
0.0
  0
LWPOLYLINE
  5
1a4
100
AcDbEntity
  8
0
 62
7
100
AcDbPolyline
 90
1
 70
1
 10
164.820002
 20
135.355634
 30
0.0
  0
SPLINE
  5
1a5
100
AcDbEntity
  8
0
 62
7
100
AcDbSpline
 70
8
 71
3
 72
8
 73
4
 74
0
 40
0
 40
0
 40
0
 40
0
 40
1
 40
1
 40
1
 40
1
 10
139.069990
 20
95.105609
 30
0.0
 10
139.069990
 20
95.718141
 30
0.0
 10
138.743208
 20
96.284144
 30
0.0
 10
138.212740
 20
96.590409
 30
0.0
  0
SPLINE
  5
1a6
100
AcDbEntity
  8
0
 62
7
100
AcDbSpline
 70
8
 71
3
 72
8
 73
4
 74
0
 40
0
 40
0
 40
0
 40
0
 40
1
 40
1
 40
1
 40
1
 10
138.212740
 20
96.590409
 30
0.0
 10
137.682272
 20
96.896675
 30
0.0
 10
137.028708
 20
96.896675
 30
0.0
 10
136.498240
 20
96.590409
 30
0.0
  0
SPLINE
  5
1a7
100
AcDbEntity
  8
0
 62
7
100
AcDbSpline
 70
8
 71
3
 72
8
 73
4
 74
0
 40
0
 40
0
 40
0
 40
0
 40
1
 40
1
 40
1
 40
1
 10
136.498240
 20
96.590409
 30
0.0
 10
135.967772
 20
96.284144
 30
0.0
 10
135.640990
 20
95.718141
 30
0.0
 10
135.640990
 20
95.105609
 30
0.0
  0
SPLINE
  5
1a8
100
AcDbEntity
  8
0
 62
7
100
AcDbSpline
 70
8
 71
3
 72
8
 73
4
 74
0
 40
0
 40
0
 40
0
 40
0
 40
1
 40
1
 40
1
 40
1
 10
135.640990
 20
95.105609
 30
0.0
 10
135.640990
 20
94.493077
 30
0.0
 10
135.967772
 20
93.927074
 30
0.0
 10
136.498240
 20
93.620808
 30
0.0
  0
SPLINE
  5
1a9
100
AcDbEntity
  8
0
 62
7
100
AcDbSpline
 70
8
 71
3
 72
8
 73
4
 74
0
 40
0
 40
0
 40
0
 40
0
 40
1
 40
1
 40
1
 40
1
 10
136.498240
 20
93.620808
 30
0.0
 10
137.028708
 20
93.314542
 30
0.0
 10
137.682272
 20
93.314542
 30
0.0
 10
138.212740
 20
93.620808
 30
0.0
  0
SPLINE
  5
1aa
100
AcDbEntity
  8
0
 62
7
100
AcDbSpline
 70
8
 71
3
 72
8
 73
4
 74
0
 40
0
 40
0
 40
0
 40
0
 40
1
 40
1
 40
1
 40
1
 10
138.212740
 20
93.620808
 30
0.0
 10
138.743208
 20
93.927074
 30
0.0
 10
139.069990
 20
94.493077
 30
0.0
 10
139.069990
 20
95.105609
 30
0.0
  0
LWPOLYLINE
  5
1ab
100
AcDbEntity
  8
0
 62
7
100
AcDbPolyline
 90
1
 70
1
 10
164.820002
 20
54.926635
 30
0.0
  0
SPLINE
  5
1ac
100
AcDbEntity
  8
0
 62
7
100
AcDbSpline
 70
8
 71
3
 72
8
 73
4
 74
0
 40
0
 40
0
 40
0
 40
0
 40
1
 40
1
 40
1
 40
1
 10
123.069988
 20
146.855609
 30
0.0
 10
123.069988
 20
147.468140
 30
0.0
 10
122.743206
 20
148.034143
 30
0.0
 10
122.212738
 20
148.340409
 30
0.0
  0
SPLINE
  5
1ad
100
AcDbEntity
  8
0
 62
7
100
AcDbSpline
 70
8
 71
3
 72
8
 73
4
 74
0
 40
0
 40
0
 40
0
 40
0
 40
1
 40
1
 40
1
 40
1
 10
122.212738
 20
148.340409
 30
0.0
 10
121.682269
 20
148.646675
 30
0.0
 10
121.028706
 20
148.646675
 30
0.0
 10
120.498238
 20
148.340409
 30
0.0
  0
SPLINE
  5
1ae
100
AcDbEntity
  8
0
 62
7
100
AcDbSpline
 70
8
 71
3
 72
8
 73
4
 74
0
 40
0
 40
0
 40
0
 40
0
 40
1
 40
1
 40
1
 40
1
 10
120.498238
 20
148.340409
 30
0.0
 10
119.967769
 20
148.034143
 30
0.0
 10
119.640988
 20
147.468140
 30
0.0
 10
119.640988
 20
146.855609
 30
0.0
  0
SPLINE
  5
1af
100
AcDbEntity
  8
0
 62
7
100
AcDbSpline
 70
8
 71
3
 72
8
 73
4
 74
0
 40
0
 40
0
 40
0
 40
0
 40
1
 40
1
 40
1
 40
1
 10
119.640988
 20
146.855609
 30
0.0
 10
119.640988
 20
146.243077
 30
0.0
 10
119.967769
 20
145.677074
 30
0.0
 10
120.498238
 20
145.370808
 30
0.0
  0
SPLINE
  5
1b0
100
AcDbEntity
  8
0
 62
7
100
AcDbSpline
 70
8
 71
3
 72
8
 73
4
 74
0
 40
0
 40
0
 40
0
 40
0
 40
1
 40
1
 40
1
 40
1
 10
120.498238
 20
145.370808
 30
0.0
 10
121.028706
 20
145.064542
 30
0.0
 10
121.682269
 20
145.064542
 30
0.0
 10
122.212738
 20
145.370808
 30
0.0
  0
SPLINE
  5
1b1
100
AcDbEntity
  8
0
 62
7
100
AcDbSpline
 70
8
 71
3
 72
8
 73
4
 74
0
 40
0
 40
0
 40
0
 40
0
 40
1
 40
1
 40
1
 40
1
 10
122.212738
 20
145.370808
 30
0.0
 10
122.743206
 20
145.677074
 30
0.0
 10
123.069988
 20
146.243077
 30
0.0
 10
123.069988
 20
146.855609
 30
0.0
  0
LWPOLYLINE
  5
1b2
100
AcDbEntity
  8
0
 62
7
100
AcDbPolyline
 90
1
 70
1
 10
139.069990
 20
95.105609
 30
0.0
  0
SPLINE
  5
1b3
100
AcDbEntity
  8
0
 62
7
100
AcDbSpline
 70
8
 71
3
 72
8
 73
4
 74
0
 40
0
 40
0
 40
0
 40
0
 40
1
 40
1
 40
1
 40
1
 10
123.069988
 20
133.355607
 30
0.0
 10
123.069988
 20
133.968138
 30
0.0
 10
122.743206
 20
134.534141
 30
0.0
 10
122.212738
 20
134.840407
 30
0.0
  0
SPLINE
  5
1b4
100
AcDbEntity
  8
0
 62
7
100
AcDbSpline
 70
8
 71
3
 72
8
 73
4
 74
0
 40
0
 40
0
 40
0
 40
0
 40
1
 40
1
 40
1
 40
1
 10
122.212738
 20
134.840407
 30
0.0
 10
121.682269
 20
135.146673
 30
0.0
 10
121.028706
 20
135.146673
 30
0.0
 10
120.498238
 20
134.840407
 30
0.0
  0
SPLINE
  5
1b5
100
AcDbEntity
  8
0
 62
7
100
AcDbSpline
 70
8
 71
3
 72
8
 73
4
 74
0
 40
0
 40
0
 40
0
 40
0
 40
1
 40
1
 40
1
 40
1
 10
120.498238
 20
134.840407
 30
0.0
 10
119.967769
 20
134.534141
 30
0.0
 10
119.640988
 20
133.968138
 30
0.0
 10
119.640988
 20
133.355607
 30
0.0
  0
SPLINE
  5
1b6
100
AcDbEntity
  8
0
 62
7
100
AcDbSpline
 70
8
 71
3
 72
8
 73
4
 74
0
 40
0
 40
0
 40
0
 40
0
 40
1
 40
1
 40
1
 40
1
 10
119.640988
 20
133.355607
 30
0.0
 10
119.640988
 20
132.743075
 30
0.0
 10
119.967769
 20
132.177072
 30
0.0
 10
120.498238
 20
131.870806
 30
0.0
  0
SPLINE
  5
1b7
100
AcDbEntity
  8
0
 62
7
100
AcDbSpline
 70
8
 71
3
 72
8
 73
4
 74
0
 40
0
 40
0
 40
0
 40
0
 40
1
 40
1
 40
1
 40
1
 10
120.498238
 20
131.870806
 30
0.0
 10
121.028706
 20
131.564540
 30
0.0
 10
121.682269
 20
131.564540
 30
0.0
 10
122.212738
 20
131.870806
 30
0.0
  0
SPLINE
  5
1b8
100
AcDbEntity
  8
0
 62
7
100
AcDbSpline
 70
8
 71
3
 72
8
 73
4
 74
0
 40
0
 40
0
 40
0
 40
0
 40
1
 40
1
 40
1
 40
1
 10
122.212738
 20
131.870806
 30
0.0
 10
122.743206
 20
132.177072
 30
0.0
 10
123.069988
 20
132.743075
 30
0.0
 10
123.069988
 20
133.355607
 30
0.0
  0
LWPOLYLINE
  5
1b9
100
AcDbEntity
  8
0
 62
7
100
AcDbPolyline
 90
1
 70
1
 10
123.069988
 20
146.855609
 30
0.0
  0
SPLINE
  5
1ba
100
AcDbEntity
  8
0
 62
7
100
AcDbSpline
 70
8
 71
3
 72
8
 73
4
 74
0
 40
0
 40
0
 40
0
 40
0
 40
1
 40
1
 40
1
 40
1
 10
155.069990
 20
101.855609
 30
0.0
 10
155.069990
 20
102.468141
 30
0.0
 10
154.743208
 20
103.034143
 30
0.0
 10
154.212740
 20
103.340409
 30
0.0
  0
SPLINE
  5
1bb
100
AcDbEntity
  8
0
 62
7
100
AcDbSpline
 70
8
 71
3
 72
8
 73
4
 74
0
 40
0
 40
0
 40
0
 40
0
 40
1
 40
1
 40
1
 40
1
 10
154.212740
 20
103.340409
 30
0.0
 10
153.682272
 20
103.646675
 30
0.0
 10
153.028708
 20
103.646675
 30
0.0
 10
152.498240
 20
103.340409
 30
0.0
  0
SPLINE
  5
1bc
100
AcDbEntity
  8
0
 62
7
100
AcDbSpline
 70
8
 71
3
 72
8
 73
4
 74
0
 40
0
 40
0
 40
0
 40
0
 40
1
 40
1
 40
1
 40
1
 10
152.498240
 20
103.340409
 30
0.0
 10
151.967772
 20
103.034143
 30
0.0
 10
151.640990
 20
102.468141
 30
0.0
 10
151.640990
 20
101.855609
 30
0.0
  0
SPLINE
  5
1bd
100
AcDbEntity
  8
0
 62
7
100
AcDbSpline
 70
8
 71
3
 72
8
 73
4
 74
0
 40
0
 40
0
 40
0
 40
0
 40
1
 40
1
 40
1
 40
1
 10
151.640990
 20
101.855609
 30
0.0
 10
151.640990
 20
101.243077
 30
0.0
 10
151.967772
 20
100.677074
 30
0.0
 10
152.498240
 20
100.370808
 30
0.0
  0
SPLINE
  5
1be
100
AcDbEntity
  8
0
 62
7
100
AcDbSpline
 70
8
 71
3
 72
8
 73
4
 74
0
 40
0
 40
0
 40
0
 40
0
 40
1
 40
1
 40
1
 40
1
 10
152.498240
 20
100.370808
 30
0.0
 10
153.028708
 20
100.064542
 30
0.0
 10
153.682272
 20
100.064542
 30
0.0
 10
154.212740
 20
100.370808
 30
0.0
  0
SPLINE
  5
1bf
100
AcDbEntity
  8
0
 62
7
100
AcDbSpline
 70
8
 71
3
 72
8
 73
4
 74
0
 40
0
 40
0
 40
0
 40
0
 40
1
 40
1
 40
1
 40
1
 10
154.212740
 20
100.370808
 30
0.0
 10
154.743208
 20
100.677074
 30
0.0
 10
155.069990
 20
101.243077
 30
0.0
 10
155.069990
 20
101.855609
 30
0.0
  0
LWPOLYLINE
  5
1c0
100
AcDbEntity
  8
0
 62
7
100
AcDbPolyline
 90
1
 70
1
 10
123.069988
 20
133.355607
 30
0.0
  0
SPLINE
  5
1c1
100
AcDbEntity
  8
0
 62
7
100
AcDbSpline
 70
8
 71
3
 72
8
 73
4
 74
0
 40
0
 40
0
 40
0
 40
0
 40
1
 40
1
 40
1
 40
1
 10
155.069990
 20
88.355607
 30
0.0
 10
155.069990
 20
88.968138
 30
0.0
 10
154.743208
 20
89.534141
 30
0.0
 10
154.212740
 20
89.840407
 30
0.0
  0
SPLINE
  5
1c2
100
AcDbEntity
  8
0
 62
7
100
AcDbSpline
 70
8
 71
3
 72
8
 73
4
 74
0
 40
0
 40
0
 40
0
 40
0
 40
1
 40
1
 40
1
 40
1
 10
154.212740
 20
89.840407
 30
0.0
 10
153.682272
 20
90.146673
 30
0.0
 10
153.028708
 20
90.146673
 30
0.0
 10
152.498240
 20
89.840407
 30
0.0
  0
SPLINE
  5
1c3
100
AcDbEntity
  8
0
 62
7
100
AcDbSpline
 70
8
 71
3
 72
8
 73
4
 74
0
 40
0
 40
0
 40
0
 40
0
 40
1
 40
1
 40
1
 40
1
 10
152.498240
 20
89.840407
 30
0.0
 10
151.967772
 20
89.534141
 30
0.0
 10
151.640990
 20
88.968138
 30
0.0
 10
151.640990
 20
88.355607
 30
0.0
  0
SPLINE
  5
1c4
100
AcDbEntity
  8
0
 62
7
100
AcDbSpline
 70
8
 71
3
 72
8
 73
4
 74
0
 40
0
 40
0
 40
0
 40
0
 40
1
 40
1
 40
1
 40
1
 10
151.640990
 20
88.355607
 30
0.0
 10
151.640990
 20
87.743075
 30
0.0
 10
151.967772
 20
87.177072
 30
0.0
 10
152.498240
 20
86.870806
 30
0.0
  0
SPLINE
  5
1c5
100
AcDbEntity
  8
0
 62
7
100
AcDbSpline
 70
8
 71
3
 72
8
 73
4
 74
0
 40
0
 40
0
 40
0
 40
0
 40
1
 40
1
 40
1
 40
1
 10
152.498240
 20
86.870806
 30
0.0
 10
153.028708
 20
86.564540
 30
0.0
 10
153.682272
 20
86.564540
 30
0.0
 10
154.212740
 20
86.870806
 30
0.0
  0
SPLINE
  5
1c6
100
AcDbEntity
  8
0
 62
7
100
AcDbSpline
 70
8
 71
3
 72
8
 73
4
 74
0
 40
0
 40
0
 40
0
 40
0
 40
1
 40
1
 40
1
 40
1
 10
154.212740
 20
86.870806
 30
0.0
 10
154.743208
 20
87.177072
 30
0.0
 10
155.069990
 20
87.743075
 30
0.0
 10
155.069990
 20
88.355607
 30
0.0
  0
LWPOLYLINE
  5
1c7
100
AcDbEntity
  8
0
 62
7
100
AcDbPolyline
 90
1
 70
1
 10
155.069990
 20
101.855609
 30
0.0
  0
SPLINE
  5
1c8
100
AcDbEntity
  8
0
 62
7
100
AcDbSpline
 70
8
 71
3
 72
8
 73
4
 74
0
 40
0
 40
0
 40
0
 40
0
 40
1
 40
1
 40
1
 40
1
 10
123.069988
 20
56.855609
 30
0.0
 10
123.069988
 20
57.468141
 30
0.0
 10
122.743206
 20
58.034143
 30
0.0
 10
122.212738
 20
58.340409
 30
0.0
  0
SPLINE
  5
1c9
100
AcDbEntity
  8
0
 62
7
100
AcDbSpline
 70
8
 71
3
 72
8
 73
4
 74
0
 40
0
 40
0
 40
0
 40
0
 40
1
 40
1
 40
1
 40
1
 10
122.212738
 20
58.340409
 30
0.0
 10
121.682269
 20
58.646675
 30
0.0
 10
121.028706
 20
58.646675
 30
0.0
 10
120.498238
 20
58.340409
 30
0.0
  0
SPLINE
  5
1ca
100
AcDbEntity
  8
0
 62
7
100
AcDbSpline
 70
8
 71
3
 72
8
 73
4
 74
0
 40
0
 40
0
 40
0
 40
0
 40
1
 40
1
 40
1
 40
1
 10
120.498238
 20
58.340409
 30
0.0
 10
119.967769
 20
58.034143
 30
0.0
 10
119.640988
 20
57.468141
 30
0.0
 10
119.640988
 20
56.855609
 30
0.0
  0
SPLINE
  5
1cb
100
AcDbEntity
  8
0
 62
7
100
AcDbSpline
 70
8
 71
3
 72
8
 73
4
 74
0
 40
0
 40
0
 40
0
 40
0
 40
1
 40
1
 40
1
 40
1
 10
119.640988
 20
56.855609
 30
0.0
 10
119.640988
 20
56.243077
 30
0.0
 10
119.967769
 20
55.677074
 30
0.0
 10
120.498238
 20
55.370808
 30
0.0
  0
SPLINE
  5
1cc
100
AcDbEntity
  8
0
 62
7
100
AcDbSpline
 70
8
 71
3
 72
8
 73
4
 74
0
 40
0
 40
0
 40
0
 40
0
 40
1
 40
1
 40
1
 40
1
 10
120.498238
 20
55.370808
 30
0.0
 10
121.028706
 20
55.064542
 30
0.0
 10
121.682269
 20
55.064542
 30
0.0
 10
122.212738
 20
55.370808
 30
0.0
  0
SPLINE
  5
1cd
100
AcDbEntity
  8
0
 62
7
100
AcDbSpline
 70
8
 71
3
 72
8
 73
4
 74
0
 40
0
 40
0
 40
0
 40
0
 40
1
 40
1
 40
1
 40
1
 10
122.212738
 20
55.370808
 30
0.0
 10
122.743206
 20
55.677074
 30
0.0
 10
123.069988
 20
56.243077
 30
0.0
 10
123.069988
 20
56.855609
 30
0.0
  0
LWPOLYLINE
  5
1ce
100
AcDbEntity
  8
0
 62
7
100
AcDbPolyline
 90
1
 70
1
 10
155.069990
 20
88.355607
 30
0.0
  0
SPLINE
  5
1cf
100
AcDbEntity
  8
0
 62
7
100
AcDbSpline
 70
8
 71
3
 72
8
 73
4
 74
0
 40
0
 40
0
 40
0
 40
0
 40
1
 40
1
 40
1
 40
1
 10
123.069988
 20
43.355609
 30
0.0
 10
123.069988
 20
43.968141
 30
0.0
 10
122.743206
 20
44.534144
 30
0.0
 10
122.212738
 20
44.840410
 30
0.0
  0
SPLINE
  5
1d0
100
AcDbEntity
  8
0
 62
7
100
AcDbSpline
 70
8
 71
3
 72
8
 73
4
 74
0
 40
0
 40
0
 40
0
 40
0
 40
1
 40
1
 40
1
 40
1
 10
122.212738
 20
44.840410
 30
0.0
 10
121.682269
 20
45.146676
 30
0.0
 10
121.028706
 20
45.146676
 30
0.0
 10
120.498238
 20
44.840410
 30
0.0
  0
SPLINE
  5
1d1
100
AcDbEntity
  8
0
 62
7
100
AcDbSpline
 70
8
 71
3
 72
8
 73
4
 74
0
 40
0
 40
0
 40
0
 40
0
 40
1
 40
1
 40
1
 40
1
 10
120.498238
 20
44.840410
 30
0.0
 10
119.967769
 20
44.534144
 30
0.0
 10
119.640988
 20
43.968141
 30
0.0
 10
119.640988
 20
43.355609
 30
0.0
  0
SPLINE
  5
1d2
100
AcDbEntity
  8
0
 62
7
100
AcDbSpline
 70
8
 71
3
 72
8
 73
4
 74
0
 40
0
 40
0
 40
0
 40
0
 40
1
 40
1
 40
1
 40
1
 10
119.640988
 20
43.355609
 30
0.0
 10
119.640988
 20
42.743077
 30
0.0
 10
119.967769
 20
42.177075
 30
0.0
 10
120.498238
 20
41.870809
 30
0.0
  0
SPLINE
  5
1d3
100
AcDbEntity
  8
0
 62
7
100
AcDbSpline
 70
8
 71
3
 72
8
 73
4
 74
0
 40
0
 40
0
 40
0
 40
0
 40
1
 40
1
 40
1
 40
1
 10
120.498238
 20
41.870809
 30
0.0
 10
121.028706
 20
41.564543
 30
0.0
 10
121.682269
 20
41.564543
 30
0.0
 10
122.212738
 20
41.870809
 30
0.0
  0
SPLINE
  5
1d4
100
AcDbEntity
  8
0
 62
7
100
AcDbSpline
 70
8
 71
3
 72
8
 73
4
 74
0
 40
0
 40
0
 40
0
 40
0
 40
1
 40
1
 40
1
 40
1
 10
122.212738
 20
41.870809
 30
0.0
 10
122.743206
 20
42.177075
 30
0.0
 10
123.069988
 20
42.743077
 30
0.0
 10
123.069988
 20
43.355609
 30
0.0
  0
LWPOLYLINE
  5
1d5
100
AcDbEntity
  8
0
 62
7
100
AcDbPolyline
 90
1
 70
1
 10
123.069988
 20
56.855609
 30
0.0
  0
SPLINE
  5
1d6
100
AcDbEntity
  8
0
 62
7
100
AcDbSpline
 70
8
 71
3
 72
8
 73
4
 74
0
 40
0
 40
0
 40
0
 40
0
 40
1
 40
1
 40
1
 40
1
 10
164.819989
 20
184.355610
 30
0.0
 10
164.819989
 20
184.968142
 30
0.0
 10
164.493207
 20
185.534145
 30
0.0
 10
163.962739
 20
185.840411
 30
0.0
  0
SPLINE
  5
1d7
100
AcDbEntity
  8
0
 62
7
100
AcDbSpline
 70
8
 71
3
 72
8
 73
4
 74
0
 40
0
 40
0
 40
0
 40
0
 40
1
 40
1
 40
1
 40
1
 10
163.962739
 20
185.840411
 30
0.0
 10
163.432271
 20
186.146677
 30
0.0
 10
162.778707
 20
186.146677
 30
0.0
 10
162.248239
 20
185.840411
 30
0.0
  0
SPLINE
  5
1d8
100
AcDbEntity
  8
0
 62
7
100
AcDbSpline
 70
8
 71
3
 72
8
 73
4
 74
0
 40
0
 40
0
 40
0
 40
0
 40
1
 40
1
 40
1
 40
1
 10
162.248239
 20
185.840411
 30
0.0
 10
161.717771
 20
185.534145
 30
0.0
 10
161.390989
 20
184.968142
 30
0.0
 10
161.390989
 20
184.355610
 30
0.0
  0
SPLINE
  5
1d9
100
AcDbEntity
  8
0
 62
7
100
AcDbSpline
 70
8
 71
3
 72
8
 73
4
 74
0
 40
0
 40
0
 40
0
 40
0
 40
1
 40
1
 40
1
 40
1
 10
161.390989
 20
184.355610
 30
0.0
 10
161.390989
 20
183.743079
 30
0.0
 10
161.717771
 20
183.177076
 30
0.0
 10
162.248239
 20
182.870810
 30
0.0
  0
SPLINE
  5
1da
100
AcDbEntity
  8
0
 62
7
100
AcDbSpline
 70
8
 71
3
 72
8
 73
4
 74
0
 40
0
 40
0
 40
0
 40
0
 40
1
 40
1
 40
1
 40
1
 10
162.248239
 20
182.870810
 30
0.0
 10
162.778707
 20
182.564544
 30
0.0
 10
163.432271
 20
182.564544
 30
0.0
 10
163.962739
 20
182.870810
 30
0.0
  0
SPLINE
  5
1db
100
AcDbEntity
  8
0
 62
7
100
AcDbSpline
 70
8
 71
3
 72
8
 73
4
 74
0
 40
0
 40
0
 40
0
 40
0
 40
1
 40
1
 40
1
 40
1
 10
163.962739
 20
182.870810
 30
0.0
 10
164.493207
 20
183.177076
 30
0.0
 10
164.819989
 20
183.743079
 30
0.0
 10
164.819989
 20
184.355610
 30
0.0
  0
LWPOLYLINE
  5
1dc
100
AcDbEntity
  8
0
 62
7
100
AcDbPolyline
 90
1
 70
1
 10
123.069988
 20
43.355609
 30
0.0
  0
SPLINE
  5
1dd
100
AcDbEntity
  8
0
 62
7
100
AcDbSpline
 70
8
 71
3
 72
8
 73
4
 74
0
 40
0
 40
0
 40
0
 40
0
 40
1
 40
1
 40
1
 40
1
 10
164.819989
 20
5.605619
 30
0.0
 10
164.819989
 20
6.218150
 30
0.0
 10
164.493207
 20
6.784153
 30
0.0
 10
163.962739
 20
7.090419
 30
0.0
  0
SPLINE
  5
1de
100
AcDbEntity
  8
0
 62
7
100
AcDbSpline
 70
8
 71
3
 72
8
 73
4
 74
0
 40
0
 40
0
 40
0
 40
0
 40
1
 40
1
 40
1
 40
1
 10
163.962739
 20
7.090419
 30
0.0
 10
163.432271
 20
7.396685
 30
0.0
 10
162.778707
 20
7.396685
 30
0.0
 10
162.248239
 20
7.090419
 30
0.0
  0
SPLINE
  5
1df
100
AcDbEntity
  8
0
 62
7
100
AcDbSpline
 70
8
 71
3
 72
8
 73
4
 74
0
 40
0
 40
0
 40
0
 40
0
 40
1
 40
1
 40
1
 40
1
 10
162.248239
 20
7.090419
 30
0.0
 10
161.717771
 20
6.784153
 30
0.0
 10
161.390989
 20
6.218150
 30
0.0
 10
161.390989
 20
5.605619
 30
0.0
  0
SPLINE
  5
1e0
100
AcDbEntity
  8
0
 62
7
100
AcDbSpline
 70
8
 71
3
 72
8
 73
4
 74
0
 40
0
 40
0
 40
0
 40
0
 40
1
 40
1
 40
1
 40
1
 10
161.390989
 20
5.605619
 30
0.0
 10
161.390989
 20
4.993087
 30
0.0
 10
161.717771
 20
4.427084
 30
0.0
 10
162.248239
 20
4.120818
 30
0.0
  0
SPLINE
  5
1e1
100
AcDbEntity
  8
0
 62
7
100
AcDbSpline
 70
8
 71
3
 72
8
 73
4
 74
0
 40
0
 40
0
 40
0
 40
0
 40
1
 40
1
 40
1
 40
1
 10
162.248239
 20
4.120818
 30
0.0
 10
162.778707
 20
3.814552
 30
0.0
 10
163.432271
 20
3.814552
 30
0.0
 10
163.962739
 20
4.120818
 30
0.0
  0
SPLINE
  5
1e2
100
AcDbEntity
  8
0
 62
7
100
AcDbSpline
 70
8
 71
3
 72
8
 73
4
 74
0
 40
0
 40
0
 40
0
 40
0
 40
1
 40
1
 40
1
 40
1
 10
163.962739
 20
4.120818
 30
0.0
 10
164.493207
 20
4.427084
 30
0.0
 10
164.819989
 20
4.993087
 30
0.0
 10
164.819989
 20
5.605619
 30
0.0
  0
LWPOLYLINE
  5
1e3
100
AcDbEntity
  8
0
 62
7
100
AcDbPolyline
 90
1
 70
1
 10
164.819989
 20
184.355610
 30
0.0
  0
SPLINE
  5
1e4
100
AcDbEntity
  8
0
 62
7
100
AcDbSpline
 70
8
 71
3
 72
8
 73
4
 74
0
 40
0
 40
0
 40
0
 40
0
 40
1
 40
1
 40
1
 40
1
 10
164.820005
 20
194.641137
 30
0.0
 10
164.820005
 20
195.253668
 30
0.0
 10
164.493223
 20
195.819671
 30
0.0
 10
163.962755
 20
196.125937
 30
0.0
  0
SPLINE
  5
1e5
100
AcDbEntity
  8
0
 62
7
100
AcDbSpline
 70
8
 71
3
 72
8
 73
4
 74
0
 40
0
 40
0
 40
0
 40
0
 40
1
 40
1
 40
1
 40
1
 10
163.962755
 20
196.125937
 30
0.0
 10
163.432287
 20
196.432203
 30
0.0
 10
162.778723
 20
196.432203
 30
0.0
 10
162.248255
 20
196.125937
 30
0.0
  0
SPLINE
  5
1e6
100
AcDbEntity
  8
0
 62
7
100
AcDbSpline
 70
8
 71
3
 72
8
 73
4
 74
0
 40
0
 40
0
 40
0
 40
0
 40
1
 40
1
 40
1
 40
1
 10
162.248255
 20
196.125937
 30
0.0
 10
161.717787
 20
195.819671
 30
0.0
 10
161.391005
 20
195.253668
 30
0.0
 10
161.391005
 20
194.641137
 30
0.0
  0
SPLINE
  5
1e7
100
AcDbEntity
  8
0
 62
7
100
AcDbSpline
 70
8
 71
3
 72
8
 73
4
 74
0
 40
0
 40
0
 40
0
 40
0
 40
1
 40
1
 40
1
 40
1
 10
161.391005
 20
194.641137
 30
0.0
 10
161.391005
 20
194.028605
 30
0.0
 10
161.717787
 20
193.462602
 30
0.0
 10
162.248255
 20
193.156336
 30
0.0
  0
SPLINE
  5
1e8
100
AcDbEntity
  8
0
 62
7
100
AcDbSpline
 70
8
 71
3
 72
8
 73
4
 74
0
 40
0
 40
0
 40
0
 40
0
 40
1
 40
1
 40
1
 40
1
 10
162.248255
 20
193.156336
 30
0.0
 10
162.778723
 20
192.850070
 30
0.0
 10
163.432287
 20
192.850070
 30
0.0
 10
163.962755
 20
193.156336
 30
0.0
  0
SPLINE
  5
1e9
100
AcDbEntity
  8
0
 62
7
100
AcDbSpline
 70
8
 71
3
 72
8
 73
4
 74
0
 40
0
 40
0
 40
0
 40
0
 40
1
 40
1
 40
1
 40
1
 10
163.962755
 20
193.156336
 30
0.0
 10
164.493223
 20
193.462602
 30
0.0
 10
164.820005
 20
194.028605
 30
0.0
 10
164.820005
 20
194.641137
 30
0.0
  0
LWPOLYLINE
  5
1ea
100
AcDbEntity
  8
0
 62
7
100
AcDbPolyline
 90
1
 70
1
 10
164.819989
 20
5.605619
 30
0.0
  0
LWPOLYLINE
  5
1eb
100
AcDbEntity
  8
0
 62
7
100
AcDbPolyline
 90
1
 70
1
 10
164.820005
 20
194.641137
 30
0.0
  0
LWPOLYLINE
  5
1ec
100
AcDbEntity
  8
0
 62
7
100
AcDbPolyline
 90
2
 70
0
 10
87.970003
 20
200.147367
 30
0.0
 10
87.970003
 20
0.130982
 30
0.0
  0
SPLINE
  5
1ed
100
AcDbEntity
  8
0
 62
7
100
AcDbSpline
 70
8
 71
3
 72
8
 73
4
 74
0
 40
0
 40
0
 40
0
 40
0
 40
1
 40
1
 40
1
 40
1
 10
96.634112
 20
162.355619
 30
0.0
 10
96.634112
 20
162.968150
 30
0.0
 10
96.307331
 20
163.534153
 30
0.0
 10
95.776862
 20
163.840419
 30
0.0
  0
SPLINE
  5
1ee
100
AcDbEntity
  8
0
 62
7
100
AcDbSpline
 70
8
 71
3
 72
8
 73
4
 74
0
 40
0
 40
0
 40
0
 40
0
 40
1
 40
1
 40
1
 40
1
 10
95.776862
 20
163.840419
 30
0.0
 10
95.246394
 20
164.146685
 30
0.0
 10
94.592831
 20
164.146685
 30
0.0
 10
94.062362
 20
163.840419
 30
0.0
  0
SPLINE
  5
1ef
100
AcDbEntity
  8
0
 62
7
100
AcDbSpline
 70
8
 71
3
 72
8
 73
4
 74
0
 40
0
 40
0
 40
0
 40
0
 40
1
 40
1
 40
1
 40
1
 10
94.062362
 20
163.840419
 30
0.0
 10
93.531894
 20
163.534153
 30
0.0
 10
93.205112
 20
162.968150
 30
0.0
 10
93.205112
 20
162.355619
 30
0.0
  0
SPLINE
  5
1f0
100
AcDbEntity
  8
0
 62
7
100
AcDbSpline
 70
8
 71
3
 72
8
 73
4
 74
0
 40
0
 40
0
 40
0
 40
0
 40
1
 40
1
 40
1
 40
1
 10
93.205112
 20
162.355619
 30
0.0
 10
93.205112
 20
161.743087
 30
0.0
 10
93.531894
 20
161.177084
 30
0.0
 10
94.062362
 20
160.870818
 30
0.0
  0
SPLINE
  5
1f1
100
AcDbEntity
  8
0
 62
7
100
AcDbSpline
 70
8
 71
3
 72
8
 73
4
 74
0
 40
0
 40
0
 40
0
 40
0
 40
1
 40
1
 40
1
 40
1
 10
94.062362
 20
160.870818
 30
0.0
 10
94.592831
 20
160.564552
 30
0.0
 10
95.246394
 20
160.564552
 30
0.0
 10
95.776862
 20
160.870818
 30
0.0
  0
SPLINE
  5
1f2
100
AcDbEntity
  8
0
 62
7
100
AcDbSpline
 70
8
 71
3
 72
8
 73
4
 74
0
 40
0
 40
0
 40
0
 40
0
 40
1
 40
1
 40
1
 40
1
 10
95.776862
 20
160.870818
 30
0.0
 10
96.307331
 20
161.177084
 30
0.0
 10
96.634112
 20
161.743087
 30
0.0
 10
96.634112
 20
162.355619
 30
0.0
  0
LWPOLYLINE
  5
1f3
100
AcDbEntity
  8
0
 62
7
100
AcDbPolyline
 90
4
 70
0
 10
87.972855
 20
0.135348
 30
0.0
 10
175.075757
 20
0.135348
 30
0.0
 10
175.075757
 20
200.146640
 30
0.0
 10
87.975062
 20
200.146640
 30
0.0
  0
SPLINE
  5
1f4
100
AcDbEntity
  8
0
 62
7
100
AcDbSpline
 70
8
 71
3
 72
8
 73
4
 74
0
 40
0
 40
0
 40
0
 40
0
 40
1
 40
1
 40
1
 40
1
 10
96.634112
 20
140.105616
 30
0.0
 10
96.634112
 20
140.718147
 30
0.0
 10
96.307331
 20
141.284150
 30
0.0
 10
95.776862
 20
141.590416
 30
0.0
  0
SPLINE
  5
1f5
100
AcDbEntity
  8
0
 62
7
100
AcDbSpline
 70
8
 71
3
 72
8
 73
4
 74
0
 40
0
 40
0
 40
0
 40
0
 40
1
 40
1
 40
1
 40
1
 10
95.776862
 20
141.590416
 30
0.0
 10
95.246394
 20
141.896682
 30
0.0
 10
94.592831
 20
141.896682
 30
0.0
 10
94.062362
 20
141.590416
 30
0.0
  0
SPLINE
  5
1f6
100
AcDbEntity
  8
0
 62
7
100
AcDbSpline
 70
8
 71
3
 72
8
 73
4
 74
0
 40
0
 40
0
 40
0
 40
0
 40
1
 40
1
 40
1
 40
1
 10
94.062362
 20
141.590416
 30
0.0
 10
93.531894
 20
141.284150
 30
0.0
 10
93.205112
 20
140.718147
 30
0.0
 10
93.205112
 20
140.105616
 30
0.0
  0
SPLINE
  5
1f7
100
AcDbEntity
  8
0
 62
7
100
AcDbSpline
 70
8
 71
3
 72
8
 73
4
 74
0
 40
0
 40
0
 40
0
 40
0
 40
1
 40
1
 40
1
 40
1
 10
93.205112
 20
140.105616
 30
0.0
 10
93.205112
 20
139.493084
 30
0.0
 10
93.531894
 20
138.927081
 30
0.0
 10
94.062362
 20
138.620815
 30
0.0
  0
SPLINE
  5
1f8
100
AcDbEntity
  8
0
 62
7
100
AcDbSpline
 70
8
 71
3
 72
8
 73
4
 74
0
 40
0
 40
0
 40
0
 40
0
 40
1
 40
1
 40
1
 40
1
 10
94.062362
 20
138.620815
 30
0.0
 10
94.592831
 20
138.314549
 30
0.0
 10
95.246394
 20
138.314549
 30
0.0
 10
95.776862
 20
138.620815
 30
0.0
  0
SPLINE
  5
1f9
100
AcDbEntity
  8
0
 62
7
100
AcDbSpline
 70
8
 71
3
 72
8
 73
4
 74
0
 40
0
 40
0
 40
0
 40
0
 40
1
 40
1
 40
1
 40
1
 10
95.776862
 20
138.620815
 30
0.0
 10
96.307331
 20
138.927081
 30
0.0
 10
96.634112
 20
139.493084
 30
0.0
 10
96.634112
 20
140.105616
 30
0.0
  0
LWPOLYLINE
  5
1fa
100
AcDbEntity
  8
0
 62
7
100
AcDbPolyline
 90
1
 70
1
 10
96.634112
 20
162.355619
 30
0.0
  0
SPLINE
  5
1fb
100
AcDbEntity
  8
0
 62
7
100
AcDbSpline
 70
8
 71
3
 72
8
 73
4
 74
0
 40
0
 40
0
 40
0
 40
0
 40
1
 40
1
 40
1
 40
1
 10
96.634112
 20
117.855618
 30
0.0
 10
96.634112
 20
118.468150
 30
0.0
 10
96.307331
 20
119.034152
 30
0.0
 10
95.776862
 20
119.340418
 30
0.0
  0
SPLINE
  5
1fc
100
AcDbEntity
  8
0
 62
7
100
AcDbSpline
 70
8
 71
3
 72
8
 73
4
 74
0
 40
0
 40
0
 40
0
 40
0
 40
1
 40
1
 40
1
 40
1
 10
95.776862
 20
119.340418
 30
0.0
 10
95.246394
 20
119.646684
 30
0.0
 10
94.592831
 20
119.646684
 30
0.0
 10
94.062362
 20
119.340418
 30
0.0
  0
SPLINE
  5
1fd
100
AcDbEntity
  8
0
 62
7
100
AcDbSpline
 70
8
 71
3
 72
8
 73
4
 74
0
 40
0
 40
0
 40
0
 40
0
 40
1
 40
1
 40
1
 40
1
 10
94.062362
 20
119.340418
 30
0.0
 10
93.531894
 20
119.034152
 30
0.0
 10
93.205112
 20
118.468150
 30
0.0
 10
93.205112
 20
117.855618
 30
0.0
  0
SPLINE
  5
1fe
100
AcDbEntity
  8
0
 62
7
100
AcDbSpline
 70
8
 71
3
 72
8
 73
4
 74
0
 40
0
 40
0
 40
0
 40
0
 40
1
 40
1
 40
1
 40
1
 10
93.205112
 20
117.855618
 30
0.0
 10
93.205112
 20
117.243086
 30
0.0
 10
93.531894
 20
116.677083
 30
0.0
 10
94.062362
 20
116.370817
 30
0.0
  0
SPLINE
  5
1ff
100
AcDbEntity
  8
0
 62
7
100
AcDbSpline
 70
8
 71
3
 72
8
 73
4
 74
0
 40
0
 40
0
 40
0
 40
0
 40
1
 40
1
 40
1
 40
1
 10
94.062362
 20
116.370817
 30
0.0
 10
94.592831
 20
116.064551
 30
0.0
 10
95.246394
 20
116.064551
 30
0.0
 10
95.776862
 20
116.370817
 30
0.0
  0
SPLINE
  5
200
100
AcDbEntity
  8
0
 62
7
100
AcDbSpline
 70
8
 71
3
 72
8
 73
4
 74
0
 40
0
 40
0
 40
0
 40
0
 40
1
 40
1
 40
1
 40
1
 10
95.776862
 20
116.370817
 30
0.0
 10
96.307331
 20
116.677083
 30
0.0
 10
96.634112
 20
117.243086
 30
0.0
 10
96.634112
 20
117.855618
 30
0.0
  0
LWPOLYLINE
  5
201
100
AcDbEntity
  8
0
 62
7
100
AcDbPolyline
 90
1
 70
1
 10
96.634112
 20
140.105616
 30
0.0
  0
SPLINE
  5
202
100
AcDbEntity
  8
0
 62
7
100
AcDbSpline
 70
8
 71
3
 72
8
 73
4
 74
0
 40
0
 40
0
 40
0
 40
0
 40
1
 40
1
 40
1
 40
1
 10
96.634112
 20
95.605617
 30
0.0
 10
96.634112
 20
96.218149
 30
0.0
 10
96.307331
 20
96.784152
 30
0.0
 10
95.776862
 20
97.090418
 30
0.0
  0
SPLINE
  5
203
100
AcDbEntity
  8
0
 62
7
100
AcDbSpline
 70
8
 71
3
 72
8
 73
4
 74
0
 40
0
 40
0
 40
0
 40
0
 40
1
 40
1
 40
1
 40
1
 10
95.776862
 20
97.090418
 30
0.0
 10
95.246394
 20
97.396684
 30
0.0
 10
94.592831
 20
97.396684
 30
0.0
 10
94.062362
 20
97.090418
 30
0.0
  0
SPLINE
  5
204
100
AcDbEntity
  8
0
 62
7
100
AcDbSpline
 70
8
 71
3
 72
8
 73
4
 74
0
 40
0
 40
0
 40
0
 40
0
 40
1
 40
1
 40
1
 40
1
 10
94.062362
 20
97.090418
 30
0.0
 10
93.531894
 20
96.784152
 30
0.0
 10
93.205112
 20
96.218149
 30
0.0
 10
93.205112
 20
95.605617
 30
0.0
  0
SPLINE
  5
205
100
AcDbEntity
  8
0
 62
7
100
AcDbSpline
 70
8
 71
3
 72
8
 73
4
 74
0
 40
0
 40
0
 40
0
 40
0
 40
1
 40
1
 40
1
 40
1
 10
93.205112
 20
95.605617
 30
0.0
 10
93.205112
 20
94.993085
 30
0.0
 10
93.531894
 20
94.427083
 30
0.0
 10
94.062362
 20
94.120817
 30
0.0
  0
SPLINE
  5
206
100
AcDbEntity
  8
0
 62
7
100
AcDbSpline
 70
8
 71
3
 72
8
 73
4
 74
0
 40
0
 40
0
 40
0
 40
0
 40
1
 40
1
 40
1
 40
1
 10
94.062362
 20
94.120817
 30
0.0
 10
94.592831
 20
93.814551
 30
0.0
 10
95.246394
 20
93.814551
 30
0.0
 10
95.776862
 20
94.120817
 30
0.0
  0
SPLINE
  5
207
100
AcDbEntity
  8
0
 62
7
100
AcDbSpline
 70
8
 71
3
 72
8
 73
4
 74
0
 40
0
 40
0
 40
0
 40
0
 40
1
 40
1
 40
1
 40
1
 10
95.776862
 20
94.120817
 30
0.0
 10
96.307331
 20
94.427083
 30
0.0
 10
96.634112
 20
94.993085
 30
0.0
 10
96.634112
 20
95.605617
 30
0.0
  0
LWPOLYLINE
  5
208
100
AcDbEntity
  8
0
 62
7
100
AcDbPolyline
 90
1
 70
1
 10
96.634112
 20
117.855618
 30
0.0
  0
SPLINE
  5
209
100
AcDbEntity
  8
0
 62
7
100
AcDbSpline
 70
8
 71
3
 72
8
 73
4
 74
0
 40
0
 40
0
 40
0
 40
0
 40
1
 40
1
 40
1
 40
1
 10
96.634112
 20
72.355619
 30
0.0
 10
96.634112
 20
72.968151
 30
0.0
 10
96.307331
 20
73.534153
 30
0.0
 10
95.776862
 20
73.840419
 30
0.0
  0
SPLINE
  5
20a
100
AcDbEntity
  8
0
 62
7
100
AcDbSpline
 70
8
 71
3
 72
8
 73
4
 74
0
 40
0
 40
0
 40
0
 40
0
 40
1
 40
1
 40
1
 40
1
 10
95.776862
 20
73.840419
 30
0.0
 10
95.246394
 20
74.146685
 30
0.0
 10
94.592831
 20
74.146685
 30
0.0
 10
94.062362
 20
73.840419
 30
0.0
  0
SPLINE
  5
20b
100
AcDbEntity
  8
0
 62
7
100
AcDbSpline
 70
8
 71
3
 72
8
 73
4
 74
0
 40
0
 40
0
 40
0
 40
0
 40
1
 40
1
 40
1
 40
1
 10
94.062362
 20
73.840419
 30
0.0
 10
93.531894
 20
73.534153
 30
0.0
 10
93.205112
 20
72.968151
 30
0.0
 10
93.205112
 20
72.355619
 30
0.0
  0
SPLINE
  5
20c
100
AcDbEntity
  8
0
 62
7
100
AcDbSpline
 70
8
 71
3
 72
8
 73
4
 74
0
 40
0
 40
0
 40
0
 40
0
 40
1
 40
1
 40
1
 40
1
 10
93.205112
 20
72.355619
 30
0.0
 10
93.205112
 20
71.743087
 30
0.0
 10
93.531894
 20
71.177084
 30
0.0
 10
94.062362
 20
70.870818
 30
0.0
  0
SPLINE
  5
20d
100
AcDbEntity
  8
0
 62
7
100
AcDbSpline
 70
8
 71
3
 72
8
 73
4
 74
0
 40
0
 40
0
 40
0
 40
0
 40
1
 40
1
 40
1
 40
1
 10
94.062362
 20
70.870818
 30
0.0
 10
94.592831
 20
70.564552
 30
0.0
 10
95.246394
 20
70.564552
 30
0.0
 10
95.776862
 20
70.870818
 30
0.0
  0
SPLINE
  5
20e
100
AcDbEntity
  8
0
 62
7
100
AcDbSpline
 70
8
 71
3
 72
8
 73
4
 74
0
 40
0
 40
0
 40
0
 40
0
 40
1
 40
1
 40
1
 40
1
 10
95.776862
 20
70.870818
 30
0.0
 10
96.307331
 20
71.177084
 30
0.0
 10
96.634112
 20
71.743087
 30
0.0
 10
96.634112
 20
72.355619
 30
0.0
  0
LWPOLYLINE
  5
20f
100
AcDbEntity
  8
0
 62
7
100
AcDbPolyline
 90
1
 70
1
 10
96.634112
 20
95.605617
 30
0.0
  0
SPLINE
  5
210
100
AcDbEntity
  8
0
 62
7
100
AcDbSpline
 70
8
 71
3
 72
8
 73
4
 74
0
 40
0
 40
0
 40
0
 40
0
 40
1
 40
1
 40
1
 40
1
 10
96.634112
 20
50.105618
 30
0.0
 10
96.634112
 20
50.718150
 30
0.0
 10
96.307331
 20
51.284153
 30
0.0
 10
95.776862
 20
51.590419
 30
0.0
  0
SPLINE
  5
211
100
AcDbEntity
  8
0
 62
7
100
AcDbSpline
 70
8
 71
3
 72
8
 73
4
 74
0
 40
0
 40
0
 40
0
 40
0
 40
1
 40
1
 40
1
 40
1
 10
95.776862
 20
51.590419
 30
0.0
 10
95.246394
 20
51.896685
 30
0.0
 10
94.592831
 20
51.896685
 30
0.0
 10
94.062362
 20
51.590419
 30
0.0
  0
SPLINE
  5
212
100
AcDbEntity
  8
0
 62
7
100
AcDbSpline
 70
8
 71
3
 72
8
 73
4
 74
0
 40
0
 40
0
 40
0
 40
0
 40
1
 40
1
 40
1
 40
1
 10
94.062362
 20
51.590419
 30
0.0
 10
93.531894
 20
51.284153
 30
0.0
 10
93.205112
 20
50.718150
 30
0.0
 10
93.205112
 20
50.105618
 30
0.0
  0
SPLINE
  5
213
100
AcDbEntity
  8
0
 62
7
100
AcDbSpline
 70
8
 71
3
 72
8
 73
4
 74
0
 40
0
 40
0
 40
0
 40
0
 40
1
 40
1
 40
1
 40
1
 10
93.205112
 20
50.105618
 30
0.0
 10
93.205112
 20
49.493086
 30
0.0
 10
93.531894
 20
48.927084
 30
0.0
 10
94.062362
 20
48.620818
 30
0.0
  0
SPLINE
  5
214
100
AcDbEntity
  8
0
 62
7
100
AcDbSpline
 70
8
 71
3
 72
8
 73
4
 74
0
 40
0
 40
0
 40
0
 40
0
 40
1
 40
1
 40
1
 40
1
 10
94.062362
 20
48.620818
 30
0.0
 10
94.592831
 20
48.314552
 30
0.0
 10
95.246394
 20
48.314552
 30
0.0
 10
95.776862
 20
48.620818
 30
0.0
  0
SPLINE
  5
215
100
AcDbEntity
  8
0
 62
7
100
AcDbSpline
 70
8
 71
3
 72
8
 73
4
 74
0
 40
0
 40
0
 40
0
 40
0
 40
1
 40
1
 40
1
 40
1
 10
95.776862
 20
48.620818
 30
0.0
 10
96.307331
 20
48.927084
 30
0.0
 10
96.634112
 20
49.493086
 30
0.0
 10
96.634112
 20
50.105618
 30
0.0
  0
LWPOLYLINE
  5
216
100
AcDbEntity
  8
0
 62
7
100
AcDbPolyline
 90
1
 70
1
 10
96.634112
 20
72.355619
 30
0.0
  0
SPLINE
  5
217
100
AcDbEntity
  8
0
 62
7
100
AcDbSpline
 70
8
 71
3
 72
8
 73
4
 74
0
 40
0
 40
0
 40
0
 40
0
 40
1
 40
1
 40
1
 40
1
 10
96.634112
 20
27.855615
 30
0.0
 10
96.634112
 20
28.468147
 30
0.0
 10
96.307331
 20
29.034150
 30
0.0
 10
95.776862
 20
29.340416
 30
0.0
  0
SPLINE
  5
218
100
AcDbEntity
  8
0
 62
7
100
AcDbSpline
 70
8
 71
3
 72
8
 73
4
 74
0
 40
0
 40
0
 40
0
 40
0
 40
1
 40
1
 40
1
 40
1
 10
95.776862
 20
29.340416
 30
0.0
 10
95.246394
 20
29.646682
 30
0.0
 10
94.592831
 20
29.646682
 30
0.0
 10
94.062362
 20
29.340416
 30
0.0
  0
SPLINE
  5
219
100
AcDbEntity
  8
0
 62
7
100
AcDbSpline
 70
8
 71
3
 72
8
 73
4
 74
0
 40
0
 40
0
 40
0
 40
0
 40
1
 40
1
 40
1
 40
1
 10
94.062362
 20
29.340416
 30
0.0
 10
93.531894
 20
29.034150
 30
0.0
 10
93.205112
 20
28.468147
 30
0.0
 10
93.205112
 20
27.855615
 30
0.0
  0
SPLINE
  5
21a
100
AcDbEntity
  8
0
 62
7
100
AcDbSpline
 70
8
 71
3
 72
8
 73
4
 74
0
 40
0
 40
0
 40
0
 40
0
 40
1
 40
1
 40
1
 40
1
 10
93.205112
 20
27.855615
 30
0.0
 10
93.205112
 20
27.243083
 30
0.0
 10
93.531894
 20
26.677080
 30
0.0
 10
94.062362
 20
26.370815
 30
0.0
  0
SPLINE
  5
21b
100
AcDbEntity
  8
0
 62
7
100
AcDbSpline
 70
8
 71
3
 72
8
 73
4
 74
0
 40
0
 40
0
 40
0
 40
0
 40
1
 40
1
 40
1
 40
1
 10
94.062362
 20
26.370815
 30
0.0
 10
94.592831
 20
26.064549
 30
0.0
 10
95.246394
 20
26.064549
 30
0.0
 10
95.776862
 20
26.370815
 30
0.0
  0
SPLINE
  5
21c
100
AcDbEntity
  8
0
 62
7
100
AcDbSpline
 70
8
 71
3
 72
8
 73
4
 74
0
 40
0
 40
0
 40
0
 40
0
 40
1
 40
1
 40
1
 40
1
 10
95.776862
 20
26.370815
 30
0.0
 10
96.307331
 20
26.677080
 30
0.0
 10
96.634112
 20
27.243083
 30
0.0
 10
96.634112
 20
27.855615
 30
0.0
  0
LWPOLYLINE
  5
21d
100
AcDbEntity
  8
0
 62
7
100
AcDbPolyline
 90
1
 70
1
 10
96.634112
 20
50.105618
 30
0.0
  0
SPLINE
  5
21e
100
AcDbEntity
  8
0
 62
7
100
AcDbSpline
 70
8
 71
3
 72
8
 73
4
 74
0
 40
0
 40
0
 40
0
 40
0
 40
1
 40
1
 40
1
 40
1
 10
96.634112
 20
5.605596
 30
0.0
 10
96.634112
 20
6.218128
 30
0.0
 10
96.307331
 20
6.784131
 30
0.0
 10
95.776862
 20
7.090397
 30
0.0
  0
SPLINE
  5
21f
100
AcDbEntity
  8
0
 62
7
100
AcDbSpline
 70
8
 71
3
 72
8
 73
4
 74
0
 40
0
 40
0
 40
0
 40
0
 40
1
 40
1
 40
1
 40
1
 10
95.776862
 20
7.090397
 30
0.0
 10
95.246394
 20
7.396663
 30
0.0
 10
94.592831
 20
7.396663
 30
0.0
 10
94.062362
 20
7.090397
 30
0.0
  0
SPLINE
  5
220
100
AcDbEntity
  8
0
 62
7
100
AcDbSpline
 70
8
 71
3
 72
8
 73
4
 74
0
 40
0
 40
0
 40
0
 40
0
 40
1
 40
1
 40
1
 40
1
 10
94.062362
 20
7.090397
 30
0.0
 10
93.531894
 20
6.784131
 30
0.0
 10
93.205112
 20
6.218128
 30
0.0
 10
93.205112
 20
5.605596
 30
0.0
  0
SPLINE
  5
221
100
AcDbEntity
  8
0
 62
7
100
AcDbSpline
 70
8
 71
3
 72
8
 73
4
 74
0
 40
0
 40
0
 40
0
 40
0
 40
1
 40
1
 40
1
 40
1
 10
93.205112
 20
5.605596
 30
0.0
 10
93.205112
 20
4.993064
 30
0.0
 10
93.531894
 20
4.427061
 30
0.0
 10
94.062362
 20
4.120796
 30
0.0
  0
SPLINE
  5
222
100
AcDbEntity
  8
0
 62
7
100
AcDbSpline
 70
8
 71
3
 72
8
 73
4
 74
0
 40
0
 40
0
 40
0
 40
0
 40
1
 40
1
 40
1
 40
1
 10
94.062362
 20
4.120796
 30
0.0
 10
94.592831
 20
3.814530
 30
0.0
 10
95.246394
 20
3.814530
 30
0.0
 10
95.776862
 20
4.120796
 30
0.0
  0
SPLINE
  5
223
100
AcDbEntity
  8
0
 62
7
100
AcDbSpline
 70
8
 71
3
 72
8
 73
4
 74
0
 40
0
 40
0
 40
0
 40
0
 40
1
 40
1
 40
1
 40
1
 10
95.776862
 20
4.120796
 30
0.0
 10
96.307331
 20
4.427061
 30
0.0
 10
96.634112
 20
4.993064
 30
0.0
 10
96.634112
 20
5.605596
 30
0.0
  0
LWPOLYLINE
  5
224
100
AcDbEntity
  8
0
 62
7
100
AcDbPolyline
 90
1
 70
1
 10
96.634112
 20
27.855615
 30
0.0
  0
SPLINE
  5
225
100
AcDbEntity
  8
0
 62
7
100
AcDbSpline
 70
8
 71
3
 72
8
 73
4
 74
0
 40
0
 40
0
 40
0
 40
0
 40
1
 40
1
 40
1
 40
1
 10
96.634112
 20
184.355620
 30
0.0
 10
96.634112
 20
184.968151
 30
0.0
 10
96.307331
 20
185.534154
 30
0.0
 10
95.776862
 20
185.840420
 30
0.0
  0
SPLINE
  5
226
100
AcDbEntity
  8
0
 62
7
100
AcDbSpline
 70
8
 71
3
 72
8
 73
4
 74
0
 40
0
 40
0
 40
0
 40
0
 40
1
 40
1
 40
1
 40
1
 10
95.776862
 20
185.840420
 30
0.0
 10
95.246394
 20
186.146686
 30
0.0
 10
94.592831
 20
186.146686
 30
0.0
 10
94.062362
 20
185.840420
 30
0.0
  0
SPLINE
  5
227
100
AcDbEntity
  8
0
 62
7
100
AcDbSpline
 70
8
 71
3
 72
8
 73
4
 74
0
 40
0
 40
0
 40
0
 40
0
 40
1
 40
1
 40
1
 40
1
 10
94.062362
 20
185.840420
 30
0.0
 10
93.531894
 20
185.534154
 30
0.0
 10
93.205112
 20
184.968151
 30
0.0
 10
93.205112
 20
184.355620
 30
0.0
  0
SPLINE
  5
228
100
AcDbEntity
  8
0
 62
7
100
AcDbSpline
 70
8
 71
3
 72
8
 73
4
 74
0
 40
0
 40
0
 40
0
 40
0
 40
1
 40
1
 40
1
 40
1
 10
93.205112
 20
184.355620
 30
0.0
 10
93.205112
 20
183.743088
 30
0.0
 10
93.531894
 20
183.177085
 30
0.0
 10
94.062362
 20
182.870819
 30
0.0
  0
SPLINE
  5
229
100
AcDbEntity
  8
0
 62
7
100
AcDbSpline
 70
8
 71
3
 72
8
 73
4
 74
0
 40
0
 40
0
 40
0
 40
0
 40
1
 40
1
 40
1
 40
1
 10
94.062362
 20
182.870819
 30
0.0
 10
94.592831
 20
182.564553
 30
0.0
 10
95.246394
 20
182.564553
 30
0.0
 10
95.776862
 20
182.870819
 30
0.0
  0
SPLINE
  5
22a
100
AcDbEntity
  8
0
 62
7
100
AcDbSpline
 70
8
 71
3
 72
8
 73
4
 74
0
 40
0
 40
0
 40
0
 40
0
 40
1
 40
1
 40
1
 40
1
 10
95.776862
 20
182.870819
 30
0.0
 10
96.307331
 20
183.177085
 30
0.0
 10
96.634112
 20
183.743088
 30
0.0
 10
96.634112
 20
184.355620
 30
0.0
  0
LWPOLYLINE
  5
22b
100
AcDbEntity
  8
0
 62
7
100
AcDbPolyline
 90
1
 70
1
 10
96.634112
 20
5.605596
 30
0.0
  0
SPLINE
  5
22c
100
AcDbEntity
  8
0
 62
7
100
AcDbSpline
 70
8
 71
3
 72
8
 73
4
 74
0
 40
0
 40
0
 40
0
 40
0
 40
1
 40
1
 40
1
 40
1
 10
109.267532
 20
187.118654
 30
0.0
 10
109.267532
 20
187.118654
 30
0.0
 10
109.267532
 20
185.149482
 30
0.0
 10
109.267532
 20
185.149482
 30
0.0
  0
SPLINE
  5
22d
100
AcDbEntity
  8
0
 62
7
100
AcDbSpline
 70
8
 71
3
 72
8
 73
4
 74
0
 40
0
 40
0
 40
0
 40
0
 40
1
 40
1
 40
1
 40
1
 10
109.267532
 20
185.149482
 30
0.0
 10
109.267534
 20
184.975395
 30
0.0
 10
109.330714
 20
184.808439
 30
0.0
 10
109.443175
 20
184.685343
 30
0.0
  0
SPLINE
  5
22e
100
AcDbEntity
  8
0
 62
7
100
AcDbSpline
 70
8
 71
3
 72
8
 73
4
 74
0
 40
0
 40
0
 40
0
 40
0
 40
1
 40
1
 40
1
 40
1
 10
109.443175
 20
184.685343
 30
0.0
 10
109.555636
 20
184.562247
 30
0.0
 10
109.708164
 20
184.493094
 30
0.0
 10
109.867205
 20
184.493098
 30
0.0
  0
SPLINE
  5
22f
100
AcDbEntity
  8
0
 62
7
100
AcDbSpline
 70
8
 71
3
 72
8
 73
4
 74
0
 40
0
 40
0
 40
0
 40
0
 40
1
 40
1
 40
1
 40
1
 10
109.867205
 20
184.493098
 30
0.0
 10
109.867205
 20
184.493098
 30
0.0
 10
138.650811
 20
184.493098
 30
0.0
 10
138.650811
 20
184.493098
 30
0.0
  0
SPLINE
  5
230
100
AcDbEntity
  8
0
 62
7
100
AcDbSpline
 70
8
 71
3
 72
8
 73
4
 74
0
 40
0
 40
0
 40
0
 40
0
 40
1
 40
1
 40
1
 40
1
 10
138.650811
 20
184.493098
 30
0.0
 10
138.981990
 20
184.493099
 30
0.0
 10
139.250465
 20
184.786971
 30
0.0
 10
139.250468
 20
185.149482
 30
0.0
  0
SPLINE
  5
231
100
AcDbEntity
  8
0
 62
7
100
AcDbSpline
 70
8
 71
3
 72
8
 73
4
 74
0
 40
0
 40
0
 40
0
 40
0
 40
1
 40
1
 40
1
 40
1
 10
139.250468
 20
185.149482
 30
0.0
 10
139.250468
 20
185.149482
 30
0.0
 10
139.250468
 20
187.118654
 30
0.0
 10
139.250468
 20
187.118654
 30
0.0
  0
SPLINE
  5
232
100
AcDbEntity
  8
0
 62
7
100
AcDbSpline
 70
8
 71
3
 72
8
 73
4
 74
0
 40
0
 40
0
 40
0
 40
0
 40
1
 40
1
 40
1
 40
1
 10
139.250468
 20
187.118654
 30
0.0
 10
139.250464
 20
187.481164
 30
0.0
 10
138.981989
 20
187.775034
 30
0.0
 10
138.650811
 20
187.775035
 30
0.0
  0
LWPOLYLINE
  5
233
100
AcDbEntity
  8
0
 62
7
100
AcDbPolyline
 90
1
 70
1
 10
96.634112
 20
184.355620
 30
0.0
  0
SPLINE
  5
234
100
AcDbEntity
  8
0
 62
7
100
AcDbSpline
 70
8
 71
3
 72
8
 73
4
 74
0
 40
0
 40
0
 40
0
 40
0
 40
1
 40
1
 40
1
 40
1
 10
109.867208
 20
187.775035
 30
0.0
 10
109.708167
 20
187.775039
 30
0.0
 10
109.555639
 20
187.705887
 30
0.0
 10
109.443179
 20
187.582792
 30
0.0
  0
SPLINE
  5
235
100
AcDbEntity
  8
0
 62
7
100
AcDbSpline
 70
8
 71
3
 72
8
 73
4
 74
0
 40
0
 40
0
 40
0
 40
0
 40
1
 40
1
 40
1
 40
1
 10
109.443179
 20
187.582792
 30
0.0
 10
109.330718
 20
187.459696
 30
0.0
 10
109.267537
 20
187.292741
 30
0.0
 10
109.267535
 20
187.118654
 30
0.0
  0
LWPOLYLINE
  5
236
100
AcDbEntity
  8
0
 62
7
100
AcDbPolyline
 90
2
 70
0
 10
138.650811
 20
187.775035
 30
0.0
 10
109.867208
 20
187.775035
 30
0.0
  0
SPLINE
  5
237
100
AcDbEntity
  8
0
 62
7
100
AcDbSpline
 70
8
 71
3
 72
8
 73
4
 74
0
 40
0
 40
0
 40
0
 40
0
 40
1
 40
1
 40
1
 40
1
 10
36.760531
 20
187.118654
 30
0.0
 10
36.760531
 20
187.118654
 30
0.0
 10
36.760531
 20
185.149482
 30
0.0
 10
36.760531
 20
185.149482
 30
0.0
  0
SPLINE
  5
238
100
AcDbEntity
  8
0
 62
7
100
AcDbSpline
 70
8
 71
3
 72
8
 73
4
 74
0
 40
0
 40
0
 40
0
 40
0
 40
1
 40
1
 40
1
 40
1
 10
36.760531
 20
185.149482
 30
0.0
 10
36.760532
 20
184.975395
 30
0.0
 10
36.823713
 20
184.808438
 30
0.0
 10
36.936175
 20
184.685342
 30
0.0
  0
SPLINE
  5
239
100
AcDbEntity
  8
0
 62
7
100
AcDbSpline
 70
8
 71
3
 72
8
 73
4
 74
0
 40
0
 40
0
 40
0
 40
0
 40
1
 40
1
 40
1
 40
1
 10
36.936175
 20
184.685342
 30
0.0
 10
37.048636
 20
184.562246
 30
0.0
 10
37.201165
 20
184.493093
 30
0.0
 10
37.360206
 20
184.493098
 30
0.0
  0
SPLINE
  5
23a
100
AcDbEntity
  8
0
 62
7
100
AcDbSpline
 70
8
 71
3
 72
8
 73
4
 74
0
 40
0
 40
0
 40
0
 40
0
 40
1
 40
1
 40
1
 40
1
 10
37.360206
 20
184.493098
 30
0.0
 10
37.360206
 20
184.493098
 30
0.0
 10
66.143809
 20
184.493098
 30
0.0
 10
66.143809
 20
184.493098
 30
0.0
  0
SPLINE
  5
23b
100
AcDbEntity
  8
0
 62
7
100
AcDbSpline
 70
8
 71
3
 72
8
 73
4
 74
0
 40
0
 40
0
 40
0
 40
0
 40
1
 40
1
 40
1
 40
1
 10
66.143809
 20
184.493098
 30
0.0
 10
66.474989
 20
184.493099
 30
0.0
 10
66.743464
 20
184.786971
 30
0.0
 10
66.743466
 20
185.149482
 30
0.0
  0
SPLINE
  5
23c
100
AcDbEntity
  8
0
 62
7
100
AcDbSpline
 70
8
 71
3
 72
8
 73
4
 74
0
 40
0
 40
0
 40
0
 40
0
 40
1
 40
1
 40
1
 40
1
 10
66.743466
 20
185.149482
 30
0.0
 10
66.743466
 20
185.149482
 30
0.0
 10
66.743466
 20
187.118654
 30
0.0
 10
66.743466
 20
187.118654
 30
0.0
  0
SPLINE
  5
23d
100
AcDbEntity
  8
0
 62
7
100
AcDbSpline
 70
8
 71
3
 72
8
 73
4
 74
0
 40
0
 40
0
 40
0
 40
0
 40
1
 40
1
 40
1
 40
1
 10
66.743466
 20
187.118654
 30
0.0
 10
66.743462
 20
187.481164
 30
0.0
 10
66.474988
 20
187.775034
 30
0.0
 10
66.143809
 20
187.775035
 30
0.0
  0
SPLINE
  5
23e
100
AcDbEntity
  8
0
 62
7
100
AcDbSpline
 70
8
 71
3
 72
8
 73
4
 74
0
 40
0
 40
0
 40
0
 40
0
 40
1
 40
1
 40
1
 40
1
 10
66.143809
 20
187.775035
 30
0.0
 10
66.143809
 20
187.775035
 30
0.0
 10
37.360209
 20
187.775035
 30
0.0
 10
37.360209
 20
187.775035
 30
0.0
  0
SPLINE
  5
23f
100
AcDbEntity
  8
0
 62
7
100
AcDbSpline
 70
8
 71
3
 72
8
 73
4
 74
0
 40
0
 40
0
 40
0
 40
0
 40
1
 40
1
 40
1
 40
1
 10
37.360209
 20
187.775035
 30
0.0
 10
37.201168
 20
187.775040
 30
0.0
 10
37.048639
 20
187.705888
 30
0.0
 10
36.936178
 20
187.582793
 30
0.0
  0
SPLINE
  5
240
100
AcDbEntity
  8
0
 62
7
100
AcDbSpline
 70
8
 71
3
 72
8
 73
4
 74
0
 40
0
 40
0
 40
0
 40
0
 40
1
 40
1
 40
1
 40
1
 10
36.936178
 20
187.582793
 30
0.0
 10
36.823717
 20
187.459697
 30
0.0
 10
36.760536
 20
187.292741
 30
0.0
 10
36.760534
 20
187.118654
 30
0.0
  0
LWPOLYLINE
  5
241
100
AcDbEntity
  8
0
 62
7
100
AcDbPolyline
 90
1
 70
1
 10
109.267535
 20
187.118654
 30
0.0
  0
LWPOLYLINE
  5
242
100
AcDbEntity
  8
0
 62
7
100
AcDbPolyline
 90
1
 70
1
 10
36.760534
 20
187.118654
 30
0.0
  0
ENDSEC
  0
SECTION
  2
OBJECTS
  0
DICTIONARY
  5
C
330
0
100
AcDbDictionary
  3
ACAD_GROUP
350
D
  3
ACAD_MLINESTYLE
350
17
  0
DICTIONARY
  5
D
330
C
100
AcDbDictionary
  0
DICTIONARY
  5
1A
330
C
100
AcDbDictionary
  0
DICTIONARY
  5
17
330
C
100
AcDbDictionary
  3
STANDARD
350
18
  0
DICTIONARY
  5
19
330
C
100
AcDbDictionary
  0
ENDSEC
  0
EOF
