999
dxfrw 0.6.3
  0
SECTION
  2
HEADER
  9
$ACADVER
  1
AC1021
  9
$DWGCODEPAGE
  3
ANSI_1252
  9
$INSBASE
 10
0
 20
0
 30
0
  9
$EXTMIN
 10
-40
 20
-40
 30
0
  9
$EXTMAX
 10
110
 20
40
 30
0
  9
$LIMMIN
 10
0
 20
0
  9
$LIMMAX
 10
420
 20
297
  9
$ORTHOMODE
 70
    0
  9
$REGENMODE
 70
    1
  9
$FILLMODE
 70
    0
  9
$QTEXTMODE
 70
    0
  9
$MIRRTEXT
 70
    0
  9
$LTSCALE
 40
1
  9
$ATTMODE
 70
    0
  9
$TEXTSIZE
 40
2.5
  9
$TRACEWID
 40
15.68
  9
$TEXTSTYLE
  7
STANDARD
  9
$CLAYER
  8
support_below
  9
$CELTYPE
  6
BYLAYER
  9
$CECOLOR
 62
  256
  9
$CELTSCALE
 40
1
  9
$DISPSILH
 70
    0
  9
$DIMSCALE
 40
2.5
  9
$DIMASZ
 40
2.5
  9
$DIMEXO
 40
0.625
  9
$DIMDLI
 40
3.75
  9
$DIMRND
 40
0
  9
$DIMDLE
 40
0
  9
$DIMEXE
 40
1.25
  9
$DIMTP
 40
0
  9
$DIMTM
 40
0
  9
$DIMTXT
 40
2.5
  9
$DIMCEN
 40
2.5
  9
$DIMTSZ
 40
0
  9
$DIMTOL
 70
    0
  9
$DIMLIM
 70
    0
  9
$DIMTIH
 70
    0
  9
$DIMTOH
 70
    0
  9
$DIMSE1
 70
    0
  9
$DIMSE2
 70
    0
  9
$DIMTAD
 70
    1
  9
$DIMZIN
 70
    8
  9
$DIMBLK
  1

  9
$DIMASO
 70
    1
  9
$DIMSHO
 70
    1
  9
$DIMPOST
  1

  9
$DIMAPOST
  1

  9
$DIMALT
 70
    0
  9
$DIMALTD
 70
    3
  9
$DIMALTF
 40
0.03937
  9
$DIMLFAC
 40
1
  9
$DIMTOFL
 70
    1
  9
$DIMTVP
 40
0
  9
$DIMTIX
 70
    0
  9
$DIMSOXD
 70
    0
  9
$DIMSAH
 70
    0
  9
$DIMBLK1
  1

  9
$DIMBLK2
  1

  9
$DIMSTYLE
  2
Standard
  9
$DIMCLRD
 70
    0
  9
$DIMCLRE
 70
    0
  9
$DIMCLRT
 70
    0
  9
$DIMTFAC
 40
1
  9
$DIMGAP
 40
0.625
  9
$DIMJUST
 70
    0
  9
$DIMSD1
 70
    0
  9
$DIMSD2
 70
    0
  9
$DIMTOLJ
 70
    0
  9
$DIMTZIN
 70
    8
  9
$DIMALTZ
 70
    0
  9
$DIMALTTZ
 70
    0
  9
$DIMUPT
 70
    0
  9
$DIMDEC
 70
    2
  9
$DIMTDEC
 70
    2
  9
$DIMALTU
 70
    2
  9
$DIMALTTD
 70
    3
  9
$DIMTXSTY
  7
STANDARD
  9
$DIMAUNIT
 70
    0
  9
$DIMADEC
 70
    0
  9
$DIMALTRND
 40
0
  9
$DIMAZIN
 70
    0
  9
$DIMDSEP
 70
   44
  9
$DIMATFIT
 70
    3
  9
$DIMFRAC
 70
    0
  9
$DIMLDRBLK
  1
STANDARD
  9
$DIMLUNIT
 70
    2
  9
$DIMLWD
 70
   -2
  9
$DIMLWE
 70
   -2
  9
$DIMTMOVE
 70
    0
  9
$DIMFXL
 40
1
  9
$DIMFXLON
 70
    0
  9
$DIMJOGANG
 40
0.7854
  9
$DIMTFILL
 70
    0
  9
$DIMTFILLCLR
 70
    0
  9
$DIMARCSYM
 70
    0
  9
$DIMLTYPE
  6

  9
$DIMLTEX1
  6

  9
$DIMLTEX2
  6

  9
$LUNITS
 70
    2
  9
$LUPREC
 70
    4
  9
$SKETCHINC
 40
1
  9
$FILLETRAD
 40
0
  9
$AUNITS
 70
    0
  9
$AUPREC
 70
    2
  9
$MENU
  1
.
  9
$ELEVATION
 40
0
  9
$PELEVATION
 40
0
  9
$THICKNESS
 40
0
  9
$LIMCHECK
 70
    0
  9
$CHAMFERA
 40
0
  9
$CHAMFERB
 40
0
  9
$CHAMFERC
 40
0
  9
$CHAMFERD
 40
0
  9
$SKPOLY
 70
    0
  9
$USRTIMER
 70
    1
  9
$ANGBASE
 50
0
  9
$ANGDIR
 70
    0
  9
$PDMODE
 70
   34
  9
$PDSIZE
 40
0
  9
$PLINEWID
 40
0
  9
$SPLFRAME
 70
    1
  9
$SPLINETYPE
 70
    2
  9
$SPLINESEGS
 70
    8
  9
$HANDSEED
  5
20000
  9
$SURFTAB1
 70
    6
  9
$SURFTAB2
 70
    6
  9
$SURFTYPE
 70
    6
  9
$SURFU
 70
    6
  9
$SURFV
 70
    6
  9
$UCSBASE
  2

  9
$UCSNAME
  2

  9
$UCSORG
 10
0
 20
0
 30
0
  9
$UCSXDIR
 10
1
 20
0
 30
0
  9
$UCSYDIR
 10
0
 20
1
 30
0
  9
$UCSORTHOREF
  2

  9
$UCSORTHOVIEW
 70
    0
  9
$UCSORGTOP
 10
0
 20
0
 30
0
  9
$UCSORGBOTTOM
 10
0
 20
0
 30
0
  9
$UCSORGLEFT
 10
0
 20
0
 30
0
  9
$UCSORGRIGHT
 10
0
 20
0
 30
0
  9
$UCSORGFRONT
 10
0
 20
0
 30
0
  9
$UCSORGBACK
 10
0
 20
0
 30
0
  9
$PUCSBASE
  2

  9
$PUCSNAME
  2

  9
$PUCSORG
 10
0
 20
0
 30
0
  9
$PUCSXDIR
 10
1
 20
0
 30
0
  9
$PUCSYDIR
 10
0
 20
1
 30
0
  9
$PUCSORTHOREF
  2

  9
$PUCSORTHOVIEW
 70
    0
  9
$PUCSORGTOP
 10
0
 20
0
 30
0
  9
$PUCSORGBOTTOM
 10
0
 20
0
 30
0
  9
$PUCSORGLEFT
 10
0
 20
0
 30
0
  9
$PUCSORGRIGHT
 10
0
 20
0
 30
0
  9
$PUCSORGFRONT
 10
0
 20
0
 30
0
  9
$PUCSORGBACK
 10
0
 20
0
 30
0
  9
$USERI1
 70
    0
  9
$USERI2
 70
    0
  9
$USERI3
 70
    0
  9
$USERI4
 70
    0
  9
$USERI5
 70
    0
  9
$USERR1
 40
0
  9
$USERR2
 40
0
  9
$USERR3
 40
0
  9
$USERR4
 40
0
  9
$USERR5
 40
0
  9
$WORLDVIEW
 70
    1
  9
$SHADEDGE
 70
    3
  9
$SHADEDIF
 70
   70
  9
$TILEMODE
 70
    1
  9
$MAXACTVP
 70
   64
  9
$PINSBASE
 10
0
 20
0
 30
0
  9
$PLIMCHECK
 70
    0
  9
$PEXTMIN
 10
0
 20
0
 30
0
  9
$PEXTMAX
 10
0
 20
0
 30
0
  9
$GRIDMODE
 70
    1
  9
$SNAPSTYLE
 70
    0
  9
$PLIMMIN
 10
0
 20
0
  9
$PLIMMAX
 10
210
 20
297
  9
$UNITMODE
 70
    0
  9
$VISRETAIN
 70
    1
  9
$PLINEGEN
 70
    0
  9
$PSLTSCALE
 70
    1
  9
$TREEDEPTH
 70
 3020
  9
$CMLSTYLE
  2
Standard
  9
$CMLJUST
 70
    0
  9
$CMLSCALE
 40
20
  9
$PROXYGRAPHICS
 70
    1
  9
$MEASUREMENT
 70
    1
  9
$CELWEIGHT
370
   -1
  9
$ENDCAPS
280
    0
  9
$JOINSTYLE
280
    0
  9
$LWDISPLAY
290
    0
  9
$INSUNITS
 70
    4
  9
$HYPERLINKBASE
  1

  9
$STYLESHEET
  1

  9
$XEDIT
290
    1
  9
$CEPSNTYPE
380
    0
  9
$PSTYLEMODE
290
    1
  9
$EXTNAMES
290
    1
  9
$PSVPSCALE
 40
1
  9
$OLESTARTUP
290
    0
  9
$SORTENTS
280
  127
  9
$INDEXCTL
280
    0
  9
$HIDETEXT
280
    1
  9
$XCLIPFRAME
290
    0
  9
$HALOGAP
280
    0
  9
$OBSCOLOR
 70
  257
  9
$OBSLTYPE
280
    0
  9
$INTERSECTIONDISPLAY
280
    0
  9
$INTERSECTIONCOLOR
 70
  257
  9
$DIMASSOC
280
    1
  9
$PROJECTNAME
  1

  9
$CAMERADISPLAY
290
    0
  9
$LENSLENGTH
 40
50
  9
$CAMERAHEIGHT
 40
0
  9
$STEPSPERSEC
 40
2
  9
$STEPSIZE
 40
50
  9
$3DDWFPREC
 40
2
  9
$PSOLWIDTH
 40
5
  9
$PSOLHEIGHT
 40
80
  9
$LOFTANG1
 40
1.570796326794897
  9
$LOFTANG2
 40
1.570796326794897
  9
$LOFTMAG1
 40
0
  9
$LOFTMAG2
 40
0
  9
$LOFTPARAM
 70
    7
  9
$LOFTNORMALS
280
    1
  9
$LATITUDE
 40
1
  9
$LONGITUDE
 40
1
  9
$NORTHDIRECTION
 40
0
  9
$TIMEZONE
 70
-8000
  9
$LIGHTGLYPHDISPLAY
280
    1
  9
$TILEMODELIGHTSYNCH
280
    1
  9
$SOLIDHIST
280
    1
  9
$SHOWHIST
280
    1
  9
$DWFFRAME
280
    2
  9
$DGNFRAME
280
    0
  9
$REALWORLDSCALE
290
    1
  9
$INTERFERECOLOR
 62
    1
  9
$CSHADOW
280
    0
  9
$SHADOWPLANELOCATION
 40
0
  0
ENDSEC
  0
SECTION
  2
CLASSES
  0
ENDSEC
  0
SECTION
  2
TABLES
  0
TABLE
  2
VPORT
  5
8
330
0
100
AcDbSymbolTable
 70
    1
  0
VPORT
  5
31
330
2
100
AcDbSymbolTableRecord
100
AcDbViewportTableRecord
  2
*ACTIVE
 70
    0
 10
0
 20
0
 11
1
 21
1
 12
116.8750000000127
 22
54.68750000000595
 13
0
 23
0
 14
10
 24
10
 15
10
 25
10
 16
0
 26
0
 36
1
 17
0
 27
0
 37
0
 40
213.7500000000233
 41
2.182748538011696
 42
50
 43
0
 44
0
 50
0
 51
0
 71
    0
 72
  100
 73
    1
 74
    3
 75
    0
 76
    1
 77
    0
 78
    0
281
    0
 65
    1
110
0
120
0
130
0
111
1
121
0
131
0
112
0
122
1
132
0
 79
    0
146
0
348
10020
 60
    7
 61
    5
292
1
282
    1
141
0
142
0
 63
  250
421
3358443
  0
ENDTAB
  0
TABLE
  2
LTYPE
  5
5
330
0
100
AcDbSymbolTable
 70
    4
  0
LTYPE
  5
14
330
5
100
AcDbSymbolTableRecord
100
AcDbLinetypeTableRecord
  2
ByBlock
 70
    0
  3

 72
   65
 73
    0
 40
0
  0
LTYPE
  5
15
330
5
100
AcDbSymbolTableRecord
100
AcDbLinetypeTableRecord
  2
ByLayer
 70
    0
  3

 72
   65
 73
    0
 40
0
  0
LTYPE
  5
16
330
5
100
AcDbSymbolTableRecord
100
AcDbLinetypeTableRecord
  2
Continuous
 70
    0
  3
Solid line
 72
   65
 73
    0
 40
0
  0
LTYPE
  5
32
330
5
100
AcDbSymbolTableRecord
100
AcDbLinetypeTableRecord
  2
DOT
 70
    0
  3
Dot . . . . . . . . . . . . . . . . . . . . . .
 72
   65
 73
    2
 40
6.35
 49
0
 74
    0
 49
-6.35
 74
    0
  0
LTYPE
  5
33
330
5
100
AcDbSymbolTableRecord
100
AcDbLinetypeTableRecord
  2
DOTTINY
 70
    0
  3
Dot (.15x) .....................................
 72
   65
 73
    2
 40
0.9525
 49
0
 74
    0
 49
-0.9525
 74
    0
  0
LTYPE
  5
34
330
5
100
AcDbSymbolTableRecord
100
AcDbLinetypeTableRecord
  2
DOT2
 70
    0
  3
Dot (.5x) .....................................
 72
   65
 73
    2
 40
3.175
 49
0
 74
    0
 49
-3.175
 74
    0
  0
LTYPE
  5
35
330
5
100
AcDbSymbolTableRecord
100
AcDbLinetypeTableRecord
  2
DOTX2
 70
    0
  3
Dot (2x) .  .  .  .  .  .  .  .  .  .  .  .  .
 72
   65
 73
    2
 40
12.7
 49
0
 74
    0
 49
-12.7
 74
    0
  0
LTYPE
  5
36
330
5
100
AcDbSymbolTableRecord
100
AcDbLinetypeTableRecord
  2
DASHED
 70
    0
  3
Dashed _ _ _ _ _ _ _ _ _ _ _ _ _ _ _ _ _
 72
   65
 73
    2
 40
19.05
 49
12.7
 74
    0
 49
-6.35
 74
    0
  0
LTYPE
  5
37
330
5
100
AcDbSymbolTableRecord
100
AcDbLinetypeTableRecord
  2
DASHEDTINY
 70
    0
  3
Dashed (.15x) _ _ _ _ _ _ _ _ _ _ _ _ _ _ _ _ _
 72
   65
 73
    2
 40
2.8575
 49
1.905
 74
    0
 49
-0.9525
 74
    0
  0
LTYPE
  5
38
330
5
100
AcDbSymbolTableRecord
100
AcDbLinetypeTableRecord
  2
DASHED2
 70
    0
  3
Dashed (.5x) _ _ _ _ _ _ _ _ _ _ _ _ _ _ _ _ _
 72
   65
 73
    2
 40
9.524999999999999
 49
6.35
 74
    0
 49
-3.175
 74
    0
  0
LTYPE
  5
39
330
5
100
AcDbSymbolTableRecord
100
AcDbLinetypeTableRecord
  2
DASHEDX2
 70
    0
  3
Dashed (2x) ____  ____  ____  ____  ____  ___
 72
   65
 73
    2
 40
38.09999999999999
 49
25.4
 74
    0
 49
-12.7
 74
    0
  0
LTYPE
  5
3A
330
5
100
AcDbSymbolTableRecord
100
AcDbLinetypeTableRecord
  2
DASHDOT
 70
    0
  3
Dash dot __ . __ . __ . __ . __ . __ . __ . __
 72
   65
 73
    4
 40
25.4
 49
12.7
 74
    0
 49
-6.35
 74
    0
 49
0
 74
    0
 49
-6.35
 74
    0
  0
LTYPE
  5
3B
330
5
100
AcDbSymbolTableRecord
100
AcDbLinetypeTableRecord
  2
DASHDOTTINY
 70
    0
  3
Dash dot (.15x) _._._._._._._._._._._._._._._.
 72
   65
 73
    4
 40
3.81
 49
1.905
 74
    0
 49
-0.9525
 74
    0
 49
0
 74
    0
 49
-0.9525
 74
    0
  0
LTYPE
  5
3C
330
5
100
AcDbSymbolTableRecord
100
AcDbLinetypeTableRecord
  2
DASHDOT2
 70
    0
  3
Dash dot (.5x) _._._._._._._._._._._._._._._.
 72
   65
 73
    4
 40
12.7
 49
6.35
 74
    0
 49
-3.175
 74
    0
 49
0
 74
    0
 49
-3.175
 74
    0
  0
LTYPE
  5
3D
330
5
100
AcDbSymbolTableRecord
100
AcDbLinetypeTableRecord
  2
DASHDOTX2
 70
    0
  3
Dash dot (2x) ____  .  ____  .  ____  .  ___
 72
   65
 73
    4
 40
50.8
 49
25.4
 74
    0
 49
-12.7
 74
    0
 49
0
 74
    0
 49
-12.7
 74
    0
  0
LTYPE
  5
3E
330
5
100
AcDbSymbolTableRecord
100
AcDbLinetypeTableRecord
  2
DIVIDE
 70
    0
  3
Divide ____ . . ____ . . ____ . . ____ . . ____
 72
   65
 73
    6
 40
31.75
 49
12.7
 74
    0
 49
-6.35
 74
    0
 49
0
 74
    0
 49
-6.35
 74
    0
 49
0
 74
    0
 49
-6.35
 74
    0
  0
LTYPE
  5
3F
330
5
100
AcDbSymbolTableRecord
100
AcDbLinetypeTableRecord
  2
DIVIDETINY
 70
    0
  3
Divide (.15x) __..__..__..__..__..__..__..__.._
 72
   65
 73
    6
 40
4.7625
 49
1.905
 74
    0
 49
-0.9525
 74
    0
 49
0
 74
    0
 49
-0.9525
 74
    0
 49
0
 74
    0
 49
-0.9525
 74
    0
  0
LTYPE
  5
40
330
5
100
AcDbSymbolTableRecord
100
AcDbLinetypeTableRecord
  2
DIVIDE2
 70
    0
  3
Divide (.5x) __..__..__..__..__..__..__..__.._
 72
   65
 73
    6
 40
15.875
 49
6.35
 74
    0
 49
-3.175
 74
    0
 49
0
 74
    0
 49
-3.175
 74
    0
 49
0
 74
    0
 49
-3.175
 74
    0
  0
LTYPE
  5
41
330
5
100
AcDbSymbolTableRecord
100
AcDbLinetypeTableRecord
  2
DIVIDEX2
 70
    0
  3
Divide (2x) ________  .  .  ________  .  .  _
 72
   65
 73
    6
 40
63.5
 49
25.4
 74
    0
 49
-12.7
 74
    0
 49
0
 74
    0
 49
-12.7
 74
    0
 49
0
 74
    0
 49
-12.7
 74
    0
  0
LTYPE
  5
42
330
5
100
AcDbSymbolTableRecord
100
AcDbLinetypeTableRecord
  2
BORDER
 70
    0
  3
Border __ __ . __ __ . __ __ . __ __ . __ __ .
 72
   65
 73
    6
 40
44.45
 49
12.7
 74
    0
 49
-6.35
 74
    0
 49
12.7
 74
    0
 49
-6.35
 74
    0
 49
0
 74
    0
 49
-6.35
 74
    0
  0
LTYPE
  5
43
330
5
100
AcDbSymbolTableRecord
100
AcDbLinetypeTableRecord
  2
BORDERTINY
 70
    0
  3
Border (.15x) __.__.__.__.__.__.__.__.__.__.__.
 72
   65
 73
    6
 40
6.6675
 49
1.905
 74
    0
 49
-0.9525
 74
    0
 49
1.905
 74
    0
 49
-0.9525
 74
    0
 49
0
 74
    0
 49
-0.9525
 74
    0
  0
LTYPE
  5
44
330
5
100
AcDbSymbolTableRecord
100
AcDbLinetypeTableRecord
  2
BORDER2
 70
    0
  3
Border (.5x) __.__.__.__.__.__.__.__.__.__.__.
 72
   65
 73
    6
 40
22.225
 49
6.35
 74
    0
 49
-3.175
 74
    0
 49
6.35
 74
    0
 49
-3.175
 74
    0
 49
0
 74
    0
 49
-3.175
 74
    0
  0
LTYPE
  5
45
330
5
100
AcDbSymbolTableRecord
100
AcDbLinetypeTableRecord
  2
BORDERX2
 70
    0
  3
Border (2x) ____  ____  .  ____  ____  .  ___
 72
   65
 73
    6
 40
88.89999999999999
 49
25.4
 74
    0
 49
-12.7
 74
    0
 49
25.4
 74
    0
 49
-12.7
 74
    0
 49
0
 74
    0
 49
-12.7
 74
    0
  0
LTYPE
  5
46
330
5
100
AcDbSymbolTableRecord
100
AcDbLinetypeTableRecord
  2
CENTER
 70
    0
  3
Center ____ _ ____ _ ____ _ ____ _ ____ _ ____
 72
   65
 73
    4
 40
50.8
 49
31.75
 74
    0
 49
-6.35
 74
    0
 49
6.35
 74
    0
 49
-6.35
 74
    0
  0
LTYPE
  5
47
330
5
100
AcDbSymbolTableRecord
100
AcDbLinetypeTableRecord
  2
CENTERTINY
 70
    0
  3
Center (.15x) ___ _ ___ _ ___ _ ___ _ ___ _ ___
 72
   65
 73
    4
 40
7.619999999999999
 49
4.7625
 74
    0
 49
-0.9525
 74
    0
 49
0.9525
 74
    0
 49
-0.9525
 74
    0
  0
LTYPE
  5
48
330
5
100
AcDbSymbolTableRecord
100
AcDbLinetypeTableRecord
  2
CENTER2
 70
    0
  3
Center (.5x) ___ _ ___ _ ___ _ ___ _ ___ _ ___
 72
   65
 73
    4
 40
28.575
 49
19.05
 74
    0
 49
-3.175
 74
    0
 49
3.175
 74
    0
 49
-3.175
 74
    0
  0
LTYPE
  5
49
330
5
100
AcDbSymbolTableRecord
100
AcDbLinetypeTableRecord
  2
CENTERX2
 70
    0
  3
Center (2x) ________  __  ________  __  _____
 72
   65
 73
    4
 40
101.6
 49
63.5
 74
    0
 49
-12.7
 74
    0
 49
12.7
 74
    0
 49
-12.7
 74
    0
  0
ENDTAB
  0
TABLE
  2
LAYER
  5
2
330
0
100
AcDbSymbolTable
 70
    1
  0
LAYER
  5
10
330
2
100
AcDbSymbolTableRecord
100
AcDbLayerTableRecord
  2
0
 70
    0
 62
    7
  6
CONTINUOUS
370
   -3
390
F
  0
LAYER
  5
4A
330
2
100
AcDbSymbolTableRecord
100
AcDbLayerTableRecord
  2
enclosure_above
 70
    1
 62
    7
  6
CONTINUOUS
370
    0
390
F
  0
LAYER
  5
4B
330
2
100
AcDbSymbolTableRecord
100
AcDbLayerTableRecord
  2
gears
 70
    1
 62
    7
  6
CONTINUOUS
370
    0
390
F
  0
LAYER
  5
4C
330
2
100
AcDbSymbolTableRecord
100
AcDbLayerTableRecord
  2
support_below
 70
    0
 62
    7
  6
CONTINUOUS
370
    0
390
F
  0
ENDTAB
  0
TABLE
  2
STYLE
  5
3
330
0
100
AcDbSymbolTable
 70
    3
  0
STYLE
  5
4D
330
2
100
AcDbSymbolTableRecord
100
AcDbTextStyleTableRecord
  2
Standard
 70
    0
 40
0
 41
1
 50
0
 71
    0
 42
1
  3
txt
  4

  0
ENDTAB
  0
TABLE
  2
VIEW
  5
6
330
0
100
AcDbSymbolTable
 70
    0
  0
ENDTAB
  0
TABLE
  2
UCS
  5
7
330
0
100
AcDbSymbolTable
 70
    0
  0
ENDTAB
  0
TABLE
  2
APPID
  5
9
330
0
100
AcDbSymbolTable
 70
    1
  0
APPID
  5
12
330
9
100
AcDbSymbolTableRecord
100
AcDbRegAppTableRecord
  2
ACAD
 70
    0
  0
APPID
  5
4E
330
9
100
AcDbSymbolTableRecord
100
AcDbRegAppTableRecord
  2
LibreCad
 70
    0
  0
ENDTAB
  0
TABLE
  2
DIMSTYLE
  5
A
330
0
100
AcDbSymbolTable
 70
    1
100
AcDbDimStyleTable
 71
    1
  0
DIMSTYLE
105
4F
330
A
100
AcDbSymbolTableRecord
100
AcDbDimStyleTableRecord
  2
Standard
 70
    0
 40
2.5
 41
2.5
 42
0.625
 43
0.38
 44
1.25
 45
0
 46
0
 47
0
 48
0
 49
1
140
2.5
141
0.09
142
0
143
25.4
144
1
145
0
146
1
147
0.625
148
0
 71
    0
 72
    0
 73
    0
 74
    1
 75
    0
 76
    0
 77
    0
 78
    8
 79
    0
170
    0
171
    2
172
    0
173
    0
174
    0
175
    0
176
    0
177
    0
178
    0
179
    0
271
    2
272
    4
273
    2
274
    2
275
    0
276
    0
277
    2
278
   44
279
    0
280
    0
281
    0
282
    0
283
    1
284
    0
285
    0
286
    0
288
    0
289
    3
340
STANDARD
341

371
   -2
372
   -2
  0
ENDTAB
  0
TABLE
  2
BLOCK_RECORD
  5
1
330
0
100
AcDbSymbolTable
 70
    2
  0
BLOCK_RECORD
  5
1F
330
1
100
AcDbSymbolTableRecord
100
AcDbBlockTableRecord
  2
*Model_Space
 70
    0
280
    1
281
    0
  0
BLOCK_RECORD
  5
1E
330
1
100
AcDbSymbolTableRecord
100
AcDbBlockTableRecord
  2
*Paper_Space
 70
    0
280
    1
281
    0
  0
BLOCK_RECORD
  5
50
330
1
100
AcDbSymbolTableRecord
100
AcDbBlockTableRecord
  2
gear_nema17_shaft
 70
    0
280
    1
281
    0
  0
ENDTAB
  0
ENDSEC
  0
SECTION
  2
BLOCKS
  0
BLOCK
  5
20
330
1F
100
AcDbEntity
  8
0
100
AcDbBlockBegin
  2
*Model_Space
 70
    0
 10
0
 20
0
 30
0
  3
*Model_Space
  1

  0
ENDBLK
  5
21
330
1F
100
AcDbEntity
  8
0
100
AcDbBlockEnd
  0
BLOCK
  5
1C
330
1B
100
AcDbEntity
  8
0
100
AcDbBlockBegin
  2
*Paper_Space
 70
    0
 10
0
 20
0
 30
0
  3
*Paper_Space
  1

  0
ENDBLK
  5
1D
330
1F
100
AcDbEntity
  8
0
100
AcDbBlockEnd
  0
BLOCK
  5
51
330
50
100
AcDbEntity
  8
0
100
AcDbBlockBegin
  2
gear_nema17_shaft
 70
    0
 10
0
 20
0
  3
gear_nema17_shaft
  1

  0
LWPOLYLINE
  5
53
100
AcDbEntity
  8
0
  6
ByLayer
 62
    0
370
   -1
100
AcDbPolyline
 90
  225
 70
    1
 43
0
 10
31.36239370799999
 20
2.251388320000066
 10
31.73746439599999
 20
2.277903600000004
 10
33.80396889999999
 20
1.918742080000071
 10
36.263622692
 20
0.9039300000000361
 10
36.263622692
 20
-0.8605413599999621
 10
33.80396889999999
 20
-1.875353439999996
 10
31.73746439599999
 20
-2.232104479999935
 10
31.36239370799999
 20
-2.205589199999998
 10
31.07168981999999
 20
-4.777571359999998
 10
31.44459107599999
 20
-4.837833359999943
 10
33.379965468
 20
-5.642933679999952
 10
35.55084375599999
 20
-7.180819919999962
 10
35.158899708
 20
-8.901902639999976
 10
32.535333276
 20
-9.343020479999975
 10
30.440385108
 20
-9.232138399999977
 10
30.080741492
 20
-9.121256319999979
 10
29.22526213999999
 20
-11.56548303999998
 10
29.575745932
 20
-11.70770135999999
 10
31.28236577199999
 20
-12.92499375999998
 10
33.05840743599999
 20
-14.90399783999999
 10
32.29211584399999
 20
-16.49732511999996
 10
29.635766884
 20
-16.34305439999998
 10
27.617954076
 20
-15.76694967999995
 10
27.291334036
 20
-15.58375319999999
 10
25.91519100399999
 20
-17.77246903999999
 10
26.22517873199999
 20
-17.98700175999996
 10
27.617954076
 20
-19.55381375999999
 10
28.907560876
 20
-21.88233743999996
 10
27.806453612
 20
-23.26113199999995
 10
25.252309004
 20
-22.52111463999996
 10
23.41238962
 20
-21.51353399999996
 10
23.134943372
 20
-21.25802311999995
 10
21.30563009999999
 20
-23.08998791999997
 10
21.560417836
 20
-23.36478263999997
 10
22.56872161999999
 20
-25.20638935999996
 10
23.31018526799999
 20
-27.75908767999996
 10
21.92922127599999
 20
-28.86067703999996
 10
19.602867028
 20
-27.56865975999998
 10
18.0334035
 20
-26.17540231999997
 10
17.82007601999999
 20
-25.86927135999996
 10
15.629431796
 20
-27.24324495999997
 10
15.81672609199999
 20
-27.57348071999997
 10
16.390902428
 20
-29.58864199999998
 10
16.54396790799999
 20
-32.24258047999996
 10
14.95232796399999
 20
-33.00911311999997
 10
12.97235969199999
 20
-31.23499983999995
 10
11.751933668
 20
-29.52837999999999
 10
11.613331068
 20
-29.17886039999995
 10
9.170791683999994
 20
-30.03217031999997
 10
9.280709571999996
 20
-30.39374231999999
 10
9.390386411999991
 20
-32.48603895999995
 10
8.949509619999994
 20
-35.11105167999995
 10
7.227462707999996
 20
-35.50395991999999
 10
5.691986947999994
 20
-33.32970695999995
 10
4.882547763999995
 20
-31.39650199999996
 10
4.824937291999993
 20
-31.02528807999997
 10
2.253678275999997
 20
-31.31454567999998
 10
2.279952507999993
 20
-31.69058055999996
 10
1.921514131999994
 20
-33.75636191999999
 10
0.9081483399999922
 20
-36.21746199999999
 10
-0.8587335000000059
 20
-36.21746199999999
 10
-1.872099292000008
 20
-33.75636191999999
 10
-2.230537668000006
 20
-31.69058055999996
 10
-2.204263436000006
 20
-31.31454567999998
 10
-4.775522452000007
 20
-31.02528807999997
 10
-4.833132924000004
 20
-31.39650199999996
 10
-5.642572108000008
 20
-33.32970695999995
 10
-7.177806820000003
 20
-35.50395991999999
 10
-8.900094780000003
 20
-35.11105167999995
 10
-9.340730524000005
 20
-32.48603895999995
 10
-9.231053684000004
 20
-30.39374231999999
 10
-9.121135796000006
 20
-30.03217031999997
 10
-11.56415727600001
 20
-29.17886039999995
 10
-11.70275987600001
 20
-29.52837999999999
 10
-12.922703804
 20
-31.23499983999995
 10
-14.9027684952
 20
-33.00911311999997
 10
-16.4943361248
 20
-32.24258047999996
 10
-16.3413188544
 20
-29.58864199999998
 10
-15.76721483280001
 20
-27.57348071999997
 10
-15.58020979440001
 20
-27.24324495999997
 10
-17.7707334944
 20
-25.86927135999996
 10
-17.9838922408
 20
-26.17540231999997
 10
-19.55321114000001
 20
-27.56865975999998
 10
-21.8797341216
 20
-28.86067703999996
 10
-23.26072221840001
 20
-27.75908767999996
 10
-22.5192103608
 20
-25.20638935999996
 10
-21.5109306816
 20
-23.36478263999997
 10
-21.25592600240001
 20
-23.08998791999997
 10
-23.0855044272
 20
-21.25802311999995
 10
-23.36273373200001
 20
-21.51353399999996
 10
-25.20277364000001
 20
-22.52111463999996
 10
-27.75684593360001
 20
-23.26113199999995
 10
-28.85795319760001
 20
-21.88233743999996
 10
-27.5685151312
 20
-19.55381375999999
 10
-26.17573978720001
 20
-17.98700175999996
 10
-25.8644745048
 20
-17.77246903999999
 10
-27.24158172880001
 20
-15.58375319999999
 10
-27.5685151312
 20
-15.76694967999995
 10
-29.58640025360001
 20
-16.34305439999998
 10
-32.24248406080001
 20
-16.49732511999996
 10
-33.0088479672
 20
-14.90399783999999
 10
-31.2328786176
 20
-12.92499375999998
 10
-29.5262346728
 20
-11.70770135999999
 10
-29.17577498560001
 20
-11.56548303999998
 10
-30.03103739440001
 20
-9.121256319999979
 10
-30.39070511520001
 20
-9.232138399999977
 10
-32.48574970240001
 20
-9.343020479999975
 10
-35.1090991912
 20
-8.901902639999976
 10
-35.50145302080001
 20
-7.180819919999962
 10
-33.330550628
 20
-5.642933679999952
 10
-31.39375405280001
 20
-4.837833359999943
 10
-31.02234729440001
 20
-4.777571359999998
 10
-31.31266550560001
 20
-2.205589199999998
 10
-31.68800134640001
 20
-2.232104479999935
 10
-33.75424069760001
 20
-1.875353439999996
 10
-36.2141837472
 20
-0.8605413599999621
 10
-36.2141837472
 20
0.9039300000000361
 10
-33.75424069760001
 20
1.918742080000071
 10
-31.68800134640001
 20
2.277903600000004
 10
-31.31266550560001
 20
2.251388320000066
 10
-31.02234729440001
 20
4.820960000000069
 10
-31.39375405280001
 20
4.878811520000022
 10
-33.330550628
 20
5.688732800000016
 10
-35.50145302080001
 20
7.226619040000029
 10
-35.1090991912
 20
8.945291280000051
 10
-32.48574970240001
 20
9.388819600000046
 10
-30.39070511520001
 20
9.277937520000046
 10
-30.03103739440001
 20
9.167055440000047
 10
-29.17577498560001
 20
11.61128216
 10
-29.5262346728
 20
11.74867952000002
 10
-31.2328786176
 20
12.97079288
 10
-33.0088479672
 20
14.94979696000001
 10
-32.24248406080001
 20
16.54312424000006
 10
-29.58640025360001
 20
16.38885351999999
 10
-27.5685151312
 20
15.81274880000006
 10
-27.24158172880001
 20
15.62955232000006
 10
-25.8644745048
 20
17.81826816000001
 10
-26.17573978720001
 20
18.03280088000002
 10
-27.5685151312
 20
19.59961288000005
 10
-28.85795319760001
 20
21.92572608000003
 10
-27.75684593360001
 20
23.30934160000006
 10
-25.20277364000001
 20
22.56932424000007
 10
-23.36273373200001
 20
21.55692264000003
 10
-23.0855044272
 20
21.30382224000002
 10
-21.25592600240001
 20
23.13578704000004
 10
-21.5109306816
 20
23.40817128
 10
-22.5192103608
 20
25.24977800000007
 10
-23.26072221840001
 20
27.80488680000003
 10
-21.8797341216
 20
28.90647616000003
 10
-19.55321114000001
 20
27.61445888000004
 10
-17.9838922408
 20
26.22120144000004
 10
-17.7707334944
 20
25.91266000000007
 10
-15.58020979440001
 20
27.28904408000004
 10
-15.76721483280001
 20
27.61445888000004
 10
-16.3413188544
 20
29.63203064000005
 10
-16.4943361248
 20
32.29079008000002
 10
-14.9027684952
 20
33.05491224000004
 10
-12.922703804
 20
31.28079896000007
 10
-11.70275987600001
 20
29.57176864000002
 10
-11.56415727600001
 20
29.21983856000007
 10
-9.121135796000006
 20
30.07796944000004
 10
-9.231053684000004
 20
30.43713096000006
 10
-9.340730524000005
 20
32.53183808000006
 10
-8.900094780000003
 20
35.15685080000003
 10
-7.177806820000003
 20
35.54734856000006
 10
-5.642572108000008
 20
33.38032704000005
 10
-4.833132924000004
 20
31.43989064000003
 10
-4.775522452000007
 20
31.06867672000004
 10
-2.204263436000006
 20
31.36034480000005
 10
-2.230537668000006
 20
31.73637968000002
 10
-1.872099292000008
 20
33.80216104000002
 10
-0.8587335000000059
 20
36.26085064000002
 10
0.9081483399999922
 20
36.26085064000002
 10
1.921514131999994
 20
33.80216104000002
 10
2.279952507999993
 20
31.73637968000002
 10
2.253678275999997
 20
31.36034480000005
 10
4.824937291999993
 20
31.06867672000004
 10
4.882547763999995
 20
31.43989064000003
 10
5.691986947999994
 20
33.38032704000005
 10
7.227462707999996
 20
35.54734856000006
 10
8.949509619999994
 20
35.15685080000003
 10
9.390386411999991
 20
32.53183808000006
 10
9.280709571999996
 20
30.43713096000006
 10
9.170791683999994
 20
30.07796944000004
 10
11.613331068
 20
29.21983856000007
 10
11.751933668
 20
29.57176864000002
 10
12.97235969199999
 20
31.28079896000007
 10
14.95232796399999
 20
33.05491224000004
 10
16.54396790799999
 20
32.29079008000002
 10
16.390902428
 20
29.63203064000005
 10
15.81672609199999
 20
27.61445888000004
 10
15.629431796
 20
27.28904408000004
 10
17.82007601999999
 20
25.91266000000007
 10
18.0334035
 20
26.22120144000004
 10
19.602867028
 20
27.61445888000004
 10
21.92922127599999
 20
28.90647616000003
 10
23.31018526799999
 20
27.80488680000003
 10
22.56872161999999
 20
25.24977800000007
 10
21.560417836
 20
23.40817128
 10
21.30563009999999
 20
23.13578704000004
 10
23.134943372
 20
21.30382224000002
 10
23.41238962
 20
21.55692264000003
 10
25.252309004
 20
22.56932424000007
 10
27.806453612
 20
23.30934160000006
 10
28.907560876
 20
21.92572608000003
 10
27.617954076
 20
19.59961288000005
 10
26.22517873199999
 20
18.03280088000002
 10
25.91519100399999
 20
17.81826816000001
 10
27.291334036
 20
15.62955232000006
 10
27.617954076
 20
15.81274880000006
 10
29.635766884
 20
16.38885351999999
 10
32.29211584399999
 20
16.54312424000006
 10
33.05840743599999
 20
14.94979696000001
 10
31.28236577199999
 20
12.97079288
 10
29.575745932
 20
11.74867952000002
 10
29.22526213999999
 20
11.61128216
 10
30.080741492
 20
9.167055440000047
 10
30.440385108
 20
9.277937520000046
 10
32.535333276
 20
9.388819600000046
 10
35.158899708
 20
8.945291280000051
 10
35.55084375599999
 20
7.226619040000029
 10
33.379965468
 20
5.688732800000016
 10
31.44459107599999
 20
4.878811520000022
 10
31.07168981999999
 20
4.820960000000069
 10
31.36239370799999
 20
2.251388320000066
  0
LWPOLYLINE
  5
54
100
AcDbEntity
  8
0
  6
ByLayer
 62
  256
370
   -1
100
AcDbPolyline
 90
    2
 70
    1
 43
0
 10
1.230405658563114
 20
-1.999999999999999
 42
3.533931319104838
 10
-1.230405658563115
 20
-1.999999999999998
  0
ENDBLK
  5
52
330
50
100
AcDbEntity
  8
0
100
AcDbBlockEnd
  0
ENDSEC
  0
SECTION
  2
ENTITIES
  0
INSERT
  5
55
100
AcDbEntity
  8
gears
  6
ByLayer
 62
  256
370
   -1
100
AcDbBlockReference
  2
gear_nema17_shaft
 10
1.453494348191743e-16
 20
-1.554312234475219e-15
 30
0
 41
1
 42
1
 43
0
 50
0
 70
    1
 71
    1
 44
0
 45
0
  0
INSERT
  5
56
100
AcDbEntity
  8
gears
  6
ByLayer
 62
  256
370
   -1
100
AcDbBlockReference
  2
gear_nema17_shaft
 10
69
 20
-1.554312234475219e-15
 30
0
 41
1
 42
1
 43
0
 50
6.426309999999996
 70
    1
 71
    1
 44
0
 45
0
  0
CIRCLE
  5
57
100
AcDbEntity
  8
enclosure_above
  6
ByLayer
 62
  256
370
   -1
100
AcDbCircle
 10
1.453494348191743e-16
 20
-1.554312234475219e-15
 40
2.348169092000004
  0
CIRCLE
  5
58
100
AcDbEntity
  8
enclosure_above
  6
ByLayer
 62
  256
370
   -1
100
AcDbCircle
 10
69
 20
-1.554312234475219e-15
 40
2.348169092000006
  0
LWPOLYLINE
  5
59
100
AcDbEntity
  8
enclosure_above
  6
ByLayer
 62
  256
370
   -1
100
AcDbPolyline
 90
    8
 70
    1
 43
0
 10
-30
 20
-40
 10
100
 20
-40
 42
0.414213562373095
 10
110
 20
-30
 10
110
 20
30
 42
0.414213562373095
 10
100
 20
40
 10
-30
 20
40
 42
0.414213562373095
 10
-40
 20
30
 10
-40
 20
-30
 42
0.414213562373095
  0
CIRCLE
  5
5A
100
AcDbEntity
  8
enclosure_above
  6
ByLayer
 62
  256
370
   -1
100
AcDbCircle
 10
-30
 20
30
 40
2.1527
  0
CIRCLE
  5
5B
100
AcDbEntity
  8
enclosure_above
  6
ByLayer
 62
  256
370
   -1
100
AcDbCircle
 10
100
 20
30
 40
2.1527
  0
CIRCLE
  5
5C
100
AcDbEntity
  8
enclosure_above
  6
ByLayer
 62
  256
370
   -1
100
AcDbCircle
 10
100
 20
-30
 40
2.1527
  0
CIRCLE
  5
5D
100
AcDbEntity
  8
enclosure_above
  6
ByLayer
 62
  256
370
   -1
100
AcDbCircle
 10
-30
 20
-30
 40
2.1527
  0
CIRCLE
  5
5E
100
AcDbEntity
  8
support_below
  6
ByLayer
 62
  256
370
   -1
100
AcDbCircle
 10
69
 20
-1.554312234475219e-15
 40
2.348169092000006
  0
LWPOLYLINE
  5
5F
100
AcDbEntity
  8
support_below
  6
ByLayer
 62
  256
370
   -1
100
AcDbPolyline
 90
    8
 70
    1
 43
0
 10
-30
 20
-40
 10
100
 20
-40
 42
0.414213562373095
 10
110
 20
-30
 10
110
 20
30
 42
0.414213562373095
 10
100
 20
40
 10
-30
 20
40
 42
0.414213562373095
 10
-40
 20
30
 10
-40
 20
-30
 42
0.414213562373095
  0
CIRCLE
  5
60
100
AcDbEntity
  8
support_below
  6
ByLayer
 62
  256
370
   -1
100
AcDbCircle
 10
-30
 20
30
 40
1.7272
  0
CIRCLE
  5
61
100
AcDbEntity
  8
support_below
  6
ByLayer
 62
  256
370
   -1
100
AcDbCircle
 10
-30
 20
-30
 40
1.7272
  0
CIRCLE
  5
62
100
AcDbEntity
  8
support_below
  6
ByLayer
 62
  256
370
   -1
100
AcDbCircle
 10
100
 20
30
 40
1.7272
  0
CIRCLE
  5
63
100
AcDbEntity
  8
support_below
  6
ByLayer
 62
  256
370
   -1
100
AcDbCircle
 10
100
 20
-30
 40
1.7272
  0
CIRCLE
  5
64
100
AcDbEntity
  8
support_below
  6
ByLayer
 62
  256
370
   -1
100
AcDbCircle
 10
15.52
 20
15.52
 40
1.7
  0
CIRCLE
  5
65
100
AcDbEntity
  8
support_below
  6
ByLayer
 62
  256
370
   -1
100
AcDbCircle
 10
15.52
 20
-15.52
 40
1.7
  0
CIRCLE
  5
66
100
AcDbEntity
  8
support_below
  6
ByLayer
 62
  256
370
   -1
100
AcDbCircle
 10
-15.52
 20
-15.52
 40
1.7
  0
CIRCLE
  5
67
100
AcDbEntity
  8
support_below
  6
ByLayer
 62
  256
370
   -1
100
AcDbCircle
 10
-15.52
 20
15.52
 40
1.7
  0
CIRCLE
  5
68
100
AcDbEntity
  8
support_below
  6
ByLayer
 62
  256
370
   -1
100
AcDbCircle
 10
1.45349e-16
 20
-1.55431e-15
 40
11.25
  0
ENDSEC
  0
SECTION
  2
OBJECTS
  0
DICTIONARY
  5
C
330
0
100
AcDbDictionary
281
    1
  3
ACAD_GROUP
350
D
  0
DICTIONARY
  5
D
330
C
100
AcDbDictionary
281
    1
  0
ENDSEC
  0
EOF
