  0
SECTION
  2
HEADER
  9
$ACADVER
  1
AC1014
  9
$HANDSEED
  5
FFFF
  9
$MEASUREMENT
 70
     1
  0
ENDSEC
  0
SECTION
  2
TABLES
  0
TABLE
  2
VPORT
  5
8
330
0
100
AcDbSymbolTable
 70
     4
  0
VPORT
  5
2E
330
8
100
AcDbSymbolTableRecord
100
AcDbViewportTableRecord
  2
*ACTIVE
 70
     0
 10
0.0
 20
0.0
 11
1.0
 21
1.0
 12
210.0
 22
148.5
 13
0.0
 23
0.0
 14
10.0
 24
10.0
 15
10.0
 25
10.0
 16
0.0
 26
0.0
 36
1.0
 17
0.0
 27
0.0
 37
0.0
 40
341.0
 41
1.24
 42
50.0
 43
0.0
 44
0.0
 50
0.0
 51
0.0
 71
     0
 72
   100
 73
     1
 74
     3
 75
     0
 76
     0
 77
     0
 78
     0
  0
ENDTAB
  0
TABLE
  2
LTYPE
  5
5
330
0
100
AcDbSymbolTable
 70
     1
  0
LTYPE
  5
14
330
5
100
AcDbSymbolTableRecord
100
AcDbLinetypeTableRecord
  2
BYBLOCK
 70
     0
  3

 72
    65
 73
     0
 40
0.0
  0
LTYPE
  5
15
330
5
100
AcDbSymbolTableRecord
100
AcDbLinetypeTableRecord
  2
BYLAYER
 70
     0
  3

 72
    65
 73
     0
 40
0.0
  0
LTYPE
  5
16
330
5
100
AcDbSymbolTableRecord
100
AcDbLinetypeTableRecord
  2
CONTINUOUS
 70
     0
  3
Solid line
 72
    65
 73
     0
 40
0.0
  0
ENDTAB
  0
TABLE
  2
LAYER
  5
2
100
AcDbSymbolTable
 70
2
  0
LAYER
  5
50
100
AcDbSymbolTableRecord
100
AcDbLayerTableRecord
  2
0
 70
0
  6
CONTINUOUS
  0
LAYER
  5
51
100
AcDbSymbolTableRecord
100
AcDbLayerTableRecord
  2
Layer_1
 70
0
  6
CONTINUOUS
  0
ENDTAB
  0
TABLE
  2
STYLE
  5
3
330
0
100
AcDbSymbolTable
 70
     1
  0
STYLE
  5
11
330
3
100
AcDbSymbolTableRecord
100
AcDbTextStyleTableRecord
  2
STANDARD
 70
     0
 40
0.0
 41
1.0
 50
0.0
 71
     0
 42
2.5
  3
txt
  4

  0
ENDTAB
  0
TABLE
  2
VIEW
  5
6
330
0
100
AcDbSymbolTable
 70
     0
  0
ENDTAB
  0
TABLE
  2
UCS
  5
7
330
0
100
AcDbSymbolTable
 70
     0
  0
ENDTAB
  0
TABLE
  2
APPID
  5
9
330
0
100
AcDbSymbolTable
 70
     2
  0
APPID
  5
12
330
9
100
AcDbSymbolTableRecord
100
AcDbRegAppTableRecord
  2
ACAD
 70
     0
  0
ENDTAB
  0
TABLE
  2
DIMSTYLE
  5
A
330
0
100
AcDbSymbolTable
 70
     1
  0
DIMSTYLE
105
27
330
A
100
AcDbSymbolTableRecord
100
AcDbDimStyleTableRecord
  2
ISO-25
 70
     0
  3

  4

  5

  6

  7

 40
1.0
 41
2.5
 42
0.625
 43
3.75
 44
1.25
 45
0.0
 46
0.0
 47
0.0
 48
0.0
140
2.5
141
2.5
142
0.0
143
0.03937007874016
144
1.0
145
0.0
146
1.0
147
0.625
 71
     0
 72
     0
 73
     0
 74
     0
 75
     0
 76
     0
 77
     1
 78
     8
170
     0
171
     3
172
     1
173
     0
174
     0
175
     0
176
     0
177
     0
178
     0
270
     2
271
     2
272
     2
273
     2
274
     3
340
11
275
     0
280
     0
281
     0
282
     0
283
     0
284
     8
285
     0
286
     0
287
     3
288
     0
  0
ENDTAB
  0
TABLE
  2
BLOCK_RECORD
  5
1
330
0
100
AcDbSymbolTable
 70
     1
  0
BLOCK_RECORD
  5
1F
330
1
100
AcDbSymbolTableRecord
100
AcDbBlockTableRecord
  2
*MODEL_SPACE
  0
BLOCK_RECORD
  5
1B
330
1
100
AcDbSymbolTableRecord
100
AcDbBlockTableRecord
  2
*PAPER_SPACE
  0
ENDTAB
  0
ENDSEC
  0
SECTION
  2
BLOCKS
  0
BLOCK
  5
20
330
1F
100
AcDbEntity
  8
0
100
AcDbBlockBegin
  2
*MODEL_SPACE
 70
     0
 10
0.0
 20
0.0
 30
0.0
  3
*MODEL_SPACE
  1

  0
ENDBLK
  5
21
330
1F
100
AcDbEntity
  8
0
100
AcDbBlockEnd
  0
BLOCK
  5
1C
330
1B
100
AcDbEntity
 67
     1
  8
0
100
AcDbBlockBegin
  2
*PAPER_SPACE
  1

  0
ENDBLK
  5
1D
330
1B
100
AcDbEntity
 67
     1
  8
0
100
AcDbBlockEnd
  0
ENDSEC
  0
SECTION
  2
ENTITIES
  0
SPLINE
  5
100
100
AcDbEntity
  8
Layer_1
 62
1
100
AcDbSpline
 70
8
 71
3
 72
8
 73
4
 74
0
 40
0
 40
0
 40
0
 40
0
 40
1
 40
1
 40
1
 40
1
 10
154.560828
 20
339.091786
 30
0.0
 10
154.560828
 20
338.254222
 30
0.0
 10
153.881848
 20
337.575242
 30
0.0
 10
153.044284
 20
337.575242
 30
0.0
  0
SPLINE
  5
101
100
AcDbEntity
  8
Layer_1
 62
1
100
AcDbSpline
 70
8
 71
3
 72
8
 73
4
 74
0
 40
0
 40
0
 40
0
 40
0
 40
1
 40
1
 40
1
 40
1
 10
153.044284
 20
337.575242
 30
0.0
 10
152.206720
 20
337.575242
 30
0.0
 10
151.527740
 20
338.254222
 30
0.0
 10
151.527740
 20
339.091786
 30
0.0
  0
SPLINE
  5
102
100
AcDbEntity
  8
Layer_1
 62
1
100
AcDbSpline
 70
8
 71
3
 72
8
 73
4
 74
0
 40
0
 40
0
 40
0
 40
0
 40
1
 40
1
 40
1
 40
1
 10
151.527740
 20
339.091786
 30
0.0
 10
151.527740
 20
339.929350
 30
0.0
 10
152.206720
 20
340.608330
 30
0.0
 10
153.044284
 20
340.608330
 30
0.0
  0
SPLINE
  5
103
100
AcDbEntity
  8
Layer_1
 62
1
100
AcDbSpline
 70
8
 71
3
 72
8
 73
4
 74
0
 40
0
 40
0
 40
0
 40
0
 40
1
 40
1
 40
1
 40
1
 10
153.044284
 20
340.608330
 30
0.0
 10
153.881848
 20
340.608330
 30
0.0
 10
154.560828
 20
339.929350
 30
0.0
 10
154.560828
 20
339.091786
 30
0.0
  0
LWPOLYLINE
  5
104
100
AcDbEntity
  8
Layer_1
 62
1
100
AcDbPolyline
 90
4
 70
1
 10
149.322015
 20
363.480744
 30
0.0
 10
184.077141
 20
363.480744
 30
0.0
 10
184.077141
 20
336.307184
 30
0.0
 10
149.322015
 20
336.307184
 30
0.0
  0
SPLINE
  5
105
100
AcDbEntity
  8
Layer_1
 62
1
100
AcDbSpline
 70
8
 71
3
 72
8
 73
4
 74
0
 40
0
 40
0
 40
0
 40
0
 40
1
 40
1
 40
1
 40
1
 10
154.560828
 20
360.695528
 30
0.0
 10
154.560828
 20
359.857964
 30
0.0
 10
153.881848
 20
359.178985
 30
0.0
 10
153.044284
 20
359.178985
 30
0.0
  0
SPLINE
  5
106
100
AcDbEntity
  8
Layer_1
 62
1
100
AcDbSpline
 70
8
 71
3
 72
8
 73
4
 74
0
 40
0
 40
0
 40
0
 40
0
 40
1
 40
1
 40
1
 40
1
 10
153.044284
 20
359.178985
 30
0.0
 10
152.206720
 20
359.178985
 30
0.0
 10
151.527740
 20
359.857964
 30
0.0
 10
151.527740
 20
360.695528
 30
0.0
  0
SPLINE
  5
107
100
AcDbEntity
  8
Layer_1
 62
1
100
AcDbSpline
 70
8
 71
3
 72
8
 73
4
 74
0
 40
0
 40
0
 40
0
 40
0
 40
1
 40
1
 40
1
 40
1
 10
151.527740
 20
360.695528
 30
0.0
 10
151.527740
 20
361.533092
 30
0.0
 10
152.206720
 20
362.212072
 30
0.0
 10
153.044284
 20
362.212072
 30
0.0
  0
SPLINE
  5
108
100
AcDbEntity
  8
Layer_1
 62
1
100
AcDbSpline
 70
8
 71
3
 72
8
 73
4
 74
0
 40
0
 40
0
 40
0
 40
0
 40
1
 40
1
 40
1
 40
1
 10
153.044284
 20
362.212072
 30
0.0
 10
153.881848
 20
362.212072
 30
0.0
 10
154.560828
 20
361.533092
 30
0.0
 10
154.560828
 20
360.695528
 30
0.0
  0
LWPOLYLINE
  5
109
100
AcDbEntity
  8
Layer_1
 62
1
100
AcDbPolyline
 90
1
 70
1
 10
154.560828
 20
339.091786
 30
0.0
  0
SPLINE
  5
10a
100
AcDbEntity
  8
Layer_1
 62
1
100
AcDbSpline
 70
8
 71
3
 72
8
 73
4
 74
0
 40
0
 40
0
 40
0
 40
0
 40
1
 40
1
 40
1
 40
1
 10
181.871130
 20
339.091786
 30
0.0
 10
181.871130
 20
338.549977
 30
0.0
 10
181.582079
 20
338.049325
 30
0.0
 10
181.112858
 20
337.778420
 30
0.0
  0
SPLINE
  5
10b
100
AcDbEntity
  8
Layer_1
 62
1
100
AcDbSpline
 70
8
 71
3
 72
8
 73
4
 74
0
 40
0
 40
0
 40
0
 40
0
 40
1
 40
1
 40
1
 40
1
 10
181.112858
 20
337.778420
 30
0.0
 10
180.643638
 20
337.507516
 30
0.0
 10
180.065535
 20
337.507516
 30
0.0
 10
179.596314
 20
337.778420
 30
0.0
  0
SPLINE
  5
10c
100
AcDbEntity
  8
Layer_1
 62
1
100
AcDbSpline
 70
8
 71
3
 72
8
 73
4
 74
0
 40
0
 40
0
 40
0
 40
0
 40
1
 40
1
 40
1
 40
1
 10
179.596314
 20
337.778420
 30
0.0
 10
179.127094
 20
338.049325
 30
0.0
 10
178.838042
 20
338.549977
 30
0.0
 10
178.838042
 20
339.091786
 30
0.0
  0
SPLINE
  5
10d
100
AcDbEntity
  8
Layer_1
 62
1
100
AcDbSpline
 70
8
 71
3
 72
8
 73
4
 74
0
 40
0
 40
0
 40
0
 40
0
 40
1
 40
1
 40
1
 40
1
 10
178.838042
 20
339.091786
 30
0.0
 10
178.838042
 20
339.633595
 30
0.0
 10
179.127094
 20
340.134247
 30
0.0
 10
179.596314
 20
340.405152
 30
0.0
  0
SPLINE
  5
10e
100
AcDbEntity
  8
Layer_1
 62
1
100
AcDbSpline
 70
8
 71
3
 72
8
 73
4
 74
0
 40
0
 40
0
 40
0
 40
0
 40
1
 40
1
 40
1
 40
1
 10
179.596314
 20
340.405152
 30
0.0
 10
180.065535
 20
340.676056
 30
0.0
 10
180.643638
 20
340.676056
 30
0.0
 10
181.112858
 20
340.405152
 30
0.0
  0
SPLINE
  5
10f
100
AcDbEntity
  8
Layer_1
 62
1
100
AcDbSpline
 70
8
 71
3
 72
8
 73
4
 74
0
 40
0
 40
0
 40
0
 40
0
 40
1
 40
1
 40
1
 40
1
 10
181.112858
 20
340.405152
 30
0.0
 10
181.582079
 20
340.134247
 30
0.0
 10
181.871130
 20
339.633595
 30
0.0
 10
181.871130
 20
339.091786
 30
0.0
  0
LWPOLYLINE
  5
110
100
AcDbEntity
  8
Layer_1
 62
1
100
AcDbPolyline
 90
1
 70
1
 10
154.560828
 20
360.695528
 30
0.0
  0
SPLINE
  5
111
100
AcDbEntity
  8
Layer_1
 62
1
100
AcDbSpline
 70
8
 71
3
 72
8
 73
4
 74
0
 40
0
 40
0
 40
0
 40
0
 40
1
 40
1
 40
1
 40
1
 10
181.871130
 20
360.695520
 30
0.0
 10
181.871130
 20
360.153711
 30
0.0
 10
181.582079
 20
359.653059
 30
0.0
 10
181.112858
 20
359.382155
 30
0.0
  0
SPLINE
  5
112
100
AcDbEntity
  8
Layer_1
 62
1
100
AcDbSpline
 70
8
 71
3
 72
8
 73
4
 74
0
 40
0
 40
0
 40
0
 40
0
 40
1
 40
1
 40
1
 40
1
 10
181.112858
 20
359.382155
 30
0.0
 10
180.643638
 20
359.111250
 30
0.0
 10
180.065535
 20
359.111250
 30
0.0
 10
179.596314
 20
359.382155
 30
0.0
  0
SPLINE
  5
113
100
AcDbEntity
  8
Layer_1
 62
1
100
AcDbSpline
 70
8
 71
3
 72
8
 73
4
 74
0
 40
0
 40
0
 40
0
 40
0
 40
1
 40
1
 40
1
 40
1
 10
179.596314
 20
359.382155
 30
0.0
 10
179.127094
 20
359.653059
 30
0.0
 10
178.838042
 20
360.153711
 30
0.0
 10
178.838042
 20
360.695520
 30
0.0
  0
SPLINE
  5
114
100
AcDbEntity
  8
Layer_1
 62
1
100
AcDbSpline
 70
8
 71
3
 72
8
 73
4
 74
0
 40
0
 40
0
 40
0
 40
0
 40
1
 40
1
 40
1
 40
1
 10
178.838042
 20
360.695520
 30
0.0
 10
178.838042
 20
361.237329
 30
0.0
 10
179.127094
 20
361.737982
 30
0.0
 10
179.596314
 20
362.008886
 30
0.0
  0
SPLINE
  5
115
100
AcDbEntity
  8
Layer_1
 62
1
100
AcDbSpline
 70
8
 71
3
 72
8
 73
4
 74
0
 40
0
 40
0
 40
0
 40
0
 40
1
 40
1
 40
1
 40
1
 10
179.596314
 20
362.008886
 30
0.0
 10
180.065535
 20
362.279791
 30
0.0
 10
180.643638
 20
362.279791
 30
0.0
 10
181.112858
 20
362.008886
 30
0.0
  0
SPLINE
  5
116
100
AcDbEntity
  8
Layer_1
 62
1
100
AcDbSpline
 70
8
 71
3
 72
8
 73
4
 74
0
 40
0
 40
0
 40
0
 40
0
 40
1
 40
1
 40
1
 40
1
 10
181.112858
 20
362.008886
 30
0.0
 10
181.582079
 20
361.737982
 30
0.0
 10
181.871130
 20
361.237329
 30
0.0
 10
181.871130
 20
360.695520
 30
0.0
  0
LWPOLYLINE
  5
117
100
AcDbEntity
  8
Layer_1
 62
1
100
AcDbPolyline
 90
1
 70
1
 10
181.871130
 20
339.091786
 30
0.0
  0
SPLINE
  5
118
100
AcDbEntity
  8
Layer_1
 62
5
100
AcDbSpline
 70
8
 71
3
 72
8
 73
4
 74
0
 40
0
 40
0
 40
0
 40
0
 40
1
 40
1
 40
1
 40
1
 10
123.212714
 20
372.345516
 30
0.0
 10
125.285407
 20
372.342077
 30
0.0
 10
127.331830
 20
373.190225
 30
0.0
 10
128.749123
 20
374.799270
 30
0.0
  0
SPLINE
  5
119
100
AcDbEntity
  8
Layer_1
 62
5
100
AcDbSpline
 70
8
 71
3
 72
8
 73
4
 74
0
 40
0
 40
0
 40
0
 40
0
 40
1
 40
1
 40
1
 40
1
 10
128.749123
 20
374.799270
 30
0.0
 10
130.999394
 20
377.362723
 30
0.0
 10
131.022593
 20
381.445598
 30
0.0
 10
128.459140
 20
383.811862
 30
0.0
  0
SPLINE
  5
11a
100
AcDbEntity
  8
Layer_1
 62
5
100
AcDbSpline
 70
8
 71
3
 72
8
 73
4
 74
0
 40
0
 40
0
 40
0
 40
0
 40
1
 40
1
 40
1
 40
1
 10
128.459140
 20
383.811862
 30
0.0
 10
126.058078
 20
386.027335
 30
0.0
 10
121.975068
 20
385.841790
 30
0.0
 10
120.235168
 20
382.930358
 30
0.0
  0
SPLINE
  5
11b
100
AcDbEntity
  8
Layer_1
 62
5
100
AcDbSpline
 70
8
 71
3
 72
8
 73
4
 74
0
 40
0
 40
0
 40
0
 40
0
 40
1
 40
1
 40
1
 40
1
 10
120.235168
 20
382.930358
 30
0.0
 10
120.072777
 20
382.675172
 30
0.0
 10
119.945319
 20
382.396698
 30
0.0
 10
119.852525
 20
382.141513
 30
0.0
  0
SPLINE
  5
11c
100
AcDbEntity
  8
Layer_1
 62
5
100
AcDbSpline
 70
8
 71
3
 72
8
 73
4
 74
0
 40
0
 40
0
 40
0
 40
0
 40
1
 40
1
 40
1
 40
1
 10
119.852525
 20
382.141513
 30
0.0
 10
119.562541
 20
381.410755
 30
0.0
 10
119.945274
 20
380.564004
 30
0.0
 10
120.734029
 20
380.401613
 30
0.0
  0
LWPOLYLINE
  5
11d
100
AcDbEntity
  8
Layer_1
 62
1
100
AcDbPolyline
 90
1
 70
1
 10
181.871130
 20
360.695520
 30
0.0
  0
SPLINE
  5
11e
100
AcDbEntity
  8
Layer_1
 62
5
100
AcDbSpline
 70
8
 71
3
 72
8
 73
4
 74
0
 40
0
 40
0
 40
0
 40
0
 40
1
 40
1
 40
1
 40
1
 10
122.099443
 20
380.126129
 30
0.0
 10
122.113201
 20
380.231655
 30
0.0
 10
122.136003
 20
380.335801
 30
0.0
 10
122.167637
 20
380.437406
 30
0.0
  0
LWPOLYLINE
  5
11f
100
AcDbEntity
  8
Layer_1
 62
5
100
AcDbPolyline
 90
2
 70
0
 10
120.734029
 20
380.401613
 30
0.0
 10
122.099443
 20
380.126129
 30
0.0
  0
SPLINE
  5
120
100
AcDbEntity
  8
Layer_1
 62
5
100
AcDbSpline
 70
8
 71
3
 72
8
 73
4
 74
0
 40
0
 40
0
 40
0
 40
0
 40
1
 40
1
 40
1
 40
1
 10
120.792026
 20
380.714930
 30
0.0
 10
120.316453
 20
380.807725
 30
0.0
 10
120.003271
 20
381.283162
 30
0.0
 10
120.096066
 20
381.793533
 30
0.0
  0
SPLINE
  5
121
100
AcDbEntity
  8
Layer_1
 62
5
100
AcDbSpline
 70
8
 71
3
 72
8
 73
4
 74
0
 40
0
 40
0
 40
0
 40
0
 40
1
 40
1
 40
1
 40
1
 10
120.096066
 20
381.793533
 30
0.0
 10
120.188860
 20
382.234308
 30
0.0
 10
120.629590
 20
382.709835
 30
0.0
 10
120.977570
 20
383.023017
 30
0.0
  0
SPLINE
  5
122
100
AcDbEntity
  8
Layer_1
 62
5
100
AcDbSpline
 70
8
 71
3
 72
8
 73
4
 74
0
 40
0
 40
0
 40
0
 40
0
 40
1
 40
1
 40
1
 40
1
 10
120.977570
 20
383.023017
 30
0.0
 10
120.919573
 20
382.617041
 30
0.0
 10
121.070365
 20
382.164802
 30
0.0
 10
121.383547
 20
381.886418
 30
0.0
  0
LWPOLYLINE
  5
123
100
AcDbEntity
  8
Layer_1
 62
5
100
AcDbPolyline
 90
2
 70
0
 10
122.167637
 20
380.437406
 30
0.0
 10
120.792026
 20
380.714930
 30
0.0
  0
SPLINE
  5
124
100
AcDbEntity
  8
Layer_1
 62
5
100
AcDbSpline
 70
8
 71
3
 72
8
 73
4
 74
0
 40
0
 40
0
 40
0
 40
0
 40
1
 40
1
 40
1
 40
1
 10
122.433604
 20
380.963456
 30
0.0
 10
122.510860
 20
381.070043
 30
0.0
 10
122.599260
 20
381.168090
 30
0.0
 10
122.697306
 20
381.255931
 30
0.0
  0
LWPOLYLINE
  5
125
100
AcDbEntity
  8
Layer_1
 62
5
100
AcDbPolyline
 90
2
 70
0
 10
121.383547
 20
381.886418
 30
0.0
 10
122.433604
 20
380.963456
 30
0.0
  0
SPLINE
  5
126
100
AcDbEntity
  8
Layer_1
 62
5
100
AcDbSpline
 70
8
 71
3
 72
8
 73
4
 74
0
 40
0
 40
0
 40
0
 40
0
 40
1
 40
1
 40
1
 40
1
 10
121.650421
 20
382.176401
 30
0.0
 10
121.464832
 20
382.338792
 30
0.0
 10
121.337104
 20
382.559179
 30
0.0
 10
121.337104
 20
382.814364
 30
0.0
  0
SPLINE
  5
127
100
AcDbEntity
  8
Layer_1
 62
5
100
AcDbSpline
 70
8
 71
3
 72
8
 73
4
 74
0
 40
0
 40
0
 40
0
 40
0
 40
1
 40
1
 40
1
 40
1
 10
121.337104
 20
382.814364
 30
0.0
 10
121.302306
 20
383.150745
 30
0.0
 10
121.487986
 20
383.475526
 30
0.0
 10
121.777969
 20
383.626318
 30
0.0
  0
SPLINE
  5
128
100
AcDbEntity
  8
Layer_1
 62
5
100
AcDbSpline
 70
8
 71
3
 72
8
 73
4
 74
0
 40
0
 40
0
 40
0
 40
0
 40
1
 40
1
 40
1
 40
1
 10
121.777969
 20
383.626318
 30
0.0
 10
122.160747
 20
383.846705
 30
0.0
 10
122.531881
 20
384.009051
 30
0.0
 10
122.949457
 20
384.101845
 30
0.0
  0
SPLINE
  5
129
100
AcDbEntity
  8
Layer_1
 62
5
100
AcDbSpline
 70
8
 71
3
 72
8
 73
4
 74
0
 40
0
 40
0
 40
0
 40
0
 40
1
 40
1
 40
1
 40
1
 10
122.949457
 20
384.101845
 30
0.0
 10
122.694271
 20
383.788663
 30
0.0
 10
122.601432
 20
383.347934
 30
0.0
 10
122.729024
 20
382.930358
 30
0.0
  0
LWPOLYLINE
  5
12a
100
AcDbEntity
  8
Layer_1
 62
5
100
AcDbPolyline
 90
2
 70
0
 10
122.697306
 20
381.255931
 30
0.0
 10
121.650421
 20
382.176401
 30
0.0
  0
SPLINE
  5
12b
100
AcDbEntity
  8
Layer_1
 62
5
100
AcDbSpline
 70
8
 71
3
 72
8
 73
4
 74
0
 40
0
 40
0
 40
0
 40
0
 40
1
 40
1
 40
1
 40
1
 10
123.189148
 20
381.572873
 30
0.0
 10
123.301398
 20
381.622162
 30
0.0
 10
123.418267
 20
381.660183
 30
0.0
 10
123.538033
 20
381.686374
 30
0.0
  0
LWPOLYLINE
  5
12c
100
AcDbEntity
  8
Layer_1
 62
5
100
AcDbPolyline
 90
2
 70
0
 10
122.729024
 20
382.930358
 30
0.0
 10
123.189148
 20
381.572873
 30
0.0
  0
SPLINE
  5
12d
100
AcDbEntity
  8
Layer_1
 62
5
100
AcDbSpline
 70
8
 71
3
 72
8
 73
4
 74
0
 40
0
 40
0
 40
0
 40
0
 40
1
 40
1
 40
1
 40
1
 10
123.077004
 20
383.034797
 30
0.0
 10
122.949412
 20
383.440773
 30
0.0
 10
123.135091
 20
383.916256
 30
0.0
 10
123.517869
 20
384.101845
 30
0.0
  0
SPLINE
  5
12e
100
AcDbEntity
  8
Layer_1
 62
5
100
AcDbSpline
 70
8
 71
3
 72
8
 73
4
 74
0
 40
0
 40
0
 40
0
 40
0
 40
1
 40
1
 40
1
 40
1
 10
123.517869
 20
384.101845
 30
0.0
 10
123.993442
 20
384.322233
 30
0.0
 10
124.689312
 20
384.136553
 30
0.0
 10
125.164884
 20
384.008961
 30
0.0
  0
SPLINE
  5
12f
100
AcDbEntity
  8
Layer_1
 62
5
100
AcDbSpline
 70
8
 71
3
 72
8
 73
4
 74
0
 40
0
 40
0
 40
0
 40
0
 40
1
 40
1
 40
1
 40
1
 10
125.164884
 20
384.008961
 30
0.0
 10
124.782106
 20
383.846570
 30
0.0
 10
124.503722
 20
383.533568
 30
0.0
 10
124.410928
 20
383.092793
 30
0.0
  0
LWPOLYLINE
  5
130
100
AcDbEntity
  8
Layer_1
 62
5
100
AcDbPolyline
 90
2
 70
0
 10
123.538033
 20
381.686374
 30
0.0
 10
123.077004
 20
383.034797
 30
0.0
  0
SPLINE
  5
131
100
AcDbEntity
  8
Layer_1
 62
5
100
AcDbSpline
 70
8
 71
3
 72
8
 73
4
 74
0
 40
0
 40
0
 40
0
 40
0
 40
1
 40
1
 40
1
 40
1
 10
124.136124
 20
381.719225
 30
0.0
 10
124.262340
 20
381.705070
 30
0.0
 10
124.386769
 20
381.677968
 30
0.0
 10
124.507437
 20
381.638347
 30
0.0
  0
LWPOLYLINE
  5
132
100
AcDbEntity
  8
Layer_1
 62
5
100
AcDbPolyline
 90
2
 70
0
 10
124.410928
 20
383.092793
 30
0.0
 10
124.136124
 20
381.719225
 30
0.0
  0
SPLINE
  5
133
100
AcDbEntity
  8
Layer_1
 62
5
100
AcDbSpline
 70
8
 71
3
 72
8
 73
4
 74
0
 40
0
 40
0
 40
0
 40
0
 40
1
 40
1
 40
1
 40
1
 10
124.782241
 20
383.034797
 30
0.0
 10
124.875036
 20
383.475571
 30
0.0
 10
125.292522
 20
383.788663
 30
0.0
 10
125.733297
 20
383.753865
 30
0.0
  0
SPLINE
  5
134
100
AcDbEntity
  8
Layer_1
 62
5
100
AcDbSpline
 70
8
 71
3
 72
8
 73
4
 74
0
 40
0
 40
0
 40
0
 40
0
 40
1
 40
1
 40
1
 40
1
 10
125.733297
 20
383.753865
 30
0.0
 10
126.243667
 20
383.719067
 30
0.0
 10
126.777147
 20
383.220251
 30
0.0
 10
127.090329
 20
382.837473
 30
0.0
  0
SPLINE
  5
135
100
AcDbEntity
  8
Layer_1
 62
5
100
AcDbSpline
 70
8
 71
3
 72
8
 73
4
 74
0
 40
0
 40
0
 40
0
 40
0
 40
1
 40
1
 40
1
 40
1
 10
127.090329
 20
382.837473
 30
0.0
 10
126.649554
 20
382.895470
 30
0.0
 10
126.232113
 20
382.744678
 30
0.0
 10
125.953729
 20
382.431496
 30
0.0
  0
LWPOLYLINE
  5
136
100
AcDbEntity
  8
Layer_1
 62
5
100
AcDbPolyline
 90
2
 70
0
 10
124.507437
 20
381.638347
 30
0.0
 10
124.782241
 20
383.034797
 30
0.0
  0
SPLINE
  5
137
100
AcDbEntity
  8
Layer_1
 62
5
100
AcDbSpline
 70
8
 71
3
 72
8
 73
4
 74
0
 40
0
 40
0
 40
0
 40
0
 40
1
 40
1
 40
1
 40
1
 10
125.022613
 20
381.373962
 30
0.0
 10
125.120075
 20
381.302959
 30
0.0
 10
125.210366
 20
381.222605
 30
0.0
 10
125.292207
 20
381.134046
 30
0.0
  0
LWPOLYLINE
  5
138
100
AcDbEntity
  8
Layer_1
 62
5
100
AcDbPolyline
 90
2
 70
0
 10
125.953729
 20
382.431496
 30
0.0
 10
125.022613
 20
381.373962
 30
0.0
  0
SPLINE
  5
139
100
AcDbEntity
  8
Layer_1
 62
5
100
AcDbSpline
 70
8
 71
3
 72
8
 73
4
 74
0
 40
0
 40
0
 40
0
 40
0
 40
1
 40
1
 40
1
 40
1
 10
126.208824
 20
382.199510
 30
0.0
 10
126.591602
 20
382.617086
 30
0.0
 10
127.252764
 20
382.617086
 30
0.0
 10
127.600744
 20
382.141513
 30
0.0
  0
SPLINE
  5
13a
100
AcDbEntity
  8
Layer_1
 62
5
100
AcDbSpline
 70
8
 71
3
 72
8
 73
4
 74
0
 40
0
 40
0
 40
0
 40
0
 40
1
 40
1
 40
1
 40
1
 10
127.600744
 20
382.141513
 30
0.0
 10
127.855930
 20
381.758735
 30
0.0
 10
128.006676
 20
381.317915
 30
0.0
 10
128.134269
 20
380.877141
 30
0.0
  0
SPLINE
  5
13b
100
AcDbEntity
  8
Layer_1
 62
5
100
AcDbSpline
 70
8
 71
3
 72
8
 73
4
 74
0
 40
0
 40
0
 40
0
 40
0
 40
1
 40
1
 40
1
 40
1
 10
128.134269
 20
380.877141
 30
0.0
 10
127.821087
 20
381.132326
 30
0.0
 10
127.380357
 20
381.225166
 30
0.0
 10
126.962781
 20
381.097573
 30
0.0
  0
LWPOLYLINE
  5
13c
100
AcDbEntity
  8
Layer_1
 62
5
100
AcDbPolyline
 90
2
 70
0
 10
125.292207
 20
381.134046
 30
0.0
 10
126.208824
 20
382.199510
 30
0.0
  0
SPLINE
  5
13d
100
AcDbEntity
  8
Layer_1
 62
5
100
AcDbSpline
 70
8
 71
3
 72
8
 73
4
 74
0
 40
0
 40
0
 40
0
 40
0
 40
1
 40
1
 40
1
 40
1
 10
125.619116
 20
380.638129
 30
0.0
 10
125.669958
 20
380.525229
 30
0.0
 10
125.709349
 20
380.407513
 30
0.0
 10
125.736697
 20
380.286752
 30
0.0
  0
LWPOLYLINE
  5
13e
100
AcDbEntity
  8
Layer_1
 62
5
100
AcDbPolyline
 90
2
 70
0
 10
126.962781
 20
381.097573
 30
0.0
 10
125.619116
 20
380.638129
 30
0.0
  0
SPLINE
  5
13f
100
AcDbEntity
  8
Layer_1
 62
5
100
AcDbSpline
 70
8
 71
3
 72
8
 73
4
 74
0
 40
0
 40
0
 40
0
 40
0
 40
1
 40
1
 40
1
 40
1
 10
127.102108
 20
380.749593
 30
0.0
 10
127.670475
 20
380.935182
 30
0.0
 10
128.273596
 20
380.494363
 30
0.0
 10
128.273596
 20
379.891197
 30
0.0
  0
SPLINE
  5
140
100
AcDbEntity
  8
Layer_1
 62
5
100
AcDbSpline
 70
8
 71
3
 72
8
 73
4
 74
0
 40
0
 40
0
 40
0
 40
0
 40
1
 40
1
 40
1
 40
1
 10
128.273596
 20
379.891197
 30
0.0
 10
128.262007
 20
379.485221
 30
0.0
 10
128.203865
 20
379.067690
 30
0.0
 10
128.076272
 20
378.661713
 30
0.0
  0
SPLINE
  5
141
100
AcDbEntity
  8
Layer_1
 62
5
100
AcDbSpline
 70
8
 71
3
 72
8
 73
4
 74
0
 40
0
 40
0
 40
0
 40
0
 40
1
 40
1
 40
1
 40
1
 10
128.076272
 20
378.661713
 30
0.0
 10
127.913881
 20
379.044491
 30
0.0
 10
127.566081
 20
379.322875
 30
0.0
 10
127.160105
 20
379.415670
 30
0.0
  0
LWPOLYLINE
  5
142
100
AcDbEntity
  8
Layer_1
 62
5
100
AcDbPolyline
 90
2
 70
0
 10
125.736697
 20
380.286752
 30
0.0
 10
127.102108
 20
380.749593
 30
0.0
  0
SPLINE
  5
143
100
AcDbEntity
  8
Layer_1
 62
5
100
AcDbSpline
 70
8
 71
3
 72
8
 73
4
 74
0
 40
0
 40
0
 40
0
 40
0
 40
1
 40
1
 40
1
 40
1
 10
125.774529
 20
379.690474
 30
0.0
 10
125.761433
 20
379.564215
 30
0.0
 10
125.735400
 20
379.439638
 30
0.0
 10
125.696824
 20
379.318705
 30
0.0
  0
LWPOLYLINE
  5
144
100
AcDbEntity
  8
Layer_1
 62
5
100
AcDbPolyline
 90
2
 70
0
 10
127.160105
 20
379.415670
 30
0.0
 10
125.774529
 20
379.690474
 30
0.0
  0
SPLINE
  5
145
100
AcDbEntity
  8
Layer_1
 62
5
100
AcDbSpline
 70
8
 71
3
 72
8
 73
4
 74
0
 40
0
 40
0
 40
0
 40
0
 40
1
 40
1
 40
1
 40
1
 10
127.055666
 20
379.044581
 30
0.0
 10
127.531238
 20
378.951786
 30
0.0
 10
127.856020
 20
378.476124
 30
0.0
 10
127.751626
 20
377.965753
 30
0.0
  0
SPLINE
  5
146
100
AcDbEntity
  8
Layer_1
 62
5
100
AcDbSpline
 70
8
 71
3
 72
8
 73
4
 74
0
 40
0
 40
0
 40
0
 40
0
 40
1
 40
1
 40
1
 40
1
 10
127.751626
 20
377.965753
 30
0.0
 10
127.658831
 20
377.490180
 30
0.0
 10
127.218101
 20
377.049451
 30
0.0
 10
126.870121
 20
376.736269
 30
0.0
  0
SPLINE
  5
147
100
AcDbEntity
  8
Layer_1
 62
5
100
AcDbSpline
 70
8
 71
3
 72
8
 73
4
 74
0
 40
0
 40
0
 40
0
 40
0
 40
1
 40
1
 40
1
 40
1
 10
126.870121
 20
376.736269
 30
0.0
 10
126.928118
 20
377.177043
 30
0.0
 10
126.812125
 20
377.594709
 30
0.0
 10
126.464145
 20
377.873093
 30
0.0
  0
LWPOLYLINE
  5
148
100
AcDbEntity
  8
Layer_1
 62
5
100
AcDbPolyline
 90
2
 70
0
 10
125.696824
 20
379.318705
 30
0.0
 10
127.055666
 20
379.044581
 30
0.0
  0
SPLINE
  5
149
100
AcDbEntity
  8
Layer_1
 62
5
100
AcDbSpline
 70
8
 71
3
 72
8
 73
4
 74
0
 40
0
 40
0
 40
0
 40
0
 40
1
 40
1
 40
1
 40
1
 10
125.424965
 20
378.786541
 30
0.0
 10
125.358673
 20
378.695447
 30
0.0
 10
125.284206
 20
378.610593
 30
0.0
 10
125.202492
 20
378.533033
 30
0.0
  0
LWPOLYLINE
  5
14a
100
AcDbEntity
  8
Layer_1
 62
5
100
AcDbPolyline
 90
2
 70
0
 10
126.464145
 20
377.873093
 30
0.0
 10
125.424965
 20
378.786541
 30
0.0
  0
SPLINE
  5
14b
100
AcDbEntity
  8
Layer_1
 62
5
100
AcDbSpline
 70
8
 71
3
 72
8
 73
4
 74
0
 40
0
 40
0
 40
0
 40
0
 40
1
 40
1
 40
1
 40
1
 10
126.243712
 20
377.617773
 30
0.0
 10
126.649689
 20
377.234995
 30
0.0
 10
126.649734
 20
376.573833
 30
0.0
 10
126.174161
 20
376.225853
 30
0.0
  0
SPLINE
  5
14c
100
AcDbEntity
  8
Layer_1
 62
5
100
AcDbSpline
 70
8
 71
3
 72
8
 73
4
 74
0
 40
0
 40
0
 40
0
 40
0
 40
1
 40
1
 40
1
 40
1
 10
126.174161
 20
376.225853
 30
0.0
 10
125.791383
 20
375.970668
 30
0.0
 10
125.350564
 20
375.819921
 30
0.0
 10
124.909789
 20
375.692329
 30
0.0
  0
SPLINE
  5
14d
100
AcDbEntity
  8
Layer_1
 62
5
100
AcDbSpline
 70
8
 71
3
 72
8
 73
4
 74
0
 40
0
 40
0
 40
0
 40
0
 40
1
 40
1
 40
1
 40
1
 10
124.909789
 20
375.692329
 30
0.0
 10
125.199772
 20
376.040309
 30
0.0
 10
125.257814
 20
376.481128
 30
0.0
 10
125.130221
 20
376.898704
 30
0.0
  0
LWPOLYLINE
  5
14e
100
AcDbEntity
  8
Layer_1
 62
5
100
AcDbPolyline
 90
2
 70
0
 10
125.202492
 20
378.533033
 30
0.0
 10
126.243712
 20
377.617773
 30
0.0
  0
SPLINE
  5
14f
100
AcDbEntity
  8
Layer_1
 62
5
100
AcDbSpline
 70
8
 71
3
 72
8
 73
4
 74
0
 40
0
 40
0
 40
0
 40
0
 40
1
 40
1
 40
1
 40
1
 10
124.707708
 20
378.200005
 30
0.0
 10
124.587455
 20
378.144566
 30
0.0
 10
124.461606
 20
378.102185
 30
0.0
 10
124.332315
 20
378.073589
 30
0.0
  0
LWPOLYLINE
  5
150
100
AcDbEntity
  8
Layer_1
 62
5
100
AcDbPolyline
 90
2
 70
0
 10
125.130221
 20
376.898704
 30
0.0
 10
124.707708
 20
378.200005
 30
0.0
  0
SPLINE
  5
151
100
AcDbEntity
  8
Layer_1
 62
5
100
AcDbSpline
 70
8
 71
3
 72
8
 73
4
 74
0
 40
0
 40
0
 40
0
 40
0
 40
1
 40
1
 40
1
 40
1
 10
124.747353
 20
376.782711
 30
0.0
 10
124.944542
 20
376.225943
 30
0.0
 10
124.503677
 20
375.622778
 30
0.0
 10
123.900512
 20
375.622778
 30
0.0
  0
SPLINE
  5
152
100
AcDbEntity
  8
Layer_1
 62
5
100
AcDbSpline
 70
8
 71
3
 72
8
 73
4
 74
0
 40
0
 40
0
 40
0
 40
0
 40
1
 40
1
 40
1
 40
1
 10
123.900512
 20
375.622778
 30
0.0
 10
123.494535
 20
375.622778
 30
0.0
 10
123.042206
 20
375.680729
 30
0.0
 10
122.671028
 20
375.808322
 30
0.0
  0
SPLINE
  5
153
100
AcDbEntity
  8
Layer_1
 62
5
100
AcDbSpline
 70
8
 71
3
 72
8
 73
4
 74
0
 40
0
 40
0
 40
0
 40
0
 40
1
 40
1
 40
1
 40
1
 10
122.671028
 20
375.808322
 30
0.0
 10
123.077004
 20
375.935915
 30
0.0
 10
123.401876
 20
376.249052
 30
0.0
 10
123.459872
 20
376.689826
 30
0.0
  0
LWPOLYLINE
  5
154
100
AcDbEntity
  8
Layer_1
 62
5
100
AcDbPolyline
 90
2
 70
0
 10
124.332315
 20
378.073589
 30
0.0
 10
124.747353
 20
376.782711
 30
0.0
  0
SPLINE
  5
155
100
AcDbEntity
  8
Layer_1
 62
5
100
AcDbSpline
 70
8
 71
3
 72
8
 73
4
 74
0
 40
0
 40
0
 40
0
 40
0
 40
1
 40
1
 40
1
 40
1
 10
123.725162
 20
378.040289
 30
0.0
 10
123.602017
 20
378.054232
 30
0.0
 10
123.480581
 20
378.080482
 30
0.0
 10
123.362683
 20
378.118674
 30
0.0
  0
LWPOLYLINE
  5
156
100
AcDbEntity
  8
Layer_1
 62
5
100
AcDbPolyline
 90
2
 70
0
 10
123.459872
 20
376.689826
 30
0.0
 10
123.725162
 20
378.040289
 30
0.0
  0
SPLINE
  5
157
100
AcDbEntity
  8
Layer_1
 62
5
100
AcDbSpline
 70
8
 71
3
 72
8
 73
4
 74
0
 40
0
 40
0
 40
0
 40
0
 40
1
 40
1
 40
1
 40
1
 10
123.088559
 20
376.771157
 30
0.0
 10
122.984165
 20
376.225988
 30
0.0
 10
122.380999
 20
375.878008
 30
0.0
 10
121.870629
 20
376.133193
 30
0.0
  0
SPLINE
  5
158
100
AcDbEntity
  8
Layer_1
 62
5
100
AcDbSpline
 70
8
 71
3
 72
8
 73
4
 74
0
 40
0
 40
0
 40
0
 40
0
 40
1
 40
1
 40
1
 40
1
 10
121.870629
 20
376.133193
 30
0.0
 10
121.464652
 20
376.353581
 30
0.0
 10
121.116672
 20
376.643519
 30
0.0
 10
120.826689
 20
376.956701
 30
0.0
  0
SPLINE
  5
159
100
AcDbEntity
  8
Layer_1
 62
5
100
AcDbSpline
 70
8
 71
3
 72
8
 73
4
 74
0
 40
0
 40
0
 40
0
 40
0
 40
1
 40
1
 40
1
 40
1
 10
120.826689
 20
376.956701
 30
0.0
 10
121.232665
 20
376.898704
 30
0.0
 10
121.650241
 20
377.049496
 30
0.0
 10
121.928625
 20
377.362678
 30
0.0
  0
LWPOLYLINE
  5
15a
100
AcDbEntity
  8
Layer_1
 62
5
100
AcDbPolyline
 90
2
 70
0
 10
123.362683
 20
378.118674
 30
0.0
 10
123.088559
 20
376.771157
 30
0.0
  0
SPLINE
  5
15b
100
AcDbEntity
  8
Layer_1
 62
5
100
AcDbSpline
 70
8
 71
3
 72
8
 73
4
 74
0
 40
0
 40
0
 40
0
 40
0
 40
1
 40
1
 40
1
 40
1
 10
122.832559
 20
378.392346
 30
0.0
 10
122.742142
 20
378.458950
 30
0.0
 10
122.657971
 20
378.533641
 30
0.0
 10
122.581088
 20
378.615496
 30
0.0
  0
LWPOLYLINE
  5
15c
100
AcDbEntity
  8
Layer_1
 62
5
100
AcDbPolyline
 90
2
 70
0
 10
121.928625
 20
377.362678
 30
0.0
 10
122.832559
 20
378.392346
 30
0.0
  0
SPLINE
  5
15d
100
AcDbEntity
  8
Layer_1
 62
5
100
AcDbSpline
 70
8
 71
3
 72
8
 73
4
 74
0
 40
0
 40
0
 40
0
 40
0
 40
1
 40
1
 40
1
 40
1
 10
121.696639
 20
377.606219
 30
0.0
 10
121.313861
 20
377.200242
 30
0.0
 10
120.652699
 20
377.200242
 30
0.0
 10
120.304719
 20
377.664215
 30
0.0
  0
SPLINE
  5
15e
100
AcDbEntity
  8
Layer_1
 62
5
100
AcDbSpline
 70
8
 71
3
 72
8
 73
4
 74
0
 40
0
 40
0
 40
0
 40
0
 40
1
 40
1
 40
1
 40
1
 10
120.304719
 20
377.664215
 30
0.0
 10
120.049533
 20
378.046993
 30
0.0
 10
119.898787
 20
378.487813
 30
0.0
 10
119.771194
 20
378.928588
 30
0.0
  0
SPLINE
  5
15f
100
AcDbEntity
  8
Layer_1
 62
5
100
AcDbSpline
 70
8
 71
3
 72
8
 73
4
 74
0
 40
0
 40
0
 40
0
 40
0
 40
1
 40
1
 40
1
 40
1
 10
119.771194
 20
378.928588
 30
0.0
 10
119.817592
 20
378.847392
 30
0.0
 10
119.875678
 20
378.824194
 30
0.0
 10
119.980072
 20
378.754598
 30
0.0
  0
SPLINE
  5
160
100
AcDbEntity
  8
Layer_1
 62
5
100
AcDbSpline
 70
8
 71
3
 72
8
 73
4
 74
0
 40
0
 40
0
 40
0
 40
0
 40
1
 40
1
 40
1
 40
1
 10
119.980072
 20
378.754598
 30
0.0
 10
120.003276
 20
378.743009
 30
0.0
 10
120.014915
 20
378.742850
 30
0.0
 10
120.026515
 20
378.731261
 30
0.0
  0
SPLINE
  5
161
100
AcDbEntity
  8
Layer_1
 62
5
100
AcDbSpline
 70
8
 71
3
 72
8
 73
4
 74
0
 40
0
 40
0
 40
0
 40
0
 40
1
 40
1
 40
1
 40
1
 10
120.026515
 20
378.731261
 30
0.0
 10
120.328097
 20
378.592069
 30
0.0
 10
120.629545
 20
378.603849
 30
0.0
 10
120.931128
 20
378.685044
 30
0.0
  0
LWPOLYLINE
  5
162
100
AcDbEntity
  8
Layer_1
 62
5
100
AcDbPolyline
 90
2
 70
0
 10
122.581088
 20
378.615496
 30
0.0
 10
121.696639
 20
377.606219
 30
0.0
  0
SPLINE
  5
163
100
AcDbEntity
  8
Layer_1
 62
5
100
AcDbSpline
 70
8
 71
3
 72
8
 73
4
 74
0
 40
0
 40
0
 40
0
 40
0
 40
1
 40
1
 40
1
 40
1
 10
122.243530
 20
379.126136
 30
0.0
 10
122.186898
 20
379.252633
 30
0.0
 10
122.144644
 20
379.385089
 30
0.0
 10
122.117567
 20
379.521011
 30
0.0
  0
LWPOLYLINE
  5
164
100
AcDbEntity
  8
Layer_1
 62
5
100
AcDbPolyline
 90
2
 70
0
 10
120.931128
 20
378.685044
 30
0.0
 10
122.243530
 20
379.126136
 30
0.0
  0
SPLINE
  5
165
100
AcDbEntity
  8
Layer_1
 62
5
100
AcDbSpline
 70
8
 71
3
 72
8
 73
4
 74
0
 40
0
 40
0
 40
0
 40
0
 40
1
 40
1
 40
1
 40
1
 10
120.803580
 20
379.079241
 30
0.0
 10
120.235213
 20
378.893652
 30
0.0
 10
119.632092
 20
379.334472
 30
0.0
 10
119.632092
 20
379.937637
 30
0.0
  0
SPLINE
  5
166
100
AcDbEntity
  8
Layer_1
 62
5
100
AcDbSpline
 70
8
 71
3
 72
8
 73
4
 74
0
 40
0
 40
0
 40
0
 40
0
 40
1
 40
1
 40
1
 40
1
 10
119.632092
 20
379.937637
 30
0.0
 10
119.632092
 20
383.162252
 30
0.0
 10
116.940912
 20
385.818634
 30
0.0
 10
113.751095
 20
385.818634
 30
0.0
  0
LWPOLYLINE
  5
167
100
AcDbEntity
  8
Layer_1
 62
5
100
AcDbPolyline
 90
2
 70
0
 10
122.117567
 20
379.521011
 30
0.0
 10
120.803580
 20
379.079241
 30
0.0
  0
SPLINE
  5
168
100
AcDbEntity
  8
Layer_1
 62
5
100
AcDbSpline
 70
8
 71
3
 72
8
 73
4
 74
0
 40
0
 40
0
 40
0
 40
0
 40
1
 40
1
 40
1
 40
1
 10
113.751095
 20
381.515101
 30
0.0
 10
113.867089
 20
381.480303
 30
0.0
 10
113.960018
 20
381.480348
 30
0.0
 10
114.064412
 20
381.445550
 30
0.0
  0
SPLINE
  5
169
100
AcDbEntity
  8
Layer_1
 62
5
100
AcDbSpline
 70
8
 71
3
 72
8
 73
4
 74
0
 40
0
 40
0
 40
0
 40
0
 40
1
 40
1
 40
1
 40
1
 10
114.064412
 20
381.445550
 30
0.0
 10
114.110810
 20
381.433962
 30
0.0
 10
114.133873
 20
381.434041
 30
0.0
 10
114.157072
 20
381.422452
 30
0.0
  0
SPLINE
  5
16a
100
AcDbEntity
  8
Layer_1
 62
5
100
AcDbSpline
 70
8
 71
3
 72
8
 73
4
 74
0
 40
0
 40
0
 40
0
 40
0
 40
1
 40
1
 40
1
 40
1
 10
114.157072
 20
381.422452
 30
0.0
 10
114.806635
 20
381.260062
 30
0.0
 10
115.259189
 20
380.680140
 30
0.0
 10
115.328785
 20
380.018978
 30
0.0
  0
SPLINE
  5
16b
100
AcDbEntity
  8
Layer_1
 62
5
100
AcDbSpline
 70
8
 71
3
 72
8
 73
4
 74
0
 40
0
 40
0
 40
0
 40
0
 40
1
 40
1
 40
1
 40
1
 10
115.328785
 20
380.018978
 30
0.0
 10
115.549172
 20
376.759565
 30
0.0
 10
117.706558
 20
373.813200
 30
0.0
 10
120.803580
 20
372.746061
 30
0.0
  0
SPLINE
  5
16c
100
AcDbEntity
  8
Layer_1
 62
5
100
AcDbSpline
 70
8
 71
3
 72
8
 73
4
 74
0
 40
0
 40
0
 40
0
 40
0
 40
1
 40
1
 40
1
 40
1
 10
120.803580
 20
372.746061
 30
0.0
 10
121.586535
 20
372.478551
 30
0.0
 10
122.401661
 20
372.346866
 30
0.0
 10
123.212714
 20
372.345524
 30
0.0
  0
LWPOLYLINE
  5
16d
100
AcDbEntity
  8
Layer_1
 62
5
100
AcDbPolyline
 90
2
 70
0
 10
113.751095
 20
385.818634
 30
0.0
 10
113.751095
 20
381.515101
 30
0.0
  0
SPLINE
  5
16e
100
AcDbEntity
  8
Layer_1
 62
1
100
AcDbSpline
 70
8
 71
3
 72
8
 73
4
 74
0
 40
0
 40
0
 40
0
 40
0
 40
1
 40
1
 40
1
 40
1
 10
122.080830
 20
379.879384
 30
0.0
 10
122.080830
 20
380.540962
 30
0.0
 10
122.433778
 20
381.152286
 30
0.0
 10
123.006722
 20
381.483076
 30
0.0
  0
SPLINE
  5
16f
100
AcDbEntity
  8
Layer_1
 62
1
100
AcDbSpline
 70
8
 71
3
 72
8
 73
4
 74
0
 40
0
 40
0
 40
0
 40
0
 40
1
 40
1
 40
1
 40
1
 10
123.006722
 20
381.483076
 30
0.0
 10
123.579666
 20
381.813865
 30
0.0
 10
124.285562
 20
381.813865
 30
0.0
 10
124.858506
 20
381.483076
 30
0.0
  0
SPLINE
  5
170
100
AcDbEntity
  8
Layer_1
 62
1
100
AcDbSpline
 70
8
 71
3
 72
8
 73
4
 74
0
 40
0
 40
0
 40
0
 40
0
 40
1
 40
1
 40
1
 40
1
 10
124.858506
 20
381.483076
 30
0.0
 10
125.431450
 20
381.152286
 30
0.0
 10
125.784398
 20
380.540962
 30
0.0
 10
125.784398
 20
379.879384
 30
0.0
  0
SPLINE
  5
171
100
AcDbEntity
  8
Layer_1
 62
1
100
AcDbSpline
 70
8
 71
3
 72
8
 73
4
 74
0
 40
0
 40
0
 40
0
 40
0
 40
1
 40
1
 40
1
 40
1
 10
125.784398
 20
379.879384
 30
0.0
 10
125.784398
 20
379.217805
 30
0.0
 10
125.431450
 20
378.606481
 30
0.0
 10
124.858506
 20
378.275692
 30
0.0
  0
SPLINE
  5
172
100
AcDbEntity
  8
Layer_1
 62
1
100
AcDbSpline
 70
8
 71
3
 72
8
 73
4
 74
0
 40
0
 40
0
 40
0
 40
0
 40
1
 40
1
 40
1
 40
1
 10
124.858506
 20
378.275692
 30
0.0
 10
124.285562
 20
377.944902
 30
0.0
 10
123.579666
 20
377.944902
 30
0.0
 10
123.006722
 20
378.275692
 30
0.0
  0
SPLINE
  5
173
100
AcDbEntity
  8
Layer_1
 62
1
100
AcDbSpline
 70
8
 71
3
 72
8
 73
4
 74
0
 40
0
 40
0
 40
0
 40
0
 40
1
 40
1
 40
1
 40
1
 10
123.006722
 20
378.275692
 30
0.0
 10
122.433778
 20
378.606481
 30
0.0
 10
122.080830
 20
379.217805
 30
0.0
 10
122.080830
 20
379.879384
 30
0.0
  0
LWPOLYLINE
  5
174
100
AcDbEntity
  8
Layer_1
 62
5
100
AcDbPolyline
 90
1
 70
1
 10
123.212714
 20
372.345524
 30
0.0
  0
LWPOLYLINE
  5
175
100
AcDbEntity
  8
Layer_1
 62
1
100
AcDbPolyline
 90
1
 70
1
 10
122.080830
 20
379.879384
 30
0.0
  0
SPLINE
  5
176
100
AcDbEntity
  8
Layer_1
 62
1
100
AcDbSpline
 70
8
 71
3
 72
8
 73
4
 74
0
 40
0
 40
0
 40
0
 40
0
 40
1
 40
1
 40
1
 40
1
 10
129.265323
 20
385.336587
 30
0.0
 10
129.265323
 20
385.578128
 30
0.0
 10
129.394183
 20
385.801321
 30
0.0
 10
129.603364
 20
385.922091
 30
0.0
  0
SPLINE
  5
177
100
AcDbEntity
  8
Layer_1
 62
1
100
AcDbSpline
 70
8
 71
3
 72
8
 73
4
 74
0
 40
0
 40
0
 40
0
 40
0
 40
1
 40
1
 40
1
 40
1
 10
129.603364
 20
385.922091
 30
0.0
 10
129.812544
 20
386.042861
 30
0.0
 10
130.070265
 20
386.042861
 30
0.0
 10
130.279446
 20
385.922091
 30
0.0
  0
SPLINE
  5
178
100
AcDbEntity
  8
Layer_1
 62
1
100
AcDbSpline
 70
8
 71
3
 72
8
 73
4
 74
0
 40
0
 40
0
 40
0
 40
0
 40
1
 40
1
 40
1
 40
1
 10
130.279446
 20
385.922091
 30
0.0
 10
130.488626
 20
385.801321
 30
0.0
 10
130.617486
 20
385.578128
 30
0.0
 10
130.617486
 20
385.336587
 30
0.0
  0
SPLINE
  5
179
100
AcDbEntity
  8
Layer_1
 62
1
100
AcDbSpline
 70
8
 71
3
 72
8
 73
4
 74
0
 40
0
 40
0
 40
0
 40
0
 40
1
 40
1
 40
1
 40
1
 10
130.617486
 20
385.336587
 30
0.0
 10
130.617486
 20
385.095046
 30
0.0
 10
130.488626
 20
384.871853
 30
0.0
 10
130.279446
 20
384.751083
 30
0.0
  0
SPLINE
  5
17a
100
AcDbEntity
  8
Layer_1
 62
1
100
AcDbSpline
 70
8
 71
3
 72
8
 73
4
 74
0
 40
0
 40
0
 40
0
 40
0
 40
1
 40
1
 40
1
 40
1
 10
130.279446
 20
384.751083
 30
0.0
 10
130.070265
 20
384.630313
 30
0.0
 10
129.812544
 20
384.630313
 30
0.0
 10
129.603364
 20
384.751083
 30
0.0
  0
SPLINE
  5
17b
100
AcDbEntity
  8
Layer_1
 62
1
100
AcDbSpline
 70
8
 71
3
 72
8
 73
4
 74
0
 40
0
 40
0
 40
0
 40
0
 40
1
 40
1
 40
1
 40
1
 10
129.603364
 20
384.751083
 30
0.0
 10
129.394183
 20
384.871853
 30
0.0
 10
129.265323
 20
385.095046
 30
0.0
 10
129.265323
 20
385.336587
 30
0.0
  0
LWPOLYLINE
  5
17c
100
AcDbEntity
  8
Layer_1
 62
1
100
AcDbPolyline
 90
4
 70
1
 10
131.639895
 20
371.116159
 30
0.0
 10
113.754712
 20
371.116159
 30
0.0
 10
113.754712
 20
387.047859
 30
0.0
 10
131.639895
 20
387.047859
 30
0.0
  0
SPLINE
  5
17d
100
AcDbEntity
  8
Layer_1
 62
1
100
AcDbSpline
 70
8
 71
3
 72
8
 73
4
 74
0
 40
0
 40
0
 40
0
 40
0
 40
1
 40
1
 40
1
 40
1
 10
129.265323
 20
372.826584
 30
0.0
 10
129.265323
 20
373.068125
 30
0.0
 10
129.394183
 20
373.291318
 30
0.0
 10
129.603364
 20
373.412088
 30
0.0
  0
SPLINE
  5
17e
100
AcDbEntity
  8
Layer_1
 62
1
100
AcDbSpline
 70
8
 71
3
 72
8
 73
4
 74
0
 40
0
 40
0
 40
0
 40
0
 40
1
 40
1
 40
1
 40
1
 10
129.603364
 20
373.412088
 30
0.0
 10
129.812544
 20
373.532859
 30
0.0
 10
130.070265
 20
373.532859
 30
0.0
 10
130.279446
 20
373.412088
 30
0.0
  0
SPLINE
  5
17f
100
AcDbEntity
  8
Layer_1
 62
1
100
AcDbSpline
 70
8
 71
3
 72
8
 73
4
 74
0
 40
0
 40
0
 40
0
 40
0
 40
1
 40
1
 40
1
 40
1
 10
130.279446
 20
373.412088
 30
0.0
 10
130.488626
 20
373.291318
 30
0.0
 10
130.617486
 20
373.068125
 30
0.0
 10
130.617486
 20
372.826584
 30
0.0
  0
SPLINE
  5
180
100
AcDbEntity
  8
Layer_1
 62
1
100
AcDbSpline
 70
8
 71
3
 72
8
 73
4
 74
0
 40
0
 40
0
 40
0
 40
0
 40
1
 40
1
 40
1
 40
1
 10
130.617486
 20
372.826584
 30
0.0
 10
130.617486
 20
372.585044
 30
0.0
 10
130.488626
 20
372.361851
 30
0.0
 10
130.279446
 20
372.241080
 30
0.0
  0
SPLINE
  5
181
100
AcDbEntity
  8
Layer_1
 62
1
100
AcDbSpline
 70
8
 71
3
 72
8
 73
4
 74
0
 40
0
 40
0
 40
0
 40
0
 40
1
 40
1
 40
1
 40
1
 10
130.279446
 20
372.241080
 30
0.0
 10
130.070265
 20
372.120310
 30
0.0
 10
129.812544
 20
372.120310
 30
0.0
 10
129.603364
 20
372.241080
 30
0.0
  0
SPLINE
  5
182
100
AcDbEntity
  8
Layer_1
 62
1
100
AcDbSpline
 70
8
 71
3
 72
8
 73
4
 74
0
 40
0
 40
0
 40
0
 40
0
 40
1
 40
1
 40
1
 40
1
 10
129.603364
 20
372.241080
 30
0.0
 10
129.394183
 20
372.361851
 30
0.0
 10
129.265323
 20
372.585044
 30
0.0
 10
129.265323
 20
372.826584
 30
0.0
  0
LWPOLYLINE
  5
183
100
AcDbEntity
  8
Layer_1
 62
1
100
AcDbPolyline
 90
1
 70
1
 10
129.265323
 20
385.336587
 30
0.0
  0
SPLINE
  5
184
100
AcDbEntity
  8
Layer_1
 62
1
100
AcDbSpline
 70
8
 71
3
 72
8
 73
4
 74
0
 40
0
 40
0
 40
0
 40
0
 40
1
 40
1
 40
1
 40
1
 10
118.859062
 20
385.336576
 30
0.0
 10
118.859062
 20
385.578117
 30
0.0
 10
118.987922
 20
385.801310
 30
0.0
 10
119.197103
 20
385.922080
 30
0.0
  0
SPLINE
  5
185
100
AcDbEntity
  8
Layer_1
 62
1
100
AcDbSpline
 70
8
 71
3
 72
8
 73
4
 74
0
 40
0
 40
0
 40
0
 40
0
 40
1
 40
1
 40
1
 40
1
 10
119.197103
 20
385.922080
 30
0.0
 10
119.406283
 20
386.042851
 30
0.0
 10
119.664004
 20
386.042851
 30
0.0
 10
119.873185
 20
385.922080
 30
0.0
  0
SPLINE
  5
186
100
AcDbEntity
  8
Layer_1
 62
1
100
AcDbSpline
 70
8
 71
3
 72
8
 73
4
 74
0
 40
0
 40
0
 40
0
 40
0
 40
1
 40
1
 40
1
 40
1
 10
119.873185
 20
385.922080
 30
0.0
 10
120.082365
 20
385.801310
 30
0.0
 10
120.211225
 20
385.578117
 30
0.0
 10
120.211225
 20
385.336576
 30
0.0
  0
SPLINE
  5
187
100
AcDbEntity
  8
Layer_1
 62
1
100
AcDbSpline
 70
8
 71
3
 72
8
 73
4
 74
0
 40
0
 40
0
 40
0
 40
0
 40
1
 40
1
 40
1
 40
1
 10
120.211225
 20
385.336576
 30
0.0
 10
120.211225
 20
385.095036
 30
0.0
 10
120.082365
 20
384.871843
 30
0.0
 10
119.873185
 20
384.751072
 30
0.0
  0
SPLINE
  5
188
100
AcDbEntity
  8
Layer_1
 62
1
100
AcDbSpline
 70
8
 71
3
 72
8
 73
4
 74
0
 40
0
 40
0
 40
0
 40
0
 40
1
 40
1
 40
1
 40
1
 10
119.873185
 20
384.751072
 30
0.0
 10
119.664004
 20
384.630302
 30
0.0
 10
119.406283
 20
384.630302
 30
0.0
 10
119.197103
 20
384.751072
 30
0.0
  0
SPLINE
  5
189
100
AcDbEntity
  8
Layer_1
 62
1
100
AcDbSpline
 70
8
 71
3
 72
8
 73
4
 74
0
 40
0
 40
0
 40
0
 40
0
 40
1
 40
1
 40
1
 40
1
 10
119.197103
 20
384.751072
 30
0.0
 10
118.987922
 20
384.871843
 30
0.0
 10
118.859062
 20
385.095036
 30
0.0
 10
118.859062
 20
385.336576
 30
0.0
  0
LWPOLYLINE
  5
18a
100
AcDbEntity
  8
Layer_1
 62
1
100
AcDbPolyline
 90
1
 70
1
 10
129.265323
 20
372.826584
 30
0.0
  0
SPLINE
  5
18b
100
AcDbEntity
  8
Layer_1
 62
1
100
AcDbSpline
 70
8
 71
3
 72
8
 73
4
 74
0
 40
0
 40
0
 40
0
 40
0
 40
1
 40
1
 40
1
 40
1
 10
115.115621
 20
372.826576
 30
0.0
 10
115.115621
 20
373.068117
 30
0.0
 10
115.244481
 20
373.291310
 30
0.0
 10
115.453661
 20
373.412080
 30
0.0
  0
SPLINE
  5
18c
100
AcDbEntity
  8
Layer_1
 62
1
100
AcDbSpline
 70
8
 71
3
 72
8
 73
4
 74
0
 40
0
 40
0
 40
0
 40
0
 40
1
 40
1
 40
1
 40
1
 10
115.453661
 20
373.412080
 30
0.0
 10
115.662842
 20
373.532851
 30
0.0
 10
115.920563
 20
373.532851
 30
0.0
 10
116.129743
 20
373.412080
 30
0.0
  0
SPLINE
  5
18d
100
AcDbEntity
  8
Layer_1
 62
1
100
AcDbSpline
 70
8
 71
3
 72
8
 73
4
 74
0
 40
0
 40
0
 40
0
 40
0
 40
1
 40
1
 40
1
 40
1
 10
116.129743
 20
373.412080
 30
0.0
 10
116.338924
 20
373.291310
 30
0.0
 10
116.467784
 20
373.068117
 30
0.0
 10
116.467784
 20
372.826576
 30
0.0
  0
SPLINE
  5
18e
100
AcDbEntity
  8
Layer_1
 62
1
100
AcDbSpline
 70
8
 71
3
 72
8
 73
4
 74
0
 40
0
 40
0
 40
0
 40
0
 40
1
 40
1
 40
1
 40
1
 10
116.467784
 20
372.826576
 30
0.0
 10
116.467784
 20
372.585036
 30
0.0
 10
116.338924
 20
372.361843
 30
0.0
 10
116.129743
 20
372.241072
 30
0.0
  0
SPLINE
  5
18f
100
AcDbEntity
  8
Layer_1
 62
1
100
AcDbSpline
 70
8
 71
3
 72
8
 73
4
 74
0
 40
0
 40
0
 40
0
 40
0
 40
1
 40
1
 40
1
 40
1
 10
116.129743
 20
372.241072
 30
0.0
 10
115.920563
 20
372.120302
 30
0.0
 10
115.662842
 20
372.120302
 30
0.0
 10
115.453661
 20
372.241072
 30
0.0
  0
SPLINE
  5
190
100
AcDbEntity
  8
Layer_1
 62
1
100
AcDbSpline
 70
8
 71
3
 72
8
 73
4
 74
0
 40
0
 40
0
 40
0
 40
0
 40
1
 40
1
 40
1
 40
1
 10
115.453661
 20
372.241072
 30
0.0
 10
115.244481
 20
372.361843
 30
0.0
 10
115.115621
 20
372.585036
 30
0.0
 10
115.115621
 20
372.826576
 30
0.0
  0
LWPOLYLINE
  5
191
100
AcDbEntity
  8
Layer_1
 62
1
100
AcDbPolyline
 90
1
 70
1
 10
118.859062
 20
385.336576
 30
0.0
  0
SPLINE
  5
192
100
AcDbEntity
  8
Layer_1
 62
1
100
AcDbSpline
 70
8
 71
3
 72
8
 73
4
 74
0
 40
0
 40
0
 40
0
 40
0
 40
1
 40
1
 40
1
 40
1
 10
123.345826
 20
361.399421
 30
0.0
 10
123.345826
 20
362.060999
 30
0.0
 10
122.992878
 20
362.672323
 30
0.0
 10
122.419934
 20
363.003113
 30
0.0
  0
SPLINE
  5
193
100
AcDbEntity
  8
Layer_1
 62
1
100
AcDbSpline
 70
8
 71
3
 72
8
 73
4
 74
0
 40
0
 40
0
 40
0
 40
0
 40
1
 40
1
 40
1
 40
1
 10
122.419934
 20
363.003113
 30
0.0
 10
121.846990
 20
363.333902
 30
0.0
 10
121.141094
 20
363.333902
 30
0.0
 10
120.568150
 20
363.003113
 30
0.0
  0
SPLINE
  5
194
100
AcDbEntity
  8
Layer_1
 62
1
100
AcDbSpline
 70
8
 71
3
 72
8
 73
4
 74
0
 40
0
 40
0
 40
0
 40
0
 40
1
 40
1
 40
1
 40
1
 10
120.568150
 20
363.003113
 30
0.0
 10
119.995206
 20
362.672323
 30
0.0
 10
119.642258
 20
362.060999
 30
0.0
 10
119.642258
 20
361.399421
 30
0.0
  0
SPLINE
  5
195
100
AcDbEntity
  8
Layer_1
 62
1
100
AcDbSpline
 70
8
 71
3
 72
8
 73
4
 74
0
 40
0
 40
0
 40
0
 40
0
 40
1
 40
1
 40
1
 40
1
 10
119.642258
 20
361.399421
 30
0.0
 10
119.642258
 20
360.737842
 30
0.0
 10
119.995206
 20
360.126518
 30
0.0
 10
120.568150
 20
359.795729
 30
0.0
  0
SPLINE
  5
196
100
AcDbEntity
  8
Layer_1
 62
1
100
AcDbSpline
 70
8
 71
3
 72
8
 73
4
 74
0
 40
0
 40
0
 40
0
 40
0
 40
1
 40
1
 40
1
 40
1
 10
120.568150
 20
359.795729
 30
0.0
 10
121.141094
 20
359.464939
 30
0.0
 10
121.846990
 20
359.464939
 30
0.0
 10
122.419934
 20
359.795729
 30
0.0
  0
SPLINE
  5
197
100
AcDbEntity
  8
Layer_1
 62
1
100
AcDbSpline
 70
8
 71
3
 72
8
 73
4
 74
0
 40
0
 40
0
 40
0
 40
0
 40
1
 40
1
 40
1
 40
1
 10
122.419934
 20
359.795729
 30
0.0
 10
122.992878
 20
360.126518
 30
0.0
 10
123.345826
 20
360.737842
 30
0.0
 10
123.345826
 20
361.399421
 30
0.0
  0
LWPOLYLINE
  5
198
100
AcDbEntity
  8
Layer_1
 62
1
100
AcDbPolyline
 90
1
 70
1
 10
115.115621
 20
372.826576
 30
0.0
  0
LWPOLYLINE
  5
199
100
AcDbEntity
  8
Layer_1
 62
1
100
AcDbPolyline
 90
1
 70
1
 10
123.345826
 20
361.399421
 30
0.0
  0
LWPOLYLINE
  5
19a
100
AcDbEntity
  8
Layer_1
 62
1
100
AcDbPolyline
 90
14
 70
1
 10
134.555963
 20
352.636055
 30
0.0
 10
134.555963
 20
354.627307
 30
0.0
 10
131.671949
 20
354.627307
 30
0.0
 10
131.671949
 20
356.598868
 30
0.0
 10
134.555963
 20
356.598868
 30
0.0
 10
134.555963
 20
358.590117
 30
0.0
 10
131.672213
 20
358.590117
 30
0.0
 10
131.672213
 20
368.567893
 30
0.0
 10
95.974424
 20
368.567893
 30
0.0
 10
95.974424
 20
373.254273
 30
0.0
 10
88.942738
 20
373.254273
 30
0.0
 10
88.942738
 20
360.601212
 30
0.0
 10
113.786766
 20
360.601477
 30
0.0
 10
113.786766
 20
352.636151
 30
0.0
  0
SPLINE
  5
19b
100
AcDbEntity
  8
Layer_1
 62
1
100
AcDbSpline
 70
8
 71
3
 72
8
 73
4
 74
0
 40
0
 40
0
 40
0
 40
0
 40
1
 40
1
 40
1
 40
1
 10
116.161336
 20
366.856523
 30
0.0
 10
116.161336
 20
367.098064
 30
0.0
 10
116.032476
 20
367.321257
 30
0.0
 10
115.823296
 20
367.442027
 30
0.0
  0
SPLINE
  5
19c
100
AcDbEntity
  8
Layer_1
 62
1
100
AcDbSpline
 70
8
 71
3
 72
8
 73
4
 74
0
 40
0
 40
0
 40
0
 40
0
 40
1
 40
1
 40
1
 40
1
 10
115.823296
 20
367.442027
 30
0.0
 10
115.614115
 20
367.562798
 30
0.0
 10
115.356394
 20
367.562798
 30
0.0
 10
115.147214
 20
367.442027
 30
0.0
  0
SPLINE
  5
19d
100
AcDbEntity
  8
Layer_1
 62
1
100
AcDbSpline
 70
8
 71
3
 72
8
 73
4
 74
0
 40
0
 40
0
 40
0
 40
0
 40
1
 40
1
 40
1
 40
1
 10
115.147214
 20
367.442027
 30
0.0
 10
114.938033
 20
367.321257
 30
0.0
 10
114.809173
 20
367.098064
 30
0.0
 10
114.809173
 20
366.856523
 30
0.0
  0
SPLINE
  5
19e
100
AcDbEntity
  8
Layer_1
 62
1
100
AcDbSpline
 70
8
 71
3
 72
8
 73
4
 74
0
 40
0
 40
0
 40
0
 40
0
 40
1
 40
1
 40
1
 40
1
 10
114.809173
 20
366.856523
 30
0.0
 10
114.809173
 20
366.614983
 30
0.0
 10
114.938033
 20
366.391790
 30
0.0
 10
115.147214
 20
366.271019
 30
0.0
  0
SPLINE
  5
19f
100
AcDbEntity
  8
Layer_1
 62
1
100
AcDbSpline
 70
8
 71
3
 72
8
 73
4
 74
0
 40
0
 40
0
 40
0
 40
0
 40
1
 40
1
 40
1
 40
1
 10
115.147214
 20
366.271019
 30
0.0
 10
115.356394
 20
366.150249
 30
0.0
 10
115.614115
 20
366.150249
 30
0.0
 10
115.823296
 20
366.271019
 30
0.0
  0
SPLINE
  5
1a0
100
AcDbEntity
  8
Layer_1
 62
1
100
AcDbSpline
 70
8
 71
3
 72
8
 73
4
 74
0
 40
0
 40
0
 40
0
 40
0
 40
1
 40
1
 40
1
 40
1
 10
115.823296
 20
366.271019
 30
0.0
 10
116.032476
 20
366.391790
 30
0.0
 10
116.161336
 20
366.614983
 30
0.0
 10
116.161336
 20
366.856523
 30
0.0
  0
LWPOLYLINE
  5
1a1
100
AcDbEntity
  8
Layer_1
 62
1
100
AcDbPolyline
 90
4
 70
1
 10
90.820396
 20
362.319649
 30
0.0
 10
93.158887
 20
362.319649
 30
0.0
 10
93.158887
 20
371.535833
 30
0.0
 10
90.820396
 20
371.535833
 30
0.0
  0
SPLINE
  5
1a2
100
AcDbEntity
  8
Layer_1
 62
1
100
AcDbSpline
 70
8
 71
3
 72
8
 73
4
 74
0
 40
0
 40
0
 40
0
 40
0
 40
1
 40
1
 40
1
 40
1
 10
116.161336
 20
354.346523
 30
0.0
 10
116.161336
 20
354.588064
 30
0.0
 10
116.032476
 20
354.811257
 30
0.0
 10
115.823296
 20
354.932027
 30
0.0
  0
SPLINE
  5
1a3
100
AcDbEntity
  8
Layer_1
 62
1
100
AcDbSpline
 70
8
 71
3
 72
8
 73
4
 74
0
 40
0
 40
0
 40
0
 40
0
 40
1
 40
1
 40
1
 40
1
 10
115.823296
 20
354.932027
 30
0.0
 10
115.614115
 20
355.052798
 30
0.0
 10
115.356394
 20
355.052798
 30
0.0
 10
115.147214
 20
354.932027
 30
0.0
  0
SPLINE
  5
1a4
100
AcDbEntity
  8
Layer_1
 62
1
100
AcDbSpline
 70
8
 71
3
 72
8
 73
4
 74
0
 40
0
 40
0
 40
0
 40
0
 40
1
 40
1
 40
1
 40
1
 10
115.147214
 20
354.932027
 30
0.0
 10
114.938033
 20
354.811257
 30
0.0
 10
114.809173
 20
354.588064
 30
0.0
 10
114.809173
 20
354.346523
 30
0.0
  0
SPLINE
  5
1a5
100
AcDbEntity
  8
Layer_1
 62
1
100
AcDbSpline
 70
8
 71
3
 72
8
 73
4
 74
0
 40
0
 40
0
 40
0
 40
0
 40
1
 40
1
 40
1
 40
1
 10
114.809173
 20
354.346523
 30
0.0
 10
114.809173
 20
354.104982
 30
0.0
 10
114.938033
 20
353.881790
 30
0.0
 10
115.147214
 20
353.761019
 30
0.0
  0
SPLINE
  5
1a6
100
AcDbEntity
  8
Layer_1
 62
1
100
AcDbSpline
 70
8
 71
3
 72
8
 73
4
 74
0
 40
0
 40
0
 40
0
 40
0
 40
1
 40
1
 40
1
 40
1
 10
115.147214
 20
353.761019
 30
0.0
 10
115.356394
 20
353.640249
 30
0.0
 10
115.614115
 20
353.640249
 30
0.0
 10
115.823296
 20
353.761019
 30
0.0
  0
SPLINE
  5
1a7
100
AcDbEntity
  8
Layer_1
 62
1
100
AcDbSpline
 70
8
 71
3
 72
8
 73
4
 74
0
 40
0
 40
0
 40
0
 40
0
 40
1
 40
1
 40
1
 40
1
 10
115.823296
 20
353.761019
 30
0.0
 10
116.032476
 20
353.881790
 30
0.0
 10
116.161336
 20
354.104982
 30
0.0
 10
116.161336
 20
354.346523
 30
0.0
  0
LWPOLYLINE
  5
1a8
100
AcDbEntity
  8
Layer_1
 62
1
100
AcDbPolyline
 90
1
 70
1
 10
116.161336
 20
366.856523
 30
0.0
  0
SPLINE
  5
1a9
100
AcDbEntity
  8
Layer_1
 62
1
100
AcDbSpline
 70
8
 71
3
 72
8
 73
4
 74
0
 40
0
 40
0
 40
0
 40
0
 40
1
 40
1
 40
1
 40
1
 10
126.567597
 20
366.856515
 30
0.0
 10
126.567597
 20
367.098056
 30
0.0
 10
126.438737
 20
367.321249
 30
0.0
 10
126.229557
 20
367.442019
 30
0.0
  0
SPLINE
  5
1aa
100
AcDbEntity
  8
Layer_1
 62
1
100
AcDbSpline
 70
8
 71
3
 72
8
 73
4
 74
0
 40
0
 40
0
 40
0
 40
0
 40
1
 40
1
 40
1
 40
1
 10
126.229557
 20
367.442019
 30
0.0
 10
126.020376
 20
367.562790
 30
0.0
 10
125.762655
 20
367.562790
 30
0.0
 10
125.553475
 20
367.442019
 30
0.0
  0
SPLINE
  5
1ab
100
AcDbEntity
  8
Layer_1
 62
1
100
AcDbSpline
 70
8
 71
3
 72
8
 73
4
 74
0
 40
0
 40
0
 40
0
 40
0
 40
1
 40
1
 40
1
 40
1
 10
125.553475
 20
367.442019
 30
0.0
 10
125.344294
 20
367.321249
 30
0.0
 10
125.215434
 20
367.098056
 30
0.0
 10
125.215434
 20
366.856515
 30
0.0
  0
SPLINE
  5
1ac
100
AcDbEntity
  8
Layer_1
 62
1
100
AcDbSpline
 70
8
 71
3
 72
8
 73
4
 74
0
 40
0
 40
0
 40
0
 40
0
 40
1
 40
1
 40
1
 40
1
 10
125.215434
 20
366.856515
 30
0.0
 10
125.215434
 20
366.614975
 30
0.0
 10
125.344294
 20
366.391782
 30
0.0
 10
125.553475
 20
366.271011
 30
0.0
  0
SPLINE
  5
1ad
100
AcDbEntity
  8
Layer_1
 62
1
100
AcDbSpline
 70
8
 71
3
 72
8
 73
4
 74
0
 40
0
 40
0
 40
0
 40
0
 40
1
 40
1
 40
1
 40
1
 10
125.553475
 20
366.271011
 30
0.0
 10
125.762655
 20
366.150241
 30
0.0
 10
126.020376
 20
366.150241
 30
0.0
 10
126.229557
 20
366.271011
 30
0.0
  0
SPLINE
  5
1ae
100
AcDbEntity
  8
Layer_1
 62
1
100
AcDbSpline
 70
8
 71
3
 72
8
 73
4
 74
0
 40
0
 40
0
 40
0
 40
0
 40
1
 40
1
 40
1
 40
1
 10
126.229557
 20
366.271011
 30
0.0
 10
126.438737
 20
366.391782
 30
0.0
 10
126.567597
 20
366.614975
 30
0.0
 10
126.567597
 20
366.856515
 30
0.0
  0
LWPOLYLINE
  5
1af
100
AcDbEntity
  8
Layer_1
 62
1
100
AcDbPolyline
 90
1
 70
1
 10
116.161336
 20
354.346523
 30
0.0
  0
SPLINE
  5
1b0
100
AcDbEntity
  8
Layer_1
 62
1
100
AcDbSpline
 70
8
 71
3
 72
8
 73
4
 74
0
 40
0
 40
0
 40
0
 40
0
 40
1
 40
1
 40
1
 40
1
 10
130.311039
 20
354.346515
 30
0.0
 10
130.311039
 20
354.588056
 30
0.0
 10
130.182178
 20
354.811249
 30
0.0
 10
129.972998
 20
354.932019
 30
0.0
  0
SPLINE
  5
1b1
100
AcDbEntity
  8
Layer_1
 62
1
100
AcDbSpline
 70
8
 71
3
 72
8
 73
4
 74
0
 40
0
 40
0
 40
0
 40
0
 40
1
 40
1
 40
1
 40
1
 10
129.972998
 20
354.932019
 30
0.0
 10
129.763818
 20
355.052790
 30
0.0
 10
129.506097
 20
355.052790
 30
0.0
 10
129.296916
 20
354.932019
 30
0.0
  0
SPLINE
  5
1b2
100
AcDbEntity
  8
Layer_1
 62
1
100
AcDbSpline
 70
8
 71
3
 72
8
 73
4
 74
0
 40
0
 40
0
 40
0
 40
0
 40
1
 40
1
 40
1
 40
1
 10
129.296916
 20
354.932019
 30
0.0
 10
129.087736
 20
354.811249
 30
0.0
 10
128.958875
 20
354.588056
 30
0.0
 10
128.958875
 20
354.346515
 30
0.0
  0
SPLINE
  5
1b3
100
AcDbEntity
  8
Layer_1
 62
1
100
AcDbSpline
 70
8
 71
3
 72
8
 73
4
 74
0
 40
0
 40
0
 40
0
 40
0
 40
1
 40
1
 40
1
 40
1
 10
128.958875
 20
354.346515
 30
0.0
 10
128.958875
 20
354.104975
 30
0.0
 10
129.087736
 20
353.881782
 30
0.0
 10
129.296916
 20
353.761011
 30
0.0
  0
SPLINE
  5
1b4
100
AcDbEntity
  8
Layer_1
 62
1
100
AcDbSpline
 70
8
 71
3
 72
8
 73
4
 74
0
 40
0
 40
0
 40
0
 40
0
 40
1
 40
1
 40
1
 40
1
 10
129.296916
 20
353.761011
 30
0.0
 10
129.506097
 20
353.640241
 30
0.0
 10
129.763818
 20
353.640241
 30
0.0
 10
129.972998
 20
353.761011
 30
0.0
  0
SPLINE
  5
1b5
100
AcDbEntity
  8
Layer_1
 62
1
100
AcDbSpline
 70
8
 71
3
 72
8
 73
4
 74
0
 40
0
 40
0
 40
0
 40
0
 40
1
 40
1
 40
1
 40
1
 10
129.972998
 20
353.761011
 30
0.0
 10
130.182178
 20
353.881782
 30
0.0
 10
130.311039
 20
354.104975
 30
0.0
 10
130.311039
 20
354.346515
 30
0.0
  0
LWPOLYLINE
  5
1b6
100
AcDbEntity
  8
Layer_1
 62
1
100
AcDbPolyline
 90
1
 70
1
 10
126.567597
 20
366.856515
 30
0.0
  0
SPLINE
  5
1b7
100
AcDbEntity
  8
Layer_1
 62
1
100
AcDbSpline
 70
8
 71
3
 72
8
 73
4
 74
0
 40
0
 40
0
 40
0
 40
0
 40
1
 40
1
 40
1
 40
1
 10
137.421276
 20
383.666558
 30
0.0
 10
137.421276
 20
384.328137
 30
0.0
 10
137.068328
 20
384.939461
 30
0.0
 10
136.495384
 20
385.270250
 30
0.0
  0
SPLINE
  5
1b8
100
AcDbEntity
  8
Layer_1
 62
1
100
AcDbSpline
 70
8
 71
3
 72
8
 73
4
 74
0
 40
0
 40
0
 40
0
 40
0
 40
1
 40
1
 40
1
 40
1
 10
136.495384
 20
385.270250
 30
0.0
 10
135.922440
 20
385.601040
 30
0.0
 10
135.216544
 20
385.601040
 30
0.0
 10
134.643600
 20
385.270250
 30
0.0
  0
SPLINE
  5
1b9
100
AcDbEntity
  8
Layer_1
 62
1
100
AcDbSpline
 70
8
 71
3
 72
8
 73
4
 74
0
 40
0
 40
0
 40
0
 40
0
 40
1
 40
1
 40
1
 40
1
 10
134.643600
 20
385.270250
 30
0.0
 10
134.070656
 20
384.939461
 30
0.0
 10
133.717708
 20
384.328137
 30
0.0
 10
133.717708
 20
383.666558
 30
0.0
  0
SPLINE
  5
1ba
100
AcDbEntity
  8
Layer_1
 62
1
100
AcDbSpline
 70
8
 71
3
 72
8
 73
4
 74
0
 40
0
 40
0
 40
0
 40
0
 40
1
 40
1
 40
1
 40
1
 10
133.717708
 20
383.666558
 30
0.0
 10
133.717708
 20
383.004979
 30
0.0
 10
134.070656
 20
382.393655
 30
0.0
 10
134.643600
 20
382.062866
 30
0.0
  0
SPLINE
  5
1bb
100
AcDbEntity
  8
Layer_1
 62
1
100
AcDbSpline
 70
8
 71
3
 72
8
 73
4
 74
0
 40
0
 40
0
 40
0
 40
0
 40
1
 40
1
 40
1
 40
1
 10
134.643600
 20
382.062866
 30
0.0
 10
135.216544
 20
381.732077
 30
0.0
 10
135.922440
 20
381.732077
 30
0.0
 10
136.495384
 20
382.062866
 30
0.0
  0
SPLINE
  5
1bc
100
AcDbEntity
  8
Layer_1
 62
1
100
AcDbSpline
 70
8
 71
3
 72
8
 73
4
 74
0
 40
0
 40
0
 40
0
 40
0
 40
1
 40
1
 40
1
 40
1
 10
136.495384
 20
382.062866
 30
0.0
 10
137.068328
 20
382.393655
 30
0.0
 10
137.421276
 20
383.004979
 30
0.0
 10
137.421276
 20
383.666558
 30
0.0
  0
LWPOLYLINE
  5
1bd
100
AcDbEntity
  8
Layer_1
 62
1
100
AcDbPolyline
 90
1
 70
1
 10
130.311039
 20
354.346515
 30
0.0
  0
LWPOLYLINE
  5
1be
100
AcDbEntity
  8
Layer_1
 62
1
100
AcDbPolyline
 90
1
 70
1
 10
137.421276
 20
383.666558
 30
0.0
  0
SPLINE
  5
1bf
100
AcDbEntity
  8
Layer_1
 62
1
100
AcDbSpline
 70
8
 71
3
 72
8
 73
4
 74
0
 40
0
 40
0
 40
0
 40
0
 40
1
 40
1
 40
1
 40
1
 10
123.310152
 20
341.042305
 30
0.0
 10
123.310152
 20
341.703884
 30
0.0
 10
122.957204
 20
342.315208
 30
0.0
 10
122.384260
 20
342.645997
 30
0.0
  0
SPLINE
  5
1c0
100
AcDbEntity
  8
Layer_1
 62
1
100
AcDbSpline
 70
8
 71
3
 72
8
 73
4
 74
0
 40
0
 40
0
 40
0
 40
0
 40
1
 40
1
 40
1
 40
1
 10
122.384260
 20
342.645997
 30
0.0
 10
121.811316
 20
342.976786
 30
0.0
 10
121.105420
 20
342.976786
 30
0.0
 10
120.532476
 20
342.645997
 30
0.0
  0
SPLINE
  5
1c1
100
AcDbEntity
  8
Layer_1
 62
1
100
AcDbSpline
 70
8
 71
3
 72
8
 73
4
 74
0
 40
0
 40
0
 40
0
 40
0
 40
1
 40
1
 40
1
 40
1
 10
120.532476
 20
342.645997
 30
0.0
 10
119.959532
 20
342.315208
 30
0.0
 10
119.606584
 20
341.703884
 30
0.0
 10
119.606584
 20
341.042305
 30
0.0
  0
SPLINE
  5
1c2
100
AcDbEntity
  8
Layer_1
 62
1
100
AcDbSpline
 70
8
 71
3
 72
8
 73
4
 74
0
 40
0
 40
0
 40
0
 40
0
 40
1
 40
1
 40
1
 40
1
 10
119.606584
 20
341.042305
 30
0.0
 10
119.606584
 20
340.380726
 30
0.0
 10
119.959532
 20
339.769402
 30
0.0
 10
120.532476
 20
339.438613
 30
0.0
  0
SPLINE
  5
1c3
100
AcDbEntity
  8
Layer_1
 62
1
100
AcDbSpline
 70
8
 71
3
 72
8
 73
4
 74
0
 40
0
 40
0
 40
0
 40
0
 40
1
 40
1
 40
1
 40
1
 10
120.532476
 20
339.438613
 30
0.0
 10
121.105420
 20
339.107823
 30
0.0
 10
121.811316
 20
339.107823
 30
0.0
 10
122.384260
 20
339.438613
 30
0.0
  0
SPLINE
  5
1c4
100
AcDbEntity
  8
Layer_1
 62
1
100
AcDbSpline
 70
8
 71
3
 72
8
 73
4
 74
0
 40
0
 40
0
 40
0
 40
0
 40
1
 40
1
 40
1
 40
1
 10
122.384260
 20
339.438613
 30
0.0
 10
122.957204
 20
339.769402
 30
0.0
 10
123.310152
 20
340.380726
 30
0.0
 10
123.310152
 20
341.042305
 30
0.0
  0
LWPOLYLINE
  5
1c5
100
AcDbEntity
  8
Layer_1
 62
1
100
AcDbPolyline
 90
11
 70
1
 10
135.569272
 20
371.106028
 30
0.0
 10
135.569272
 20
373.097623
 30
0.0
 10
138.453090
 20
373.097544
 30
0.0
 10
138.453090
 20
375.088793
 30
0.0
 10
135.569272
 20
375.088872
 30
0.0
 10
135.569272
 20
377.080124
 30
0.0
 10
138.453085
 20
377.080044
 30
0.0
 10
138.452998
 20
387.057887
 30
0.0
 10
132.685880
 20
387.057887
 30
0.0
 10
132.685880
 20
379.072098
 30
0.0
 10
132.685615
 20
371.106293
 30
0.0
  0
LWPOLYLINE
  5
1c6
100
AcDbEntity
  8
Layer_1
 62
1
100
AcDbPolyline
 90
1
 70
1
 10
123.310152
 20
341.042305
 30
0.0
  0
SPLINE
  5
1c7
100
AcDbEntity
  8
Layer_1
 62
1
100
AcDbSpline
 70
8
 71
3
 72
8
 73
4
 74
0
 40
0
 40
0
 40
0
 40
0
 40
1
 40
1
 40
1
 40
1
 10
116.125658
 20
346.499550
 30
0.0
 10
116.125658
 20
346.741091
 30
0.0
 10
115.996798
 20
346.964284
 30
0.0
 10
115.787617
 20
347.085054
 30
0.0
  0
SPLINE
  5
1c8
100
AcDbEntity
  8
Layer_1
 62
1
100
AcDbSpline
 70
8
 71
3
 72
8
 73
4
 74
0
 40
0
 40
0
 40
0
 40
0
 40
1
 40
1
 40
1
 40
1
 10
115.787617
 20
347.085054
 30
0.0
 10
115.578437
 20
347.205825
 30
0.0
 10
115.320716
 20
347.205825
 30
0.0
 10
115.111536
 20
347.085054
 30
0.0
  0
SPLINE
  5
1c9
100
AcDbEntity
  8
Layer_1
 62
1
100
AcDbSpline
 70
8
 71
3
 72
8
 73
4
 74
0
 40
0
 40
0
 40
0
 40
0
 40
1
 40
1
 40
1
 40
1
 10
115.111536
 20
347.085054
 30
0.0
 10
114.902355
 20
346.964284
 30
0.0
 10
114.773495
 20
346.741091
 30
0.0
 10
114.773495
 20
346.499550
 30
0.0
  0
SPLINE
  5
1ca
100
AcDbEntity
  8
Layer_1
 62
1
100
AcDbSpline
 70
8
 71
3
 72
8
 73
4
 74
0
 40
0
 40
0
 40
0
 40
0
 40
1
 40
1
 40
1
 40
1
 10
114.773495
 20
346.499550
 30
0.0
 10
114.773495
 20
346.258010
 30
0.0
 10
114.902355
 20
346.034817
 30
0.0
 10
115.111536
 20
345.914046
 30
0.0
  0
SPLINE
  5
1cb
100
AcDbEntity
  8
Layer_1
 62
1
100
AcDbSpline
 70
8
 71
3
 72
8
 73
4
 74
0
 40
0
 40
0
 40
0
 40
0
 40
1
 40
1
 40
1
 40
1
 10
115.111536
 20
345.914046
 30
0.0
 10
115.320716
 20
345.793276
 30
0.0
 10
115.578437
 20
345.793276
 30
0.0
 10
115.787617
 20
345.914046
 30
0.0
  0
SPLINE
  5
1cc
100
AcDbEntity
  8
Layer_1
 62
1
100
AcDbSpline
 70
8
 71
3
 72
8
 73
4
 74
0
 40
0
 40
0
 40
0
 40
0
 40
1
 40
1
 40
1
 40
1
 10
115.787617
 20
345.914046
 30
0.0
 10
115.996798
 20
346.034817
 30
0.0
 10
116.125658
 20
346.258010
 30
0.0
 10
116.125658
 20
346.499550
 30
0.0
  0
LWPOLYLINE
  5
1cd
100
AcDbEntity
  8
Layer_1
 62
1
100
AcDbPolyline
 90
4
 70
1
 10
113.751087
 20
332.279080
 30
0.0
 10
131.636270
 20
332.279080
 30
0.0
 10
131.636270
 20
348.210780
 30
0.0
 10
113.751087
 20
348.210780
 30
0.0
  0
SPLINE
  5
1ce
100
AcDbEntity
  8
Layer_1
 62
1
100
AcDbSpline
 70
8
 71
3
 72
8
 73
4
 74
0
 40
0
 40
0
 40
0
 40
0
 40
1
 40
1
 40
1
 40
1
 10
116.125658
 20
333.989548
 30
0.0
 10
116.125658
 20
334.231088
 30
0.0
 10
115.996798
 20
334.454281
 30
0.0
 10
115.787617
 20
334.575052
 30
0.0
  0
SPLINE
  5
1cf
100
AcDbEntity
  8
Layer_1
 62
1
100
AcDbSpline
 70
8
 71
3
 72
8
 73
4
 74
0
 40
0
 40
0
 40
0
 40
0
 40
1
 40
1
 40
1
 40
1
 10
115.787617
 20
334.575052
 30
0.0
 10
115.578437
 20
334.695822
 30
0.0
 10
115.320716
 20
334.695822
 30
0.0
 10
115.111536
 20
334.575052
 30
0.0
  0
SPLINE
  5
1d0
100
AcDbEntity
  8
Layer_1
 62
1
100
AcDbSpline
 70
8
 71
3
 72
8
 73
4
 74
0
 40
0
 40
0
 40
0
 40
0
 40
1
 40
1
 40
1
 40
1
 10
115.111536
 20
334.575052
 30
0.0
 10
114.902355
 20
334.454281
 30
0.0
 10
114.773495
 20
334.231088
 30
0.0
 10
114.773495
 20
333.989548
 30
0.0
  0
SPLINE
  5
1d1
100
AcDbEntity
  8
Layer_1
 62
1
100
AcDbSpline
 70
8
 71
3
 72
8
 73
4
 74
0
 40
0
 40
0
 40
0
 40
0
 40
1
 40
1
 40
1
 40
1
 10
114.773495
 20
333.989548
 30
0.0
 10
114.773495
 20
333.748007
 30
0.0
 10
114.902355
 20
333.524814
 30
0.0
 10
115.111536
 20
333.404044
 30
0.0
  0
SPLINE
  5
1d2
100
AcDbEntity
  8
Layer_1
 62
1
100
AcDbSpline
 70
8
 71
3
 72
8
 73
4
 74
0
 40
0
 40
0
 40
0
 40
0
 40
1
 40
1
 40
1
 40
1
 10
115.111536
 20
333.404044
 30
0.0
 10
115.320716
 20
333.283273
 30
0.0
 10
115.578437
 20
333.283273
 30
0.0
 10
115.787617
 20
333.404044
 30
0.0
  0
SPLINE
  5
1d3
100
AcDbEntity
  8
Layer_1
 62
1
100
AcDbSpline
 70
8
 71
3
 72
8
 73
4
 74
0
 40
0
 40
0
 40
0
 40
0
 40
1
 40
1
 40
1
 40
1
 10
115.787617
 20
333.404044
 30
0.0
 10
115.996798
 20
333.524814
 30
0.0
 10
116.125658
 20
333.748007
 30
0.0
 10
116.125658
 20
333.989548
 30
0.0
  0
LWPOLYLINE
  5
1d4
100
AcDbEntity
  8
Layer_1
 62
1
100
AcDbPolyline
 90
1
 70
1
 10
116.125658
 20
346.499550
 30
0.0
  0
SPLINE
  5
1d5
100
AcDbEntity
  8
Layer_1
 62
1
100
AcDbSpline
 70
8
 71
3
 72
8
 73
4
 74
0
 40
0
 40
0
 40
0
 40
0
 40
1
 40
1
 40
1
 40
1
 10
126.531919
 20
346.499540
 30
0.0
 10
126.531919
 20
346.741081
 30
0.0
 10
126.403059
 20
346.964273
 30
0.0
 10
126.193878
 20
347.085044
 30
0.0
  0
SPLINE
  5
1d6
100
AcDbEntity
  8
Layer_1
 62
1
100
AcDbSpline
 70
8
 71
3
 72
8
 73
4
 74
0
 40
0
 40
0
 40
0
 40
0
 40
1
 40
1
 40
1
 40
1
 10
126.193878
 20
347.085044
 30
0.0
 10
125.984698
 20
347.205814
 30
0.0
 10
125.726977
 20
347.205814
 30
0.0
 10
125.517797
 20
347.085044
 30
0.0
  0
SPLINE
  5
1d7
100
AcDbEntity
  8
Layer_1
 62
1
100
AcDbSpline
 70
8
 71
3
 72
8
 73
4
 74
0
 40
0
 40
0
 40
0
 40
0
 40
1
 40
1
 40
1
 40
1
 10
125.517797
 20
347.085044
 30
0.0
 10
125.308616
 20
346.964273
 30
0.0
 10
125.179756
 20
346.741081
 30
0.0
 10
125.179756
 20
346.499540
 30
0.0
  0
SPLINE
  5
1d8
100
AcDbEntity
  8
Layer_1
 62
1
100
AcDbSpline
 70
8
 71
3
 72
8
 73
4
 74
0
 40
0
 40
0
 40
0
 40
0
 40
1
 40
1
 40
1
 40
1
 10
125.179756
 20
346.499540
 30
0.0
 10
125.179756
 20
346.257999
 30
0.0
 10
125.308616
 20
346.034806
 30
0.0
 10
125.517797
 20
345.914036
 30
0.0
  0
SPLINE
  5
1d9
100
AcDbEntity
  8
Layer_1
 62
1
100
AcDbSpline
 70
8
 71
3
 72
8
 73
4
 74
0
 40
0
 40
0
 40
0
 40
0
 40
1
 40
1
 40
1
 40
1
 10
125.517797
 20
345.914036
 30
0.0
 10
125.726977
 20
345.793266
 30
0.0
 10
125.984698
 20
345.793266
 30
0.0
 10
126.193878
 20
345.914036
 30
0.0
  0
SPLINE
  5
1da
100
AcDbEntity
  8
Layer_1
 62
1
100
AcDbSpline
 70
8
 71
3
 72
8
 73
4
 74
0
 40
0
 40
0
 40
0
 40
0
 40
1
 40
1
 40
1
 40
1
 10
126.193878
 20
345.914036
 30
0.0
 10
126.403059
 20
346.034806
 30
0.0
 10
126.531919
 20
346.257999
 30
0.0
 10
126.531919
 20
346.499540
 30
0.0
  0
LWPOLYLINE
  5
1db
100
AcDbEntity
  8
Layer_1
 62
1
100
AcDbPolyline
 90
1
 70
1
 10
116.125658
 20
333.989548
 30
0.0
  0
SPLINE
  5
1dc
100
AcDbEntity
  8
Layer_1
 62
1
100
AcDbSpline
 70
8
 71
3
 72
8
 73
4
 74
0
 40
0
 40
0
 40
0
 40
0
 40
1
 40
1
 40
1
 40
1
 10
130.275361
 20
333.989540
 30
0.0
 10
130.275361
 20
334.231081
 30
0.0
 10
130.146500
 20
334.454273
 30
0.0
 10
129.937320
 20
334.575044
 30
0.0
  0
SPLINE
  5
1dd
100
AcDbEntity
  8
Layer_1
 62
1
100
AcDbSpline
 70
8
 71
3
 72
8
 73
4
 74
0
 40
0
 40
0
 40
0
 40
0
 40
1
 40
1
 40
1
 40
1
 10
129.937320
 20
334.575044
 30
0.0
 10
129.728139
 20
334.695814
 30
0.0
 10
129.470418
 20
334.695814
 30
0.0
 10
129.261238
 20
334.575044
 30
0.0
  0
SPLINE
  5
1de
100
AcDbEntity
  8
Layer_1
 62
1
100
AcDbSpline
 70
8
 71
3
 72
8
 73
4
 74
0
 40
0
 40
0
 40
0
 40
0
 40
1
 40
1
 40
1
 40
1
 10
129.261238
 20
334.575044
 30
0.0
 10
129.052058
 20
334.454273
 30
0.0
 10
128.923197
 20
334.231081
 30
0.0
 10
128.923197
 20
333.989540
 30
0.0
  0
SPLINE
  5
1df
100
AcDbEntity
  8
Layer_1
 62
1
100
AcDbSpline
 70
8
 71
3
 72
8
 73
4
 74
0
 40
0
 40
0
 40
0
 40
0
 40
1
 40
1
 40
1
 40
1
 10
128.923197
 20
333.989540
 30
0.0
 10
128.923197
 20
333.747999
 30
0.0
 10
129.052058
 20
333.524806
 30
0.0
 10
129.261238
 20
333.404036
 30
0.0
  0
SPLINE
  5
1e0
100
AcDbEntity
  8
Layer_1
 62
1
100
AcDbSpline
 70
8
 71
3
 72
8
 73
4
 74
0
 40
0
 40
0
 40
0
 40
0
 40
1
 40
1
 40
1
 40
1
 10
129.261238
 20
333.404036
 30
0.0
 10
129.470418
 20
333.283265
 30
0.0
 10
129.728139
 20
333.283265
 30
0.0
 10
129.937320
 20
333.404036
 30
0.0
  0
SPLINE
  5
1e1
100
AcDbEntity
  8
Layer_1
 62
1
100
AcDbSpline
 70
8
 71
3
 72
8
 73
4
 74
0
 40
0
 40
0
 40
0
 40
0
 40
1
 40
1
 40
1
 40
1
 10
129.937320
 20
333.404036
 30
0.0
 10
130.146500
 20
333.524806
 30
0.0
 10
130.275361
 20
333.747999
 30
0.0
 10
130.275361
 20
333.989540
 30
0.0
  0
LWPOLYLINE
  5
1e2
100
AcDbEntity
  8
Layer_1
 62
1
100
AcDbPolyline
 90
1
 70
1
 10
126.531919
 20
346.499540
 30
0.0
  0
LWPOLYLINE
  5
1e3
100
AcDbEntity
  8
Layer_1
 62
1
100
AcDbPolyline
 90
1
 70
1
 10
130.275361
 20
333.989540
 30
0.0
  0
SPLINE
  5
1e4
100
AcDbEntity
  8
Layer_1
 62
1
100
AcDbSpline
 70
8
 71
3
 72
8
 73
4
 74
0
 40
0
 40
0
 40
0
 40
0
 40
1
 40
1
 40
1
 40
1
 10
154.147225
 20
367.944524
 30
0.0
 10
154.147225
 20
367.550481
 30
0.0
 10
153.937006
 20
367.186371
 30
0.0
 10
153.595755
 20
366.989349
 30
0.0
  0
SPLINE
  5
1e5
100
AcDbEntity
  8
Layer_1
 62
1
100
AcDbSpline
 70
8
 71
3
 72
8
 73
4
 74
0
 40
0
 40
0
 40
0
 40
0
 40
1
 40
1
 40
1
 40
1
 10
153.595755
 20
366.989349
 30
0.0
 10
153.254503
 20
366.792328
 30
0.0
 10
152.834065
 20
366.792328
 30
0.0
 10
152.492813
 20
366.989349
 30
0.0
  0
SPLINE
  5
1e6
100
AcDbEntity
  8
Layer_1
 62
1
100
AcDbSpline
 70
8
 71
3
 72
8
 73
4
 74
0
 40
0
 40
0
 40
0
 40
0
 40
1
 40
1
 40
1
 40
1
 10
152.492813
 20
366.989349
 30
0.0
 10
152.151562
 20
367.186371
 30
0.0
 10
151.941343
 20
367.550481
 30
0.0
 10
151.941343
 20
367.944524
 30
0.0
  0
SPLINE
  5
1e7
100
AcDbEntity
  8
Layer_1
 62
1
100
AcDbSpline
 70
8
 71
3
 72
8
 73
4
 74
0
 40
0
 40
0
 40
0
 40
0
 40
1
 40
1
 40
1
 40
1
 10
151.941343
 20
367.944524
 30
0.0
 10
151.941343
 20
368.338567
 30
0.0
 10
152.151562
 20
368.702678
 30
0.0
 10
152.492813
 20
368.899699
 30
0.0
  0
SPLINE
  5
1e8
100
AcDbEntity
  8
Layer_1
 62
1
100
AcDbSpline
 70
8
 71
3
 72
8
 73
4
 74
0
 40
0
 40
0
 40
0
 40
0
 40
1
 40
1
 40
1
 40
1
 10
152.492813
 20
368.899699
 30
0.0
 10
152.834065
 20
369.096721
 30
0.0
 10
153.254503
 20
369.096721
 30
0.0
 10
153.595755
 20
368.899699
 30
0.0
  0
SPLINE
  5
1e9
100
AcDbEntity
  8
Layer_1
 62
1
100
AcDbSpline
 70
8
 71
3
 72
8
 73
4
 74
0
 40
0
 40
0
 40
0
 40
0
 40
1
 40
1
 40
1
 40
1
 10
153.595755
 20
368.899699
 30
0.0
 10
153.937006
 20
368.702678
 30
0.0
 10
154.147225
 20
368.338567
 30
0.0
 10
154.147225
 20
367.944524
 30
0.0
  0
LWPOLYLINE
  5
1ea
100
AcDbEntity
  8
Layer_1
 62
1
100
AcDbPolyline
 90
10
 70
1
 10
153.070560
 20
386.574657
 30
0.0
 10
153.070560
 20
370.830160
 30
0.0
 10
183.140493
 20
370.830689
 30
0.0
 10
183.140757
 20
372.189867
 30
0.0
 10
186.889686
 20
372.189989
 30
0.0
 10
186.889686
 20
365.160044
 30
0.0
 10
149.321996
 20
365.160044
 30
0.0
 10
149.321996
 20
392.333602
 30
0.0
 10
186.889686
 20
392.333602
 30
0.0
 10
186.889686
 20
386.574940
 30
0.0
  0
SPLINE
  5
1eb
100
AcDbEntity
  8
Layer_1
 62
1
100
AcDbSpline
 70
8
 71
3
 72
8
 73
4
 74
0
 40
0
 40
0
 40
0
 40
0
 40
1
 40
1
 40
1
 40
1
 10
154.147225
 20
389.548269
 30
0.0
 10
154.147225
 20
389.154227
 30
0.0
 10
153.937006
 20
388.790116
 30
0.0
 10
153.595755
 20
388.593094
 30
0.0
  0
SPLINE
  5
1ec
100
AcDbEntity
  8
Layer_1
 62
1
100
AcDbSpline
 70
8
 71
3
 72
8
 73
4
 74
0
 40
0
 40
0
 40
0
 40
0
 40
1
 40
1
 40
1
 40
1
 10
153.595755
 20
388.593094
 30
0.0
 10
153.254503
 20
388.396073
 30
0.0
 10
152.834065
 20
388.396073
 30
0.0
 10
152.492813
 20
388.593094
 30
0.0
  0
SPLINE
  5
1ed
100
AcDbEntity
  8
Layer_1
 62
1
100
AcDbSpline
 70
8
 71
3
 72
8
 73
4
 74
0
 40
0
 40
0
 40
0
 40
0
 40
1
 40
1
 40
1
 40
1
 10
152.492813
 20
388.593094
 30
0.0
 10
152.151562
 20
388.790116
 30
0.0
 10
151.941343
 20
389.154227
 30
0.0
 10
151.941343
 20
389.548269
 30
0.0
  0
SPLINE
  5
1ee
100
AcDbEntity
  8
Layer_1
 62
1
100
AcDbSpline
 70
8
 71
3
 72
8
 73
4
 74
0
 40
0
 40
0
 40
0
 40
0
 40
1
 40
1
 40
1
 40
1
 10
151.941343
 20
389.548269
 30
0.0
 10
151.941343
 20
389.942312
 30
0.0
 10
152.151562
 20
390.306423
 30
0.0
 10
152.492813
 20
390.503445
 30
0.0
  0
SPLINE
  5
1ef
100
AcDbEntity
  8
Layer_1
 62
1
100
AcDbSpline
 70
8
 71
3
 72
8
 73
4
 74
0
 40
0
 40
0
 40
0
 40
0
 40
1
 40
1
 40
1
 40
1
 10
152.492813
 20
390.503445
 30
0.0
 10
152.834065
 20
390.700466
 30
0.0
 10
153.254503
 20
390.700466
 30
0.0
 10
153.595755
 20
390.503445
 30
0.0
  0
SPLINE
  5
1f0
100
AcDbEntity
  8
Layer_1
 62
1
100
AcDbSpline
 70
8
 71
3
 72
8
 73
4
 74
0
 40
0
 40
0
 40
0
 40
0
 40
1
 40
1
 40
1
 40
1
 10
153.595755
 20
390.503445
 30
0.0
 10
153.937006
 20
390.306423
 30
0.0
 10
154.147225
 20
389.942312
 30
0.0
 10
154.147225
 20
389.548269
 30
0.0
  0
LWPOLYLINE
  5
1f1
100
AcDbEntity
  8
Layer_1
 62
1
100
AcDbPolyline
 90
1
 70
1
 10
154.147225
 20
367.944524
 30
0.0
  0
SPLINE
  5
1f2
100
AcDbEntity
  8
Layer_1
 62
1
100
AcDbSpline
 70
8
 71
3
 72
8
 73
4
 74
0
 40
0
 40
0
 40
0
 40
0
 40
1
 40
1
 40
1
 40
1
 10
181.457531
 20
367.944524
 30
0.0
 10
181.457531
 20
367.550481
 30
0.0
 10
181.247311
 20
367.186371
 30
0.0
 10
180.906060
 20
366.989349
 30
0.0
  0
SPLINE
  5
1f3
100
AcDbEntity
  8
Layer_1
 62
1
100
AcDbSpline
 70
8
 71
3
 72
8
 73
4
 74
0
 40
0
 40
0
 40
0
 40
0
 40
1
 40
1
 40
1
 40
1
 10
180.906060
 20
366.989349
 30
0.0
 10
180.564809
 20
366.792328
 30
0.0
 10
180.144370
 20
366.792328
 30
0.0
 10
179.803119
 20
366.989349
 30
0.0
  0
SPLINE
  5
1f4
100
AcDbEntity
  8
Layer_1
 62
1
100
AcDbSpline
 70
8
 71
3
 72
8
 73
4
 74
0
 40
0
 40
0
 40
0
 40
0
 40
1
 40
1
 40
1
 40
1
 10
179.803119
 20
366.989349
 30
0.0
 10
179.461868
 20
367.186371
 30
0.0
 10
179.251648
 20
367.550481
 30
0.0
 10
179.251648
 20
367.944524
 30
0.0
  0
SPLINE
  5
1f5
100
AcDbEntity
  8
Layer_1
 62
1
100
AcDbSpline
 70
8
 71
3
 72
8
 73
4
 74
0
 40
0
 40
0
 40
0
 40
0
 40
1
 40
1
 40
1
 40
1
 10
179.251648
 20
367.944524
 30
0.0
 10
179.251648
 20
368.338567
 30
0.0
 10
179.461868
 20
368.702678
 30
0.0
 10
179.803119
 20
368.899699
 30
0.0
  0
SPLINE
  5
1f6
100
AcDbEntity
  8
Layer_1
 62
1
100
AcDbSpline
 70
8
 71
3
 72
8
 73
4
 74
0
 40
0
 40
0
 40
0
 40
0
 40
1
 40
1
 40
1
 40
1
 10
179.803119
 20
368.899699
 30
0.0
 10
180.144370
 20
369.096721
 30
0.0
 10
180.564809
 20
369.096721
 30
0.0
 10
180.906060
 20
368.899699
 30
0.0
  0
SPLINE
  5
1f7
100
AcDbEntity
  8
Layer_1
 62
1
100
AcDbSpline
 70
8
 71
3
 72
8
 73
4
 74
0
 40
0
 40
0
 40
0
 40
0
 40
1
 40
1
 40
1
 40
1
 10
180.906060
 20
368.899699
 30
0.0
 10
181.247311
 20
368.702678
 30
0.0
 10
181.457531
 20
368.338567
 30
0.0
 10
181.457531
 20
367.944524
 30
0.0
  0
LWPOLYLINE
  5
1f8
100
AcDbEntity
  8
Layer_1
 62
1
100
AcDbPolyline
 90
1
 70
1
 10
154.147225
 20
389.548269
 30
0.0
  0
SPLINE
  5
1f9
100
AcDbEntity
  8
Layer_1
 62
1
100
AcDbSpline
 70
8
 71
3
 72
8
 73
4
 74
0
 40
0
 40
0
 40
0
 40
0
 40
1
 40
1
 40
1
 40
1
 10
181.457531
 20
389.548262
 30
0.0
 10
181.457531
 20
389.154219
 30
0.0
 10
181.247311
 20
388.790108
 30
0.0
 10
180.906060
 20
388.593086
 30
0.0
  0
SPLINE
  5
1fa
100
AcDbEntity
  8
Layer_1
 62
1
100
AcDbSpline
 70
8
 71
3
 72
8
 73
4
 74
0
 40
0
 40
0
 40
0
 40
0
 40
1
 40
1
 40
1
 40
1
 10
180.906060
 20
388.593086
 30
0.0
 10
180.564809
 20
388.396065
 30
0.0
 10
180.144370
 20
388.396065
 30
0.0
 10
179.803119
 20
388.593086
 30
0.0
  0
SPLINE
  5
1fb
100
AcDbEntity
  8
Layer_1
 62
1
100
AcDbSpline
 70
8
 71
3
 72
8
 73
4
 74
0
 40
0
 40
0
 40
0
 40
0
 40
1
 40
1
 40
1
 40
1
 10
179.803119
 20
388.593086
 30
0.0
 10
179.461868
 20
388.790108
 30
0.0
 10
179.251648
 20
389.154219
 30
0.0
 10
179.251648
 20
389.548262
 30
0.0
  0
SPLINE
  5
1fc
100
AcDbEntity
  8
Layer_1
 62
1
100
AcDbSpline
 70
8
 71
3
 72
8
 73
4
 74
0
 40
0
 40
0
 40
0
 40
0
 40
1
 40
1
 40
1
 40
1
 10
179.251648
 20
389.548262
 30
0.0
 10
179.251648
 20
389.942304
 30
0.0
 10
179.461868
 20
390.306415
 30
0.0
 10
179.803119
 20
390.503437
 30
0.0
  0
SPLINE
  5
1fd
100
AcDbEntity
  8
Layer_1
 62
1
100
AcDbSpline
 70
8
 71
3
 72
8
 73
4
 74
0
 40
0
 40
0
 40
0
 40
0
 40
1
 40
1
 40
1
 40
1
 10
179.803119
 20
390.503437
 30
0.0
 10
180.144370
 20
390.700458
 30
0.0
 10
180.564809
 20
390.700458
 30
0.0
 10
180.906060
 20
390.503437
 30
0.0
  0
SPLINE
  5
1fe
100
AcDbEntity
  8
Layer_1
 62
1
100
AcDbSpline
 70
8
 71
3
 72
8
 73
4
 74
0
 40
0
 40
0
 40
0
 40
0
 40
1
 40
1
 40
1
 40
1
 10
180.906060
 20
390.503437
 30
0.0
 10
181.247311
 20
390.306415
 30
0.0
 10
181.457531
 20
389.942304
 30
0.0
 10
181.457531
 20
389.548262
 30
0.0
  0
LWPOLYLINE
  5
1ff
100
AcDbEntity
  8
Layer_1
 62
1
100
AcDbPolyline
 90
1
 70
1
 10
181.457531
 20
367.944524
 30
0.0
  0
SPLINE
  5
200
100
AcDbEntity
  8
Layer_1
 62
1
100
AcDbSpline
 70
8
 71
3
 72
8
 73
4
 74
0
 40
0
 40
0
 40
0
 40
0
 40
1
 40
1
 40
1
 40
1
 10
158.271873
 20
389.549352
 30
0.0
 10
158.271873
 20
389.887622
 30
0.0
 10
158.091408
 20
390.200196
 30
0.0
 10
157.798457
 20
390.369331
 30
0.0
  0
SPLINE
  5
201
100
AcDbEntity
  8
Layer_1
 62
1
100
AcDbSpline
 70
8
 71
3
 72
8
 73
4
 74
0
 40
0
 40
0
 40
0
 40
0
 40
1
 40
1
 40
1
 40
1
 10
157.798457
 20
390.369331
 30
0.0
 10
157.505506
 20
390.538466
 30
0.0
 10
157.144576
 20
390.538466
 30
0.0
 10
156.851626
 20
390.369331
 30
0.0
  0
SPLINE
  5
202
100
AcDbEntity
  8
Layer_1
 62
1
100
AcDbSpline
 70
8
 71
3
 72
8
 73
4
 74
0
 40
0
 40
0
 40
0
 40
0
 40
1
 40
1
 40
1
 40
1
 10
156.851626
 20
390.369331
 30
0.0
 10
156.558675
 20
390.200196
 30
0.0
 10
156.378210
 20
389.887622
 30
0.0
 10
156.378210
 20
389.549352
 30
0.0
  0
SPLINE
  5
203
100
AcDbEntity
  8
Layer_1
 62
1
100
AcDbSpline
 70
8
 71
3
 72
8
 73
4
 74
0
 40
0
 40
0
 40
0
 40
0
 40
1
 40
1
 40
1
 40
1
 10
156.378210
 20
389.549352
 30
0.0
 10
156.378210
 20
389.211081
 30
0.0
 10
156.558675
 20
388.898507
 30
0.0
 10
156.851626
 20
388.729372
 30
0.0
  0
SPLINE
  5
204
100
AcDbEntity
  8
Layer_1
 62
1
100
AcDbSpline
 70
8
 71
3
 72
8
 73
4
 74
0
 40
0
 40
0
 40
0
 40
0
 40
1
 40
1
 40
1
 40
1
 10
156.851626
 20
388.729372
 30
0.0
 10
157.144576
 20
388.560237
 30
0.0
 10
157.505506
 20
388.560237
 30
0.0
 10
157.798457
 20
388.729372
 30
0.0
  0
SPLINE
  5
205
100
AcDbEntity
  8
Layer_1
 62
1
100
AcDbSpline
 70
8
 71
3
 72
8
 73
4
 74
0
 40
0
 40
0
 40
0
 40
0
 40
1
 40
1
 40
1
 40
1
 10
157.798457
 20
388.729372
 30
0.0
 10
158.091408
 20
388.898507
 30
0.0
 10
158.271873
 20
389.211081
 30
0.0
 10
158.271873
 20
389.549352
 30
0.0
  0
LWPOLYLINE
  5
206
100
AcDbEntity
  8
Layer_1
 62
1
100
AcDbPolyline
 90
1
 70
1
 10
181.457531
 20
389.548262
 30
0.0
  0
SPLINE
  5
207
100
AcDbEntity
  8
Layer_1
 62
1
100
AcDbSpline
 70
8
 71
3
 72
8
 73
4
 74
0
 40
0
 40
0
 40
0
 40
0
 40
1
 40
1
 40
1
 40
1
 10
177.021504
 20
389.549352
 30
0.0
 10
177.021504
 20
389.887622
 30
0.0
 10
176.841039
 20
390.200196
 30
0.0
 10
176.548089
 20
390.369331
 30
0.0
  0
SPLINE
  5
208
100
AcDbEntity
  8
Layer_1
 62
1
100
AcDbSpline
 70
8
 71
3
 72
8
 73
4
 74
0
 40
0
 40
0
 40
0
 40
0
 40
1
 40
1
 40
1
 40
1
 10
176.548089
 20
390.369331
 30
0.0
 10
176.255138
 20
390.538466
 30
0.0
 10
175.894208
 20
390.538466
 30
0.0
 10
175.601258
 20
390.369331
 30
0.0
  0
SPLINE
  5
209
100
AcDbEntity
  8
Layer_1
 62
1
100
AcDbSpline
 70
8
 71
3
 72
8
 73
4
 74
0
 40
0
 40
0
 40
0
 40
0
 40
1
 40
1
 40
1
 40
1
 10
175.601258
 20
390.369331
 30
0.0
 10
175.308307
 20
390.200196
 30
0.0
 10
175.127842
 20
389.887622
 30
0.0
 10
175.127842
 20
389.549352
 30
0.0
  0
SPLINE
  5
20a
100
AcDbEntity
  8
Layer_1
 62
1
100
AcDbSpline
 70
8
 71
3
 72
8
 73
4
 74
0
 40
0
 40
0
 40
0
 40
0
 40
1
 40
1
 40
1
 40
1
 10
175.127842
 20
389.549352
 30
0.0
 10
175.127842
 20
389.211081
 30
0.0
 10
175.308307
 20
388.898507
 30
0.0
 10
175.601258
 20
388.729372
 30
0.0
  0
SPLINE
  5
20b
100
AcDbEntity
  8
Layer_1
 62
1
100
AcDbSpline
 70
8
 71
3
 72
8
 73
4
 74
0
 40
0
 40
0
 40
0
 40
0
 40
1
 40
1
 40
1
 40
1
 10
175.601258
 20
388.729372
 30
0.0
 10
175.894208
 20
388.560237
 30
0.0
 10
176.255138
 20
388.560237
 30
0.0
 10
176.548089
 20
388.729372
 30
0.0
  0
SPLINE
  5
20c
100
AcDbEntity
  8
Layer_1
 62
1
100
AcDbSpline
 70
8
 71
3
 72
8
 73
4
 74
0
 40
0
 40
0
 40
0
 40
0
 40
1
 40
1
 40
1
 40
1
 10
176.548089
 20
388.729372
 30
0.0
 10
176.841039
 20
388.898507
 30
0.0
 10
177.021504
 20
389.211081
 30
0.0
 10
177.021504
 20
389.549352
 30
0.0
  0
LWPOLYLINE
  5
20d
100
AcDbEntity
  8
Layer_1
 62
1
100
AcDbPolyline
 90
1
 70
1
 10
158.271873
 20
389.549352
 30
0.0
  0
SPLINE
  5
20e
100
AcDbEntity
  8
Layer_1
 62
1
100
AcDbSpline
 70
8
 71
3
 72
8
 73
4
 74
0
 40
0
 40
0
 40
0
 40
0
 40
1
 40
1
 40
1
 40
1
 10
158.271873
 20
367.944662
 30
0.0
 10
158.271873
 20
368.282932
 30
0.0
 10
158.091408
 20
368.595507
 30
0.0
 10
157.798457
 20
368.764642
 30
0.0
  0
SPLINE
  5
20f
100
AcDbEntity
  8
Layer_1
 62
1
100
AcDbSpline
 70
8
 71
3
 72
8
 73
4
 74
0
 40
0
 40
0
 40
0
 40
0
 40
1
 40
1
 40
1
 40
1
 10
157.798457
 20
368.764642
 30
0.0
 10
157.505506
 20
368.933777
 30
0.0
 10
157.144576
 20
368.933777
 30
0.0
 10
156.851626
 20
368.764642
 30
0.0
  0
SPLINE
  5
210
100
AcDbEntity
  8
Layer_1
 62
1
100
AcDbSpline
 70
8
 71
3
 72
8
 73
4
 74
0
 40
0
 40
0
 40
0
 40
0
 40
1
 40
1
 40
1
 40
1
 10
156.851626
 20
368.764642
 30
0.0
 10
156.558675
 20
368.595507
 30
0.0
 10
156.378210
 20
368.282932
 30
0.0
 10
156.378210
 20
367.944662
 30
0.0
  0
SPLINE
  5
211
100
AcDbEntity
  8
Layer_1
 62
1
100
AcDbSpline
 70
8
 71
3
 72
8
 73
4
 74
0
 40
0
 40
0
 40
0
 40
0
 40
1
 40
1
 40
1
 40
1
 10
156.378210
 20
367.944662
 30
0.0
 10
156.378210
 20
367.606392
 30
0.0
 10
156.558675
 20
367.293817
 30
0.0
 10
156.851626
 20
367.124682
 30
0.0
  0
SPLINE
  5
212
100
AcDbEntity
  8
Layer_1
 62
1
100
AcDbSpline
 70
8
 71
3
 72
8
 73
4
 74
0
 40
0
 40
0
 40
0
 40
0
 40
1
 40
1
 40
1
 40
1
 10
156.851626
 20
367.124682
 30
0.0
 10
157.144576
 20
366.955547
 30
0.0
 10
157.505506
 20
366.955547
 30
0.0
 10
157.798457
 20
367.124682
 30
0.0
  0
SPLINE
  5
213
100
AcDbEntity
  8
Layer_1
 62
1
100
AcDbSpline
 70
8
 71
3
 72
8
 73
4
 74
0
 40
0
 40
0
 40
0
 40
0
 40
1
 40
1
 40
1
 40
1
 10
157.798457
 20
367.124682
 30
0.0
 10
158.091408
 20
367.293817
 30
0.0
 10
158.271873
 20
367.606392
 30
0.0
 10
158.271873
 20
367.944662
 30
0.0
  0
LWPOLYLINE
  5
214
100
AcDbEntity
  8
Layer_1
 62
1
100
AcDbPolyline
 90
1
 70
1
 10
177.021504
 20
389.549352
 30
0.0
  0
SPLINE
  5
215
100
AcDbEntity
  8
Layer_1
 62
1
100
AcDbSpline
 70
8
 71
3
 72
8
 73
4
 74
0
 40
0
 40
0
 40
0
 40
0
 40
1
 40
1
 40
1
 40
1
 10
177.021504
 20
367.944662
 30
0.0
 10
177.021504
 20
368.282932
 30
0.0
 10
176.841039
 20
368.595507
 30
0.0
 10
176.548089
 20
368.764642
 30
0.0
  0
SPLINE
  5
216
100
AcDbEntity
  8
Layer_1
 62
1
100
AcDbSpline
 70
8
 71
3
 72
8
 73
4
 74
0
 40
0
 40
0
 40
0
 40
0
 40
1
 40
1
 40
1
 40
1
 10
176.548089
 20
368.764642
 30
0.0
 10
176.255138
 20
368.933777
 30
0.0
 10
175.894208
 20
368.933777
 30
0.0
 10
175.601258
 20
368.764642
 30
0.0
  0
SPLINE
  5
217
100
AcDbEntity
  8
Layer_1
 62
1
100
AcDbSpline
 70
8
 71
3
 72
8
 73
4
 74
0
 40
0
 40
0
 40
0
 40
0
 40
1
 40
1
 40
1
 40
1
 10
175.601258
 20
368.764642
 30
0.0
 10
175.308307
 20
368.595507
 30
0.0
 10
175.127842
 20
368.282932
 30
0.0
 10
175.127842
 20
367.944662
 30
0.0
  0
SPLINE
  5
218
100
AcDbEntity
  8
Layer_1
 62
1
100
AcDbSpline
 70
8
 71
3
 72
8
 73
4
 74
0
 40
0
 40
0
 40
0
 40
0
 40
1
 40
1
 40
1
 40
1
 10
175.127842
 20
367.944662
 30
0.0
 10
175.127842
 20
367.606392
 30
0.0
 10
175.308307
 20
367.293817
 30
0.0
 10
175.601258
 20
367.124682
 30
0.0
  0
SPLINE
  5
219
100
AcDbEntity
  8
Layer_1
 62
1
100
AcDbSpline
 70
8
 71
3
 72
8
 73
4
 74
0
 40
0
 40
0
 40
0
 40
0
 40
1
 40
1
 40
1
 40
1
 10
175.601258
 20
367.124682
 30
0.0
 10
175.894208
 20
366.955547
 30
0.0
 10
176.255138
 20
366.955547
 30
0.0
 10
176.548089
 20
367.124682
 30
0.0
  0
SPLINE
  5
21a
100
AcDbEntity
  8
Layer_1
 62
1
100
AcDbSpline
 70
8
 71
3
 72
8
 73
4
 74
0
 40
0
 40
0
 40
0
 40
0
 40
1
 40
1
 40
1
 40
1
 10
176.548089
 20
367.124682
 30
0.0
 10
176.841039
 20
367.293817
 30
0.0
 10
177.021504
 20
367.606392
 30
0.0
 10
177.021504
 20
367.944662
 30
0.0
  0
LWPOLYLINE
  5
21b
100
AcDbEntity
  8
Layer_1
 62
1
100
AcDbPolyline
 90
1
 70
1
 10
158.271873
 20
367.944662
 30
0.0
  0
LWPOLYLINE
  5
21c
100
AcDbEntity
  8
Layer_1
 62
1
100
AcDbPolyline
 90
1
 70
1
 10
177.021504
 20
367.944662
 30
0.0
  0
SPLINE
  5
21d
100
AcDbEntity
  8
Layer_1
 62
7
100
AcDbSpline
 70
8
 71
3
 72
8
 73
4
 74
0
 40
0
 40
0
 40
0
 40
0
 40
1
 40
1
 40
1
 40
1
 10
-78.562586
 20
390.623242
 30
0.0
 10
-78.562586
 20
390.459859
 30
0.0
 10
-78.649750
 20
390.308886
 30
0.0
 10
-78.791244
 20
390.227194
 30
0.0
  0
SPLINE
  5
21e
100
AcDbEntity
  8
Layer_1
 62
7
100
AcDbSpline
 70
8
 71
3
 72
8
 73
4
 74
0
 40
0
 40
0
 40
0
 40
0
 40
1
 40
1
 40
1
 40
1
 10
-78.791244
 20
390.227194
 30
0.0
 10
-78.932739
 20
390.145502
 30
0.0
 10
-79.107067
 20
390.145502
 30
0.0
 10
-79.248561
 20
390.227194
 30
0.0
  0
SPLINE
  5
21f
100
AcDbEntity
  8
Layer_1
 62
7
100
AcDbSpline
 70
8
 71
3
 72
8
 73
4
 74
0
 40
0
 40
0
 40
0
 40
0
 40
1
 40
1
 40
1
 40
1
 10
-79.248561
 20
390.227194
 30
0.0
 10
-79.390056
 20
390.308886
 30
0.0
 10
-79.477220
 20
390.459859
 30
0.0
 10
-79.477220
 20
390.623242
 30
0.0
  0
SPLINE
  5
220
100
AcDbEntity
  8
Layer_1
 62
7
100
AcDbSpline
 70
8
 71
3
 72
8
 73
4
 74
0
 40
0
 40
0
 40
0
 40
0
 40
1
 40
1
 40
1
 40
1
 10
-79.477220
 20
390.623242
 30
0.0
 10
-79.477220
 20
390.875812
 30
0.0
 10
-79.272472
 20
391.080559
 30
0.0
 10
-79.019903
 20
391.080559
 30
0.0
  0
SPLINE
  5
221
100
AcDbEntity
  8
Layer_1
 62
7
100
AcDbSpline
 70
8
 71
3
 72
8
 73
4
 74
0
 40
0
 40
0
 40
0
 40
0
 40
1
 40
1
 40
1
 40
1
 10
-79.019903
 20
391.080559
 30
0.0
 10
-78.767334
 20
391.080559
 30
0.0
 10
-78.562586
 20
390.875812
 30
0.0
 10
-78.562586
 20
390.623242
 30
0.0
  0
LWPOLYLINE
  5
222
100
AcDbEntity
  8
Layer_1
 62
7
100
AcDbPolyline
 90
4
 70
1
 10
-88.371431
 20
396.365397
 30
0.0
 10
-58.183986
 20
396.365397
 30
0.0
 10
-58.183986
 20
384.881079
 30
0.0
 10
-88.371431
 20
384.881079
 30
0.0
  0
SPLINE
  5
223
100
AcDbEntity
  8
Layer_1
 62
7
100
AcDbSpline
 70
8
 71
3
 72
8
 73
4
 74
0
 40
0
 40
0
 40
0
 40
0
 40
1
 40
1
 40
1
 40
1
 10
-65.707472
 20
390.623031
 30
0.0
 10
-65.707472
 20
385.866935
 30
0.0
 10
-68.244819
 20
381.472121
 30
0.0
 10
-72.363719
 20
379.094073
 30
0.0
  0
SPLINE
  5
224
100
AcDbEntity
  8
Layer_1
 62
7
100
AcDbSpline
 70
8
 71
3
 72
8
 73
4
 74
0
 40
0
 40
0
 40
0
 40
0
 40
1
 40
1
 40
1
 40
1
 10
-72.363719
 20
379.094073
 30
0.0
 10
-76.482619
 20
376.716025
 30
0.0
 10
-81.557313
 20
376.716025
 30
0.0
 10
-85.676213
 20
379.094073
 30
0.0
  0
SPLINE
  5
225
100
AcDbEntity
  8
Layer_1
 62
7
100
AcDbSpline
 70
8
 71
3
 72
8
 73
4
 74
0
 40
0
 40
0
 40
0
 40
0
 40
1
 40
1
 40
1
 40
1
 10
-85.676213
 20
379.094073
 30
0.0
 10
-89.795113
 20
381.472121
 30
0.0
 10
-92.332460
 20
385.866935
 30
0.0
 10
-92.332460
 20
390.623031
 30
0.0
  0
SPLINE
  5
226
100
AcDbEntity
  8
Layer_1
 62
7
100
AcDbSpline
 70
8
 71
3
 72
8
 73
4
 74
0
 40
0
 40
0
 40
0
 40
0
 40
1
 40
1
 40
1
 40
1
 10
-92.332460
 20
390.623031
 30
0.0
 10
-92.332460
 20
395.379127
 30
0.0
 10
-89.795113
 20
399.773941
 30
0.0
 10
-85.676213
 20
402.151989
 30
0.0
  0
SPLINE
  5
227
100
AcDbEntity
  8
Layer_1
 62
7
100
AcDbSpline
 70
8
 71
3
 72
8
 73
4
 74
0
 40
0
 40
0
 40
0
 40
0
 40
1
 40
1
 40
1
 40
1
 10
-85.676213
 20
402.151989
 30
0.0
 10
-81.557313
 20
404.530037
 30
0.0
 10
-76.482619
 20
404.530037
 30
0.0
 10
-72.363719
 20
402.151989
 30
0.0
  0
SPLINE
  5
228
100
AcDbEntity
  8
Layer_1
 62
7
100
AcDbSpline
 70
8
 71
3
 72
8
 73
4
 74
0
 40
0
 40
0
 40
0
 40
0
 40
1
 40
1
 40
1
 40
1
 10
-72.363719
 20
402.151989
 30
0.0
 10
-68.244819
 20
399.773941
 30
0.0
 10
-65.707472
 20
395.379127
 30
0.0
 10
-65.707472
 20
390.623031
 30
0.0
  0
LWPOLYLINE
  5
229
100
AcDbEntity
  8
Layer_1
 62
7
100
AcDbPolyline
 90
1
 70
1
 10
-78.562586
 20
390.623242
 30
0.0
  0
SPLINE
  5
22a
100
AcDbEntity
  8
Layer_1
 62
1
100
AcDbSpline
 70
8
 71
3
 72
8
 73
4
 74
0
 40
0
 40
0
 40
0
 40
0
 40
1
 40
1
 40
1
 40
1
 10
154.147220
 20
397.236638
 30
0.0
 10
154.147220
 20
396.842595
 30
0.0
 10
153.937001
 20
396.478484
 30
0.0
 10
153.595749
 20
396.281463
 30
0.0
  0
SPLINE
  5
22b
100
AcDbEntity
  8
Layer_1
 62
1
100
AcDbSpline
 70
8
 71
3
 72
8
 73
4
 74
0
 40
0
 40
0
 40
0
 40
0
 40
1
 40
1
 40
1
 40
1
 10
153.595749
 20
396.281463
 30
0.0
 10
153.254498
 20
396.084441
 30
0.0
 10
152.834060
 20
396.084441
 30
0.0
 10
152.492808
 20
396.281463
 30
0.0
  0
SPLINE
  5
22c
100
AcDbEntity
  8
Layer_1
 62
1
100
AcDbSpline
 70
8
 71
3
 72
8
 73
4
 74
0
 40
0
 40
0
 40
0
 40
0
 40
1
 40
1
 40
1
 40
1
 10
152.492808
 20
396.281463
 30
0.0
 10
152.151557
 20
396.478484
 30
0.0
 10
151.941338
 20
396.842595
 30
0.0
 10
151.941338
 20
397.236638
 30
0.0
  0
SPLINE
  5
22d
100
AcDbEntity
  8
Layer_1
 62
1
100
AcDbSpline
 70
8
 71
3
 72
8
 73
4
 74
0
 40
0
 40
0
 40
0
 40
0
 40
1
 40
1
 40
1
 40
1
 10
151.941338
 20
397.236638
 30
0.0
 10
151.941338
 20
397.630681
 30
0.0
 10
152.151557
 20
397.994791
 30
0.0
 10
152.492808
 20
398.191813
 30
0.0
  0
SPLINE
  5
22e
100
AcDbEntity
  8
Layer_1
 62
1
100
AcDbSpline
 70
8
 71
3
 72
8
 73
4
 74
0
 40
0
 40
0
 40
0
 40
0
 40
1
 40
1
 40
1
 40
1
 10
152.492808
 20
398.191813
 30
0.0
 10
152.834060
 20
398.388834
 30
0.0
 10
153.254498
 20
398.388834
 30
0.0
 10
153.595749
 20
398.191813
 30
0.0
  0
SPLINE
  5
22f
100
AcDbEntity
  8
Layer_1
 62
1
100
AcDbSpline
 70
8
 71
3
 72
8
 73
4
 74
0
 40
0
 40
0
 40
0
 40
0
 40
1
 40
1
 40
1
 40
1
 10
153.595749
 20
398.191813
 30
0.0
 10
153.937001
 20
397.994791
 30
0.0
 10
154.147220
 20
397.630681
 30
0.0
 10
154.147220
 20
397.236638
 30
0.0
  0
LWPOLYLINE
  5
230
100
AcDbEntity
  8
Layer_1
 62
7
100
AcDbPolyline
 90
1
 70
1
 10
-65.707472
 20
390.623031
 30
0.0
  0
SPLINE
  5
231
100
AcDbEntity
  8
Layer_1
 62
1
100
AcDbSpline
 70
8
 71
3
 72
8
 73
4
 74
0
 40
0
 40
0
 40
0
 40
0
 40
1
 40
1
 40
1
 40
1
 10
181.457538
 20
397.236638
 30
0.0
 10
181.457538
 20
396.842595
 30
0.0
 10
181.247319
 20
396.478484
 30
0.0
 10
180.906068
 20
396.281463
 30
0.0
  0
SPLINE
  5
232
100
AcDbEntity
  8
Layer_1
 62
1
100
AcDbSpline
 70
8
 71
3
 72
8
 73
4
 74
0
 40
0
 40
0
 40
0
 40
0
 40
1
 40
1
 40
1
 40
1
 10
180.906068
 20
396.281463
 30
0.0
 10
180.564816
 20
396.084441
 30
0.0
 10
180.144378
 20
396.084441
 30
0.0
 10
179.803127
 20
396.281463
 30
0.0
  0
SPLINE
  5
233
100
AcDbEntity
  8
Layer_1
 62
1
100
AcDbSpline
 70
8
 71
3
 72
8
 73
4
 74
0
 40
0
 40
0
 40
0
 40
0
 40
1
 40
1
 40
1
 40
1
 10
179.803127
 20
396.281463
 30
0.0
 10
179.461875
 20
396.478484
 30
0.0
 10
179.251656
 20
396.842595
 30
0.0
 10
179.251656
 20
397.236638
 30
0.0
  0
SPLINE
  5
234
100
AcDbEntity
  8
Layer_1
 62
1
100
AcDbSpline
 70
8
 71
3
 72
8
 73
4
 74
0
 40
0
 40
0
 40
0
 40
0
 40
1
 40
1
 40
1
 40
1
 10
179.251656
 20
397.236638
 30
0.0
 10
179.251656
 20
397.630681
 30
0.0
 10
179.461875
 20
397.994791
 30
0.0
 10
179.803127
 20
398.191813
 30
0.0
  0
SPLINE
  5
235
100
AcDbEntity
  8
Layer_1
 62
1
100
AcDbSpline
 70
8
 71
3
 72
8
 73
4
 74
0
 40
0
 40
0
 40
0
 40
0
 40
1
 40
1
 40
1
 40
1
 10
179.803127
 20
398.191813
 30
0.0
 10
180.144378
 20
398.388834
 30
0.0
 10
180.564816
 20
398.388834
 30
0.0
 10
180.906068
 20
398.191813
 30
0.0
  0
SPLINE
  5
236
100
AcDbEntity
  8
Layer_1
 62
1
100
AcDbSpline
 70
8
 71
3
 72
8
 73
4
 74
0
 40
0
 40
0
 40
0
 40
0
 40
1
 40
1
 40
1
 40
1
 10
180.906068
 20
398.191813
 30
0.0
 10
181.247319
 20
397.994791
 30
0.0
 10
181.457538
 20
397.630681
 30
0.0
 10
181.457538
 20
397.236638
 30
0.0
  0
LWPOLYLINE
  5
237
100
AcDbEntity
  8
Layer_1
 62
1
100
AcDbPolyline
 90
1
 70
1
 10
154.147220
 20
397.236638
 30
0.0
  0
SPLINE
  5
238
100
AcDbEntity
  8
Layer_1
 62
1
100
AcDbSpline
 70
8
 71
3
 72
8
 73
4
 74
0
 40
0
 40
0
 40
0
 40
0
 40
1
 40
1
 40
1
 40
1
 10
154.147220
 20
418.840388
 30
0.0
 10
154.147220
 20
418.446345
 30
0.0
 10
153.937001
 20
418.082235
 30
0.0
 10
153.595749
 20
417.885213
 30
0.0
  0
SPLINE
  5
239
100
AcDbEntity
  8
Layer_1
 62
1
100
AcDbSpline
 70
8
 71
3
 72
8
 73
4
 74
0
 40
0
 40
0
 40
0
 40
0
 40
1
 40
1
 40
1
 40
1
 10
153.595749
 20
417.885213
 30
0.0
 10
153.254498
 20
417.688192
 30
0.0
 10
152.834060
 20
417.688192
 30
0.0
 10
152.492808
 20
417.885213
 30
0.0
  0
SPLINE
  5
23a
100
AcDbEntity
  8
Layer_1
 62
1
100
AcDbSpline
 70
8
 71
3
 72
8
 73
4
 74
0
 40
0
 40
0
 40
0
 40
0
 40
1
 40
1
 40
1
 40
1
 10
152.492808
 20
417.885213
 30
0.0
 10
152.151557
 20
418.082235
 30
0.0
 10
151.941338
 20
418.446345
 30
0.0
 10
151.941338
 20
418.840388
 30
0.0
  0
SPLINE
  5
23b
100
AcDbEntity
  8
Layer_1
 62
1
100
AcDbSpline
 70
8
 71
3
 72
8
 73
4
 74
0
 40
0
 40
0
 40
0
 40
0
 40
1
 40
1
 40
1
 40
1
 10
151.941338
 20
418.840388
 30
0.0
 10
151.941338
 20
419.234431
 30
0.0
 10
152.151557
 20
419.598542
 30
0.0
 10
152.492808
 20
419.795563
 30
0.0
  0
SPLINE
  5
23c
100
AcDbEntity
  8
Layer_1
 62
1
100
AcDbSpline
 70
8
 71
3
 72
8
 73
4
 74
0
 40
0
 40
0
 40
0
 40
0
 40
1
 40
1
 40
1
 40
1
 10
152.492808
 20
419.795563
 30
0.0
 10
152.834060
 20
419.992585
 30
0.0
 10
153.254498
 20
419.992585
 30
0.0
 10
153.595749
 20
419.795563
 30
0.0
  0
SPLINE
  5
23d
100
AcDbEntity
  8
Layer_1
 62
1
100
AcDbSpline
 70
8
 71
3
 72
8
 73
4
 74
0
 40
0
 40
0
 40
0
 40
0
 40
1
 40
1
 40
1
 40
1
 10
153.595749
 20
419.795563
 30
0.0
 10
153.937001
 20
419.598542
 30
0.0
 10
154.147220
 20
419.234431
 30
0.0
 10
154.147220
 20
418.840388
 30
0.0
  0
LWPOLYLINE
  5
23e
100
AcDbEntity
  8
Layer_1
 62
1
100
AcDbPolyline
 90
1
 70
1
 10
181.457538
 20
397.236638
 30
0.0
  0
SPLINE
  5
23f
100
AcDbEntity
  8
Layer_1
 62
1
100
AcDbSpline
 70
8
 71
3
 72
8
 73
4
 74
0
 40
0
 40
0
 40
0
 40
0
 40
1
 40
1
 40
1
 40
1
 10
181.457538
 20
418.840372
 30
0.0
 10
181.457538
 20
418.446329
 30
0.0
 10
181.247319
 20
418.082219
 30
0.0
 10
180.906068
 20
417.885197
 30
0.0
  0
SPLINE
  5
240
100
AcDbEntity
  8
Layer_1
 62
1
100
AcDbSpline
 70
8
 71
3
 72
8
 73
4
 74
0
 40
0
 40
0
 40
0
 40
0
 40
1
 40
1
 40
1
 40
1
 10
180.906068
 20
417.885197
 30
0.0
 10
180.564816
 20
417.688176
 30
0.0
 10
180.144378
 20
417.688176
 30
0.0
 10
179.803127
 20
417.885197
 30
0.0
  0
SPLINE
  5
241
100
AcDbEntity
  8
Layer_1
 62
1
100
AcDbSpline
 70
8
 71
3
 72
8
 73
4
 74
0
 40
0
 40
0
 40
0
 40
0
 40
1
 40
1
 40
1
 40
1
 10
179.803127
 20
417.885197
 30
0.0
 10
179.461875
 20
418.082219
 30
0.0
 10
179.251656
 20
418.446329
 30
0.0
 10
179.251656
 20
418.840372
 30
0.0
  0
SPLINE
  5
242
100
AcDbEntity
  8
Layer_1
 62
1
100
AcDbSpline
 70
8
 71
3
 72
8
 73
4
 74
0
 40
0
 40
0
 40
0
 40
0
 40
1
 40
1
 40
1
 40
1
 10
179.251656
 20
418.840372
 30
0.0
 10
179.251656
 20
419.234415
 30
0.0
 10
179.461875
 20
419.598526
 30
0.0
 10
179.803127
 20
419.795547
 30
0.0
  0
SPLINE
  5
243
100
AcDbEntity
  8
Layer_1
 62
1
100
AcDbSpline
 70
8
 71
3
 72
8
 73
4
 74
0
 40
0
 40
0
 40
0
 40
0
 40
1
 40
1
 40
1
 40
1
 10
179.803127
 20
419.795547
 30
0.0
 10
180.144378
 20
419.992569
 30
0.0
 10
180.564816
 20
419.992569
 30
0.0
 10
180.906068
 20
419.795547
 30
0.0
  0
SPLINE
  5
244
100
AcDbEntity
  8
Layer_1
 62
1
100
AcDbSpline
 70
8
 71
3
 72
8
 73
4
 74
0
 40
0
 40
0
 40
0
 40
0
 40
1
 40
1
 40
1
 40
1
 10
180.906068
 20
419.795547
 30
0.0
 10
181.247319
 20
419.598526
 30
0.0
 10
181.457538
 20
419.234415
 30
0.0
 10
181.457538
 20
418.840372
 30
0.0
  0
LWPOLYLINE
  5
245
100
AcDbEntity
  8
Layer_1
 62
1
100
AcDbPolyline
 90
1
 70
1
 10
154.147220
 20
418.840388
 30
0.0
  0
SPLINE
  5
246
100
AcDbEntity
  8
Layer_1
 62
1
100
AcDbSpline
 70
8
 71
3
 72
8
 73
4
 74
0
 40
0
 40
0
 40
0
 40
0
 40
1
 40
1
 40
1
 40
1
 10
162.626904
 20
408.835961
 30
0.0
 10
162.626904
 20
408.174382
 30
0.0
 10
162.273956
 20
407.563058
 30
0.0
 10
161.701012
 20
407.232269
 30
0.0
  0
SPLINE
  5
247
100
AcDbEntity
  8
Layer_1
 62
1
100
AcDbSpline
 70
8
 71
3
 72
8
 73
4
 74
0
 40
0
 40
0
 40
0
 40
0
 40
1
 40
1
 40
1
 40
1
 10
161.701012
 20
407.232269
 30
0.0
 10
161.128068
 20
406.901479
 30
0.0
 10
160.422171
 20
406.901479
 30
0.0
 10
159.849227
 20
407.232269
 30
0.0
  0
SPLINE
  5
248
100
AcDbEntity
  8
Layer_1
 62
1
100
AcDbSpline
 70
8
 71
3
 72
8
 73
4
 74
0
 40
0
 40
0
 40
0
 40
0
 40
1
 40
1
 40
1
 40
1
 10
159.849227
 20
407.232269
 30
0.0
 10
159.276283
 20
407.563058
 30
0.0
 10
158.923335
 20
408.174382
 30
0.0
 10
158.923335
 20
408.835961
 30
0.0
  0
SPLINE
  5
249
100
AcDbEntity
  8
Layer_1
 62
1
100
AcDbSpline
 70
8
 71
3
 72
8
 73
4
 74
0
 40
0
 40
0
 40
0
 40
0
 40
1
 40
1
 40
1
 40
1
 10
158.923335
 20
408.835961
 30
0.0
 10
158.923335
 20
409.497539
 30
0.0
 10
159.276283
 20
410.108863
 30
0.0
 10
159.849227
 20
410.439653
 30
0.0
  0
SPLINE
  5
24a
100
AcDbEntity
  8
Layer_1
 62
1
100
AcDbSpline
 70
8
 71
3
 72
8
 73
4
 74
0
 40
0
 40
0
 40
0
 40
0
 40
1
 40
1
 40
1
 40
1
 10
159.849227
 20
410.439653
 30
0.0
 10
160.422171
 20
410.770442
 30
0.0
 10
161.128068
 20
410.770442
 30
0.0
 10
161.701012
 20
410.439653
 30
0.0
  0
SPLINE
  5
24b
100
AcDbEntity
  8
Layer_1
 62
1
100
AcDbSpline
 70
8
 71
3
 72
8
 73
4
 74
0
 40
0
 40
0
 40
0
 40
0
 40
1
 40
1
 40
1
 40
1
 10
161.701012
 20
410.439653
 30
0.0
 10
162.273956
 20
410.108863
 30
0.0
 10
162.626904
 20
409.497539
 30
0.0
 10
162.626904
 20
408.835961
 30
0.0
  0
LWPOLYLINE
  5
24c
100
AcDbEntity
  8
Layer_1
 62
1
100
AcDbPolyline
 90
1
 70
1
 10
181.457538
 20
418.840372
 30
0.0
  0
SPLINE
  5
24d
100
AcDbEntity
  8
Layer_1
 62
1
100
AcDbSpline
 70
8
 71
3
 72
8
 73
4
 74
0
 40
0
 40
0
 40
0
 40
0
 40
1
 40
1
 40
1
 40
1
 10
172.001895
 20
408.835961
 30
0.0
 10
172.001895
 20
408.174382
 30
0.0
 10
171.648947
 20
407.563058
 30
0.0
 10
171.076003
 20
407.232269
 30
0.0
  0
SPLINE
  5
24e
100
AcDbEntity
  8
Layer_1
 62
1
100
AcDbSpline
 70
8
 71
3
 72
8
 73
4
 74
0
 40
0
 40
0
 40
0
 40
0
 40
1
 40
1
 40
1
 40
1
 10
171.076003
 20
407.232269
 30
0.0
 10
170.503059
 20
406.901479
 30
0.0
 10
169.797163
 20
406.901479
 30
0.0
 10
169.224219
 20
407.232269
 30
0.0
  0
SPLINE
  5
24f
100
AcDbEntity
  8
Layer_1
 62
1
100
AcDbSpline
 70
8
 71
3
 72
8
 73
4
 74
0
 40
0
 40
0
 40
0
 40
0
 40
1
 40
1
 40
1
 40
1
 10
169.224219
 20
407.232269
 30
0.0
 10
168.651275
 20
407.563058
 30
0.0
 10
168.298327
 20
408.174382
 30
0.0
 10
168.298327
 20
408.835961
 30
0.0
  0
SPLINE
  5
250
100
AcDbEntity
  8
Layer_1
 62
1
100
AcDbSpline
 70
8
 71
3
 72
8
 73
4
 74
0
 40
0
 40
0
 40
0
 40
0
 40
1
 40
1
 40
1
 40
1
 10
168.298327
 20
408.835961
 30
0.0
 10
168.298327
 20
409.497539
 30
0.0
 10
168.651275
 20
410.108863
 30
0.0
 10
169.224219
 20
410.439653
 30
0.0
  0
SPLINE
  5
251
100
AcDbEntity
  8
Layer_1
 62
1
100
AcDbSpline
 70
8
 71
3
 72
8
 73
4
 74
0
 40
0
 40
0
 40
0
 40
0
 40
1
 40
1
 40
1
 40
1
 10
169.224219
 20
410.439653
 30
0.0
 10
169.797163
 20
410.770442
 30
0.0
 10
170.503059
 20
410.770442
 30
0.0
 10
171.076003
 20
410.439653
 30
0.0
  0
SPLINE
  5
252
100
AcDbEntity
  8
Layer_1
 62
1
100
AcDbSpline
 70
8
 71
3
 72
8
 73
4
 74
0
 40
0
 40
0
 40
0
 40
0
 40
1
 40
1
 40
1
 40
1
 10
171.076003
 20
410.439653
 30
0.0
 10
171.648947
 20
410.108863
 30
0.0
 10
172.001895
 20
409.497539
 30
0.0
 10
172.001895
 20
408.835961
 30
0.0
  0
LWPOLYLINE
  5
253
100
AcDbEntity
  8
Layer_1
 62
1
100
AcDbPolyline
 90
1
 70
1
 10
162.626904
 20
408.835961
 30
0.0
  0
SPLINE
  5
254
100
AcDbEntity
  8
Layer_1
 62
1
100
AcDbSpline
 70
8
 71
3
 72
8
 73
4
 74
0
 40
0
 40
0
 40
0
 40
0
 40
1
 40
1
 40
1
 40
1
 10
158.001124
 20
418.841818
 30
0.0
 10
158.001124
 20
419.083359
 30
0.0
 10
157.872264
 20
419.306552
 30
0.0
 10
157.663083
 20
419.427322
 30
0.0
  0
SPLINE
  5
255
100
AcDbEntity
  8
Layer_1
 62
1
100
AcDbSpline
 70
8
 71
3
 72
8
 73
4
 74
0
 40
0
 40
0
 40
0
 40
0
 40
1
 40
1
 40
1
 40
1
 10
157.663083
 20
419.427322
 30
0.0
 10
157.453903
 20
419.548092
 30
0.0
 10
157.196182
 20
419.548092
 30
0.0
 10
156.987002
 20
419.427322
 30
0.0
  0
SPLINE
  5
256
100
AcDbEntity
  8
Layer_1
 62
1
100
AcDbSpline
 70
8
 71
3
 72
8
 73
4
 74
0
 40
0
 40
0
 40
0
 40
0
 40
1
 40
1
 40
1
 40
1
 10
156.987002
 20
419.427322
 30
0.0
 10
156.777821
 20
419.306552
 30
0.0
 10
156.648961
 20
419.083359
 30
0.0
 10
156.648961
 20
418.841818
 30
0.0
  0
SPLINE
  5
257
100
AcDbEntity
  8
Layer_1
 62
1
100
AcDbSpline
 70
8
 71
3
 72
8
 73
4
 74
0
 40
0
 40
0
 40
0
 40
0
 40
1
 40
1
 40
1
 40
1
 10
156.648961
 20
418.841818
 30
0.0
 10
156.648961
 20
418.600277
 30
0.0
 10
156.777821
 20
418.377084
 30
0.0
 10
156.987002
 20
418.256314
 30
0.0
  0
SPLINE
  5
258
100
AcDbEntity
  8
Layer_1
 62
1
100
AcDbSpline
 70
8
 71
3
 72
8
 73
4
 74
0
 40
0
 40
0
 40
0
 40
0
 40
1
 40
1
 40
1
 40
1
 10
156.987002
 20
418.256314
 30
0.0
 10
157.196182
 20
418.135544
 30
0.0
 10
157.453903
 20
418.135544
 30
0.0
 10
157.663083
 20
418.256314
 30
0.0
  0
SPLINE
  5
259
100
AcDbEntity
  8
Layer_1
 62
1
100
AcDbSpline
 70
8
 71
3
 72
8
 73
4
 74
0
 40
0
 40
0
 40
0
 40
0
 40
1
 40
1
 40
1
 40
1
 10
157.663083
 20
418.256314
 30
0.0
 10
157.872264
 20
418.377084
 30
0.0
 10
158.001124
 20
418.600277
 30
0.0
 10
158.001124
 20
418.841818
 30
0.0
  0
LWPOLYLINE
  5
25a
100
AcDbEntity
  8
Layer_1
 62
1
100
AcDbPolyline
 90
1
 70
1
 10
172.001895
 20
408.835961
 30
0.0
  0
SPLINE
  5
25b
100
AcDbEntity
  8
Layer_1
 62
1
100
AcDbSpline
 70
8
 71
3
 72
8
 73
4
 74
0
 40
0
 40
0
 40
0
 40
0
 40
1
 40
1
 40
1
 40
1
 10
176.750753
 20
418.841818
 30
0.0
 10
176.750753
 20
419.083359
 30
0.0
 10
176.621893
 20
419.306552
 30
0.0
 10
176.412712
 20
419.427322
 30
0.0
  0
SPLINE
  5
25c
100
AcDbEntity
  8
Layer_1
 62
1
100
AcDbSpline
 70
8
 71
3
 72
8
 73
4
 74
0
 40
0
 40
0
 40
0
 40
0
 40
1
 40
1
 40
1
 40
1
 10
176.412712
 20
419.427322
 30
0.0
 10
176.203532
 20
419.548092
 30
0.0
 10
175.945811
 20
419.548092
 30
0.0
 10
175.736631
 20
419.427322
 30
0.0
  0
SPLINE
  5
25d
100
AcDbEntity
  8
Layer_1
 62
1
100
AcDbSpline
 70
8
 71
3
 72
8
 73
4
 74
0
 40
0
 40
0
 40
0
 40
0
 40
1
 40
1
 40
1
 40
1
 10
175.736631
 20
419.427322
 30
0.0
 10
175.527450
 20
419.306552
 30
0.0
 10
175.398590
 20
419.083359
 30
0.0
 10
175.398590
 20
418.841818
 30
0.0
  0
SPLINE
  5
25e
100
AcDbEntity
  8
Layer_1
 62
1
100
AcDbSpline
 70
8
 71
3
 72
8
 73
4
 74
0
 40
0
 40
0
 40
0
 40
0
 40
1
 40
1
 40
1
 40
1
 10
175.398590
 20
418.841818
 30
0.0
 10
175.398590
 20
418.600277
 30
0.0
 10
175.527450
 20
418.377084
 30
0.0
 10
175.736631
 20
418.256314
 30
0.0
  0
SPLINE
  5
25f
100
AcDbEntity
  8
Layer_1
 62
1
100
AcDbSpline
 70
8
 71
3
 72
8
 73
4
 74
0
 40
0
 40
0
 40
0
 40
0
 40
1
 40
1
 40
1
 40
1
 10
175.736631
 20
418.256314
 30
0.0
 10
175.945811
 20
418.135544
 30
0.0
 10
176.203532
 20
418.135544
 30
0.0
 10
176.412712
 20
418.256314
 30
0.0
  0
SPLINE
  5
260
100
AcDbEntity
  8
Layer_1
 62
1
100
AcDbSpline
 70
8
 71
3
 72
8
 73
4
 74
0
 40
0
 40
0
 40
0
 40
0
 40
1
 40
1
 40
1
 40
1
 10
176.412712
 20
418.256314
 30
0.0
 10
176.621893
 20
418.377084
 30
0.0
 10
176.750753
 20
418.600277
 30
0.0
 10
176.750753
 20
418.841818
 30
0.0
  0
LWPOLYLINE
  5
261
100
AcDbEntity
  8
Layer_1
 62
1
100
AcDbPolyline
 90
1
 70
1
 10
158.001124
 20
418.841818
 30
0.0
  0
SPLINE
  5
262
100
AcDbEntity
  8
Layer_1
 62
1
100
AcDbSpline
 70
8
 71
3
 72
8
 73
4
 74
0
 40
0
 40
0
 40
0
 40
0
 40
1
 40
1
 40
1
 40
1
 10
158.001124
 20
397.237130
 30
0.0
 10
158.001124
 20
397.478671
 30
0.0
 10
157.872263
 20
397.701864
 30
0.0
 10
157.663083
 20
397.822634
 30
0.0
  0
SPLINE
  5
263
100
AcDbEntity
  8
Layer_1
 62
1
100
AcDbSpline
 70
8
 71
3
 72
8
 73
4
 74
0
 40
0
 40
0
 40
0
 40
0
 40
1
 40
1
 40
1
 40
1
 10
157.663083
 20
397.822634
 30
0.0
 10
157.453902
 20
397.943405
 30
0.0
 10
157.196182
 20
397.943405
 30
0.0
 10
156.987001
 20
397.822634
 30
0.0
  0
SPLINE
  5
264
100
AcDbEntity
  8
Layer_1
 62
1
100
AcDbSpline
 70
8
 71
3
 72
8
 73
4
 74
0
 40
0
 40
0
 40
0
 40
0
 40
1
 40
1
 40
1
 40
1
 10
156.987001
 20
397.822634
 30
0.0
 10
156.777821
 20
397.701864
 30
0.0
 10
156.648960
 20
397.478671
 30
0.0
 10
156.648960
 20
397.237130
 30
0.0
  0
SPLINE
  5
265
100
AcDbEntity
  8
Layer_1
 62
1
100
AcDbSpline
 70
8
 71
3
 72
8
 73
4
 74
0
 40
0
 40
0
 40
0
 40
0
 40
1
 40
1
 40
1
 40
1
 10
156.648960
 20
397.237130
 30
0.0
 10
156.648960
 20
396.995590
 30
0.0
 10
156.777821
 20
396.772397
 30
0.0
 10
156.987001
 20
396.651626
 30
0.0
  0
SPLINE
  5
266
100
AcDbEntity
  8
Layer_1
 62
1
100
AcDbSpline
 70
8
 71
3
 72
8
 73
4
 74
0
 40
0
 40
0
 40
0
 40
0
 40
1
 40
1
 40
1
 40
1
 10
156.987001
 20
396.651626
 30
0.0
 10
157.196182
 20
396.530856
 30
0.0
 10
157.453902
 20
396.530856
 30
0.0
 10
157.663083
 20
396.651626
 30
0.0
  0
SPLINE
  5
267
100
AcDbEntity
  8
Layer_1
 62
1
100
AcDbSpline
 70
8
 71
3
 72
8
 73
4
 74
0
 40
0
 40
0
 40
0
 40
0
 40
1
 40
1
 40
1
 40
1
 10
157.663083
 20
396.651626
 30
0.0
 10
157.872263
 20
396.772397
 30
0.0
 10
158.001124
 20
396.995590
 30
0.0
 10
158.001124
 20
397.237130
 30
0.0
  0
LWPOLYLINE
  5
268
100
AcDbEntity
  8
Layer_1
 62
1
100
AcDbPolyline
 90
1
 70
1
 10
176.750753
 20
418.841818
 30
0.0
  0
SPLINE
  5
269
100
AcDbEntity
  8
Layer_1
 62
1
100
AcDbSpline
 70
8
 71
3
 72
8
 73
4
 74
0
 40
0
 40
0
 40
0
 40
0
 40
1
 40
1
 40
1
 40
1
 10
176.750753
 20
397.237130
 30
0.0
 10
176.750753
 20
397.478671
 30
0.0
 10
176.621892
 20
397.701864
 30
0.0
 10
176.412712
 20
397.822634
 30
0.0
  0
SPLINE
  5
26a
100
AcDbEntity
  8
Layer_1
 62
1
100
AcDbSpline
 70
8
 71
3
 72
8
 73
4
 74
0
 40
0
 40
0
 40
0
 40
0
 40
1
 40
1
 40
1
 40
1
 10
176.412712
 20
397.822634
 30
0.0
 10
176.203532
 20
397.943405
 30
0.0
 10
175.945811
 20
397.943405
 30
0.0
 10
175.736630
 20
397.822634
 30
0.0
  0
SPLINE
  5
26b
100
AcDbEntity
  8
Layer_1
 62
1
100
AcDbSpline
 70
8
 71
3
 72
8
 73
4
 74
0
 40
0
 40
0
 40
0
 40
0
 40
1
 40
1
 40
1
 40
1
 10
175.736630
 20
397.822634
 30
0.0
 10
175.527450
 20
397.701864
 30
0.0
 10
175.398589
 20
397.478671
 30
0.0
 10
175.398589
 20
397.237130
 30
0.0
  0
SPLINE
  5
26c
100
AcDbEntity
  8
Layer_1
 62
1
100
AcDbSpline
 70
8
 71
3
 72
8
 73
4
 74
0
 40
0
 40
0
 40
0
 40
0
 40
1
 40
1
 40
1
 40
1
 10
175.398589
 20
397.237130
 30
0.0
 10
175.398589
 20
396.995590
 30
0.0
 10
175.527450
 20
396.772397
 30
0.0
 10
175.736630
 20
396.651626
 30
0.0
  0
SPLINE
  5
26d
100
AcDbEntity
  8
Layer_1
 62
1
100
AcDbSpline
 70
8
 71
3
 72
8
 73
4
 74
0
 40
0
 40
0
 40
0
 40
0
 40
1
 40
1
 40
1
 40
1
 10
175.736630
 20
396.651626
 30
0.0
 10
175.945811
 20
396.530856
 30
0.0
 10
176.203532
 20
396.530856
 30
0.0
 10
176.412712
 20
396.651626
 30
0.0
  0
SPLINE
  5
26e
100
AcDbEntity
  8
Layer_1
 62
1
100
AcDbSpline
 70
8
 71
3
 72
8
 73
4
 74
0
 40
0
 40
0
 40
0
 40
0
 40
1
 40
1
 40
1
 40
1
 10
176.412712
 20
396.651626
 30
0.0
 10
176.621892
 20
396.772397
 30
0.0
 10
176.750753
 20
396.995590
 30
0.0
 10
176.750753
 20
397.237130
 30
0.0
  0
LWPOLYLINE
  5
26f
100
AcDbEntity
  8
Layer_1
 62
1
100
AcDbPolyline
 90
1
 70
1
 10
158.001124
 20
397.237130
 30
0.0
  0
LWPOLYLINE
  5
270
100
AcDbEntity
  8
Layer_1
 62
1
100
AcDbPolyline
 90
1
 70
1
 10
176.750753
 20
397.237130
 30
0.0
  0
SPLINE
  5
271
100
AcDbEntity
  8
Layer_1
 62
1
100
AcDbSpline
 70
8
 71
3
 72
8
 73
4
 74
0
 40
0
 40
0
 40
0
 40
0
 40
1
 40
1
 40
1
 40
1
 10
129.988336
 20
417.869486
 30
0.0
 10
132.646147
 20
412.154486
 30
0.0
 10
147.880522
 20
415.904487
 30
0.0
 10
149.322335
 20
408.494487
 30
0.0
  0
LWPOLYLINE
  5
272
100
AcDbEntity
  8
Layer_1
 62
1
100
AcDbPolyline
 90
15
 70
0
 10
149.322009
 20
394.452044
 30
0.0
 10
184.077136
 20
394.452044
 30
0.0
 10
184.077136
 20
410.851363
 30
0.0
 10
172.827397
 20
410.851363
 30
0.0
 10
172.827397
 20
413.663863
 30
0.0
 10
184.077136
 20
413.663863
 30
0.0
 10
184.077136
 20
421.625604
 30
0.0
 10
159.702397
 20
421.625604
 30
0.0
 10
159.702397
 20
433.134799
 30
0.0
 10
155.098335
 20
433.134799
 30
0.0
 10
155.098335
 20
421.619487
 30
0.0
 10
134.207086
 20
421.619487
 30
0.0
 10
134.207086
 20
433.134799
 30
0.0
 10
129.988336
 20
433.134799
 30
0.0
 10
129.988336
 20
417.869486
 30
0.0
  0
SPLINE
  5
273
100
AcDbEntity
  8
Layer_1
 62
1
100
AcDbSpline
 70
8
 71
3
 72
8
 73
4
 74
0
 40
0
 40
0
 40
0
 40
0
 40
1
 40
1
 40
1
 40
1
 10
132.145015
 20
426.900026
 30
0.0
 10
131.974220
 20
426.729231
 30
0.0
 10
131.725280
 20
426.662528
 30
0.0
 10
131.491970
 20
426.725043
 30
0.0
  0
SPLINE
  5
274
100
AcDbEntity
  8
Layer_1
 62
1
100
AcDbSpline
 70
8
 71
3
 72
8
 73
4
 74
0
 40
0
 40
0
 40
0
 40
0
 40
1
 40
1
 40
1
 40
1
 10
131.491970
 20
426.725043
 30
0.0
 10
131.258660
 20
426.787559
 30
0.0
 10
131.076423
 20
426.969795
 30
0.0
 10
131.013908
 20
427.203105
 30
0.0
  0
SPLINE
  5
275
100
AcDbEntity
  8
Layer_1
 62
1
100
AcDbSpline
 70
8
 71
3
 72
8
 73
4
 74
0
 40
0
 40
0
 40
0
 40
0
 40
1
 40
1
 40
1
 40
1
 10
131.013908
 20
427.203105
 30
0.0
 10
130.951393
 20
427.436416
 30
0.0
 10
131.018096
 20
427.685355
 30
0.0
 10
131.188891
 20
427.856150
 30
0.0
  0
SPLINE
  5
276
100
AcDbEntity
  8
Layer_1
 62
1
100
AcDbSpline
 70
8
 71
3
 72
8
 73
4
 74
0
 40
0
 40
0
 40
0
 40
0
 40
1
 40
1
 40
1
 40
1
 10
131.188891
 20
427.856150
 30
0.0
 10
131.359686
 20
428.026945
 30
0.0
 10
131.608625
 20
428.093648
 30
0.0
 10
131.841936
 20
428.031133
 30
0.0
  0
SPLINE
  5
277
100
AcDbEntity
  8
Layer_1
 62
1
100
AcDbSpline
 70
8
 71
3
 72
8
 73
4
 74
0
 40
0
 40
0
 40
0
 40
0
 40
1
 40
1
 40
1
 40
1
 10
131.841936
 20
428.031133
 30
0.0
 10
132.075246
 20
427.968617
 30
0.0
 10
132.257482
 20
427.786381
 30
0.0
 10
132.319998
 20
427.553071
 30
0.0
  0
SPLINE
  5
278
100
AcDbEntity
  8
Layer_1
 62
1
100
AcDbSpline
 70
8
 71
3
 72
8
 73
4
 74
0
 40
0
 40
0
 40
0
 40
0
 40
1
 40
1
 40
1
 40
1
 10
132.319998
 20
427.553071
 30
0.0
 10
132.382513
 20
427.319760
 30
0.0
 10
132.315810
 20
427.070821
 30
0.0
 10
132.145015
 20
426.900026
 30
0.0
  0
LWPOLYLINE
  5
279
100
AcDbEntity
  8
Layer_1
 62
1
100
AcDbPolyline
 90
2
 70
0
 10
149.322335
 20
408.494487
 30
0.0
 10
149.322009
 20
394.452044
 30
0.0
  0
SPLINE
  5
27a
100
AcDbEntity
  8
Layer_1
 62
1
100
AcDbSpline
 70
8
 71
3
 72
8
 73
4
 74
0
 40
0
 40
0
 40
0
 40
0
 40
1
 40
1
 40
1
 40
1
 10
158.116855
 20
426.900135
 30
0.0
 10
157.946060
 20
426.729339
 30
0.0
 10
157.697120
 20
426.662636
 30
0.0
 10
157.463810
 20
426.725152
 30
0.0
  0
SPLINE
  5
27b
100
AcDbEntity
  8
Layer_1
 62
1
100
AcDbSpline
 70
8
 71
3
 72
8
 73
4
 74
0
 40
0
 40
0
 40
0
 40
0
 40
1
 40
1
 40
1
 40
1
 10
157.463810
 20
426.725152
 30
0.0
 10
157.230499
 20
426.787667
 30
0.0
 10
157.048263
 20
426.969903
 30
0.0
 10
156.985748
 20
427.203214
 30
0.0
  0
SPLINE
  5
27c
100
AcDbEntity
  8
Layer_1
 62
1
100
AcDbSpline
 70
8
 71
3
 72
8
 73
4
 74
0
 40
0
 40
0
 40
0
 40
0
 40
1
 40
1
 40
1
 40
1
 10
156.985748
 20
427.203214
 30
0.0
 10
156.923233
 20
427.436524
 30
0.0
 10
156.989936
 20
427.685463
 30
0.0
 10
157.160731
 20
427.856258
 30
0.0
  0
SPLINE
  5
27d
100
AcDbEntity
  8
Layer_1
 62
1
100
AcDbSpline
 70
8
 71
3
 72
8
 73
4
 74
0
 40
0
 40
0
 40
0
 40
0
 40
1
 40
1
 40
1
 40
1
 10
157.160731
 20
427.856258
 30
0.0
 10
157.331526
 20
428.027054
 30
0.0
 10
157.580465
 20
428.093757
 30
0.0
 10
157.813775
 20
428.031241
 30
0.0
  0
SPLINE
  5
27e
100
AcDbEntity
  8
Layer_1
 62
1
100
AcDbSpline
 70
8
 71
3
 72
8
 73
4
 74
0
 40
0
 40
0
 40
0
 40
0
 40
1
 40
1
 40
1
 40
1
 10
157.813775
 20
428.031241
 30
0.0
 10
158.047086
 20
427.968726
 30
0.0
 10
158.229322
 20
427.786490
 30
0.0
 10
158.291837
 20
427.553179
 30
0.0
  0
SPLINE
  5
27f
100
AcDbEntity
  8
Layer_1
 62
1
100
AcDbSpline
 70
8
 71
3
 72
8
 73
4
 74
0
 40
0
 40
0
 40
0
 40
0
 40
1
 40
1
 40
1
 40
1
 10
158.291837
 20
427.553179
 30
0.0
 10
158.354353
 20
427.319869
 30
0.0
 10
158.287650
 20
427.070930
 30
0.0
 10
158.116855
 20
426.900135
 30
0.0
  0
LWPOLYLINE
  5
280
100
AcDbEntity
  8
Layer_1
 62
1
100
AcDbPolyline
 90
1
 70
1
 10
132.145015
 20
426.900026
 30
0.0
  0
LWPOLYLINE
  5
281
100
AcDbEntity
  8
Layer_1
 62
1
100
AcDbPolyline
 90
1
 70
1
 10
158.116855
 20
426.900135
 30
0.0
  0
LWPOLYLINE
  5
282
100
AcDbEntity
  8
Layer_1
 62
7
100
AcDbPolyline
 90
4
 70
1
 10
-82.818198
 20
396.804637
 30
0.0
 10
-61.927512
 20
396.804637
 30
0.0
 10
-61.927512
 20
385.289010
 30
0.0
 10
-82.818198
 20
385.289010
 30
0.0
  0
ENDSEC
  0
SECTION
  2
OBJECTS
  0
DICTIONARY
  5
C
330
0
100
AcDbDictionary
  3
ACAD_GROUP
350
D
  3
ACAD_MLINESTYLE
350
17
  0
DICTIONARY
  5
D
330
C
100
AcDbDictionary
  0
DICTIONARY
  5
1A
330
C
100
AcDbDictionary
  0
DICTIONARY
  5
17
330
C
100
AcDbDictionary
  3
STANDARD
350
18
  0
DICTIONARY
  5
19
330
C
100
AcDbDictionary
  0
ENDSEC
  0
EOF
